<svg xmlns="http://www.w3.org/2000/svg" width="483.155" height="360.009" viewBox="0 0 483.155 360.009">
  <g id="Product_tour-rafiki" data-name="Product tour-rafiki" transform="translate(0 -55)">
    <g id="freepik--background-complete--inject-68" transform="translate(0 55)">
      <rect id="Rectángulo_8535" data-name="Rectángulo 8535" width="483.155" height="0.242" transform="translate(0 316.37)" fill="#ebebeb"/>
      <rect id="Rectángulo_8536" data-name="Rectángulo 8536" width="32.004" height="0.242" transform="translate(402.739 331.918)" fill="#ebebeb"/>
      <rect id="Rectángulo_8537" data-name="Rectángulo 8537" width="12.456" height="0.242" transform="translate(251.56 328.894)" fill="#ebebeb"/>
      <rect id="Rectángulo_8538" data-name="Rectángulo 8538" width="26.226" height="0.242" transform="translate(311.664 329.918)" fill="#ebebeb"/>
      <rect id="Rectángulo_8539" data-name="Rectángulo 8539" width="54.22" height="0.242" transform="translate(347.553 322.951)" fill="#ebebeb"/>
      <rect id="Rectángulo_8540" data-name="Rectángulo 8540" width="25.636" height="0.242" transform="translate(50.693 334.131)" fill="#ebebeb"/>
      <rect id="Rectángulo_8541" data-name="Rectángulo 8541" width="22.225" height="0.242" transform="translate(84.929 334.131)" fill="#ebebeb"/>
      <rect id="Rectángulo_8542" data-name="Rectángulo 8542" width="58.761" height="0.242" transform="translate(126.587 328.778)" fill="#ebebeb"/>
      <path id="Trazado_111411" data-name="Trazado 111411" d="M230.3,328.273H43.718a5.518,5.518,0,0,1-5.508-5.518V60.469A5.518,5.518,0,0,1,43.718,55H230.3a5.518,5.518,0,0,1,5.518,5.518V322.755A5.518,5.518,0,0,1,230.3,328.273ZM43.718,55.193a5.276,5.276,0,0,0-5.266,5.276V322.755a5.276,5.276,0,0,0,5.266,5.276H230.3a5.286,5.286,0,0,0,5.276-5.276V60.469a5.286,5.286,0,0,0-5.276-5.276Z" transform="translate(-1.287 -55)" fill="#ebebeb"/>
      <path id="Trazado_111412" data-name="Trazado 111412" d="M446.612,328.273H260.018a5.527,5.527,0,0,1-5.518-5.518V60.469A5.527,5.527,0,0,1,260.018,55H446.612a5.518,5.518,0,0,1,5.5,5.469V322.755A5.518,5.518,0,0,1,446.612,328.273ZM260.018,55.193a5.286,5.286,0,0,0-5.276,5.276V322.755a5.286,5.286,0,0,0,5.276,5.276H446.612a5.286,5.286,0,0,0,5.276-5.276V60.469a5.286,5.286,0,0,0-5.276-5.276Z" transform="translate(-8.574 -55)" fill="#ebebeb"/>
      <rect id="Rectángulo_8543" data-name="Rectángulo 8543" width="6.977" height="297.044" transform="translate(69.603 316.37) rotate(180)" fill="#e0e0e0"/>
      <rect id="Rectángulo_8544" data-name="Rectángulo 8544" width="183.638" height="287.168" transform="translate(249.753 316.37) rotate(180)" fill="#f5f5f5"/>
      <path id="Trazado_111413" data-name="Trazado 111413" d="M89.44,262.193h77.788V140.544l-76.6-.464Z" transform="translate(-3.013 -57.866)" fill="#e0e0e0"/>
      <rect id="Rectángulo_8545" data-name="Rectángulo 8545" width="77.788" height="121.639" transform="translate(165.394 203.466) rotate(180)" fill="#fff"/>
      <circle id="Elipse_4250" data-name="Elipse 4250" cx="22.631" cy="22.631" r="22.631" transform="translate(103.878 98.805)" fill="#f5f5f5"/>
      <circle id="Elipse_4251" data-name="Elipse 4251" cx="13.683" cy="13.683" r="13.683" transform="translate(108.63 158.711) rotate(-22.5)" fill="#f5f5f5"/>
      <rect id="Rectángulo_8546" data-name="Rectángulo 8546" width="6.977" height="297.044" transform="translate(420.857 316.37) rotate(180)" fill="#e0e0e0"/>
      <rect id="Rectángulo_8547" data-name="Rectángulo 8547" width="315.607" height="44.663" transform="translate(59.187 23.191)" fill="#f0f0f0"/>
      <rect id="Rectángulo_8548" data-name="Rectángulo 8548" width="148.493" height="21.471" transform="translate(213.313 34.787)" fill="#fff"/>
      <rect id="Rectángulo_8549" data-name="Rectángulo 8549" width="128.887" height="21.471" transform="translate(201.07 56.259) rotate(180)" fill="#fff"/>
      <rect id="Rectángulo_8550" data-name="Rectángulo 8550" width="49.176" height="44.663" transform="translate(423.969 67.854) rotate(180)" fill="#e0e0e0"/>
      <rect id="Rectángulo_8551" data-name="Rectángulo 8551" width="20.979" height="21.471" transform="translate(398.342 34.787)" fill="#fff"/>
      <rect id="Rectángulo_8552" data-name="Rectángulo 8552" width="14.514" height="21.471" transform="translate(396.613 56.259) rotate(180)" fill="#fff"/>
      <path id="Trazado_111414" data-name="Trazado 111414" d="M.029,0h167.22V132.645a9.663,9.663,0,0,1-9.663,9.663H9.663A9.663,9.663,0,0,1,0,132.645V0Z" transform="translate(378.562 316.37) rotate(180)" fill="#e0e0e0"/>
      <path id="Trazado_111415" data-name="Trazado 111415" d="M.029,0h167.23V132.645a9.663,9.663,0,0,1-9.663,9.663H9.663A9.663,9.663,0,0,1,0,132.645V0Z" transform="translate(359.168 316.37) rotate(180)" fill="#e0e0e0"/>
      <path id="Trazado_111416" data-name="Trazado 111416" d="M6.426,0H139.071V160.813H6.426A6.426,6.426,0,0,1,0,154.387V6.426A6.426,6.426,0,0,1,6.426,0Z" transform="translate(355.931 177.299) rotate(90)" fill="#fff" opacity="0.3"/>
      <path id="Trazado_111417" data-name="Trazado 111417" d="M6.426,0H139.1V159.093H6.426A6.426,6.426,0,0,1,0,152.667V6.416A6.426,6.426,0,0,1,6.426,0Z" transform="translate(355.921 177.299) rotate(90)" fill="#fff" opacity="0.9"/>
      <path id="Trazado_111418" data-name="Trazado 111418" d="M336.1,234.5H323.873L320.23,215.53h12.224Z" transform="translate(-10.788 -60.408)" fill="#e0e0e0"/>
      <path id="Trazado_111419" data-name="Trazado 111419" d="M343.027,191.16H326.6a2.822,2.822,0,0,0-2.648,2.049l-7.064,30.439a1.623,1.623,0,0,0,1.691,2.058h16.427a2.821,2.821,0,0,0,2.648-2.058l7.064-30.439a1.623,1.623,0,0,0-1.691-2.049Z" transform="translate(-10.674 -59.587)" fill="#e6e6e6"/>
      <path id="Trazado_111420" data-name="Trazado 111420" d="M335.578,222.15h-15.77a.86.86,0,0,1-.9-1.082l6.426-27.675a1.488,1.488,0,0,1,1.4-1.082h15.77a.86.86,0,0,1,.9,1.082l-6.426,27.675A1.488,1.488,0,0,1,335.578,222.15Z" transform="translate(-10.743 -59.626)" fill="#fff"/>
      <path id="Trazado_111421" data-name="Trazado 111421" d="M301.886,234.5H289.653L286.01,215.53h12.224Z" transform="translate(-9.635 -60.408)" fill="#e0e0e0"/>
      <path id="Trazado_111422" data-name="Trazado 111422" d="M312.148,187.39h-20.7a2.822,2.822,0,0,0-2.648,2.049l-7.914,34.082a1.633,1.633,0,0,0,1.7,2.058h20.689a2.822,2.822,0,0,0,2.648-2.058l7.924-34.082a1.623,1.623,0,0,0-1.7-2.049Z" transform="translate(-9.461 -59.46)" fill="#e6e6e6"/>
      <path id="Trazado_111423" data-name="Trazado 111423" d="M303.849,222.023H283.818a.85.85,0,0,1-.889-1.082l7.267-31.318a1.488,1.488,0,0,1,1.4-1.082h20.022a.85.85,0,0,1,.9,1.082l-7.3,31.318A1.488,1.488,0,0,1,303.849,222.023Z" transform="translate(-9.531 -59.499)" fill="#fff"/>
      <path id="Trazado_111424" data-name="Trazado 111424" d="M262.967,234.5H250.743L247.1,215.53h12.224Z" transform="translate(-8.325 -60.408)" fill="#e0e0e0"/>
      <path id="Trazado_111425" data-name="Trazado 111425" d="M275.923,182.67h-26.39a2.822,2.822,0,0,0-2.648,2.049l-8.977,38.652a1.633,1.633,0,0,0,1.7,2.058h26.409a2.822,2.822,0,0,0,2.648-2.058l8.967-38.652a1.614,1.614,0,0,0-1.71-2.049Z" transform="translate(-8.013 -59.301)" fill="#e6e6e6"/>
      <path id="Trazado_111426" data-name="Trazado 111426" d="M266.571,221.864H240.848a.85.85,0,0,1-.9-1.082l8.33-35.879a1.488,1.488,0,0,1,1.4-1.082H275.4a.85.85,0,0,1,.889,1.082l-8.272,35.879A1.5,1.5,0,0,1,266.571,221.864Z" transform="translate(-8.083 -59.34)" fill="#fff"/>
      <rect id="Rectángulo_8553" data-name="Rectángulo 8553" width="119.194" height="9.663" transform="translate(206.114 204.21)" fill="#f0f0f0"/>
      <rect id="Rectángulo_8554" data-name="Rectángulo 8554" width="78.194" height="9.663" transform="translate(206.114 224.754)" fill="#f0f0f0"/>
      <rect id="Rectángulo_8555" data-name="Rectángulo 8555" width="102.023" height="9.663" transform="translate(206.114 245.298)" fill="#f0f0f0"/>
    </g>
    <g id="freepik--Shadow--inject-68" transform="translate(54.22 393.132)">
      <ellipse id="freepik--path--inject-68" cx="187.358" cy="10.939" rx="187.358" ry="10.939" fill="#f5f5f5"/>
    </g>
    <g id="freepik--character-1--inject-68" transform="translate(79.199 88.433)">
      <path id="Trazado_111427" data-name="Trazado 111427" d="M157.349,404.144l7.431-1.72-2.9-17.394-7.441,1.73Z" transform="translate(-84.402 -99.552)" fill="#ce7a63"/>
      <path id="Trazado_111428" data-name="Trazado 111428" d="M165.043,402l-8.359,1.933a.551.551,0,0,0-.435.638l1.082,6.677a1.334,1.334,0,0,0,1.594,1.015c2.9-.725,4.252-1.218,7.924-2.068,2.261-.522,11.915-2.522,15.036-3.247s2.338-3.778.966-3.749c-6.213.126-13.954.106-16.427-1.044A2.154,2.154,0,0,0,165.043,402Z" transform="translate(-84.462 -100.122)" fill="#263238"/>
      <path id="Trazado_111429" data-name="Trazado 111429" d="M154.44,386.77l7.441-1.73,1.5,8.958-7.441,1.73Z" transform="translate(-84.402 -99.552)" opacity="0.2"/>
      <path id="Trazado_111430" data-name="Trazado 111430" d="M141.941,208.16s9.769,61.979,12.668,83.6c3.15,23.684,9.8,92.93,9.8,92.93l-13.47,3.711s-12.755-67.1-18.012-90.118c-5.711-24.979-18.2-90.118-18.2-90.118Z" transform="translate(-83.064 -93.593)" fill="#d9a171"/>
      <path id="Trazado_111431" data-name="Trazado 111431" d="M141.941,208.16s9.769,61.979,12.668,83.6c3.15,23.684,9.8,92.93,9.8,92.93l-13.47,3.711s-12.755-67.1-18.012-90.118c-5.711-24.979-18.2-90.118-18.2-90.118Z" transform="translate(-83.064 -93.593)" fill="#fff" opacity="0.5"/>
      <path id="Trazado_111432" data-name="Trazado 111432" d="M126.115,230.549c5.15,13.132,4.832,39.116,2.638,48.267-3.1-15.026-6.658-33.009-9.393-46.982C120.4,228.249,122.984,222.557,126.115,230.549Z" transform="translate(-83.22 -94.211)" opacity="0.3"/>
      <path id="Trazado_111433" data-name="Trazado 111433" d="M151.788,394.617l14.427-3.971-.232-5.866-16.253,5.6Z" transform="translate(-84.243 -99.543)" fill="#d9a171"/>
      <path id="Trazado_111434" data-name="Trazado 111434" d="M168.293,402.677a9.835,9.835,0,0,1-2.039.193.154.154,0,0,1-.155-.106.174.174,0,0,1,0-.193c.2-.213,1.981-2.135,2.967-1.991a.638.638,0,0,1,.512.387.966.966,0,0,1,0,.966A2.116,2.116,0,0,1,168.293,402.677Zm-1.614-.164c1.382-.048,2.358-.319,2.628-.744a.648.648,0,0,0,0-.647.3.3,0,0,0-.242-.193C168.515,400.85,167.413,401.759,166.679,402.512Z" transform="translate(-84.794 -100.075)" fill="#d9a171"/>
      <path id="Trazado_111435" data-name="Trazado 111435" d="M166.281,402.814H166.2a.174.174,0,0,1-.126-.116c0-.087-.676-2.184-.087-3.073a.909.909,0,0,1,.676-.416.667.667,0,0,1,.744.377c.358.773-.406,2.57-1.044,3.189A.125.125,0,0,1,166.281,402.814Zm.338-3.237a.6.6,0,0,0-.338.242,3.924,3.924,0,0,0,0,2.464,3.6,3.6,0,0,0,.763-2.541c0-.1-.126-.2-.387-.174Z" transform="translate(-84.783 -100.029)" fill="#d9a171"/>
      <path id="Trazado_111436" data-name="Trazado 111436" d="M145.3,148.1c.734,2.029,1.517,4.242,2.338,6.339s1.643,4.232,2.522,6.31a92.9,92.9,0,0,0,5.8,11.847l.821,1.285.319.493a1.761,1.761,0,0,0,.193.28,3.229,3.229,0,0,0,.435.512,1.807,1.807,0,0,0,1.189.077,8.086,8.086,0,0,0,2.252-.754c3.363-1.594,6.967-4.677,10.146-7.634l4.609,3.392a42.394,42.394,0,0,1-4.319,6.291,30.864,30.864,0,0,1-5.846,5.537,17.636,17.636,0,0,1-4.145,2.194,11.7,11.7,0,0,1-5.8.58,11,11,0,0,1-5.692-2.812,12.507,12.507,0,0,1-.966-1.024l-.445-.512-.3-.4-1.227-1.594a80.205,80.205,0,0,1-7.528-13.113c-1.024-2.242-2.01-4.484-2.9-6.764s-1.72-4.513-2.464-6.957Z" transform="translate(-83.723 -91.57)" fill="#ce7a63"/>
      <path id="Trazado_111437" data-name="Trazado 111437" d="M139.975,139.988c-7.557-1.759-12.147,3.063-9.876,12.562a142.539,142.539,0,0,0,5.16,15.954c.445,1.169.85,2.213,1.189,3.053l17.171-9.566C151.726,154.482,145.039,141.176,139.975,139.988Z" transform="translate(-83.562 -91.284)" fill="#263238"/>
      <path id="Trazado_111438" data-name="Trazado 111438" d="M140.612,149.268c-4.561-4.068.106,12.436,2.02,19.326l5.044-2.812C147.174,161,144.12,152.389,140.612,149.268Z" transform="translate(-83.871 -91.588)" opacity="0.3"/>
      <path id="Trazado_111439" data-name="Trazado 111439" d="M99.12,407.575h7.615l1.131-17.635h-7.624Z" transform="translate(-82.538 -99.717)" fill="#ce7a63"/>
      <path id="Trazado_111440" data-name="Trazado 111440" d="M107.085,407.28H98.534a.541.541,0,0,0-.57.522l-.473,6.764a1.333,1.333,0,0,0,1.324,1.353c2.976-.048,4.406-.222,8.165-.222,2.319,0,12.156.242,15.345.242s3.131-3.16,1.778-3.45c-6.059-1.285-13.528-3.054-15.712-4.745a2.155,2.155,0,0,0-1.3-.464Z" transform="translate(-82.483 -100.301)" fill="#263238"/>
      <path id="Trazado_111441" data-name="Trazado 111441" d="M100.26,389.95h7.624l-.589,9.093H99.68Z" transform="translate(-82.557 -99.717)" opacity="0.2"/>
      <path id="Trazado_111442" data-name="Trazado 111442" d="M126.457,208.16s.271,57.8-1.14,79.6c-1.536,23.878-14.8,102.96-14.8,102.96H96.53s6.928-77.16,6.271-100.8c-.705-25.656-2.194-81.76-2.194-81.76Z" transform="translate(-82.451 -93.593)" fill="#d9a171"/>
      <path id="Trazado_111443" data-name="Trazado 111443" d="M126.457,208.16s.271,57.8-1.14,79.6c-1.536,23.878-14.8,102.96-14.8,102.96H96.53s6.928-77.16,6.271-100.8c-.705-25.656-2.194-81.76-2.194-81.76Z" transform="translate(-82.451 -93.593)" fill="#fff" opacity="0.5"/>
      <path id="Trazado_111444" data-name="Trazado 111444" d="M95.916,396.9h15.074l.879-5.286-16.64.821Z" transform="translate(-82.407 -99.773)" fill="#d9a171"/>
      <path id="Trazado_111445" data-name="Trazado 111445" d="M110.124,408.582a9.659,9.659,0,0,1-2.029-.271.164.164,0,0,1-.126-.135.174.174,0,0,1,.029-.222c.251-.164,2.416-1.643,3.343-1.275a.657.657,0,0,1,.406.5.967.967,0,0,1-.232.966A2.059,2.059,0,0,1,110.124,408.582Zm-1.536-.532c1.362.28,2.367.232,2.725-.116a.667.667,0,0,0,.126-.638.309.309,0,0,0-.193-.251C110.742,406.852,109.476,407.49,108.587,408.05Z" transform="translate(-82.835 -100.279)" fill="#d9a171"/>
      <path id="Trazado_111446" data-name="Trazado 111446" d="M108.133,408.26h-.077a.193.193,0,0,1-.1-.145c0-.1-.155-2.29.618-3.025a.9.9,0,0,1,.754-.251.676.676,0,0,1,.638.541c.164.831-.966,2.416-1.739,2.9a.165.165,0,0,1-.1-.019Zm1.073-3.092a.522.522,0,0,0-.387.155,4.02,4.02,0,0,0-.522,2.425c.667-.56,1.44-1.768,1.324-2.319,0-.1-.077-.222-.338-.251Z" transform="translate(-82.835 -100.219)" fill="#d9a171"/>
      <path id="Trazado_111447" data-name="Trazado 111447" d="M141.325,205.783H100.6c-.261-3.643.676-15.461.164-30.535a192.883,192.883,0,0,0-3.788-33.222c-.174-.821-.358-1.633-.541-2.454,0,0,2.068-.416,5.025-.85,2.464-.358,5.547-.734,8.561-.87a149.778,149.778,0,0,1,17.307,0c2.657.242,5.257.686,7.325,1.082,2.648.531,4.2.966,4.2.966S148.717,162.956,141.325,205.783Z" transform="translate(-82.448 -91.216)" fill="#263238"/>
      <path id="Trazado_111448" data-name="Trazado 111448" d="M126.584,162.475a.5.5,0,0,1-.28-.087c-.164-.116-16.872-12.069-22.8-23.742a.483.483,0,0,1,.213-.647.474.474,0,0,1,.647.213c5.8,11.46,22.331,23.269,22.5,23.394a.483.483,0,0,1,.116.667A.493.493,0,0,1,126.584,162.475Z" transform="translate(-82.684 -91.227)" fill="#d9a171"/>
      <path id="Trazado_111449" data-name="Trazado 111449" d="M127.373,162.471a.5.5,0,0,1-.28-.087.473.473,0,0,1-.116-.667,36.208,36.208,0,0,0,4.725-23.327.493.493,0,0,1,.415-.541.483.483,0,0,1,.541.425,37.145,37.145,0,0,1-4.89,23.993.474.474,0,0,1-.4.2Z" transform="translate(-83.474 -91.224)" fill="#d9a171"/>
      <path id="Trazado_111450" data-name="Trazado 111450" d="M133.936,177.725H122.659L121.48,161.51h11.277Z" transform="translate(-83.291 -92.021)" fill="#d9a171"/>
      <path id="Trazado_111451" data-name="Trazado 111451" d="M133.454,176.846h-9.992L122.39,162.11h10Z" transform="translate(-83.322 -92.042)" fill="#fff"/>
      <path id="Trazado_111452" data-name="Trazado 111452" d="M127.89,169.624h-4.184l-.4-5.334H127.5Z" transform="translate(-83.353 -92.115)" fill="#d9a171"/>
      <path id="Trazado_111453" data-name="Trazado 111453" d="M132,172.081h-8.127l-.058-.831h8.127Z" transform="translate(-83.37 -92.35)" fill="#d9a171"/>
      <path id="Trazado_111454" data-name="Trazado 111454" d="M132.145,174.011h-8.127l-.058-.821h8.127Z" transform="translate(-83.375 -92.415)" fill="#d9a171"/>
      <path id="Trazado_111455" data-name="Trazado 111455" d="M131.531,175.951h-7.373l-.058-.821h7.373Z" transform="translate(-83.38 -92.48)" fill="#d9a171"/>
      <path id="Trazado_111456" data-name="Trazado 111456" d="M100.788,175.4A192.676,192.676,0,0,0,97,142.188c2.725-.242,7.373,0,8.117,4.426C105.909,151.339,104.73,162.451,100.788,175.4Z" transform="translate(-82.467 -91.368)" opacity="0.3"/>
      <path id="Trazado_111457" data-name="Trazado 111457" d="M104.032,149.522l-4.078,14.04-2.049,7.025-1.933,7.006-.126.435-.058.213v.116h0a.889.889,0,0,0,0-.29c0-.155-.077-.135,0,0a4.764,4.764,0,0,0,.966,1.681,28.817,28.817,0,0,0,4.638,4.271,127,127,0,0,0,11.847,7.837l-2.165,5.3a68.75,68.75,0,0,1-7.334-2.464,66.328,66.328,0,0,1-7.1-3.324,33.647,33.647,0,0,1-6.948-4.919,15.209,15.209,0,0,1-3.247-4.348,9.934,9.934,0,0,1-.966-3.566,9.375,9.375,0,0,1,.106-2.136l.2-1.082c.889-4.976,1.933-9.866,3.189-14.717s2.561-9.663,4.107-14.446Z" transform="translate(-82.078 -91.504)" fill="#ce7a63"/>
      <path id="Trazado_111458" data-name="Trazado 111458" d="M95.952,139.628c-5.073,1.179-10.765,14.543-12.775,22.061-.329,1.276-.6,2.377-.8,3.218-.271,1.111-.416,1.778-.416,1.778l17.026,4.832c.348-.841.773-1.933,1.227-3.054a143.984,143.984,0,0,0,5.421-15.925C108.089,143.049,103.538,137.869,95.952,139.628Z" transform="translate(-81.96 -91.273)" fill="#263238"/>
      <path id="Trazado_111459" data-name="Trazado 111459" d="M126.962,137.114c-5.015-1.189-5.875-4.3-5.508-7.73a20.3,20.3,0,0,1,.416-2.551l-6.262-5.237-4.6-3.865c1.237,5.576,2.6,15.732-1.2,19.452a15.683,15.683,0,0,0,13.77,6.861C127.909,139.356,126.962,137.114,126.962,137.114Z" transform="translate(-82.898 -90.546)" fill="#ce7a63"/>
      <path id="Trazado_111460" data-name="Trazado 111460" d="M106.64,137.81a28.643,28.643,0,0,1,3.276-.56c1.826,3.111,9.663,7.508,12.32,7.508,0,0-2.657,1.16-3.324,5.353C114.834,147.821,106.988,141.956,106.64,137.81Z" transform="translate(-82.791 -91.204)" fill="#fff"/>
      <path id="Trazado_111461" data-name="Trazado 111461" d="M129.355,137.851A6.435,6.435,0,0,0,127,137.6c.058,3.044-.9,4.455-2.377,6.542a5.8,5.8,0,0,1,3.865,4.977C131.51,145.919,130.5,140.141,129.355,137.851Z" transform="translate(-83.397 -91.215)" fill="#fff"/>
      <path id="Trazado_111462" data-name="Trazado 111462" d="M122.059,126.977a20.292,20.292,0,0,0-.416,2.551c-2.348-.473-5.894-2.57-6.213-5.218a10.63,10.63,0,0,1,.367-2.57Z" transform="translate(-83.088 -90.682)" opacity="0.2"/>
      <path id="Trazado_111463" data-name="Trazado 111463" d="M107.995,108.589c1.2,7.489,1.527,11.924,5.7,15.519,6.271,5.4,15.21,1.3,16.263-6.329.966-6.87-1.169-17.964-8.813-20.437a10.03,10.03,0,0,0-13.151,11.248Z" transform="translate(-82.832 -89.841)" fill="#ce7a63"/>
      <path id="Trazado_111464" data-name="Trazado 111464" d="M110.35,116.628c2.628-4.716,4.184-10.349,1.44-12.842,3.7,0,8.078-1.4,9.663-2.793,2.9,1.343,6.155,1.16,7.489-1.933,1.121-2.561-.5-6.01-4.919-5.74-7.035-5.585-19.326-4.406-15.461.377-10.117-.754-11.248,4.832-7.392,6.764C95.092,104.162,96.386,113.5,110.35,116.628Z" transform="translate(-82.491 -89.599)" fill="#263238"/>
      <path id="Trazado_111465" data-name="Trazado 111465" d="M105.81,116.45a8.04,8.04,0,0,0,4.522,3.025c2.309.512,2.9-1.633,1.933-3.778-.966-1.933-3.324-4.532-5.431-4.078S104.4,114.556,105.81,116.45Z" transform="translate(-82.735 -90.339)" fill="#ce7a63"/>
      <path id="Trazado_111466" data-name="Trazado 111466" d="M120,110.28c.058.618.435,1.092.831,1.063s.676-.551.618-1.16-.435-1.092-.841-1.063S120,109.671,120,110.28Z" transform="translate(-83.242 -90.256)" fill="#263238"/>
      <path id="Trazado_111467" data-name="Trazado 111467" d="M127.19,109.78c.068.609.435,1.082.831,1.053s.676-.541.618-1.16-.435-1.082-.831-1.053S127.132,109.171,127.19,109.78Z" transform="translate(-83.483 -90.24)" fill="#263238"/>
      <path id="Trazado_111468" data-name="Trazado 111468" d="M125,110.29a22.746,22.746,0,0,0,3.44,5.034,3.469,3.469,0,0,1-2.9.754Z" transform="translate(-83.41 -90.296)" fill="#ba4d3c"/>
      <path id="Trazado_111469" data-name="Trazado 111469" d="M122.988,118.1a5.208,5.208,0,0,1-3.73-1.759.181.181,0,1,1,.251-.261,4.967,4.967,0,0,0,4.136,1.623.174.174,0,0,1,.193.174.164.164,0,0,1-.164.184A5.951,5.951,0,0,1,122.988,118.1Z" transform="translate(-83.215 -90.489)" fill="#263238"/>
      <path id="Trazado_111470" data-name="Trazado 111470" d="M117.588,108.092a.416.416,0,0,1-.174-.058.358.358,0,0,1-.116-.493,3.5,3.5,0,0,1,2.793-1.7.358.358,0,0,1,.358.358.367.367,0,0,1-.367.367,2.773,2.773,0,0,0-2.174,1.353.367.367,0,0,1-.319.174Z" transform="translate(-83.149 -90.146)" fill="#263238"/>
      <path id="Trazado_111471" data-name="Trazado 111471" d="M129.9,107.057a.357.357,0,0,1-.29-.174,2.986,2.986,0,0,0-2.193-1.488.357.357,0,0,1-.338-.387.367.367,0,0,1,.377-.338h0a3.691,3.691,0,0,1,2.773,1.836.358.358,0,0,1-.126.493.406.406,0,0,1-.2.058Z" transform="translate(-83.48 -90.106)" fill="#263238"/>
      <path id="Trazado_111472" data-name="Trazado 111472" d="M112.033,193.016l9.112-.966-4.774,8.339s-6.9-.7-6.223-4.2Z" transform="translate(-82.908 -93.05)" fill="#ce7a63"/>
      <path id="Trazado_111473" data-name="Trazado 111473" d="M127.964,194.281l-4.513,7.209h0l-6.841-1.131,4.774-8.339Z" transform="translate(-83.127 -93.049)" fill="#ce7a63"/>
      <path id="Trazado_111474" data-name="Trazado 111474" d="M175.129,171.91l7.4-1.575-5.421-6.465s-6.764,2.764-4.832,5.8Z" transform="translate(-84.991 -92.101)" fill="#ce7a63"/>
      <path id="Trazado_111475" data-name="Trazado 111475" d="M186.914,166.366l-4.851-6.716-4.774,4.078,5.421,6.465Z" transform="translate(-85.172 -91.959)" fill="#ce7a63"/>
    </g>
    <g id="freepik--Exposition--inject-68" transform="translate(111.821 182.795)">
      <path id="Trazado_111476" data-name="Trazado 111476" d="M127.741,232.5H237.272a12.021,12.021,0,0,1,12.021,12.021V410.05H115.72V244.521A12.021,12.021,0,0,1,127.741,232.5Z" transform="translate(-115.72 -188.774)" fill="#636363"/>
      <rect id="Rectángulo_8556" data-name="Rectángulo 8556" width="0.966" height="22.177" transform="translate(160.195 55.746)" fill="#d9a171"/>
      <rect id="Rectángulo_8557" data-name="Rectángulo 8557" width="0.966" height="6.658" transform="translate(160.195 83.509)" fill="#d9a171"/>
      <path id="Trazado_111477" data-name="Trazado 111477" d="M152.8,232.5H262.323a12.021,12.021,0,0,1,12.021,12.021V410.05H140.78V244.521A12.021,12.021,0,0,1,152.8,232.5Z" transform="translate(-116.564 -188.774)" fill="#3a3a3a"/>
      <path id="Trazado_111478" data-name="Trazado 111478" d="M8.011,0H173.54V125.553H8.011A8.011,8.011,0,0,1,0,117.542V8.011A8.011,8.011,0,0,1,8.011,0Z" transform="translate(153.769 47.726) rotate(90)" fill="#fff" opacity="0.3"/>
      <path id="Trazado_111479" data-name="Trazado 111479" d="M8,0H173.53V123.427H8a8.011,8.011,0,0,1-8-8.03V8.011A8.011,8.011,0,0,1,8,0Z" transform="translate(151.643 47.745) rotate(90)" fill="#fff" opacity="0.9"/>
      <rect id="Rectángulo_8558" data-name="Rectángulo 8558" width="53.505" height="24.969" rx="7.36" transform="translate(31.589 18.756)" fill="#d9a171"/>
      <rect id="Rectángulo_8559" data-name="Rectángulo 8559" width="39.252" height="22.148" rx="6.45" transform="translate(43.919 20.167)" fill="#263238"/>
      <path id="Trazado_111480" data-name="Trazado 111480" d="M153.1,214.519a1.189,1.189,0,1,1-1.189-1.189A1.189,1.189,0,0,1,153.1,214.519Z" transform="translate(-116.899 -188.129)" fill="#fff"/>
      <path id="Trazado_111481" data-name="Trazado 111481" d="M153.1,218.439a1.189,1.189,0,1,1-1.189-1.189A1.189,1.189,0,0,1,153.1,218.439Z" transform="translate(-116.899 -188.261)" fill="#fff"/>
      <path id="Trazado_111482" data-name="Trazado 111482" d="M238.116,191.55H219.65l3.1,39.57h18.466Z" transform="translate(-119.221 -187.395)" fill="#d9a171" opacity="0.2"/>
      <path id="Trazado_111483" data-name="Trazado 111483" d="M239.286,188.04H220.82l3.1,39.57h18.466Z" transform="translate(-119.261 -187.277)" fill="#d9a171"/>
      <path id="Trazado_111484" data-name="Trazado 111484" d="M239.807,213.342H224.375L222.51,189.6h15.432Z" transform="translate(-119.318 -187.329)" fill="#fff" opacity="0.6"/>
      <path id="Trazado_111485" data-name="Trazado 111485" d="M240.887,227.113H225.445l-.715-9.1h15.442Z" transform="translate(-119.392 -188.286)" fill="#fff" opacity="0.6"/>
      <path id="Trazado_111486" data-name="Trazado 111486" d="M239.916,187.809l-18.466-.039,3.025,39.812,18.466.039Z" transform="translate(-119.282 -187.268)" fill="#d9a171"/>
      <path id="Trazado_111487" data-name="Trazado 111487" d="M240.379,213.266l-15.432-.039L223.14,189.35l15.432.029Z" transform="translate(-119.339 -187.321)" fill="#fff" opacity="0.6"/>
      <path id="Trazado_111488" data-name="Trazado 111488" d="M241.437,227.12,226,227.091l-.7-9.161,15.442.029Z" transform="translate(-119.412 -188.284)" fill="#fff" opacity="0.6"/>
      <path id="Trazado_111489" data-name="Trazado 111489" d="M240.436,187.289l-18.466-.039,3.025,40.3,18.466.039Z" transform="translate(-119.299 -187.25)" fill="#d9a171"/>
      <path id="Trazado_111490" data-name="Trazado 111490" d="M240.909,213.056l-15.442-.039L223.66,188.84l15.442.039Z" transform="translate(-119.356 -187.304)" fill="#fff" opacity="0.6"/>
      <path id="Trazado_111491" data-name="Trazado 111491" d="M241.967,227.076l-15.451-.039-.7-9.267,15.451.029Z" transform="translate(-119.429 -188.278)" fill="#fff" opacity="0.6"/>
      <path id="Trazado_111492" data-name="Trazado 111492" d="M218.04,191.55H219.6l3.1,39.57h-1.546Z" transform="translate(-119.167 -187.395)" fill="#d9a171" opacity="0.4"/>
    </g>
    <g id="freepik--character-2--inject-68" transform="translate(277.206 104.774)">
      <path id="Trazado_111493" data-name="Trazado 111493" d="M383.455,163.55c.454,1.053.792,1.933,1.131,2.9s.657,1.855.966,2.783c.619,1.855,1.16,3.72,1.672,5.585.966,3.749,1.826,7.518,2.493,11.316l.251,1.42.058.358.068.435a8.485,8.485,0,0,1,.106,1.189,11.081,11.081,0,0,1-.715,4.126,19.838,19.838,0,0,1-3.488,5.8,40.132,40.132,0,0,1-9.141,7.885l-2.735-3.363a59.485,59.485,0,0,0,6.4-8.455,15.121,15.121,0,0,0,1.8-4.126,3.864,3.864,0,0,0,.077-1.44l-.551-2.136c-.966-3.575-1.933-7.122-3-10.629-.522-1.749-1.1-3.488-1.662-5.208-.28-.86-.58-1.72-.879-2.561l-.9-2.416Z" transform="translate(-289.809 -108.431)" fill="#b55b52"/>
      <path id="Trazado_111494" data-name="Trazado 111494" d="M377.775,207.378l2.638,5.672-3.624,2.116s-7.1-10.368-1.749-10.707Z" transform="translate(-289.773 -109.809)" fill="#b55b52"/>
      <path id="Trazado_111495" data-name="Trazado 111495" d="M362.772,407.635a10.26,10.26,0,0,0,2.261-.3.2.2,0,0,0,.068-.367c-.29-.193-2.9-1.875-3.865-1.421a.676.676,0,0,0-.4.57,1.15,1.15,0,0,0,.329,1.073A2.435,2.435,0,0,0,362.772,407.635Zm1.691-.589c-1.488.29-2.609.242-3.044-.155a.773.773,0,0,1-.213-.715.3.3,0,0,1,.174-.261C361.9,405.683,363.4,406.4,364.463,407.045Z" transform="translate(-289.361 -116.581)" fill="#d9a171"/>
      <path id="Trazado_111496" data-name="Trazado 111496" d="M365.049,407.266a.153.153,0,0,0,.2-.174c0-.106,0-2.57-.966-3.392a1.053,1.053,0,0,0-.86-.271.715.715,0,0,0-.686.57c-.193.966,1.363,2.812,2.184,3.276ZM363.6,403.8a.628.628,0,0,1,.444.184,4.655,4.655,0,0,1,.792,2.7c-.812-.657-1.788-2.039-1.662-2.628,0-.1.068-.213.329-.242Z" transform="translate(-289.425 -116.512)" fill="#d9a171"/>
      <path id="Trazado_111497" data-name="Trazado 111497" d="M362.856,133c-.966,5.083-3.092,15.374.454,18.756,0,0-1.382,5.16-10.823,5.16-10.378,0-4.957-5.16-4.957-5.16,5.663-1.353,5.518-5.556,4.532-9.5Z" transform="translate(-288.866 -107.402)" fill="#b55b52"/>
      <path id="Trazado_111498" data-name="Trazado 111498" d="M344.238,156.335c-1.43.184,1.933-4.368,2.5-4.832,1.333-1.073,18.737-1.981,18.65.676-.058,1.14-.473,3.363-1.227,4.087S356.742,154.46,344.238,156.335Z" transform="translate(-288.791 -107.99)" fill="#263238"/>
      <path id="Trazado_111499" data-name="Trazado 111499" d="M346.023,120.206a.4.4,0,0,1-.309-.2,3.237,3.237,0,0,0-2.387-1.691.406.406,0,0,1-.387-.425.416.416,0,0,1,.435-.387,4.058,4.058,0,0,1,3.044,2.107.4.4,0,0,1-.155.551.367.367,0,0,1-.242.048Z" transform="translate(-288.759 -106.88)" fill="#263238"/>
      <path id="Trazado_111500" data-name="Trazado 111500" d="M343.123,125.05a18.7,18.7,0,0,1-2.783,4.213,2.976,2.976,0,0,0,2.416.638Z" transform="translate(-288.671 -107.134)" fill="#a02724"/>
      <path id="Trazado_111501" data-name="Trazado 111501" d="M343.943,123.824c-.048.686-.454,1.218-.908,1.189s-.773-.618-.725-1.3.464-1.227.908-1.189S343.943,123.138,343.943,123.824Z" transform="translate(-288.738 -107.049)" fill="#263238"/>
      <path id="Trazado_111502" data-name="Trazado 111502" d="M343.353,122.549l-1.623-.6S342.484,123.3,343.353,122.549Z" transform="translate(-288.718 -107.03)" fill="#263238"/>
      <path id="Trazado_111503" data-name="Trazado 111503" d="M375.141,406.5H366.58l.667-19.819h8.562Z" transform="translate(-289.555 -115.948)" fill="#b55b52"/>
      <path id="Trazado_111504" data-name="Trazado 111504" d="M365.441,406.17H375.1a.667.667,0,0,1,.676.58l1.1,7.615a1.372,1.372,0,0,1-1.372,1.517c-3.353-.058-4.967-.251-9.2-.251-2.6,0-6.407.271-10,.271s-3.778-3.556-2.28-3.865c6.706-1.44,7.73-3.43,10.021-5.334A2.27,2.27,0,0,1,365.441,406.17Z" transform="translate(-289.103 -116.605)" fill="#263238"/>
      <g id="Grupo_59752" data-name="Grupo 59752" transform="translate(77.305 270.732)" opacity="0.2">
        <path id="Trazado_111505" data-name="Trazado 111505" d="M375.818,386.68h-8.562l-.387,11.489h8.562Z" transform="translate(-366.87 -386.68)"/>
      </g>
      <path id="Trazado_111506" data-name="Trazado 111506" d="M335.606,166.266c-1.7,4.271-3.527,8.339-5.585,12.4a104.884,104.884,0,0,1-6.861,11.963c-.686.966-1.363,1.933-2.135,2.9-.406.493-.744.966-1.208,1.459a13.115,13.115,0,0,1-1.788,1.643,12.716,12.716,0,0,1-4.194,2.02,15.361,15.361,0,0,1-4.194.551,24.042,24.042,0,0,1-7.46-1.276,30.35,30.35,0,0,1-3.343-1.3,30.739,30.739,0,0,1-3.208-1.662l1.826-3.933c3.914,1.044,8.281,1.749,11.77,1.247a7.073,7.073,0,0,0,3.971-1.691,6.568,6.568,0,0,0,.589-.676l.831-1.169c.57-.8,1.111-1.691,1.643-2.561,1.073-1.778,2.1-3.633,3.073-5.537s1.933-3.865,2.9-5.8c1.826-3.865,3.624-7.924,5.286-11.847Z" transform="translate(-287.165 -108.412)" fill="#b55b52"/>
      <path id="Trazado_111507" data-name="Trazado 111507" d="M333.189,154.3c-4.252,1.034-9.489,12.717-9.489,12.717l10.127,12.968s10.455-14.794,9.064-19.326C341.432,155.933,338.349,153.034,333.189,154.3Z" transform="translate(-288.111 -108.11)" fill="#6595bf"/>
      <path id="Trazado_111508" data-name="Trazado 111508" d="M299.3,192.56l-6.349-2-1.4,6.668s6.242,1.218,8.7-1.507Z" transform="translate(-287.028 -109.341)" fill="#b55b52"/>
      <path id="Trazado_111509" data-name="Trazado 111509" d="M286.87,191.323l1.208,5.073,3.3.831,1.4-6.668Z" transform="translate(-286.87 -109.341)" fill="#b55b52"/>
      <path id="Trazado_111510" data-name="Trazado 111510" d="M367.227,122.757c-1.15,8.417-1.459,12-6.059,16.021-6.909,6.049-17,2.793-18.36-5.8-1.247-7.731.841-20.2,9.373-22.94a11.6,11.6,0,0,1,15.045,12.717Z" transform="translate(-288.743 -106.61)" fill="#b55b52"/>
      <path id="Trazado_111511" data-name="Trazado 111511" d="M348.272,127.44c6.677,11.673,10.059,13.258,15.219,15.19,0,0,2.377-7.18,7.528-11.654,6.938-6.01,2.9-17.471-1.333-18.843,2.107-6.764-22.65-8.7-25.288,1.4C342.5,120.782,348.272,127.44,348.272,127.44Z" transform="translate(-288.795 -106.51)" fill="#263238"/>
      <path id="Trazado_111512" data-name="Trazado 111512" d="M352.207,125.714a8.388,8.388,0,0,1-2.9,4.764c-1.991,1.643-3.711.358-3.778-1.855-.048-1.991.918-5.247,3.208-6.049S352.613,123.51,352.207,125.714Z" transform="translate(-288.846 -107.044)" fill="#b55b52"/>
      <path id="Trazado_111513" data-name="Trazado 111513" d="M347.25,207.77s4.967,58.752,10.127,91.867c4.165,26.747,7.441,89.258,7.441,89.258h11.673s5.566-60.375,3.45-86.823c-5.344-66.936,4.039-78.783-7.1-94.3Z" transform="translate(-288.904 -109.921)" fill="#263238"/>
      <path id="Trazado_111514" data-name="Trazado 111514" d="M351,246.784c1.575,15.461,3.537,33.057,5.585,47.417,3.3-7.73,6.764-18.312,7.431-40.179C364.383,239.276,356.247,236.4,351,246.784Z" transform="translate(-289.03 -111.027)" opacity="0.2"/>
      <path id="Trazado_111515" data-name="Trazado 111515" d="M318.984,403.792a.193.193,0,0,0,.174-.1.184.184,0,0,0,0-.232c-.29-.329-2.822-3.2-4.01-3.054a.676.676,0,0,0-.522.377,1.131,1.131,0,0,0,0,1.053c.56,1.111,2.976,1.7,4.358,1.933Zm-3.759-2.976c.667,0,2.165,1.353,3.2,2.464-1.875-.406-3.16-.966-3.469-1.623a.7.7,0,0,1,0-.686.242.242,0,0,1,.2-.155Z" transform="translate(-287.801 -116.411)" fill="#d9a171"/>
      <path id="Trazado_111516" data-name="Trazado 111516" d="M319.077,403.754h.048a.2.2,0,0,0,.145-.145c0-.087.686-2.31,0-3.537a1.459,1.459,0,0,0-.908-.734.819.819,0,0,0-.966.251c-.5.85.7,3.3,1.478,4.107A.213.213,0,0,0,319.077,403.754Zm-1.063-4.059a.775.775,0,0,1,.242,0,1.082,1.082,0,0,1,.676.541,4.755,4.755,0,0,1,.048,2.9c-.744-.966-1.488-2.822-1.179-3.324a.17.17,0,0,1,.174-.116Z" transform="translate(-287.894 -116.373)" fill="#d9a171"/>
      <path id="Trazado_111517" data-name="Trazado 111517" d="M327.761,409.092l-8-3.459,2.261-10.233,2.29-10.3.261-1.2,8.3,2.1-.29,1.353-2.213,9.972Z" transform="translate(-287.978 -115.855)" fill="#b55b52"/>
      <path id="Trazado_111518" data-name="Trazado 111518" d="M330.443,397.364l-8.5-1.208,2.445-11.016,8.272,2.251Z" transform="translate(-288.052 -115.896)" opacity="0.2"/>
      <path id="Trazado_111519" data-name="Trazado 111519" d="M337.2,207.77s-5.8,63.274-7.962,93.249c-1.933,27.057-7.856,83.866-7.856,83.866l11.547,1.72s15.461-63.96,17.877-82.465c6.928-53.147,20.5-69.574,17.181-96.37Z" transform="translate(-288.033 -109.921)" fill="#263238"/>
      <path id="Trazado_111520" data-name="Trazado 111520" d="M319.5,402.995l8.958,3.517a.667.667,0,0,1,.415.792l-1.759,7.479a1.372,1.372,0,0,1-1.836.918c-3.1-1.276-4.532-2.049-8.465-3.595-2.425-.966-7.528-2.677-10.871-3.991s-2.223-4.687-.715-4.435c6.764,1.111,9.953.222,12.755-.715A2.212,2.212,0,0,1,319.5,402.995Z" transform="translate(-287.439 -116.493)" fill="#263238"/>
      <path id="Trazado_111521" data-name="Trazado 111521" d="M319.35,393.411,334,395.933l1.681-5.527L320,387.69Z" transform="translate(-287.964 -115.982)" fill="#d9a171"/>
      <path id="Trazado_111522" data-name="Trazado 111522" d="M363.777,395.25h14.871l.783-5.218L363.69,389.5Z" transform="translate(-289.458 -116.043)" fill="#d9a171"/>
      <path id="Trazado_111523" data-name="Trazado 111523" d="M387.124,167.622l-8.591,6.841-5.16,4.116s-.541-1.44-1.2-3.5c-1.247-3.991-2.9-10.3-1.749-13.209,1.768-4.6,5.141-8.745,9.344-7.827C383.327,154.828,387.124,167.622,387.124,167.622Z" transform="translate(-289.672 -108.107)" fill="#6595bf"/>
      <path id="Trazado_111524" data-name="Trazado 111524" d="M377.391,175.648l-3.943,3.141s-.541-1.44-1.2-3.5l3.063-15.181Z" transform="translate(-289.746 -108.315)" opacity="0.2"/>
      <path id="Trazado_111525" data-name="Trazado 111525" d="M333.484,154.224s-4.078,1.43,4.088,51.659h34.787c-.58-14.147-.6-22.873,6.165-51.91a102.426,102.426,0,0,0-14.765-1.933,108.881,108.881,0,0,0-15.79,0C341.176,152.649,333.484,154.224,333.484,154.224Z" transform="translate(-288.406 -108.034)" fill="#6595bf"/>
      <path id="Trazado_111526" data-name="Trazado 111526" d="M365.013,143l-3.314-.068c-5.75,7.933.87,8.272.86,15.094s-7.4,10.842,1.71,15.645C357.562,166.624,376.328,162.527,365.013,143Z" transform="translate(-289.312 -107.737)" fill="#263238"/>
      <path id="Trazado_111527" data-name="Trazado 111527" d="M358,140.346a28.429,28.429,0,0,1,.464,3.672.966.966,0,0,0,.966.966h6.609a1.044,1.044,0,0,0,.966-.966,39.771,39.771,0,0,0,.184-4.252.966.966,0,0,0-.966-.966c-2.541,0-5.692.164-7.354.28A1.092,1.092,0,0,0,358,140.346Z" transform="translate(-289.266 -107.597)" fill="#d9a171"/>
      <path id="Trazado_111528" data-name="Trazado 111528" d="M373,205.651l1.565,3.112c.126.242-.164.493-.56.493H337.539c-.309,0-.57-.155-.589-.358l-.309-3.112c0-.213.242-.4.589-.4h35.2a.638.638,0,0,1,.57.261Z" transform="translate(-288.547 -109.841)" fill="#d9a171"/>
      <path id="Trazado_111529" data-name="Trazado 111529" d="M373,205.651l1.565,3.112c.126.242-.164.493-.56.493H337.539c-.309,0-.57-.155-.589-.358l-.309-3.112c0-.213.242-.4.589-.4h35.2a.638.638,0,0,1,.57.261Z" transform="translate(-288.547 -109.841)" fill="#fff" opacity="0.5"/>
      <path id="Trazado_111530" data-name="Trazado 111530" d="M369.352,209.574h.966c.193,0,.329-.1.319-.213l-.445-4.039c0-.116-.174-.222-.358-.222h-.966c-.184,0-.329.106-.319.222l.445,4.039C368.985,209.477,369.159,209.574,369.352,209.574Z" transform="translate(-289.622 -109.831)" fill="#263238"/>
      <path id="Trazado_111531" data-name="Trazado 111531" d="M345.692,209.574h.966c.184,0,.329-.1.319-.213l-.444-4.039c0-.116-.174-.222-.367-.222H345.2c-.193,0-.329.106-.319.222l.445,4.039C345.344,209.477,345.508,209.574,345.692,209.574Z" transform="translate(-288.824 -109.831)" fill="#263238"/>
    </g>
  </g>
</svg>
