<svg xmlns="http://www.w3.org/2000/svg" width="364.78" height="347.241" viewBox="0 0 364.78 347.241">
  <defs>
    <style>
      .cls-1 {
        fill: #e0e0e0;
      }

      .cls-2 {
        fill: #d9a171;
      }

      .cls-3 {
        opacity: 0.6;
      }

      .cls-4 {
        opacity: 0.3;
      }

      .cls-16, .cls-17, .cls-5 {
        opacity: 0.5;
      }

      .cls-6 {
        fill: #40435a;
      }

      .cls-7 {
        fill: #5e6178;
      }

      .cls-8 {
        fill: #263238;
      }

      .cls-19, .cls-9 {
        opacity: 0.7;
      }

      .cls-10, .cls-14, .cls-19, .cls-25 {
        fill: #fff;
      }

      .cls-10 {
        opacity: 0.4;
      }

      .cls-11 {
        fill: #f0f0f0;
      }

      .cls-12 {
        opacity: 0.1;
      }

      .cls-13 {
        fill: #fafafa;
      }

      .cls-15 {
        fill: #e6e6e6;
      }

      .cls-16, .cls-18 {
        fill: #455a64;
      }

      .cls-20 {
        fill: #f5f5f5;
      }

      .cls-21 {
        fill: #ebebeb;
      }

      .cls-22, .cls-25 {
        opacity: 0.2;
      }

      .cls-23 {
        fill: #ffa8a7;
      }

      .cls-24 {
        fill: #f28f8f;
      }

      .cls-26 {
        fill: #b16668;
      }

      .cls-27 {
        fill: #37474f;
      }

      .cls-28 {
        fill: #9a4a4d;
      }

      .cls-29 {
        opacity: 0.15;
      }
    </style>
  </defs>
  <g id="Wall_post-amico" data-name="Wall post-amico" transform="translate(-28.883 -26.069)">
    <g id="freepik--Shadows--inject-324" transform="translate(28.883 200.997)">
      <path id="freepik--Shadow--inject-324" class="cls-1" d="M65.273,372.063,30.358,351.951c-1.967-1.143-1.967-2.981,0-4.115l203.1-117.3a7.844,7.844,0,0,1,7.131,0L275.5,250.695c1.967,1.134,1.967,2.981,0,4.115L72.4,372.063a7.9,7.9,0,0,1-7.131,0Z" transform="translate(-28.882 -229.682)"/>
      <path id="freepik--shadow--inject-324-2" data-name="freepik--shadow--inject-324" class="cls-1" d="M232.179,387.28,148.32,338.868l104.8-60.388,83.756,48.352Z" transform="translate(-45.708 -236.557)"/>
      <ellipse id="freepik--shadow--inject-324-3" data-name="freepik--shadow--inject-324" class="cls-1" cx="39.64" cy="22.887" rx="39.64" ry="22.887" transform="translate(262.607 126.539)"/>
      <path id="freepik--shadow--inject-324-4" data-name="freepik--shadow--inject-324" class="cls-1" d="M439.521,371.225c4.3,2.483,4.3,6.5,0,8.986a17.207,17.207,0,0,1-15.559,0c-4.3-2.474-4.3-6.5,0-8.986A17.181,17.181,0,0,1,439.521,371.225Z" transform="translate(-84.085 -249.359)"/>
    </g>
    <g id="freepik--Device--inject-324" transform="translate(54.817 26.061)">
      <g id="freepik--device--inject-324-2" data-name="freepik--device--inject-324">
        <path id="Trazado_110373" data-name="Trazado 110373" class="cls-2" d="M208.813,339.2l30.018-17.354c3.093-1.787,4.639-4.124,4.639-6.469v-4.175l-31.143-17.561a6.6,6.6,0,0,1-2.99-5.155V251.47L156.93,281.763v37a6.615,6.615,0,0,0,2.99,5.155l26.5,15.258C192.592,342.778,202.627,342.778,208.813,339.2Z" transform="translate(-72.856 -57.815)"/>
        <g id="Grupo_59652" data-name="Grupo 59652" class="cls-3" transform="translate(84.074 193.655)">
          <path id="Trazado_110374" data-name="Trazado 110374" d="M208.813,339.2l30.018-17.354c3.093-1.787,4.639-4.124,4.639-6.469v-4.175l-31.143-17.561a6.6,6.6,0,0,1-2.99-5.155V251.47L156.93,281.763v37a6.615,6.615,0,0,0,2.99,5.155l26.5,15.258C192.592,342.778,202.627,342.778,208.813,339.2Z" transform="translate(-156.93 -251.47)"/>
        </g>
        <path id="Trazado_110375" data-name="Trazado 110375" class="cls-4" d="M169.515,329.34V333.5l-9.614-5.541a6.59,6.59,0,0,1-2.981-5.155v-37.02L166.9,280c.206,2.577.438,5.155.644,7.732l-7.01,4.055V320.7a6.555,6.555,0,0,0,2.99,5.155Z" transform="translate(-72.854 -61.834)"/>
        <path id="Trazado_110376" data-name="Trazado 110376" class="cls-2" d="M161.13,317.671a6.6,6.6,0,0,0,2.99,5.155L186.99,336c6.186,3.565,16.22,3.574,22.415,0l30.069-17.354c6.194-3.574,6.194-9.364,0-12.938L216.6,292.533a6.59,6.59,0,0,1-2.99-5.155V258.46L161.2,288.753Z" transform="translate(-73.448 -58.799)"/>
        <path id="Trazado_110377" data-name="Trazado 110377" class="cls-4" d="M161.13,317.671a6.6,6.6,0,0,0,2.99,5.155L186.99,336c6.186,3.565,16.22,3.574,22.415,0l30.069-17.354c6.194-3.574,6.194-9.364,0-12.938L216.6,292.533a6.59,6.59,0,0,1-2.99-5.155V258.46L161.2,288.753Z" transform="translate(-73.448 -58.799)"/>
        <path id="Trazado_110378" data-name="Trazado 110378" class="cls-5" d="M222.639,296.064h0l-6.083-3.514a6.59,6.59,0,0,1-2.99-5.155V258.46L161.16,288.753v28.918a6.6,6.6,0,0,0,2.99,5.155l6.014,3.436Z" transform="translate(-73.452 -58.799)"/>
        <path id="Trazado_110379" data-name="Trazado 110379" class="cls-2" d="M250.225,321v4.175c0,2.345-1.555,4.674-4.639,6.469L215.516,348.99a22.535,22.535,0,0,1-10.7,2.655v-4.158a22.535,22.535,0,0,0,10.7-2.655l30.069-17.363C248.67,325.7,250.225,323.354,250.225,321Z" transform="translate(-79.602 -67.61)"/>
        <path id="Trazado_110380" data-name="Trazado 110380" class="cls-5" d="M250.225,321v4.175c0,2.345-1.555,4.674-4.639,6.469L215.516,348.99a22.535,22.535,0,0,1-10.7,2.655v-4.158a22.535,22.535,0,0,0,10.7-2.655l30.069-17.363C248.67,325.7,250.225,323.354,250.225,321Z" transform="translate(-79.602 -67.61)"/>
        <path id="Trazado_110381" data-name="Trazado 110381" class="cls-6" d="M62.577,320.871a8.033,8.033,0,0,0,7.242-.129L272.573,203.686a8.265,8.265,0,0,0,3.737-6.469V33.192a8.007,8.007,0,0,0-3.514-6.323,7.99,7.99,0,0,0-7.234.137L62.809,144.054a8.23,8.23,0,0,0-3.729,6.461V314.539a8.007,8.007,0,0,0,3.5,6.332Z" transform="translate(-59.071 -26.062)"/>
        <path id="Trazado_110382" data-name="Trazado 110382" class="cls-7" d="M70.967,321.464,273.721,204.408a8.256,8.256,0,0,0,3.737-6.469V33.923c0-2.38-1.675-3.351-3.737-2.156L70.967,148.822a8.256,8.256,0,0,0-3.737,6.469V319.307C67.23,321.687,68.905,322.658,70.967,321.464Z" transform="translate(-60.22 -26.792)"/>
        <path id="Trazado_110384" data-name="Trazado 110384" class="cls-2" d="M69.268,370.489a8.024,8.024,0,0,1-6.693-.137A8.016,8.016,0,0,1,59.07,364V349.08l7,4.055v14.932C66.072,370.24,67.455,371.228,69.268,370.489Z" transform="translate(-59.07 -71.565)"/>
        <path id="Trazado_110385" data-name="Trazado 110385" class="cls-5" d="M69.268,370.489a8.024,8.024,0,0,1-6.693-.137A8.016,8.016,0,0,1,59.07,364V349.08l7,4.055v14.932C66.072,370.24,67.455,371.228,69.268,370.489Z" transform="translate(-59.07 -71.565)"/>
        <path id="Trazado_110386" data-name="Trazado 110386" class="cls-2" d="M67.22,333.893v14.932c0,2.38,1.718,3.342,3.737,2.156L273.711,233.925a8.265,8.265,0,0,0,3.737-6.469V212.49Z" transform="translate(-60.218 -52.323)"/>
        <path id="Trazado_110387" data-name="Trazado 110387" class="cls-4" d="M67.23,333.859v14.966c0,2.38,1.718,3.342,3.737,2.156L273.721,233.925a8.265,8.265,0,0,0,3.737-6.469V212.49Z" transform="translate(-60.22 -52.323)"/>
        <path id="Trazado_110388" data-name="Trazado 110388" class="cls-2" d="M75.38,291.519V159.5a4.94,4.94,0,0,1,2.234-3.875L269.345,44.95c1.237-.713,2.242-.137,2.242,1.289v132a4.948,4.948,0,0,1-2.242,3.883L77.631,292.808C76.385,293.521,75.38,292.937,75.38,291.519Z" transform="translate(-61.368 -28.678)"/>
        <path id="Trazado_110389" data-name="Trazado 110389" class="cls-8" d="M75.38,291.519V159.5a4.94,4.94,0,0,1,2.234-3.875L269.345,44.95c1.237-.713,2.242-.137,2.242,1.289v132a4.948,4.948,0,0,1-2.242,3.883L77.631,292.808C76.385,293.521,75.38,292.937,75.38,291.519Z" transform="translate(-61.368 -28.678)"/>
        <path id="Trazado_110390" data-name="Trazado 110390" class="cls-9" d="M67.18,170.668a7.947,7.947,0,0,0-1.108,3.686V327.433l-7-4.055V170.316a7.638,7.638,0,0,1,1.1-3.686Z" transform="translate(-59.07 -45.863)"/>
      </g>
    </g>
    <g id="freepik--Window--inject-324" transform="translate(82.739 50.502)">
      <g id="freepik--window--inject-324-2" data-name="freepik--window--inject-324">
        <path id="Trazado_110392" data-name="Trazado 110392" class="cls-2" d="M93.328,186.168a4,4,0,0,1-1.718-3.153V168.487a4.132,4.132,0,0,1,1.864-3.222l190.8-110.183a3.488,3.488,0,0,1,5.344,3.084V72.686a4.072,4.072,0,0,1-1.856,3.222L96.928,186.1A3.969,3.969,0,0,1,93.328,186.168Z" transform="translate(-91.576 -54.515)"/>
        <path id="Trazado_110393" data-name="Trazado 110393" class="cls-10" d="M289.689,57.861c-.129-.962-.911-1.314-1.839-.773L97.013,167.279a3.952,3.952,0,0,0-1.314,1.392l-3.488-2.053a3.875,3.875,0,0,1,1.314-1.392L284.362,55.077a3.436,3.436,0,0,1,5.327,2.784Z" transform="translate(-91.66 -54.51)"/>
        <path id="Trazado_110394" data-name="Trazado 110394" class="cls-11" d="M96.928,326.586a3.118,3.118,0,0,1-1.461.447,3.66,3.66,0,0,1-2.139-.378A3.969,3.969,0,0,1,91.61,323.5V212.82l3.5,2.019V325.52c0,.859.421,1.332,1.031,1.332a1.787,1.787,0,0,0,.79-.266Z" transform="translate(-91.576 -76.811)"/>
        <path id="Trazado_110395" data-name="Trazado 110395" class="cls-12" d="M95.608,187.059a3.78,3.78,0,0,0-.541,1.83v22.037l-3.5-2.019v-22.26a3.593,3.593,0,0,1,.077-.455,4.15,4.15,0,0,1,.464-1.151Z" transform="translate(-91.57 -72.898)"/>
        <path id="Trazado_110396" data-name="Trazado 110396" class="cls-2" d="M290.184,58.542v9.94l-136.859,79.04c-1.022.593-1.856.112-1.856-1.074v-3.763c0-1.186-.859-1.667-1.864-1.074l-45.13,26.057a4.107,4.107,0,0,0-1.864,3.222v3.763a4.124,4.124,0,0,1-1.856,3.222L95.6,180.83v-9.949a4.124,4.124,0,0,1,1.856-3.222L288.328,57.468C289.35,56.876,290.184,57.357,290.184,58.542Z" transform="translate(-92.138 -54.891)"/>
        <path id="Trazado_110397" data-name="Trazado 110397" class="cls-13" d="M290.189,193.1a4.115,4.115,0,0,1-1.856,3.23L97.5,306.511c-1.022.593-1.856.112-1.856-1.074V182.668l5.155-2.955c1.022-.593,2.689-9.614,3.72-10.206l44.374-25.628c1.031-.593,3.437,6.074,4.476,5.481L290.224,70.32V193.089Z" transform="translate(-92.143 -56.737)"/>
        <path id="Trazado_110398" data-name="Trazado 110398" class="cls-1" d="M289.324,71.816V193.1a3.256,3.256,0,0,1-1.426,2.483L97.061,305.774a.859.859,0,0,1-.4.137c-.172,0-.172-.447-.172-.473V183.159l4.691-2.706c.747-.43,1.211-1.873,2.251-5.593a27.493,27.493,0,0,1,1.538-4.648l43.979-25.422a20.067,20.067,0,0,1,1.4,2.234c1.194,2.1,1.864,3.2,2.835,3.2a1.1,1.1,0,0,0,.567-.155l135.57-78.284M149.287,144.6h0m-44.279,25.55h0M290.184,70.33,153.325,149.37a.249.249,0,0,1-.137,0c-1.04,0-3.153-5.55-4.2-5.55a.275.275,0,0,0-.137,0l-44.374,25.628c-1.031.593-2.7,9.614-3.72,10.206L95.6,182.609V305.447c0,.859.421,1.332,1.031,1.332a1.666,1.666,0,0,0,.859-.258L288.328,196.338a4.115,4.115,0,0,0,1.856-3.23Z" transform="translate(-92.138 -56.738)"/>
        <path id="Trazado_110399" data-name="Trazado 110399" class="cls-11" d="M133.437,261.135l25.43-14.682c.687-.4,1.237-.077,1.237.713v42.827a2.732,2.732,0,0,1-1.237,2.148l-25.43,14.682c-.687.4-1.237.069-1.237-.722V263.282a2.732,2.732,0,0,1,1.237-2.148Z" transform="translate(-97.294 -81.525)"/>
        <path id="Trazado_110400" data-name="Trazado 110400" class="cls-1" d="M138.847,265.134l16.134-9.313c.679-.4,1.237-.112,1.237.627a2.672,2.672,0,0,1-1.237,2.062l-16.134,9.313c-.679.4-1.237.112-1.237-.627A2.68,2.68,0,0,1,138.847,265.134Z" transform="translate(-98.056 -82.844)"/>
        <path id="Trazado_110401" data-name="Trazado 110401" class="cls-2" d="M137.61,274.473v.971c0,.473.335.662.747.43l.859-.49a1.624,1.624,0,0,0,.747-1.289v-.962c0-.481-.335-.67-.747-.43l-.859.481A1.65,1.65,0,0,0,137.61,274.473Z" transform="translate(-98.056 -85.233)"/>
        <path id="Trazado_110402" data-name="Trazado 110402" class="cls-1" d="M143,270.766c0,.739.558,1.022,1.246.627l11.478-6.632a2.663,2.663,0,0,0,1.237-2.053c0-.747-.558-1.022-1.237-.627L144.246,268.7A2.655,2.655,0,0,0,143,270.766Z" transform="translate(-98.815 -83.726)"/>
        <path id="Trazado_110403" data-name="Trazado 110403" class="cls-2" d="M137.61,280.693v.971c0,.473.335.662.747.43l.859-.49a1.641,1.641,0,0,0,.747-1.289v-.962c0-.481-.335-.67-.747-.43l-.859.481A1.65,1.65,0,0,0,137.61,280.693Z" transform="translate(-98.056 -86.109)"/>
        <path id="Trazado_110404" data-name="Trazado 110404" class="cls-1" d="M143,277.026c0,.739.558,1.022,1.246.627l11.478-6.632a2.663,2.663,0,0,0,1.237-2.053c0-.747-.558-1.022-1.237-.627l-11.478,6.624A2.655,2.655,0,0,0,143,277.026Z" transform="translate(-98.815 -84.607)"/>
        <path id="Trazado_110405" data-name="Trazado 110405" class="cls-2" d="M137.61,286.982v.962c0,.481.335.67.747.43l.859-.481a1.649,1.649,0,0,0,.747-1.289v-.971c0-.473-.335-.661-.747-.43l-.859.49A1.641,1.641,0,0,0,137.61,286.982Z" transform="translate(-98.056 -86.994)"/>
        <path id="Trazado_110406" data-name="Trazado 110406" class="cls-1" d="M143,283.268c0,.747.558,1.022,1.246.627l11.478-6.624a2.663,2.663,0,0,0,1.237-2.053c0-.747-.558-1.022-1.237-.627l-11.478,6.624A2.655,2.655,0,0,0,143,283.268Z" transform="translate(-98.815 -85.488)"/>
        <path id="Trazado_110407" data-name="Trazado 110407" class="cls-2" d="M137.61,293.227v.971c0,.473.335.67.747.43l.859-.481a1.649,1.649,0,0,0,.747-1.289v-.945c0-.473-.335-.67-.747-.43l-.859.481a1.65,1.65,0,0,0-.747,1.263Z" transform="translate(-98.056 -87.879)"/>
        <path id="Trazado_110408" data-name="Trazado 110408" class="cls-1" d="M143,289.544c0,.739.558,1.022,1.246.627l11.5-6.641a2.681,2.681,0,0,0,1.237-2.062c0-.739-.558-1.022-1.237-.627l-11.478,6.624A2.672,2.672,0,0,0,143,289.544Z" transform="translate(-98.815 -86.369)"/>
        <path id="Trazado_110409" data-name="Trazado 110409" class="cls-1" d="M138.737,299.593l16.126-9.313c.687-.4,1.246-.12,1.246.627a2.655,2.655,0,0,1-1.246,2.053l-16.126,9.313c-.687.4-1.246.12-1.237-.627a2.646,2.646,0,0,1,1.237-2.053Z" transform="translate(-98.04 -87.698)"/>
        <path id="Trazado_110410" data-name="Trazado 110410" class="cls-2" d="M137.49,308.923v.971c0,.473.335.67.747.43l.859-.481a1.641,1.641,0,0,0,.739-1.289v-.971c0-.473-.335-.67-.739-.43l-.859.481a1.65,1.65,0,0,0-.747,1.289Z" transform="translate(-98.039 -90.086)"/>
        <path id="Trazado_110411" data-name="Trazado 110411" class="cls-1" d="M142.91,305.217c0,.739.558,1.022,1.237.627l11.478-6.624a2.672,2.672,0,0,0,1.246-2.062c0-.739-.558-1.022-1.246-.627l-11.478,6.624A2.68,2.68,0,0,0,142.91,305.217Z" transform="translate(-98.802 -88.579)"/>
        <path id="Trazado_110412" data-name="Trazado 110412" class="cls-14" d="M311.557,65.948c1.3-.747,2.345-.137,2.345,1.357a5.155,5.155,0,0,1-2.345,4.055c-1.289.739-2.337.137-2.337-1.357A5.155,5.155,0,0,1,311.557,65.948Z" transform="translate(-122.231 -56.076)"/>
        <path id="Trazado_110413" data-name="Trazado 110413" class="cls-14" d="M301.747,71.617c1.3-.747,2.345-.146,2.345,1.349a5.155,5.155,0,0,1-2.345,4.089c-1.289.747-2.337.137-2.337-1.349a5.155,5.155,0,0,1,2.337-4.089Z" transform="translate(-120.849 -56.875)"/>
        <ellipse id="Elipse_4237" data-name="Elipse 4237" class="cls-14" cx="3.308" cy="1.907" rx="3.308" ry="1.907" transform="translate(169.172 24.22) rotate(-60)"/>
        <path id="Trazado_110414" data-name="Trazado 110414" class="cls-15" d="M290.189,70.33v12.1L95.64,194.766v-12.1l3.823-2.217c1.022-.593,1.366-1.495,1.856-3.222l1.3-4.5c.412-1.564.859-2.629,1.864-3.222l44.374-25.628c1.031-.593,1.839-.653,2.577.644l1.589,2.887c.584,1.005.859,1.6,1.9,1.005Z" transform="translate(-92.143 -56.738)"/>
        <path id="Trazado_110415" data-name="Trazado 110415" class="cls-1" d="M95.067,200.76v12.1l-3.5-2.019V198.75Z" transform="translate(-91.57 -74.829)"/>
        <path id="Trazado_110416" data-name="Trazado 110416" class="cls-16" d="M104.952,201.938l-2.921,1.718,1.117-2.139a.55.55,0,0,0,0-.524c-.086-.1-.241,0-.335.163l-1.581,3.041h0a.176.176,0,0,1-.043.112h0a.49.49,0,0,0,0,.155.326.326,0,0,0,0,.137h0a.481.481,0,0,0,.043.069h0l1.581,1.211a.129.129,0,0,0,.155,0,.447.447,0,0,0,.18-.223.473.473,0,0,0,0-.5l-1.117-.859,2.921-1.718a.61.61,0,0,0,.241-.5C105.192,201.964,105.081,201.852,104.952,201.938Z" transform="translate(-92.924 -75.14)"/>
        <path id="Trazado_110417" data-name="Trazado 110417" class="cls-16" d="M108.372,199.915l2.921-1.718-1.117-.859c-.095-.069-.1-.292,0-.5s.232-.292.326-.223l1.589,1.22h0a.112.112,0,0,1,0,.06h0a.524.524,0,0,1,0,.129,1.057,1.057,0,0,1,0,.163h0a.592.592,0,0,1,0,.112h0l-1.589,3.05a.412.412,0,0,1-.155.18.12.12,0,0,1-.172,0,.541.541,0,0,1,0-.524l1.117-2.139-2.921,1.718c-.129.077-.232,0-.232-.223A.627.627,0,0,1,108.372,199.915Z" transform="translate(-93.904 -74.526)"/>
        <path id="Trazado_110418" data-name="Trazado 110418" class="cls-16" d="M119.026,190.651c0-.172-.172-.146-.249.043l-.4.979c-.687-.077-1.512.593-2.07,1.77-.722,1.529-.722,3.342,0,4.038a1.031,1.031,0,0,0,1.314.077,3.583,3.583,0,0,0,1.306-1.589.5.5,0,0,0,0-.515c-.086-.086-.241,0-.326.2-.541,1.143-1.418,1.65-1.959,1.125s-.541-1.873,0-3.016c.378-.808.936-1.289,1.418-1.323l-.3.739c-.077.189,0,.369.112.292l1.194-.782a.361.361,0,0,0,.129-.326Z" transform="translate(-94.979 -73.672)"/>
        <path id="Trazado_110419" data-name="Trazado 110419" class="cls-16" d="M155.747,161.878l1.065-2.251a.679.679,0,0,0,0-.7c-.129-.12-.326,0-.455.266l-1.065,2.251-1.065-1.022c-.12-.12-.326,0-.455.258a.722.722,0,0,0,0,.7l1.04,1.04-1.065,2.26a.7.7,0,0,0,0,.7.189.189,0,0,0,.232,0,.679.679,0,0,0,.223-.275l1.065-2.26,1.065,1.031a.18.18,0,0,0,.232,0,.627.627,0,0,0,.223-.275.679.679,0,0,0,0-.7Z" transform="translate(-100.316 -69.212)"/>
        <path id="Trazado_110420" data-name="Trazado 110420" class="cls-13" d="M124.07,177.954v-3.763a4.107,4.107,0,0,1,1.864-3.222l155.94-90.011c1.022-.593,1.856-.112,1.856,1.074V85.8a4.124,4.124,0,0,1-1.856,3.222l-155.94,90.011C124.869,179.62,124.07,179.139,124.07,177.954Z" transform="translate(-96.148 -58.2)"/>
        <path id="Trazado_110421" data-name="Trazado 110421" class="cls-1" d="M304.607,89.625a.455.455,0,0,1-.163,0,.507.507,0,0,1-.284-.558l.18-1.529-.713-.515a.5.5,0,0,1-.2-.421.859.859,0,0,1,.309-.644l1.091-.859a.189.189,0,0,0,.043-.086l.49-1.607a.687.687,0,0,1,.55-.515.43.43,0,0,1,.43.258h0l.412.859.919-.352a.447.447,0,0,1,.5.112.7.7,0,0,1,0,.756L307.382,86v.095l.18,1.34a.859.859,0,0,1-.206.7.524.524,0,0,1-.43.172l-.859-.112-.962,1.229a.55.55,0,0,1-.5.2Zm-.524-3.11.713.515a.55.55,0,0,1,.189.515l-.12,1.014.644-.816A.558.558,0,0,1,306,87.5l.859.112a.293.293,0,0,0,0-.1l-.189-1.34a.859.859,0,0,1,.095-.481l.7-1.3-.713.275a.438.438,0,0,1-.567-.232l-.318-.679-.438,1.426a.859.859,0,0,1-.266.4l-1.1.859a.2.2,0,0,0,.026.069Zm2.749-2.354Z" transform="translate(-121.415 -58.508)"/>
        <g id="Grupo_59653" data-name="Grupo 59653" class="cls-17" transform="translate(189.132 17.998)">
          <path id="Trazado_110422" data-name="Trazado 110422" class="cls-18" d="M312.355,79.773a.644.644,0,0,1-.318-1.2l5.232-3.024a.645.645,0,1,1,.644,1.117l-5.232,3.024A.644.644,0,0,1,312.355,79.773Z" transform="translate(-311.714 -75.459)"/>
          <path id="Trazado_110423" data-name="Trazado 110423" class="cls-18" d="M312.355,83.293a.644.644,0,0,1-.318-1.2l5.232-3.024a.645.645,0,1,1,.644,1.117l-5.232,3.024a.739.739,0,0,1-.326.086Z" transform="translate(-311.714 -75.955)"/>
          <path id="Trazado_110424" data-name="Trazado 110424" class="cls-18" d="M312.355,86.814a.644.644,0,0,1-.318-1.2l5.232-3.024a.636.636,0,0,1,.859.232.644.644,0,0,1-.232.859l-5.232,3.016a.653.653,0,0,1-.309.12Z" transform="translate(-311.714 -76.452)"/>
        </g>
        <path id="Trazado_110425" data-name="Trazado 110425" class="cls-18" d="M95.639,196.749l-.009,12.079L290.171,96.515l.017-12.105Z" transform="translate(-92.142 -58.722)"/>
        <path id="Trazado_110426" data-name="Trazado 110426" class="cls-13" d="M121,203.213v2.337c0,.481.335.67.747.43l29.21-16.882V185l-29.21,16.882a1.667,1.667,0,0,0-.747,1.332Z" transform="translate(-95.716 -72.892)"/>
        <path id="Trazado_110427" data-name="Trazado 110427" class="cls-2" d="M159.852,182.353c.421-.241.756-.043.756.438v2.337a1.641,1.641,0,0,1-.756,1.3l-3.952,2.285v-4.1Z" transform="translate(-100.632 -72.505)"/>
        <path id="Trazado_110428" data-name="Trazado 110428" class="cls-13" d="M159.787,185.816l-.438-.137a2.576,2.576,0,0,0,.069-.567,1.031,1.031,0,0,0-.4-.936.61.61,0,0,0-.636,0,2.242,2.242,0,0,0-.859,1.83,1.031,1.031,0,0,0,.4.945.541.541,0,0,0,.284.077.679.679,0,0,0,.361-.112,1.907,1.907,0,0,0,.713-.954l.438.137h.052a.163.163,0,0,0,.155-.112A.172.172,0,0,0,159.787,185.816Zm-1.409.859a.292.292,0,0,1-.318,0,.773.773,0,0,1-.241-.662,1.95,1.95,0,0,1,.722-1.546.369.369,0,0,1,.2-.06.241.241,0,0,1,.112,0,.756.756,0,0,1,.241.662,1.959,1.959,0,0,1-.713,1.589Z" transform="translate(-100.859 -72.764)"/>
        <path id="Trazado_110429" data-name="Trazado 110429" class="cls-13" d="M114.621,208.613l-1.993,1.177a1.65,1.65,0,0,0-.747,1.289v2.311c0,.481.335.67.747.43l1.993-1.151a1.641,1.641,0,0,0,.747-1.289v-2.311C115.368,208.57,115.033,208.373,114.621,208.613Z" transform="translate(-94.431 -76.204)"/>
        <path id="Trazado_110430" data-name="Trazado 110430" class="cls-2" d="M195.263,160.87a5.9,5.9,0,0,0-2.663,4.622c0,1.718,1.194,2.388,2.663,1.538a5.9,5.9,0,0,0,2.663-4.622C197.927,160.716,196.732,160.02,195.263,160.87Z" transform="translate(-105.802 -69.442)"/>
        <path id="Trazado_110431" data-name="Trazado 110431" class="cls-14" d="M195.258,163.78a.472.472,0,0,1-.241-.06.584.584,0,0,1-.258-.533,1.546,1.546,0,0,1,.7-1.22h0a.593.593,0,0,1,.593,0,.584.584,0,0,1,.258.533,1.546,1.546,0,0,1-.7,1.22A.713.713,0,0,1,195.258,163.78Z" transform="translate(-106.106 -69.636)"/>
        <path id="Trazado_110432" data-name="Trazado 110432" class="cls-14" d="M196.516,164.284a.928.928,0,0,0-.945.069l-.387.223a2.577,2.577,0,0,0-1.194,2.079v.275a1.5,1.5,0,0,0,1.469-.155,4.3,4.3,0,0,0,1.469-1.546v-.069a.954.954,0,0,0-.412-.876Z" transform="translate(-105.998 -69.96)"/>
        <path id="Trazado_110433" data-name="Trazado 110433" class="cls-1" d="M202.58,156.77l18.256-10.55c.739-.421,1.34-.1,1.34.73a2.9,2.9,0,0,1-1.34,2.268L202.58,159.751c-.739.43-1.34.1-1.34-.722a2.9,2.9,0,0,1,1.34-2.26Z" transform="translate(-107.02 -67.403)"/>
        <path id="Trazado_110434" data-name="Trazado 110434" class="cls-1" d="M235.02,138.707l11.332-6.6c.739-.43,1.332-.1,1.34.722a2.921,2.921,0,0,1-1.34,2.268l-11.332,6.607c-.739.421-1.34.1-1.34-.73A2.921,2.921,0,0,1,235.02,138.707Z" transform="translate(-111.589 -65.415)"/>
        <path id="Trazado_110435" data-name="Trazado 110435" class="cls-1" d="M259.42,125.025l7.818-4.536c.739-.43,1.34-.1,1.34.722a2.9,2.9,0,0,1-1.34,2.268l-7.818,4.545c-.739.421-1.34.1-1.34-.722A2.921,2.921,0,0,1,259.42,125.025Z" transform="translate(-115.027 -63.778)"/>
        <path id="Trazado_110436" data-name="Trazado 110436" class="cls-8" d="M229.626,146.771a.326.326,0,0,1-.326-.326v-4.029a.326.326,0,0,1,.644,0v4.029A.327.327,0,0,1,229.626,146.771Z" transform="translate(-110.972 -66.855)"/>
        <path id="Trazado_110437" data-name="Trazado 110437" class="cls-8" d="M254,132.7a.326.326,0,0,1-.326-.326v-4.029a.326.326,0,0,1,.644,0v4.029a.326.326,0,0,1-.318.326Z" transform="translate(-114.406 -64.873)"/>
        <path id="Trazado_110438" data-name="Trazado 110438" class="cls-8" d="M274.306,120.955a.327.327,0,0,1-.327-.318v-4.029a.326.326,0,1,1,.644,0v4.029A.326.326,0,0,1,274.306,120.955Z" transform="translate(-117.266 -63.204)"/>
        <path id="Trazado_110439" data-name="Trazado 110439" class="cls-2" d="M281.715,114.214v-.739c0-.859-.515-1.237-1.151-.859h0a2.758,2.758,0,0,0-1.143,2.191v.7a2.638,2.638,0,0,1-.387,1.3h0a.679.679,0,0,0-.094.335h0c0,.215.129.309.284.223l2.689-1.546a.713.713,0,0,0,.284-.558h0a.284.284,0,0,0-.086-.223h0a.79.79,0,0,1-.4-.816Z" transform="translate(-117.965 -62.675)"/>
        <path id="Trazado_110440" data-name="Trazado 110440" class="cls-2" d="M281.3,117.1a1.332,1.332,0,0,1-.558,1.057c-.3.172-.55,0-.55-.421Z" transform="translate(-118.142 -63.327)"/>
        <path id="Trazado_110441" data-name="Trazado 110441" class="cls-2" d="M287.788,110.366a.558.558,0,0,1-.266-.069.661.661,0,0,1-.292-.6,1.718,1.718,0,0,1,.79-1.375h0a.679.679,0,0,1,.67-.052.661.661,0,0,1,.292.6,1.718,1.718,0,0,1-.79,1.375A.859.859,0,0,1,287.788,110.366Z" transform="translate(-119.133 -62.074)"/>
        <path id="Trazado_110442" data-name="Trazado 110442" class="cls-2" d="M289.2,110.983a1.04,1.04,0,0,0-1.057.086l-.438.249a2.955,2.955,0,0,0-1.349,2.345v.309a1.718,1.718,0,0,0,1.658-.172,4.915,4.915,0,0,0,1.658-1.718v-.077A1.1,1.1,0,0,0,289.2,110.983Z" transform="translate(-119.011 -62.451)"/>
        <path id="Trazado_110443" data-name="Trazado 110443" class="cls-2" d="M290.268,108.044a.473.473,0,0,1-.266-.069.644.644,0,0,1-.292-.6A1.718,1.718,0,0,1,290.5,106h0a.593.593,0,0,1,.954.558,1.718,1.718,0,0,1-.79,1.366A.747.747,0,0,1,290.268,108.044Z" transform="translate(-119.482 -61.745)"/>
        <path id="Trazado_110444" data-name="Trazado 110444" class="cls-2" d="M291.723,108.622a1.048,1.048,0,0,0-1.065.077l-.43.258a2.775,2.775,0,0,0-1.108,1.306.979.979,0,0,1,.936,0,1.091,1.091,0,0,1,.473,1v.189a4.768,4.768,0,0,0,1.667-1.718v-.077A1.091,1.091,0,0,0,291.723,108.622Z" transform="translate(-119.4 -62.117)"/>
        <path id="Trazado_110445" data-name="Trazado 110445" class="cls-2" d="M297.97,102.191a4.837,4.837,0,0,0-2.191,3.8,1.658,1.658,0,0,0,.49,1.3l-.275,1.3c0,.163.077.232.18.112l.988-1.151a2.285,2.285,0,0,0,.808-.284,4.846,4.846,0,0,0,2.182-3.8C300.152,102.062,299.173,101.5,297.97,102.191Z" transform="translate(-120.337 -61.185)"/>
        <path id="Trazado_110446" data-name="Trazado 110446" class="cls-2" d="M310.329,95.088a1.211,1.211,0,0,1,.541-.189.73.73,0,0,1,.438.077.722.722,0,0,1,.292.344,1.349,1.349,0,0,1,.112.593,2.1,2.1,0,0,1-.06.533,4.482,4.482,0,0,1-.155.481c-.069.146-.137.292-.215.43s-.146.266-.215.4a4.129,4.129,0,0,0-.189.4,1.665,1.665,0,0,0-.12.387,1.376,1.376,0,0,1-.043.18.24.24,0,0,1-.094.112l-.619.361a.077.077,0,0,1-.1,0,.18.18,0,0,1-.043-.129,1.933,1.933,0,0,1,.069-.5,4.561,4.561,0,0,1,.172-.481c.069-.146.146-.3.223-.438s.155-.275.223-.4a2.724,2.724,0,0,0,.172-.361.86.86,0,0,0,.069-.335c0-.155,0-.249-.112-.292s-.189,0-.344.069a.971.971,0,0,0-.335.3,1.479,1.479,0,0,0-.146.318,1.159,1.159,0,0,1-.077.275.344.344,0,0,1-.129.189l-.627.361a.069.069,0,0,1-.086,0,.146.146,0,0,1,0-.1,2.776,2.776,0,0,1,.095-.644,4.184,4.184,0,0,1,.283-.722,3.857,3.857,0,0,1,.447-.679A2.122,2.122,0,0,1,310.329,95.088Zm.447,5.155a.421.421,0,0,1-.043.172.283.283,0,0,1-.095.12l-.653.369a.069.069,0,0,1-.095,0,.18.18,0,0,1-.043-.129v-.8a.422.422,0,0,1,.043-.172.232.232,0,0,1,.095-.12l.653-.378a.077.077,0,0,1,.095,0,.18.18,0,0,1,.043.129Z" transform="translate(-122.189 -60.199)"/>
        <path id="Trazado_110447" data-name="Trazado 110447" class="cls-2" d="M132.19,202.628v36c0,1.186.859,1.667,1.864,1.074l128.01-73.936a4.124,4.124,0,0,0,1.856-3.222V126.552c0-1.186-.859-1.667-1.856-1.074l-128.01,73.928A4.107,4.107,0,0,0,132.19,202.628Z" transform="translate(-97.292 -64.472)"/>
        <path id="Trazado_110448" data-name="Trazado 110448" class="cls-19" d="M132.19,202.628v36c0,1.186.859,1.667,1.864,1.074l128.01-73.936a4.124,4.124,0,0,0,1.856-3.222V126.552c0-1.186-.859-1.667-1.856-1.074l-128.01,73.928A4.107,4.107,0,0,0,132.19,202.628Z" transform="translate(-97.292 -64.472)"/>
        <path id="Trazado_110449" data-name="Trazado 110449" class="cls-2" d="M143.235,221.263a15.453,15.453,0,0,0-6.985,12.1c0,4.45,3.127,6.254,6.985,4.029a15.394,15.394,0,0,0,6.976-12.1C150.2,220.834,147.084,219.038,143.235,221.263Z" transform="translate(-97.864 -77.866)"/>
        <path id="Trazado_110450" data-name="Trazado 110450" class="cls-14" d="M143.218,228.862a1.194,1.194,0,0,1-.619-.163,1.512,1.512,0,0,1-.67-1.4,4,4,0,0,1,1.83-3.179h0a1.375,1.375,0,0,1,2.225,1.28,4,4,0,0,1-1.839,3.179,1.864,1.864,0,0,1-.928.283Z" transform="translate(-98.663 -78.36)"/>
        <path id="Trazado_110451" data-name="Trazado 110451" class="cls-14" d="M146.505,230.189a2.406,2.406,0,0,0-2.457.189l-1.014.584a6.873,6.873,0,0,0-3.144,5.438v.722a3.9,3.9,0,0,0,3.857-.412,11.169,11.169,0,0,0,3.849-4.038V232.5A2.577,2.577,0,0,0,146.505,230.189Z" transform="translate(-98.377 -79.223)"/>
        <path id="Trazado_110452" data-name="Trazado 110452" class="cls-18" d="M157.9,218.278l14.786-8.531c.739-.43,1.34-.155,1.34.6a2.818,2.818,0,0,1-1.34,2.148L157.9,221.027c-.739.43-1.34.163-1.34-.6A2.818,2.818,0,0,1,157.9,218.278Z" transform="translate(-100.725 -76.35)"/>
        <path id="Trazado_110453" data-name="Trazado 110453" class="cls-18" d="M157.35,225.527l8.694-5.017c.43-.258.782-.095.782.352a1.667,1.667,0,0,1-.782,1.263l-8.694,5.017c-.438.249-.79.095-.79-.352A1.641,1.641,0,0,1,157.35,225.527Z" transform="translate(-100.725 -77.878)"/>
        <path id="Trazado_110454" data-name="Trazado 110454" class="cls-20" d="M134.054,244.909l128.01-73.885a4.124,4.124,0,0,0,1.856-3.222v-5.9L132.19,237.924v5.911C132.19,245.021,133.023,245.5,134.054,244.909Z" transform="translate(-97.292 -69.638)"/>
        <path id="Trazado_110455" data-name="Trazado 110455" class="cls-21" d="M172.758,233.524a.309.309,0,0,1-.318-.318v-4.029a.318.318,0,0,1,.318-.326.326.326,0,0,1,.326.326v4.029a.318.318,0,0,1-.326.318Z" transform="translate(-102.962 -79.07)"/>
        <path id="Trazado_110456" data-name="Trazado 110456" class="cls-1" d="M154.42,239.356l11.323-6.607c.739-.421,1.34-.1,1.34.73a2.921,2.921,0,0,1-1.34,2.268l-11.323,6.641c-.739.43-1.34.1-1.34-.722a2.921,2.921,0,0,1,1.34-2.311Z" transform="translate(-100.235 -79.593)"/>
        <path id="Trazado_110457" data-name="Trazado 110457" class="cls-21" d="M196.568,219.694a.318.318,0,0,1-.318-.326v-4.029a.318.318,0,0,1,.318-.318.326.326,0,0,1,.326.318v4.029a.326.326,0,0,1-.326.326Z" transform="translate(-106.317 -77.121)"/>
        <path id="Trazado_110458" data-name="Trazado 110458" class="cls-1" d="M178.23,225.524l11.323-6.555c.739-.43,1.34-.1,1.34.722a2.9,2.9,0,0,1-1.34,2.268l-11.323,6.607c-.739.43-1.34.1-1.34-.722a2.921,2.921,0,0,1,1.34-2.32Z" transform="translate(-103.589 -77.651)"/>
        <path id="Trazado_110459" data-name="Trazado 110459" class="cls-21" d="M220.376,205.854a.326.326,0,0,1-.326-.318v-4.029a.326.326,0,0,1,.326-.327.318.318,0,0,1,.318.327v4.029a.318.318,0,0,1-.318.318Z" transform="translate(-109.669 -75.172)"/>
        <path id="Trazado_110460" data-name="Trazado 110460" class="cls-1" d="M202.04,211.686l11.323-6.607c.739-.421,1.34-.1,1.34.73a2.921,2.921,0,0,1-1.34,2.268l-11.323,6.6c-.739.43-1.34.1-1.34-.722A2.921,2.921,0,0,1,202.04,211.686Z" transform="translate(-106.943 -75.695)"/>
        <path id="Trazado_110461" data-name="Trazado 110461" class="cls-21" d="M244.186,192.024a.326.326,0,0,1-.326-.327v-4.029a.318.318,0,0,1,.326-.318.309.309,0,0,1,.318.318V191.7a.318.318,0,0,1-.318.326Z" transform="translate(-113.024 -73.223)"/>
        <path id="Trazado_110462" data-name="Trazado 110462" class="cls-1" d="M225.85,197.887l11.323-6.6c.739-.43,1.34-.1,1.34.722a2.9,2.9,0,0,1-1.34,2.268l-11.323,6.607c-.747.43-1.34.1-1.34-.722A2.9,2.9,0,0,1,225.85,197.887Z" transform="translate(-110.298 -73.752)"/>
        <path id="Trazado_110463" data-name="Trazado 110463" class="cls-1" d="M249.652,184.016l11.332-6.607c.739-.421,1.34-.1,1.34.73a2.921,2.921,0,0,1-1.34,2.268l-11.332,6.6c-.739.43-1.332.1-1.332-.722a2.912,2.912,0,0,1,1.332-2.268Z" transform="translate(-113.652 -71.797)"/>
      </g>
    </g>
    <g id="freepik--Post--inject-324" transform="translate(149.046 160.307)">
      <g id="freepik--post--inject-324-2" data-name="freepik--post--inject-324">
        <path id="Trazado_110464" data-name="Trazado 110464" class="cls-21" d="M235.057,374.927a58.575,58.575,0,0,1-28.626-41.994l-6.091-40.439A58.532,58.532,0,0,0,176.7,253.73L168.75,248v4.536l4.3,3.11a58.575,58.575,0,0,1,23.626,38.661l6.211,40.723a58.584,58.584,0,0,0,28.609,41.891l3.548,2.045v-4.029Z" transform="translate(-168.75 -191.573)"/>
        <path id="Trazado_110465" data-name="Trazado 110465" class="cls-13" d="M304.14,267.262l-6.091-40.439a58.541,58.541,0,0,0-23.635-38.764l-7.947-5.739L168.75,238.747l7.947,5.739A58.532,58.532,0,0,1,200.34,283.25l6.091,40.439a58.575,58.575,0,0,0,28.626,41.994h0l97.717-56.419h0a58.549,58.549,0,0,1-28.635-42Z" transform="translate(-168.75 -182.32)"/>
        <path id="Trazado_110466" data-name="Trazado 110466" class="cls-1" d="M266.416,183.342l7.492,5.413a58.068,58.068,0,0,1,23.3,38.2l6.083,40.439a59.108,59.108,0,0,0,27.784,41.857l-96.016,55.431a57.424,57.424,0,0,1-27.784-41.126l-6.083-40.439A59.8,59.8,0,0,0,177.2,243.773l-6.873-4.957,96.085-55.474m.052-1.022L168.75,238.747l7.947,5.739A58.532,58.532,0,0,1,200.34,283.25l6.091,40.439a58.575,58.575,0,0,0,28.626,41.994h0l97.717-56.419A58.55,58.55,0,0,1,304.14,267.27l-6.091-40.439a58.541,58.541,0,0,0-23.635-38.772l-7.947-5.739Z" transform="translate(-168.75 -182.32)"/>
        <path id="Trazado_110467" data-name="Trazado 110467" class="cls-20" d="M245.93,386.489l97.717-56.419V334.1L245.93,390.518Z" transform="translate(-179.623 -203.134)"/>
        <path id="Trazado_110468" data-name="Trazado 110468" class="cls-2" d="M189.537,244.332c-3.437,1.452-3.772,4.424-.816,6.658a12.835,12.835,0,0,0,11.529,1.4c3.437-1.443,3.78-4.424.859-6.65a12.809,12.809,0,0,0-11.572-1.409Z" transform="translate(-171.28 -190.946)"/>
        <path id="Trazado_110469" data-name="Trazado 110469" class="cls-14" d="M193.779,248.245a3.927,3.927,0,0,1-.859,0,3.7,3.7,0,0,1-1.778-.636c-.79-.593-.7-1.366.215-1.718h0a3.772,3.772,0,0,1,1.89-.2,3.832,3.832,0,0,1,1.778.644c.79.593.7,1.366-.215,1.718A3.093,3.093,0,0,1,193.779,248.245Z" transform="translate(-171.829 -191.242)"/>
        <path id="Trazado_110470" data-name="Trazado 110470" class="cls-14" d="M199.089,248.569a6.013,6.013,0,0,0-2.99.309l-.859.378c-1.555.67-1.718,1.985-.361,3l.481.361a10.9,10.9,0,0,0,4.854-.387c1.478-.567,2.38-1.22,2.509-2.156l-.662-.438A6.289,6.289,0,0,0,199.089,248.569Z" transform="translate(-172.301 -191.643)"/>
        <path id="Trazado_110471" data-name="Trazado 110471" class="cls-18" d="M208.339,234.3l28.695-16.573a3.514,3.514,0,0,1,3.6.189l.258.206a1.392,1.392,0,0,1-.2,2.449l-28.669,16.607a3.342,3.342,0,0,1-3.505-.309c-.1-.077-.206-.155-.3-.241a1.289,1.289,0,0,1,.12-2.328Z" transform="translate(-174.214 -187.25)"/>
        <path id="Trazado_110472" data-name="Trazado 110472" class="cls-18" d="M215.452,243.187l14.365-8.291a.765.765,0,0,0,.146-1.28l-.258-.249a1.5,1.5,0,0,0-1.718-.2L213.7,241.52a.773.773,0,0,0-.146,1.289l.18.172A1.512,1.512,0,0,0,215.452,243.187Z" transform="translate(-175.022 -189.457)"/>
        <path id="Trazado_110473" data-name="Trazado 110473" class="cls-22" d="M204.714,255.807l77.424-44.718a2.388,2.388,0,0,1,3.1.679l.163.232a2,2,0,0,1-.687,2.87l-77.467,44.752a2.294,2.294,0,0,1-3.024-.73l-.163-.249a1.95,1.95,0,0,1,.653-2.835Z" transform="translate(-173.674 -186.33)"/>
        <path id="Trazado_110474" data-name="Trazado 110474" class="cls-22" d="M210.16,264.688l77.51-44.735a1.993,1.993,0,0,1,2.827.859l.12.249a2.423,2.423,0,0,1-.979,3.033l-77.528,44.795a1.9,1.9,0,0,1-2.723-.859l-.137-.275A2.345,2.345,0,0,1,210.16,264.688Z" transform="translate(-174.421 -187.582)"/>
        <path id="Trazado_110475" data-name="Trazado 110475" class="cls-22" d="M214.2,274.331l77.579-44.786a1.658,1.658,0,0,1,2.517.971l.1.387a2.9,2.9,0,0,1-1.289,3.144l-77.545,44.821a1.572,1.572,0,0,1-2.414-1.005,1.5,1.5,0,0,0-.12-.412A2.827,2.827,0,0,1,214.2,274.331Z" transform="translate(-174.974 -188.934)"/>
        <path id="Trazado_110476" data-name="Trazado 110476" class="cls-22" d="M216.745,287.926l45.1-26.04a1.366,1.366,0,0,1,2.182,1.057l.094.6a3.376,3.376,0,0,1-1.538,3.2l-45.1,26.066a1.366,1.366,0,0,1-2.182-1.048,4.06,4.06,0,0,0-.095-.636A3.437,3.437,0,0,1,216.745,287.926Z" transform="translate(-175.292 -193.49)"/>
        <path id="Trazado_110477" data-name="Trazado 110477" class="cls-2" d="M310.4,311.805l-73.79,42.613a4.751,4.751,0,0,1-6.229-1.34q-7-10.722-9.347-26.71l-2.947-19.579a6.8,6.8,0,0,1,3.076-6.4l73.885-42.681a2.732,2.732,0,0,1,4.364,2.1l2.947,19.588a61.617,61.617,0,0,0,9.3,26.745,3.909,3.909,0,0,1-1.254,5.662Z" transform="translate(-175.695 -192.868)"/>
        <path id="Trazado_110478" data-name="Trazado 110478" class="cls-19" d="M310.4,311.805l-73.79,42.613a4.751,4.751,0,0,1-6.229-1.34q-7-10.722-9.347-26.71l-2.947-19.579a6.8,6.8,0,0,1,3.076-6.4l73.885-42.681a2.732,2.732,0,0,1,4.364,2.1l2.947,19.588a61.617,61.617,0,0,0,9.3,26.745,3.909,3.909,0,0,1-1.254,5.662Z" transform="translate(-175.695 -192.868)"/>
        <path id="Trazado_110479" data-name="Trazado 110479" class="cls-2" d="M237.837,359.425l73.79-42.613a3.909,3.909,0,0,0,1.254-5.662,56.952,56.952,0,0,1-5.859-11.95l-22.9-6.461L273.963,315.3,285,324.175,246.48,303.9l-19.7,44.786a54.075,54.075,0,0,0,4.828,9.407A4.751,4.751,0,0,0,237.837,359.425Z" transform="translate(-176.925 -197.875)"/>
        <path id="Trazado_110480" data-name="Trazado 110480" class="cls-2" d="M275,287.061c2.715-1.564,5.3-.266,5.782,2.9a9.072,9.072,0,0,1-4.055,8.591c-2.715,1.572-5.3.266-5.773-2.9A9.064,9.064,0,0,1,275,287.061Z" transform="translate(-183.139 -196.982)"/>
        <path id="Trazado_110481" data-name="Trazado 110481" class="cls-2" d="M301.311,349.789a4.3,4.3,0,0,1-.739,0,3.179,3.179,0,0,1-1.495-.541c-.653-.49-.576-1.134.18-1.461h0a3.144,3.144,0,0,1,1.572-.163,3.273,3.273,0,0,1,1.495.533c.653.5.576,1.143-.18,1.469A2.474,2.474,0,0,1,301.311,349.789Z" transform="translate(-187.047 -205.602)"/>
        <path id="Trazado_110482" data-name="Trazado 110482" class="cls-2" d="M305.752,350.07a4.957,4.957,0,0,0-2.5.258l-.747.309c-1.3.558-1.435,1.658-.3,2.509l.4.3a9.192,9.192,0,0,0,4.064-.326c1.229-.473,1.985-1.022,2.1-1.8l-.558-.361A5.155,5.155,0,0,0,305.752,350.07Z" transform="translate(-187.442 -205.943)"/>
        <path id="Trazado_110483" data-name="Trazado 110483" class="cls-2" d="M307.518,346.31l-2.766.137-.747.644a.266.266,0,0,0,0,.412l.747.593,2.809-.112Zm-2.955,1.168a.2.2,0,1,1,.206-.206.206.206,0,0,1-.206.206Z" transform="translate(-187.79 -205.422)"/>
        <path id="Trazado_110484" data-name="Trazado 110484" class="cls-2" d="M324.292,340.59c0,.421-.541.773-.859.945a5.224,5.224,0,0,1-1.942.627C320.839,341.4,322.093,340.066,324.292,340.59Z" transform="translate(-190.243 -204.599)"/>
        <path id="Trazado_110485" data-name="Trazado 110485" class="cls-2" d="M323.362,337.182c-2.028-1.675-5.206-2.294-7.44-1.014s-2.672,3.986-.619,5.662a7.634,7.634,0,0,0,7.938.421C325.458,340.953,325.4,338.848,323.362,337.182Zm-3.351-.4a1.022,1.022,0,0,1,1.151.18.515.515,0,0,1-.1.859,1.048,1.048,0,0,1-1.194-.129.558.558,0,0,1,.146-.911Zm-4.072,3.127a.558.558,0,0,1,.146-.919,1,1,0,0,1,1.143.18.515.515,0,0,1-.094.859,1.048,1.048,0,0,1-1.237-.086Zm6.736,1.254a6.357,6.357,0,0,1-3.093.747,6.254,6.254,0,0,1-2.715-.576l5.773-3.256a2.4,2.4,0,0,1,1.082,1.8,1.847,1.847,0,0,1-1.091,1.315Z" transform="translate(-189.209 -203.897)"/>
        <path id="Trazado_110486" data-name="Trazado 110486" class="cls-2" d="M337.8,328.338a3.436,3.436,0,0,0-.765-.859,4.846,4.846,0,0,0-5.206-.713,2.32,2.32,0,0,0-.43,3.961,3.91,3.91,0,0,0,.576.378h0c2.577,1.469,7.26,1.65,7.26,1.65A8.23,8.23,0,0,0,337.8,328.338Zm-2.242,1.624a2.577,2.577,0,0,1-2.655-.137,1.117,1.117,0,0,1,.206-1.9,2.32,2.32,0,0,1,2.491.344c.687.558.713,1.263-.034,1.693Z" transform="translate(-191.533 -202.604)"/>
      </g>
    </g>
    <g id="freepik--Character--inject-324" transform="translate(296.347 114.799)">
      <g id="freepik--character--inject-324-2" data-name="freepik--character--inject-324">
        <path id="Trazado_110487" data-name="Trazado 110487" class="cls-23" d="M443.728,339.188,432.68,371.431a1.04,1.04,0,0,1-1.967,0l-10.9-32.5Z" transform="translate(-351.418 -158.874)"/>
        <path id="Trazado_110488" data-name="Trazado 110488" class="cls-8" d="M432.118,375.609a1.04,1.04,0,0,0,1.967,0l2.156-6.3h0a5.748,5.748,0,0,1-5.971-.335l-.481-.326Z" transform="translate(-352.824 -163.061)"/>
        <path id="Trazado_110489" data-name="Trazado 110489" class="cls-2" d="M420.225,171.58v6.959l-.4,136.807a15.293,15.293,0,0,0,10.078,4.742c5.782.6,11.719-1.3,13.832-4.476l.387-136.73v-7.277C443.843,176.314,420.019,176.305,420.225,171.58Z" transform="translate(-351.421 -135.299)"/>
        <path id="Trazado_110490" data-name="Trazado 110490" class="cls-21" d="M420.21,185.54v7.045c-.069,2.045,4.3,3.368,9.3,3.823,6.667.636,14.519-1.168,14.605-3.875V185.48c-.1,2.706-7.956,4.519-14.605,3.883-4.811-.447-9.021-1.718-9.261-3.6h0A.412.412,0,0,1,420.21,185.54Z" transform="translate(-351.475 -137.257)"/>
        <path id="Trazado_110491" data-name="Trazado 110491" class="cls-2" d="M420.23,186.434c-.172,4.742,23.729,4.682,23.9-.06V179.32c-.172,4.742-24.056,4.8-23.9.06Z" transform="translate(-351.478 -136.389)"/>
        <path id="Trazado_110492" data-name="Trazado 110492" class="cls-21" d="M420.29,171.58v6.959c-.206,4.656,22.861,4.794,23.9.344a1.24,1.24,0,0,0,.043-.266v-7.01C443.907,176.314,420.084,176.305,420.29,171.58Z" transform="translate(-351.486 -135.299)"/>
        <path id="Trazado_110493" data-name="Trazado 110493" class="cls-24" d="M444.294,135.8v-.3c0-3.394-5.344-6.151-11.942-6.151s-11.95,2.758-11.95,6.151v3.2l-.112,26.925c-.086,2.019,4.21,3.351,9.193,3.832,6.667.653,14.554-1.108,14.7-3.806h0l.1-29.64A1.018,1.018,0,0,0,444.294,135.8Z" transform="translate(-351.486 -129.35)"/>
        <ellipse id="Elipse_4238" data-name="Elipse 4238" class="cls-25" cx="11.95" cy="6.151" rx="11.95" ry="6.151" transform="translate(68.916 0)"/>
        <path id="Trazado_110494" data-name="Trazado 110494" class="cls-12" d="M446.208,173.991l.129-37.131c-.155,2.9-5.155,5.653-10.524,5.851l-.387,172.6-.636,27.655,11.048-32.243h0Z" transform="translate(-353.529 -130.408)"/>
        <path id="Trazado_110495" data-name="Trazado 110495" class="cls-26" d="M403.09,213.547c4.545-.662,10.146,2.758,14.047,8.239s17.492,18.823,18.987,23.068c1.083,3.093.447,8.909-5.954,6.177-6.194-2.638-25.946-22.011-25.946-22.011Z" transform="translate(-349.063 -141.2)"/>
        <path id="Trazado_110496" data-name="Trazado 110496" class="cls-27" d="M400.56,213.478a22.525,22.525,0,0,1,4.45-.5c1.572.1,5.1,1.04,8.737,4.579s13.067,14.975,13.067,14.975.421,3.213-2.741,6.8-6.117,3.583-6.117,3.583l-14.012-11.607Z" transform="translate(-348.707 -141.131)"/>
        <path id="Trazado_110497" data-name="Trazado 110497" class="cls-26" d="M436.4,238.555l9.966-14.468V213.46s2.2.739,3.076,4.167,1.967,7.414,1.529,10.31S443.633,248.512,439.913,251,436.4,238.555,436.4,238.555Z" transform="translate(-353.755 -141.199)"/>
        <path id="Trazado_110498" data-name="Trazado 110498" class="cls-26" d="M384.19,207.539l1.942,12.234,12.122-.653-1.735-14.21Z" transform="translate(-346.401 -139.994)"/>
        <path id="Trazado_110499" data-name="Trazado 110499" class="cls-28" d="M374.274,190.51s-2.887,4.382-2.577,4.811,2.457.859,2.457.859Z" transform="translate(-344.637 -137.966)"/>
        <path id="Trazado_110500" data-name="Trazado 110500" class="cls-26" d="M382.647,176.3c-5.842,1.237-7.535,3.806-8.084,13.093-.576,9.708.412,12.758,1.718,14.064.859.859,5.644,1.04,8.059.378,3.016-.859,9.846-3.256,13.042-8.136,3.754-5.739,4.742-13.531.722-16.719C392.441,174.475,385.061,175.8,382.647,176.3Z" transform="translate(-345.021 -135.883)"/>
        <path id="Trazado_110501" data-name="Trazado 110501" class="cls-28" d="M384.32,208.623a23.766,23.766,0,0,0,3.076-.773,5.387,5.387,0,0,1-2.93,1.718Z" transform="translate(-346.419 -140.409)"/>
        <path id="Trazado_110502" data-name="Trazado 110502" class="cls-8" d="M373.765,177.908a11.168,11.168,0,0,0,2.577,1.04c1.426.412,1.211.945,1.409,2.251a5.309,5.309,0,0,0,1.607,3.084c.558.507.971.55,1.16,1.323a10.95,10.95,0,0,1,0,2.431c0,1.615,1.048,2.835,1.546.679,0,0,.928-3.591,3.952-3.136s3.29,3.857,1.847,6.529c-.859,1.632-3.23,1.2-3.23,1.2a10.542,10.542,0,0,0,3.162,8.136s3.007,2.234,7.732-.086a61.051,61.051,0,0,0,5.378-8.17c2.1-3.643,3.909-8.127,3.2-12.414a8.016,8.016,0,0,0-2.036-4.3,2.921,2.921,0,0,1-.979-2.148,4.167,4.167,0,0,0-1.461-2.466,4.244,4.244,0,0,0-4.3-.576,3.557,3.557,0,0,0-2.715-3.179,6.529,6.529,0,0,0-4.356.6,4.811,4.811,0,0,0-8.076-.507,2.577,2.577,0,0,0-2.028-1.168,6.28,6.28,0,0,0-2.38.378,8.866,8.866,0,0,0-1.856.79,5.928,5.928,0,0,0-2.646,6.418,5.155,5.155,0,0,0,2.491,3.282Z" transform="translate(-344.558 -134.548)"/>
        <path id="Trazado_110503" data-name="Trazado 110503" class="cls-8" d="M406.024,178.188l3.5-2.062a2.03,2.03,0,1,0-3.5,2.062Z" transform="translate(-349.437 -135.799)"/>
        <path id="Trazado_110504" data-name="Trazado 110504" class="cls-8" d="M405.5,389l.077.782a14.044,14.044,0,0,1,.077,3.119,2.766,2.766,0,0,1-.962,2.088,8.661,8.661,0,0,1-2.277.859,8,8,0,0,1-5.3-.524c-1.375-.661-2.449-1.718-3.935-2.122a29.8,29.8,0,0,0-4.674-.773,10.585,10.585,0,0,1-2.071-.378,9.6,9.6,0,0,1-1.486-.67,14.518,14.518,0,0,1-4.407-3.222,6.873,6.873,0,0,1-1.581-3.144c-.137-.7-.412-2.68.73-2.629,5.627.249,11.169,1.461,16.822,1.392a7.8,7.8,0,0,1,1.1,0,4.777,4.777,0,0,1,1.89.859,1.942,1.942,0,0,0,1.718.421,8.72,8.72,0,0,1,2.912.043,1.375,1.375,0,0,1,1.005.687,1.152,1.152,0,0,1,.086.421C405.316,387.208,405.411,388.067,405.5,389Z" transform="translate(-345.645 -164.995)"/>
        <path id="Trazado_110505" data-name="Trazado 110505" class="cls-26" d="M407.936,382.1l-.292,4.235c-.275,1.615-5.773,2.577-6.873-.249l-.541-4.811Z" transform="translate(-348.66 -164.84)"/>
        <path id="Trazado_110506" data-name="Trazado 110506" class="cls-8" d="M380.193,401.754s.67,2.2,1.022,4.124c.275,1.529.661,4.089.1,5.223s-2.655,1.821-5.885,1.718c-2.088-.069-5.37,1.28-7.629,2.474s-7.122,1.632-9.553,1.3c-2.861-.4-5.79-2.139-6.229-3.333s.206-2.423,7.028-5.155c.06,0,9.45-2.852,12.818-6.383Z" transform="translate(-341.854 -167.72)"/>
        <path id="Trazado_110507" data-name="Trazado 110507" class="cls-26" d="M383.524,398.587s-.052,1.864-.06,2.938-1.314,2.629-4.579,2.44c-2.294-.137-3.875-.79-3.746-2.672l.06-2.723Z" transform="translate(-345.124 -167.276)"/>
        <path id="Trazado_110508" data-name="Trazado 110508" class="cls-2" d="M405.619,333.414c-.971-8.248-1.718-12.981-1.718-12.981s.172-11.5.859-22.208c.73-11.581.567-26.16.859-29.047,0,0-37.192-7.938-37.5,5.473-.344,15.585.687,47.828.911,52.029.309,5.894.326,12.028,1.323,21.59.988,9.45,3.849,31.745,3.849,31.745a8.832,8.832,0,0,0,8.325,0s3.239-26.727,3.11-33.506a92.552,92.552,0,0,0-1.409-14.691l2.93-30.258s1.151,9.356,1.461,15.249,1.117,9.493,2.577,20.464c1.263,9.511,4.467,29.6,4.467,29.6a7.534,7.534,0,0,0,7.913-.318S406.59,341.671,405.619,333.414Z" transform="translate(-344.127 -148.719)"/>
        <path id="Trazado_110509" data-name="Trazado 110509" class="cls-4" d="M405.619,333.414c-.971-8.248-1.718-12.981-1.718-12.981s.172-11.5.859-22.208c.73-11.581.567-26.16.859-29.047,0,0-37.192-7.938-37.5,5.473-.344,15.585.687,47.828.911,52.029.309,5.894.326,12.028,1.323,21.59.988,9.45,3.849,31.745,3.849,31.745a8.832,8.832,0,0,0,8.325,0s3.239-26.727,3.11-33.506a92.552,92.552,0,0,0-1.409-14.691l2.93-30.258s1.151,9.356,1.461,15.249,1.117,9.493,2.577,20.464c1.263,9.511,4.467,29.6,4.467,29.6a7.534,7.534,0,0,0,7.913-.318S406.59,341.671,405.619,333.414Z" transform="translate(-344.127 -148.719)"/>
        <path id="Trazado_110510" data-name="Trazado 110510" class="cls-29" d="M404.44,290.88s-2.577,4.253-10.4,7.363l-2.182,7.3-.232,12.835c-.3-4.132-.756-8.651-1.34-13.437l.859-7.526S399.809,294.806,404.44,290.88Z" transform="translate(-347.26 -152.105)"/>
        <path id="Trazado_110511" data-name="Trazado 110511" class="cls-18" d="M407.022,221.468c-1.495-5.318-5.009-7.663-8.9-7.913-.988-.06-3,0-3,0,.275,2.26-6.667,3.849-12.028,2.577-1.632.421-4.3,1.031-5.679,1.486-3.875,1.289-8.531,6.134-9.133,18.789,0,0-.619,27.191-.43,35.1,9.579,4.038,18.832,4.545,24.408,3.436,11.624-2.259,13.531-7.242,13.531-7.242s-.1-6.873-.541-17.93C407.194,234.132,407.666,223.771,407.022,221.468Z" transform="translate(-344.094 -141.209)"/>
        <path id="Trazado_110512" data-name="Trazado 110512" class="cls-26" d="M357.813,267.21a7.208,7.208,0,0,1,3.394,6.014c.163,2.474.163,5.155,1.323,7.4.189.369,1.2,1.2,1.6,1.083v-3.162c.644-.816,2.406-2.337,2.861-3.273.756-1.564-.129-3.436.326-5.155a7.654,7.654,0,0,0,.584-2.079,5.816,5.816,0,0,0-1.933-4.76,60.9,60.9,0,0,1-4.768-4.648c-1.993-2-4.76-4.949-6.753-6.959l13.377-12.827a19.3,19.3,0,0,0,3.815-5.077c2.191-4.21,5.155-11.59,1.847-15.464-4.768,0-7.474.73-12.346,6.409-4.2,4.9-17.612,20.963-19.339,23.686s-2.715,4.588.593,7.612a99.308,99.308,0,0,0,8.437,6.452C353.087,264.083,355.553,265.6,357.813,267.21Z" transform="translate(-340.204 -141.881)"/>
        <path id="Trazado_110513" data-name="Trazado 110513" class="cls-28" d="M356.118,257.19a15.06,15.06,0,0,1-4.1,2.818,12.3,12.3,0,0,0,5.026-1.873Z" transform="translate(-341.869 -147.359)"/>
        <path id="Trazado_110514" data-name="Trazado 110514" class="cls-27" d="M376.685,217.8a23.634,23.634,0,0,0-5.773.438c-2.9.627-4.845,2.1-9.863,7.775s-8.54,10.31-8.54,10.31-1.443,3.2,2.577,6.821,7.646,3,7.646,3L374,235.176S382.045,226.765,376.685,217.8Z" transform="translate(-341.902 -141.806)"/>
      </g>
    </g>
  </g>
</svg>
