<svg xmlns="http://www.w3.org/2000/svg" width="929.714" height="408.267" viewBox="0 0 929.714 408.267">
  <g id="Grupo_59809" data-name="Grupo 59809" transform="translate(7246.285 7030.133)">
    <path id="Trazado_113174" data-name="Trazado 113174" d="M42.6,35.894h63.2C115.741,35.894,150,8.059,150,18V183.36a18,18,0,0,1-18,18H18a18,18,0,0,1-18-18V18C0,8.059,32.659,35.894,42.6,35.894Z" transform="translate(-7223.862 -6823.227)" fill="#a66d58" opacity="0.2"/>
    <path id="Trazado_113181" data-name="Trazado 113181" d="M42.6,35.894h63.2C115.741,35.894,150,8.059,150,18V183.36a18,18,0,0,1-18,18H18a18,18,0,0,1-18-18V18C0,8.059,32.659,35.894,42.6,35.894Z" transform="translate(-6760.862 -6823.227)" fill="#a66d58" opacity="0.2"/>
    <path id="Trazado_113179" data-name="Trazado 113179" d="M42.6,195.059h63.2c9.941,0,44.2,30.146,44.2,19.379V35.349c0-10.766-8.059-19.494-18-19.494H18c-9.941,0-18,8.728-18,19.494V214.438C0,225.2,32.659,195.059,42.6,195.059Z" transform="translate(-6526.362 -7045.987)" fill="#a66d58" opacity="0.2"/>
    <path id="Trazado_113180" data-name="Trazado 113180" d="M42.6,195.059h63.2c9.941,0,44.2,30.146,44.2,19.379V35.349c0-10.766-8.059-19.494-18-19.494H18c-9.941,0-18,8.728-18,19.494V214.438C0,225.2,32.659,195.059,42.6,195.059Z" transform="translate(-6990.362 -7045.987)" fill="#a66d58" opacity="0.2"/>
    <path id="Trazado_113173" data-name="Trazado 113173" d="M865.166,137.193c-1.133-.882-2.1-1.91-3.254-2.834a98.237,98.237,0,0,0-21.348-13.581l-.273-.126-3.044-1.343-1.155-.483-2.414-.924-1.889-.714-1.889-.63-2.5-.861-1.469-.42-2.981-.8-1.176-.273c-1.091-.273-2.1-.5-3.3-.714l-1.049-.21c-1.113-.21-2.267-.4-3.4-.567l-1.112-.168-3.211-.336-1.406-.126-1.364-.147H795.959a19.973,19.973,0,0,0-2.96.147l-1.742.126c-1.113.1-2.1.21-3.3.357l-1.364.147c-1.343.189-2.666.4-4.009.63h-.567a97.247,97.247,0,0,0-13.854,3.631h0c-1.448.5-2.9,1.05-4.324,1.616l-.336.126c-1.322.546-2.645,1.092-3.946,1.679l-.441.21c-1.28.588-2.54,1.2-3.778,1.847l-.4.21c-1.28.651-2.519,1.343-3.757,2.1l-.273.147c-1.3.756-2.582,1.532-3.841,2.351h0a96.677,96.677,0,0,0-11.524,8.669l-1.511,1.239a43.073,43.073,0,0,1-43.976,4.954h0a43.787,43.787,0,0,1-25.63-39.316c0-1.805-.126-3.61-.273-5.437A96.874,96.874,0,0,0,636.134,36.5h0c-.9-.924-1.847-1.826-2.792-2.708l-.357-.336c-.84-.777-1.721-1.532-2.582-2.288l-.672-.588c-.8-.672-1.6-1.3-2.414-1.952l-.987-.777q-1.091-.861-2.1-1.637l-1.3-.966-2.1-1.364-1.6-1.05-1.868-1.155-1.847-1.092-1.742-.987-2.1-1.113-1.658-.819L607.8,16.579l-1.6-.714-2.456-.924-1.6-.63-2.351-.987-1.637-.567-2.561-.8c-.567-.189-1.133-.336-1.7-.5s-1.637-.483-2.5-.714L589.6,10.3,587.2,9.757l-1.952-.378-2.246-.42q-1.07-.189-2.1-.315l-2.1-.315L576.456,8.1l-1.364-.147H563.526l-2.813.168c-.84,0-1.7.1-2.54.189s-1.6.168-2.393.273l-3.065.063-1.154.21A97.631,97.631,0,0,0,538.442,11.9l-.483.126c-1.3.42-2.6.882-3.883,1.343l-.882.294c-1.238.462-2.456.966-3.673,1.469l-.987.4c-1.2.525-2.372,1.071-3.547,1.637l-.966.462c-1.176.588-2.309,1.2-3.443,1.805l-.945.5c-1.134.651-2.267,1.3-3.38,1.994l-.861.525c-1.112.693-2.225,1.427-3.3,2.1l-.777.525c-1.113.777-2.1,1.574-3.254,2.372l-.672.525c-1.091.84-2.1,1.7-3.212,2.6l-.546.462c-1.071.924-2.1,1.868-3.17,2.834l-.4.378c-1.071,1.029-2.1,2.1-3.128,3.107l-.231.252c-1.071,1.113-2.1,2.246-3.128,3.422h0a96.873,96.873,0,0,0-23.93,64.274,39.148,39.148,0,0,1-23.09,35.685L441.4,143.3a38.12,38.12,0,0,1-41.247-6.15,97.146,97.146,0,0,0-129.724-1.343,41.835,41.835,0,0,1-44.606,6.675l-.714-.336a43.85,43.85,0,0,1-25.84-39.337c0-1.6-.126-3.233-.231-4.849a97.482,97.482,0,1,0-33.292,80.521,42.99,42.99,0,0,1,45.718-6.549,43.808,43.808,0,0,1,25.63,39.316,94.167,94.167,0,0,0,.756,10.223,97.377,97.377,0,0,0,193.957-12.427v-.252a39.148,39.148,0,0,1,23.09-35.685l5.185-2.309a38.12,38.12,0,0,1,41.226,6.15,97.5,97.5,0,0,0,24.664,16.415h.357c1.008.462,2.1.924,3.044,1.343l1.133.483,2.435.945,1.868.693,1.91.63,2.477.8,1.49.42c.987.294,1.973.546,2.96.8l1.2.294,3.274.714,1.071.189,3.4.588,1.113.147c1.091.147,2.1.294,3.275.4l1.448.147a4.714,4.714,0,0,1,1.322.126h1.385l2.477.126h6.99l3.044-.168a7.366,7.366,0,0,0,1.658-.126,26.949,26.949,0,0,0,3.443-.357l1.2-.126a95.175,95.175,0,0,0,13.917-2.918h.231q2.1-.588,4.2-1.322l.546-.189c1.28-.441,2.561-.924,3.841-1.427l.609-.231c1.238-.5,2.477-1.05,3.715-1.6l.546-.252c1.259-.588,2.519-1.175,3.757-1.826l.357-.189c1.344-.693,2.666-1.406,3.967-2.1h0a98.514,98.514,0,0,0,14.82-10.5A43.661,43.661,0,0,1,669.8,169.6a45.635,45.635,0,0,1,6.78,2.372,43.808,43.808,0,0,1,25.63,39.316,99.766,99.766,0,0,0,.756,10.223c.105.84.294,1.658.42,2.477s.294,1.889.483,2.834c.4,2.288.9,4.534,1.49,6.759a2.782,2.782,0,0,0,.168.693,97.881,97.881,0,0,0,56.382,64.568l.4.168c1.469.609,2.96,1.2,4.45,1.721s2.561.9,3.862,1.3,2.1.651,3.17.945q2.645.735,5.353,1.322l2.309.441c2.1.4,4.2.756,6.423,1.008h.483l1.511.126,1.826.189h.966c1.029,0,2.1.126,3.023.147s1.7,0,2.561,0h5.479a15.719,15.719,0,0,0,2.624-.147l2.792-.21,2.393-.294c.987-.1,1.973-.231,2.939-.378l2.1-.378c1.029-.189,2.1-.357,3.086-.588l1.847-.42c1.112-.252,2.2-.5,3.275-.8l1.553-.441c1.154-.336,2.33-.672,3.464-1.049l1.2-.42c1.239-.42,2.477-.861,3.715-1.343l.756-.315c1.343-.525,2.687-1.092,4.009-1.679l.21-.1a97.524,97.524,0,0,0,57.1-83.964c0-1.658.1-3.338.1-5.017C896.9,193.365,890.565,157.03,865.166,137.193Z" transform="translate(-7250.599 -6975.547)" fill="#6595bf"/>
    <circle id="Elipse_4269" data-name="Elipse 4269" cx="71.957" cy="71.957" r="71.957" transform="translate(-7226.235 -6804.65) rotate(-85.35)" fill="#fff"/>
    <line id="Línea_469" data-name="Línea 469" y2="45.805" transform="translate(-7148.682 -6764.438)" fill="none" stroke="#5e6178" stroke-linecap="round" stroke-miterlimit="10" stroke-width="10" stroke-dasharray="0 18.23"/>
    <line id="Línea_474" data-name="Línea 474" y2="45.805" transform="translate(-6683.571 -6764.438)" fill="none" stroke="#5e6178" stroke-linecap="round" stroke-miterlimit="10" stroke-width="10" stroke-dasharray="0 18.23"/>
    <line id="Línea_472" data-name="Línea 472" y2="45.805" transform="translate(-6451.571 -6909.439)" fill="none" stroke="#5e6178" stroke-linecap="round" stroke-miterlimit="10" stroke-width="10" stroke-dasharray="0 18.23"/>
    <line id="Línea_473" data-name="Línea 473" y2="45.805" transform="translate(-6915.514 -6909.439)" fill="none" stroke="#5e6178" stroke-linecap="round" stroke-miterlimit="10" stroke-width="10" stroke-dasharray="0 18.23"/>
    <path id="Trazado_113178" data-name="Trazado 113178" d="M0,45.8" transform="translate(-6916.126 -6908.438)" fill="none" stroke="#6595bf" stroke-linecap="round" stroke-width="10" stroke-dasharray="0 18.23"/>
    <circle id="Elipse_4270" data-name="Elipse 4270" cx="71.957" cy="71.957" r="71.957" transform="translate(-6988.083 -6838.458)" fill="#fff"/>
    <circle id="Elipse_4271" data-name="Elipse 4271" cx="71.957" cy="71.957" r="71.957" transform="translate(-6766.203 -6811.187) rotate(-80.68)" fill="#fff"/>
    <circle id="Elipse_4272" data-name="Elipse 4272" cx="71.957" cy="71.957" r="71.957" transform="translate(-6522.986 -6838.458)" fill="#fff"/>
    <text id="_1" data-name="1" transform="translate(-7146.862 -6935.133)" fill="#d9a171" font-size="38" font-family="Roboto-Black, Roboto" font-weight="800"><tspan x="-11.003" y="40">1</tspan></text>
    <text id="_3" data-name="3" transform="translate(-6691.362 -6935.133)" fill="#d9a171" font-size="38" font-family="Roboto-Black, Roboto" font-weight="800"><tspan x="0" y="40">3</tspan></text>
    <text id="_2" data-name="2" transform="translate(-6917.862 -6832.133)" fill="#d9a171" font-size="38" font-family="Roboto-Black, Roboto" font-weight="800"><tspan x="-11.003" y="40">2</tspan></text>
    <text id="_4" data-name="4" transform="translate(-6451.862 -6832.133)" fill="#d9a171" font-size="38" font-family="Roboto-Black, Roboto" font-weight="800"><tspan x="-11.003" y="40">4</tspan></text>
    <text id="Atender_al_cliente" data-name="Atender al cliente" transform="translate(-7146.362 -6876.133)" fill="#5e6178" font-size="18" font-family="Roboto-Black, Roboto" font-weight="800"><tspan x="-41.985" y="19">Atender al </tspan><tspan x="-27.589" y="39">cliente</tspan></text>
    <text id="ser_amable_y_cordial_con_el_cliente." data-name="ser amable y cordial con el cliente." transform="translate(-7147.862 -6713.133)" fill="#12263f" font-size="16" font-family="Roboto-Regular, Roboto"><tspan x="-45.199" y="17">ser amable y </tspan><tspan x="-47.508" y="37">cordial con el </tspan><tspan x="-25.68" y="57">cliente.</tspan></text>
    <text id="cumplir_con_los_requerimientos_y_expectativas_del_cliente." data-name="cumplir con los requerimientos y expectativas del cliente." transform="translate(-6685.862 -6716.133)" fill="#12263f" font-size="16" font-family="Roboto-Regular, Roboto"><tspan x="-54.441" y="17">cumplir con los </tspan><tspan x="-59.383" y="37">requerimientos y </tspan><tspan x="-57.602" y="57">expectativas del </tspan><tspan x="-25.68" y="77">cliente.</tspan></text>
    <text id="dar_respuesta_a_los_interrogantes_del_cliente." data-name="dar respuesta a los interrogantes del cliente." transform="translate(-6915.514 -7014.201)" fill="#12263f" font-size="16" font-family="Roboto-Regular, Roboto"><tspan x="-55.18" y="17">dar respuesta a </tspan><tspan x="-59.945" y="37">los interrogantes </tspan><tspan x="-38.352" y="57">del cliente.</tspan></text>
    <text id="asegurarse_que_el_producto_servicio_y_atención_recibida_cumplen_con_las_necesidades." data-name="asegurarse que el producto, servicio y atención recibida cumplen con las necesidades." transform="translate(-6451.571 -7022.68)" fill="#12263f" font-size="16" font-family="Roboto-Regular, Roboto"><tspan x="-62.922" y="17">asegurarse que el </tspan><tspan x="-63.086" y="35">producto, servicio </tspan><tspan x="-66.836" y="53">y atención recibida </tspan><tspan x="-58.234" y="71">cumplen con las </tspan><tspan x="-46.988" y="89">necesidades.</tspan></text>
    <text id="Satisfacer_o_exceder_la_necesidad_" data-name="Satisfacer o exceder la necesidad " transform="translate(-6683.542 -6882.633)" fill="#5e6178" font-size="18" font-family="Roboto-Black, Roboto" font-weight="800"><tspan x="-48.902" y="19">Satisfacer o </tspan><tspan x="-41.884" y="39">exceder la </tspan><tspan x="-41.537" y="59">necesidad </tspan></text>
    <text id="Aclarar_la_situación" data-name="Aclarar la situación" transform="translate(-6916.862 -6777.131)" fill="#5e6178" font-size="18" font-family="Roboto-Black, Roboto" font-weight="800"><tspan x="-39.015" y="19">Aclarar la </tspan><tspan x="-37.305" y="39">situación</tspan></text>
    <text id="Verificar_la_satisfacción_del_cliente" data-name="Verificar la satisfacción del cliente" transform="translate(-6451.571 -6782.133)" fill="#5e6178" font-size="18" font-family="Roboto-Black, Roboto" font-weight="800"><tspan x="-44.807" y="19">Verificar la </tspan><tspan x="-49.553" y="39">satisfacción </tspan><tspan x="-42.267" y="59">del cliente</tspan></text>
  </g>
</svg>
