<svg xmlns="http://www.w3.org/2000/svg" width="455.966" height="296.969" viewBox="0 0 455.966 296.969">
  <g id="Drone_surveillance-amico" data-name="Drone surveillance-amico" transform="translate(-10.507 -72.361)">
    <g id="freepik--Shadows--inject-35" transform="translate(10.507 194.967)">
      <ellipse id="freepik--Shadow--inject-35" cx="50.574" cy="29.197" rx="50.574" ry="29.197" transform="translate(0 90.479)" fill="#e0e0e0"/>
      <path id="freepik--shadow--inject-35-2" data-name="freepik--shadow--inject-35" d="M118.569,316.324,315.452,420.059a10.419,10.419,0,0,0,8.691,0L445.894,355.9c2.406-1.266,2.406-3.317,0-4.575L249,247.594a10.4,10.4,0,0,0-8.683,0l-121.75,64.147C116.164,313.007,116.164,315.034,118.569,316.324Z" transform="translate(8.268 -246.645)" fill="#e0e0e0"/>
    </g>
    <g id="freepik--Device--inject-35" transform="translate(172.513 187.511)">
      <g id="freepik--Mobile--inject-35">
        <g id="freepik--mobile--inject-35-2" data-name="freepik--mobile--inject-35">
          <path id="Trazado_110999" data-name="Trazado 110999" d="M407.5,350.434,306.754,408.595a10.008,10.008,0,0,1-9.687.184l-164.9-95.2c-2.949-1.7-5.336-3.2-5.336-8.493s2.4-6.794,5.328-8.493l100.4-57.977a11.794,11.794,0,0,1,10.664,0l164.252,94.834c2.94,1.7,5.328,3.357,5.328,8.493S410.441,348.735,407.5,350.434Z" transform="translate(-126.83 -237.34)" fill="#37474f"/>
          <path id="Trazado_111000" data-name="Trazado 111000" d="M232.56,238.615l-100.4,57.977c-2.941,1.7-5.328,3.2-5.328,8.493s2.4,6.794,5.336,8.493l164.9,95.2a10.416,10.416,0,0,0,4.631,1.162V272.371l-58.49-33.756A11.794,11.794,0,0,0,232.56,238.615Z" transform="translate(-126.83 -237.341)" fill="#263238"/>
          <path id="Trazado_111001" data-name="Trazado 111001" d="M305.115,399.044a10.416,10.416,0,0,1-9.406,0l-162.994-94.1c-4.006-2.3-4.006-6.057,0-8.349l100.41-57.985a11.794,11.794,0,0,1,10.664,0l164.252,94.834c2.932,1.691,2.932,4.463,0,6.153Z" transform="translate(-127.402 -237.34)" fill="#455a64"/>
          <path id="Trazado_111002" data-name="Trazado 111002" d="M300.281,391.66a11.41,11.41,0,0,1-10.312,0l-139.6-80.588c-2.844-1.643-2.844-4.3,0-5.953l96.6-55.774a11.458,11.458,0,0,1,10.312,0l139.59,80.588c2.836,1.6,2.836,4.319,0,5.953Z" transform="translate(-131.085 -239.483)" fill="#37474f"/>
          <path id="Trazado_111003" data-name="Trazado 111003" d="M251.812,248.14v3.894a10.352,10.352,0,0,0-4.807,1.21l-96.548,55.75a5.375,5.375,0,0,0-1.346,1.082c-1.458-1.6-1.026-3.606,1.29-4.952L247,249.35a10.473,10.473,0,0,1,4.815-1.21Z" transform="translate(-131.091 -239.486)" fill="#263238"/>
          <path id="Trazado_111004" data-name="Trazado 111004" d="M257.558,254.184a11.41,11.41,0,0,0-10.312,0l-96.58,55.774a5.088,5.088,0,0,0-1.346,1.074,5.1,5.1,0,0,0,1.282,1l139.574,80.588a11.41,11.41,0,0,0,10.312,0l96.6-55.774a5.3,5.3,0,0,0,1.338-1.066,5.083,5.083,0,0,0-1.274-1.018Z" transform="translate(-131.3 -240.443)" fill="#fafafa"/>
          <path id="Trazado_111005" data-name="Trazado 111005" d="M190.329,285.458l23.732-13.709c.937-.545.986-1.394.1-1.9a3.629,3.629,0,0,0-3.285.064l-23.732,13.709c-.937.537-.977,1.386-.1,1.891A3.629,3.629,0,0,0,190.329,285.458Z" transform="translate(-138.674 -243.73)" fill="#37474f"/>
          <path id="Trazado_111006" data-name="Trazado 111006" d="M234.039,263.678a.97.97,0,0,0,0-1.843,3.533,3.533,0,0,0-3.2,0,.97.97,0,0,0,0,1.843A3.534,3.534,0,0,0,234.039,263.678Z" transform="translate(-147.37 -242.132)" fill="#37474f"/>
          <path id="Trazado_111007" data-name="Trazado 111007" d="M241.949,259.087a.969.969,0,0,0,0-1.843,3.534,3.534,0,0,0-3.2,0,.969.969,0,0,0,0,1.843A3.533,3.533,0,0,0,241.949,259.087Z" transform="translate(-148.942 -241.22)" fill="#37474f"/>
          <path id="Trazado_111008" data-name="Trazado 111008" d="M168.393,301.568a.97.97,0,0,0,0-1.843,3.534,3.534,0,0,0-3.2,0,.978.978,0,0,0,0,1.843A3.534,3.534,0,0,0,168.393,301.568Z" transform="translate(-134.325 -249.664)" fill="#37474f"/>
          <path id="Trazado_111009" data-name="Trazado 111009" d="M176.332,296.969a.969.969,0,0,0,0-1.835,3.533,3.533,0,0,0-3.2,0,.969.969,0,0,0,0,1.835A3.477,3.477,0,0,0,176.332,296.969Z" transform="translate(-135.902 -248.751)" fill="#37474f"/>
          <path id="Trazado_111010" data-name="Trazado 111010" d="M200.588,363.947a3.566,3.566,0,0,1,1.667,2.764,1.034,1.034,0,0,1-.457.97c-.2.112-.961.569-1.17.681a1.226,1.226,0,0,1-1.2-.136L177.745,355.71a3.59,3.59,0,0,1-1.667-2.764,1.058,1.058,0,0,1,.425-.953c.208-.128.994-.585,1.2-.7a1.242,1.242,0,0,1,1.21.136Z" transform="translate(-136.618 -259.971)" fill="#455a64"/>
          <path id="Trazado_111011" data-name="Trazado 111011" d="M199.428,364.835l-21.681-12.515c-.913-.537-1.667-.16-1.667.841a3.589,3.589,0,0,0,1.667,2.764l21.681,12.515c.921.529,1.667.152,1.667-.841A3.565,3.565,0,0,0,199.428,364.835Z" transform="translate(-136.619 -260.146)" fill="#37474f"/>
          <path id="Trazado_111012" data-name="Trazado 111012" d="M167.213,344.677a3.565,3.565,0,0,1,1.667,2.764,1.018,1.018,0,0,1-.457.969c-.2.112-.953.569-1.17.681a1.226,1.226,0,0,1-1.2-.136l-10.216-5.9a3.581,3.581,0,0,1-1.667-2.772,1.05,1.05,0,0,1,.425-.945c.2-.128.994-.585,1.2-.705a1.226,1.226,0,0,1,1.2.136Z" transform="translate(-132.263 -257.455)" fill="#455a64"/>
          <path id="Trazado_111013" data-name="Trazado 111013" d="M166.052,345.476l-10.216-5.905c-.921-.529-1.667-.152-1.667.841a3.582,3.582,0,0,0,1.667,2.772l10.216,5.929c.921.537,1.667.152,1.667-.841a3.565,3.565,0,0,0-1.667-2.8Z" transform="translate(-132.264 -257.613)" fill="#37474f"/>
        </g>
        <g id="freepik--Window--inject-35" transform="translate(33.035 18.576)">
          <path id="Trazado_111014" data-name="Trazado 111014" d="M183.113,315.233a.33.33,0,0,1-.136-.04l-.449-.264-1.09.633a.168.168,0,0,1-.184,0l-.168-.1-.072-.048a.161.161,0,0,1,0-.064l-.465-1.6a.2.2,0,0,1,0-.064.112.112,0,0,1,.064-.048l.152-.088a.208.208,0,0,1,.136-.04.256.256,0,0,1,.136.048l1.6.913.24-.144a.224.224,0,0,1,.136,0,.281.281,0,0,1,.136.048l.1.056c.048,0,.072.056.072.08s0,.048-.064.072l-.24.136.457.264c.048,0,.072.056.072.08s0,.048-.064.072l-.184.1A.216.216,0,0,1,183.113,315.233Zm-.9-.569-1.13-.649.337,1.106Z" transform="translate(-170.542 -271.056)" fill="#37474f"/>
          <path id="Trazado_111015" data-name="Trazado 111015" d="M184.482,313.964a2.958,2.958,0,0,1-1.362-.417c-.449-.256-.689-.521-.721-.8s.144-.513.537-.737a2.443,2.443,0,0,1,.489-.216,1.9,1.9,0,0,1,.5-.1.121.121,0,0,1,.08,0h0l.1.168v.048h-.064a1.745,1.745,0,0,0-.705.232q-.4.224-.361.5c0,.184.2.377.553.577a2.221,2.221,0,0,0,.994.321,1.531,1.531,0,0,0,.849-.192,1.858,1.858,0,0,0,.24-.176.464.464,0,0,0,.136-.16l-.729-.425-.457.264a.273.273,0,0,1-.128,0,.257.257,0,0,1-.136-.048l-.1-.056a.093.093,0,0,1-.08-.08c0-.024,0-.048.072-.072l.721-.417a.272.272,0,0,1,.152-.04.48.48,0,0,1,.16.056l1.05.609a.136.136,0,0,1,.072.056.048.048,0,0,1,0,.056c-.056.208-.272.417-.633.625a2.324,2.324,0,0,1-1.226.425Z" transform="translate(-170.909 -270.692)" fill="#37474f"/>
          <path id="Trazado_111016" data-name="Trazado 111016" d="M195.883,307.763a.385.385,0,0,1,0,.729,1.394,1.394,0,0,1-1.258,0,.385.385,0,0,1,0-.729A1.394,1.394,0,0,1,195.883,307.763Z" transform="translate(-173.288 -269.884)" fill="#37474f"/>
          <path id="Trazado_111017" data-name="Trazado 111017" d="M193.232,306.95a1.043,1.043,0,0,0-.593,1.362.409.409,0,0,0,.385.136h0c.208,0,.353-.136.288-.256-.176-.321,0-.7.417-.953a2.6,2.6,0,0,1,1.651-.24c.208.04.425-.04.449-.168h0c0-.1-.088-.192-.248-.216a3.622,3.622,0,0,0-2.348.336Z" transform="translate(-172.928 -269.672)" fill="#37474f"/>
          <path id="Trazado_111018" data-name="Trazado 111018" d="M191.856,306.161c-.945.553-1.282,1.314-1.018,2.019a.4.4,0,0,0,.393.168h0c.208,0,.344-.128.3-.248-.224-.577.056-1.2.8-1.651a4.743,4.743,0,0,1,2.86-.481c.2,0,.4-.048.425-.168h0c0-.1-.1-.2-.28-.224A5.881,5.881,0,0,0,191.856,306.161Z" transform="translate(-172.57 -269.468)" fill="#37474f"/>
          <path id="Trazado_111019" data-name="Trazado 111019" d="M216.864,293.81a.2.2,0,0,1-.1,0v-.072l.192-.937v-.064a.1.1,0,0,1,.048-.056l.329-.192a.255.255,0,0,1,.112,0,.233.233,0,0,1,.112,0l2.7,1.562a.064.064,0,1,1,0,.128l-.337.192a.169.169,0,0,1-.112,0,.185.185,0,0,1-.112,0l-2.067-1.186-.128.609a.1.1,0,0,1-.056.056.265.265,0,0,1-.12,0Z" transform="translate(-177.74 -266.876)" fill="#37474f"/>
          <path id="Trazado_111020" data-name="Trazado 111020" d="M219.5,292.282a.2.2,0,0,1-.1-.04.056.056,0,0,1,0-.064l.192-.937v-.072a.12.12,0,0,1,.056-.056l.32-.184a.184.184,0,0,1,.112,0,.16.16,0,0,1,.112,0l2.7,1.554s.048.04.048.064,0,.048-.048.072l-.336.192a.232.232,0,0,1-.112,0,.256.256,0,0,1-.112,0l-2.067-1.194-.128.609a.088.088,0,0,1-.056.064.193.193,0,0,1-.12,0Z" transform="translate(-178.262 -266.565)" fill="#37474f"/>
          <path id="Trazado_111021" data-name="Trazado 111021" d="M222.743,290.528a.257.257,0,0,1,.112,0,.233.233,0,0,1,.112,0l.409.24a.064.064,0,1,1,0,.128l-.385.224a.258.258,0,0,1-.112,0,.232.232,0,0,1-.112,0l-.409-.232s-.048-.04-.048-.072a.072.072,0,0,1,.048-.064Zm1.466.849a.169.169,0,0,1,.112,0,.185.185,0,0,1,.112,0l.409.232a.072.072,0,0,1,.048.064.07.07,0,0,1-.048.064l-.385.224a.192.192,0,0,1-.12,0,.184.184,0,0,1-.112,0l-.409-.232a.064.064,0,0,1,0-.128Z" transform="translate(-178.843 -266.486)" fill="#37474f"/>
          <path id="Trazado_111022" data-name="Trazado 111022" d="M227.529,289.967a.257.257,0,0,1-.112,0,.208.208,0,0,1-.112,0l-.513-.3-1.29.745a.185.185,0,0,1-.112,0,.264.264,0,0,1-.12,0l-.3-.176s-.064-.048-.072-.072a.382.382,0,0,1,0-.1l-.312-1.659a.136.136,0,0,1,.064-.16l.32-.184a.233.233,0,0,1,.112,0,.257.257,0,0,1,.112,0l1.675.969.353-.208a.265.265,0,0,1,.12,0,.257.257,0,0,1,.112,0l.3.168s.048.04.04.064,0,.048-.04.072l-.361.2.5.3a.064.064,0,1,1,0,.128Zm-1.258-.6-.9-.513.184.929Z" transform="translate(-179.295 -265.997)" fill="#37474f"/>
          <path id="Trazado_111023" data-name="Trazado 111023" d="M226.83,286.94a.064.064,0,0,1-.04-.064.09.09,0,0,1,.04-.072l1.6-.905a.258.258,0,0,1,.112,0,.266.266,0,0,1,.12,0l.3.176a.072.072,0,0,1,0,.128l-1.178.681.489.329a1.071,1.071,0,0,1,.168-.16l.176-.1a1.835,1.835,0,0,1,.5-.216,2.043,2.043,0,0,1,.537-.1,1.97,1.97,0,0,1,.529.048,1.546,1.546,0,0,1,.5.184,1.106,1.106,0,0,1,.377.32.417.417,0,0,1,.072.313.553.553,0,0,1-.168.3,1.773,1.773,0,0,1-.369.28,2.292,2.292,0,0,1-1.09.337,1.771,1.771,0,0,1-.465,0,1.361,1.361,0,0,1-.385-.136.058.058,0,0,1-.056-.064.1.1,0,0,1,.056-.064l.337-.192a.2.2,0,0,1,.1,0,.272.272,0,0,1,.12,0l.24.048h.224l.2-.064.2-.1a.441.441,0,0,0,.256-.3.351.351,0,0,0-.208-.288.849.849,0,0,0-.465-.1,1.177,1.177,0,0,0-.513.144,1.009,1.009,0,0,0-.176.128.281.281,0,0,0-.08.1.329.329,0,0,1-.04.072s0,.04-.072.064l-.385.224a.257.257,0,0,1-.112,0,.208.208,0,0,1-.112,0Z" transform="translate(-179.734 -265.566)" fill="#37474f"/>
          <path id="Trazado_111024" data-name="Trazado 111024" d="M168.933,324.278l-.873-.5,1.162-.673.873.5Z" transform="translate(-168.06 -272.962)" fill="#37474f"/>
          <path id="Trazado_111025" data-name="Trazado 111025" d="M170.9,322.895l-1.747-1,1.162-.673,1.747,1.01Z" transform="translate(-168.277 -272.588)" fill="#37474f"/>
          <path id="Trazado_111026" data-name="Trazado 111026" d="M172.852,321.519l-2.612-1.514,1.162-.665,2.612,1.506Z" transform="translate(-168.493 -272.214)" fill="#37474f"/>
          <path id="Trazado_111027" data-name="Trazado 111027" d="M174.815,320.134l-3.485-2.011,1.162-.673,3.485,2.011Z" transform="translate(-168.71 -271.839)" fill="#37474f"/>
          <path id="Trazado_111028" data-name="Trazado 111028" d="M271.759,260.537a1.153,1.153,0,0,0-.681.1l-4.351,2.5c-.28.16-.208.457.168.673l1.6.913a1.884,1.884,0,0,0,.8.224h.345a.8.8,0,0,0,.344-.1l4.343-2.5c.28-.16.208-.457-.168-.673l-1.6-.913A1.771,1.771,0,0,0,271.759,260.537Zm-2.556,4.254a.871.871,0,0,1-.328-.1l-1.6-.921c-.28-.16-.337-.393-.128-.513l4.343-2.5a.458.458,0,0,1,.176-.056h.112a.875.875,0,0,1,.328.1l1.6.913c.272.16.329.4.128.521l-4.351,2.5A.5.5,0,0,1,269.2,264.791Z" transform="translate(-187.638 -260.524)" fill="#37474f"/>
          <path id="Trazado_111029" data-name="Trazado 111029" d="M268.537,263.54l1.875,1.082-.681.393a.345.345,0,0,1-.232,0l-1.394-.8c-.2-.12-.248-.3-.1-.385Z" transform="translate(-187.909 -261.123)" fill="#37474f"/>
          <path id="Trazado_111030" data-name="Trazado 111030" d="M269.09,263.193l.817-.473,1.867,1.082-.817.473Z" transform="translate(-188.142 -260.96)" fill="#37474f"/>
          <path id="Trazado_111031" data-name="Trazado 111031" d="M270.51,262.383l.809-.473,1.883,1.082-.817.473Z" transform="translate(-188.424 -260.799)" fill="#37474f"/>
          <path id="Trazado_111032" data-name="Trazado 111032" d="M272.857,261.188l1.354.8c.248.144.192.353-.144.545l-.272.16-1.875-1.082.649-.377A.409.409,0,0,1,272.857,261.188Z" transform="translate(-188.704 -260.654)" fill="#37474f"/>
          <path id="Trazado_111033" data-name="Trazado 111033" d="M274.176,260.7a1.021,1.021,0,0,1,.8.208l.288.168c.329.192.5.4.385.481l-.208.136L274,260.823Z" transform="translate(-189.118 -260.554)" fill="#37474f"/>
          <path id="Trazado_111034" data-name="Trazado 111034" d="M259.24,268.933,262.605,266l1.779,2.532-2.332-.633Z" transform="translate(-186.184 -261.612)" fill="#37474f"/>
        </g>
      </g>
      <g id="freepik--Map--inject-35" transform="translate(37.225 21.489)">
        <path id="Trazado_111035" data-name="Trazado 111035" d="M272.9,307.955a12.562,12.562,0,0,1,3.918-1.394l-5.777-2.4h0l-1.034-5.889-17.259,3.477-7.756,4.479,10.5,6.915h0l9.943,4.11,5.232-3.013C269.205,312.106,270.007,309.646,272.9,307.955Zm-20.247,6.826-10.48-6.923-25.4,14.662,10.5,6.915h0l9.935,4.118L262.6,318.892l-9.943-4.11Zm33.307.737a9.953,9.953,0,0,1-1.17.585l9.134,2.965h0l3.87,4.238,35.046-20.231-17-9.823-27.7,16.025C289.589,311.344,288.883,313.836,285.959,315.519Zm-12.307-17.98.929,5.272,6.137,2.348,3.605,1.194,27.1-15.648-8.565-4.928L287.273,294.8Zm1.522,16.634a9.374,9.374,0,0,0,8.5,0c2.34-1.354,2.324-3.549,0-4.911a9.382,9.382,0,0,0-8.493,0C272.811,310.615,272.827,312.811,275.174,314.173Zm35.847,4.751-11.3,6.514,13.02,15.167,24.446-14.078Zm8.165,38.459a14.142,14.142,0,0,1,3.2-1.322l-3.525-2.139-7.419-8.677-12.163,7.027,7.7,8.517,9.046,4.655,1.082-.617c-2.131-2.4-1.482-5.368,2.075-7.419Zm-4.936-13.749,7.411,8.685,4.863,3.045a21.939,21.939,0,0,1,6.2.449l20.031-11.554-9.094-4.639,2.828-1.6,9.086,4.639,22.915-13.228-12.155-7.019-33.387,10.464Zm-29.966-51.872,14.51-8.373-33.243-19.23L246.13,275.377l6.939,21.994Zm55.725,33.075,15.288-8.814-19.638-11.337-21.818,12.6Zm23.484-4.094-4.807-2.764-16.914,9.759Zm-61.559,52.881,11.289-6.514-9.054-4.663-7.724-8.525-11.217,6.522,7.62,8.549h0Zm-11.77,11.313,5.713,3.3,6.233-10.192Zm6.738-57.857L261.65,347.448,259.8,367.391l3.269,1.891,46.88-27.066Zm24.381,39.893-14.134,8.165-8.814,14.5,3.253,1.883,36.488-21.072-7.211-3.285A21.986,21.986,0,0,1,321.285,366.974ZM290.037,370.6h0l-7.7-8.517-15.9,9.182,19.782,11.417,12.86-7.419Zm-39.813-71.534-6.939-21.994L220.7,290.1l21.056,13.845Zm86.869,58.77c2.452,2.452,1.883,5.609-1.811,7.7-.152.1-.312.176-.473.264l6.41,2.836,19.422-11.217-11.273-6.674Zm45.285-26.144-30.094,17.379,11.169,6.73,30.335-17.515Zm-157.938-.625h0l-10.52-6.939-14.5,8.413,19.774,11.418,15.223-8.773Zm-34.789-23.027-16.361,9.439,22.523,13,14.9-8.605Zm101.708,12.507h0l-9.871-3.533a17.235,17.235,0,0,1-6.41-.232l-32.53,18.781,13.276,5.5h0l3.846,4.263,35.4-20.439Zm-52.424-14.959-21.008-13.877-25.447,14.687,21.056,13.845ZM252.988,342.7l-13.268-5.5-16.137,9.318,31.04,17.923,2.219-17.483L253,342.7Zm70.092,21.233a9.358,9.358,0,0,0,8.493,0c2.34-1.346,2.324-3.549,0-4.912a9.358,9.358,0,0,0-8.493,0c-2.34,1.338-2.332,3.565.024,4.9Z" transform="translate(-173.29 -264.16)" fill="#f0f0f0"/>
        <path id="Trazado_111036" data-name="Trazado 111036" d="M277.615,300.134l.288,1.6,4.807,1.843,2.532.841L307.8,291.392l-3.742-2.139L289.3,297.778Zm7.019-9.935,10.544-6.081L266.75,267.7,250.2,277.251l5.721,18.132ZM270.4,308.563l-1.162-6.746-14.422,2.916-4.006,2.332,7.027,4.623,8.677,3.59,2.4-1.386a5.961,5.961,0,0,1,0-2.4,6.658,6.658,0,0,1,1.482-2.925Zm-21.858-9.927-5.456-17.3-16.61,9.615,16.553,10.889Zm55.71,54.956,5.464,6.049,4.96,2.54a1.39,1.39,0,0,1,.064-.513,7.757,7.757,0,0,1,3.694-5.192l-2.075-2.492-4.247-4.928ZM292.3,313.434a6.491,6.491,0,0,1-1.194,2.516l5.336,1.723,3,3.293,29.774-17.186-12.211-7.051-24.686,14.254a5.753,5.753,0,0,1,0,2.452Zm32.241,37.834,3.814,2.4h.881a24.253,24.253,0,0,1,4.271.369l15.416-8.926-9.094-4.639,7.788-4.495,9.086,4.639,18.18-10.5-7.636-4.407-32.121,10.072-15.953,9.206Zm-19.911-24.494,9.839,11.458,17.827-10.3-19.766-5.721Zm-69.05-20.64-16.529-10.9-20.76,11.97,16.561,10.889Zm55.6,17.162-8.733-3.125a18.523,18.523,0,0,1-2.316.144,20.114,20.114,0,0,1-3.421-.3l-27.522,15.888,9.294,3.854,2.892,3.2,31.208-18.028Zm50.542,36.055a6.146,6.146,0,0,1,.433,3.165,6.8,6.8,0,0,1-1.53,3.4l1.667.737,14.8-8.549-6.514-3.854Zm-14.062,11.37a24.159,24.159,0,0,1-4.807-.473l-12.78,7.379-7.139,11.746,31.08-17.948-2.292-1.042a24.172,24.172,0,0,1-4.062.321Zm-44.581-4.88-10.608,6.129,14.975,8.645,7.8-4.511-5.424-2.764Zm-92.286-54.291-11.474,6.618,17.715,10.224,10.312-5.969ZM383.6,335.164,358.235,349.8,364.7,353.7l25.5-14.719Zm-159.124-1.29-9.414-6.194-9.615,5.561,14.967,8.645,9.783-5.649Zm16.642,6.69-11.506,6.642,24.3,14.038,1.6-12.82-2.732-3.021Zm56.463-9.711-32.49,18.757-1.562,17.178.737.425,43.162-24.918Z" transform="translate(-174.489 -264.864)" fill="#e0e0e0"/>
        <path id="Trazado_111037" data-name="Trazado 111037" d="M307.921,367.724l-7.035,4.062,5.464,6.049,7.435,3.8,6.33-3.654-5.144-2.628Zm-53.915-46.287-20.736,11.97,7.019,4.615,8.677,3.6,20.143-11.626-5.7-2.332Zm39.6-.264a5.008,5.008,0,0,0-4.551,0c-1.258.721-1.25,1.907,0,2.636a5.024,5.024,0,0,0,4.559,0C294.877,323.079,294.869,321.9,293.6,321.173Zm47.93,49.756a5.048,5.048,0,0,0-4.559,0,1.4,1.4,0,0,0,0,2.636,5.032,5.032,0,0,0,4.551,0C342.822,372.82,342.822,371.642,341.532,370.929Zm6.049-52.689-15.728,9.078,19.782,5.7,10.793-6.234Z" transform="translate(-185.212 -274.909)" fill="#d9a171"/>
        <path id="Trazado_111038" data-name="Trazado 111038" d="M307.921,367.724l-7.035,4.062,5.464,6.049,7.435,3.8,6.33-3.654-5.144-2.628Zm-53.915-46.287-20.736,11.97,7.019,4.615,8.677,3.6,20.143-11.626-5.7-2.332Zm39.6-.264a5.008,5.008,0,0,0-4.551,0c-1.258.721-1.25,1.907,0,2.636a5.024,5.024,0,0,0,4.559,0C294.877,323.079,294.869,321.9,293.6,321.173Zm47.93,49.756a5.048,5.048,0,0,0-4.559,0,1.4,1.4,0,0,0,0,2.636,5.032,5.032,0,0,0,4.551,0C342.822,372.82,342.822,371.642,341.532,370.929Zm6.049-52.689-15.728,9.078,19.782,5.7,10.793-6.234Z" transform="translate(-185.212 -274.909)" fill="#fff" opacity="0.6"/>
      </g>
    </g>
    <g id="freepik--Shield--inject-35" transform="translate(357.421 201.488)">
      <g id="freepik--speech-bubble--inject-35">
        <g id="freepik--speech-bubble--inject-35-2" data-name="freepik--speech-bubble--inject-35">
          <path id="Trazado_111039" data-name="Trazado 111039" d="M397.268,371.4l-5.456-3.149a1.6,1.6,0,0,1-.593-.6l-1.7-2.941,2.748-1.6,4.455,7.716A1.691,1.691,0,0,0,397.268,371.4Z" transform="translate(-363.953 -276.316)" fill="#d9a171"/>
          <g id="Grupo_59740" data-name="Grupo 59740" transform="translate(25.567 86.794)" opacity="0.2">
            <path id="Trazado_111040" data-name="Trazado 111040" d="M397.268,371.4l-5.456-3.149a1.6,1.6,0,0,1-.593-.6l-1.7-2.941,2.748-1.6,4.455,7.716A1.691,1.691,0,0,0,397.268,371.4Z" transform="translate(-389.52 -363.11)"/>
          </g>
          <path id="Trazado_111041" data-name="Trazado 111041" d="M419.566,259.668c-.1-.649-.633-.881-1.282-.513L366.2,289.242a2.6,2.6,0,0,0-.913.969l-7.211-4.11a2.54,2.54,0,0,1,.9-.921l52.08-30.086a2.876,2.876,0,0,1,2.6,0l4.623,2.6a2.836,2.836,0,0,1,1.29,1.979Z" transform="translate(-357.703 -254.784)" fill="#d9a171"/>
          <path id="Trazado_111042" data-name="Trazado 111042" d="M419.566,259.668c-.1-.649-.633-.881-1.282-.513L366.2,289.242a2.6,2.6,0,0,0-.913.969l-7.211-4.11a2.54,2.54,0,0,1,.9-.921l52.08-30.086a2.876,2.876,0,0,1,2.6,0l4.623,2.6a2.836,2.836,0,0,1,1.29,1.979Z" transform="translate(-357.703 -254.784)" fill="#fff" opacity="0.45"/>
          <path id="Trazado_111043" data-name="Trazado 111043" d="M366.135,360.793a2.981,2.981,0,0,1-2.6,0l-4.631-2.668a2.828,2.828,0,0,1-1.3-2.227V295.164a2.676,2.676,0,0,1,.409-1.314l7.211,4.11a2.555,2.555,0,0,0-.385,1.274v60.789C364.837,360.8,365.374,361.274,366.135,360.793Z" transform="translate(-357.61 -262.549)" fill="#d9a171"/>
          <path id="Trazado_111044" data-name="Trazado 111044" d="M366.135,360.793a2.981,2.981,0,0,1-2.6,0l-4.631-2.668a2.828,2.828,0,0,1-1.3-2.227V295.164a2.676,2.676,0,0,1,.409-1.314l7.211,4.11a2.555,2.555,0,0,0-.385,1.274v60.789C364.837,360.8,365.374,361.274,366.135,360.793Z" transform="translate(-357.61 -262.549)" opacity="0.2"/>
          <path id="Trazado_111045" data-name="Trazado 111045" d="M419.988,260.2l-52.08,30.086a2.876,2.876,0,0,0-1.3,2.243v60.8c0,.8.585,1.154,1.3.745l19.846-11.442,4.455,7.708a1.6,1.6,0,0,0,2.957-.28l5.064-14.63,19.8-11.442a2.868,2.868,0,0,0,1.29-2.243v-60.8C421.278,260.116,420.7,259.788,419.988,260.2Z" transform="translate(-359.399 -255.825)" fill="#fafafa"/>
          <path id="Trazado_111046" data-name="Trazado 111046" d="M420.467,260.845a.36.36,0,0,1,0,.1v60.8a2.059,2.059,0,0,1-.889,1.546l-19.806,11.442-.256.152-.1.28-5.072,14.63a.844.844,0,0,1-1.522.144l-4.447-7.708-.4-.689-.7.4-19.79,11.434-.088.048V292.526a2.067,2.067,0,0,1,.9-1.546l52.08-30.086.08-.048m.1-.8a1.137,1.137,0,0,0-.577.176L367.9,290.307a2.876,2.876,0,0,0-1.3,2.243v60.8c0,.585.3.921.721.921a1.185,1.185,0,0,0,.577-.176l19.854-11.466,4.455,7.708a1.6,1.6,0,0,0,2.956-.28l5.064-14.63,19.8-11.442a2.868,2.868,0,0,0,1.29-2.243v-60.8c0-.585-.288-.921-.713-.921Z" transform="translate(-359.397 -255.825)" fill="#d9a171"/>
        </g>
        <g id="freepik--shield--inject-35-2" data-name="freepik--shield--inject-35" transform="translate(18.493 27.643)">
          <path id="Trazado_111047" data-name="Trazado 111047" d="M412.844,292.154c0-.361-.056-.593-.216-.689h0c-.176-.088-1.3-.8-1.458-.905h0c-.168-.088-.425,0-.745.2a10.736,10.736,0,0,1-10.568,1.154,7.437,7.437,0,0,1-1.186-1.17.216.216,0,0,0-.1-.056h0a1.329,1.329,0,0,0-.3-.272l-1.474-.921h-.056c-.337-.176-.657,0-.881.489-3.165,7.147-9.615,14.286-13.845,16.025a2.323,2.323,0,0,0-.8.577,1.739,1.739,0,0,0-.5,1.17c-.32,9.326,4.279,24.4,13.781,29.7a17,17,0,0,0,1.747,1.074C409.983,325.14,412.467,303.2,412.844,292.154Z" transform="translate(-380.69 -289.312)" fill="#5e6178"/>
          <path id="Trazado_111049" data-name="Trazado 111049" d="M398.271,290.314c-.344-.176-.665,0-.889.489-3.165,7.155-9.615,14.286-13.845,15.977a2.316,2.316,0,0,0-.8.585,1.964,1.964,0,0,0-.321.457l-1.474-.921a1.92,1.92,0,0,1,.313-.457,2.322,2.322,0,0,1,.8-.577c4.206-1.7,10.68-8.814,13.845-16.025.224-.5.545-.665.881-.489h.056l.649.409Z" transform="translate(-380.74 -289.284)" fill="#5e6178"/>
          <path id="Trazado_111052" data-name="Trazado 111052" d="M413.2,292.364c-.377,11.049-2.86,32.987-16.642,46.263-9.687-5.168-14.374-20.439-14.054-29.854a1.747,1.747,0,0,1,.5-1.17,2.3,2.3,0,0,1,.8-.577c4.214-1.7,10.68-8.814,13.845-15.985.224-.5.545-.657.889-.489h.048a1.327,1.327,0,0,1,.3.272h0a.217.217,0,0,1,.056.064c2.973,3.71,9.062,3.91,13.236.937.313-.224.569-.288.745-.2h0A.747.747,0,0,1,413.2,292.364Z" transform="translate(-381.048 -289.523)" fill="#6595bf"/>
          <path id="Trazado_111054" data-name="Trazado 111054" d="M398.587,290.554c-.345-.168-.665,0-.889.489-3.165,7.155-9.615,14.286-13.845,15.985a2.3,2.3,0,0,0-.8.577,1.747,1.747,0,0,0-.5,1.17c-.32,9.414,4.367,24.686,14.054,29.854a102.63,102.63,0,0,0,1.987-48.074Z" transform="translate(-381.056 -289.524)" fill="#aed3f2"/>
          <path id="Trazado_111055" data-name="Trazado 111055" d="M408.63,296.7c3.293.961,6.282-.393,8.012-1.2,0,0-.272,19.51-7.419,31.889,2.989-9.759,2.78-11.786,3.2-19.077S411.082,298.569,408.63,296.7Z" transform="translate(-386.244 -290.519)" fill="#fff" opacity="0.4"/>
        </g>
      </g>
    </g>
    <g id="freepik--face-recognition--inject-35" transform="translate(273.551 141.914)">
      <g id="freepik--speech-bubble--inject-35-3" data-name="freepik--speech-bubble--inject-35">
        <g id="freepik--speech-bubble--inject-35-4" data-name="freepik--speech-bubble--inject-35">
          <path id="Trazado_111056" data-name="Trazado 111056" d="M326.358,297.043l-5.456-3.149a1.6,1.6,0,0,1-.593-.6l-1.7-2.94,2.748-1.6,4.455,7.716A1.69,1.69,0,0,0,326.358,297.043Z" transform="translate(-293.043 -201.961)" fill="#d9a171"/>
          <g id="Grupo_59741" data-name="Grupo 59741" transform="translate(25.567 86.789)" opacity="0.2">
            <path id="Trazado_111057" data-name="Trazado 111057" d="M326.358,297.043l-5.456-3.149a1.6,1.6,0,0,1-.593-.6l-1.7-2.94,2.748-1.6,4.455,7.716A1.69,1.69,0,0,0,326.358,297.043Z" transform="translate(-318.61 -288.75)"/>
          </g>
          <path id="Trazado_111058" data-name="Trazado 111058" d="M348.656,185.31c-.1-.649-.633-.881-1.282-.513l-52.08,30.086a2.733,2.733,0,0,0-.913.97l-7.211-4.11a2.652,2.652,0,0,1,.889-.921l52.08-30.086a2.925,2.925,0,0,1,2.6,0l4.631,2.556a2.877,2.877,0,0,1,1.29,2.019Z" transform="translate(-286.793 -180.431)" fill="#d9a171"/>
          <path id="Trazado_111059" data-name="Trazado 111059" d="M348.656,185.31c-.1-.649-.633-.881-1.282-.513l-52.08,30.086a2.733,2.733,0,0,0-.913.97l-7.211-4.11a2.652,2.652,0,0,1,.889-.921l52.08-30.086a2.925,2.925,0,0,1,2.6,0l4.631,2.556a2.877,2.877,0,0,1,1.29,2.019Z" transform="translate(-286.793 -180.431)" fill="#fff" opacity="0.45"/>
          <path id="Trazado_111060" data-name="Trazado 111060" d="M295.225,286.413a2.957,2.957,0,0,1-2.6,0L288,283.745a2.812,2.812,0,0,1-1.3-2.139V220.872a2.677,2.677,0,0,1,.409-1.322l7.211,4.11a2.58,2.58,0,0,0-.385,1.274v60.8C293.927,286.453,294.464,286.885,295.225,286.413Z" transform="translate(-286.7 -188.207)" fill="#d9a171"/>
          <path id="Trazado_111061" data-name="Trazado 111061" d="M295.225,286.413a2.957,2.957,0,0,1-2.6,0L288,283.745a2.812,2.812,0,0,1-1.3-2.139V220.872a2.677,2.677,0,0,1,.409-1.322l7.211,4.11a2.58,2.58,0,0,0-.385,1.274v60.8C293.927,286.453,294.464,286.885,295.225,286.413Z" transform="translate(-286.7 -188.207)" opacity="0.2"/>
          <path id="Trazado_111062" data-name="Trazado 111062" d="M349.068,185.837l-52.08,30.086a2.876,2.876,0,0,0-1.3,2.243v60.8a.794.794,0,0,0,1.3.745l19.782-11.434,4.455,7.708a1.6,1.6,0,0,0,2.957-.28l5.064-14.639,19.79-11.442a2.852,2.852,0,0,0,1.3-2.235v-60.8C350.366,185.765,349.781,185.428,349.068,185.837Z" transform="translate(-288.487 -181.471)" fill="#fafafa"/>
          <path id="Trazado_111063" data-name="Trazado 111063" d="M349.563,186.493v60.894a2.067,2.067,0,0,1-.9,1.546l-19.79,11.434-.256.152-.1.28-5.072,14.638a.8.8,0,0,1-1.506.144l-4.447-7.708-.4-.7-.7.4-19.79,11.442-.088.04V218.166a2.067,2.067,0,0,1,.9-1.546l52.08-30.086.088-.04m.088-.8a1.186,1.186,0,0,0-.577.176l-52.08,30.086a2.876,2.876,0,0,0-1.3,2.243V279c0,.585.3.921.721.921a1.185,1.185,0,0,0,.577-.176l19.758-11.466,4.455,7.708a1.64,1.64,0,0,0,2.957-.3l5.064-14.638,19.79-11.442a2.852,2.852,0,0,0,1.3-2.235V186.589c0-.585-.3-.929-.721-.929Z" transform="translate(-288.493 -181.47)" fill="#d9a171"/>
        </g>
        <g id="freepik--facial-recognition--inject-35" transform="translate(19.27 18.968)">
          <path id="Trazado_111064" data-name="Trazado 111064" d="M337.067,229.538c.8-4.936.889-9.166.5-10.977a1.482,1.482,0,0,0-1.442-1.362s.184-4.407-2.932-3.87a19.23,19.23,0,0,0-13.22,9.767c-3.269,6.145-2.46,13.861-2.3,17.627,0,0,1.41,3.381,9.7-1.4S337.067,229.538,337.067,229.538Z" transform="translate(-312.085 -205.929)" fill="#d9a171"/>
          <path id="Trazado_111065" data-name="Trazado 111065" d="M320.59,261.349v6.618c0,1.13.4,8.116,7.4,4.078a15.128,15.128,0,0,0,7.4-12.619V252.8Z" transform="translate(-312.706 -213.784)" fill="#d9a171"/>
          <path id="Trazado_111066" data-name="Trazado 111066" d="M320.59,261.349v6.618c0,1.13.4,8.116,7.4,4.078a15.128,15.128,0,0,0,7.4-12.619V252.8Z" transform="translate(-312.706 -213.784)" fill="#fff" opacity="0.5"/>
          <path id="Trazado_111067" data-name="Trazado 111067" d="M316.749,245.435a5.857,5.857,0,0,0-.417,3.557c.3,2.6,1.154,4.679,2.252,3.333l-.449-7.315C317.863,244.465,317.294,244.553,316.749,245.435ZM337.5,233.416c-.553-.24-1.122.329-1.394,1.186l-.449,7.836c1.1.072,1.947-2.981,2.251-5.937.184-1.771.024-2.86-.409-3.053Z" transform="translate(-311.838 -209.92)" fill="#d9a171"/>
          <path id="Trazado_111068" data-name="Trazado 111068" d="M316.749,245.435a5.857,5.857,0,0,0-.417,3.557c.3,2.6,1.154,4.679,2.252,3.333l-.449-7.315C317.863,244.465,317.294,244.553,316.749,245.435ZM337.5,233.416c-.553-.24-1.122.329-1.394,1.186l-.449,7.836c1.1.072,1.947-2.981,2.251-5.937.184-1.771.024-2.86-.409-3.053Z" transform="translate(-311.838 -209.92)" fill="#fff" opacity="0.5"/>
          <path id="Trazado_111069" data-name="Trazado 111069" d="M334.144,225.009c-.1-2.844-1.186-4.062-6.522-.977s-6.41,5.553-6.53,8.509-2.468,3.8-2.468,7.492a68.685,68.685,0,0,0,.593,10.993c.593,3.742,1.779,7.4,3.9,8.549s3.2.393,4.5-.353,2.4-1.242,4.495-4.807,3.309-8.629,3.9-13.06a82.1,82.1,0,0,0,.593-11.682C336.588,225.954,334.216,227.845,334.144,225.009Z" transform="translate(-312.31 -207.706)" fill="#d9a171"/>
          <path id="Trazado_111070" data-name="Trazado 111070" d="M334.144,225.009c-.1-2.844-1.186-4.062-6.522-.977s-6.41,5.553-6.53,8.509-2.468,3.8-2.468,7.492a68.685,68.685,0,0,0,.593,10.993c.593,3.742,1.779,7.4,3.9,8.549s3.2.393,4.5-.353,2.4-1.242,4.495-4.807,3.309-8.629,3.9-13.06a82.1,82.1,0,0,0,.593-11.682C336.588,225.954,334.216,227.845,334.144,225.009Z" transform="translate(-312.31 -207.706)" fill="#fff" opacity="0.75"/>
          <path id="Trazado_111071" data-name="Trazado 111071" d="M347.268,210.527a.433.433,0,0,1-.433-.433v-4.807l-3.317,1.915a.433.433,0,0,1-.593-.16.425.425,0,0,1,.16-.585l3.966-2.292a.417.417,0,0,1,.433,0,.441.441,0,0,1,.216.377v5.609a.433.433,0,0,1-.433.377Z" transform="translate(-317.134 -204.104)" fill="#455a64"/>
          <path id="Trazado_111072" data-name="Trazado 111072" d="M311.183,231.353a.433.433,0,0,1-.433-.433v-5.609a.433.433,0,0,1,.216-.369l3.926-2.268a.425.425,0,0,1,.585.16.441.441,0,0,1-.152.593l-3.71,2.139v5.368A.433.433,0,0,1,311.183,231.353Z" transform="translate(-310.75 -207.784)" fill="#455a64"/>
          <path id="Trazado_111073" data-name="Trazado 111073" d="M343.3,255.265a.441.441,0,0,1-.377-.216.425.425,0,0,1,.16-.585l3.75-2.171v-5.32a.433.433,0,0,1,.865,0v5.545a.441.441,0,0,1-.216.377l-3.966,2.292a.433.433,0,0,1-.216.08Z" transform="translate(-317.134 -212.539)" fill="#455a64"/>
          <path id="Trazado_111074" data-name="Trazado 111074" d="M311.183,274.4a.432.432,0,0,1-.216-.056.44.44,0,0,1-.216-.377V268.4a.433.433,0,1,1,.865,0v4.807l3.277-1.891a.425.425,0,0,1,.585.16.441.441,0,0,1-.152.593l-3.926,2.259A.4.4,0,0,1,311.183,274.4Z" transform="translate(-310.75 -216.799)" fill="#455a64"/>
          <g id="Grupo_59742" data-name="Grupo 59742" transform="translate(7.059 15.524)" opacity="0.7">
            <path id="Trazado_111075" data-name="Trazado 111075" d="M327.827,258.534h-.048l-4.944-.513-2.115-4.583-1.13-9.43.721-7.131,2.916-8.173h0l4.519-3.7,4.559-1.522,2.949,4.863.721,6.274-1.13,10.769-2.107,6.939Zm-4.887-.673,4.807.5,4.871-6.129,2.075-6.9,1.138-10.729-.721-6.242-2.868-4.711-4.423,1.474-4.463,3.67-2.9,8.108L319.734,244l1.138,9.406Z" transform="translate(-319.566 -223.48)" fill="#fff"/>
            <rect id="Rectángulo_8534" data-name="Rectángulo 8534" width="0.16" height="33.387" transform="translate(8.149 1.578)" fill="#fff"/>
            <path id="Trazado_111076" data-name="Trazado 111076" d="M324.829,239.921l-.12-.048-4.158-1.611.064-.144,4.022,1.562-1.226-9.615.152-.016Z" transform="translate(-319.757 -224.786)" fill="#fff"/>
            <path id="Trazado_111077" data-name="Trazado 111077" d="M333.73,235.084l.04-.329,1.25-11.185.152.016-1.21,10.849,3.974-6.121.128.088Z" transform="translate(-322.377 -223.498)" fill="#fff"/>
            <path id="Trazado_111078" data-name="Trazado 111078" d="M320.866,253.79l-.136-.08,2.468-3.966-3.638-5.44.04-.04,4.863-5.488,3.309-13.685,3.317,9.9,4.936-.136-.04.112L332.38,244.5l2.428,1.1-.064.152-2.564-1.162.024-.072,3.59-9.5-4.815.128-.024-.056-3.157-9.422-3.2,13.2-4.839,5.456,3.621,5.416Z" transform="translate(-319.56 -223.8)" fill="#fff"/>
            <path id="Trazado_111079" data-name="Trazado 111079" d="M329.011,245.939l-.088-.12-3.293-4.6,6.762-3.91Zm-3.149-4.671,3.109,4.343,3.109-7.932Z" transform="translate(-320.767 -226.229)" fill="#fff"/>
            <path id="Trazado_111080" data-name="Trazado 111080" d="M324.07,252.513l1.29-11.233.152.016-1.21,10.616,4.343-6.185.056.016,4.383,1.17-1.234-9.366.16-.016,1.258,9.6-4.551-1.218Z" transform="translate(-320.456 -226.273)" fill="#fff"/>
            <path id="Trazado_111081" data-name="Trazado 111081" d="M323.762,263.043l-.152-.008.409-8.581.064-.016,4.471-.569,4.6-4.719.425,8.221-.16.008-.4-7.86-4.391,4.5-.024.008-4.431.561Z" transform="translate(-320.365 -228.582)" fill="#fff"/>
          </g>
          <path id="Trazado_111082" data-name="Trazado 111082" d="M330.135,225.07a1.009,1.009,0,0,1-.409.8c-.232.128-.417,0-.417-.312a.97.97,0,0,1,.417-.8C329.951,224.621,330.135,224.765,330.135,225.07Z" transform="translate(-314.439 -208.199)" fill="#fff"/>
          <path id="Trazado_111083" data-name="Trazado 111083" d="M330.135,235.172a.986.986,0,0,1-.409.8c-.232.136-.417,0-.417-.3a.97.97,0,0,1,.417-.8C329.951,234.731,330.135,234.875,330.135,235.172Z" transform="translate(-314.439 -210.209)" fill="#fff"/>
          <path id="Trazado_111084" data-name="Trazado 111084" d="M330.135,247.488a1.009,1.009,0,0,1-.409.8c-.232.128-.417,0-.417-.312a.97.97,0,0,1,.417-.8C329.951,247.023,330.135,247.184,330.135,247.488Z" transform="translate(-314.439 -212.654)" fill="#fff"/>
          <path id="Trazado_111085" data-name="Trazado 111085" d="M326.085,241.831a.969.969,0,0,1-.417.8c-.224.136-.409,0-.409-.313a1.01,1.01,0,0,1,.409-.8C325.9,241.39,326.085,241.526,326.085,241.831Z" transform="translate(-313.634 -211.532)" fill="#fff"/>
          <path id="Trazado_111086" data-name="Trazado 111086" d="M320.9,239.822a.986.986,0,0,1-.409.8c-.232.136-.409,0-.409-.3a.961.961,0,0,1,.409-.8C320.713,239.381,320.9,239.525,320.9,239.822Z" transform="translate(-312.605 -211.133)" fill="#fff"/>
          <path id="Trazado_111087" data-name="Trazado 111087" d="M320,248.7a.993.993,0,0,1-.409.8c-.232.128-.417,0-.417-.312a.969.969,0,0,1,.417-.8C319.835,248.26,320,248.4,320,248.7Z" transform="translate(-312.424 -212.897)" fill="#fff"/>
          <path id="Trazado_111088" data-name="Trazado 111088" d="M324.525,255.47a.993.993,0,0,1-.409.8c-.232.128-.417,0-.417-.312a.97.97,0,0,1,.417-.8C324.341,255.021,324.525,255.165,324.525,255.47Z" transform="translate(-313.324 -214.242)" fill="#fff"/>
          <path id="Trazado_111089" data-name="Trazado 111089" d="M321.407,260.471a.985.985,0,0,1-.409.8c-.224.136-.409,0-.409-.3a.985.985,0,0,1,.409-.8C321.223,260.022,321.407,260.174,321.407,260.471Z" transform="translate(-312.706 -215.237)" fill="#fff"/>
          <path id="Trazado_111090" data-name="Trazado 111090" d="M324.015,266.1a.969.969,0,0,1-.417.8c-.224.128-.409,0-.409-.312a.985.985,0,0,1,.409-.8C323.839,265.66,324.015,265.8,324.015,266.1Z" transform="translate(-313.223 -216.356)" fill="#fff"/>
          <path id="Trazado_111091" data-name="Trazado 111091" d="M330.135,254.751a.985.985,0,0,1-.409.8c-.232.136-.417,0-.417-.312a.993.993,0,0,1,.417-.8C329.951,254.31,330.135,254.446,330.135,254.751Z" transform="translate(-314.439 -214.1)" fill="#fff"/>
          <path id="Trazado_111092" data-name="Trazado 111092" d="M330.135,266.741a1.009,1.009,0,0,1-.409.8c-.232.128-.417,0-.417-.312a.97.97,0,0,1,.417-.8C329.951,266.3,330.135,266.436,330.135,266.741Z" transform="translate(-314.439 -216.483)" fill="#fff"/>
          <path id="Trazado_111093" data-name="Trazado 111093" d="M324.525,229.671a.985.985,0,0,1-.409.8c-.232.136-.417,0-.417-.313a.993.993,0,0,1,.417-.8C324.341,229.23,324.525,229.366,324.525,229.671Z" transform="translate(-313.324 -209.115)" fill="#fff"/>
          <path id="Trazado_111094" data-name="Trazado 111094" d="M333.36,237.628c0,.3.184.441.417.3a.985.985,0,0,0,.409-.8c0-.3-.184-.441-.409-.3a.97.97,0,0,0-.417.8Z" transform="translate(-315.244 -210.598)" fill="#fff"/>
          <path id="Trazado_111095" data-name="Trazado 111095" d="M338.55,229.629c0,.3.184.441.409.312a.977.977,0,0,0,.417-.8c0-.3-.184-.441-.417-.312A.986.986,0,0,0,338.55,229.629Z" transform="translate(-316.276 -209.009)" fill="#fff"/>
          <path id="Trazado_111096" data-name="Trazado 111096" d="M339.45,237.459c0,.3.184.441.409.312a.969.969,0,0,0,.417-.8c0-.3-.184-.441-.417-.312A.993.993,0,0,0,339.45,237.459Z" transform="translate(-316.455 -210.566)" fill="#fff"/>
          <path id="Trazado_111097" data-name="Trazado 111097" d="M334.92,249.459c0,.3.184.441.409.312a.969.969,0,0,0,.417-.8c0-.3-.184-.441-.417-.312A1.01,1.01,0,0,0,334.92,249.459Z" transform="translate(-315.554 -212.951)" fill="#fff"/>
          <path id="Trazado_111098" data-name="Trazado 111098" d="M338,250.869c0,.3.184.441.409.312a.985.985,0,0,0,.409-.8c0-.3-.184-.441-.409-.312A.993.993,0,0,0,338,250.869Z" transform="translate(-316.167 -213.231)" fill="#fff"/>
          <path id="Trazado_111099" data-name="Trazado 111099" d="M335.43,259.5c0,.3.184.441.417.313a.985.985,0,0,0,.409-.8c0-.3-.184-.441-.409-.312a.978.978,0,0,0-.417.8Z" transform="translate(-315.656 -214.946)" fill="#fff"/>
          <path id="Trazado_111100" data-name="Trazado 111100" d="M334.92,223.668c0,.3.184.441.409.313a.993.993,0,0,0,.417-.8c0-.3-.184-.449-.417-.312A.985.985,0,0,0,334.92,223.668Z" transform="translate(-315.554 -207.824)" fill="#fff"/>
        </g>
      </g>
    </g>
    <g id="freepik--Surveillance--inject-35" transform="translate(233.324 236.662)">
      <g id="freepik--speech-bubble--inject-35-5" data-name="freepik--speech-bubble--inject-35" transform="translate(43.148 -7)">
        <g id="freepik--speech-bubble--inject-35-6" data-name="freepik--speech-bubble--inject-35">
          <path id="Trazado_111101" data-name="Trazado 111101" d="M278.078,385.073l-5.456-3.149a1.6,1.6,0,0,1-.593-.6l-1.7-2.941,2.748-1.6,4.455,7.716A1.69,1.69,0,0,0,278.078,385.073Z" transform="translate(-235.653 -295.224)" fill="#d9a171"/>
          <g id="Grupo_59743" data-name="Grupo 59743" transform="translate(34.677 81.556)" opacity="0.2">
            <path id="Trazado_111102" data-name="Trazado 111102" d="M278.078,385.073l-5.456-3.149a1.6,1.6,0,0,1-.593-.6l-1.7-2.941,2.748-1.6,4.455,7.716A1.69,1.69,0,0,0,278.078,385.073Z" transform="translate(-270.33 -376.78)"/>
          </g>
          <path id="Trazado_111103" data-name="Trazado 111103" d="M289,279.87c-.1-.649-.633-.881-1.274-.513l-52.08,30.086a2.731,2.731,0,0,0-.913.969l-7.211-4.11a2.653,2.653,0,0,1,.889-.921l52.08-30.086a2.909,2.909,0,0,1,2.588,0l4.631,2.6A2.868,2.868,0,0,1,289,279.87Z" transform="translate(-227.143 -274.991)" fill="#d9a171"/>
          <path id="Trazado_111104" data-name="Trazado 111104" d="M289,279.87c-.1-.649-.633-.881-1.274-.513l-52.08,30.086a2.731,2.731,0,0,0-.913.969l-7.211-4.11a2.653,2.653,0,0,1,.889-.921l52.08-30.086a2.909,2.909,0,0,1,2.588,0l4.631,2.6A2.868,2.868,0,0,1,289,279.87Z" transform="translate(-227.143 -274.991)" fill="#fff" opacity="0.45"/>
          <path id="Trazado_111105" data-name="Trazado 111105" d="M235.575,380.993a2.956,2.956,0,0,1-2.6,0l-4.631-2.668a2.788,2.788,0,0,1-1.3-2.219V315.372a2.692,2.692,0,0,1,.417-1.322l7.211,4.11a2.58,2.58,0,0,0-.385,1.274v60.8C234.277,381,234.814,381.433,235.575,380.993Z" transform="translate(-227.05 -282.755)" fill="#d9a171"/>
          <path id="Trazado_111106" data-name="Trazado 111106" d="M235.575,380.993a2.956,2.956,0,0,1-2.6,0l-4.631-2.668a2.788,2.788,0,0,1-1.3-2.219V315.372a2.692,2.692,0,0,1,.417-1.322l7.211,4.11a2.58,2.58,0,0,0-.385,1.274v60.8C234.277,381,234.814,381.433,235.575,380.993Z" transform="translate(-227.05 -282.755)" opacity="0.2"/>
          <path id="Trazado_111107" data-name="Trazado 111107" d="M289.418,280.4l-52.08,30.086a2.861,2.861,0,0,0-1.3,2.243v60.8c0,.8.577,1.162,1.3.745L266.182,357.6l4.455,7.708a1.6,1.6,0,0,0,2.957-.28l5.072-14.638,10.7-6.21a2.852,2.852,0,0,0,1.3-2.235v-60.8C290.716,280.325,290.131,279.988,289.418,280.4Z" transform="translate(-228.837 -276.031)" fill="#fafafa"/>
          <path id="Trazado_111108" data-name="Trazado 111108" d="M289.9,281.053v60.893a2.067,2.067,0,0,1-.9,1.546l-10.7,6.21-.264.144-.1.28-5.088,14.639a.837.837,0,0,1-1.514.144l-4.455-7.708-.4-.7-.689.4-28.884,16.674-.088.04a.33.33,0,0,1,0-.1v-60.8a2.067,2.067,0,0,1,.9-1.546l52.08-30.086.088-.04m.088-.8a1.187,1.187,0,0,0-.577.176l-52.08,30.086a2.86,2.86,0,0,0-1.3,2.243v60.8c0,.585.3.921.713.921a1.186,1.186,0,0,0,.585-.176l28.844-16.665,4.455,7.708a1.64,1.64,0,0,0,2.957-.3l5.072-14.639,10.7-6.209a2.853,2.853,0,0,0,1.3-2.235V281.149c0-.585-.3-.929-.721-.929Z" transform="translate(-228.835 -276.03)" fill="#d9a171"/>
        </g>
        <path id="Trazado_111109" data-name="Trazado 111109" d="M285.495,349l-2.035,3.894-3.79-2.86,2.043-3.894Z" transform="translate(-237.509 -289.133)" fill="#455a64"/>
        <path id="Trazado_111110" data-name="Trazado 111110" d="M292.949,357.2h0c-.8,1.49-2.043,2.219-2.82,1.6l-6.8-5.12c-.128-.1-.128-.369,0-.617l2.364-4.511c.128-.248.337-.361.465-.264l6.794,5.112C293.734,354.02,293.734,355.711,292.949,357.2Z" transform="translate(-238.217 -289.554)" fill="#263238"/>
        <path id="Trazado_111111" data-name="Trazado 111111" d="M278.448,325.748c0,10.111-6.169,21.9-13.749,26.272s-13.749-.288-13.749-10.416,6.161-21.89,13.749-26.272S278.448,315.637,278.448,325.748Z" transform="translate(-231.801 -282.683)" fill="#fafafa"/>
        <path id="Trazado_111112" data-name="Trazado 111112" d="M264.188,311.871c-8.709,5.032-15.808,18.581-15.808,30.206s7.1,16.978,15.808,11.946S280,335.443,280,323.826,272.914,306.84,264.188,311.871Zm0,39.413c-7.588,4.383-13.749-.289-13.749-10.416s6.161-21.89,13.749-26.272,13.749.28,13.749,10.416S271.768,346.909,264.188,351.284Z" transform="translate(-231.29 -281.946)" fill="#d9a171"/>
        <path id="Trazado_111113" data-name="Trazado 111113" d="M265.186,345.7c-7.011,4.046-11.586-.641-11.634-.689l-.152-.16.152-.337c.048-.1,4.623-10.2,11.634-14.246s11.586.761,11.634.8l.152.168-.152.337C276.772,331.686,272.2,341.654,265.186,345.7Zm-11-1.306c.857.8,5.016,3.966,11,.5s10.144-11.442,11-13.2c-.857-.8-5.008-4.086-11-.625S255.043,342.615,254.185,344.394Z" transform="translate(-232.288 -285.657)" fill="#455a64"/>
        <path id="Trazado_111114" data-name="Trazado 111114" d="M276.085,325.292a8.012,8.012,0,0,0-2.308-1.218,8.1,8.1,0,0,0-2.58-.489,10.8,10.8,0,0,0-5.713,1.562,22.69,22.69,0,0,0-5.7,5.048,37.716,37.716,0,0,0-2.58,3.461,41.045,41.045,0,0,0-2.308,3.886,36.736,36.736,0,0,1,4.7-7.772,21.881,21.881,0,0,1,5.905-5.384,9.711,9.711,0,0,1,5.905-1.434A7.307,7.307,0,0,1,276.085,325.292Z" transform="translate(-232.586 -284.518)" fill="#455a64"/>
        <path id="Trazado_111115" data-name="Trazado 111115" d="M271.436,336.148c0,3.261-1.979,7.043-4.423,8.461s-4.423-.088-4.423-3.349,1.979-7.043,4.423-8.453S271.436,332.855,271.436,336.148Z" transform="translate(-234.114 -286.376)" fill="#455a64"/>
        <path id="Trazado_111116" data-name="Trazado 111116" d="M269.719,338.3a5.128,5.128,0,0,1-2.139,4.086c-1.178.681-2.139-.04-2.139-1.6a5.136,5.136,0,0,1,2.139-4.086C268.757,336,269.719,336.718,269.719,338.3Z" transform="translate(-234.681 -287.203)" fill="#263238"/>
        <path id="Trazado_111117" data-name="Trazado 111117" d="M271.277,335.529a2.34,2.34,0,0,1-.969,1.859c-.545.312-.978,0-.978-.737a2.324,2.324,0,0,1,.978-1.859C270.844,334.487,271.277,334.816,271.277,335.529Z" transform="translate(-235.454 -286.855)" fill="#fff"/>
      </g>
    </g>
    <g id="freepik--Character--inject-35" transform="translate(17.853 72.361)">
      <g id="freepik--Chartacter--inject-35" transform="translate(0 0)">
        <g id="freepik--Bottom--inject-35" transform="translate(7.082 96.577)">
          <path id="Trazado_111118" data-name="Trazado 111118" d="M128.59,382.975l4.215-1.6-1.394-2.852-2.588,2.428Z" transform="translate(-77.622 -246.83)"/>
          <path id="Trazado_111119" data-name="Trazado 111119" d="M123.054,374.61s-.152,2.748-.184,3.614,3.67,3.533,4.583,4.006l.232-2.027a15.575,15.575,0,0,1,2.131,3.269c.713,1.226,1.6,3.557,3.589,5.144,2.908,2.348,7.435,3.525,12.018,3.67s7.211-1,8.541-2a3.02,3.02,0,0,0,1.386-3.349C155.023,385.763,123.054,374.61,123.054,374.61Z" transform="translate(-76.485 -246.053)" fill="#263238"/>
          <path id="Trazado_111120" data-name="Trazado 111120" d="M135.306,362.442l.048-1.6c.849,0,.961,2.276,2.211,4.295a40.928,40.928,0,0,0,6.522,8.261c4.7,4.239,8.878,6.891,10.969,8.813,2.8,2.548-2.083,6.65-9.615,6.266-3.734-.192-10.376-2.035-12.251-4.238s-3.029-5.609-4.535-7.211-4.7-3.2-5.649-5.136c-.513-1.066-.256-3.565.04-5.681.272-1.947.312-4.928,1.41-4.7l.088,1c.449.849,1.49,2.243,4.5,2.74C130.571,365.487,135.058,365.6,135.306,362.442Z" transform="translate(-76.454 -243.316)" fill="#37474f"/>
          <path id="Trazado_111121" data-name="Trazado 111121" d="M133.652,365.945c1.434-.136,2.981-.617,3.574-1.915h0a3.654,3.654,0,0,0,.986,3.053c1.354,1.6,9.9,12.627,9.9,12.627s-7.948-9.118-9.479-10.833c-2.251-2.54-2.965-2.828-5.016-2.892Z" transform="translate(-78.622 -243.95)" opacity="0.15"/>
          <path id="Trazado_111122" data-name="Trazado 111122" d="M135.773,369.944a.46.46,0,1,1-.409-.5.473.473,0,0,1,.409.5Z" transform="translate(-78.868 -245.024)" opacity="0.15"/>
          <path id="Trazado_111123" data-name="Trazado 111123" d="M138.573,372.994a.449.449,0,0,1-.5.409.457.457,0,0,1-.409-.5.473.473,0,0,1,.5-.409.457.457,0,0,1,.409.5Z" transform="translate(-79.424 -245.631)" opacity="0.15"/>
          <path id="Trazado_111124" data-name="Trazado 111124" d="M141.363,376.044a.465.465,0,0,1-.5.409.449.449,0,0,1-.409-.5.457.457,0,0,1,.5-.409A.465.465,0,0,1,141.363,376.044Z" transform="translate(-79.979 -246.237)" opacity="0.15"/>
          <path id="Trazado_111125" data-name="Trazado 111125" d="M144.143,379.094a.457.457,0,0,1-.5.409.465.465,0,0,1-.409-.5.459.459,0,1,1,.913.1Z" transform="translate(-80.532 -246.843)" opacity="0.15"/>
          <path id="Trazado_111126" data-name="Trazado 111126" d="M146.933,382.144a.473.473,0,0,1-.5.409.457.457,0,0,1-.409-.5.449.449,0,0,1,.5-.409.457.457,0,0,1,.409.5Z" transform="translate(-81.086 -247.449)" opacity="0.15"/>
          <path id="Trazado_111127" data-name="Trazado 111127" d="M135.388,369.646a.16.16,0,0,1-.112-.048.184.184,0,0,1,0-.264,7.523,7.523,0,0,1,5.184-2.083h0a.185.185,0,0,1-.024.369,7.315,7.315,0,0,0-4.912,1.979A.16.16,0,0,1,135.388,369.646Z" transform="translate(-78.94 -244.59)" fill="#263238"/>
          <path id="Trazado_111128" data-name="Trazado 111128" d="M138.176,372.686a.168.168,0,0,1-.12-.056.176.176,0,0,1,0-.256,7.58,7.58,0,0,1,5.192-2.083h0a.185.185,0,1,1-.024.369,7.283,7.283,0,0,0-4.9,1.979A.2.2,0,0,1,138.176,372.686Z" transform="translate(-79.493 -245.194)" fill="#263238"/>
          <path id="Trazado_111129" data-name="Trazado 111129" d="M140.956,375.746a.184.184,0,0,1-.12-.056.176.176,0,0,1,0-.256,7.579,7.579,0,0,1,5.192-2.083h0a.176.176,0,0,1,.168.192.184.184,0,0,1-.192.176,7.366,7.366,0,0,0-4.912,1.971.176.176,0,0,1-.136.056Z" transform="translate(-80.045 -245.802)" fill="#263238"/>
          <path id="Trazado_111130" data-name="Trazado 111130" d="M143.738,378.8a.168.168,0,0,1-.112-.056.176.176,0,0,1,0-.256,7.492,7.492,0,0,1,5.192-2.083h0a.184.184,0,0,1,0,.369,7.389,7.389,0,0,0-4.912,1.971.192.192,0,0,1-.168.056Z" transform="translate(-80.6 -246.408)" fill="#263238"/>
          <path id="Trazado_111131" data-name="Trazado 111131" d="M146.527,381.844a.208.208,0,0,1-.12-.056.192.192,0,0,1,0-.264,7.612,7.612,0,0,1,5.192-2.083h0a.184.184,0,0,1,.176.192.192.192,0,0,1-.2.176,7.339,7.339,0,0,0-4.9,1.971A.208.208,0,0,1,146.527,381.844Z" transform="translate(-81.153 -247.013)" fill="#263238"/>
          <path id="Trazado_111132" data-name="Trazado 111132" d="M81.485,399.231c-.649,3.6-1.49,5.929-3.029,7.9s-4.3,2.2-6.346,1.763a8.813,8.813,0,0,1-6.818-6.73c-.665-2.476-.208-5.32.753-8.613Z" transform="translate(-64.978 -249.817)" fill="#263238"/>
          <path id="Trazado_111133" data-name="Trazado 111133" d="M73.576,366.19c-1.026-.048-1.9,4.807-3.061,9.575-1.25,5.144-3.2,7.868-4.126,11.321-1.3,4.807-1.226,7.027.136,10.184s8.437,7.011,11.922,3.141c2.852-3.165,3.405-6.979,3.766-11.882a123.078,123.078,0,0,1,1.25-12.443c.633-3.638,1.306-7.147.481-7.66-.136.529-.28,1.2-.417,1.723-.1.393-.441,2.364-1.01,2.316a8.058,8.058,0,0,1,.152-1.378,1.6,1.6,0,0,0-.136-1.21,1.924,1.924,0,0,0-1.058-.641,29.374,29.374,0,0,0-2.957-.8c-.5-.1-1-.192-1.506-.248a16.592,16.592,0,0,0-2.66-.2.905.905,0,0,0-.609.425,1.6,1.6,0,0,0-.12.553,4.278,4.278,0,0,1-.24.994c-.056.136-.176.3-.32.248s-.144-.192-.128-.313c.064-.593.192-1.009.3-1.7.048-.312.152-.737.192-1.058S73.512,366.494,73.576,366.19Z" transform="translate(-65.073 -244.379)" fill="#37474f"/>
          <path id="Trazado_111134" data-name="Trazado 111134" d="M71.058,394.261a.361.361,0,0,0,.272.425.353.353,0,0,0,.425-.272.361.361,0,0,0-.272-.425A.369.369,0,0,0,71.058,394.261Z" transform="translate(-66.185 -249.903)" opacity="0.15"/>
          <path id="Trazado_111135" data-name="Trazado 111135" d="M72,390.1a.36.36,0,0,0,.272.425.353.353,0,0,0,.425-.264.36.36,0,0,0-.272-.425A.344.344,0,0,0,72,390.1Z" transform="translate(-66.372 -249.077)" opacity="0.15"/>
          <path id="Trazado_111136" data-name="Trazado 111136" d="M72.858,386.181a.333.333,0,1,0,.425-.272.361.361,0,0,0-.425.272Z" transform="translate(-66.543 -248.297)" opacity="0.15"/>
          <path id="Trazado_111137" data-name="Trazado 111137" d="M73.72,382.31a.361.361,0,0,0,.7.152.369.369,0,0,0-.272-.425A.361.361,0,0,0,73.72,382.31Z" transform="translate(-66.715 -247.528)" opacity="0.15"/>
          <path id="Trazado_111138" data-name="Trazado 111138" d="M83.628,384.122a.36.36,0,0,0,.272.425.344.344,0,0,0,.425-.264.361.361,0,0,0-.272-.425.344.344,0,0,0-.425.264Z" transform="translate(-68.684 -247.888)" opacity="0.15"/>
          <path id="Trazado_111139" data-name="Trazado 111139" d="M82.767,388.021a.345.345,0,0,0,.264.425.361.361,0,0,0,.425-.272.345.345,0,0,0-.264-.425A.361.361,0,0,0,82.767,388.021Z" transform="translate(-68.512 -248.663)" opacity="0.15"/>
          <path id="Trazado_111140" data-name="Trazado 111140" d="M81.888,391.932a.361.361,0,0,0,.272.425.345.345,0,0,0,.425-.264.361.361,0,0,0-.272-.425.353.353,0,0,0-.425.264Z" transform="translate(-68.338 -249.441)" opacity="0.15"/>
          <path id="Trazado_111141" data-name="Trazado 111141" d="M81,396.1a.361.361,0,0,0,.272.425.353.353,0,0,0,.425-.264.361.361,0,0,0-.272-.425A.345.345,0,0,0,81,396.1Z" transform="translate(-68.161 -250.27)" opacity="0.15"/>
          <path id="Trazado_111142" data-name="Trazado 111142" d="M77.02,391.91l5.52-23.2-1.306-.176Z" transform="translate(-67.372 -244.844)" opacity="0.15"/>
          <path id="Trazado_111143" data-name="Trazado 111143" d="M71.424,394.548h.056c2.4-.24,6.354.473,7.828,1.426a.18.18,0,1,0,.192-.3c-1.554-1-5.545-1.731-8.012-1.482a.192.192,0,0,0-.168.2A.184.184,0,0,0,71.424,394.548Z" transform="translate(-66.239 -249.934)" fill="#263238"/>
          <path id="Trazado_111144" data-name="Trazado 111144" d="M72.344,390.353a.113.113,0,0,0,.088,0c1.883-.625,6.105.353,7.788,1.434a.182.182,0,0,0,.2-.3c-1.755-1.13-6.113-2.139-8.1-1.466a.176.176,0,0,0-.112.224A.16.16,0,0,0,72.344,390.353Z" transform="translate(-66.413 -249.072)" fill="#263238"/>
          <path id="Trazado_111145" data-name="Trazado 111145" d="M73.214,386.432a.2.2,0,0,0,.1,0c1.883-.633,6.105.353,7.78,1.434a.182.182,0,0,0,.2-.3c-1.755-1.13-6.113-2.139-8.1-1.474a.178.178,0,0,0,.024.345Z" transform="translate(-66.586 -248.292)" fill="#263238"/>
          <path id="Trazado_111146" data-name="Trazado 111146" d="M74.074,382.562a.136.136,0,0,0,.1,0c1.883-.633,6.105.353,7.78,1.434a.182.182,0,0,0,.2-.3c-1.755-1.13-6.113-2.139-8.1-1.474a.178.178,0,0,0,.024.345Z" transform="translate(-66.757 -247.522)" fill="#263238"/>
          <path id="Trazado_111147" data-name="Trazado 111147" d="M80.964,217.165c-2.356,29.9-4.679,71.117-4.679,71.117-.208,2.275-2.4,11.962-3.493,23.164-1.154,11.818-2.091,33.988-2.091,33.988s8.253,4.407,14.959,2.179c0,0,7.211-37.281,10.616-51.207,3.2-13.18,8.333-38.155,8.333-38.155l3.461,24.686s-.465,8.525-.208,14.486c.3,6.939,4.719,40.27,4.719,40.27s8.99,5.3,15.944,0c0,0,1.2-45.975,1.4-54.315.377-16.369-1.53-48.074-2.131-69.218Z" transform="translate(-66.115 -214.16)" fill="#263238"/>
          <path id="Trazado_111148" data-name="Trazado 111148" d="M94.376,261.49q-.937,10.745-2.083,21.481-.561,5.36-1.178,10.72l-.609,5.36-.312,2.684c-.1.889-.28,1.771-.417,2.66-1.178,7.1-3,19.983-4.287,27.057s-2.652,14.142-4.11,21.185q1.394-10.7,3.061-21.345c1.114-7.107,2.844-20.031,4.062-27.082.136-.889.329-1.771.433-2.66l.329-2.676.673-5.344q.673-5.352,1.394-10.688Q92.757,272.162,94.376,261.49Z" transform="translate(-68.238 -223.568)"/>
          <path id="Trazado_111149" data-name="Trazado 111149" d="M138.93,259c.745,6.69,1.146,13.413,1.434,20.127s.553,13.461.3,20.175-.337,17.988-.593,24.71-.553,13.437-.953,20.151q-.152-10.1-.064-20.167c.048-6.722.168-17.98.3-24.7l.128-5.04V289.23l-.128-10.071-.16-10.079C139.146,265.682,139.034,262.325,138.93,259Z" transform="translate(-79.677 -223.073)"/>
          <path id="Trazado_111150" data-name="Trazado 111150" d="M113,263.907l2.916-16.377s8.116-1.186,12.275-4.919c0,0-2.684,4.936-10.336,6.875l-2.9,14.462,1.522,24.646Z" transform="translate(-74.523 -219.815)"/>
        </g>
        <g id="freepik--Top--inject-35" transform="translate(13.446)">
          <path id="Trazado_111151" data-name="Trazado 111151" d="M127.49,146.54c7.484,2.4,11.818,4.086,14.8,9.991,3.862,7.66,10.112,22.378,10.112,22.378l21.449,1.811-4.182,10.416s-9.967,1.386-21.152,2.059c-7.067.425-8.012-1.162-10-5.713S130.206,169,130.206,169Z" transform="translate(-83.767 -104.142)" fill="#37474f"/>
          <path id="Trazado_111152" data-name="Trazado 111152" d="M93.207,142.68c-7.932,2.732-14.142,5.024-20.287,8.661a176.8,176.8,0,0,0,4.006,25.351c.713,2.916,3.061,10.961,3.6,17.162a99.139,99.139,0,0,1,0,19.4s9.759,6.843,30.166,4.751c16.025-1.643,17.948-7.6,17.948-7.6s-1.01-26.753-1.739-38.587c-.97-15.536-2.4-21.561-5.953-24.181-2.284-1.7-14.134-4.727-14.134-4.727Z" transform="translate(-72.92 -103.374)" fill="#455a64"/>
          <g id="freepik--Head--inject-35" transform="translate(10.545)">
            <path id="Trazado_111161" data-name="Trazado 111161" d="M92.658,103s-2.364.152-3.942,3.1c-.8,1.49-1.386,4.206.641,12.018a31.361,31.361,0,0,0,3.638,8.637,3.838,3.838,0,0,0,2.211,1.795l-.08-5.993-.168-4.174s3.4-3,3.726-6a9.559,9.559,0,0,0-1.058-6.057Z" transform="translate(-86.457 -95.487)" fill="#37474f"/>
            <path id="Trazado_111163" data-name="Trazado 111163" d="M92.8,101.3c.625-3.357,4.944-7.323,13.18-7.66,6.746-.272,10.664,2.1,12.964,6.057s.689,9.038.689,9.038l-21.177-1.651Z" transform="translate(-87.416 -93.624)" fill="#37474f"/>
            <path id="Trazado_111164" data-name="Trazado 111164" d="M89.261,124.307c3.077,1.546,4.527-.889,4.527-.889l.312,12.347c5.849,8.012,21.777,5.36,15.336-.689v-2.812a18.158,18.158,0,0,0,2.692-.232c2.748-.4,4.495-2.556,5.352-5.52a41.545,41.545,0,0,0,.264-18.933c-.3-1.45-.905-3.037-2.227-3.71-3.277-1.667-6.354.641-10.969,2.4-1.907.721-6.522.986-7.732.4,1.6,1.787,1.5,7.379-.9,9.615a4.9,4.9,0,0,1-1.2,1.522c-1.01.865-1.8-1.4-2.636-2.292a3.461,3.461,0,0,0-5.376,1.162,5.609,5.609,0,0,0,2.556,7.628Z" transform="translate(-86.081 -95.545)" fill="#ffa8a7"/>
            <path id="Trazado_111167" data-name="Trazado 111167" d="M108.095,112.536l-3.045,1.282a1.731,1.731,0,0,1,.913-2.219,1.6,1.6,0,0,1,2.131.937Z" transform="translate(-89.827 -97.171)" fill="#37474f"/>
            <path id="Trazado_111168" data-name="Trazado 111168" d="M122.455,112.63l-3.2-.961a1.6,1.6,0,0,1,2.019-1.146,1.755,1.755,0,0,1,1.186,2.107Z" transform="translate(-92.674 -96.969)" fill="#37474f"/>
            <path id="Trazado_111169" data-name="Trazado 111169" d="M106.66,116.558a1.346,1.346,0,1,0,1.314-1.378A1.346,1.346,0,0,0,106.66,116.558Z" transform="translate(-90.171 -97.908)" fill="#263238"/>
            <path id="Trazado_111170" data-name="Trazado 111170" d="M119.167,116.087a1.346,1.346,0,1,0,1.314-1.378,1.218,1.218,0,0,0-1.314,1.378Z" transform="translate(-92.655 -97.814)" fill="#263238"/>
            <path id="Trazado_111171" data-name="Trazado 111171" d="M112.87,113.23l1,8.629,4.551-1.6A20.3,20.3,0,0,0,112.87,113.23Z" transform="translate(-91.406 -97.521)" fill="#f28f8f"/>
            <path id="Trazado_111172" data-name="Trazado 111172" d="M97.6,118.357c.513,5.857,2.548,6.186,4.647,6.41,2.78.345,4.078-1.194,9.022-1.394,3-.112,4.006.737,5.7,1.37,1.282.473,2.3.272,2.732-.873a19.389,19.389,0,0,0,.7-6.41,46.629,46.629,0,0,1,.136,9.615c-.3,2.772-1.21,5.176-2.684,6.522-2.043,1.875-6.41,2.772-12.018,1.771s-7.74-3.2-8.485-5.136c-2.4-6.242-1.675-9.27-2.444-10.416S97.6,118.357,97.6,118.357Z" transform="translate(-87.812 -98.362)" fill="#37474f"/>
            <path id="Trazado_111173" data-name="Trazado 111173" d="M113.657,127.109c-2.82.056-3.726.6-3.782,2.54-.088,2.772.088,3.694,1.146,3.8,1.258.12,2.171.16,2.179-.625a3.045,3.045,0,0,0-.248-1.763c-.457-.513-.3-.593.937-.617s1.226.2.873.593-.192,1.242-.168,1.787.168.8,1.939.577c1.546-.208,1.234-1.442,1.114-3.814C117.559,127.982,116.854,127.02,113.657,127.109Z" transform="translate(-90.806 -100.278)" fill="#ffa8a7"/>
            <path id="Trazado_111174" data-name="Trazado 111174" d="M111.288,127.78l4.615.449a2.275,2.275,0,0,1-2.444,2.131A2.4,2.4,0,0,1,111.288,127.78Z" transform="translate(-91.09 -100.413)" fill="#b16668"/>
            <path id="Trazado_111175" data-name="Trazado 111175" d="M111.941,128.618a2.622,2.622,0,0,0-.561.072,2.4,2.4,0,0,0,2.1,1.835,2.306,2.306,0,0,0,.745-.064,2.131,2.131,0,0,0-2.284-1.843Z" transform="translate(-91.109 -100.578)" fill="#f28f8f"/>
          </g>
        </g>
        <g id="freepik--Arms--inject-35" transform="translate(0 44.762)">
          <g id="freepik--Control--inject-35" transform="translate(47.096 15.802)">
            <path id="Trazado_111176" data-name="Trazado 111176" d="M181.53,177.314a1.963,1.963,0,1,1-1.707-2.187A1.963,1.963,0,0,1,181.53,177.314Z" transform="translate(-127.381 -170.385)" fill="#455a64"/>
            <path id="Trazado_111177" data-name="Trazado 111177" d="M181.584,177.4c-.329-.248-.9.072-1.2.513s-.32.9,0,1.122c.729.537,3.077,2.316,3.077,2.316l2.179-.921Z" transform="translate(-127.883 -170.822)" fill="#37474f"/>
            <path id="Trazado_111178" data-name="Trazado 111178" d="M189.327,175.014a3.269,3.269,0,0,0-3.069-.112c-3.109,1.1-6.53,4.759-7.652,8.165-.609,1.875-.393,3.285.441,4.006l-.473,1.426a.334.334,0,0,0,.04.312l.329.248-3.8,12.932c-.12.425-.056.737.144.881l2,1.514a.745.745,0,0,0,.713,0l2.54-1.074a3.3,3.3,0,0,0,1.739-1.811l4.807-13.413.184-.064a1.114,1.114,0,0,0,.585-.633l.473-1.426a14.35,14.35,0,0,0,3.5-5.384c.633-1.931.385-3.365-.513-4.046Z" transform="translate(-126.877 -170.281)" fill="#d9a171"/>
            <path id="Trazado_111179" data-name="Trazado 111179" d="M192.335,180.976c1.114-3.405-.5-5.28-3.6-4.174s-6.53,4.751-7.652,8.157c-.609,1.883-.393,3.285.441,4.006l-.473,1.426c-.088.264.04.409.28.329l.184-.064-3.894,13.236c-.216.753.16,1.154.849.905l2.54-1.074a3.3,3.3,0,0,0,1.739-1.811L187.56,188.5l.184-.064a1.114,1.114,0,0,0,.585-.633l.473-1.426A14.35,14.35,0,0,0,192.335,180.976Z" transform="translate(-127.37 -170.657)" opacity="0.3"/>
            <path id="Trazado_111180" data-name="Trazado 111180" d="M184.92,199.064l-6.794,6.009-1.987-1.6-.994,3.373c-.12.425-.056.737.144.881l2,1.514a.745.745,0,0,0,.713,0l2.54-1.074a3.3,3.3,0,0,0,1.739-1.811l2.636-7.315Z" transform="translate(-126.877 -175.141)" fill="#37474f"/>
            <path id="Trazado_111181" data-name="Trazado 111181" d="M185.419,199.07h0l-6.794,6.009-.969,3.285c-.128.449-.048.8.184.905h.433a1.4,1.4,0,0,0,.232-.056l2.54-1.074a3.3,3.3,0,0,0,1.739-1.811Z" transform="translate(-127.376 -175.147)" fill="#263238"/>
            <path id="Trazado_111182" data-name="Trazado 111182" d="M178.876,192.32l1.987,1.5a.184.184,0,0,0,.12.056.889.889,0,0,0,.329-.088l-2.924,9.951-1.987-1.6,2.8-9.559Z" transform="translate(-127.138 -173.805)" opacity="0.15"/>
            <path id="Trazado_111183" data-name="Trazado 111183" d="M179.871,190.15l2.011,1.514-.473,1.426a.336.336,0,0,0,0,.3l-1.987-1.5a.272.272,0,0,1-.04-.313Z" transform="translate(-127.725 -173.374)" opacity="0.1"/>
            <path id="Trazado_111184" data-name="Trazado 111184" d="M160.88,218.183l13.613-9.27,1.29-4.383-12.98,8.653Z" transform="translate(-124.054 -176.232)" fill="#263238"/>
            <path id="Trazado_111185" data-name="Trazado 111185" d="M174.762,203.41l-12.972,8.653,1.194.9,12.98-8.653Z" transform="translate(-124.234 -176.009)" fill="#455a64"/>
            <g id="freepik--mobile--inject-35-3" data-name="freepik--mobile--inject-35" transform="translate(21.937 34.945)">
              <path id="Trazado_111186" data-name="Trazado 111186" d="M158.245,212.861a.312.312,0,0,0-.288,0l-11.946,5.064a1.45,1.45,0,0,0-.7.721l-2.973,7.732c-.056.144-.048.256,0,.3l1.162.865c.056.048.152.048.28,0l11.954-5.064a1.474,1.474,0,0,0,.689-.721l2.981-7.732a.321.321,0,0,0,0-.3Z" transform="translate(-142.297 -212.826)" fill="#455a64"/>
              <path id="Trazado_111187" data-name="Trazado 111187" d="M146.77,220.435a1.307,1.307,0,0,0-.3.433l-2.981,7.732c-.048.144-.048.248,0,.3l-1.146-.857c-.064-.048-.072-.16,0-.3L145.32,220a1.347,1.347,0,0,1,.3-.433Z" transform="translate(-142.296 -214.167)" fill="#37474f"/>
              <path id="Trazado_111188" data-name="Trazado 111188" d="M144.086,227.773l11.954-5.064a1.474,1.474,0,0,0,.689-.721l2.981-7.732c.1-.28,0-.409-.3-.3l-11.954,5.064a1.474,1.474,0,0,0-.689.721l-2.981,7.732C143.677,227.757,143.813,227.885,144.086,227.773Z" transform="translate(-142.584 -213.043)" fill="#263238"/>
            </g>
            <path id="Trazado_111189" data-name="Trazado 111189" d="M142.592,222.17l-16.658,3.9L124.3,230.6l16.361-3.421Z" transform="translate(-116.783 -179.738)" fill="#263238"/>
            <path id="Trazado_111190" data-name="Trazado 111190" d="M126.062,225.855l-1.122-.921,16.626-3.854,1.154.873" transform="translate(-116.91 -179.522)" fill="#455a64"/>
            <path id="Trazado_111191" data-name="Trazado 111191" d="M162.071,208.21l-2.292,5.945-2.059.865,2.3-5.937Z" transform="translate(-123.425 -176.964)" fill="#263238"/>
            <path id="Trazado_111192" data-name="Trazado 111192" d="M154.2,211.49l-2.292,5.937-2.059.873,2.292-5.937Z" transform="translate(-121.861 -177.616)" fill="#263238"/>
            <path id="Trazado_111193" data-name="Trazado 111193" d="M150.663,212l-2,5.192,1.074.9,2-5.192Z" transform="translate(-121.625 -177.717)" fill="#37474f"/>
            <path id="Trazado_111194" data-name="Trazado 111194" d="M158.563,208.65l-2,5.192,1.074.9,2-5.192Z" transform="translate(-123.195 -177.051)" fill="#37474f"/>
            <g id="freepik--mobile--inject-35-4" data-name="freepik--mobile--inject-35" transform="translate(10.967)">
              <path id="Trazado_111195" data-name="Trazado 111195" d="M174.824,169.266a.441.441,0,0,0-.425,0L139.145,184.2a2.155,2.155,0,0,0-1.026,1.058l-9.455,24.566c-.088.224-.072.385,0,.457l1.715,1.282c.08.064.224.056.417,0l35.254-14.927a2.139,2.139,0,0,0,1.026-1.066l9.463-24.566a.468.468,0,0,0,0-.449Z" transform="translate(-128.605 -169.212)" fill="#455a64"/>
              <path id="Trazado_111196" data-name="Trazado 111196" d="M140.3,189.752a1.972,1.972,0,0,0-.441.633L130.4,214.951c-.08.208-.072.361,0,.441l-1.691-1.266c-.1-.072-.112-.232,0-.457l9.455-24.566a1.938,1.938,0,0,1,.433-.633Z" transform="translate(-128.61 -173.04)" fill="#37474f"/>
              <path id="Trazado_111197" data-name="Trazado 111197" d="M131.276,211.876l35.254-14.927a2.139,2.139,0,0,0,1.026-1.066l9.463-24.566c.16-.409-.048-.6-.449-.433L141.315,185.82a2.155,2.155,0,0,0-1.026,1.058l-9.455,24.566C130.667,211.828,130.867,212.052,131.276,211.876Z" transform="translate(-129.036 -169.532)" fill="#263238"/>
              <path id="Trazado_111198" data-name="Trazado 111198" d="M142.576,195.536l1.106-2.868a2.484,2.484,0,0,1,1.178-1.218l.561-.248c.737-.312,1.106.04.8.8l-1.106,2.868a2.484,2.484,0,0,1-1.178,1.218l-.561.248C142.656,196.626,142.287,196.29,142.576,195.536Z" transform="translate(-131.362 -173.56)" fill="#37474f"/>
              <path id="Trazado_111199" data-name="Trazado 111199" d="M143.317,195.914a2.316,2.316,0,0,1,1.114-1.114c.457-.2.7,0,.529.409a2.348,2.348,0,0,1-1.114,1.114C143.39,196.547,143.157,196.331,143.317,195.914Z" transform="translate(-131.519 -174.283)" fill="#455a64"/>
              <path id="Trazado_111200" data-name="Trazado 111200" d="M143.824,195.85a1.186,1.186,0,0,1,.569-.569c.232-.1.361,0,.272.208a1.154,1.154,0,0,1-.569.569C143.864,196.154,143.744,196.058,143.824,195.85Z" transform="translate(-131.625 -174.386)" fill="#fff" opacity="0.2"/>
              <path id="Trazado_111201" data-name="Trazado 111201" d="M144.367,193.255a2.283,2.283,0,0,1,1.114-1.114c.457-.192.689,0,.529.409a2.347,2.347,0,0,1-1.114,1.114C144.439,193.856,144.2,193.672,144.367,193.255Z" transform="translate(-131.727 -173.755)" fill="#455a64"/>
              <path id="Trazado_111202" data-name="Trazado 111202" d="M144.873,193.18a1.226,1.226,0,0,1,.569-.569c.232-.1.353,0,.272.208a1.242,1.242,0,0,1-.569.577C144.913,193.492,144.785,193.4,144.873,193.18Z" transform="translate(-131.833 -173.855)" fill="#fff" opacity="0.2"/>
              <path id="Trazado_111203" data-name="Trazado 111203" d="M140.123,193.3l-.232-.168a.232.232,0,0,0-.232,0l-.28.12a.232.232,0,0,0-.128.144l-.986,2.564a.449.449,0,0,0,.136.489l.232.168a.232.232,0,0,0,.232.04l.28-.12a.232.232,0,0,0,.128-.144l.986-2.564a.441.441,0,0,0-.136-.529Z" transform="translate(-130.52 -173.96)" fill="#263238"/>
              <path id="Trazado_111204" data-name="Trazado 111204" d="M139,196.5l.985-2.564a.441.441,0,0,0-.144-.489l-.224-.168a.224.224,0,0,0-.369.1l-.986,2.564a.449.449,0,0,0,.136.489l.232.168a.232.232,0,0,0,.369-.1Z" transform="translate(-130.52 -173.983)" fill="#455a64"/>
              <path id="Trazado_111205" data-name="Trazado 111205" d="M138.1,198.54l-.232-.168a.216.216,0,0,0-.232,0l-.28.12a.264.264,0,0,0-.136.144l-.986,2.556a.449.449,0,0,0,.144.5l.224.168a.248.248,0,0,0,.24,0l.28-.12a.232.232,0,0,0,.128-.144l.986-2.564A.449.449,0,0,0,138.1,198.54Z" transform="translate(-130.116 -175.001)" fill="#263238"/>
              <path id="Trazado_111206" data-name="Trazado 111206" d="M136.979,201.736l.986-2.564a.441.441,0,0,0-.144-.489l-.224-.168a.232.232,0,0,0-.377.1l-.986,2.556a.449.449,0,0,0,.144.5l.224.168a.232.232,0,0,0,.377-.1Z" transform="translate(-130.116 -175.025)" fill="#455a64"/>
            </g>
            <path id="Trazado_111207" data-name="Trazado 111207" d="M121.41,202.794a1.963,1.963,0,1,1-1.707-2.187,1.963,1.963,0,0,1,1.707,2.187Z" transform="translate(-115.431 -175.449)" fill="#263238"/>
            <path id="Trazado_111208" data-name="Trazado 111208" d="M121.462,202.878c-.337-.248-.905.072-1.21.513s-.32.889,0,1.122l3.069,2.316,2.179-.921Z" transform="translate(-115.931 -175.887)" fill="#37474f"/>
            <path id="Trazado_111209" data-name="Trazado 111209" d="M129.189,200.494a3.244,3.244,0,0,0-3.069-.112c-3.1,1.1-6.53,4.751-7.644,8.165-.617,1.875-.4,3.277.433,4.006l-.465,1.434a.344.344,0,0,0,.04.312l.329.248-3.83,12.908c-.128.425-.064.737.144.881s1.8,1.362,2,1.514a.745.745,0,0,0,.713,0l2.532-1.074a3.27,3.27,0,0,0,1.747-1.8l4.807-13.413.176-.072a1.09,1.09,0,0,0,.593-.625l.465-1.434a14.19,14.19,0,0,0,3.509-5.376c.633-1.931.385-3.365-.513-4.006C130.88,201.768,129.542,200.75,129.189,200.494Z" transform="translate(-114.918 -175.345)" fill="#d9a171"/>
            <path id="Trazado_111210" data-name="Trazado 111210" d="M118.756,217.8l1.987,1.49a.144.144,0,0,0,.112.056.738.738,0,0,0,.329-.088l-2.924,9.959-1.979-1.6,2.8-9.559Z" transform="translate(-115.188 -178.87)" opacity="0.15"/>
            <path id="Trazado_111211" data-name="Trazado 111211" d="M119.773,215.62l2.011,1.522-.465,1.426a.3.3,0,0,0,0,.288l-1.987-1.49a.272.272,0,0,1-.04-.312Z" transform="translate(-115.781 -178.436)" opacity="0.1"/>
            <path id="Trazado_111212" data-name="Trazado 111212" d="M132.245,206.454c1.114-3.413-.5-5.28-3.606-4.182s-6.53,4.759-7.644,8.165c-.617,1.875-.4,3.285.433,4.006l-.465,1.426c-.088.264,0,.409.272.32l.184-.064-3.886,13.244c-.224.745.152,1.146.849.905l2.532-1.082a3.269,3.269,0,0,0,1.747-1.8l4.807-13.413.176-.072a1.09,1.09,0,0,0,.593-.625l.465-1.434a14.19,14.19,0,0,0,3.541-5.392Z" transform="translate(-115.425 -175.721)" opacity="0.3"/>
            <path id="Trazado_111213" data-name="Trazado 111213" d="M124.791,224.544l-6.8,6.009-1.979-1.6-1.026,3.365c-.128.425-.064.737.144.881s1.8,1.362,2,1.514a.745.745,0,0,0,.713,0l2.532-1.074a3.269,3.269,0,0,0,1.747-1.8l2.636-7.315Z" transform="translate(-114.918 -180.206)" fill="#37474f"/>
            <path id="Trazado_111214" data-name="Trazado 111214" d="M125.3,224.55h0l-6.8,6.009-.961,3.285c-.128.441-.048.8.184.905h.433a1.457,1.457,0,0,0,.232-.064l2.532-1.074a3.269,3.269,0,0,0,1.747-1.8Z" transform="translate(-115.426 -180.211)" fill="#263238"/>
          </g>
          <path id="Trazado_111215" data-name="Trazado 111215" d="M75.9,150.88c-7.283,2.524-9.094,2.957-11.217,11.626-1.474,6-4.663,21.16-6.33,30.142-1.418,7.628-2.708,10.945,4.607,13.525,9.046,3.2,19.887,4.807,28.091,6.53,8.765,1.883,12.018,3.277,13.965,3.2,2.179-.1,6.5-2.58,8.4-3.614s.881-2.019,2.091-2.716c1.659-.961,1.13-1.787,1.386-3.485a3.926,3.926,0,0,0,1.322-2.54c.12-.921-.8-1.378-1.45-1.859a5.609,5.609,0,0,1-1.234,2.131,5.792,5.792,0,0,1-2.059,1.162,8.013,8.013,0,0,1-3.67,0,5.312,5.312,0,0,1-2.965-1.867,4.3,4.3,0,0,1-.721-3.245c.264-1.37.8-2.788.994-4.2a3.2,3.2,0,0,0-.569-2.58c-.425-.6-1.21-.865-1.554-.4a14.615,14.615,0,0,0-.9,1.9,9.808,9.808,0,0,1-1.106,1.939c-1.018,1.146-1.194,1.178-2.516,2.524a6.531,6.531,0,0,1-2.564,1.907c-.577.224-1.819.7-4.92-.1-7.1-1.811-18.6-7.419-18.6-7.419l5.168-19.486S81.81,161.032,75.9,150.88Z" transform="translate(-56.361 -149.766)" fill="#ffa8a7"/>
          <path id="Trazado_111216" data-name="Trazado 111216" d="M130.448,219.77a4.141,4.141,0,0,1-1.058.953,8.246,8.246,0,0,1-1.25.689,9.4,9.4,0,0,1-1.322.513,8.807,8.807,0,0,1-1.378.329c.857-.409,1.715-.8,2.556-1.162a15.408,15.408,0,0,0,2.452-1.322Z" transform="translate(-69.914 -163.46)" fill="#f28f8f"/>
          <path id="Trazado_111217" data-name="Trazado 111217" d="M128.214,224.55a5.608,5.608,0,0,1-1.114.8,12.076,12.076,0,0,1-1.226.665,12.422,12.422,0,0,1-1.274.537,11.078,11.078,0,0,1-1.33.409,27.241,27.241,0,0,1,2.452-1.266C126.571,225.3,127.388,224.967,128.214,224.55Z" transform="translate(-69.482 -164.41)" fill="#f28f8f"/>
          <path id="Trazado_111218" data-name="Trazado 111218" d="M75.706,149.49c-3.71,1.33-7.323,2.652-8.942,4.863A18.581,18.581,0,0,0,63.7,161.3c-1.058,4.006-2.844,11.418-5.24,23.789s-3.581,16.826-.312,18.989c6.979,4.671,24.157,6.658,24.157,6.658s-1.4-1.987-.24-6.987c1.106-4.807,3.646-5.553,3.646-5.553l-10.64-5.1,5.609-20.76S83.269,158.408,75.706,149.49Z" transform="translate(-56.138 -149.49)" fill="#37474f"/>
          <path id="Trazado_111219" data-name="Trazado 111219" d="M187.879,190.933a11,11,0,0,1-3.541.409,9.1,9.1,0,0,0-3.293.16c-.385.12-1.058.569-1.09,1.018s.385.529.8.729c-.889.272-1.266.633-1.378,1.05a.729.729,0,0,0,.385.857,1.6,1.6,0,0,0-.657.481,1,1,0,0,0-.192.857c.1.312.521.537.977.689a1.058,1.058,0,0,0-.681.889c0,.288.393.521.641.633,1.6.7,2.067,1.026,2.572.937a10.072,10.072,0,0,0,2.612-.489c.978-.409,1.266-1.21,1.987-1.843a2.492,2.492,0,0,0,.889-1.13,11.5,11.5,0,0,0,.433-1.955,2.692,2.692,0,0,1,.353-1.218c.264-.353.7-.577.921-.978a2.356,2.356,0,0,0,.056-1.947,13.376,13.376,0,0,1-.553-1.274s-.216.617-.32.962A1.442,1.442,0,0,1,187.879,190.933Z" transform="translate(-80.537 -157.306)" fill="#ffa8a7"/>
          <path id="Trazado_111220" data-name="Trazado 111220" d="M189.328,193.83a4.7,4.7,0,0,1-.8.641,3.269,3.269,0,0,1-1.018.353,8.484,8.484,0,0,1-2.115,0c-1.378-.136-2.764-.3-4.134-.561a39.976,39.976,0,0,1,4.166.208,12.691,12.691,0,0,0,2.051.1A3.934,3.934,0,0,0,189.328,193.83Z" transform="translate(-81.009 -158.303)" fill="#f28f8f"/>
          <path id="Trazado_111221" data-name="Trazado 111221" d="M188.1,196.22a4.7,4.7,0,0,1-.8.641,3.269,3.269,0,0,1-1.018.353,8.886,8.886,0,0,1-2.115,0c-1.378-.128-2.756-.288-4.126-.553,1.394,0,2.78.08,4.166.2a11.72,11.72,0,0,0,2.043.1A4.07,4.07,0,0,0,188.1,196.22Z" transform="translate(-80.766 -158.779)" fill="#f28f8f"/>
          <path id="Trazado_111222" data-name="Trazado 111222" d="M187.161,199.07a12.06,12.06,0,0,1-1.6.881,4.2,4.2,0,0,1-1.859.144,12.547,12.547,0,0,1-1.811-.3,10.282,10.282,0,0,1-1.739-.577c1.2.224,2.4.417,3.581.521a4.886,4.886,0,0,0,1.747-.056C186.015,199.527,186.576,199.246,187.161,199.07Z" transform="translate(-80.788 -159.345)" fill="#f28f8f"/>
        </g>
      </g>
    </g>
    <g id="freepik--Locator--inject-35" transform="translate(187.497 186.737)">
      <g id="freepik--Pin--inject-35" transform="translate(0 0)">
        <path id="Trazado_111282" data-name="Trazado 111282" d="M187.888,257.724V254.7a38.37,38.37,0,0,1,1.955-11.658h0c3.2-9.855,9.879-19.23,17.627-23.724,4.928-2.844,9.43-3.2,12.876-1.49l-6.778-3.9a10.007,10.007,0,0,0-5.609-1.65,9.493,9.493,0,0,0-.953.048,7.13,7.13,0,0,0-.994.112,7.362,7.362,0,0,0-1,.192c-.336.072-.681.168-1.034.272a19.123,19.123,0,0,0-2.123.8c-.361.16-.729.337-1.1.513s-.729.385-1.1.6c-10.833,6.25-19.6,22.082-19.6,35.39v3.037c0,13.3,17.883,27.763,17.883,27.763l7.251,4.086a2.3,2.3,0,0,1-.369-.272C199.49,279.886,187.888,268,187.888,257.724Zm21.361-27.971a8.227,8.227,0,0,1,.12,1.018,2.633,2.633,0,0,1,0,.361,5.1,5.1,0,0,1,0,.609c0,6.234-4.375,13.829-9.791,16.946l-.585.312c-.192.1-.393.184-.577.272l-.569.232h-.056c.841,4.807,4.807,6.41,9.615,3.686,5.4-3.125,9.775-10.712,9.775-16.954.056-5.48-3.381-8.108-7.932-6.45Z" transform="translate(-180.06 -212.269)" fill="#d9a171"/>
        <path id="Trazado_111283" data-name="Trazado 111283" d="M187.888,257.724V254.7a38.37,38.37,0,0,1,1.955-11.658h0c3.2-9.855,9.879-19.23,17.627-23.724,4.928-2.844,9.43-3.2,12.876-1.49l-6.778-3.9a10.007,10.007,0,0,0-5.609-1.65,9.493,9.493,0,0,0-.953.048,7.13,7.13,0,0,0-.994.112,7.362,7.362,0,0,0-1,.192c-.336.072-.681.168-1.034.272a19.123,19.123,0,0,0-2.123.8c-.361.16-.729.337-1.1.513s-.729.385-1.1.6c-10.833,6.25-19.6,22.082-19.6,35.39v3.037c0,13.3,17.883,27.763,17.883,27.763l7.251,4.086a2.3,2.3,0,0,1-.369-.272C199.49,279.886,187.888,268,187.888,257.724Z" transform="translate(-180.06 -212.269)" opacity="0.2"/>
        <path id="Trazado_111284" data-name="Trazado 111284" d="M213.648,234.008a8.225,8.225,0,0,1,.12,1.018,2.633,2.633,0,0,1,0,.361,5.087,5.087,0,0,1,0,.609c0,6.234-4.375,13.829-9.791,16.946l-.585.312c-.192.1-.393.184-.577.272l-.569.232h-.056c.841,4.807,4.807,6.41,9.615,3.686,5.4-3.125,9.775-10.712,9.775-16.954C221.636,234.977,218.2,232.349,213.648,234.008Z" transform="translate(-184.459 -216.493)" opacity="0.5"/>
        <path id="Trazado_111285" data-name="Trazado 111285" d="M228.97,233.248c0-13.3-8.766-19.029-19.574-12.82s-19.566,22.082-19.566,35.39v3.029c0,10.24,11.6,22.13,16.938,27.058a2.636,2.636,0,0,0,4.166-.8c4.607-9.438,18.036-37.858,18.036-48.875ZM209.4,254.361c-5.4,3.117-9.783.585-9.783-5.657S204,234.883,209.4,231.758s9.791-.593,9.791,5.649S214.8,251.236,209.4,254.361Z" transform="translate(-182.002 -213.393)" fill="#d9a171"/>
        <path id="Trazado_111286" data-name="Trazado 111286" d="M220.972,217.852l-6.778-3.9a10.008,10.008,0,0,0-5.609-1.651,6.5,6.5,0,0,0-.961.048c-.329.048-.649.064-.986.112a7.357,7.357,0,0,0-1,.192c-.337.072-.681.168-1.034.272a19.125,19.125,0,0,0-2.123.8c-.361.16-.729.337-1.1.513s-.729.385-1.1.6c-7.307,4.223-13.677,12.82-17.034,22.082l7.82,4.519c3.365-9.246,9.743-17.859,17.05-22.082C213.024,216.5,217.5,216.146,220.972,217.852Z" transform="translate(-180.694 -212.275)" fill="#d9a171"/>
        <path id="Trazado_111287" data-name="Trazado 111287" d="M220.972,217.852l-6.778-3.9a10.008,10.008,0,0,0-5.609-1.651,6.5,6.5,0,0,0-.961.048c-.329.048-.649.064-.986.112a7.357,7.357,0,0,0-1,.192c-.337.072-.681.168-1.034.272a19.125,19.125,0,0,0-2.123.8c-.361.16-.729.337-1.1.513s-.729.385-1.1.6c-7.307,4.223-13.677,12.82-17.034,22.082l7.82,4.519c3.365-9.246,9.743-17.859,17.05-22.082C213.024,216.5,217.5,216.146,220.972,217.852Z" transform="translate(-180.694 -212.275)" fill="#fff" opacity="0.3"/>
        <path id="Trazado_111288" data-name="Trazado 111288" d="M209.388,221.09l-1.162.8a13.246,13.246,0,0,0-1.146.8c-.713.6-1.482,1.146-2.139,1.811s-1.386,1.258-2.011,1.955l-.969,1.026-.9,1.082A51.278,51.278,0,0,0,191.04,248.38c-.248.9-.393,1.819-.585,2.732s-.256,1.851-.393,2.78-.136,1.859-.184,2.8l-.08,2.82-.088-2.82c0-.937,0-1.883.04-2.82a28.072,28.072,0,0,1,.3-2.82c.136-.937.288-1.867.5-2.78a46.472,46.472,0,0,1,10.128-20.031A32.288,32.288,0,0,1,209.388,221.09Z" transform="translate(-181.978 -214.023)" fill="#d9a171"/>
        <g id="Grupo_59744" data-name="Grupo 59744" transform="translate(7.732 7.067)" opacity="0.5">
          <path id="Trazado_111289" data-name="Trazado 111289" d="M209.388,221.09l-1.162.8a13.246,13.246,0,0,0-1.146.8c-.713.6-1.482,1.146-2.139,1.811s-1.386,1.258-2.011,1.955l-.969,1.026-.9,1.082A51.278,51.278,0,0,0,191.04,248.38c-.248.9-.393,1.819-.585,2.732s-.256,1.851-.393,2.78-.136,1.859-.184,2.8l-.08,2.82-.088-2.82c0-.937,0-1.883.04-2.82a28.072,28.072,0,0,1,.3-2.82c.136-.937.288-1.867.5-2.78a46.472,46.472,0,0,1,10.128-20.031A32.288,32.288,0,0,1,209.388,221.09Z" transform="translate(-189.71 -221.09)" fill="#fff"/>
        </g>
      </g>
    </g>
    <g id="freepik--speech-bubble--inject-35-7" data-name="freepik--speech-bubble--inject-35" transform="translate(112.816 72.362)">
      <g id="freepik--speech-bubble--inject-35-8" data-name="freepik--speech-bubble--inject-35" transform="translate(0 0)">
        <g id="freepik--speech-bubble--inject-35-9" data-name="freepik--speech-bubble--inject-35">
          <path id="Trazado_111290" data-name="Trazado 111290" d="M183.023,53.949,158.361,68.211c-.489.28-.881.961-.881,2.283v30.15c0-.2.393.481.881.753l2.54,1.442a1.979,1.979,0,0,0,1.763,0l24.662-14.278a1.939,1.939,0,0,0,.881-1.522V56.889a1.907,1.907,0,0,0-.881-1.514l-2.54-1.426a1.979,1.979,0,0,0-1.763,0Z" transform="translate(-149.756 -53.742)" fill="#aed3f2"/>
          <path id="Trazado_111291" data-name="Trazado 111291" d="M162.708,106.568a2.019,2.019,0,0,1-1.771,0l-2.532-1.442c-.489-.272-.881-.953-.881-.753V74.239a2.885,2.885,0,0,1,.28-1.659l4.287,2.476c-.168.272-.264.585-.264.1V105.3C161.787,106.568,162.147,106.873,162.708,106.568Z" transform="translate(-149.76 -57.486)" opacity="0.2"/>
          <path id="Trazado_111293" data-name="Trazado 111293" d="M152.183,97.925c-.553-.329-3.806-2.155-3.942-2.235a.8.8,0,0,1-.168-1.258l7.492-8.581,4.3,2.468-7.836,8.373a.8.8,0,0,0,.152,1.234Z" transform="translate(-147.84 -60.124)" fill="#aed3f2"/>
          <path id="Trazado_111295" data-name="Trazado 111295" d="M186.405,56.976l-24.622,14.3A1.939,1.939,0,0,0,160.9,72.8v9.759l-7.836,8.373a.8.8,0,0,0,.5,1.346l7.331-.537h0v11.217c0,.561.393.8.881.513l24.622-14.286a1.939,1.939,0,0,0,.881-1.522V57.513A.557.557,0,0,0,186.405,56.976Z" transform="translate(-148.836 -54.365)" fill="#6595bf"/>
        </g>
        <path id="freepik--Check--inject-35" d="M184.826,67.508a2.187,2.187,0,0,0-2.852,1.162l-8.285,19.71-1.971-1.915a2.19,2.19,0,0,0-3.053,3.141l4.279,4.158a2.2,2.2,0,0,0,1.522.617,2.115,2.115,0,0,0,.441-.048,2.155,2.155,0,0,0,1.6-1.29l9.527-22.667a2.187,2.187,0,0,0-1.21-2.868Z" transform="translate(-151.848 -56.444)" fill="#fafafa"/>
      </g>
    </g>
  </g>
</svg>
