<svg xmlns="http://www.w3.org/2000/svg" width="358.7" height="342.35" viewBox="0 0 358.7 342.35">
  <defs>
    <style>
      .cls-1 {
        fill: #e0e0e0;
      }

      .cls-2 {
        fill: #37474f;
      }

      .cls-3 {
        fill: #263238;
      }

      .cls-4 {
        fill: #455a64;
      }

      .cls-5 {
        fill: #fafafa;
      }

      .cls-6 {
        fill: #d9a171;
      }

      .cls-7 {
        opacity: 0.2;
      }

      .cls-8 {
        opacity: 0.1;
      }

      .cls-11, .cls-12, .cls-13, .cls-18, .cls-22, .cls-25, .cls-9 {
        fill: #fff;
      }

      .cls-9 {
        opacity: 0.35;
      }

      .cls-10 {
        opacity: 0.05;
      }

      .cls-11 {
        opacity: 0.95;
      }

      .cls-12 {
        opacity: 0.8;
      }

      .cls-13, .cls-23 {
        opacity: 0.7;
      }

      .cls-14 {
        fill: #6595bf;
      }

      .cls-15 {
        fill: #ffa8a7;
      }

      .cls-16 {
        fill: #f28f8f;
      }

      .cls-17 {
        fill: #b16668;
      }

      .cls-18, .cls-21 {
        opacity: 0.4;
      }

      .cls-19 {
        opacity: 0.15;
      }

      .cls-20, .cls-25 {
        opacity: 0.3;
      }

      .cls-24 {
        opacity: 0.25;
      }
    </style>
  </defs>
  <g id="Email_campaign-amico" data-name="Email campaign-amico" transform="translate(-36.068 -38.6)">
    <g id="freepik--Shadows--inject-257" transform="translate(36.067 175.348)">
      <path id="freepik--Shadow--inject-257" class="cls-1" d="M359.315,392.41a5.5,5.5,0,0,1-2.747-.65l-32.55-18.833a3.372,3.372,0,0,1,0-6.028l53.932-31.119a5.822,5.822,0,0,1,5.5,0L416,354.572a3.372,3.372,0,0,1,0,6.028L362.07,391.76a5.535,5.535,0,0,1-2.755.65Z" transform="translate(-86.883 -228.01)"/>
      <path id="freepik--shadow--inject-257-2" data-name="freepik--shadow--inject-257" class="cls-1" d="M275.1,443.052a52.632,52.632,0,0,1-12.2-1.39,44.912,44.912,0,0,1-10.765-3.972l-.074-.041c-.658-.37-1.5-.872-2.582-1.546s-2.056-1.308-3.125-2.007-2.089-1.382-3.026-2.031-1.735-1.209-2.294-1.645a21.917,21.917,0,0,1-6.267-7.4,14.663,14.663,0,0,1-1.316-9.507,19.614,19.614,0,0,1,4.934-9.211,38.353,38.353,0,0,1,10.855-7.969,71.549,71.549,0,0,1,15.206-6.11,56.343,56.343,0,0,1,13.808-1.982h.411a45.009,45.009,0,0,1,11.974,1.554,51.81,51.81,0,0,1,10.584,4.227q1.933,1.077,4.169,2.541c1.513.987,2.78,1.875,3.865,2.714a12.59,12.59,0,0,1,4.235,4.934,9.367,9.367,0,0,1,.732,5.239h.592a6.825,6.825,0,0,1,4.112,1.308A4.934,4.934,0,0,1,321,415.592a28.775,28.775,0,0,1-1,4.2,17.039,17.039,0,0,1-2.994,5.378,32.631,32.631,0,0,1-5.452,5.255,65.675,65.675,0,0,1-22.722,10.913,58.684,58.684,0,0,1-13.429,1.7Zm-2.887-27.871c.148.107.313.222.5.337A9.819,9.819,0,0,0,277,417.163c.263,0,.518.041.757.041a5.2,5.2,0,0,0,1.76-.288c-.132-.1-.28-.2-.444-.3a10.42,10.42,0,0,0-4.334-1.719,5.934,5.934,0,0,0-.757-.049A5.189,5.189,0,0,0,272.218,415.181Z" transform="translate(-71.078 -237.45)"/>
      <path id="freepik--shadow--inject-257-3" data-name="freepik--shadow--inject-257" class="cls-1" d="M143.6,395.492,37.739,334.5c-2.229-1.283-2.229-3.372,0-4.663l214.847-123.99a8.923,8.923,0,0,1,8.084,0l105.865,60.98c2.237,1.283,2.237,3.38,0,4.663l-214.847,124A8.972,8.972,0,0,1,143.6,395.492Z" transform="translate(-36.068 -204.883)"/>
    </g>
    <g id="freepik--Device--inject-257" transform="translate(39.088 167.704)">
      <g id="freepik--device--inject-257-2" data-name="freepik--device--inject-257" transform="translate(0)">
        <g id="freepik--Mobile--inject-257">
          <path id="Trazado_110212" data-name="Trazado 110212" class="cls-2" d="M45.4,328.963l98.423,56.818a10.609,10.609,0,0,0,10.272.189L352.245,271.586c3.125-1.8,5.65-5.839,5.658-9.046s-2.533-7.2-5.658-9.005l-98.061-56.6a12.492,12.492,0,0,0-11.3,0L45.4,310.953c-3.125,1.809-5.658,5.839-5.658,9.005S42.273,327.162,45.4,328.963Z" transform="translate(-39.74 -195.588)"/>
          <path id="Trazado_110213" data-name="Trazado 110213" class="cls-3" d="M143.821,397.755,45.4,340.937c-3.125-1.8-5.658-5.831-5.658-9.005s2.533-7.2,5.658-9.005L149.174,263V399.162a10.436,10.436,0,0,1-5.354-1.406Z" transform="translate(-39.74 -207.561)"/>
          <path id="Trazado_110214" data-name="Trazado 110214" class="cls-4" d="M146.885,375.658a11.078,11.078,0,0,0,9.967,0L352.99,262.416c4.219-2.467,4.219-6.423,0-8.857l-98.077-56.621a12.492,12.492,0,0,0-11.3,0L46.126,310.953c-3.109,1.8-3.109,4.737,0,6.53Z" transform="translate(-40.46 -195.588)"/>
          <path id="Trazado_110215" data-name="Trazado 110215" class="cls-2" d="M160.325,366.515a11.834,11.834,0,0,0,10.74,0l168.761-97.444c2.969-1.711,2.969-4.49,0-6.2l-92.247-53.257a11.883,11.883,0,0,0-10.74,0L68.062,307.049c-2.952,1.711-2.952,4.5,0,6.209Z" transform="translate(-44.377 -197.851)"/>
          <path id="Trazado_110216" data-name="Trazado 110216" class="cls-3" d="M280.69,208.35a10.872,10.872,0,0,1,5.049,1.266l92.246,53.257c2.969,1.711,2.969,4.49,0,6.2l-18.273,10.535L280.69,229.148Z" transform="translate(-82.537 -197.854)"/>
          <path id="Trazado_110217" data-name="Trazado 110217" class="cls-5" d="M236.95,214.513a11.883,11.883,0,0,1,10.74,0l92.263,53.257a5.593,5.593,0,0,1,1.406,1.127,5.42,5.42,0,0,1-1.34,1.044L171.241,367.385a11.834,11.834,0,0,1-10.74,0L68.238,314.128a5.494,5.494,0,0,1-1.4-1.118,5.388,5.388,0,0,1,1.332-1.053Z" transform="translate(-44.553 -198.721)"/>
          <path id="Trazado_110218" data-name="Trazado 110218" class="cls-3" d="M354.3,241.812l-16.349-9.441c-.979-.567-1.028-1.447-.115-1.974a3.791,3.791,0,0,1,3.429.058l16.324,9.416c.979.567,1.028,1.447.107,1.982A3.8,3.8,0,0,1,354.3,241.812Z" transform="translate(-92.572 -201.703)"/>
          <path id="Trazado_110219" data-name="Trazado 110219" class="cls-3" d="M323.722,224.182a1.012,1.012,0,0,1,0-1.916,3.676,3.676,0,0,1,3.29,0,1.012,1.012,0,0,1,0,1.916A3.676,3.676,0,0,1,323.722,224.182Z" transform="translate(-90.058 -200.257)"/>
          <path id="Trazado_110220" data-name="Trazado 110220" class="cls-3" d="M315.662,219.5a1.012,1.012,0,0,1,0-1.916,3.676,3.676,0,0,1,3.29,0,1.012,1.012,0,0,1,0,1.916A3.676,3.676,0,0,1,315.662,219.5Z" transform="translate(-88.627 -199.426)"/>
          <path id="Trazado_110221" data-name="Trazado 110221" class="cls-3" d="M380.142,256.752a1.012,1.012,0,0,1,0-1.916,3.676,3.676,0,0,1,3.29,0,1.012,1.012,0,0,1,0,1.916A3.676,3.676,0,0,1,380.142,256.752Z" transform="translate(-100.08 -206.042)"/>
          <path id="Trazado_110222" data-name="Trazado 110222" class="cls-3" d="M372.082,252.092a1.012,1.012,0,0,1,0-1.916,3.676,3.676,0,0,1,3.29,0,1.012,1.012,0,0,1,0,1.916A3.676,3.676,0,0,1,372.082,252.092Z" transform="translate(-98.648 -205.215)"/>
        </g>
        <g id="freepik--Notification--inject-257" transform="translate(156.705 68.502)">
          <path id="Trazado_110235" data-name="Trazado 110235" class="cls-6" d="M252.256,337.821l-21.6-12.467c-.493-.288-.493-.748,0-1.028l78.389-45.231a1.982,1.982,0,0,1,1.776,0l21.6,12.476c.493.28.493.74,0,1.028L254.04,337.829a1.949,1.949,0,0,1-1.785-.008Z" transform="translate(-230.29 -278.884)"/>
          <path id="Trazado_110236" data-name="Trazado 110236" class="cls-5" d="M250.414,332.791a.428.428,0,0,1-.222.058h-.173l-4.49-.51,2.656,1.538a.107.107,0,0,1,0,.2l-.526.3a.287.287,0,0,1-.173,0,.3.3,0,0,1-.173,0l-4.169-2.4c-.049,0-.074-.066-.074-.107a.123.123,0,0,1,.074-.1l.452-.263a.444.444,0,0,1,.222-.058H244l4.49.51-2.665-1.538a.107.107,0,0,1,0-.2l.526-.3a.378.378,0,0,1,.173-.041.337.337,0,0,1,.173.041l4.169,2.41a.1.1,0,0,1,0,.2Z" transform="translate(-232.56 -287.942)"/>
          <path id="Trazado_110237" data-name="Trazado 110237" class="cls-5" d="M251.475,330.753a2.179,2.179,0,0,1-.567-.452.937.937,0,0,1-.238-.5.822.822,0,0,1,.132-.51,1.365,1.365,0,0,1,.518-.452,2.814,2.814,0,0,1,.781-.3,3.842,3.842,0,0,1,.863-.082,4.114,4.114,0,0,1,.822.115,2.976,2.976,0,0,1,.74.3l.288.165a.107.107,0,0,1,0,.2l-2.155,1.25a1.038,1.038,0,0,0,.329.115,1.643,1.643,0,0,0,.354,0,2.7,2.7,0,0,0,.354-.074,1.561,1.561,0,0,0,.312-.14,1.25,1.25,0,0,0,.3-.214.411.411,0,0,0,.107-.189.263.263,0,0,1,.049-.107.362.362,0,0,1,.1-.082l.518-.3a.378.378,0,0,1,.173-.041.271.271,0,0,1,.173.041.3.3,0,0,1,.132.189.534.534,0,0,1,0,.321,1.028,1.028,0,0,1-.23.4,2.022,2.022,0,0,1-.535.428,3.214,3.214,0,0,1-.781.3,3.749,3.749,0,0,1-.864.082,3.866,3.866,0,0,1-.822-.14A3.791,3.791,0,0,1,251.475,330.753Zm.617-1.472a.938.938,0,0,0-.263.214.411.411,0,0,0-.082.214.321.321,0,0,0,.058.189.427.427,0,0,0,.14.156l1.456-.822a1.72,1.72,0,0,0-.247-.09,1.241,1.241,0,0,0-.313-.049,1.8,1.8,0,0,0-.354.041,1.92,1.92,0,0,0-.395.148Z" transform="translate(-233.909 -287.688)"/>
          <path id="Trazado_110238" data-name="Trazado 110238" class="cls-5" d="M259.439,326.114l-1.258-1.406a.2.2,0,0,1-.049-.09.115.115,0,0,1,.074-.1l.485-.288a.4.4,0,0,1,.181-.041.378.378,0,0,1,.173.041h0l2.007,2.278a.279.279,0,0,1,.049.1.132.132,0,0,1-.074.107l-.493.28a.3.3,0,0,1-.181.041h-.173l-2.344-.633,1.094,1.357a.28.28,0,0,1,.049.1.115.115,0,0,1-.074.1l-.485.288a.3.3,0,0,1-.181.041.582.582,0,0,1-.173,0l-3.947-1.151h-.049a.1.1,0,0,1,0-.2l.485-.288a.3.3,0,0,1,.181-.041h.156l2.426.724-1.225-1.423a.115.115,0,0,1,0-.09.1.1,0,0,1,.066-.1l.493-.288a.362.362,0,0,1,.173,0,.494.494,0,0,1,.164,0Z" transform="translate(-234.496 -286.932)"/>
          <path id="Trazado_110239" data-name="Trazado 110239" class="cls-5" d="M263.995,323.5a2.2,2.2,0,0,1-.567-.461.913.913,0,0,1-.238-.5.707.707,0,0,1,.123-.5,1.521,1.521,0,0,1,.518-.461,2.968,2.968,0,0,1,.822-.3,4.309,4.309,0,0,1,.822-.082,3.7,3.7,0,0,1,.822.123,2.682,2.682,0,0,1,.74.3l.288.164q.074.049.074.1c0,.041,0,.074-.074.107l-2.155,1.242a.88.88,0,0,0,.321.115,1.7,1.7,0,0,0,.354,0,1.415,1.415,0,0,0,.362-.074,1.2,1.2,0,0,0,.313-.14,1.053,1.053,0,0,0,.3-.214.469.469,0,0,0,.107-.181.313.313,0,0,1,.041-.115.239.239,0,0,1,.107-.074l.518-.3a.386.386,0,0,1,.345,0,.4.4,0,0,1,.132.2.535.535,0,0,1,0,.321,1.383,1.383,0,0,1-.23.4,2.073,2.073,0,0,1-.543.419,2.812,2.812,0,0,1-.781.3,3.29,3.29,0,0,1-.822.082,3.5,3.5,0,0,1-.872-.14A3.339,3.339,0,0,1,263.995,323.5Zm.617-1.472a.724.724,0,0,0-.263.214.337.337,0,0,0-.082.214.312.312,0,0,0,.049.189.824.824,0,0,0,.14.148l1.464-.822a1.524,1.524,0,0,0-.255-.09,1.183,1.183,0,0,0-.3-.041,1.07,1.07,0,0,0-.354.041,1.151,1.151,0,0,0-.395.173Z" transform="translate(-236.132 -286.399)"/>
          <path id="Trazado_110240" data-name="Trazado 110240" class="cls-5" d="M268.026,319.283a.551.551,0,0,1,.09-.387.962.962,0,0,1,.354-.321,2.31,2.31,0,0,1,.822-.3,2.885,2.885,0,0,1,.822,0,.634.634,0,0,1,0-.247.731.731,0,0,1,.091-.255.929.929,0,0,1,.181-.23,1.58,1.58,0,0,1,.255-.189,2.352,2.352,0,0,1,.732-.28,2.7,2.7,0,0,1,.724-.041,2.871,2.871,0,0,1,.7.156,4.056,4.056,0,0,1,.633.3l1.743,1a.115.115,0,0,1,0,.206l-.493.28a.379.379,0,0,1-.173.041.4.4,0,0,1-.181-.041l-1.7-.987a1.735,1.735,0,0,0-.781-.255,1.275,1.275,0,0,0-.641.173.453.453,0,0,0-.271.354c0,.132.115.288.387.452l1.735,1a.1.1,0,0,1,0,.2l-.493.288a.337.337,0,0,1-.173.041.378.378,0,0,1-.173-.041l-1.7-.987a1.579,1.579,0,0,0-.781-.255,1.11,1.11,0,0,0-.641.173.452.452,0,0,0-.28.362c0,.14.132.3.428.461l1.7.979a.14.14,0,0,1,.066.107.123.123,0,0,1-.066.1l-.493.28a.387.387,0,0,1-.345,0l-3.01-1.735a.1.1,0,0,1,0-.2l.493-.288a.337.337,0,0,1,.173-.041.379.379,0,0,1,.173.041Z" transform="translate(-236.809 -285.66)"/>
          <path id="Trazado_110241" data-name="Trazado 110241" class="cls-5" d="M275.017,316.177a.707.707,0,0,1-.173-.238.526.526,0,0,1,0-.321.823.823,0,0,1,.189-.37,1.686,1.686,0,0,1,.493-.387,3.568,3.568,0,0,1,.683-.3,3.43,3.43,0,0,1,.707-.115,2.368,2.368,0,0,1,.715.082,2.747,2.747,0,0,1,.691.271l1.9,1.094a.14.14,0,0,1,.066.107.115.115,0,0,1-.066.1l-.493.28a.3.3,0,0,1-.173.041.271.271,0,0,1-.173-.041l-.214-.123a.551.551,0,0,1-.074.411,1.316,1.316,0,0,1-.518.452,2.466,2.466,0,0,1-.567.247,2.392,2.392,0,0,1-.576.09,2.987,2.987,0,0,1-.551-.049,1.81,1.81,0,0,1-.485-.189c-.3-.173-.419-.37-.378-.584a1.25,1.25,0,0,1,.5-.691l.872-.707a.822.822,0,0,0-.551-.115,1.463,1.463,0,0,0-.543.181.666.666,0,0,0-.206.173.461.461,0,0,0-.049.173.412.412,0,0,1,0,.107.255.255,0,0,1-.09.066l-.6.354a.28.28,0,0,1-.148,0,.164.164,0,0,1-.189,0Zm2.895.428a1.274,1.274,0,0,0,.329-.263.485.485,0,0,0,.123-.263.37.37,0,0,0-.058-.23.576.576,0,0,0-.206-.189l-.066-.041-.724.6a.642.642,0,0,0-.247.3.189.189,0,0,0,.115.206.5.5,0,0,0,.337,0,1.347,1.347,0,0,0,.395-.115Z" transform="translate(-238.199 -285.201)"/>
          <path id="Trazado_110242" data-name="Trazado 110242" class="cls-5" d="M277.755,311.991a.386.386,0,0,1,.345,0l.5.288a.123.123,0,0,1,.074.1c0,.041,0,.074-.074.107l-.551.321a.377.377,0,0,1-.173.041.4.4,0,0,1-.181-.041l-.5-.3a.107.107,0,0,1,0-.2Zm4.548,2.467c.049,0,.074.066.074.107s0,.066-.074.1l-.493.28a.354.354,0,0,1-.173.041.3.3,0,0,1-.173-.041l-3.01-1.735a.115.115,0,0,1-.066-.1.1.1,0,0,1,.066-.1l.493-.288a.378.378,0,0,1,.173-.041.337.337,0,0,1,.173.041Z" transform="translate(-238.61 -284.758)"/>
          <path id="Trazado_110243" data-name="Trazado 110243" class="cls-5" d="M284.41,313.274a.107.107,0,0,1,0,.2l-.485.288a.378.378,0,0,1-.173.041.4.4,0,0,1-.181-.041l-4.235-2.467a.14.14,0,0,1-.066-.107.123.123,0,0,1,.066-.1l.493-.28a.3.3,0,0,1,.173,0,.312.312,0,0,1,.181,0Z" transform="translate(-238.99 -284.552)"/>
          <path id="Trazado_110244" data-name="Trazado 110244" class="cls-5" d="M254.243,329.581l63.965-36.925a2.854,2.854,0,0,1,2.566-.156c.633.362.51,1.028-.271,1.48l-63.965,36.933a2.878,2.878,0,0,1-2.574.156C253.33,330.7,253.462,330.042,254.243,329.581Z" transform="translate(-234.423 -281.262)"/>
          <path id="Trazado_110245" data-name="Trazado 110245" class="cls-5" d="M259.7,332.74l63.965-36.925a2.862,2.862,0,0,1,2.566-.164c.641.37.51,1.028-.271,1.488L262,334.064a2.878,2.878,0,0,1-2.574.164C258.8,333.859,258.922,333.192,259.7,332.74Z" transform="translate(-235.394 -281.822)"/>
        </g>
      </g>
    </g>
    <g id="freepik--Character--inject-257" transform="translate(91.737 58.054)">
      <g id="freepik--character-envelope--inject-257">
        <path id="freepik--shadow--inject-257-4" data-name="freepik--shadow--inject-257" class="cls-1" d="M137.165,347.114,103.76,327.829l149.64-86.4,34.088,18.9Z" transform="translate(-103.76 -94.081)"/>
        <g id="freepik--Back--inject-257" transform="translate(24.367 16.076)">
          <path id="Trazado_110246" data-name="Trazado 110246" class="cls-6" d="M133.39,205.982,275.711,123.81l5.691,3.29a5.954,5.954,0,0,1,2.681,4.638V236.723a5.937,5.937,0,0,1-2.681,4.638l-136.959,79.08a5.954,5.954,0,0,1-5.354,0l-3.018-1.743a5.954,5.954,0,0,1-2.681-4.638Z" transform="translate(-133.39 -89.265)"/>
          <path id="Trazado_110247" data-name="Trazado 110247" class="cls-7" d="M133.39,205.982,275.711,123.81l5.691,3.29a5.954,5.954,0,0,1,2.681,4.638V236.723a5.937,5.937,0,0,1-2.681,4.638l-136.959,79.08a5.954,5.954,0,0,1-5.354,0l-3.018-1.743a5.954,5.954,0,0,1-2.681-4.638Z" transform="translate(-133.39 -89.265)"/>
          <path id="Trazado_110248" data-name="Trazado 110248" class="cls-6" d="M274.922,107.125l.584-.312-2.212-1.291h0a4.266,4.266,0,0,0-.584-.288l-62.633-23.2a4.326,4.326,0,0,0-4.811,1.53L135.2,185.884a12.138,12.138,0,0,0-1.809,5.839v6.8l2.171,1.258,140.15-83.431v-6.793A4.572,4.572,0,0,0,274.922,107.125Z" transform="translate(-133.39 -81.807)"/>
          <path id="Trazado_110249" data-name="Trazado 110249" class="cls-8" d="M208.269,84.277a3.808,3.808,0,0,0-.724.773L137.479,187.363a10.691,10.691,0,0,0-1.3,2.928L134,189.032a12.741,12.741,0,0,1,.567-1.546.341.341,0,0,1,0-.049c.1-.214.2-.411.3-.617a.551.551,0,0,1,.049-.1,6.111,6.111,0,0,1,.37-.617L205.374,83.833a3.561,3.561,0,0,1,.345-.428c.123-.115.247-.238.378-.345Z" transform="translate(-133.498 -82.027)"/>
          <path id="Trazado_110250" data-name="Trazado 110250" class="cls-9" d="M291.161,106.793a3.355,3.355,0,0,0-.6-.288L227.92,83.289a4.3,4.3,0,0,0-4.112.765l-2.138-1.266a4.342,4.342,0,0,1,4.112-.765l62.608,23.216a3.5,3.5,0,0,1,.584.288Z" transform="translate(-149.07 -81.804)"/>
          <path id="Trazado_110251" data-name="Trazado 110251" class="cls-6" d="M135.14,208.977a5.556,5.556,0,0,1,.37-.617,5.561,5.561,0,0,0-.37.617Z" transform="translate(-133.701 -104.283)"/>
          <path id="Trazado_110252" data-name="Trazado 110252" class="cls-6" d="M221.22,83.355a3.675,3.675,0,0,1,.37-.345A3.675,3.675,0,0,0,221.22,83.355Z" transform="translate(-148.99 -82.018)"/>
          <path id="Trazado_110253" data-name="Trazado 110253" class="cls-6" d="M134,211.584a13.426,13.426,0,0,1,.576-1.554,13.425,13.425,0,0,0-.576,1.554Z" transform="translate(-133.498 -104.58)"/>
          <path id="Trazado_110254" data-name="Trazado 110254" class="cls-6" d="M134.71,209.867c.09-.214.2-.419.3-.617C134.948,209.431,134.8,209.637,134.71,209.867Z" transform="translate(-133.624 -104.441)"/>
          <path id="Trazado_110255" data-name="Trazado 110255" class="cls-7" d="M134.69,209.989v0Z" transform="translate(-133.621 -104.563)"/>
          <path id="Trazado_110256" data-name="Trazado 110256" class="cls-7" d="M133.99,211.92Z" transform="translate(-133.497 -104.915)"/>
          <path id="Trazado_110257" data-name="Trazado 110257" class="cls-7" d="M221.67,83.01Z" transform="translate(-149.07 -82.018)"/>
          <path id="Trazado_110258" data-name="Trazado 110258" class="cls-7" d="M135.07,209.209a.617.617,0,0,1,.058-.1.617.617,0,0,0-.058.1Z" transform="translate(-133.688 -104.416)"/>
          <path id="Trazado_110259" data-name="Trazado 110259" class="cls-7" d="M220.79,83.849a2.813,2.813,0,0,1,.354-.419A2.813,2.813,0,0,0,220.79,83.849Z" transform="translate(-148.914 -82.093)"/>
          <path id="Trazado_110260" data-name="Trazado 110260" class="cls-6" d="M207.9,85.1,137.834,187.415A12.2,12.2,0,0,0,136,193.262v6.793l142.321-82.172V111.09a4.934,4.934,0,0,0-3-4.309L212.712,83.573A4.3,4.3,0,0,0,207.9,85.1Z" transform="translate(-133.854 -82.08)"/>
          <path id="Trazado_110261" data-name="Trazado 110261" class="cls-10" d="M278.346,116.563a4.6,4.6,0,0,0-.765-2.393L136.535,195.816h0a10.576,10.576,0,0,0-.535,2.919v6.793l142.321-82.172Z" transform="translate(-133.854 -87.553)"/>
        </g>
        <g id="freepik--Paper--inject-257" transform="translate(37.024 12.134)">
          <path id="Trazado_110262" data-name="Trazado 110262" class="cls-6" d="M274.539,81.114a1.645,1.645,0,0,0-.666-1.489l-4.35-2.467a1.645,1.645,0,0,0-1.645.164L151.1,144.758a5.115,5.115,0,0,0-2.311,4v139.8a1.645,1.645,0,0,0,.674,1.5l4.334,2.467a1.645,1.645,0,0,0,1.645-.156l116.778-67.394a5.123,5.123,0,0,0,2.319-4.063Z" transform="translate(-148.78 -77.011)"/>
          <path id="Trazado_110263" data-name="Trazado 110263" class="cls-11" d="M274.539,81.114a1.645,1.645,0,0,0-.666-1.489l-4.35-2.467a1.645,1.645,0,0,0-1.645.164L151.1,144.758a5.115,5.115,0,0,0-2.311,4v139.8a1.645,1.645,0,0,0,.674,1.5l4.334,2.467a1.645,1.645,0,0,0,1.645-.156l116.778-67.394a5.123,5.123,0,0,0,2.319-4.063Z" transform="translate(-148.78 -77.011)"/>
          <path id="Trazado_110264" data-name="Trazado 110264" class="cls-6" d="M156.441,292.857l116.778-67.394a5.123,5.123,0,0,0,2.27-4.013V81.645c0-1.472-1.036-2.064-2.311-1.332L156.441,147.748a5.123,5.123,0,0,0-2.311,4v139.8C154.13,293,155.166,293.589,156.441,292.857Z" transform="translate(-149.73 -77.541)"/>
          <path id="Trazado_110265" data-name="Trazado 110265" class="cls-12" d="M156.441,292.857l116.778-67.394a5.123,5.123,0,0,0,2.27-4.013V81.645c0-1.472-1.036-2.064-2.311-1.332L156.441,147.748a5.123,5.123,0,0,0-2.311,4v139.8C154.13,293,155.166,293.589,156.441,292.857Z" transform="translate(-149.73 -77.541)"/>
          <path id="Trazado_110266" data-name="Trazado 110266" class="cls-6" d="M153.192,305.976a1.735,1.735,0,0,0,.543,1.414c-.781-.444-3.808-2.2-4.194-2.418a1.6,1.6,0,0,1-.683-1.488V163.68a4.622,4.622,0,0,1,.683-2.27l4.334,2.467a4.7,4.7,0,0,0-.683,2.286Z" transform="translate(-148.792 -92.001)"/>
          <path id="Trazado_110267" data-name="Trazado 110267" class="cls-13" d="M153.192,305.976a1.735,1.735,0,0,0,.543,1.414c-.781-.444-3.808-2.2-4.194-2.418a1.6,1.6,0,0,1-.683-1.488V163.68a4.622,4.622,0,0,1,.683-2.27l4.334,2.467a4.7,4.7,0,0,0-.683,2.286Z" transform="translate(-148.792 -92.001)"/>
          <path id="Trazado_110268" data-name="Trazado 110268" class="cls-10" d="M153.192,305.976a1.735,1.735,0,0,0,.543,1.414c-.781-.444-3.808-2.2-4.194-2.418a1.6,1.6,0,0,1-.683-1.488V163.68a4.622,4.622,0,0,1,.683-2.27l4.334,2.467a4.7,4.7,0,0,0-.683,2.286Z" transform="translate(-148.792 -92.001)"/>
        </g>
        <g id="freepik--character--inject-257-2" data-name="freepik--character--inject-257" transform="translate(83.537)">
          <path id="Trazado_110269" data-name="Trazado 110269" class="cls-2" d="M205.9,208.2c-.51,13.01.362,40.881.362,40.881s13.791,4.161,23.158,2.615,29.417-15.757,29.417-15.757l-3.339-30.157Z" transform="translate(-205.41 -87.749)"/>
          <path id="Trazado_110270" data-name="Trazado 110270" class="cls-3" d="M244.321,250.561l2.237-21.259c8.791-5.239,11.645-12.492,11.645-12.492-7.994,10.469-16.332,8.775-16.332,8.775v26.086C242.668,251.342,243.49,250.963,244.321,250.561Z" transform="translate(-211.828 -89.708)"/>
          <path id="Trazado_110271" data-name="Trazado 110271" class="cls-14" d="M260.925,154.706c2.237-11.324,3.248-26.366-6.579-29.129-2.566-.715-9.1-.214-9.1-.214l-10.617.526c-5.913.748-14.2,1.924-16.374,2.467-5.707,1.406-7.4,10.691-9.959,31.366-1.6,12.928-2.961,23.027-2.961,35.609,10.428,9.35,43.035,5.666,50.453-.419C256.048,180.644,256.87,175.356,260.925,154.706Z" transform="translate(-205.34 -73.435)"/>
          <path id="Trazado_110272" data-name="Trazado 110272" class="cls-2" d="M237.694,121.025c-.1,2.064,2.278,5.551,5.921,8s6.776,3.446,7.171,4.466c-1.727.321-3.29,1.176-4.572,4.112-1.225,2.829-1.217,2.919-5.419,0s-7.961-9.63-7.944-11.867,3.29-6.579,4.934-6.193Z" transform="translate(-210.226 -72.427)"/>
          <path id="Trazado_110273" data-name="Trazado 110273" class="cls-2" d="M254.66,134.029a14.46,14.46,0,0,0,2.549-6.184l.535-5.3a2.829,2.829,0,0,1,1.456.946c.452.691,2.689,5.313,2.615,7.887s-.674,6.069-1.546,7.541-1.456-1.118-2.031-2.13C257.5,135.484,256.486,134.062,254.66,134.029Z" transform="translate(-214.1 -72.964)"/>
          <path id="Trazado_110274" data-name="Trazado 110274" class="cls-2" d="M252.263,140.11s.206,9.318-.658,14.277a15.083,15.083,0,0,0,5.551-.148s-1.423,1.752-6.637.946A150.412,150.412,0,0,0,252.263,140.11Z" transform="translate(-213.365 -76.084)"/>
          <path id="Trazado_110275" data-name="Trazado 110275" class="cls-3" d="M270.513,84.67A14.8,14.8,0,0,0,241,83.552l-6.719-4.778a5.247,5.247,0,0,0-4.326,1.587c-1.842,1.941-.707,7.9,1.7,13.726,0,0,2.426,10.617,3.364,12.336a4.827,4.827,0,0,0,2.821,2.2l-.23-6.464,26.867-1.933-2.656-1.891A14.8,14.8,0,0,0,270.513,84.67Z" transform="translate(-209.549 -63.688)"/>
          <path id="Trazado_110276" data-name="Trazado 110276" class="cls-15" d="M236.844,94.845c-.822.518-1.645-1.275-3.166-2.2-1.316-.822-4.268-2.163-6.209,1.1-2.1,3.512,1.711,8.364,4.375,9.367,3.947,1.48,5.354-1.645,5.354-1.645l-.822,16.448c5.4,9.819,21.316,9.227,15.9,1l.65-6.341a29.886,29.886,0,0,0,6.316.23c3.429-.584,5.559-3.29,6.579-7.072,1.587-6.012,2.155-10.855.559-22.6-1.752-12.879-16.76-12.788-24.787-7.574S236.844,94.845,236.844,94.845Z" transform="translate(-209.163 -64.035)"/>
          <path id="Trazado_110277" data-name="Trazado 110277" class="cls-3" d="M270.017,69.332a5.543,5.543,0,0,0-3.627-.419,4.392,4.392,0,0,0-2.632-4.416,5.082,5.082,0,0,0-5.559.748c.362-1.308-.822-2.64-2.155-2.936a7.089,7.089,0,0,0-3.956.658c-1.883.715-3.742,1.521-5.658,2.163-3.38,1.127-6.974,1.768-10.025,3.6a6.053,6.053,0,0,0-1.908,1.645,5.255,5.255,0,0,0-.822,3.347,6.7,6.7,0,0,0,.164,1.151,3.026,3.026,0,0,0-.822-.625,2.845,2.845,0,0,0-3.9,1.357l5.082,2.632c-.123,1.028-.255,2.056-.354,3.084-.28,2.706-.822,5.872-.189,8.569a1.974,1.974,0,0,0,.329.9,16.069,16.069,0,0,1,2.648,2.574c.395.477.872,1.25,1.5,1.439a1.53,1.53,0,0,0,1.76-.822,2.8,2.8,0,0,0,.058-1.2l-.493-5.017a2.87,2.87,0,0,1,.082-1.324,3.791,3.791,0,0,1,1.225-1.308,5.757,5.757,0,0,0,2-4.013,5.978,5.978,0,0,1,.132-1.439c.107-.354.387-.9.822-.9.781,0,5.041.921,6.11,1.069,5.576.765,11.563.913,16.448-1.826,1.916-1.061,5.14-3.29,5.477-5.642a3.158,3.158,0,0,0-1.743-3.051Z" transform="translate(-209.564 -62.256)"/>
          <path id="Trazado_110278" data-name="Trazado 110278" class="cls-16" d="M255.488,119.887s-7.706-1.439-10.411-2.829a8.8,8.8,0,0,1-3.767-3.618,12.015,12.015,0,0,0,2.171,4.3c2,2.467,11.8,4.186,11.8,4.186Z" transform="translate(-211.729 -71.347)"/>
          <path id="Trazado_110279" data-name="Trazado 110279" class="cls-3" d="M257.525,97.68a1.447,1.447,0,1,1-1.464-1.48,1.464,1.464,0,0,1,1.464,1.48Z" transform="translate(-214.095 -68.285)"/>
          <path id="Trazado_110280" data-name="Trazado 110280" class="cls-3" d="M253.97,91.249l-3.388,1.645a1.982,1.982,0,0,1,.9-2.582,1.842,1.842,0,0,1,2.484.938Z" transform="translate(-213.344 -67.207)"/>
          <path id="Trazado_110281" data-name="Trazado 110281" class="cls-17" d="M254.751,109l6.11,2.188a3.2,3.2,0,0,1-4.112,2.081,3.4,3.4,0,0,1-2-4.268Z" transform="translate(-214.084 -70.559)"/>
          <path id="Trazado_110282" data-name="Trazado 110282" class="cls-16" d="M258.624,113.686a3.191,3.191,0,0,0-3.569-2.722,3.061,3.061,0,0,0-.395.09,3.339,3.339,0,0,0,2.114,2.558,3.1,3.1,0,0,0,1.85.074Z" transform="translate(-214.1 -70.903)"/>
          <path id="Trazado_110283" data-name="Trazado 110283" class="cls-3" d="M273.53,92.267l-3.29-1.7a1.785,1.785,0,0,1,2.467-.773,1.875,1.875,0,0,1,.822,2.475Z" transform="translate(-216.867 -67.107)"/>
          <path id="Trazado_110284" data-name="Trazado 110284" class="cls-3" d="M271.6,97.411a1.464,1.464,0,0,1-1.414,1.513,1.48,1.48,0,0,1-1.472-1.48,1.447,1.447,0,1,1,2.887,0Z" transform="translate(-216.595 -68.23)"/>
          <path id="Trazado_110285" data-name="Trazado 110285" class="cls-16" d="M263.27,96.65l.288,9.334,5.5-1.283Z" transform="translate(-215.629 -68.365)"/>
        </g>
        <g id="freepik--Front--inject-257" transform="translate(24.334 51.879)">
          <path id="Trazado_110286" data-name="Trazado 110286" class="cls-6" d="M282.039,258.315a1.109,1.109,0,0,1-.148.214l-59.31-18.808a10.222,10.222,0,0,0-12.813,3.947l-63.406,94.237-2.344,1.357h0a1.891,1.891,0,0,1-1.809.2l65.207-97.131a10.247,10.247,0,0,1,12.821-3.956Z" transform="translate(-134.924 -145.262)"/>
          <path id="Trazado_110287" data-name="Trazado 110287" class="cls-18" d="M203.926,255.953l.148-.132-57.715,85.116-2.352,1.357h0a1.941,1.941,0,0,1-1.817.206l59.466-87.921Z" transform="translate(-134.92 -148.295)"/>
          <path id="Trazado_110288" data-name="Trazado 110288" class="cls-18" d="M296.123,258.323a1.438,1.438,0,0,1-.148.214l-59.31-18.816a10.214,10.214,0,0,0-12.821,3.947L221.5,242.3a10.239,10.239,0,0,1,12.8-3.931Z" transform="translate(-149.007 -145.262)"/>
          <path id="Trazado_110289" data-name="Trazado 110289" class="cls-6" d="M286.151,131.335h0c-.132-.765-.535-.979-1.061-.617a3.133,3.133,0,0,0-.683.707l-.3.411-58.529,88.982-8.734,12.171a4.984,4.984,0,0,1-4.819,1.8L204.489,233l-57.567-21.193a3.026,3.026,0,0,0-1.176-.049,2.693,2.693,0,0,0-.436.14l2.171-1.25,55.206,20.231,7.27,2.6a4.934,4.934,0,0,0,4.811-1.809L223.51,219.5l58.809-89.393a2.467,2.467,0,0,1,.666-.609l-5.091-2.936,2.138-1.225,3.52,2.031a6.135,6.135,0,0,1,2.6,3.964Z" transform="translate(-135.474 -125.34)"/>
          <path id="Trazado_110290" data-name="Trazado 110290" class="cls-18" d="M238.354,241.176l-8.742,12.179a4.984,4.984,0,0,1-4.811,1.8l-7.541-1.793.148-.132.362-.576,4.934,1.176a4.934,4.934,0,0,0,4.811-1.8L236.175,240Z" transform="translate(-148.254 -145.706)"/>
          <path id="Trazado_110291" data-name="Trazado 110291" class="cls-8" d="M300.383,127.363l-3.52-2.023-2.13,1.225,5.082,2.936h0a2.467,2.467,0,0,0-.666.609L240.332,219.5l-.082.115h0l2.179,1.184,58.521-88.973.3-.419a2.764,2.764,0,0,1,.683-.7c.518-.362.929-.156,1.053.617h0a6.094,6.094,0,0,0-2.607-3.964Z" transform="translate(-152.337 -125.34)"/>
          <path id="Trazado_110292" data-name="Trazado 110292" class="cls-6" d="M145.948,230.983,133.39,223.73V331.807a5.954,5.954,0,0,0,2.681,4.638l3.018,1.743a5.954,5.954,0,0,0,5.354,0l1.5-.872Z" transform="translate(-133.357 -142.816)"/>
          <path id="Trazado_110293" data-name="Trazado 110293" class="cls-19" d="M145.948,230.983,133.39,223.73V331.807a5.954,5.954,0,0,0,2.681,4.638l3.018,1.743a5.954,5.954,0,0,0,5.354,0l1.5-.872Z" transform="translate(-133.357 -142.816)"/>
          <path id="Trazado_110294" data-name="Trazado 110294" class="cls-6" d="M285.9,133.132V238.118a5.437,5.437,0,0,1-.822,2.706,5.864,5.864,0,0,1-1.571,1.768l-.107.049-.164.115L146.256,321.828h0a1.916,1.916,0,0,1-1.826.214,1.645,1.645,0,0,1-.822-1.283,2.96,2.96,0,0,1,0-.477V215.3a2.327,2.327,0,0,1,3.01-2.368l57.567,21.193,7.541,1.793a4.983,4.983,0,0,0,4.819-1.8l8.734-12.171,58.529-88.982.3-.411C285.09,131.167,285.9,131.43,285.9,133.132Z" transform="translate(-135.17 -126.463)"/>
          <path id="Trazado_110295" data-name="Trazado 110295" class="cls-6" d="M300.863,262.254a1.421,1.421,0,0,0,.173-.107l.1-.066a5.757,5.757,0,0,0,1.571-1.752,5.51,5.51,0,0,0,.822-2.665L242.91,241.44,283.5,272.271Z" transform="translate(-152.81 -145.962)"/>
          <path id="Trazado_110296" data-name="Trazado 110296" class="cls-7" d="M300.863,262.254a1.421,1.421,0,0,0,.173-.107l.1-.066a5.757,5.757,0,0,0,1.571-1.752,5.51,5.51,0,0,0,.822-2.665L242.91,241.44,283.5,272.271Z" transform="translate(-152.81 -145.962)"/>
          <path id="Trazado_110297" data-name="Trazado 110297" class="cls-6" d="M143.567,342.393a1.834,1.834,0,0,0,.822,1.76,1.908,1.908,0,0,0,1.826-.206h0l47.155-27.221,10.773-60.486-60.568,84.426Z" transform="translate(-135.162 -148.59)"/>
          <path id="Trazado_110298" data-name="Trazado 110298" class="cls-19" d="M209.986,244.712l-65.577,97.173a1.834,1.834,0,0,1-.822-1.76v-1.743l64.055-95h0Z" transform="translate(-135.166 -146.306)"/>
          <path id="Trazado_110299" data-name="Trazado 110299" class="cls-6" d="M285.245,259.915a5.756,5.756,0,0,1-1.571,1.752l-.1.066-137.14,79.179h0a1.908,1.908,0,0,1-1.826.206l65.568-97.164a10.3,10.3,0,0,1,12.878-3.98Z" transform="translate(-135.35 -145.546)"/>
          <path id="Trazado_110300" data-name="Trazado 110300" class="cls-19" d="M133.885,211.92l2.179,1.258a10.461,10.461,0,0,0-.535,2.919v6.785l-2.179-1.258v-6.793A10.46,10.46,0,0,1,133.885,211.92Z" transform="translate(-133.35 -140.718)"/>
          <path id="Trazado_110301" data-name="Trazado 110301" class="cls-6" d="M145.808,228.123l-2.171,1.25-2.2-1.266-5.4-3.117,2.1-1.25Z" transform="translate(-133.826 -142.818)"/>
          <path id="Trazado_110302" data-name="Trazado 110302" class="cls-8" d="M145.869,228.164,138.1,223.74l-2.1,1.25,5.4,3.117,2.2,1.266h0a1.718,1.718,0,0,1,.411-.132,2.829,2.829,0,0,1,1.168.041l4.375,1.645,50.272,18.512.822-1.168Z" transform="translate(-133.821 -142.818)"/>
        </g>
        <g id="freepik--Arm--inject-257" transform="translate(60.535 54.593)">
          <path id="Trazado_110303" data-name="Trazado 110303" class="cls-15" d="M213.25,129c-6.982.5-11.768,2.163-16.258,12.969-2.911,6.982-14.309,32.073-15.411,36.234-1.291,4.868-4.211,41.9-4.211,41.9l6.661,2.467s-2.278,7.969-4.211,12.517c-2.22,5.255,8.627,4.153,12.114-.617s5.855-11.16,3.947-13.4a31.251,31.251,0,0,0-5.28-4.885l7.286-33.035,15.288-32.5S220.866,134.757,213.25,129Z" transform="translate(-177.37 -128.704)"/>
          <path id="Trazado_110304" data-name="Trazado 110304" class="cls-16" d="M192.02,234.557a14.375,14.375,0,0,0-6.76-1.933,13.051,13.051,0,0,1,7.072,0Z" transform="translate(-178.771 -147.022)"/>
          <path id="Trazado_110305" data-name="Trazado 110305" class="cls-14" d="M217.024,128.64c-3.915,0-11.225-.206-15.962,8.347s-11.431,24.844-11.431,24.844,2.78,6.842,17.681,8.273l11.406-24.318S221.505,134.643,217.024,128.64Z" transform="translate(-179.548 -128.639)"/>
        </g>
        <g id="freepik--arm--inject-257-2" data-name="freepik--arm--inject-257" transform="translate(129.788 5.58)">
          <path id="Trazado_110306" data-name="Trazado 110306" class="cls-15" d="M281.113,133.714c5.888,4.646,15.444,11.941,20.091,14.86,3.512-4.243,9.975-12.846,11.513-14.729,2.023-2.393,8.347-6.267,8.347-6.267l2.377,9.531S311.5,159.134,307.174,163.2c-4.556,4.293-7.854,2.516-16.76-1.563C282,157.785,272.864,153,272.864,153c1.809-16,.584-24.671-7.064-27.369C270.9,126.23,276.17,129.824,281.113,133.714Z" transform="translate(-262.33 -79.093)"/>
          <path id="Trazado_110307" data-name="Trazado 110307" class="cls-14" d="M295.733,145.251c-3.076.822-9.433,9.869-8.273,15.625l-16.2-8.01c1.957-11.045,2.385-24.671-6.949-27.311a12.976,12.976,0,0,0-2.73-.345h0c4.646-.461,7.681-.321,12.55,3.339S295.733,145.251,295.733,145.251Z" transform="translate(-261.58 -78.985)"/>
          <path id="Trazado_110308" data-name="Trazado 110308" class="cls-16" d="M308.084,153.342c-2.319,2.04-3.067,5.707-3.52,7.163a12.78,12.78,0,0,1,2.179-8.035Z" transform="translate(-269.21 -83.86)"/>
          <path id="Trazado_110309" data-name="Trazado 110309" class="cls-2" d="M336.28,114.272l5.559-3.372s.633,29.976.658,30.946a3.289,3.289,0,0,0,1.168,1.924l-5.559,3.4a3.331,3.331,0,0,1-1.168-1.924C336.921,144.223,336.28,114.272,336.28,114.272Z" transform="translate(-274.848 -76.476)"/>
          <path id="Trazado_110310" data-name="Trazado 110310" class="cls-15" d="M342.4,126.07s1.6.378,2.2,2.854.921,7.2-.5,8.758-3.364,2.237-4.655,1.645c-2.41-1.044-1.645-5.938.255-7.072,3.092-1.8,2.722-3.791,2.722-3.791Z" transform="translate(-275.142 -79.171)"/>
          <path id="Trazado_110311" data-name="Trazado 110311" class="cls-4" d="M328,115.09l2.467,2.969.436,21.135-2.467,4.112,8.224,4.54a3.026,3.026,0,0,1-1.168-1.924l-.576-27.056Z" transform="translate(-273.377 -77.221)"/>
          <path id="Trazado_110312" data-name="Trazado 110312" class="cls-6" d="M328.46,149.43l.025,1.291,8.265,4.548-.033-1.3Z" transform="translate(-273.459 -83.32)"/>
          <path id="Trazado_110313" data-name="Trazado 110313" class="cls-6" d="M338.533,155.521l5.551-3.372-.033-1.3-5.551,3.372Z" transform="translate(-275.242 -83.572)"/>
          <path id="Trazado_110314" data-name="Trazado 110314" class="cls-8" d="M338.533,155.521l5.551-3.372-.033-1.3-5.551,3.372Z" transform="translate(-275.242 -83.572)"/>
          <path id="Trazado_110315" data-name="Trazado 110315" class="cls-6" d="M328.59,97.244h0a3.665,3.665,0,0,0-3.5,1.423l-.041.049a11.628,11.628,0,0,0-2.377,10.255v.058c.51,1.645,1.464,2.632,2.59,2.837h0l4.8,1.151,2.936-14.7Z" transform="translate(-272.372 -74.037)"/>
          <path id="Trazado_110316" data-name="Trazado 110316" class="cls-13" d="M328.59,97.244h0a3.665,3.665,0,0,0-3.5,1.423l-.041.049a11.628,11.628,0,0,0-2.377,10.255v.058c.51,1.645,1.464,2.632,2.59,2.837h0l4.8,1.151,2.936-14.7Z" transform="translate(-272.372 -74.037)"/>
          <path id="Trazado_110317" data-name="Trazado 110317" class="cls-10" d="M325.279,113.758h0l4.8,1.151.97-4.877-8.734-2.023a9.185,9.185,0,0,0,.354,2.854v.058C323.2,112.615,324.153,113.586,325.279,113.758Z" transform="translate(-272.367 -75.963)"/>
          <path id="Trazado_110318" data-name="Trazado 110318" class="cls-6" d="M338.979,97.513h0a4.367,4.367,0,0,0-3.906,1.4c-.14.123-.28.263-.419.411s-.312.345-.461.535a9.818,9.818,0,0,0-.707,1,13.158,13.158,0,0,0-1.069,2.064,15.953,15.953,0,0,0-1.192,6.283,11.226,11.226,0,0,0,.452,2.985c.6,1.965,1.694,3.15,3,3.5l-4.556-1.053h0a5.288,5.288,0,0,1-3.618-3.635,11.382,11.382,0,0,1-.444-2.854,15.822,15.822,0,0,1,1.192-6.423,13.431,13.431,0,0,1,1.061-2.056,11.3,11.3,0,0,1,.707-1q.222-.28.469-.543a4.858,4.858,0,0,1,.419-.4,5.2,5.2,0,0,1,4.424-1.266h.3Z" transform="translate(-273.032 -73.895)"/>
          <path id="Trazado_110319" data-name="Trazado 110319" class="cls-8" d="M330.123,117.169h0a5.288,5.288,0,0,1-3.618-3.635,11.382,11.382,0,0,1-.444-2.854l5.181,1.069a11.226,11.226,0,0,0,.452,2.985c.6,1.965,1.694,3.15,3,3.5Z" transform="translate(-273.033 -76.437)"/>
          <path id="Trazado_110320" data-name="Trazado 110320" class="cls-6" d="M343.2,101.276a14.584,14.584,0,0,1-2.985,12.862c-1.439,1.546-3,2.122-4.35,1.8h-.074c-1.308-.345-2.4-1.53-3-3.5a14.6,14.6,0,0,1,2.977-12.862c1.439-1.538,2.985-2.114,4.326-1.809S342.586,99.253,343.2,101.276Z" transform="translate(-274.148 -74.131)"/>
          <path id="Trazado_110321" data-name="Trazado 110321" class="cls-7" d="M343.2,101.276a14.584,14.584,0,0,1-2.985,12.862c-1.439,1.546-3,2.122-4.35,1.8h-.074c-1.308-.345-2.4-1.53-3-3.5a14.6,14.6,0,0,1,2.977-12.862c1.439-1.538,2.985-2.114,4.326-1.809S342.586,99.253,343.2,101.276Z" transform="translate(-274.148 -74.131)"/>
          <path id="Trazado_110322" data-name="Trazado 110322" class="cls-6" d="M362.34,93.6s-5.378,5.214-7.944,16.3a43.486,43.486,0,0,0-.979,6.044c-.691,7.533.946,12.081.946,12.081-3.29-4.112-7.146-8.166-12.212-10.691a63.139,63.139,0,0,0-6.077-2.574h0c-1.225-.288-2.237-1.414-2.788-3.224a11.341,11.341,0,0,1-.411-3.931,14.569,14.569,0,0,1,.37-2.64,12.977,12.977,0,0,1,2.928-5.88c1.291-1.382,2.7-1.957,3.923-1.645h0a64.078,64.078,0,0,0,6.579.362C352.323,97.794,357.57,95.8,362.34,93.6Z" transform="translate(-274.238 -73.404)"/>
          <path id="Trazado_110323" data-name="Trazado 110323" class="cls-13" d="M362.34,93.6s-5.378,5.214-7.944,16.3a43.486,43.486,0,0,0-.979,6.044c-.691,7.533.946,12.081.946,12.081-3.29-4.112-7.146-8.166-12.212-10.691a63.139,63.139,0,0,0-6.077-2.574h0c-1.225-.288-2.237-1.414-2.788-3.224a11.341,11.341,0,0,1-.411-3.931,14.569,14.569,0,0,1,.37-2.64,12.977,12.977,0,0,1,2.928-5.88c1.291-1.382,2.7-1.957,3.923-1.645h0a64.078,64.078,0,0,0,6.579.362C352.323,97.794,357.57,95.8,362.34,93.6Z" transform="translate(-274.238 -73.404)"/>
          <path id="Trazado_110324" data-name="Trazado 110324" class="cls-10" d="M353.417,118.969c-.691,7.533.946,12.081.946,12.081-3.29-4.112-7.146-8.166-12.212-10.691a63.14,63.14,0,0,0-6.077-2.574h0c-1.225-.288-2.237-1.415-2.788-3.224a11.341,11.341,0,0,1-.411-3.931C338.433,111.609,347.6,113.689,353.417,118.969Z" transform="translate(-274.238 -76.428)"/>
          <path id="Trazado_110325" data-name="Trazado 110325" class="cls-6" d="M381.079,98.357a31.037,31.037,0,0,1,.535,14.1h0c-1.086,6.291-3.791,12.4-7.665,16.513-6.834,7.327-14.745,5.485-17.673-4.112a26.923,26.923,0,0,1-1.077-7.1,37.525,37.525,0,0,1,4.4-18.208,23.218,23.218,0,0,1,1.316-2.179l.592-.822h0c.288-.4.576-.781.88-1.151s.641-.765.979-1.118C370.249,86.943,378.16,88.768,381.079,98.357Z" transform="translate(-278.208 -72.725)"/>
          <path id="Trazado_110326" data-name="Trazado 110326" class="cls-8" d="M381.615,117.35c-1.086,6.291-3.791,12.4-7.665,16.513-6.834,7.327-14.745,5.485-17.673-4.112a26.923,26.923,0,0,1-1.077-7.1h0c.938,1.069,3.5,2.22,4.021.707a24.225,24.225,0,0,0,.962,6.291,10.638,10.638,0,0,0,3.734,5.888,5.148,5.148,0,0,0,4.613.641,12.048,12.048,0,0,0,5-3.429c3.29-3.5,5.658-8.725,6.826-14.17C380.4,118.6,381.047,118.88,381.615,117.35Z" transform="translate(-278.209 -77.622)"/>
          <path id="Trazado_110327" data-name="Trazado 110327" class="cls-6" d="M381.094,99.775a29.868,29.868,0,0,1,.181,14.5c-1.168,5.444-3.553,10.691-6.826,14.17a12.048,12.048,0,0,1-5,3.429,5.148,5.148,0,0,1-4.614-.641c-1.645-1.094-2.895-3.133-3.734-5.888a24.227,24.227,0,0,1-.962-6.291c0-.822,0-1.7,0-2.566a33.511,33.511,0,0,1,.543-4.564c.058-.312.115-.625.181-.929.107-.518.222-1.036.354-1.546a35.553,35.553,0,0,1,1.694-5.066v-.058a31.714,31.714,0,0,1,1.513-3.092c.395-.707.822-1.382,1.25-2.023l.567-.822c.238-.3.477-.609.715-.9s.485-.559.732-.822a11.965,11.965,0,0,1,5-3.429C376.39,92.176,379.515,94.586,381.094,99.775Z" transform="translate(-279.086 -73.295)"/>
          <path id="Trazado_110328" data-name="Trazado 110328" class="cls-20" d="M381.094,99.775a29.868,29.868,0,0,1,.181,14.5c-1.168,5.444-3.553,10.691-6.826,14.17a12.048,12.048,0,0,1-5,3.429,5.148,5.148,0,0,1-4.614-.641c-1.645-1.094-2.895-3.133-3.734-5.888a24.227,24.227,0,0,1-.962-6.291c0-.822,0-1.7,0-2.566a33.511,33.511,0,0,1,.543-4.564c.058-.312.115-.625.181-.929.107-.518.222-1.036.354-1.546a35.553,35.553,0,0,1,1.694-5.066v-.058a31.714,31.714,0,0,1,1.513-3.092c.395-.707.822-1.382,1.25-2.023l.567-.822c.238-.3.477-.609.715-.9s.485-.559.732-.822a11.965,11.965,0,0,1,5-3.429C376.39,92.176,379.515,94.586,381.094,99.775Z" transform="translate(-279.086 -73.295)"/>
          <path id="Trazado_110329" data-name="Trazado 110329" class="cls-6" d="M369.078,108.328l-2.27,11.448c-1.645-.1-4.433-.23-6.628-.123v-.822a34.868,34.868,0,0,1,.543-4.564c.058-.312.123-.617.181-.929.107-.518.23-1.036.362-1.538a35.629,35.629,0,0,1,1.686-5.074.172.172,0,0,0,0-.058c.107-.238.206-.477.313-.707a35.6,35.6,0,0,0,5.814,2.368Z" transform="translate(-279.093 -75.599)"/>
          <g id="Grupo_59650" data-name="Grupo 59650" class="cls-21" transform="translate(81.087 30.361)">
            <path id="Trazado_110330" data-name="Trazado 110330" class="cls-22" d="M369.078,108.328l-2.27,11.448c-1.645-.1-4.433-.23-6.628-.123v-.822a34.868,34.868,0,0,1,.543-4.564c.058-.312.123-.617.181-.929.107-.518.23-1.036.362-1.538a35.629,35.629,0,0,1,1.686-5.074.172.172,0,0,0,0-.058c.107-.238.206-.477.313-.707a35.6,35.6,0,0,0,5.814,2.368Z" transform="translate(-360.18 -105.96)"/>
          </g>
          <path id="Trazado_110331" data-name="Trazado 110331" class="cls-6" d="M368.091,120.135c-1.192.362-2.2-.378-2.689-2v-.049a9.211,9.211,0,0,1,1.875-8.109h0a3.577,3.577,0,0,1,1.5-1.028c1.192-.362,2.2.387,2.689,2V111a9.2,9.2,0,0,1-1.875,8.109h0a3.684,3.684,0,0,1-1.5,1.02Z" transform="translate(-279.973 -76.114)"/>
          <g id="Grupo_59651" data-name="Grupo 59651" class="cls-23" transform="translate(85.162 32.747)">
            <path id="Trazado_110332" data-name="Trazado 110332" class="cls-22" d="M368.091,120.135c-1.192.362-2.2-.378-2.689-2v-.049a9.211,9.211,0,0,1,1.875-8.109h0a3.577,3.577,0,0,1,1.5-1.028c1.192-.362,2.2.387,2.689,2V111a9.2,9.2,0,0,1-1.875,8.109h0a3.684,3.684,0,0,1-1.5,1.02Z" transform="translate(-365.135 -108.861)"/>
          </g>
          <path id="Trazado_110333" data-name="Trazado 110333" class="cls-1" d="M364.265,83.759a1.225,1.225,0,0,1-1.546-.822l-3.5-11.464a1.242,1.242,0,0,1,2.368-.724l3.5,11.464a1.225,1.225,0,0,1-.822,1.546Z" transform="translate(-278.918 -69.204)"/>
          <path id="Trazado_110334" data-name="Trazado 110334" class="cls-1" d="M351.46,91.688a1.242,1.242,0,0,1-1.209-.28l-8.758-8.224a1.242,1.242,0,1,1,1.694-1.809l8.758,8.224A1.234,1.234,0,0,1,352,91.351,1.143,1.143,0,0,1,351.46,91.688Z" transform="translate(-275.694 -71.163)"/>
          <path id="Trazado_110335" data-name="Trazado 110335" class="cls-1" d="M360.654,162.168a1.3,1.3,0,0,1-.641,0,1.242,1.242,0,0,1-.929-1.489L361.789,149a1.242,1.242,0,1,1,2.418.559l-2.73,11.7a1.242,1.242,0,0,1-.822.9Z" transform="translate(-278.893 -83.065)"/>
          <path id="Trazado_110336" data-name="Trazado 110336" class="cls-1" d="M386.343,156.191a1.242,1.242,0,0,1-1.546-.822L381.3,143.9a1.242,1.242,0,1,1,2.368-.724l3.5,11.464A1.242,1.242,0,0,1,386.343,156.191Z" transform="translate(-282.83 -82.038)"/>
          <path id="Trazado_110337" data-name="Trazado 110337" class="cls-1" d="M400.913,137.89a1.242,1.242,0,0,1-1.209-.28l-8.758-8.224a1.242,1.242,0,0,1,1.686-1.817l8.767,8.183a1.234,1.234,0,0,1,.058,1.752,1.275,1.275,0,0,1-.543.387Z" transform="translate(-284.497 -79.387)"/>
          <path id="Trazado_110338" data-name="Trazado 110338" class="cls-1" d="M410.272,120.286a1.291,1.291,0,0,1-.641,0l-11.678-2.706a1.25,1.25,0,0,1-.929-1.489,1.234,1.234,0,0,1,1.489-.929l11.678,2.706a1.242,1.242,0,0,1,.082,2.393Z" transform="translate(-285.632 -77.228)"/>
          <path id="Trazado_110339" data-name="Trazado 110339" class="cls-1" d="M409.6,99.612l-11.472,3.5a1.238,1.238,0,0,1-.724-2.368l11.513-3.5a1.242,1.242,0,0,1,.724,2.368Z" transform="translate(-285.549 -74.045)"/>
          <path id="Trazado_110340" data-name="Trazado 110340" class="cls-1" d="M390.863,90.314a1.242,1.242,0,0,1-1.275-2.031l8.183-8.758a1.242,1.242,0,0,1,1.818,1.694l-8.183,8.758A1.234,1.234,0,0,1,390.863,90.314Z" transform="translate(-284.258 -70.833)"/>
          <path id="Trazado_110341" data-name="Trazado 110341" class="cls-1" d="M378.735,83.218a1.267,1.267,0,0,1-.633,0,1.234,1.234,0,0,1-.929-1.489l2.706-11.678a1.242,1.242,0,1,1,2.418.559l-2.706,11.678A1.266,1.266,0,0,1,378.735,83.218Z" transform="translate(-282.105 -69.042)"/>
          <path id="Trazado_110342" data-name="Trazado 110342" class="cls-15" d="M322.89,133.975c2.36-2.993,2.467-4.877,4.293-6.349s3.7-1.563,6.447-.773c2.064.592,4.49.3,5.329,1.061.238.164-.132,1.489-1.1,1.965-1.168.576-3.059.436-4.449.444-3.174,0-.567,3.125-3.627,6.283C328.49,138.869,322.89,133.975,322.89,133.975Z" transform="translate(-272.47 -79.222)"/>
        </g>
      </g>
    </g>
    <g id="freepik--paper-planes--inject-257" transform="translate(44.935 38.6)">
      <g id="freepik--paper-plane--inject-257" transform="translate(226.378)">
        <path id="Trazado_110343" data-name="Trazado 110343" class="cls-6" d="M411.2,189.465l29.1-18.635,12.813,4.112Z" transform="translate(-337.944 -62.087)"/>
        <path id="Trazado_110344" data-name="Trazado 110344" class="cls-6" d="M411.2,187.566,436.348,166.6l-5.592-6.456Z" transform="translate(-337.944 -60.188)"/>
        <path id="Trazado_110345" data-name="Trazado 110345" class="cls-6" d="M436.348,167.99v4.86L411.2,188.961Z" transform="translate(-337.944 -61.582)"/>
        <path id="Trazado_110346" data-name="Trazado 110346" class="cls-24" d="M436.348,167.99v4.86L411.2,188.961Z" transform="translate(-337.944 -61.582)"/>
        <path id="Trazado_110347" data-name="Trazado 110347" class="cls-1" d="M448.821,163.915a.82.82,0,0,1-.535-1.447c.5-.436,1-.888,1.488-1.349a.822.822,0,0,1,1.135,1.184c-.51.485-1.02.954-1.554,1.415A.822.822,0,0,1,448.821,163.915Z" transform="translate(-344.479 -60.328)"/>
        <path id="Trazado_110348" data-name="Trazado 110348" class="cls-1" d="M432.047,137.878a.822.822,0,0,1-.617-1.365c.822-.987,1.7-2.031,2.467-3.109a.823.823,0,1,1,1.324.979c-.822,1.118-1.694,2.2-2.582,3.216A.822.822,0,0,1,432.047,137.878Zm4.819-6.513a.822.822,0,0,1-.691-1.258c.691-1.11,1.365-2.278,1.99-3.462a.822.822,0,0,1,1.456.765c-.65,1.225-1.34,2.426-2.056,3.569a.822.822,0,0,1-.7.387Zm3.791-7.163a.765.765,0,0,1-.329-.074.822.822,0,0,1-.419-1.086c.526-1.209,1.036-2.467,1.489-3.709a.822.822,0,0,1,1.546.559c-.469,1.291-.987,2.574-1.538,3.816a.822.822,0,0,1-.748.493Zm2.78-7.623a.74.74,0,0,1-.23,0,.822.822,0,0,1-.559-1.02c.37-1.266.707-2.574,1-3.873a.842.842,0,0,1,1.645.362c-.3,1.332-.65,2.673-1.028,3.972a.822.822,0,0,1-.831.559Zm1.785-7.911h-.132a.822.822,0,0,1-.683-.946c.206-1.308.378-2.64.5-3.972a.826.826,0,0,1,1.645.156c-.132,1.365-.312,2.739-.526,4.112A.822.822,0,0,1,445.222,108.667Zm.765-8.076h0a.822.822,0,0,1-.822-.822v-4a.822.822,0,0,1,1.645,0v4.112a.822.822,0,0,1-.822.732Zm-.288-8.1a.822.822,0,0,1-.822-.74c-.14-1.332-.321-2.665-.551-3.964a.834.834,0,1,1,1.645-.28c.238,1.332.428,2.706.567,4.112a.822.822,0,0,1-.732.9ZM444.292,84.5a.822.822,0,0,1-.822-.617c-.329-1.3-.707-2.582-1.127-3.832a.822.822,0,1,1,1.554-.526c.436,1.291.822,2.615,1.168,3.956a.822.822,0,0,1-.822,1.02Zm-2.615-7.681a.822.822,0,0,1-.757-.493,39.091,39.091,0,0,0-1.735-3.586.832.832,0,1,1,1.447-.822c.65,1.2,1.25,2.467,1.8,3.717A.822.822,0,0,1,442,76.709.749.749,0,0,1,441.677,76.816Zm-3.841-7.13a.822.822,0,0,1-.691-.37,39.706,39.706,0,0,0-2.319-3.248.822.822,0,1,1,1.283-1.028c.822,1.061,1.645,2.188,2.467,3.339a.822.822,0,0,1-.683,1.275Zm-5.066-6.332a.822.822,0,0,1-.592-.255c-.9-.946-1.867-1.883-2.87-2.78a.827.827,0,0,1,1.11-1.225c1.028.929,2.023,1.9,2.952,2.87a.822.822,0,0,1-.6,1.39Zm-6.012-5.444a.863.863,0,0,1-.51-.173c-1.028-.822-2.114-1.645-3.216-2.385A.822.822,0,1,1,423.963,54c1.143.822,2.253,1.645,3.29,2.467a.8.8,0,0,1-.469,1.439ZM420.1,53.288a.822.822,0,0,1-.428-.123c-1.127-.683-2.294-1.357-3.479-2a.822.822,0,0,1,.773-1.447c1.217.658,2.418,1.34,3.561,2.048a.822.822,0,0,1-.428,1.521Zm-7.138-3.857a.822.822,0,0,1-.354-.082c-1.2-.567-2.467-1.118-3.668-1.645a.824.824,0,1,1,.633-1.521c1.258.526,2.516,1.094,3.742,1.645a.822.822,0,0,1-.354,1.563ZM329.9,47.391a.822.822,0,0,1-.271-1.6c1.283-.461,2.582-.9,3.865-1.308a.822.822,0,1,1,.5,1.563c-1.258.4-2.541.822-3.816,1.3a.822.822,0,0,1-.238.049Zm75.593-1.061a.682.682,0,0,1-.28-.058c-1.234-.452-2.516-.888-3.808-1.3a.822.822,0,1,1,.493-1.563c1.316.419,2.623.864,3.882,1.324a.817.817,0,0,1-.288,1.6Zm-67.83-1.4a.83.83,0,1,1-.23-1.645c1.291-.37,2.623-.724,3.947-1.061a.822.822,0,0,1,.395,1.6c-1.308.329-2.615.683-3.89,1.044a.691.691,0,0,1-.214.033Zm60.108-1.069a.9.9,0,0,1-.214,0c-1.275-.345-2.582-.674-3.906-.979a.842.842,0,0,1,.362-1.645c1.349.313,2.681.641,3.972,1a.829.829,0,1,1-.214,1.645Zm-52.229-.938a.827.827,0,0,1-.173-1.645c1.324-.288,2.673-.551,4-.822a.836.836,0,1,1,.3,1.645c-1.308.238-2.64.5-3.947.822Zm44.326-.888h-.156c-1.291-.247-2.632-.469-3.972-.658a.823.823,0,0,1,.238-1.628c1.365.2,2.722.419,4.038.666a.826.826,0,1,1-.148,1.645Zm-36.349-.559a.825.825,0,0,1-.123-1.645c1.349-.2,2.714-.37,4.054-.518a.827.827,0,0,1,.181,1.645c-1.324.148-2.664.321-4,.518Zm28.306-.609h-.082c-1.316-.14-2.665-.255-4.013-.345a.824.824,0,1,1,.115-1.645c1.373.1,2.738.214,4.071.362a.816.816,0,0,1-.09,1.628Zm-20.255-.3a.824.824,0,0,1-.066-1.645c1.365-.1,2.73-.181,4.112-.238a.822.822,0,1,1,0,1.645c-1.324.058-2.681.14-4.021.238Zm12.163-.271h0c-1.176,0-2.36-.058-3.52-.058h-.51a.822.822,0,1,1,0-1.645h.518c1.176,0,2.377,0,3.569.058a.822.822,0,1,1,0,1.645Z" transform="translate(-323.354 -38.6)"/>
        <path id="Trazado_110349" data-name="Trazado 110349" class="cls-1" d="M322.934,51.469a.822.822,0,0,1-.313-1.579l1.916-.822a.825.825,0,1,1,.6,1.538l-1.891.765a.871.871,0,0,1-.312.1Z" transform="translate(-322.122 -40.449)"/>
      </g>
      <g id="freepik--paper-plane--inject-257-2" data-name="freepik--paper-plane--inject-257" transform="translate(0 67.452)">
        <path id="Trazado_110350" data-name="Trazado 110350" class="cls-6" d="M100.44,139.156l37.821-18.536-27.27,25.938Z" transform="translate(-56.369 -120.62)"/>
        <path id="Trazado_110351" data-name="Trazado 110351" class="cls-6" d="M135.148,120.62l-41.7,13.717-10.535-7.4Z" transform="translate(-53.255 -120.62)"/>
        <path id="Trazado_110352" data-name="Trazado 110352" class="cls-6" d="M95.72,134.337l1.653,10.592,2.229-5.773,37.821-18.536Z" transform="translate(-55.53 -120.62)"/>
        <path id="Trazado_110353" data-name="Trazado 110353" class="cls-24" d="M95.72,134.337l1.653,10.592,2.229-5.773,37.821-18.536Z" transform="translate(-55.53 -120.62)"/>
        <path id="Trazado_110354" data-name="Trazado 110354" class="cls-6" d="M97.73,148.933l5.748-3.306-3.52-2.467Z" transform="translate(-55.887 -124.624)"/>
        <path id="Trazado_110355" data-name="Trazado 110355" class="cls-24" d="M100.44,143.16l3.52,2.467-.921.526Z" transform="translate(-56.369 -124.624)"/>
        <path id="Trazado_110356" data-name="Trazado 110356" class="cls-1" d="M93.767,254.507a.822.822,0,0,1-.28-.049c-1.332-.477-2.632-.97-3.873-1.456a.823.823,0,0,1,.609-1.53c1.217.477,2.467.962,3.824,1.439a.822.822,0,0,1-.28,1.6Zm-7.64-3.035a.822.822,0,0,1-.329-.066c-1.283-.567-2.541-1.151-3.758-1.743a.824.824,0,0,1,.724-1.48c1.192.584,2.467,1.16,3.7,1.719a.822.822,0,0,1-.337,1.571Zm-7.4-3.618a.822.822,0,0,1-.395-.1c-1.225-.674-2.467-1.373-3.594-2.089a.822.822,0,0,1,.822-1.4c1.135.7,2.319,1.382,3.52,2.04a.822.822,0,0,1-.395,1.546Zm-6.99-4.317a.823.823,0,0,1-.469-.148c-1.151-.822-2.27-1.645-3.339-2.467a.848.848,0,0,1,1.061-1.324c1.036.822,2.13,1.645,3.29,2.418a.822.822,0,0,1-.469,1.5Zm-6.423-5.115a.822.822,0,0,1-.551-.214c-1.036-.946-2.031-1.924-2.969-2.928a.822.822,0,0,1,1.192-1.127c.913.97,1.883,1.924,2.887,2.837a.822.822,0,0,1-.559,1.431Zm-5.625-5.97a.822.822,0,0,1-.641-.312c-.872-1.077-1.7-2.2-2.467-3.355a.823.823,0,0,1,1.365-.921c.748,1.11,1.563,2.2,2.4,3.29a.781.781,0,0,1-.625,1.3Zm-4.605-6.793a.822.822,0,0,1-.715-.419c-.674-1.2-1.316-2.467-1.9-3.717a.824.824,0,1,1,1.5-.691c.559,1.225,1.184,2.467,1.834,3.594a.822.822,0,0,1-.313,1.127.864.864,0,0,1-.37.107Zm-3.4-7.443a.822.822,0,0,1-.773-.535c-.477-1.283-.913-2.615-1.3-3.964a.822.822,0,1,1,1.579-.452c.378,1.308.822,2.6,1.258,3.849a.816.816,0,0,1-.765,1.1Zm-2.294-7.887a.822.822,0,0,1-.822-.65c-.288-1.324-.551-2.7-.765-4.112a.824.824,0,0,1,1.628-.255c.206,1.357.461,2.7.74,4a.822.822,0,0,1-.625.979.676.676,0,0,1-.156.025ZM48.1,202.211a.822.822,0,0,1-.822-.74c-.14-1.324-.255-2.714-.337-4.112a.824.824,0,0,1,1.645-.09c.082,1.39.189,2.755.329,4.063a.822.822,0,0,1-.732.9Zm-.428-8.224h0a.822.822,0,0,1-.822-.822A41.694,41.694,0,0,1,47.1,189a.822.822,0,1,1,1.637.164c-.132,1.34-.214,2.7-.238,4.038a.822.822,0,0,1-.822.789Zm.822-8.174h-.148a.822.822,0,0,1-.658-.954c.247-1.365.559-2.73.913-4.112a.822.822,0,0,1,1.587.428c-.345,1.3-.641,2.632-.888,3.947A.822.822,0,0,1,48.495,185.813Zm2.122-7.895a.825.825,0,0,1-.773-1.1c.461-1.3.979-2.607,1.546-3.882a.822.822,0,1,1,1.5.674c-.543,1.225-1.053,2.467-1.5,3.758A.822.822,0,0,1,50.617,177.918Zm3.339-7.508a.822.822,0,0,1-.715-1.217c.658-1.217,1.382-2.467,2.138-3.586a.822.822,0,0,1,1.373.9c-.732,1.127-1.431,2.294-2.072,3.479a.822.822,0,0,1-.724.387Zm4.531-6.924a.822.822,0,0,1-.65-1.324c.822-1.1,1.752-2.179,2.681-3.2a.824.824,0,0,1,1.217,1.11c-.9.987-1.776,2.031-2.6,3.092a.822.822,0,0,1-.65.321Zm5.535-6.069a.822.822,0,0,1-.559-1.423c1.012-.954,2.081-1.867,3.166-2.722a.823.823,0,0,1,1.02,1.291c-1.053.822-2.081,1.711-3.067,2.632a.822.822,0,0,1-.6.222Zm6.447-5.091A.822.822,0,0,1,70,150.78c1.151-.765,2.352-1.489,3.569-2.163a.829.829,0,1,1,.822,1.439c-1.176.65-2.344,1.357-3.454,2.1a.822.822,0,0,1-.51.173Zm7.138-4.013a.822.822,0,0,1-.337-1.571c1.258-.567,2.558-1.1,3.865-1.571a.822.822,0,0,1,.559,1.546c-1.266.461-2.525.97-3.75,1.521A.822.822,0,0,1,77.607,148.313Z" transform="translate(-46.85 -124.973)"/>
      </g>
    </g>
    <g id="freepik--Icon--inject-257" transform="translate(202.247 325.935)">
      <g id="freepik--At--inject-257" transform="translate(0 0)">
        <path id="Trazado_110357" data-name="Trazado 110357" class="cls-6" d="M317.8,410.516a.822.822,0,0,0-.428-.732,2.681,2.681,0,0,0-1.809-.535,4.219,4.219,0,0,0-1.908.461l-3.29,1.752a5.872,5.872,0,0,0,.6-1.5,5.154,5.154,0,0,0,.132-1.234v-4.885a5.756,5.756,0,0,0-.493-2.27,8.75,8.75,0,0,0-2.944-3.331c-1.012-.773-2.22-1.645-3.643-2.558s-2.706-1.711-3.865-2.36a47.548,47.548,0,0,0-9.737-3.882A40.544,40.544,0,0,0,279.144,388a52.337,52.337,0,0,0-12.8,1.826,66.612,66.612,0,0,0-14.318,5.757,34.574,34.574,0,0,0-9.712,7.081,15.494,15.494,0,0,0-3.972,7.245,10.476,10.476,0,0,0-.206,2.188v4.934a10.691,10.691,0,0,0,1.168,4.794,17.7,17.7,0,0,0,5.1,6c.485.378,1.184.88,2.105,1.513s1.9,1.291,2.952,1.974,2.056,1.34,3.051,1.957,1.793,1.1,2.418,1.456a40.949,40.949,0,0,0,9.778,3.6,48.43,48.43,0,0,0,11.513,1.266,54.2,54.2,0,0,0,12.484-1.579,61.557,61.557,0,0,0,21.135-10.148,28.692,28.692,0,0,0,4.778-4.581,12.928,12.928,0,0,0,2.294-4.054,24.8,24.8,0,0,0,.863-3.594,1.127,1.127,0,0,0,0-.156C317.8,415.253,317.8,410.565,317.8,410.516Zm-12.336,5.9a13.769,13.769,0,0,1-1.891,2.138,27.132,27.132,0,0,1-3.2,2.467,55.313,55.313,0,0,1-5.008,2.936,39.212,39.212,0,0,1-8.7,3.413,38.741,38.741,0,0,1-8.668,1.242,35.288,35.288,0,0,1-8.224-.732,30.067,30.067,0,0,1-7.336-2.525,24.256,24.256,0,0,1-2.4-1.357c-.929-.576-1.875-1.176-2.837-1.809s-1.875-1.242-2.73-1.834a17.779,17.779,0,0,1-1.941-1.489,12.961,12.961,0,0,1-3.561-4.605c-.074-.189-.148-.37-.214-.559a11.916,11.916,0,0,1,2.8-4.26,26.643,26.643,0,0,1,6.661-4.745,56.39,56.39,0,0,1,9.7-4.112,39.243,39.243,0,0,1,4.934-1.184l-.822.452a1.521,1.521,0,0,0-.913,1.069,1.069,1.069,0,0,0,.576,1.077l.559.362a17.785,17.785,0,0,0-4.383,0,15.724,15.724,0,0,0-5.271,1.883,11.1,11.1,0,0,0-3.989,3.207,5.346,5.346,0,0,0-1.1,3.166v5.049a4.325,4.325,0,0,0,0,.461,7.55,7.55,0,0,0,1.645,3.816,17.444,17.444,0,0,0,4.334,3.791,25.71,25.71,0,0,0,5.987,2.919,26.253,26.253,0,0,0,6.406,1.308,24.089,24.089,0,0,0,6.357-.345,20.56,20.56,0,0,0,5.847-2.039,21.767,21.767,0,0,0,3.536-2.237,8.361,8.361,0,0,0,1.785-1.891,3.668,3.668,0,0,0,.584-1.645,8.8,8.8,0,0,0,0-1.472,22.129,22.129,0,0,0,5.008-.354,22.67,22.67,0,0,0,6.579-2.467l.378-.222A2.735,2.735,0,0,1,305.46,416.421Zm-29.351-4.844a14.3,14.3,0,0,1,6.077,2.352,14.141,14.141,0,0,1,1.834,1.414,9.288,9.288,0,0,1-.962.592,9.531,9.531,0,0,1-5.65,1.028,13.906,13.906,0,0,1-6.086-2.319,12.107,12.107,0,0,1-1.875-1.464,6.508,6.508,0,0,1,.863-.543,9.539,9.539,0,0,1,5.822-1.061Zm22.92-4.877a8.1,8.1,0,0,1-2.944.658,5.707,5.707,0,0,1-3.421-.888l-11.135-7.294a28.463,28.463,0,0,1,3.331.576,34.476,34.476,0,0,1,7.821,2.928,41.592,41.592,0,0,1,3.635,2.122c1,.642,1.891,1.291,2.739,1.9Z" transform="translate(-238.139 -387.994)"/>
        <path id="Trazado_110358" data-name="Trazado 110358" class="cls-7" d="M317.8,410.516a.822.822,0,0,0-.428-.732,2.681,2.681,0,0,0-1.809-.535,4.219,4.219,0,0,0-1.908.461l-3.29,1.752a5.872,5.872,0,0,0,.6-1.5,5.154,5.154,0,0,0,.132-1.234v-4.885a5.756,5.756,0,0,0-.493-2.27,8.75,8.75,0,0,0-2.944-3.331c-1.012-.773-2.22-1.645-3.643-2.558s-2.706-1.711-3.865-2.36a47.548,47.548,0,0,0-9.737-3.882A40.544,40.544,0,0,0,279.144,388a52.337,52.337,0,0,0-12.8,1.826,66.612,66.612,0,0,0-14.318,5.757,34.574,34.574,0,0,0-9.712,7.081,15.494,15.494,0,0,0-3.972,7.245,10.476,10.476,0,0,0-.206,2.188v4.934a10.691,10.691,0,0,0,1.168,4.794,17.7,17.7,0,0,0,5.1,6c.485.378,1.184.88,2.105,1.513s1.9,1.291,2.952,1.974,2.056,1.34,3.051,1.957,1.793,1.1,2.418,1.456a40.949,40.949,0,0,0,9.778,3.6,48.43,48.43,0,0,0,11.513,1.266,54.2,54.2,0,0,0,12.484-1.579,61.557,61.557,0,0,0,21.135-10.148,28.692,28.692,0,0,0,4.778-4.581,12.928,12.928,0,0,0,2.294-4.054,24.8,24.8,0,0,0,.863-3.594,1.127,1.127,0,0,0,0-.156C317.8,415.253,317.8,410.565,317.8,410.516Zm-12.336,5.9a13.769,13.769,0,0,1-1.891,2.138,27.132,27.132,0,0,1-3.2,2.467,55.313,55.313,0,0,1-5.008,2.936,39.212,39.212,0,0,1-8.7,3.413,38.741,38.741,0,0,1-8.668,1.242,35.288,35.288,0,0,1-8.224-.732,30.067,30.067,0,0,1-7.336-2.525,24.256,24.256,0,0,1-2.4-1.357c-.929-.576-1.875-1.176-2.837-1.809s-1.875-1.242-2.73-1.834a17.779,17.779,0,0,1-1.941-1.489,12.961,12.961,0,0,1-3.561-4.605c-.074-.189-.148-.37-.214-.559a11.916,11.916,0,0,1,2.8-4.26,26.643,26.643,0,0,1,6.661-4.745,56.39,56.39,0,0,1,9.7-4.112,39.243,39.243,0,0,1,4.934-1.184l-.822.452a1.521,1.521,0,0,0-.913,1.069,1.069,1.069,0,0,0,.576,1.077l.559.362a17.785,17.785,0,0,0-4.383,0,15.724,15.724,0,0,0-5.271,1.883,11.1,11.1,0,0,0-3.989,3.207,5.346,5.346,0,0,0-1.1,3.166v5.049a4.325,4.325,0,0,0,0,.461,7.55,7.55,0,0,0,1.645,3.816,17.444,17.444,0,0,0,4.334,3.791,25.71,25.71,0,0,0,5.987,2.919,26.253,26.253,0,0,0,6.406,1.308,24.089,24.089,0,0,0,6.357-.345,20.56,20.56,0,0,0,5.847-2.039,21.767,21.767,0,0,0,3.536-2.237,8.361,8.361,0,0,0,1.785-1.891,3.668,3.668,0,0,0,.584-1.645,8.8,8.8,0,0,0,0-1.472,22.129,22.129,0,0,0,5.008-.354,22.67,22.67,0,0,0,6.579-2.467l.378-.222A2.735,2.735,0,0,1,305.46,416.421Zm-29.351-4.844a14.3,14.3,0,0,1,6.077,2.352,14.141,14.141,0,0,1,1.834,1.414,9.288,9.288,0,0,1-.962.592,9.531,9.531,0,0,1-5.65,1.028,13.906,13.906,0,0,1-6.086-2.319,12.107,12.107,0,0,1-1.875-1.464,6.508,6.508,0,0,1,.863-.543,9.539,9.539,0,0,1,5.822-1.061Zm22.92-4.877a8.1,8.1,0,0,1-2.944.658,5.707,5.707,0,0,1-3.421-.888l-11.135-7.294a28.463,28.463,0,0,1,3.331.576,34.476,34.476,0,0,1,7.821,2.928,41.592,41.592,0,0,1,3.635,2.122c1,.642,1.891,1.291,2.739,1.9Z" transform="translate(-238.139 -387.994)"/>
        <path id="Trazado_110359" data-name="Trazado 110359" class="cls-8" d="M251.019,415.024a11.916,11.916,0,0,1,2.8-4.26,26.646,26.646,0,0,1,6.661-4.745,56.392,56.392,0,0,1,9.7-4.112,39.257,39.257,0,0,1,4.934-1.184l2.993-1.587a3.9,3.9,0,0,1,1.9-.419,3.24,3.24,0,0,1,1.76.452l1.974,1.291a28.462,28.462,0,0,1,3.331.576,34.473,34.473,0,0,1,7.821,2.928,41.6,41.6,0,0,1,3.635,2.122c.979.641,1.867,1.275,2.714,1.9a4.205,4.205,0,0,0,.477-.214,2.961,2.961,0,0,0,1.719-1.891c.164-.74-.362-1.571-1.579-2.467-1.012-.773-2.122-1.563-3.289-2.352a37.823,37.823,0,0,0-3.635-2.122,33.714,33.714,0,0,0-7.821-2.928,28.782,28.782,0,0,0-8.158-.748,35.723,35.723,0,0,0-8.758,1.645,56.465,56.465,0,0,0-9.7,4.112,26.432,26.432,0,0,0-6.661,4.737,11.209,11.209,0,0,0-3.01,4.934,7.533,7.533,0,0,0,.419,4.934,11.267,11.267,0,0,0,1.415,2.368,11.265,11.265,0,0,1-1.414-2.368C251.158,415.394,251.084,415.213,251.019,415.024Z" transform="translate(-240.352 -389.278)"/>
        <path id="Trazado_110360" data-name="Trazado 110360" class="cls-8" d="M288.673,412.873a14.318,14.318,0,0,0-6.077-2.36,9.548,9.548,0,0,0-5.757,1.069c-1.727.913-2.467,1.982-2.294,3.216a4.358,4.358,0,0,0,1.439,2.377h0a7.079,7.079,0,0,1,.863-.543,9.539,9.539,0,0,1,5.757-1.061,14.3,14.3,0,0,1,6.077,2.352,14.131,14.131,0,0,1,1.834,1.414l-.436.288q2.171-1.332,1.941-2.936C291.831,415.489,290.729,414.189,288.673,412.873Z" transform="translate(-244.601 -391.98)"/>
        <path id="Trazado_110361" data-name="Trazado 110361" class="cls-8" d="M280.189,427.826A26.464,26.464,0,0,1,267.8,423.6a17.269,17.269,0,0,1-4.334-3.8,7.525,7.525,0,0,1-1.645-3.808,5.434,5.434,0,0,1,0-.732v5.313a4.309,4.309,0,0,0,0,.461,7.549,7.549,0,0,0,1.645,3.816,17.443,17.443,0,0,0,4.334,3.791,25.709,25.709,0,0,0,5.987,2.919,26.252,26.252,0,0,0,6.406,1.308Z" transform="translate(-242.343 -392.837)"/>
        <path id="Trazado_110362" data-name="Trazado 110362" class="cls-8" d="M306.22,418.764v5.049a22.132,22.132,0,0,0,5.008-.354V418.41a21.664,21.664,0,0,1-5.008.354Z" transform="translate(-250.232 -393.396)"/>
        <path id="Trazado_110363" data-name="Trazado 110363" class="cls-8" d="M264.753,438.534a40.594,40.594,0,0,1-9.778-3.6c-.625-.345-1.431-.822-2.418-1.447s-2.007-1.275-3.051-1.957-2.031-1.349-2.952-1.974-1.645-1.135-2.105-1.513a17.73,17.73,0,0,1-5.1-6.012,10.691,10.691,0,0,1-1.16-4.819v5.049a10.691,10.691,0,0,0,1.168,4.794,17.706,17.706,0,0,0,5.1,6c.485.378,1.184.88,2.105,1.513s1.9,1.291,2.952,1.974,2.056,1.34,3.051,1.957,1.793,1.1,2.418,1.456a40.947,40.947,0,0,0,9.778,3.6,48.43,48.43,0,0,0,11.513,1.267v-5.041A48.424,48.424,0,0,1,264.753,438.534Z" transform="translate(-238.148 -393.183)"/>
        <path id="Trazado_110364" data-name="Trazado 110364" class="cls-6" d="M307.672,398.238a8.75,8.75,0,0,1,2.944,3.331,5.255,5.255,0,0,1,.362,3.347A6.883,6.883,0,0,1,309.209,408a13.11,13.11,0,0,1-3.454,2.558,22.444,22.444,0,0,1-6.579,2.467,21.662,21.662,0,0,1-5.008.354v1.472a3.6,3.6,0,0,1-.584,1.645,8.224,8.224,0,0,1-1.785,1.891,21.727,21.727,0,0,1-3.536,2.245,20.83,20.83,0,0,1-5.847,2.04,24.087,24.087,0,0,1-6.357.345,26.464,26.464,0,0,1-12.393-4.227,17.269,17.269,0,0,1-4.334-3.8,7.525,7.525,0,0,1-1.645-3.808,5.247,5.247,0,0,1,1.077-3.635,11.1,11.1,0,0,1,3.989-3.207,15.723,15.723,0,0,1,5.271-1.883,17.787,17.787,0,0,1,4.383,0l-.559-.362a1.069,1.069,0,0,1-.576-1.077,1.521,1.521,0,0,1,.913-1.069l3.841-2.039a3.9,3.9,0,0,1,1.9-.419,3.24,3.24,0,0,1,1.76.452l13.109,8.586a5.691,5.691,0,0,0,3.421.888,7.878,7.878,0,0,0,3.421-.872,2.961,2.961,0,0,0,1.719-1.891c.164-.74-.362-1.571-1.579-2.467-1.012-.773-2.122-1.563-3.29-2.352a37.826,37.826,0,0,0-3.635-2.122,33.715,33.715,0,0,0-7.821-2.928,28.782,28.782,0,0,0-8.15-.748,35.715,35.715,0,0,0-8.767,1.645,56.465,56.465,0,0,0-9.7,4.112,26.432,26.432,0,0,0-6.661,4.737,11.209,11.209,0,0,0-3.01,4.934,7.533,7.533,0,0,0,.419,4.934A12.961,12.961,0,0,0,252.728,419a17.773,17.773,0,0,0,1.941,1.489c.822.592,1.768,1.2,2.73,1.834s1.908,1.234,2.837,1.809a24.257,24.257,0,0,0,2.4,1.357,30.066,30.066,0,0,0,7.336,2.525,35.29,35.29,0,0,0,8.224.732,38.743,38.743,0,0,0,8.668-1.242,39.211,39.211,0,0,0,8.7-3.413,55.316,55.316,0,0,0,5.008-2.936,27.136,27.136,0,0,0,3.2-2.467,12.467,12.467,0,0,0,2.952-3.972,7.582,7.582,0,0,1,.592-1.151,2.944,2.944,0,0,1,1.077-.822l5.3-3.035a4.218,4.218,0,0,1,1.908-.461,2.681,2.681,0,0,1,1.809.535.822.822,0,0,1,.411.88,24.8,24.8,0,0,1-.863,3.594,13.018,13.018,0,0,1-2.294,4.054,29.025,29.025,0,0,1-4.778,4.572,55.758,55.758,0,0,1-8.265,5.189,55.1,55.1,0,0,1-12.87,4.934,54.219,54.219,0,0,1-12.484,1.587,48.422,48.422,0,0,1-11.513-1.275,40.592,40.592,0,0,1-9.778-3.6c-.625-.345-1.431-.822-2.418-1.447s-2.007-1.275-3.051-1.957-2.031-1.349-2.952-1.974-1.645-1.135-2.105-1.513a17.731,17.731,0,0,1-5.1-6.012,10.567,10.567,0,0,1-.962-6.892,15.493,15.493,0,0,1,3.972-7.245,34.9,34.9,0,0,1,9.712-7.081,66.616,66.616,0,0,1,14.318-5.757A52.337,52.337,0,0,1,279.151,388a40.544,40.544,0,0,1,11.242,1.406,47.548,47.548,0,0,1,9.737,3.882q1.735.97,3.865,2.36C305.468,396.609,306.66,397.465,307.672,398.238Zm-36.316,16.406a13.906,13.906,0,0,0,6.086,2.319,9.532,9.532,0,0,0,5.65-1.028c1.817-.962,2.64-2.048,2.467-3.24s-1.283-2.467-3.339-3.808a14.318,14.318,0,0,0-6.077-2.36,9.548,9.548,0,0,0-5.757,1.069c-1.727.913-2.467,1.982-2.294,3.216S269.349,413.328,271.355,414.644Z" transform="translate(-238.147 -387.994)"/>
      </g>
    </g>
    <g id="freepik--Envelope--inject-257" transform="translate(272.924 279.646)">
      <g id="freepik--Mail--inject-257">
        <path id="Trazado_110365" data-name="Trazado 110365" class="cls-6" d="M324.08,365.844v.6a3.355,3.355,0,0,0,1.513,2.632l32.55,18.8a3.347,3.347,0,0,0,3.035,0l53.9-31.119a3.355,3.355,0,0,0,1.513-2.632v-.6a3.355,3.355,0,0,0-1.513-2.632L382.527,332.1a3.347,3.347,0,0,0-3.035,0l-53.9,31.1A3.355,3.355,0,0,0,324.08,365.844Z" transform="translate(-324.08 -331.713)"/>
        <path id="Trazado_110366" data-name="Trazado 110366" class="cls-6" d="M324.08,365.844v.6a3.355,3.355,0,0,0,1.513,2.632l32.55,18.8a3.347,3.347,0,0,0,3.035,0l53.9-31.119a3.355,3.355,0,0,0,1.513-2.632v-.6a3.355,3.355,0,0,0-1.513-2.632L382.527,332.1a3.347,3.347,0,0,0-3.035,0l-53.9,31.1A3.355,3.355,0,0,0,324.08,365.844Z" transform="translate(-324.08 -331.713)"/>
        <path id="Trazado_110367" data-name="Trazado 110367" class="cls-7" d="M359.656,346.09l-34.063,19.663a3.355,3.355,0,0,0-1.513,2.632v.6a3.355,3.355,0,0,0,1.513,2.632l32.55,18.808a3.142,3.142,0,0,0,1.513.362h0Z" transform="translate(-324.08 -334.262)"/>
        <path id="Trazado_110368" data-name="Trazado 110368" class="cls-19" d="M359.656,346.09l-34.063,19.663a3.355,3.355,0,0,0-1.513,2.632v.6a3.355,3.355,0,0,0,1.513,2.632l32.55,18.808a3.142,3.142,0,0,0,1.513.362h0Z" transform="translate(-324.08 -334.262)"/>
        <path id="Trazado_110369" data-name="Trazado 110369" class="cls-7" d="M422.76,350.863l-32.55-18.791a3.347,3.347,0,0,0-3.035,0L367.34,343.519v44.688h0a3.15,3.15,0,0,0,1.521-.362l53.9-31.119a3.355,3.355,0,0,0,1.513-2.632v-.6a3.356,3.356,0,0,0-1.513-2.632Z" transform="translate(-331.764 -331.708)"/>
        <path id="Trazado_110370" data-name="Trazado 110370" class="cls-6" d="M353.119,380.743l-27.336-15.781a.921.921,0,0,1,0-1.752l53.9-31.119a3.347,3.347,0,0,1,3.035,0l32.55,18.775a.921.921,0,0,1,0,1.752l-8.948,5.165-3.125,1.809-41.826,24.17a3.347,3.347,0,0,1-3.035,0l-2.656-1.53Z" transform="translate(-324.269 -331.711)"/>
        <path id="Trazado_110371" data-name="Trazado 110371" class="cls-19" d="M377.942,354.525l37.328-3.66-37.007,2.1,4.449-20.888a3.117,3.117,0,0,0-1.645-.345l-6.982,28.232-48.915,4.063a1.02,1.02,0,0,0,.617.946l39.474-2.294-5.444,21.448,6.957-21.53h0l6.744-.395a3.684,3.684,0,0,0,2.229-.929h0a3.635,3.635,0,0,0,1.135-1.957Z" transform="translate(-324.274 -331.71)"/>
        <path id="Trazado_110372" data-name="Trazado 110372" class="cls-25" d="M336.84,363.05l37.246-3.068,1.332-5.337.74-2.969,4.934-19.926a3.01,3.01,0,0,0-1.382.345l-26.949,15.559-26.974,15.551a1.1,1.1,0,0,0-.617.822l7.475-.617Z" transform="translate(-324.274 -331.715)"/>
      </g>
    </g>
  </g>
</svg>
