<svg id="Componente_12_1" data-name="Componente 12 – 1" xmlns="http://www.w3.org/2000/svg" width="60" height="60" viewBox="0 0 60 60">
  <g id="Grupo_59806" data-name="Grupo 59806" transform="translate(-390 -7234)">
    <g id="Grupo_59500" data-name="Grupo 59500" transform="translate(205 -240)">
      <circle id="Elipse_4191" data-name="Elipse 4191" cx="30" cy="30" r="30" transform="translate(185 7474)" fill="#6595bf"/>
    </g>
    <g id="love" transform="translate(397 7242)">
      <g id="Grupo_59804" data-name="Grupo 59804" transform="translate(0.902 0.902)">
        <path id="Trazado_113513" data-name="Trazado 113513" d="M290.98,136.983v-8.276a2.707,2.707,0,0,1,5.414,0v12.258a10.83,10.83,0,0,1-5.986,9.686l-4.843,2.421v5.414H276V146.706a4.457,4.457,0,0,1,4.012-4.435c.01,0,4.136-.634,6.125-2.622l2.027-2.026A2.706,2.706,0,0,1,290.98,136.983Z" transform="translate(-251.996 -116.976)" fill="#fce8d0"/>
        <path id="Trazado_113514" data-name="Trazado 113514" d="M137.207,26c4.943,0,6.666,4.553,6.666,7.219,0,5.414-4.451,8.491-12.347,15.341-7.9-6.85-12.347-9.926-12.347-15.341,0-2.667,1.723-7.219,6.666-7.219,3.035,0,4.717,2.215,5.681,3.979C132.491,28.215,134.173,26,137.207,26Z" transform="translate(-109.327 -26)" fill="#d9a171"/>
        <path id="Trazado_113515" data-name="Trazado 113515" d="M15.414,136.983a2.706,2.706,0,0,1,2.816.639l2.027,2.026c1.948,1.948,6.115,2.62,6.125,2.622a4.457,4.457,0,0,1,4.012,4.435v11.781H20.829v-5.414l-4.843-2.421A10.83,10.83,0,0,1,10,140.966V128.707a2.707,2.707,0,1,1,5.414,0Z" transform="translate(-10 -116.976)" fill="#fce8d0"/>
      </g>
      <g id="Grupo_59805" data-name="Grupo 59805" transform="translate(0 0)">
        <path id="Trazado_113516" data-name="Trazado 113516" d="M135.678,24.122c0-3.14-2.055-8.122-7.568-8.122a6.792,6.792,0,0,0-5.681,3.179A6.792,6.792,0,0,0,116.749,16c-5.514,0-7.569,4.982-7.569,8.122,0,5.414,4.225,8.8,10,13.736.848.725,1.725,1.475,2.66,2.286a.9.9,0,0,0,1.183,0c.935-.811,1.812-1.561,2.66-2.286,6.043-5.167,10-8.437,10-13.736ZM122.429,38.269c-.721-.622-1.409-1.21-2.079-1.783-6.039-5.164-9.366-8.008-9.366-12.364,0-2.955,1.933-6.317,5.764-6.317,2,0,3.6,1.148,4.889,3.509a.9.9,0,0,0,1.584,0c1.291-2.361,2.89-3.509,4.889-3.509,3.777,0,5.764,3.312,5.764,6.317,0,4.356-3.327,7.2-9.366,12.364C123.838,37.059,123.15,37.647,122.429,38.269Z" transform="translate(-99.327 -16)"/>
        <path id="Trazado_113517" data-name="Trazado 113517" d="M6.485,142.361l4.344,2.172v4.857a.9.9,0,0,0,.9.9H21.3a.9.9,0,0,0,.9-.9V137.608a5.341,5.341,0,0,0-4.818-5.333l-.074-.008a11.467,11.467,0,0,1-5.51-2.355l-2.027-2.026a3.586,3.586,0,0,0-2.552-1.057V119.61a3.61,3.61,0,1,0-7.219,0v12.258a11.732,11.732,0,0,0,6.485,10.493ZM1.8,119.61a1.8,1.8,0,1,1,3.61,0v7.7a3.609,3.609,0,0,0-.747,5.678l4.621,4.622a.9.9,0,0,0,1.276-1.276l-4.621-4.622a1.8,1.8,0,0,1,.674-2.978h0a1.8,1.8,0,0,1,1.877.427l2.027,2.026c2.092,2.092,6.664,2.88,6.673,2.882a3.544,3.544,0,0,1,3.2,3.537v10.879H12.634v-4.512a.9.9,0,0,0-.5-.807l-4.843-2.421A9.873,9.873,0,0,1,1.8,131.868Z" transform="translate(0 -106.976)"/>
        <circle id="Elipse_4279" data-name="Elipse 4279" cx="0.9" cy="0.9" r="0.9" transform="translate(40.504 32.252)"/>
        <path id="Trazado_113518" data-name="Trazado 113518" d="M284.59,116a3.614,3.614,0,0,0-3.61,3.61v7.219a3.585,3.585,0,0,0-2.552,1.057l-2.027,2.026a11.469,11.469,0,0,1-5.517,2.356l-.06.007A5.343,5.343,0,0,0,266,137.608v11.781a.9.9,0,0,0,.9.9h9.566a.9.9,0,0,0,.9-.9v-4.857l2.954-1.477a.9.9,0,0,0-.807-1.614l-3.453,1.726a.9.9,0,0,0-.5.807v4.512H267.8V137.608a3.546,3.546,0,0,1,3.207-3.538l.06-.007a13.257,13.257,0,0,0,6.606-2.875l2.027-2.026a1.8,1.8,0,0,1,1.877-.427h0a1.8,1.8,0,0,1,.674,2.978l-4.621,4.622a.9.9,0,0,0,1.276,1.276l4.621-4.622a3.609,3.609,0,0,0-.747-5.678v-7.7a1.8,1.8,0,1,1,3.61,0v12.258a9.954,9.954,0,0,1-1.2,4.74.9.9,0,1,0,1.586.862,11.763,11.763,0,0,0,1.424-5.6V119.61A3.614,3.614,0,0,0,284.59,116Z" transform="translate(-241.996 -106.976)"/>
      </g>
    </g>
  </g>
</svg>
