<svg xmlns="http://www.w3.org/2000/svg" width="419.09" height="372.01" viewBox="0 0 419.09 372.01">
  <g id="Discussion-rafiki" transform="translate(-56.11 -55)">
    <g id="freepik--background-complete--inject-234" transform="translate(56.11)">
      <rect id="Rectángulo_8440" data-name="Rectángulo 8440" width="33.12" height="0.25" transform="translate(335.87 398.49)" fill="#ebebeb"/>
      <rect id="Rectángulo_8441" data-name="Rectángulo 8441" width="8.69" height="0.25" transform="translate(269.415 401.21)" fill="#ebebeb"/>
      <rect id="Rectángulo_8442" data-name="Rectángulo 8442" width="19.19" height="0.25" transform="translate(329.853 389.21)" fill="#ebebeb"/>
      <rect id="Rectángulo_8443" data-name="Rectángulo 8443" width="43.19" height="0.25" transform="translate(52.46 390.89)" fill="#ebebeb"/>
      <rect id="Rectángulo_8444" data-name="Rectángulo 8444" width="6.33" height="0.25" transform="translate(87.423 390.89)" fill="#ebebeb"/>
      <rect id="Rectángulo_8445" data-name="Rectángulo 8445" width="93.68" height="0.25" transform="translate(105.291 395.11)" fill="#ebebeb"/>
      <path id="Trazado_108336" data-name="Trazado 108336" d="M237,337.8H43.91a5.71,5.71,0,0,1-5.7-5.71V60.66A5.71,5.71,0,0,1,43.91,55H237a5.71,5.71,0,0,1,5.71,5.71V332.09A5.71,5.71,0,0,1,237,337.8ZM43.91,55.2a5.46,5.46,0,0,0-5.45,5.46V332.09a5.46,5.46,0,0,0,5.45,5.46H237a5.47,5.47,0,0,0,5.46-5.46V60.66A5.47,5.47,0,0,0,237,55.2Z" fill="#ebebeb"/>
      <path id="Trazado_108337" data-name="Trazado 108337" d="M453.31,337.8H260.21a5.72,5.72,0,0,1-5.71-5.71V60.66A5.72,5.72,0,0,1,260.21,55h193.1A5.71,5.71,0,0,1,459,60.66V332.09A5.71,5.71,0,0,1,453.31,337.8ZM260.21,55.2a5.47,5.47,0,0,0-5.46,5.46V332.09a5.47,5.47,0,0,0,5.46,5.46h193.1a5.47,5.47,0,0,0,5.46-5.46V60.66a5.47,5.47,0,0,0-5.46-5.46Z" transform="translate(-80.91)" fill="#ebebeb"/>
      <rect id="Rectángulo_8446" data-name="Rectángulo 8446" width="419.09" height="0.25" transform="translate(0 382.4)" fill="#ebebeb"/>
      <path id="Trazado_108338" data-name="Trazado 108338" d="M287,325.06a.49.49,0,0,1-.17-.36c-.12-2.53-1.64-27.4-16.87-44.43-12.88-14.41.33-4.12,6.07.51a.53.53,0,0,0,.79-.68c-4-6.83-14.18-24.89-10.67-28.41,3.33-3.32,10.19,13.17,13.26,21.17a.53.53,0,0,0,1-.24c-.88-8.47-2.17-26.18,2.6-25.55s3.4,24,2.47,35.45a.53.53,0,0,0,1,.2c2.13-7,6.18-17.45,10.94-14.7,7.05,4.09-10.37,18.42-9.28,34C289.25,317.25,289.53,327.26,287,325.06Z" transform="translate(-45.984)" fill="#f0f0f0"/>
      <path id="Trazado_108339" data-name="Trazado 108339" d="M296.12,327.36c.05,0,.12-.24.09-.41-3.32-21.07,19-36.39,34.66-44,3.49-1.69,7.11-3.43,10.08-6-5.8.38-11.6,2.82-17.17,4.68-.73.25-1.12-.51-.48-.95,7.1-4.94,26.89-23.09,21.19-28.38-2.57-2.39-16.78,16.56-20.13,20-.54.55-1.4.06-1-.58,4.41-7.38,5.87-30.66,1.4-30.38-1.89.12-2.61,11-3.6,15.47-1.86,8.31-5.35,16.12-9,23.77-.33.67-1.45.56-1.28-.12,1.27-5.09,1.74-20-4.53-18.94-4.54.78-3.81,9.57-3.85,14.28-.08,8.36-.78,16.93-4.38,24.37C295.66,305.22,292.61,327.78,296.12,327.36Z" transform="translate(-53.072)" fill="#f0f0f0"/>
      <path id="Trazado_108340" data-name="Trazado 108340" d="M291.07,329.69a.3.3,0,0,0,.11-.24c.08-1.7,1.1-18.39,11.32-29.82,8.65-9.67-.22-2.77-4.07.34a.36.36,0,0,1-.53-.46c2.71-4.58,9.52-16.7,7.16-19.06s-6.84,8.84-8.9,14.21a.35.35,0,0,1-.68-.17c.59-5.68,1.45-17.57-1.75-17.15s-2.28,16.12-1.66,23.8a.352.352,0,0,1-.69.14c-1.43-4.73-4.16-11.72-7.35-9.87-4.73,2.74,7,12.36,6.23,22.81C289.54,324.45,289.35,331.17,291.07,329.69Z" transform="translate(-48.013)" fill="#ebebeb"/>
      <path id="Trazado_108341" data-name="Trazado 108341" d="M302.59,376.61c5.26-19.62,8.73-47.26,8.73-54.06H272.06c0,6.8,3.47,34.44,8.73,54.06a8.25,8.25,0,0,0,8,6.11h5.84a8.26,8.26,0,0,0,7.96-6.11Z" transform="translate(-47.776)" fill="#e6e6e6"/>
      <path id="Trazado_108342" data-name="Trazado 108342" d="M310.18,335.54c.3-2.39.53-4.56.72-6.47H272.48c.18,1.91.42,4.08.71,6.47Z" transform="translate(-47.763)" fill="#f5f5f5"/>
      <rect id="Rectángulo_8447" data-name="Rectángulo 8447" width="47.75" height="43.02" transform="translate(139.483 252.81) rotate(180)" fill="#f5f5f5"/>
      <rect id="Rectángulo_8448" data-name="Rectángulo 8448" width="38.54" height="34.71" rx="4.6" transform="translate(134.465 248.66) rotate(180)" fill="#ebebeb"/>
      <path id="Trazado_108343" data-name="Trazado 108343" d="M143.55,213.94a2.87,2.87,0,0,1-2.84,2.08H130.48a2.87,2.87,0,0,1-2.84-2.08Z" transform="translate(-21.333)" fill="#e0e0e0"/>
      <rect id="Rectángulo_8449" data-name="Rectángulo 8449" width="47.75" height="43.02" transform="translate(139.483 295.82) rotate(180)" fill="#f0f0f0"/>
      <rect id="Rectángulo_8450" data-name="Rectángulo 8450" width="38.54" height="34.71" rx="4.6" transform="translate(134.465 291.67) rotate(180)" fill="#fafafa"/>
      <path id="Trazado_108344" data-name="Trazado 108344" d="M143.55,257a2.86,2.86,0,0,1-2.84,2.07H130.48a2.86,2.86,0,0,1-2.84-2.07Z" transform="translate(-21.333)" fill="#e0e0e0"/>
      <rect id="Rectángulo_8451" data-name="Rectángulo 8451" width="47.75" height="43.02" transform="translate(139.483 338.84) rotate(180)" fill="#f5f5f5"/>
      <rect id="Rectángulo_8452" data-name="Rectángulo 8452" width="38.54" height="34.71" rx="4.6" transform="translate(134.465 334.69) rotate(180)" fill="#ebebeb"/>
      <path id="Trazado_108345" data-name="Trazado 108345" d="M143.55,300a2.86,2.86,0,0,1-2.84,2.07H130.48a2.86,2.86,0,0,1-2.84-2.07Z" transform="translate(-21.333)" fill="#e0e0e0"/>
      <rect id="Rectángulo_8453" data-name="Rectángulo 8453" width="47.75" height="43.02" transform="translate(139.483 381.86) rotate(180)" fill="#f0f0f0"/>
      <rect id="Rectángulo_8454" data-name="Rectángulo 8454" width="38.54" height="34.71" rx="4.6" transform="translate(134.465 377.71) rotate(180)" fill="#fafafa"/>
      <path id="Trazado_108346" data-name="Trazado 108346" d="M143.55,343a2.87,2.87,0,0,1-2.84,2.08H130.48a2.87,2.87,0,0,1-2.84-2.08Z" transform="translate(-21.333)" fill="#e0e0e0"/>
      <rect id="Rectángulo_8455" data-name="Rectángulo 8455" width="5.85" height="172.07" transform="translate(94.385 381.86) rotate(180)" fill="#e6e6e6"/>
      <rect id="Rectángulo_8456" data-name="Rectángulo 8456" width="47.75" height="43.02" transform="translate(110.16 252.81) rotate(180)" fill="#f5f5f5"/>
      <rect id="Rectángulo_8457" data-name="Rectángulo 8457" width="38.54" height="34.71" rx="4.6" transform="translate(101.45 248.66) rotate(180)" fill="#ebebeb"/>
      <path id="Trazado_108347" data-name="Trazado 108347" d="M94.23,213.94A2.86,2.86,0,0,1,91.4,216H81.16a2.85,2.85,0,0,1-2.83-2.08Z" transform="translate(-4.539)" fill="#e0e0e0"/>
      <rect id="Rectángulo_8458" data-name="Rectángulo 8458" width="47.75" height="43.02" transform="translate(110.16 295.82) rotate(180)" fill="#f0f0f0"/>
      <rect id="Rectángulo_8459" data-name="Rectángulo 8459" width="38.54" height="34.71" rx="4.6" transform="translate(101.45 291.67) rotate(180)" fill="#fafafa"/>
      <path id="Trazado_108348" data-name="Trazado 108348" d="M94.23,257a2.86,2.86,0,0,1-2.83,2H81.16a2.85,2.85,0,0,1-2.83-2Z" transform="translate(-4.539)" fill="#e0e0e0"/>
      <rect id="Rectángulo_8460" data-name="Rectángulo 8460" width="47.75" height="43.02" transform="translate(110.16 338.84) rotate(180)" fill="#f5f5f5"/>
      <rect id="Rectángulo_8461" data-name="Rectángulo 8461" width="38.54" height="34.71" rx="4.6" transform="translate(101.45 334.69) rotate(180)" fill="#ebebeb"/>
      <path id="Trazado_108349" data-name="Trazado 108349" d="M94.23,300a2.86,2.86,0,0,1-2.84,2.07H81.16A2.85,2.85,0,0,1,78.33,300Z" transform="translate(-4.539)" fill="#e0e0e0"/>
      <rect id="Rectángulo_8462" data-name="Rectángulo 8462" width="47.75" height="43.02" transform="translate(110.16 381.86) rotate(180)" fill="#f0f0f0"/>
      <rect id="Rectángulo_8463" data-name="Rectángulo 8463" width="38.54" height="34.71" rx="4.6" transform="translate(101.45 377.71) rotate(180)" fill="#fafafa"/>
      <path id="Trazado_108350" data-name="Trazado 108350" d="M94.23,343a2.87,2.87,0,0,1-2.84,2.08H81.16A2.85,2.85,0,0,1,78.33,343Z" transform="translate(-4.539)" fill="#e0e0e0"/>
      <rect id="Rectángulo_8464" data-name="Rectángulo 8464" width="5.85" height="172.07" transform="translate(62.4 381.86) rotate(180)" fill="#e6e6e6"/>
      <rect id="Rectángulo_8465" data-name="Rectángulo 8465" width="1.8" height="140.37" transform="translate(265.878 97.33)" fill="#e0e0e0"/>
      <rect id="Rectángulo_8466" data-name="Rectángulo 8466" width="1.8" height="140.37" transform="translate(348.57 97.33)" fill="#e0e0e0"/>
      <path id="Trazado_108351" data-name="Trazado 108351" d="M438.33,106.16H310.38l-2.69-6.3H441.04Z" transform="translate(-80.91)" fill="#ebebeb"/>
      <path id="Trazado_108352" data-name="Trazado 108352" d="M438.33,114.81H310.38l-2.69-6.3H441.04Z" transform="translate(-80.91)" fill="#ebebeb"/>
      <path id="Trazado_108353" data-name="Trazado 108353" d="M438.33,123.46H310.38l-2.69-6.3H441.04Z" transform="translate(-80.91)" fill="#ebebeb"/>
      <path id="Trazado_108354" data-name="Trazado 108354" d="M438.33,132.11H310.38l-2.69-6.3H441.04Z" transform="translate(-80.91)" fill="#ebebeb"/>
      <path id="Trazado_108355" data-name="Trazado 108355" d="M438.33,140.75H310.38l-2.69-6.29H441.04Z" transform="translate(-80.91)" fill="#ebebeb"/>
      <path id="Trazado_108356" data-name="Trazado 108356" d="M438.33,149.4H310.38l-2.69-6.3H441.04Z" transform="translate(-80.91)" fill="#ebebeb"/>
      <path id="Trazado_108357" data-name="Trazado 108357" d="M438.33,158.05H310.38l-2.69-6.3H441.04Z" transform="translate(-80.91)" fill="#ebebeb"/>
      <path id="Trazado_108358" data-name="Trazado 108358" d="M438.33,166.7H310.38l-2.69-6.3H441.04Z" transform="translate(-80.91)" fill="#ebebeb"/>
      <path id="Trazado_108359" data-name="Trazado 108359" d="M438.33,175.35H310.38l-2.69-6.3H441.04Z" transform="translate(-80.91)" fill="#ebebeb"/>
      <path id="Trazado_108360" data-name="Trazado 108360" d="M438.33,184H310.38l-2.69-6.3H441.04Z" transform="translate(-80.91)" fill="#ebebeb"/>
      <path id="Trazado_108361" data-name="Trazado 108361" d="M438.33,192.65H310.38l-2.69-6.3H441.04Z" transform="translate(-80.91)" fill="#ebebeb"/>
      <path id="Trazado_108362" data-name="Trazado 108362" d="M438.33,201.3H310.38l-2.69-6.3H441.04Z" transform="translate(-80.91)" fill="#ebebeb"/>
      <path id="Trazado_108363" data-name="Trazado 108363" d="M438.33,209.95H310.38l-2.69-6.3H441.04Z" transform="translate(-80.91)" fill="#ebebeb"/>
      <path id="Trazado_108364" data-name="Trazado 108364" d="M438.33,218.6H310.38l-2.69-6.3H441.04Z" transform="translate(-80.91)" fill="#ebebeb"/>
      <path id="Trazado_108365" data-name="Trazado 108365" d="M438.33,227.25H310.38l-2.69-6.3H441.04Z" transform="translate(-80.91)" fill="#ebebeb"/>
      <path id="Trazado_108366" data-name="Trazado 108366" d="M438.33,235.9H310.38l-2.69-6.3H441.04Z" transform="translate(-80.91)" fill="#ebebeb"/>
      <rect id="Rectángulo_8467" data-name="Rectángulo 8467" width="133.35" height="3.6" transform="translate(226.77 235.9)" fill="#e0e0e0"/>
      <rect id="Rectángulo_8468" data-name="Rectángulo 8468" width="142.65" height="8.4" transform="translate(222.12 91.97)" fill="#e0e0e0"/>
      <path id="Trazado_108367" data-name="Trazado 108367" d="M304.5,176.53h0a1.45,1.45,0,0,1-1.45-1.45v-49a1.45,1.45,0,0,1,1.45-1.45h0a1.45,1.45,0,0,1,1.45,1.45v49a1.45,1.45,0,0,1-1.45,1.45Z" transform="translate(-49.325)" fill="#e0e0e0"/>
      <rect id="Rectángulo_8469" data-name="Rectángulo 8469" width="1.05" height="29.1" transform="translate(254.678 98.68)" fill="#e0e0e0"/>
      <rect id="Rectángulo_8470" data-name="Rectángulo 8470" width="163.83" height="99.83" transform="translate(54.32 90.52)" fill="#ebebeb"/>
      <rect id="Rectángulo_8471" data-name="Rectángulo 8471" width="1.2" height="99.83" transform="translate(182.773 90.48)" fill="#e0e0e0"/>
      <rect id="Rectángulo_8472" data-name="Rectángulo 8472" width="0.99" height="89.83" transform="translate(59.28 94.86)" fill="#e0e0e0"/>
      <rect id="Rectángulo_8473" data-name="Rectángulo 8473" width="153.63" height="89.83" transform="translate(59.18 94.86)" fill="#fff"/>
      <rect id="Rectángulo_8474" data-name="Rectángulo 8474" width="12.66" height="18.18" transform="translate(125.53 124.79)" fill="#f5f5f5"/>
      <rect id="Rectángulo_8475" data-name="Rectángulo 8475" width="12.66" height="18.18" transform="translate(66.58 153.61)" fill="#f5f5f5"/>
      <rect id="Rectángulo_8476" data-name="Rectángulo 8476" width="12.66" height="12.66" transform="translate(65.34 115.68)" fill="#f5f5f5"/>
      <rect id="Rectángulo_8477" data-name="Rectángulo 8477" width="12.66" height="12.66" transform="translate(107.016 159.4)" fill="#f5f5f5"/>
      <rect id="Rectángulo_8478" data-name="Rectángulo 8478" width="32.42" height="45.56" transform="translate(141.195 126.36)" fill="#f5f5f5"/>
      <rect id="Rectángulo_8479" data-name="Rectángulo 8479" width="23.29" height="0.5" transform="translate(145.448 132.96)" fill="#e0e0e0"/>
      <rect id="Rectángulo_8480" data-name="Rectángulo 8480" width="0.5" height="33.74" transform="translate(156.349 133.44)" fill="#e0e0e0"/>
      <rect id="Rectángulo_8481" data-name="Rectángulo 8481" width="0.5" height="33.74" transform="translate(165.308 133.44)" fill="#e0e0e0"/>
      <rect id="Rectángulo_8482" data-name="Rectángulo 8482" width="0.5" height="33.74" transform="translate(148.388 133.44)" fill="#e0e0e0"/>
      <rect id="Rectángulo_8483" data-name="Rectángulo 8483" width="0.5" height="33.74" transform="translate(146.988 133.44)" fill="#e0e0e0"/>
      <rect id="Rectángulo_8484" data-name="Rectángulo 8484" width="21.62" height="0.5" transform="translate(145.942 135.22)" fill="#e0e0e0"/>
      <rect id="Rectángulo_8485" data-name="Rectángulo 8485" width="4.28" height="9.98" transform="translate(98.508 116.89) rotate(-90)" fill="#f5f5f5"/>
      <rect id="Rectángulo_8486" data-name="Rectángulo 8486" width="3.33" height="9.98" transform="translate(100.128 148.14) rotate(-90)" fill="#f5f5f5"/>
      <rect id="Rectángulo_8487" data-name="Rectángulo 8487" width="32.42" height="45.56" transform="translate(73.715 111.21)" fill="#f0f0f0"/>
      <rect id="Rectángulo_8488" data-name="Rectángulo 8488" width="3.33" height="9.98" transform="translate(98.266 155.51) rotate(-90)" fill="#f5f5f5"/>
      <rect id="Rectángulo_8489" data-name="Rectángulo 8489" width="3.33" height="9.98" transform="translate(99.66 125.06) rotate(-90)" fill="#f5f5f5"/>
      <rect id="Rectángulo_8490" data-name="Rectángulo 8490" width="3.33" height="9.98" transform="translate(97.823 133.33) rotate(-90)" fill="#f5f5f5"/>
      <rect id="Rectángulo_8491" data-name="Rectángulo 8491" width="22.1" height="3.92" transform="translate(77.222 116.81)" fill="#e6e6e6"/>
      <path id="Trazado_108368" data-name="Trazado 108368" d="M115.41,133.56H93.31l-.35-1.78h22.1Z" transform="translate(-15.75)" fill="#e6e6e6"/>
      <rect id="Rectángulo_8492" data-name="Rectángulo 8492" width="7.84" height="3.92" transform="translate(77.678 124.65)" fill="#e6e6e6"/>
      <circle id="Elipse_4226" data-name="Elipse 4226" cx="20.45" cy="20.45" r="20.45" transform="translate(195.679 101.671) rotate(-80.78)" fill="#e0e0e0"/>
      <circle id="Elipse_4227" data-name="Elipse 4227" cx="16.41" cy="16.41" r="16.41" transform="translate(202.577 68.35)" fill="#fff" opacity="0.8"/>
      <path id="Trazado_108369" data-name="Trazado 108369" d="M263,86.12a1.67,1.67,0,1,1-.793-1.554A1.67,1.67,0,0,1,263,86.12Z" transform="translate(-42.301)" fill="#e0e0e0"/>
      <path id="Trazado_108370" data-name="Trazado 108370" d="M261.19,86.73l-7.06-6.65.68-.72,6.4,6.02,11.46-10.13.67.75Z" transform="translate(-42.766)" fill="#e0e0e0"/>
    </g>
    <g id="freepik--Shadow--inject-234">
      <ellipse id="freepik--path--inject-234" cx="193.89" cy="11.32" rx="193.89" ry="11.32" transform="translate(56.11 404.37)" fill="#f5f5f5"/>
    </g>
    <g id="freepik--character-3--inject-234">
      <path id="Trazado_108371" data-name="Trazado 108371" d="M354.57,350.89h32.91a121.766,121.766,0,0,1-12.69,4.28v5.33h-7.54v-5.33A121.221,121.221,0,0,1,354.57,350.89Z" fill="#263238"/>
      <path id="Trazado_108372" data-name="Trazado 108372" d="M401.85,337.21H390.6a72.628,72.628,0,0,0,0-23.54h11.25a72.63,72.63,0,0,1,0,23.54Z" fill="#263238"/>
      <rect id="Rectángulo_8493" data-name="Rectángulo 8493" width="9.77" height="39.38" transform="translate(366.14 360.5)" fill="#263238"/>
      <rect id="Rectángulo_8494" data-name="Rectángulo 8494" width="9.77" height="39.38" transform="translate(366.14 360.5)" fill="#fff" opacity="0.2"/>
      <path id="Trazado_108373" data-name="Trazado 108373" d="M420.63,316.37H372.12a8.86,8.86,0,0,1-8.81-10.52c2.33-17.5,3.56-30,3.73-47.63a8.78,8.78,0,0,1,8.92-9.08h40.83a11,11,0,0,1,10.65,9.08c2.4,17.5,3.71,30,3.95,47.63a10.9,10.9,0,0,1-10.76,10.52Z" fill="#50799e"/>
      <path id="Trazado_108374" data-name="Trazado 108374" d="M422.79,305.85c-.24-17.66-1.55-30.13-4-47.63a11,11,0,0,0-10.65-9.08H376a8.78,8.78,0,0,0-8.92,9.08c-.17,17.66-1.4,30.13-3.73,47.63a8.86,8.86,0,0,0,8.81,10.52H412a10.9,10.9,0,0,0,10.79-10.52Z" fill="#6595bf"/>
      <path id="Trazado_108376" data-name="Trazado 108376" d="M400.18,405.38a1.45,1.45,0,0,1-1.75,1.42c-5.31-1.16-21.2-4.51-27.41-4.51s-22.09,3.35-27.4,4.51a1.45,1.45,0,0,1-1.75-1.42h0a3.79,3.79,0,0,1,3-3.71c6.21-1.34,20.38-4.24,26.15-4.24s20,2.9,26.16,4.24a3.79,3.79,0,0,1,3,3.71Z" fill="#263238"/>
      <path id="Trazado_108377" data-name="Trazado 108377" d="M393.69,409.27a3.83,3.83,0,1,0,3.83-3.83,3.83,3.83,0,0,0-3.83,3.83Z" fill="#263238"/>
      <path id="Trazado_108378" data-name="Trazado 108378" d="M345.51,409.27a3.83,3.83,0,1,1-3.83-3.83,3.83,3.83,0,0,1,3.83,3.83Z" fill="#263238"/>
      <path id="Trazado_108379" data-name="Trazado 108379" d="M374.44,408a3.83,3.83,0,1,1-3.83-3.83,3.83,3.83,0,0,1,3.83,3.83Z" fill="#263238"/>
      <path id="Trazado_108380" data-name="Trazado 108380" d="M385.79,336.47a397.49,397.49,0,0,1-58.24-2.06,6.3,6.3,0,0,0-7.19,6.38v.95a8.27,8.27,0,0,0,7.19,8.05,397.5,397.5,0,0,0,58.24,2Z" fill="#6595bf"/>
      <path id="Trazado_108381" data-name="Trazado 108381" d="M385.79,336.47a397.49,397.49,0,0,1-58.24-2.06,6.3,6.3,0,0,0-7.19,6.38v.95a8.27,8.27,0,0,0,7.19,8.05,397.5,397.5,0,0,0,58.24,2Z" transform="translate(0 -1.203)" opacity="0.2"/>
      <path id="Trazado_108382" data-name="Trazado 108382" d="M414.88,349.75c-11.13,1-22.09,1.77-33.25,2.22a6.68,6.68,0,0,1-6.85-6.71v-1.71a7,7,0,0,1,6.85-6.95c11.16-.45,22.12-1.19,33.25-2.23a6,6,0,0,1,6.81,6v1.71a7.86,7.86,0,0,1-6.81,7.67Z" fill="#6595bf"/>
      <path id="Trazado_108383" data-name="Trazado 108383" d="M309.9,381.82l-7.75.58,6.71-22.07,6.46,9.46Z" fill="#ffc3bd"/>
      <g id="Grupo_59598" data-name="Grupo 59598" opacity="0.2">
        <path id="Trazado_108384" data-name="Trazado 108384" d="M309.01,360.03l-2.79,9.4,7.58,3.77,1.68-3.71Z"/>
      </g>
      <path id="Trazado_108385" data-name="Trazado 108385" d="M311,380.06a6.6,6.6,0,0,1-.28,3c-1.12,3.57-4.28,13-4.28,13l-.8-.23s1.21-4.75,1.52-7.24-.77-.64-2.86,1.44-6.32,3.44-11.51,2.08c-6.08-1.6-8.44-2.59-6.22-3.64s6.51-.9,6.51-.9a19.24,19.24,0,0,0,10.66-13.15c.56-2.26,1.5-2,2.61-.87a24.471,24.471,0,0,0,5.67,4.28A11.7,11.7,0,0,0,311,380.06Z" fill="#d9a171"/>
      <path id="Trazado_108386" data-name="Trazado 108386" d="M361.22,390.8l-5.43,5.57-9.6-20.97,11.12,2.8Z" fill="#ffc3bd"/>
      <g id="Grupo_59599" data-name="Grupo 59599" opacity="0.2">
        <path id="Trazado_108387" data-name="Trazado 108387" d="M346.11,375.07l4.14,8.89,8.18-2.2-1.21-3.89Z"/>
      </g>
      <path id="Trazado_108388" data-name="Trazado 108388" d="M360.86,388.77a6.67,6.67,0,0,1,1.79,2.44c1.54,3.42,5.42,12.59,5.42,12.59l-.75.35s-2.25-4.35-3.66-6.42-1,0-1.19,3-2.45,6.76-7.24,9.18c-5.62,2.84-8,3.66-7.07,1.4s4.28-5,4.28-5a19.24,19.24,0,0,0-.74-16.91c-1.08-2.07-.22-2.51,1.39-2.38a24.178,24.178,0,0,0,7.07-.56,12,12,0,0,0,.7,2.31Z" fill="#d9a171"/>
      <path id="Trazado_108389" data-name="Trazado 108389" d="M383.44,336.58h-39c6.36,4.54,13.85,42,13.85,42l-10.5,3.64s-3-6.46-8.63-21.8c-2.86-7.76-6.31-15.72-8.33-23.52h0a55.135,55.135,0,0,1-1.43-7.31q-.07-.56-.12-1.11V327a1.145,1.145,0,0,1,.07-.48v-.12a4.213,4.213,0,0,1,.12-.48.14.14,0,0,1,0-.07,5.051,5.051,0,0,1,.18-.55v-.1a5.053,5.053,0,0,1,.24-.53.311.311,0,0,1,.05-.1c.08-.16.17-.31.26-.46a8.592,8.592,0,0,1,.72-1l.09-.1.41-.45a11,11,0,0,1,1-.92.1.1,0,0,1,.05,0l.58-.45.62-.44.66-.42c.45-.27.93-.54,1.43-.79h.05l1.33-.63.46-.2h.06c4.36,1.41,12.37,5.06,21,8.72,9.71,4.14,20.16,8.27,26.89,9.13a15.436,15.436,0,0,1-2.11.02Z" fill="#d9a171"/>
      <path id="Trazado_108390" data-name="Trazado 108390" d="M383.44,336.58h-39c6.36,4.54,13.85,42,13.85,42l-10.5,3.64s-3-6.46-8.63-21.8c-2.86-7.76-6.31-15.72-8.33-23.52h0a55.135,55.135,0,0,1-1.43-7.31q-.07-.56-.12-1.11V327a1.145,1.145,0,0,1,.07-.48v-.12a4.213,4.213,0,0,1,.12-.48.14.14,0,0,1,0-.07,5.051,5.051,0,0,1,.18-.55v-.1a5.053,5.053,0,0,1,.24-.53.311.311,0,0,1,.05-.1c.08-.16.17-.31.26-.46a8.592,8.592,0,0,1,.72-1l.09-.1.41-.45a11,11,0,0,1,1-.92.1.1,0,0,1,.05,0l.58-.45.62-.44.66-.42c.45-.27.93-.54,1.43-.79h.05l1.33-.63.46-.2h.06c4.36,1.41,12.37,5.06,21,8.72,9.71,4.14,20.16,8.27,26.89,9.13a15.436,15.436,0,0,1-2.11.02Z" opacity="0.4"/>
      <path id="Trazado_108391" data-name="Trazado 108391" d="M385.62,336.43c-6.73-.86-17.18-5-26.89-9.13-8.58-3.66-16.59-7.31-21-8.72,13-5.45,36.18-5.32,36.18-5.32s6-5.7,12.67-7.06a14,14,0,0,1,2.73-.29l.19.26C401.13,321.61,396.87,334.93,385.62,336.43Z" fill="#d9a171"/>
      <path id="Trazado_108392" data-name="Trazado 108392" d="M341.46,285.2c5.66,5.18,16.81-7.08,18.6-8.54,3.84-3.13,15.13-13.68,14.53-17.34-1.76-10.77-19.45,4.49-24.55,15Z" fill="#263238"/>
      <path id="Trazado_108393" data-name="Trazado 108393" d="M391.09,252.79c2.84.61,5.92-.42,7.92,1.69a13.36,13.36,0,0,1,3.13,8,53.23,53.23,0,0,1-.63,12.08q-.93,7.29-1.88,14.58a43.879,43.879,0,0,0,.46,12h0a1.94,1.94,0,0,1-1.1,2.09s-22.07.76-28.49.52c-3.41-.13-1.07-9.1-2.11-14.33-.23-1.16-2.52-5.95-2.86-7.18-1.58-5.79-.53-9.77.94-15.59,1.07-4.23,1.5-10.33,3.66-10.79C374,255,383.17,251.11,391.09,252.79Z" fill="#263238"/>
      <path id="Trazado_108394" data-name="Trazado 108394" d="M394.25,256.93c.29-.44,8.05-7,9.46.57,2,10.51-2.1,20.85-2.1,20.85s-.93,11.37-4.23,12.51-6.45,1.41-7.56-.53a11.57,11.57,0,0,1-1.11-4.86S389.1,264.78,394.25,256.93Z" fill="#263238"/>
      <path id="Trazado_108395" data-name="Trazado 108395" d="M388.87,238.37c-.8,4.84-1.48,13.68,2,16.79a45.41,45.41,0,0,0-14,12.14,7.32,7.32,0,0,1-2.57-8.16,7.16,7.16,0,0,1,3.56-4.3c3.28-1.8,3-5.18,2.07-8.36Z" fill="#e8bfbf"/>
      <path id="Trazado_108396" data-name="Trazado 108396" d="M387.77,246.58l-3.16,1.21a10.51,10.51,0,0,1-4.23.69h0a6.85,6.85,0,0,1,0,3,6,6,0,0,0,6.26-2,10.6,10.6,0,0,0,1.13-2.9Z" opacity="0.2"/>
      <path id="Trazado_108397" data-name="Trazado 108397" d="M400.27,303.29l.92,2.92c.13.23-.13.47-.52.48l-33.24,1c-.3,0-.54-.13-.57-.32l-.38-2.94c0-.2.22-.38.54-.4l32.67-1a.6.6,0,0,1,.58.26Z" fill="#d9a171"/>
      <path id="Trazado_108398" data-name="Trazado 108398" d="M330.32,324.1a7.571,7.571,0,0,1,.72-1,8.591,8.591,0,0,0-.72,1Z" fill="#d9a171"/>
      <path id="Trazado_108399" data-name="Trazado 108399" d="M332.53,321.61a11.008,11.008,0,0,0-1,.92A8.749,8.749,0,0,1,332.53,321.61Z" fill="#d9a171"/>
      <path id="Trazado_108400" data-name="Trazado 108400" d="M330.32,324.1a7.571,7.571,0,0,1,.72-1,8.591,8.591,0,0,0-.72,1Z" opacity="0.6"/>
      <path id="Trazado_108401" data-name="Trazado 108401" d="M332.53,321.61a11.008,11.008,0,0,0-1,.92A8.749,8.749,0,0,1,332.53,321.61Z" opacity="0.6"/>
      <path id="Trazado_108402" data-name="Trazado 108402" d="M344.14,281.79a13.48,13.48,0,0,1-4.18-6.7,13.87,13.87,0,0,1-.19-2.79,156.012,156.012,0,0,1,1.68-16.38l4.7-1.55s1.46,8.06,1.78,12.49c.07.87.17,1.9.27,3,.21,2,.46,4.15.69,6Z" fill="#e8bfbf"/>
      <path id="Trazado_108403" data-name="Trazado 108403" d="M341.45,285.2c-1.44-1.32-1.68-2.92-2.43-6.32-.71-3.22.09-7.14.75-6.58a.71.71,0,0,1,.19.28c1.13,2.69,5.57.33,6.83-1a9.54,9.54,0,0,0,1.41-1.73,1.45,1.45,0,0,0,0-1.63c1.36-.57,2.45,4.8,1.8,6.12l-.33,1a13.7,13.7,0,0,1-2.47,4.43l-2.47,3Z" fill="#263238"/>
      <path id="Trazado_108404" data-name="Trazado 108404" d="M346.27,255.06l.56-8.2a33,33,0,0,1-4.53,1.75c-2.28.78-5.36-.6-4.67.89a64.144,64.144,0,0,0,3.82,6.42Z" fill="#e8bfbf"/>
      <path id="Trazado_108405" data-name="Trazado 108405" d="M346.83,246.86l-3.49-8.21-4.59,2.81c-1.27,2.75-1.12,8-1.12,8S344,249.78,346.83,246.86Z" fill="#e8bfbf"/>
      <path id="Trazado_108406" data-name="Trazado 108406" d="M370.63,224.58c-3.5,6.63-2.65,15,1.07,21.55,6.37-4.32,15.62-.88,22.18-4.85,4.38-2.66,6.45-8.4,5.32-13.4-1.21-5.4-7.06-11.72-12.74-12.27C380.09,215,373.58,219,370.63,224.58Z" fill="#263238"/>
      <path id="Trazado_108407" data-name="Trazado 108407" d="M392.22,227.2a10.19,10.19,0,0,0-13.16-5.9c-7.44,2.78-8.83,13.88-7.44,20.7,1.5,7.6,10.6,10.06,16.49,4.37,3.93-3.78,4.05-7,4.73-14.49a10.36,10.36,0,0,0-.62-4.68Z" fill="#e8bfbf"/>
      <path id="Trazado_108408" data-name="Trazado 108408" d="M376.08,239.36a2.63,2.63,0,0,1-2.17-.47,16,16,0,0,0,2.3-3.86Z" fill="#ed893e"/>
      <path id="Trazado_108409" data-name="Trazado 108409" d="M381.78,240.06a.17.17,0,0,0,0-.25.18.18,0,0,0-.25,0,4.81,4.81,0,0,1-4,1.8.19.19,0,0,0-.18.17h0a.16.16,0,0,0,.17.17,5.06,5.06,0,0,0,4.31-1.94Z" fill="#263238"/>
      <path id="Trazado_108410" data-name="Trazado 108410" d="M381.52,218.4a7.6,7.6,0,0,0-1.79,2.77c8,4,12.1,14.31,12.48,23.32,3-2.46,8.37-5.07,11-8.27,2.92-3.59,1.44-8.86-1.93-12a71.14,71.14,0,0,0-9.7-6.8A8.21,8.21,0,0,0,381.52,218.4Z" fill="#263238"/>
      <path id="Trazado_108411" data-name="Trazado 108411" d="M395,237a2.48,2.48,0,0,0-2.38-2.56c-1.88,0-3.12,2.31-3.4,3.94-.28,1.8.81,3.35,2.59,2.61a5.49,5.49,0,0,0,2.94-3A2.54,2.54,0,0,0,395,237Z" fill="#e8bfbf"/>
      <path id="Trazado_108412" data-name="Trazado 108412" d="M381.22,233c0,.75-.37,1.37-.86,1.39s-.91-.58-.92-1.35.37-1.37.85-1.39S381.2,232.21,381.22,233Z" fill="#263238"/>
      <path id="Trazado_108413" data-name="Trazado 108413" d="M374.21,233.74c0,.75-.36,1.37-.85,1.39s-.91-.58-.93-1.34.37-1.38.86-1.4S374.2,233,374.21,233.74Z" fill="#263238"/>
      <path id="Trazado_108414" data-name="Trazado 108414" d="M373.51,232.43l-1.82-.47S372.65,233.35,373.51,232.43Z" fill="#263238"/>
      <path id="Trazado_108415" data-name="Trazado 108415" d="M383.34,230.09a.46.46,0,0,0,.17-.09.38.38,0,0,0,0-.53h0a4.26,4.26,0,0,0-3.71-1.37.38.38,0,0,0-.3.43.36.36,0,0,0,.42.29A3.63,3.63,0,0,1,383,230a.36.36,0,0,0,.34.09Z" fill="#263238"/>
      <path id="Trazado_108416" data-name="Trazado 108416" d="M371.54,231.36a.29.29,0,0,0,.14-.13,3.63,3.63,0,0,1,2.86-1.59.37.37,0,0,0,.39-.35h0a.38.38,0,0,0-.36-.38,4.38,4.38,0,0,0-3.49,1.91.37.37,0,0,0,.06.52.38.38,0,0,0,.4,0Z" fill="#263238"/>
      <path id="Trazado_108417" data-name="Trazado 108417" d="M380.51,231.66l-1.82-.47S379.66,232.58,380.51,231.66Z" fill="#263238"/>
      <path id="Trazado_108418" data-name="Trazado 108418" d="M369.59,235.12c-.23,4.64,1.91,11.65,5.19,14.92-3.06,1.35-7.16-2-9.48-4.38a11.85,11.85,0,0,1-2.95-9.23,20,20,0,0,1,3.56-9.23c3-4.56,7.52-7.69,12.45-10,1-.47,2.53-.67,2.85.37.22.72-.39,1.4-.95,1.91C374.87,224.33,370.76,227.64,369.59,235.12Z" fill="#263238"/>
      <path id="Trazado_108419" data-name="Trazado 108419" d="M387.74,248.05h-.06a.27.27,0,0,1-.12-.37c5.68-11-4.71-22.91-8-26.3a.28.28,0,0,1,.39-.39c3.39,3.46,14,15.62,8.13,26.94A.27.27,0,0,1,387.74,248.05Z" fill="#263238"/>
      <path id="Trazado_108420" data-name="Trazado 108420" d="M391.96,240.11l-1.22,4.08.88,1.16.84-1.13Z" fill="#d9a171"/>
      <path id="Trazado_108421" data-name="Trazado 108421" d="M391.45,250.46c0-.26-.07-.61-.1-1a3.41,3.41,0,0,1,2.78-3.64h.05a1.42,1.42,0,0,0,1.08-.93c.62-1.79.86-2.34,1.45-4.1,1.62-.39,3.53.21,5.2.39a14.31,14.31,0,0,1,.09,6.11,2.66,2.66,0,0,1-.51,1.25,21.581,21.581,0,0,1-5,3.07C395,252.06,393,250.61,391.45,250.46Z" fill="#e8bfbf"/>
      <path id="Trazado_108422" data-name="Trazado 108422" d="M396.29,251.67s4.41,28.44-.13,32.77c-2.67,2.55-5,1.14-6.42-.45a5.67,5.67,0,0,1-1.39-4.38l3.1-29.15S394.51,248.69,396.29,251.67Z" fill="#e8bfbf"/>
      <path id="Trazado_108423" data-name="Trazado 108423" d="M398.12,334.27a18.612,18.612,0,0,1-4,1.55c-.35.09-.71.18-1.07.25a24.139,24.139,0,0,1-5.13.53,14.99,14.99,0,0,1-1.71-.1l-.62-.07-.64-.09c-.63-.1-1.28-.22-2-.36s-1.5-.34-2.29-.55l-.77-.21q-1.47-.41-3-.9l-1.05-.34c-2-.65-4-1.4-6.14-2.2l-.83-.32c-2.68-1-5.41-2.16-8.11-3.29l-2.06-.87c-8.58-3.66-16.59-7.31-21-8.72h-.06l-.46.2-1.33.63h-.05c-.5.25-1,.52-1.43.79l-.66.42-.62.44-.58.45a.1.1,0,0,0-.05,0,11,11,0,0,0-1,.92l-.41.45-.09.1a8.591,8.591,0,0,0-.72,1c-.09.15-.18.3-.26.46a.31.31,0,0,0-.05.1,5.042,5.042,0,0,0-.24.53v.1a5.04,5.04,0,0,0-.18.55.14.14,0,0,0,0,.07,4.207,4.207,0,0,0-.12.48v.12a3.963,3.963,0,0,1-.07.48v1.46c0,.24.07.74.12,1.11a55.135,55.135,0,0,0,1.43,7.31c-1.41,3.49-2.84,6.93-4.24,10.21l-1.38,3.22c-1.59,3.7-3.11,7.13-4.45,10.14q-.3.65-.57,1.26l-1.56,3.45c-.17.35-.32.7-.47,1l-1.8,3.9c-.07.14-.14.28-.2.42s-.12.26-.18.38-.11.23-.16.34c-.41.87-.28.58-.28.58L306,366.31s7.13-25.25,11.77-48.56a20.6,20.6,0,0,1,17.84-16.49c18.26-2.08,43.42,5.06,43.42,5.06h1.7l4-.06H391c3.18,0,6.44-.06,9,0C408.82,321.25,405.46,330.32,398.12,334.27Z" fill="#d9a171"/>
      <g id="Grupo_59600" data-name="Grupo 59600" opacity="0.3">
        <path id="Trazado_108424" data-name="Trazado 108424" d="M398.12,334.27a18.612,18.612,0,0,1-4,1.55c-.35.09-.71.18-1.07.25a24.139,24.139,0,0,1-5.13.53,14.99,14.99,0,0,1-1.71-.1l-.62-.07-.64-.09c-.63-.1-1.28-.22-2-.36s-1.5-.34-2.29-.55l-.77-.21q-1.47-.41-3-.9l-1.05-.34c-2-.65-4-1.4-6.14-2.2l-.83-.32c-2.68-1-5.41-2.16-8.11-3.29l-2.06-.87c-8.58-3.66-16.59-7.31-21-8.72h-.06l-.46.2-1.33.63h-.05c-.5.25-1,.52-1.43.79l-.66.42-.62.44-.58.45a.1.1,0,0,0-.05,0,11,11,0,0,0-1,.92l-.41.45-.09.1a8.591,8.591,0,0,0-.72,1c-.09.15-.18.3-.26.46a.31.31,0,0,0-.05.1,5.042,5.042,0,0,0-.24.53v.1a5.04,5.04,0,0,0-.18.55.14.14,0,0,0,0,.07,4.207,4.207,0,0,0-.12.48v.12a3.963,3.963,0,0,1-.07.48v1.46c0,.24.07.74.12,1.11a55.135,55.135,0,0,0,1.43,7.31c-1.41,3.49-2.84,6.93-4.24,10.21l-1.38,3.22c-1.59,3.7-3.11,7.13-4.45,10.14q-.3.65-.57,1.26l-1.56,3.45c-.17.35-.32.7-.47,1l-1.8,3.9c-.07.14-.14.28-.2.42s-.12.26-.18.38-.11.23-.16.34c-.41.87-.28.58-.28.58L306,366.31s7.13-25.25,11.77-48.56a20.6,20.6,0,0,1,17.84-16.49c18.26-2.08,43.42,5.06,43.42,5.06h1.7l4-.06H391c3.18,0,6.44-.06,9,0C408.82,321.25,405.46,330.32,398.12,334.27Z"/>
      </g>
    </g>
    <g id="freepik--character-2--inject-234">
      <rect id="Rectángulo_8495" data-name="Rectángulo 8495" width="9.37" height="39.11" transform="translate(231.18 364.34)" fill="#263238"/>
      <rect id="Rectángulo_8496" data-name="Rectángulo 8496" width="9.37" height="39.11" transform="translate(231.18 364.34)" fill="#fff" opacity="0.2"/>
      <rect id="Rectángulo_8497" data-name="Rectángulo 8497" width="6.68" height="24.97" transform="translate(232.52 339.56)" fill="#263238"/>
      <path id="Trazado_108425" data-name="Trazado 108425" d="M239.2,344.19l-6.68,2.44v-7.07h6.68Z" opacity="0.2"/>
      <path id="Trazado_108426" data-name="Trazado 108426" d="M262.77,409.27a3.83,3.83,0,1,0,3.83-3.83,3.83,3.83,0,0,0-3.83,3.83Z" fill="#263238"/>
      <path id="Trazado_108427" data-name="Trazado 108427" d="M206.51,409.27a3.83,3.83,0,1,1-3.83-3.83,3.83,3.83,0,0,1,3.83,3.83Z" fill="#263238"/>
      <path id="Trazado_108428" data-name="Trazado 108428" d="M239.69,408a3.83,3.83,0,1,1-3.83-3.83,3.83,3.83,0,0,1,3.83,3.83Z" fill="#263238"/>
      <path id="Trazado_108429" data-name="Trazado 108429" d="M194.34,404.13a1.85,1.85,0,0,0,1.88,1.49l39.95-.54,37.41.84a1.86,1.86,0,0,0,.42-3.68l-20.43-4a34.74,34.74,0,0,0-6.43-.6H225.19a34.47,34.47,0,0,0-6.42.6l-23,3.68a1.85,1.85,0,0,0-1.43,2.21Z" fill="#263238"/>
      <path id="Trazado_108430" data-name="Trazado 108430" d="M193.72,339.46v.09H195a9.656,9.656,0,0,1-1.28-.09Z" fill="#263238"/>
      <path id="Trazado_108431" data-name="Trazado 108431" d="M247.2,263.06a1.213,1.213,0,0,1,0,.19v68.4H185.9V262.54A11.671,11.671,0,0,1,186,261h-.1l.58-9.63a11.44,11.44,0,0,1,3.18-7.26l6.13-6.42,3.16-16a5.33,5.33,0,0,1,5.22-4.3h14.14a5.34,5.34,0,0,1,5,3.6l5.92,17.26,11.29,6.95a11.48,11.48,0,0,1,5.34,8.1l1.47,9.82Z" fill="#6595bf"/>
      <path id="Trazado_108432" data-name="Trazado 108432" d="M247.2,263.06a1.213,1.213,0,0,1,0,.19v68.4H194.12V262.54a11.672,11.672,0,0,1,.1-1.56h-.1l.58-9.63a11.44,11.44,0,0,1,3.18-7.26L204,237.7l3.16-16a5.33,5.33,0,0,1,5.22-4.3h5.92a5.34,5.34,0,0,1,5,3.6l5.92,17.26,11.29,6.95a11.48,11.48,0,0,1,5.34,8.1l1.47,9.82Z" opacity="0.1"/>
      <path id="Trazado_108433" data-name="Trazado 108433" d="M252.52,342.87H219.61a121.77,121.77,0,0,0,12.69,4.28v5.33h7.54v-5.33a121.214,121.214,0,0,0,12.68-4.28Z" fill="#263238"/>
      <path id="Trazado_108434" data-name="Trazado 108434" d="M221.3,328.45a397.636,397.636,0,0,0,58.25-2.06,6.31,6.31,0,0,1,7.19,6.38v1a8.28,8.28,0,0,1-7.19,8,397.639,397.639,0,0,1-58.25,2.06Z" fill="#6595bf"/>
      <path id="Trazado_108435" data-name="Trazado 108435" d="M221.3,328.45a397.636,397.636,0,0,0,58.25-2.06,6.31,6.31,0,0,1,7.19,6.38v1a8.28,8.28,0,0,1-7.19,8,397.639,397.639,0,0,1-58.25,2.06Z" transform="translate(0 -1.247)" opacity="0.2"/>
      <path id="Trazado_108436" data-name="Trazado 108436" d="M192.22,341.73c11.12,1,22.08,1.78,33.24,2.22a6.67,6.67,0,0,0,6.85-6.71v-1.7a7,7,0,0,0-6.852-7c-11.158-.45-22.118-1.18-33.238-2.23a6,6,0,0,0-6.82,6v1.7a7.85,7.85,0,0,0,6.82,7.72Z" fill="#6595bf"/>
      <path id="Trazado_108437" data-name="Trazado 108437" d="M283.7,246.09l.93,3.13-1.76,2.6a14.15,14.15,0,0,1-6.47,3.67,3.31,3.31,0,0,1-3.47-1.49l-.37-.59a4,4,0,0,1-.39-.84c-.53-1.62-.06-2.59,1.24-3.68l4.44-4.66a57.51,57.51,0,0,1,5.78-1.27C284.23,242.91,283.76,245.49,283.7,246.09Z" fill="#ffb573"/>
      <path id="Trazado_108438" data-name="Trazado 108438" d="M255.56,266s13.25-13.67,15.77-15.05l.91-.7,4.16,5.26c-.58.59-20.13,34.46-27.53,21.82-1.38-2.37-2.66-4.72-3.83-7.1-.61-1.23-4.31-8.73-4.87-10L239.6,259c-2.69-6-3.68-13,1.87-17.11h0c2.08-.91,5.49,1.56,6.29,4.78Z" fill="#263238"/>
      <g id="Grupo_59601" data-name="Grupo 59601" opacity="0.1">
        <path id="Trazado_108439" data-name="Trazado 108439" d="M255.56,266s13.25-13.67,15.77-15.05l.91-.7,4.16,5.26c-.58.59-20.13,34.46-27.53,21.82-1.38-2.37-2.66-4.72-3.83-7.1-.61-1.23-4.31-8.73-4.87-10L239.6,259c-2.69-6-3.68-13,1.87-17.11h0c2.08-.91,5.49,1.56,6.29,4.78Z" fill="#fff"/>
      </g>
      <g id="freepik--character-2--inject-102--inject-234">
        <path id="Trazado_108440" data-name="Trazado 108440" d="M300.12,387.08l2.57,16.69h-7.03l-4.98-16.69Z" fill="#ffb573"/>
        <path id="Trazado_108441" data-name="Trazado 108441" d="M302.92,402.65l-7.26.16a.54.54,0,0,0-.59.52h0a9.68,9.68,0,0,0-.39,5.25c.28,1.35.67,2.66,1.09,2.67,3.27,0,12,.08,20.67,0,3.63.08,3.63-3.72.83-3.72a21.4,21.4,0,0,1-12.88-4.37,2.52,2.52,0,0,0-1.47-.51Z" fill="#d9a171"/>
        <path id="Trazado_108442" data-name="Trazado 108442" d="M301.36,395.13l-1.24-8.05h-9.44l2.94,9.81Z" opacity="0.2"/>
        <path id="Trazado_108443" data-name="Trazado 108443" d="M244.54,385.68l-5.46,13.96h-7.7l3.51-13.76Z" fill="#ffb573"/>
        <path id="Trazado_108444" data-name="Trazado 108444" d="M233.31,392.07l1.5-7.6,9.73,1.21-2.49,6.6Z" opacity="0.2"/>
        <path id="Trazado_108445" data-name="Trazado 108445" d="M239.29,398.44l-6.47-3a.55.55,0,0,0-.79,0h0l-4.85,4.3a1.41,1.41,0,0,0,.27,1.95c2.52,1.92,4.24,3.6,7.39,6.07,1.93,1.52,5.56,4.68,8.23,6.78s4.56-.46,3.6-1.56a33.07,33.07,0,0,1-6.57-13.35A2.3,2.3,0,0,0,239.29,398.44Z" fill="#d9a171"/>
      </g>
      <path id="Trazado_108446" data-name="Trazado 108446" d="M251.08,307c-8.28-22.35-2.84-42.91-3.88-54.29a13,13,0,0,0-10.48-11.56c-5.66-1.1-12.65-2.32-19.32-3.22a12.3,12.3,0,0,0-1.92-.12,13.07,13.07,0,0,0-12.89,13.24C203.17,284.81,214,307,214,307l17.45-.07Z" fill="#d9a171"/>
      <path id="Trazado_108447" data-name="Trazado 108447" d="M232.15,228.53c-1.19,4.61-1.57,10.35,4.88,12.74,1.79,2.85,2.67,5.86-4.23,4.79a21.18,21.18,0,0,1-13.9-7.87c4.13-3.61,3.37-14.68,2.33-20.93Z" fill="#ffb573"/>
      <path id="Trazado_108448" data-name="Trazado 108448" d="M255.41,303.78s40-1.08,40.87,17c1.27,26,5.67,70.52,5.67,70.52l-10.78,2.36s-15.38-43.55-16-63.88c-16.08-3.2-40.24,1.65-45.1-8.91a28.38,28.38,0,0,1-1.83-17.12Z" fill="#263238"/>
      <g id="Grupo_59602" data-name="Grupo 59602" opacity="0.1">
        <path id="Trazado_108449" data-name="Trazado 108449" d="M255.41,303.78s40-1.08,40.87,17c1.27,26,5.67,70.52,5.67,70.52l-10.78,2.36s-15.38-43.55-16-63.88c-16.08-3.2-40.24,1.65-45.1-8.91a28.38,28.38,0,0,1-1.83-17.12Z"/>
      </g>
      <path id="Trazado_108450" data-name="Trazado 108450" d="M240,301.8s27.09,3.81,25.82,21.91c-1.4,19.81-22.16,65.74-22.16,65.74H233.19s7-41.68,10.13-61.87c-14.62,0-23.76,1.91-28.63-8.67a28.3,28.3,0,0,1-1.82-17.12Z" fill="#263238"/>
      <path id="Trazado_108451" data-name="Trazado 108451" d="M242.81,241.56c2.31,1.95,6,5.1,6.66,23.91.2,6-.73,12-.57,18,.18,6.94,1.85,11.82,4.23,18.33,0,1.55-2.34,2.42-4.33,2.83-4.12-9-6.71-17.63-6.55-27.55.56-35.51-10.52-38.82-10.11-40.09Z" fill="#263238"/>
      <path id="Trazado_108452" data-name="Trazado 108452" d="M227.12,231.91a5.76,5.76,0,0,0,4.37,1.06,20.886,20.886,0,0,1,.24-3.35l-7.15-5.88a15.06,15.06,0,0,0-.3,2.31,6.54,6.54,0,0,0,2.84,5.86Z" opacity="0.3"/>
      <path id="Trazado_108453" data-name="Trazado 108453" d="M237.82,201.24c7.56,4.27,7.64,16.36,5.31,23.35a10.47,10.47,0,0,1-18.35,3.08c-3.7-4.68-3.17-9.4-3-17.51S230.25,197,237.82,201.24Z" fill="#ffb573"/>
      <path id="Trazado_108454" data-name="Trazado 108454" d="M236.57,221.65a28.81,28.81,0,0,0,7,1.41,11.42,11.42,0,0,1-4.13,6.7,10.48,10.48,0,0,1-14.67-2.09c-3-3.83-4-6.42-3.09-13.41a133,133,0,0,0,14.89,7.39Z" opacity="0.2"/>
      <path id="Trazado_108455" data-name="Trazado 108455" d="M222.82,216.63a2.3,2.3,0,0,0-1-1.9,5.47,5.47,0,0,1-1.5-1.61,4.13,4.13,0,0,1-.18-2l.45-5.73c.34-4.42,7.17-1.83,7,1.86-.14,2.52-1.92,2.57-3.4,4.07C222.48,213.1,223.12,214.58,222.82,216.63Z" fill="#ffb573"/>
      <path id="Trazado_108456" data-name="Trazado 108456" d="M222.82,216.63a2.3,2.3,0,0,0-1-1.9,5.47,5.47,0,0,1-1.5-1.61,4.13,4.13,0,0,1-.18-2l.45-5.73c.34-4.42,7.17-1.83,7,1.86-.14,2.52-1.92,2.57-3.4,4.07C222.48,213.1,223.12,214.58,222.82,216.63Z" opacity="0.2"/>
      <path id="Trazado_108457" data-name="Trazado 108457" d="M220.57,213.4c2.27.51,3.23,3.77,3.17,5.86,0,2.37-1.76,3.92-3.73,2.49a7.37,7.37,0,0,1-2.84-4.56C216.77,214.94,218.3,212.89,220.57,213.4Z" fill="#ffb573"/>
      <path id="Trazado_108458" data-name="Trazado 108458" d="M232.58,210.84A4.6,4.6,0,0,1,236,210h0a.37.37,0,0,0,.42-.31.41.41,0,0,0-.33-.46,5.27,5.27,0,0,0-4,1.09h0a.37.37,0,0,0,0,.54.34.34,0,0,0,.17.11.36.36,0,0,0,.32-.13Z" fill="#263238"/>
      <path id="Trazado_108459" data-name="Trazado 108459" d="M243.77,212.5h0a.37.37,0,0,0,.11-.51,4.06,4.06,0,0,0-3-2h0a.36.36,0,0,0-.36.36.41.41,0,0,0,.37.42,3.23,3.23,0,0,1,2.33,1.64.43.43,0,0,0,.32.2.38.38,0,0,0,.23-.11Z" fill="#263238"/>
      <path id="Trazado_108460" data-name="Trazado 108460" d="M236.51,224.4a35.075,35.075,0,0,0-2.29,3.32c-.18-.07-.36-.14-.54-.23-2.43-1.05-3.12-2.52-3.15-3.82a5.41,5.41,0,0,1,.92-2.92c.87,1.5,3.05,2.69,4.24,3.27C236.19,224.27,236.51,224.4,236.51,224.4Z" fill="#2e353a"/>
      <path id="Trazado_108461" data-name="Trazado 108461" d="M235.69,224l-.35.48a.72.72,0,0,1-.89.24c-1.8-.85-3-1.75-3.42-2.71a.66.66,0,0,1,0-.58,5,5,0,0,1,.39-.7C232.32,222.25,234.5,223.44,235.69,224Z" fill="#fff"/>
      <path id="Trazado_108462" data-name="Trazado 108462" d="M233.68,227.49c-2.43-1.05-3.12-2.52-3.15-3.82a6.93,6.93,0,0,1,2.41,1.82,3.37,3.37,0,0,1,.74,2Z" fill="#de5753"/>
      <path id="Trazado_108463" data-name="Trazado 108463" d="M240.84,214.81c.42.08.66.68.54,1.33s-.58,1.11-1,1-.66-.68-.54-1.33S240.42,214.73,240.84,214.81Z" fill="#263238"/>
      <path id="Trazado_108464" data-name="Trazado 108464" d="M232.71,212.89c.42.07.66.67.53,1.32s-.58,1.12-1,1-.66-.68-.53-1.32S232.28,212.81,232.71,212.89Z" fill="#263238"/>
      <path id="Trazado_108465" data-name="Trazado 108465" d="M236.85,221.38s1.79,1.18,3.26.5c-1.22-2.71-1.05-2.1-1.42-6.71Z" fill="#ed847e"/>
      <path id="Trazado_108466" data-name="Trazado 108466" d="M240.76,306s-9.84,3.81-12.09,4.56a28.429,28.429,0,0,1-8.1,1.86,10,10,0,0,1-7.67-2.86c-2.35-2.51-3.08-6.32-3.69-9.88Q206.5,284,203.8,268.27c-.89-5.16-3.14-12.93-3-15.89.35-5.44,3.82-11.87,12.64-15.41,3.43-1.37,6.82-.84,9.71,2.61,1.72,2.07,6.75,7,8,15.76,1,7,2.52,16.07,2.43,23.18C233.5,287.85,237.21,299.64,240.76,306Z" fill="#263238"/>
      <path id="Trazado_108467" data-name="Trazado 108467" d="M201.33,249.51c-1,9.11,4,32.07,5,33.45,4.13,13.32,15.47,6.14,17.12,5.53,2.86-1.06,5.77-3.12,8.49-4.5,5.29-2.62,10.28-4.73,15.2-8l-2.77-5.46c-5.38,1.84-20.62,5.77-23.13,6.39-1.09.28-5.33,2.51-5.29-.43-.6-1-1.43-20-3.25-26.71a5.9,5.9,0,0,0-1.06-2.07l-.17-.21a5.82,5.82,0,0,0-10.14,2Z" fill="#263238"/>
      <path id="Trazado_108468" data-name="Trazado 108468" d="M201.33,249.51c-1,9.11,4,32.07,5,33.45,4.13,13.32,15.47,6.14,17.12,5.53,2.86-1.06,5.77-3.12,8.49-4.5,5.29-2.62,10.28-4.73,15.2-8l-2.77-5.46c-5.38,1.84-20.62,5.77-23.13,6.39-1.09.28-5.33,2.51-5.29-.43-.6-1-1.43-20-3.25-26.71a5.9,5.9,0,0,0-1.06-2.07l-.17-.21a5.82,5.82,0,0,0-10.14,2Z" fill="#fff" opacity="0.1"/>
      <path id="Trazado_108469" data-name="Trazado 108469" d="M242.33,272.34l-.58,3.12c1.38,3.6,9.31,2.65,9.31,2.65v-9.22l-7,1.63a2.33,2.33,0,0,0-1.73,1.82Z" fill="#ffb573"/>
      <path id="Trazado_108470" data-name="Trazado 108470" d="M251.08,268.89l-.04,9.24,7.02.17,1.61-8.12Z" fill="#ffb573"/>
      <path id="Trazado_108471" data-name="Trazado 108471" d="M246.92,206.64a2.12,2.12,0,0,1-.91,2.24,3.18,3.18,0,0,1-2,.09l-6.9-1.19c-4-.69-7.92-1.38-11.83-2.32-1.75-.42-4.3-.94-4.41-2.74-.53-8.65,13.6-6.94,16.62-5.89C247.37,200.31,246.77,205.79,246.92,206.64Z" fill="#263238"/>
    </g>
    <g id="freepik--character-1--inject-234">
      <rect id="Rectángulo_8498" data-name="Rectángulo 8498" width="9.37" height="39.11" transform="translate(111.73 364.34)" fill="#263238"/>
      <rect id="Rectángulo_8499" data-name="Rectángulo 8499" width="9.37" height="39.11" transform="translate(111.73 364.34)" fill="#fff" opacity="0.2"/>
      <rect id="Rectángulo_8500" data-name="Rectángulo 8500" width="6.68" height="24.97" transform="translate(113.07 339.56)" fill="#263238"/>
      <path id="Trazado_108472" data-name="Trazado 108472" d="M119.75,344.19l-6.68,2.44v-7.07h6.68Z" opacity="0.2"/>
      <path id="Trazado_108473" data-name="Trazado 108473" d="M143.32,409.27a3.83,3.83,0,1,0,3.83-3.83,3.83,3.83,0,0,0-3.83,3.83Z" fill="#263238"/>
      <path id="Trazado_108474" data-name="Trazado 108474" d="M87.06,409.27a3.84,3.84,0,1,1-3.83-3.83,3.84,3.84,0,0,1,3.83,3.83Z" fill="#263238"/>
      <path id="Trazado_108475" data-name="Trazado 108475" d="M120.24,408a3.83,3.83,0,1,1-3.83-3.83,3.83,3.83,0,0,1,3.83,3.83Z" fill="#263238"/>
      <path id="Trazado_108476" data-name="Trazado 108476" d="M74.88,404.13a1.86,1.86,0,0,0,1.89,1.49l40-.54,37.41.84a1.858,1.858,0,0,0,.41-3.68l-20.43-4a34.661,34.661,0,0,0-6.43-.6h-22a34.632,34.632,0,0,0-6.421.6l-23,3.68a1.86,1.86,0,0,0-1.43,2.21Z" fill="#263238"/>
      <path id="Trazado_108477" data-name="Trazado 108477" d="M74.27,339.46v.09h1.31A9.4,9.4,0,0,1,74.27,339.46Z" fill="#263238"/>
      <path id="Trazado_108478" data-name="Trazado 108478" d="M127.74,263.06a1.211,1.211,0,0,1,0,.19v68.4H66.44V262.54a11.671,11.671,0,0,1,.1-1.56h-.1l.58-9.63a11.44,11.44,0,0,1,3.18-7.26l6.13-6.42,3.16-16a5.33,5.33,0,0,1,5.22-4.3H98.85a5.34,5.34,0,0,1,5,3.6l5.92,17.26,11.29,6.95a11.48,11.48,0,0,1,5.34,8.1l1.47,9.82Z" fill="#6595bf"/>
      <path id="Trazado_108479" data-name="Trazado 108479" d="M127.74,263.06a1.211,1.211,0,0,1,0,.19v68.4H74.66V262.54a11.67,11.67,0,0,1,.1-1.56h-.1l.58-9.63a11.44,11.44,0,0,1,3.18-7.26l6.13-6.42,3.16-16a5.33,5.33,0,0,1,5.22-4.3h5.92a5.34,5.34,0,0,1,5,3.6l5.92,17.26,11.29,6.95a11.48,11.48,0,0,1,5.34,8.1l1.47,9.82Z" opacity="0.1"/>
      <path id="Trazado_108480" data-name="Trazado 108480" d="M133.07,342.87H100.16a121.215,121.215,0,0,0,12.68,4.28v5.33h7.54v-5.33a121.76,121.76,0,0,0,12.69-4.28Z" fill="#263238"/>
      <path id="Trazado_108481" data-name="Trazado 108481" d="M101.85,328.45a397.5,397.5,0,0,0,58.24-2.06,6.31,6.31,0,0,1,7.19,6.38v1a8.28,8.28,0,0,1-7.19,8,397.5,397.5,0,0,1-58.24,2.06Z" fill="#6595bf"/>
      <path id="Trazado_108482" data-name="Trazado 108482" d="M101.85,328.45a397.5,397.5,0,0,0,58.24-2.06,6.31,6.31,0,0,1,7.19,6.38v1a8.28,8.28,0,0,1-7.19,8,397.5,397.5,0,0,1-58.24,2.06Z" transform="translate(0 0.356)" opacity="0.2"/>
      <path id="Trazado_108483" data-name="Trazado 108483" d="M72.76,341.73c11.12,1,22.09,1.78,33.25,2.22a6.68,6.68,0,0,0,6.85-6.71v-1.7a7,7,0,0,0-6.852-7c-11.158-.45-22.128-1.18-33.248-2.23a6,6,0,0,0-6.82,6v1.7A7.85,7.85,0,0,0,72.76,341.73Z" fill="#6595bf"/>
      <path id="Trazado_108484" data-name="Trazado 108484" d="M167.04,385.88l-.07,16.81,8.39-.17,1.73-15.86Z" fill="#b55b52"/>
      <path id="Trazado_108485" data-name="Trazado 108485" d="M176.83,402.34a.19.19,0,0,1-.15-.16.18.18,0,0,1,.09-.2c.13-.07,3-1.66,4.33-1.27a1,1,0,0,1,.6.46.72.72,0,0,1,0,.83,3.48,3.48,0,0,1-2.4.6A14.8,14.8,0,0,1,176.83,402.34Zm.63-.25c1.51.2,3.55.21,3.94-.31a.556.556,0,0,0,0-.42.51.51,0,0,0-.37-.28,1.568,1.568,0,0,0-.37-.05,8.88,8.88,0,0,0-3.2,1.06Z" fill="#d9a171"/>
      <path id="Trazado_108486" data-name="Trazado 108486" d="M176.73,402.33a.18.18,0,0,1-.08-.18c0-.1.25-2.29,1.29-3.13a1.44,1.44,0,0,1,1.08-.31c.53.06.69.33.7.55.17.91-1.8,2.65-2.78,3.07h-.08a.19.19,0,0,1-.13,0Zm2.15-3.26a1,1,0,0,0-.66.23,4.54,4.54,0,0,0-1.11,2.48c1-.58,2.31-1.95,2.26-2.5,0,0,0-.19-.38-.22Z" fill="#d9a171"/>
      <path id="Trazado_108487" data-name="Trazado 108487" d="M176,401.19l-8.86-.1a.73.73,0,0,0-.71.55l-1.68,7.19a1.19,1.19,0,0,0,.88,1.43h.24c3.2,0,6-.17,10-.12,4.69.06,3.49.61,9,.75,3.32.08,4-3.69,2.57-3.9-6.45-.88-7.09-2.84-9.56-5.17a2.84,2.84,0,0,0-1.88-.63Z" fill="#263238"/>
      <path id="Trazado_108488" data-name="Trazado 108488" d="M167.74,395.65l8.9-.6.54-10.91-10.09-.18Z" opacity="0.1"/>
      <path id="Trazado_108489" data-name="Trazado 108489" d="M164.47,322a2.425,2.425,0,0,0,.1.45,43.567,43.567,0,0,0-.95-6.15c-2.86-11.13-32.66-13-44.85-13.28l-14.65,1.61s-1.37,11.73,2.12,19.16S164.47,322,164.47,322Z" opacity="0.4"/>
      <path id="Trazado_108490" data-name="Trazado 108490" d="M147.13,388.9l.76,17.06,8.26-.3.98-18.06Z" fill="#b55b52"/>
      <path id="Trazado_108491" data-name="Trazado 108491" d="M157.46,403.35a.2.2,0,0,1-.17-.15.18.18,0,0,1,.08-.2c.11-.09,2.8-1.94,4.18-1.68a1,1,0,0,1,.64.39.74.74,0,0,1,.09.84,3.5,3.5,0,0,1-2.33.82A14.791,14.791,0,0,1,157.46,403.35Zm.6-.31c1.52,0,3.56-.13,3.89-.69.05-.07.09-.19-.08-.42a.52.52,0,0,0-.4-.23,1.14,1.14,0,0,0-.37,0,9,9,0,0,0-3.04,1.3Z" fill="#d9a171"/>
      <path id="Trazado_108492" data-name="Trazado 108492" d="M157.36,403.35a.19.19,0,0,1-.1-.17c0-.1,0-2.3,1-3.24a1.49,1.49,0,0,1,1-.42c.53,0,.72.26.76.48.25.9-1.54,2.82-2.47,3.33a.11.11,0,0,1-.08,0,.2.2,0,0,1-.11.02Zm1.83-3.45a1,1,0,0,0-.65.3,4.53,4.53,0,0,0-.86,2.57c.95-.68,2.11-2.16,2-2.71,0,0-.05-.18-.4-.18h-.1Z" fill="#d9a171"/>
      <path id="Trazado_108493" data-name="Trazado 108493" d="M156.54,402.29l-8.83.75a.73.73,0,0,0-.65.62l-1,7.32a1.2,1.2,0,0,0,1,1.34h.25c3.18-.32,6-.74,10-1.07,4.67-.4,3.53.26,9-.13,3.31-.24,3.6-4.06,2.18-4.13-6.5-.25-7.34-2.14-10-4.23a2.87,2.87,0,0,0-1.95-.47Z" fill="#263238"/>
      <path id="Trazado_108494" data-name="Trazado 108494" d="M156.55,397.85l.47-8.61-9.84.22.39,9.02Z" opacity="0.1"/>
      <path id="Trazado_108495" data-name="Trazado 108495" d="M127.26,302s52-4,55.59,10.05-4.38,80.15-4.38,80.15l-12.86,1.08s-1.69-39-1.92-71.29c0,0-54.74,9.22-58.23,1.79s-2.12-19.16-2.12-19.16Z" fill="#d9a171"/>
      <path id="Trazado_108496" data-name="Trazado 108496" d="M127.26,302s52-4,55.59,10.05-4.38,80.15-4.38,80.15l-12.86,1.08s-1.69-39-1.92-71.29c0,0-54.74,9.22-58.23,1.79s-2.12-19.16-2.12-19.16Z" fill="#263238"/>
      <path id="Trazado_108497" data-name="Trazado 108497" d="M127.26,302s52-4,55.59,10.05-4.38,80.15-4.38,80.15l-12.86,1.08s-1.69-39-1.92-71.29c0,0-54.74,9.22-58.23,1.79s-2.12-19.16-2.12-19.16Z" opacity="0.1"/>
      <path id="Trazado_108498" data-name="Trazado 108498" d="M114.13,304.05s52.41-2,53.13,12.43c.56,11.31-9,78.47-9,78.47l-12,.93s-2.2-40.36-.7-67.91c0,0-45.23,5.19-53.2-1.18C84.8,320.72,90.71,304,90.71,304Z" fill="#263238"/>
      <g id="freepik--group--inject-234">
        <path id="Trazado_108499" data-name="Trazado 108499" d="M163.19,293.31v-.2a5.61,5.61,0,0,1,4.61-4.56l5.58-.91s9.29,4.59,7.17,5.61H170.29Z" fill="#b55b52"/>
        <path id="Trazado_108500" data-name="Trazado 108500" d="M170.73,288.07l-7.54,5.24L141.26,279l-9.6-9.63s-18.18-27.88-9.22-29.52c4.09-.75,18.4,17.66,27.54,32.73h0C160.9,281.36,170.73,288.07,170.73,288.07Z" fill="#d9a171"/>
        <g id="Grupo_59603" data-name="Grupo 59603" opacity="0.3">
          <path id="Trazado_108501" data-name="Trazado 108501" d="M170.73,288.07l-7.54,5.24L141.26,279l-9.6-9.63s-18.18-27.88-9.22-29.52c4.09-.75,18.4,17.66,27.54,32.73h0C160.9,281.36,170.73,288.07,170.73,288.07Z"/>
        </g>
        <path id="Trazado_108502" data-name="Trazado 108502" d="M131.66,303h0a74.36,74.36,0,0,1-23.49,2.36l-17-1c-.4-3.5-3-11.17-6.62-31-4.48-31.62.83-33.27,3.55-33.75h.09c2.52-.42,5.68-.88,8.79-1.11a165.663,165.663,0,0,1,17.82-.54,50.351,50.351,0,0,1,5.9.76,7.46,7.46,0,0,1,5.93,4.73C129.41,251.49,130.37,270.56,131.66,303Z" fill="#d9a171"/>
        <path id="Trazado_108503" data-name="Trazado 108503" d="M131.66,303h0a74.36,74.36,0,0,1-23.49,2.36l-17-1c-.4-3.5-3-11.17-6.62-31-4.48-31.62.83-33.27,3.55-33.75h.09c2.52-.42,5.68-.88,8.79-1.11a165.663,165.663,0,0,1,17.82-.54,50.351,50.351,0,0,1,5.9.76,7.46,7.46,0,0,1,5.93,4.73C129.41,251.49,130.37,270.56,131.66,303Z" opacity="0.4"/>
        <path id="Trazado_108504" data-name="Trazado 108504" d="M108.56,243c-8.82.75-12.19-4.45-12.19-4.45,3.76-4,1.95-14.4.46-20.1l4.88,3.81,6.66,5.19a23.681,23.681,0,0,0-.33,2.65,10.129,10.129,0,0,0,0,1.91v.13c.3,2.67,1.78,4.88,6,5.73C114,237.88,116.07,242.34,108.56,243Z" fill="#b55b52"/>
        <path id="Trazado_108505" data-name="Trazado 108505" d="M108.37,227.46a23.683,23.683,0,0,0-.33,2.65,10.131,10.131,0,0,0,0,1.91v.13c-2.43-.43-5.7-2.89-6.14-5.36a11.89,11.89,0,0,1-.17-2.46Z" opacity="0.2"/>
        <path id="Trazado_108506" data-name="Trazado 108506" d="M94.54,238l2.69-1.09A26.89,26.89,0,0,0,108,243a10.4,10.4,0,0,0-3.68,4.8C94.79,244.92,94.54,238,94.54,238Z" fill="#fff"/>
        <path id="Trazado_108507" data-name="Trazado 108507" d="M114,237.39l-2.55-.45s-.87,5.31-3.45,6.13c4.61,1.63,5.43,3.85,5.43,3.85C119.89,244.61,114,237.39,114,237.39Z" fill="#fff"/>
        <path id="Trazado_108508" data-name="Trazado 108508" d="M112.34,201.6c1.33,1.56,1.73,5.36,3,6.91a29,29,0,0,0,1.75-4.85,2.37,2.37,0,0,0-.75-2.28C115.45,200.67,113.44,201.2,112.34,201.6Z" fill="#263238"/>
        <path id="Trazado_108509" data-name="Trazado 108509" d="M95.58,207.15A10.27,10.27,0,0,1,108,199.57c8.1,1.74,11.53,12.85,11.32,20a10.15,10.15,0,0,1-16,8.16c-4.7-3.23-5.53-7.73-7.58-15.25a10.25,10.25,0,0,1-.16-5.33Z" fill="#b55b52"/>
        <path id="Trazado_108510" data-name="Trazado 108510" d="M115.48,220.12a37.292,37.292,0,0,0-7.93,0,4.53,4.53,0,0,0,5.07,3.17,2.92,2.92,0,0,0,2.86-2.9Z" fill="#263238"/>
        <path id="Trazado_108511" data-name="Trazado 108511" d="M111.19,221.84a5,5,0,0,1,3.28.74,3.11,3.11,0,0,1-1.84.7,4.93,4.93,0,0,1-3.28-.73,3,3,0,0,1,1.84-.71Z" fill="#e83f3f"/>
        <path id="Trazado_108512" data-name="Trazado 108512" d="M115.21,220.09a1.32,1.32,0,0,1-.88,1,27.894,27.894,0,0,1-5.17-.15,1.59,1.59,0,0,1-1.34-.87,43.42,43.42,0,0,1,7.39.02Z" fill="#fff"/>
        <path id="Trazado_108513" data-name="Trazado 108513" d="M113.85,217.89a3.6,3.6,0,0,0,2.83-1.06,23.061,23.061,0,0,1-4.09-4.78Z" opacity="0.2"/>
        <path id="Trazado_108514" data-name="Trazado 108514" d="M110.9,202.71a15.659,15.659,0,0,0-1.05-1.71,3,3,0,0,0-3.08-.72,4.84,4.84,0,0,0-2.54,2.09,16,16,0,0,0-1.63,3.46,3.39,3.39,0,0,1-1,2.83h0a3.34,3.34,0,0,1-2.85.75c-.38,1.14,2.08,4.45,2.55,4.88a4,4,0,0,0,1.55.9,3.33,3.33,0,0,1-1.69.31l-.54-.06c-2-.34-9.71-5.17-5.35-13.18A11.47,11.47,0,0,1,111,198.2C116.29,201.63,111.29,203.27,110.9,202.71Z" fill="#263238"/>
        <path id="Trazado_108515" data-name="Trazado 108515" d="M98.62,216.86c0,2.37.27,7.56-.17,10.63-2.7-2.16-5.3-7-6.54-10.27a14.14,14.14,0,0,1,.39-11.35,11.3,11.3,0,0,1,2.93-3.59,10.29,10.29,0,0,1,6.45-2.39c0,3,0,5.89-.12,8.79a3.34,3.34,0,0,1-2.85.75c-.38,1.14.66,3.36,1.23,4.43a5.25,5.25,0,0,0,1.13,1.49,9.939,9.939,0,0,1-.13,1.21c-.12.92-.24,1.85-.39,2.77Z" fill="#263238"/>
        <path id="Trazado_108516" data-name="Trazado 108516" d="M95.78,214.28c1.93-.32,4,2.07,4.87,3.82.93,2,.31,3.81-1.74,3.36a7.34,7.34,0,0,1-4-2.81C93.61,216.92,93.86,214.6,95.78,214.28Z" fill="#b55b52"/>
        <path id="Trazado_108517" data-name="Trazado 108517" d="M108.12,212c.41-.06.86.44,1,1s-.11,1.12-.52,1.19-.79-.38-1-1A.844.844,0,0,1,108.12,212Z" fill="#263238"/>
        <path id="Trazado_108518" data-name="Trazado 108518" d="M115.06,210.4c.41-.07.84.37,1,1s-.09,1.18-.5,1.25-.85-.38-1-1S114.65,210.47,115.06,210.4Z" fill="#263238"/>
        <path id="Trazado_108519" data-name="Trazado 108519" d="M113.51,208a.41.41,0,0,0,.34.08,3.14,3.14,0,0,1,2.73.34.36.36,0,0,0,.51-.05h0a.39.39,0,0,0-.06-.52h0a3.81,3.81,0,0,0-3.4-.47.38.38,0,0,0-.25.46.52.52,0,0,0,.13.16Z" fill="#263238"/>
        <path id="Trazado_108520" data-name="Trazado 108520" d="M106,211.08a.41.41,0,0,0,.32-.15,3.19,3.19,0,0,1,2.36-1.41.35.35,0,0,0,.37-.35h0a.38.38,0,0,0-.37-.37h0a3.87,3.87,0,0,0-3,1.72.38.38,0,0,0,.1.52A.6.6,0,0,0,106,211.08Z" fill="#263238"/>
        <path id="Trazado_108521" data-name="Trazado 108521" d="M92.52,259.8l1-2.08c1.3-2.73,6.71-13.6,9.35-14.75l1-.62L107.5,248c-.63.54-7.56,18.44-9.22,22.19a13.208,13.208,0,0,0-.65,1.76c-1.13,4.1-8.11,10.39-12.78-1.42-1.16-2.48-2.23-4.93-3.19-7.4-.49-1.29-.93-2.5-1.38-3.78l-.46-1.3c-2.15-6.17-2.52-13.24,3.37-16.87l4-1.34Z" fill="#d9a171"/>
        <g id="Grupo_59604" data-name="Grupo 59604" opacity="0.3">
          <path id="Trazado_108522" data-name="Trazado 108522" d="M92.52,259.8l1-2.08c1.3-2.73,6.71-13.6,9.35-14.75l1-.62L107.5,248c-.63.54-7.56,18.44-9.22,22.19a13.208,13.208,0,0,0-.65,1.76c-1.13,4.1-8.11,10.39-12.78-1.42-1.16-2.48-2.23-4.93-3.19-7.4-.49-1.29-.93-2.5-1.38-3.78l-.46-1.3c-2.15-6.17-2.52-13.24,3.37-16.87l4-1.34Z"/>
        </g>
        <path id="Trazado_108523" data-name="Trazado 108523" d="M113.43,238.32a3.419,3.419,0,0,0,.19.78,6.1,6.1,0,0,0,.45,1.09,5.61,5.61,0,0,0,1,1.2s.25.21.26.23a5.829,5.829,0,0,0,.74.57,4.53,4.53,0,0,0,1.64.75.39.39,0,0,1,.26.21c.07.14.16.28.24.41a2.416,2.416,0,0,1,.18.36.89.89,0,0,0,.36.43,3,3,0,0,0,1,.37,10.751,10.751,0,0,0,2.83.2,14.327,14.327,0,0,0,1.47-.12,11.922,11.922,0,0,0,1.55-.34,4.43,4.43,0,0,0,1.16-.5.79.79,0,0,0,.35-.37,2.152,2.152,0,0,1,.1-.27l.31-.75c.15-.38.28-.78.4-1.17a11.219,11.219,0,0,0,.33-1.17c.08-.4.17-.8.23-1.21.1-.68.18-1.37.25-2.07a6.568,6.568,0,0,1,.05-1,3,3,0,0,0-.09-.79,1.14,1.14,0,0,0-.28-.47,3.69,3.69,0,0,0-1.29-.84,6.258,6.258,0,0,0-1.41-.38c-.2,0-.4-.08-.6-.1a14.9,14.9,0,0,0-6.35.48,8.75,8.75,0,0,0-1.21.44,5.079,5.079,0,0,0-1,.62,2.17,2.17,0,0,0-.54.66,1,1,0,0,0-.1.31c0,.12,0,.13-.15.11a1.87,1.87,0,0,0-1.83.57,2.06,2.06,0,0,0-.39.73A2.92,2.92,0,0,0,113.43,238.32Zm5.24-1.62a6,6,0,0,1-1.25-.36.72.72,0,0,1-.27-.15,1.76,1.76,0,0,1,.53-.63,4.341,4.341,0,0,1,.46-.28,5.192,5.192,0,0,1,.89-.36,11.628,11.628,0,0,1,1.44-.35c.47-.08.92-.13,1.4-.17s.79,0,1.23,0a12.827,12.827,0,0,1,1.65.1,8.31,8.31,0,0,1,1.64.38,2.81,2.81,0,0,1,1.19.75h0l-.12.09a2.33,2.33,0,0,1-.34.2,5.821,5.821,0,0,1-1.41.52l-.33.09h-.19a10.556,10.556,0,0,1-1.1.19,9.881,9.881,0,0,1-1.08.11l-.84.06h-2.32a10.453,10.453,0,0,1-1.18-.19Zm-3.53,1.3a.78.78,0,0,1,.64-.63h.23c.1.54.23,1.05.35,1.56.15.68.36,1.33.57,2a3.39,3.39,0,0,0,.42.92l-.39-.3a5.54,5.54,0,0,1-1-1.07,5.21,5.21,0,0,1-.74-1.3,1.93,1.93,0,0,1-.08-1.18Z" fill="#d9a171"/>
        <path id="Trazado_108524" data-name="Trazado 108524" d="M113.43,238.32a3.419,3.419,0,0,0,.19.78,6.1,6.1,0,0,0,.45,1.09,5.61,5.61,0,0,0,1,1.2s.25.21.26.23a5.829,5.829,0,0,0,.74.57,4.53,4.53,0,0,0,1.64.75.39.39,0,0,1,.26.21c.07.14.16.28.24.41a2.416,2.416,0,0,1,.18.36.89.89,0,0,0,.36.43,3,3,0,0,0,1,.37,10.751,10.751,0,0,0,2.83.2,14.327,14.327,0,0,0,1.47-.12,11.922,11.922,0,0,0,1.55-.34,4.43,4.43,0,0,0,1.16-.5.79.79,0,0,0,.35-.37,2.152,2.152,0,0,1,.1-.27l.31-.75c.15-.38.28-.78.4-1.17a11.219,11.219,0,0,0,.33-1.17c.08-.4.17-.8.23-1.21.1-.68.18-1.37.25-2.07a6.568,6.568,0,0,1,.05-1,3,3,0,0,0-.09-.79,1.14,1.14,0,0,0-.28-.47,3.69,3.69,0,0,0-1.29-.84,6.258,6.258,0,0,0-1.41-.38c-.2,0-.4-.08-.6-.1a14.9,14.9,0,0,0-6.35.48,8.75,8.75,0,0,0-1.21.44,5.079,5.079,0,0,0-1,.62,2.17,2.17,0,0,0-.54.66,1,1,0,0,0-.1.31c0,.12,0,.13-.15.11a1.87,1.87,0,0,0-1.83.57,2.06,2.06,0,0,0-.39.73A2.92,2.92,0,0,0,113.43,238.32Zm5.24-1.62a6,6,0,0,1-1.25-.36.72.72,0,0,1-.27-.15,1.76,1.76,0,0,1,.53-.63,4.341,4.341,0,0,1,.46-.28,5.192,5.192,0,0,1,.89-.36,11.628,11.628,0,0,1,1.44-.35c.47-.08.92-.13,1.4-.17s.79,0,1.23,0a12.827,12.827,0,0,1,1.65.1,8.31,8.31,0,0,1,1.64.38,2.81,2.81,0,0,1,1.19.75h0l-.12.09a2.33,2.33,0,0,1-.34.2,5.821,5.821,0,0,1-1.41.52l-.33.09h-.19a10.556,10.556,0,0,1-1.1.19,9.881,9.881,0,0,1-1.08.11l-.84.06h-2.32a10.453,10.453,0,0,1-1.18-.19Zm-3.53,1.3a.78.78,0,0,1,.64-.63h.23c.1.54.23,1.05.35,1.56.15.68.36,1.33.57,2a3.39,3.39,0,0,0,.42.92l-.39-.3a5.54,5.54,0,0,1-1-1.07,5.21,5.21,0,0,1-.74-1.3,1.93,1.93,0,0,1-.08-1.18Z" fill="#fff" opacity="0.7"/>
        <path id="Trazado_108525" data-name="Trazado 108525" d="M117.14,236.19a1.67,1.67,0,0,1,.53-.63,3.641,3.641,0,0,1,.47-.28,4.79,4.79,0,0,1,.88-.36,11.628,11.628,0,0,1,1.44-.35c.47-.08.92-.13,1.4-.17s.79,0,1.23,0a13.1,13.1,0,0,1,1.66.11,7.69,7.69,0,0,1,1.63.37,2.81,2.81,0,0,1,1.19.75h0l-.12.09a3,3,0,0,1-.34.2,6.681,6.681,0,0,1-1.41.53l-.34.08h-.19c-.36.08-.73.15-1.1.2a9.631,9.631,0,0,1-1.08.1l-.84.06H119.8a6.187,6.187,0,0,1-1.13-.18,5.2,5.2,0,0,1-1.24-.36.69.69,0,0,1-.29-.16Z" fill="#fff" opacity="0.9"/>
        <path id="Trazado_108526" data-name="Trazado 108526" d="M117.16,236.19a1.56,1.56,0,0,1,.53-.63,4.34,4.34,0,0,1,.46-.28,6.2,6.2,0,0,1,.89-.37,14.139,14.139,0,0,1,1.43-.34c.48-.08.93-.13,1.41-.17s.79,0,1.23,0a13.092,13.092,0,0,1,1.66.1,8.381,8.381,0,0,1,1.63.38,2.87,2.87,0,0,1,1.19.75h0a.4.4,0,0,1-.12.1,2.231,2.231,0,0,1-.33.2,6.559,6.559,0,0,1-1.42.53l-.34.08h-.18c-.37.08-.73.14-1.1.19s-.72.09-1.08.11l-.84.06h-2.35a6.187,6.187,0,0,1-1.13-.18,6,6,0,0,1-1.25-.36.72.72,0,0,1-.29-.17Z" fill="none"/>
        <path id="Trazado_108527" data-name="Trazado 108527" d="M117.16,236.19a1.56,1.56,0,0,1,.53-.63,4.34,4.34,0,0,1,.46-.28,6.2,6.2,0,0,1,.89-.37,14.139,14.139,0,0,1,1.43-.34c.48-.08.93-.13,1.41-.17s.79,0,1.23,0a13.092,13.092,0,0,1,1.66.1,8.381,8.381,0,0,1,1.63.38,2.87,2.87,0,0,1,1.19.75h0a.4.4,0,0,1-.12.1,2.231,2.231,0,0,1-.33.2,6.559,6.559,0,0,1-1.42.53l-.34.08h-.18c-.37.08-.73.14-1.1.19s-.72.09-1.08.11l-.84.06h-2.35a6.187,6.187,0,0,1-1.13-.18,6,6,0,0,1-1.25-.36.72.72,0,0,1-.29-.17Z" fill="none"/>
        <path id="Trazado_108528" data-name="Trazado 108528" d="M117.15,236.19a.72.72,0,0,0,.27.15,6,6,0,0,0,1.25.36,10.446,10.446,0,0,0,1.12.18h2.27l.84-.06a9.877,9.877,0,0,0,1.08-.11,10.547,10.547,0,0,0,1.1-.19h.19l.33-.09a5.82,5.82,0,0,0,1.41-.52,2.329,2.329,0,0,0,.34-.2l.12-.09h0a2.81,2.81,0,0,0-1.19-.75,8.31,8.31,0,0,0-1.64-.38,12.827,12.827,0,0,0-1.65-.1h-1.23a8.756,8.756,0,0,0-1.4.17,11.628,11.628,0,0,0-1.44.35,5.189,5.189,0,0,0-.89.36,4.338,4.338,0,0,0-.46.28A1.76,1.76,0,0,0,117.15,236.19Z" fill="#263238"/>
        <path id="Trazado_108529" data-name="Trazado 108529" d="M117.11,235.26a3.192,3.192,0,0,1,.32-.32,8.13,8.13,0,0,1,3.75-1.31,11.292,11.292,0,0,1,2.25-.12,8.74,8.74,0,0,1,3.75.87,2.529,2.529,0,0,1,.36.29.68.68,0,0,1,.07.9l-.14.11h0c-1.15-1.13-4.18-1.17-5.17-1.16s-4,.49-5,1.74h0l-.14-.1a.66.66,0,0,1-.05-.9Z" opacity="0.3"/>
        <path id="Trazado_108530" data-name="Trazado 108530" d="M115.59,239.23l.66,3.21-2,2.43A14.18,14.18,0,0,1,107.5,248a3.3,3.3,0,0,1-3.32-1.79l-.32-.62a4,4,0,0,1-.32-.87c-.39-1.66.17-2.59,1.56-3.56l4.83-4.25a57.583,57.583,0,0,1,5.87-.75C116.4,236.11,115.71,238.64,115.59,239.23Z" fill="#b55b52"/>
      </g>
    </g>
    <g id="freepik--speech-bubble-3--inject-234">
      <g id="freepik--freepik--speech-bubbles--inject-120--inject-234">
        <path id="Trazado_108531" data-name="Trazado 108531" d="M358.57,192.3l3.51,33.06a3.179,3.179,0,0,1,0,.62,3.78,3.78,0,0,1-3.93,3.63h-7.53c1.63,4.69,8.51,11,8.51,11a32.46,32.46,0,0,1-19-11.06l-53.91-.33a5,5,0,0,1-4.82-4.31L278,191.82a3.327,3.327,0,0,1,0-.63,3.78,3.78,0,0,1,3.93-3.63l71.9.43a5,5,0,0,1,4.74,4.31Z" fill="#d9a171"/>
        <path id="Trazado_108532" data-name="Trazado 108532" d="M360.68,241.29l-1.59-.22A33.35,33.35,0,0,1,340,230l-53.68-.33a5.45,5.45,0,0,1-5.31-4.74l-3.53-33.07a4.062,4.062,0,0,1,0-.7,4.31,4.31,0,0,1,4.45-4.11l71.88.43a5.45,5.45,0,0,1,5.3,4.75h0l3.52,33.05a4.062,4.062,0,0,1,0,.7,4.28,4.28,0,0,1-4.45,4.11h-6.77c1.94,4.43,8.05,10.07,8.11,10.13Zm-79-53.23a3.26,3.26,0,0,0-2.24.87,3.32,3.32,0,0,0-1.05,2.28,2.448,2.448,0,0,0,0,.54L282,224.82a4.45,4.45,0,0,0,4.33,3.86l54.14.33.15.18a32.2,32.2,0,0,0,17,10.54c-2.09-2.08-6.16-6.44-7.39-10l-.23-.67h8.23a3.3,3.3,0,0,0,3.43-3.15,3.249,3.249,0,0,0,0-.54l-3.52-33.06a4.46,4.46,0,0,0-4.33-3.87l-71.88-.43Z" fill="#d9a171"/>
      </g>
      <rect id="Rectángulo_8501" data-name="Rectángulo 8501" width="40.04" height="1" transform="translate(311.86 196.38)" fill="#fff"/>
      <rect id="Rectángulo_8502" data-name="Rectángulo 8502" width="14.47" height="1" transform="translate(291.48 196.38)" fill="#fff"/>
      <rect id="Rectángulo_8503" data-name="Rectángulo 8503" width="17.76" height="1" transform="translate(336.04 205.03)" fill="#fff"/>
      <rect id="Rectángulo_8504" data-name="Rectángulo 8504" width="23.25" height="1" transform="translate(306.46 205.03)" fill="#fff"/>
      <rect id="Rectángulo_8505" data-name="Rectángulo 8505" width="14.15" height="1" transform="translate(286.87 205.03)" fill="#fff"/>
      <rect id="Rectángulo_8506" data-name="Rectángulo 8506" width="27.4" height="1" transform="translate(327.39 213.68)" fill="#fff"/>
      <rect id="Rectángulo_8507" data-name="Rectángulo 8507" width="12.48" height="1" transform="translate(309.66 213.68)" fill="#fff"/>
      <rect id="Rectángulo_8508" data-name="Rectángulo 8508" width="10.95" height="1" transform="translate(298.72 213.68)" fill="#fff"/>
      <rect id="Rectángulo_8509" data-name="Rectángulo 8509" width="7.9" height="1" transform="translate(287.87 213.68)" fill="#fff"/>
      <rect id="Rectángulo_8510" data-name="Rectángulo 8510" width="11.72" height="1" transform="translate(288.67 222.33)" fill="#fff"/>
    </g>
    <g id="freepik--speech-bubble-2--inject-234">
      <g id="freepik--freepik-speech-bubbles-inject-120--inject-234">
        <path id="Trazado_108533" data-name="Trazado 108533" d="M260.8,150.45l71.89-.43a3.79,3.79,0,0,1,3.93,3.64,3.26,3.26,0,0,1,0,.62l-3.52,33.06a5,5,0,0,1-4.82,4.31l-53.91.32A32.51,32.51,0,0,1,255.39,203s6.89-6.32,8.51-11l-7.53.05a3.79,3.79,0,0,1-3.93-3.64,3.22,3.22,0,0,1,0-.62l3.51-33a5,5,0,0,1,4.85-4.34Z" fill="#fff"/>
        <path id="Trazado_108534" data-name="Trazado 108534" d="M253.87,203.75l1.18-1.08c.07-.06,6.18-5.69,8.11-10.13h-6.78a4.3,4.3,0,0,1-4.44-4.12,4.1,4.1,0,0,1,0-.7l3.52-33a5.46,5.46,0,0,1,5.29-4.76h0l71.9-.43a4.32,4.32,0,0,1,4.43,4.12,4.105,4.105,0,0,1,0,.7l-3.52,33a5.47,5.47,0,0,1-5.3,4.76l-53.69.32a33.3,33.3,0,0,1-19.12,11.06Zm10.73-12.22-.23.67c-1.23,3.55-5.29,7.91-7.38,10a32.18,32.18,0,0,0,17-10.54l.15-.18,54.15-.32a4.47,4.47,0,0,0,4.33-3.88l3.52-33.05a3.31,3.31,0,0,0-3.39-3.7L260.8,151a4.46,4.46,0,0,0-4.32,3.88l-3.51,33a3.438,3.438,0,0,0,0,.55,3.31,3.31,0,0,0,3.41,3.16Z" fill="#d9a171"/>
      </g>
      <rect id="Rectángulo_8511" data-name="Rectángulo 8511" width="32.42" height="1" transform="translate(270.98 157.18)" fill="#d9a171"/>
      <rect id="Rectángulo_8512" data-name="Rectángulo 8512" width="19.57" height="1" transform="translate(310.97 157.18)" fill="#d9a171"/>
      <rect id="Rectángulo_8513" data-name="Rectángulo 8513" width="17.76" height="1" transform="translate(261.47 165.83)" fill="#d9a171"/>
      <rect id="Rectángulo_8514" data-name="Rectángulo 8514" width="42.84" height="1" transform="translate(285.56 165.83)" fill="#d9a171"/>
      <rect id="Rectángulo_8515" data-name="Rectángulo 8515" width="45.13" height="1" transform="translate(260.47 174.48)" fill="#d9a171"/>
      <rect id="Rectángulo_8516" data-name="Rectángulo 8516" width="14.75" height="1" transform="translate(312.65 174.48)" fill="#d9a171"/>
      <rect id="Rectángulo_8517" data-name="Rectángulo 8517" width="11.72" height="1" transform="translate(259.75 183.13)" fill="#d9a171"/>
    </g>
    <g id="freepik--speech-bubble-1--inject-234">
      <g id="freepik--freepik-speech-bubbles-inject-120--inject-234-2" data-name="freepik--freepik-speech-bubbles-inject-120--inject-234">
        <path id="Trazado_108535" data-name="Trazado 108535" d="M133.79,161.48l71.89-.43a3.79,3.79,0,0,1,3.93,3.64,4.33,4.33,0,0,1,0,.62l-3.53,33.05a5,5,0,0,1-4.81,4.31l-53.92.33a32.46,32.46,0,0,1-19,11.06s6.89-6.31,8.51-11h-7.52a3.77,3.77,0,0,1-3.93-3.63,4.241,4.241,0,0,1,0-.62l3.52-33a5,5,0,0,1,4.86-4.33Z" fill="#263238"/>
      </g>
      <rect id="Rectángulo_8518" data-name="Rectángulo 8518" width="32.42" height="1" transform="translate(168.34 168.55)" fill="#d9a171"/>
      <rect id="Rectángulo_8519" data-name="Rectángulo 8519" width="19.57" height="1" transform="translate(141.21 168.55)" fill="#d9a171"/>
      <rect id="Rectángulo_8520" data-name="Rectángulo 8520" width="17.76" height="1" transform="translate(183 177.2)" fill="#d9a171"/>
      <rect id="Rectángulo_8521" data-name="Rectángulo 8521" width="42.84" height="1" transform="translate(133.83 177.2)" fill="#d9a171"/>
      <rect id="Rectángulo_8522" data-name="Rectángulo 8522" width="45.13" height="1" transform="translate(155.63 185.85)" fill="#d9a171"/>
      <rect id="Rectángulo_8523" data-name="Rectángulo 8523" width="14.75" height="1" transform="translate(133.83 185.85)" fill="#d9a171"/>
      <rect id="Rectángulo_8524" data-name="Rectángulo 8524" width="10.92" height="1" transform="translate(133.83 194.5)" fill="#d9a171"/>
    </g>
    <g id="freepik--Table--inject-234">
      <rect id="Rectángulo_8525" data-name="Rectángulo 8525" width="11.2" height="14.98" rx="2.11" transform="translate(277.927 293.61) rotate(179.427)" fill="#d9a171"/>
      <path id="Trazado_108536" data-name="Trazado 108536" d="M263.71,287.77v-2.82a4.19,4.19,0,0,1,4.15-4.22h.94l.1,11.19h-.94a4.18,4.18,0,0,1-4.25-4.15Zm1.85-2.84v2.82a2.3,2.3,0,0,0,1.38,2.09l-.06-7a2.33,2.33,0,0,0-1.32,2.09Z" fill="#d9a171"/>
      <g id="Grupo_59605" data-name="Grupo 59605" opacity="0.7">
        <rect id="Rectángulo_8526" data-name="Rectángulo 8526" width="11.2" height="14.98" rx="2.11" transform="translate(277.927 293.61) rotate(179.427)" fill="#fff"/>
        <path id="Trazado_108537" data-name="Trazado 108537" d="M263.71,287.77v-2.82a4.19,4.19,0,0,1,4.15-4.22h.94l.1,11.19h-.94a4.18,4.18,0,0,1-4.25-4.15Zm1.85-2.84v2.82a2.3,2.3,0,0,0,1.38,2.09l-.06-7a2.33,2.33,0,0,0-1.32,2.09Z" fill="#fff"/>
      </g>
      <path id="Trazado_108538" data-name="Trazado 108538" d="M353.6,293.11h-21a.82.82,0,0,1-.82-.82h0a.82.82,0,0,1,.82-.82h21a.83.83,0,0,1,.82.83h0a.82.82,0,0,1-.82.81Z" fill="#d9a171"/>
      <path id="Trazado_108539" data-name="Trazado 108539" d="M353.6,293.11h-21a.82.82,0,0,1-.82-.82h0a.82.82,0,0,1,.82-.82h21a.83.83,0,0,1,.82.83h0a.82.82,0,0,1-.82.81Z" opacity="0.4"/>
      <path id="Trazado_108540" data-name="Trazado 108540" d="M332.46,293.1l-43.69.07a.81.81,0,0,1-.81-.82h0a.82.82,0,0,1,.82-.82l43.69-.07a.81.81,0,0,1,.81.82h0A.82.82,0,0,1,332.46,293.1Z" fill="#263238"/>
      <path id="Trazado_108541" data-name="Trazado 108541" d="M331.28,291.45l-40.25.18a2.9,2.9,0,0,1-2.82-2.63l-1.65-20.64a2.36,2.36,0,0,1,2.4-2.6l40.25-.18a2.9,2.9,0,0,1,2.82,2.63l1.65,20.64a2.36,2.36,0,0,1-2.4,2.6Z" fill="#d9a171"/>
      <path id="Trazado_108542" data-name="Trazado 108542" d="M331.28,291.45l-40.25.18a2.9,2.9,0,0,1-2.82-2.63l-1.65-20.64a2.36,2.36,0,0,1,2.4-2.6l40.25-.18a2.9,2.9,0,0,1,2.82,2.63l1.65,20.64a2.36,2.36,0,0,1-2.4,2.6Z" opacity="0.4"/>
      <path id="Trazado_108543" data-name="Trazado 108543" d="M330.08,291.35l-40.25.18A2.9,2.9,0,0,1,287,288.9l-1.65-20.64a2.36,2.36,0,0,1,2.4-2.6l40.25-.18a2.9,2.9,0,0,1,2.82,2.63l1.66,20.64a2.37,2.37,0,0,1-2.4,2.6Z" fill="#d9a171"/>
      <path id="Trazado_108544" data-name="Trazado 108544" d="M330.08,291.35l-40.25.18A2.9,2.9,0,0,1,287,288.9l-1.65-20.64a2.36,2.36,0,0,1,2.4-2.6l40.25-.18a2.9,2.9,0,0,1,2.82,2.63l1.66,20.64a2.37,2.37,0,0,1-2.4,2.6Z" fill="#fff" opacity="0.5"/>
      <path id="Trazado_108545" data-name="Trazado 108545" d="M303.14,279.19a4.59,4.59,0,0,0,4.39,4.21,3.71,3.71,0,0,0,3.84-4,4.58,4.58,0,0,0-4.39-4.2,3.71,3.71,0,0,0-3.84,3.99Z" fill="#fff"/>
      <path id="Trazado_108546" data-name="Trazado 108546" d="M367.53,282.35l.41.74a2.73,2.73,0,0,1,.35,1.33v4.2c0,2.56,2.8,4.66,6.25,4.66h.91a6.62,6.62,0,0,0,5.66-2.71,2,2,0,0,0,.79-.35l2.43-1.81a1.26,1.26,0,0,0,.57-1v-2.27c0-.78-.87-1.42-1.92-1.42H381.7c-.07-.15.07-.39.26-.63L382,283a6,6,0,0,1,.66-.64h.05s-.11-.53-1.39-.26c-.37.08-.72.17-1,.26h-.24q-3.2-.057-6.4-.08c.08,0-.07,0,0,0a5.35,5.35,0,0,0-3.24.08H370c-.32-.09-.68-.18-1.05-.26C367.64,281.82,367.53,282.35,367.53,282.35Zm14.1,7.22c0-.05.05-3.36.06-4.78a.77.77,0,0,1,.85-.62h.53c.66,0,1.2.41,1.2.9v2.07c0,.68,0,.65-.68,1.14Z" fill="#d9a171"/>
      <path id="Trazado_108547" data-name="Trazado 108547" d="M383,283.71h-1.3c-.07-.15.07-.39.26-.63L382,283a5.153,5.153,0,0,1,.67-.64h0s-.11-.54-1.39-.26c-.37.08-.72.17-1,.26h-.24q-3.2-.057-6.4-.08a5.35,5.35,0,0,0-3.24.08H370c-.32-.09-.68-.18-1.05-.26-1.28-.28-1.39.26-1.39.26l.41.74a2.73,2.73,0,0,1,.35,1.33v4.2c0,2.56,2.8,4.66,6.25,4.66h.91a6.62,6.62,0,0,0,5.66-2.71,2.181,2.181,0,0,0,.79-.34l2.43-1.82a1.29,1.29,0,0,0,.57-1v-2.27A1.8,1.8,0,0,0,383,283.71Zm1.29,3.43c0,.68,0,.65-.68,1.14l-2,1.29c0-.05.05-3.36.06-4.78a.77.77,0,0,1,.85-.62h.53c.67,0,1.2.41,1.2.9Z" fill="#fff" opacity="0.7"/>
      <path id="Trazado_108548" data-name="Trazado 108548" d="M90.84,299.68,78.7,418.9h3.88l20.33-119.22Z" fill="#d9a171"/>
      <path id="Trazado_108549" data-name="Trazado 108549" d="M370.05,299.68,391.66,418.9h3.89L382.12,299.68Z" fill="#d9a171"/>
      <path id="Trazado_108550" data-name="Trazado 108550" d="M103.3,419.02h3.88l22.03-119.34H117.15Z" fill="#d9a171"/>
      <path id="Trazado_108551" data-name="Trazado 108551" d="M406.87,299.68H394.81L418.6,419.02h3.88Z" fill="#d9a171"/>
      <path id="Trazado_108552" data-name="Trazado 108552" d="M431.44,297.1a3.8,3.8,0,0,0-3.91-3.69H70.18a3.69,3.69,0,1,0,0,7.37H427.53A3.8,3.8,0,0,0,431.44,297.1Z" fill="#d9a171"/>
      <g id="Grupo_59606" data-name="Grupo 59606" opacity="0.6">
        <path id="Trazado_108553" data-name="Trazado 108553" d="M90.84,299.68,78.7,418.9h3.88l20.33-119.22Z" fill="#fff"/>
        <path id="Trazado_108554" data-name="Trazado 108554" d="M370.05,299.68,391.66,418.9h3.89L382.12,299.68Z" fill="#fff"/>
        <path id="Trazado_108555" data-name="Trazado 108555" d="M103.3,419.02h3.88l22.03-119.34H117.15Z" fill="#fff"/>
        <path id="Trazado_108556" data-name="Trazado 108556" d="M406.87,299.68H394.81L418.6,419.02h3.88Z" fill="#fff"/>
        <path id="Trazado_108557" data-name="Trazado 108557" d="M431.44,297.1a3.8,3.8,0,0,0-3.91-3.69H70.18a3.69,3.69,0,1,0,0,7.37H427.53A3.8,3.8,0,0,0,431.44,297.1Z" fill="#fff"/>
      </g>
    </g>
  </g>
</svg>
