<svg xmlns="http://www.w3.org/2000/svg" width="122.184" height="122.184" viewBox="0 0 122.184 122.184">
  <g id="speak" transform="translate(0 -3.278)">
    <path id="Trazado_108322" data-name="Trazado 108322" d="M122.184,73.463A61.092,61.092,0,1,1,61.092,12.371,61.092,61.092,0,0,1,122.184,73.463Zm0,0" transform="translate(0 -9.093)" fill="#d9a171"/>
    <path id="Trazado_108323" data-name="Trazado 108323" d="M70.012,192.766H44.018a21.482,21.482,0,0,0-9.172,40.907,8.351,8.351,0,0,1,4.795,7.544v4.608a1.78,1.78,0,0,0,3.25,1l5.088-7.463a8.336,8.336,0,0,1,6.886-3.64H70.012a21.48,21.48,0,1,0,0-42.959Zm0,0" transform="translate(-8.275 -135.922)" fill="#f8fafd"/>
    <path id="Trazado_108324" data-name="Trazado 108324" d="M43.055,233.672a21.482,21.482,0,0,1,9.172-40.907H44.019a21.483,21.483,0,0,0-9.173,40.907,8.35,8.35,0,0,1,4.795,7.544v4.608a1.78,1.78,0,0,0,3.251,1l4.822-7.074a8.359,8.359,0,0,0-4.66-6.081Zm0,0" transform="translate(-8.276 -135.922)" fill="#ddd"/>
    <path id="Trazado_108325" data-name="Trazado 108325" d="M107.852,283.57a3.965,3.965,0,1,1-3.964-3.965A3.965,3.965,0,0,1,107.852,283.57Zm0,0" transform="translate(-69.686 -204.837)" fill="#6595bf"/>
    <path id="Trazado_108326" data-name="Trazado 108326" d="M178.29,283.57a3.965,3.965,0,1,1-3.965-3.965A3.965,3.965,0,0,1,178.29,283.57Zm0,0" transform="translate(-125.584 -204.837)" fill="#6595bf"/>
    <path id="Trazado_108327" data-name="Trazado 108327" d="M248.728,283.57a3.965,3.965,0,1,1-3.965-3.965A3.965,3.965,0,0,1,248.728,283.57Zm0,0" transform="translate(-181.483 -204.837)" fill="#6595bf"/>
    <path id="Trazado_108328" data-name="Trazado 108328" d="M163.706,0H189.7a21.483,21.483,0,0,1,9.173,40.907,8.35,8.35,0,0,0-4.795,7.544v4.608a1.78,1.78,0,0,1-3.251,1L185.739,46.6a8.333,8.333,0,0,0-6.886-3.639H163.706a21.48,21.48,0,1,1,0-42.959Zm0,0" transform="translate(-103.259 17.055)" fill="#aed3f2"/>
    <path id="Trazado_108329" data-name="Trazado 108329" d="M187.692,41.466H172.545a21.481,21.481,0,0,1-11.053-39.9,21.48,21.48,0,0,0,2.213,42.846h15.147a8.334,8.334,0,0,1,6.886,3.64l5.088,7.463a1.78,1.78,0,0,0,3.251-1V49.9a8.293,8.293,0,0,1,1.036-4.014l-.536-.785a8.331,8.331,0,0,0-6.886-3.64Zm0,0" transform="translate(-103.258 15.812)" fill="#6595bf"/>
    <g id="Grupo_59596" data-name="Grupo 59596" transform="translate(54.94 34.98)">
      <path id="Trazado_108330" data-name="Trazado 108330" d="M368.415,90.805a3.965,3.965,0,1,1-3.965-3.965A3.965,3.965,0,0,1,368.415,90.805Zm0,0" transform="translate(-331.406 -86.84)" fill="#f8fafd"/>
      <path id="Trazado_108331" data-name="Trazado 108331" d="M297.977,90.805a3.965,3.965,0,1,1-3.964-3.965A3.965,3.965,0,0,1,297.977,90.805Zm0,0" transform="translate(-275.507 -86.84)" fill="#f8fafd"/>
      <path id="Trazado_108332" data-name="Trazado 108332" d="M227.536,90.805a3.965,3.965,0,1,1-3.965-3.965A3.965,3.965,0,0,1,227.536,90.805Zm0,0" transform="translate(-219.605 -86.84)" fill="#f8fafd"/>
    </g>
  </g>
</svg>
