<svg xmlns="http://www.w3.org/2000/svg" width="505" height="231.636" viewBox="0 0 505 231.636">
  <g id="communication-01" transform="translate(-13.56 -66.592)">
    <path id="Trazado_113190" data-name="Trazado 113190" d="M666.8,367.233H654.674V340.186l-.562-.323H650.49v-.014H629.465v.014h-.017v4.057h.017v2.789h-.017v4.053h.017v2.8h-.017v4.053h.017v.016l-2.228-.016V336.4h-23.6v2.691h-.012v4.053h.012v3.563h-.012v4.053h.012v2.8h-.012v4.053h.012V360.2h-.012v4.053h.012v2.587h-.012v4.053h.012v2.439h-.012v2.575h.012v.279h-26.6v23.208H567.1v5.845H556.383V395.174H537.108V367.826h-3.015V365.1h-.431v2.723h-15V365.1h-.431v2.72h-3.258v13.751l-16.192-.074v8.487H485.052V337.516H444.381v56.213H431.963v-30.4H391.29V559.982L669.2,558.922Z" transform="translate(-312.582 -261.755)" fill="#dfebfa"/>
    <path id="Trazado_113191" data-name="Trazado 113191" d="M293.506,700.16v159.5H273.08V700.16Z" transform="translate(-214.76 -562.776)" fill="#dfebfa"/>
    <rect id="Rectángulo_8824" data-name="Rectángulo 8824" width="30.207" height="8.894" transform="translate(368.298 162.525)" fill="#eef6ff"/>
    <rect id="Rectángulo_8825" data-name="Rectángulo 8825" width="30.207" height="8.894" transform="translate(142.263 89.452)" fill="#eef6ff"/>
    <rect id="Rectángulo_8826" data-name="Rectángulo 8826" width="30.207" height="8.894" transform="translate(142.263 103.427)" fill="#eef6ff"/>
    <rect id="Rectángulo_8827" data-name="Rectángulo 8827" width="30.207" height="8.894" transform="translate(142.263 117.625)" fill="#eef6ff"/>
    <rect id="Rectángulo_8828" data-name="Rectángulo 8828" width="30.207" height="8.894" transform="translate(142.263 131.325)" fill="#eef6ff"/>
    <rect id="Rectángulo_8829" data-name="Rectángulo 8829" width="15.103" height="5.402" transform="translate(291.061 74.648)" fill="#eef6ff"/>
    <rect id="Rectángulo_8830" data-name="Rectángulo 8830" width="15.103" height="5.402" transform="translate(291.061 82.962)" fill="#eef6ff"/>
    <rect id="Rectángulo_8831" data-name="Rectángulo 8831" width="15.103" height="5.402" transform="translate(291.061 91.449)" fill="#eef6ff"/>
    <rect id="Rectángulo_8832" data-name="Rectángulo 8832" width="15.103" height="5.402" transform="translate(291.061 100.071)" fill="#eef6ff"/>
    <rect id="Rectángulo_8833" data-name="Rectángulo 8833" width="15.103" height="5.402" transform="translate(291.061 108.391)" fill="#eef6ff"/>
    <rect id="Rectángulo_8834" data-name="Rectángulo 8834" width="15.103" height="5.402" transform="translate(291.061 117.548)" fill="#eef6ff"/>
    <rect id="Rectángulo_8835" data-name="Rectángulo 8835" width="15.103" height="5.402" transform="translate(291.061 125.863)" fill="#eef6ff"/>
    <rect id="Rectángulo_8836" data-name="Rectángulo 8836" width="15.103" height="5.402" transform="translate(291.061 134.35)" fill="#eef6ff"/>
    <rect id="Rectángulo_8837" data-name="Rectángulo 8837" width="15.103" height="5.402" transform="translate(291.061 142.972)" fill="#eef6ff"/>
    <rect id="Rectángulo_8838" data-name="Rectángulo 8838" width="15.103" height="5.402" transform="translate(291.061 151.292)" fill="#eef6ff"/>
    <rect id="Rectángulo_8839" data-name="Rectángulo 8839" width="15.103" height="5.402" transform="translate(316.913 78.189)" fill="#eef6ff"/>
    <rect id="Rectángulo_8840" data-name="Rectángulo 8840" width="15.103" height="5.402" transform="translate(316.913 86.504)" fill="#eef6ff"/>
    <rect id="Rectángulo_8841" data-name="Rectángulo 8841" width="15.103" height="5.402" transform="translate(316.913 94.992)" fill="#eef6ff"/>
    <rect id="Rectángulo_8842" data-name="Rectángulo 8842" width="15.103" height="5.402" transform="translate(316.913 103.614)" fill="#eef6ff"/>
    <rect id="Rectángulo_8843" data-name="Rectángulo 8843" width="15.103" height="5.402" transform="translate(316.913 111.934)" fill="#eef6ff"/>
    <rect id="Rectángulo_8844" data-name="Rectángulo 8844" width="15.103" height="5.402" transform="translate(316.913 120.607)" fill="#eef6ff"/>
    <rect id="Rectángulo_8845" data-name="Rectángulo 8845" width="15.103" height="5.402" transform="translate(316.913 128.922)" fill="#eef6ff"/>
    <rect id="Rectángulo_8846" data-name="Rectángulo 8846" width="15.103" height="5.402" transform="translate(316.913 137.41)" fill="#eef6ff"/>
    <rect id="Rectángulo_8847" data-name="Rectángulo 8847" width="15.103" height="5.402" transform="translate(316.913 146.032)" fill="#eef6ff"/>
    <rect id="Rectángulo_8848" data-name="Rectángulo 8848" width="15.103" height="5.402" transform="translate(316.913 154.352)" fill="#eef6ff"/>
    <rect id="Rectángulo_8849" data-name="Rectángulo 8849" width="15.103" height="5.402" transform="translate(316.913 163.893)" fill="#eef6ff"/>
    <rect id="Rectángulo_8850" data-name="Rectángulo 8850" width="15.103" height="5.402" transform="translate(316.913 172.208)" fill="#eef6ff"/>
    <rect id="Rectángulo_8851" data-name="Rectángulo 8851" width="15.103" height="5.402" transform="translate(316.913 180.695)" fill="#eef6ff"/>
    <rect id="Rectángulo_8852" data-name="Rectángulo 8852" width="15.103" height="5.402" transform="translate(316.913 189.317)" fill="#eef6ff"/>
    <rect id="Rectángulo_8853" data-name="Rectángulo 8853" width="15.103" height="5.402" transform="translate(316.913 197.637)" fill="#eef6ff"/>
    <rect id="Rectángulo_8854" data-name="Rectángulo 8854" width="0.749" height="11.021" transform="translate(269.409 103.614)" fill="#dfebfa"/>
    <rect id="Rectángulo_8855" data-name="Rectángulo 8855" width="1.166" height="21.342" transform="translate(282.035 94.15)" fill="#dfebfa"/>
    <rect id="Rectángulo_8856" data-name="Rectángulo 8856" width="0.486" height="3.931" transform="translate(134.5 71.832)" fill="#dfebfa"/>
    <rect id="Rectángulo_8857" data-name="Rectángulo 8857" width="0.486" height="3.931" transform="translate(370.83 158.596)" fill="#dfebfa"/>
    <rect id="Rectángulo_8858" data-name="Rectángulo 8858" width="0.486" height="3.931" transform="translate(394.432 158.596)" fill="#dfebfa"/>
    <rect id="Rectángulo_8859" data-name="Rectángulo 8859" width="0.374" height="3.034" transform="translate(293.398 71.615)" fill="#dfebfa"/>
    <rect id="Rectángulo_8860" data-name="Rectángulo 8860" width="0.374" height="3.034" transform="translate(311.116 71.615)" fill="#dfebfa"/>
    <rect id="Rectángulo_8861" data-name="Rectángulo 8861" width="0.486" height="3.931" transform="translate(385.204 158.596)" fill="#dfebfa"/>
    <path id="Trazado_113192" data-name="Trazado 113192" d="M1098.741,486.391c-4.127-10.3-21.694-4.876-21.694-4.876s-10,20.048-13.506,20.907,5.212-18.812,5.212-18.812c-6.949.14-23.475,10.614-23.475,10.614s3.651,21.594.052,21.559-2.258-19.286-2.258-19.286c-6.416,2.773-11.714,11.259-11.714,11.259-6.28,13.544,11.437,20.907,11.437,20.907a35.614,35.614,0,0,1-2.539,16.7h0a26.113,26.113,0,0,0-1.613,4.558l1.813-.212c.091-.5.2-.993.328-1.466v-.029c.091-.295.224-.714.39-1.225h0c.426-1.149.707-1.994.876-2.6,1.261-3.6,3.132-8.313,4.617-9.429a3.558,3.558,0,0,1-.485-.786c.155.25.316.517.485.786,3.882,6.287,19.531,5.578,27.968,2.792s4.384-4.783-.735-8.2-14.75-1.226-17.815-2.44.968-3.26,6.783-3.491,9.372,5.195,18.786,4.991,14.458-18.548,14.458-18.548c-6.2,2.749-18.137.552-18.841-1.614s16.385-3.941,18.972-4.917S1102.87,496.695,1098.741,486.391Z" transform="translate(-841.14 -380.66)" fill="#afcdfb"/>
    <path id="Trazado_113193" data-name="Trazado 113193" d="M1683.318,1286.989c-2.985-13.748-26.087-10.666-26.087-10.666s-16.73,22.939-21.286,23.284,10.479-22.422,10.479-22.422c-8.715-1.292-31.58,8.318-31.58,8.318s.014,27.768-4.484,26.966,1.242-24.581,1.242-24.581c-8.6,2.115-17.016,11.6-17.016,11.6-10.7,15.607,9.89,28.544,9.89,28.544a36.628,36.628,0,0,1-1.428,8.18q-.173.643-.392,1.325h4.262a4.893,4.893,0,0,1,1.085-.83,7.1,7.1,0,0,0,.4.83h36.758c-.455-.426-.935-.862-1.425-1.325q-.274-.259-.557-.517c-5.68-5.347-18.177-4.64-21.75-6.8s1.9-3.872,9.213-2.932,10.619,8.469,22.422,10.2q.271.041.543.062a9.384,9.384,0,0,0,1.631,0c10.855-.957,19.805-20.195,19.805-20.195-8.324,2.13-22.787-3.134-23.208-5.988s21.316-1.473,24.752-2.149S1686.3,1300.736,1683.318,1286.989Zm-75.312,49.726a3.406,3.406,0,0,1-.236-.49,6.009,6.009,0,0,1-.2-.592c.079.193.158.39.24.592C1607.873,1336.388,1607.94,1336.547,1608.006,1336.714Z" transform="translate(-1224.185 -1039.322)" fill="#aed3f2" opacity="0.27"/>
    <path id="Trazado_113194" data-name="Trazado 113194" d="M24.673,647.929c2.606-10.019,19.5-7.063,19.5-7.063S55.8,658.24,59.13,658.623s-7.037-16.794-7.037-16.794c6.447-.69,22.972,7.059,22.972,7.059s-.838,20.412,2.489,19.962-.172-18.11-.172-18.11c6.262,1.813,12.165,9.041,12.165,9.041,7.4,11.794-8.123,20.7-8.123,20.7a33.248,33.248,0,0,0,4.312,15.155h0a24,24,0,0,1,2.03,4.027l-1.7.017q-.216-.69-.476-1.318h0v-.019c-.119-.262-.29-.635-.5-1.088h0c-.531-1.014-.89-1.763-1.118-2.3h0c-1.59-3.18-3.877-7.323-5.383-8.182a3.256,3.256,0,0,0,.357-.783l-.357.783c-2.872,6.252-17.428,7.437-25.569,5.852s-4.619-3.91-.283-7.67,13.5-2.87,16.2-4.355-1.278-2.9-6.687-2.432-8.06,5.909-16.8,6.828-15.559-15.462-15.559-15.462c6.056,1.814,16.847-1.623,17.247-3.71S31.487,664.1,28.99,663.5,22.065,657.948,24.673,647.929Z" transform="translate(-8.538 -513.372)" fill="#afcdfb" opacity="0.5"/>
    <path id="Trazado_113195" data-name="Trazado 113195" d="M485.137,865.571l-199.962,2.972a3.337,3.337,0,0,1-3.277-2.515L243.755,715.961a3.336,3.336,0,0,1,3.22-4.158l200.5-.862a3.337,3.337,0,0,1,3.249,2.515l37.6,147.951a3.336,3.336,0,0,1-3.187,4.165Z" transform="translate(-190.408 -571.697)" fill="#162b4c"/>
    <path id="Trazado_113196" data-name="Trazado 113196" d="M505.264,865.584l-197.644.843c-2.168,0-5.222,1.38-5.757-.712L266.14,717.726a4.722,4.722,0,0,1,4.557-5.886L468.341,711a4.726,4.726,0,0,1,4.6,3.56L509.823,859.7a4.726,4.726,0,0,1-4.558,5.887Z" transform="translate(-208.896 -571.746)" fill="#233862"/>
    <path id="Trazado_113197" data-name="Trazado 113197" d="M521.909,873.727l-75.321.319-31.711.135-86.183.364a2.242,2.242,0,0,1-2.171-1.678l-33.515-130.7L290.2,731.2a2.242,2.242,0,0,1,2.152-2.789l189.436-.8,3.779-.017a2.242,2.242,0,0,1,2.171,1.68l3.3,12.9,8.546,33.327,7.589,29.59,16.885,65.854a2.242,2.242,0,0,1-2.147,2.789Z" transform="translate(-228.867 -585.475)" fill="#9cc4ff"/>
    <path id="Trazado_113198" data-name="Trazado 113198" d="M491.037,742.167H293.008L290.2,731.2a2.242,2.242,0,0,1,2.152-2.789l189.436-.8,3.779-.017a2.242,2.242,0,0,1,2.171,1.68Z" transform="translate(-228.867 -585.475)" fill="#cfe3ff"/>
    <path id="Trazado_113199" data-name="Trazado 113199" d="M36.133,414.869l-22.573,3.22L28.539,407.88l.762,3.274,5.49.993Z" transform="translate(0 -320.907)" fill="#9ec3f6"/>
    <path id="Trazado_113200" data-name="Trazado 113200" d="M13.56,416.169l18.784-9.684,18.41-.924Z" transform="translate(0 -318.987)" fill="#f6f6f6"/>
    <path id="Trazado_113201" data-name="Trazado 113201" d="M28.539,380.307,13.56,390.515l11.6-15.955Z" transform="translate(0 -293.333)" fill="#fff"/>
    <path id="Trazado_113202" data-name="Trazado 113202" d="M2239.15,448.621l23.612,3.368-15.669-10.68-.8,3.424-5.743,1.04Z" transform="translate(-1841.735 -348.571)" fill="#9ec3f6"/>
    <path id="Trazado_113203" data-name="Trazado 113203" d="M2189.385,449.979l-19.648-10.131-19.257-.968Z" transform="translate(-1768.358 -346.56)" fill="#f6f6f6"/>
    <path id="Trazado_113204" data-name="Trazado 113204" d="M2285.2,412.471l15.669,10.68-12.13-16.69Z" transform="translate(-1879.843 -319.732)" fill="#fff"/>
    <circle id="Elipse_4273" data-name="Elipse 4273" cx="8.322" cy="8.322" r="8.322" transform="translate(429.475 155.145)" fill="#d5e5fb"/>
    <path id="Trazado_113205" data-name="Trazado 113205" d="M1147.25,316.182a2.672,2.672,0,1,1,2.67,2.672A2.672,2.672,0,0,1,1147.25,316.182Z" transform="translate(-712.123 -156.049)" fill="#fff"/>
    <path id="Trazado_113206" data-name="Trazado 113206" d="M1140.3,344.46a4.674,4.674,0,0,0-4.674,4.674h9.35A4.674,4.674,0,0,0,1140.3,344.46Z" transform="translate(-702.508 -181.661)" fill="#fff"/>
    <circle id="Elipse_4274" data-name="Elipse 4274" cx="5.614" cy="5.614" r="5.614" transform="translate(370.493 146.752) rotate(-88.09)" fill="#c6dcf7"/>
    <circle id="Elipse_4275" data-name="Elipse 4275" cx="1.802" cy="1.802" r="1.802" transform="translate(374.111 140.411) rotate(-76.72)" fill="#fff"/>
    <path id="Trazado_113207" data-name="Trazado 113207" d="M790.944,217.34a3.154,3.154,0,0,0-3.154,3.155H794.1A3.153,3.153,0,0,0,790.944,217.34Z" transform="translate(-414.661 -76.465)" fill="#fff"/>
    <path id="Trazado_113208" data-name="Trazado 113208" d="M1038.078,54.853a.49.49,0,1,1,.324.611.49.49,0,0,1-.324-.611Z" transform="translate(-621.763 58.284)" fill="#d5e5fb"/>
    <path id="Trazado_113209" data-name="Trazado 113209" d="M1050.615,58.729a.488.488,0,1,1,.322.611A.488.488,0,0,1,1050.615,58.729Z" transform="translate(-632.137 55.074)" fill="#d5e5fb"/>
    <path id="Trazado_113210" data-name="Trazado 113210" d="M1063.624,63.231a.49.49,0,1,1,.611-.324A.49.49,0,0,1,1063.624,63.231Z" transform="translate(-642.633 51.857)" fill="#d5e5fb"/>
    <path id="Trazado_113211" data-name="Trazado 113211" d="M1076.008,66.523a.49.49,0,1,1,.324.611A.49.49,0,0,1,1076.008,66.523Z" transform="translate(-653.151 48.627)" fill="#d5e5fb"/>
    <path id="Trazado_113212" data-name="Trazado 113212" d="M1088.545,70.4a.488.488,0,1,1,.323.611A.488.488,0,0,1,1088.545,70.4Z" transform="translate(-663.525 45.417)" fill="#d5e5fb"/>
    <path id="Trazado_113213" data-name="Trazado 113213" d="M1101.567,74.919a.488.488,0,1,1,.611-.324A.488.488,0,0,1,1101.567,74.919Z" transform="translate(-674.034 42.181)" fill="#d5e5fb"/>
    <path id="Trazado_113214" data-name="Trazado 113214" d="M1113.426,78.057a.488.488,0,1,1,.036.373A.488.488,0,0,1,1113.426,78.057Z" transform="translate(-684.115 39.08)" fill="#d5e5fb"/>
    <path id="Trazado_113215" data-name="Trazado 113215" d="M1125.965,81.909a.488.488,0,1,1,.322.611A.488.488,0,0,1,1125.965,81.909Z" transform="translate(-694.491 35.892)" fill="#d5e5fb"/>
    <path id="Trazado_113216" data-name="Trazado 113216" d="M1138.974,86.4a.488.488,0,1,1,.373-.035A.49.49,0,0,1,1138.974,86.4Z" transform="translate(-704.987 32.683)" fill="#d5e5fb"/>
    <path id="Trazado_113217" data-name="Trazado 113217" d="M1151.356,89.727a.488.488,0,1,1,.035.373A.488.488,0,0,1,1151.356,89.727Z" transform="translate(-715.503 29.423)" fill="#d5e5fb"/>
    <path id="Trazado_113218" data-name="Trazado 113218" d="M1163.9,93.579a.488.488,0,1,1,.323.611A.488.488,0,0,1,1163.9,93.579Z" transform="translate(-725.879 26.235)" fill="#d5e5fb"/>
    <path id="Trazado_113219" data-name="Trazado 113219" d="M1176.919,98.1a.488.488,0,1,1,.61-.323A.488.488,0,0,1,1176.919,98.1Z" transform="translate(-736.39 22.999)" fill="#d5e5fb"/>
    <path id="Trazado_113220" data-name="Trazado 113220" d="M1189.318,101.407a.488.488,0,1,1,.324.611A.488.488,0,0,1,1189.318,101.407Z" transform="translate(-746.918 19.758)" fill="#d5e5fb"/>
    <path id="Trazado_113221" data-name="Trazado 113221" d="M1201.895,105.259a.488.488,0,1,1,.323.611A.488.488,0,0,1,1201.895,105.259Z" transform="translate(-757.325 16.569)" fill="#d5e5fb"/>
    <path id="Trazado_113222" data-name="Trazado 113222" d="M1214.866,109.762a.49.49,0,1,1,.611-.323A.49.49,0,0,1,1214.866,109.762Z" transform="translate(-767.79 13.351)" fill="#d5e5fb"/>
    <path id="Trazado_113223" data-name="Trazado 113223" d="M1227.246,113.077a.488.488,0,1,1,.035.373A.488.488,0,0,1,1227.246,113.077Z" transform="translate(-778.304 10.1)" fill="#d5e5fb"/>
    <path id="Trazado_113224" data-name="Trazado 113224" d="M1239.785,116.929a.488.488,0,1,1,.322.611A.488.488,0,0,1,1239.785,116.929Z" transform="translate(-788.68 6.912)" fill="#d5e5fb"/>
    <path id="Trazado_113225" data-name="Trazado 113225" d="M1252.8,121.4a.49.49,0,1,1,.61-.323A.489.489,0,0,1,1252.8,121.4Z" transform="translate(-799.178 3.719)" fill="#d5e5fb"/>
    <path id="Trazado_113226" data-name="Trazado 113226" d="M1264.668,124.573a.49.49,0,1,1,.324.611A.49.49,0,0,1,1264.668,124.573Z" transform="translate(-809.272 0.589)" fill="#d5e5fb"/>
    <path id="Trazado_113227" data-name="Trazado 113227" d="M1277.2,128.449a.488.488,0,1,1,.323.611A.488.488,0,0,1,1277.2,128.449Z" transform="translate(-819.646 -2.621)" fill="#d5e5fb"/>
    <path id="Trazado_113228" data-name="Trazado 113228" d="M1290.229,132.96a.488.488,0,1,1,.61-.323A.488.488,0,0,1,1290.229,132.96Z" transform="translate(-830.157 -5.849)" fill="#d5e5fb"/>
    <path id="Trazado_113229" data-name="Trazado 113229" d="M1302.6,136.243a.488.488,0,1,1,.035.373A.49.49,0,0,1,1302.6,136.243Z" transform="translate(-840.659 -9.069)" fill="#d5e5fb"/>
    <path id="Trazado_113230" data-name="Trazado 113230" d="M1315.135,140.119a.488.488,0,1,1,.323.611A.488.488,0,0,1,1315.135,140.119Z" transform="translate(-851.035 -12.278)" fill="#d5e5fb"/>
    <path id="Trazado_113231" data-name="Trazado 113231" d="M1328.159,144.63a.488.488,0,1,1,.611-.323.488.488,0,0,1-.611.323Z" transform="translate(-861.546 -15.506)" fill="#d5e5fb"/>
    <path id="Trazado_113232" data-name="Trazado 113232" d="M1195.606,294.787a.49.49,0,1,1,.367.092A.488.488,0,0,1,1195.606,294.787Z" transform="translate(-751.978 -139.828)" fill="#d5e5fb"/>
    <path id="Trazado_113233" data-name="Trazado 113233" d="M1203.356,284.167a.49.49,0,1,1,.367.092A.488.488,0,0,1,1203.356,284.167Z" transform="translate(-758.392 -131.04)" fill="#d5e5fb"/>
    <path id="Trazado_113234" data-name="Trazado 113234" d="M1211.894,273.3a.49.49,0,1,1,.091-.367A.488.488,0,0,1,1211.894,273.3Z" transform="translate(-764.891 -122.131)" fill="#d5e5fb"/>
    <path id="Trazado_113235" data-name="Trazado 113235" d="M1219.066,262.787a.488.488,0,1,1,.367.093A.488.488,0,0,1,1219.066,262.787Z" transform="translate(-771.392 -113.347)" fill="#d5e5fb"/>
    <path id="Trazado_113236" data-name="Trazado 113236" d="M1226.806,252.157a.49.49,0,1,1,.367.092A.488.488,0,0,1,1226.806,252.157Z" transform="translate(-777.797 -104.551)" fill="#d5e5fb"/>
    <path id="Trazado_113237" data-name="Trazado 113237" d="M1235.327,241.243a.488.488,0,1,1,.093-.367A.49.49,0,0,1,1235.327,241.243Z" transform="translate(-784.279 -95.598)" fill="#d5e5fb"/>
    <path id="Trazado_113238" data-name="Trazado 113238" d="M1242.536,230.7a.486.486,0,1,1,.367.093A.488.488,0,0,1,1242.536,230.7Z" transform="translate(-790.814 -86.792)" fill="#d5e5fb"/>
    <path id="Trazado_113239" data-name="Trazado 113239" d="M1250.286,220.117a.488.488,0,1,1,.367.093A.488.488,0,0,1,1250.286,220.117Z" transform="translate(-797.228 -78.037)" fill="#d5e5fb"/>
    <path id="Trazado_113240" data-name="Trazado 113240" d="M1258.787,209.25a.488.488,0,1,1,.093-.367A.488.488,0,0,1,1258.787,209.25Z" transform="translate(-803.696 -69.124)" fill="#d5e5fb"/>
    <path id="Trazado_113241" data-name="Trazado 113241" d="M1265.986,198.677a.488.488,0,1,1,.367.093A.488.488,0,0,1,1265.986,198.677Z" transform="translate(-810.22 -60.294)" fill="#d5e5fb"/>
    <path id="Trazado_113242" data-name="Trazado 113242" d="M1273.726,188.087a.488.488,0,1,1,.367.092A.49.49,0,0,1,1273.726,188.087Z" transform="translate(-816.623 -51.528)" fill="#d5e5fb"/>
    <path id="Trazado_113243" data-name="Trazado 113243" d="M1282.267,177.25a.49.49,0,1,1,.092-.367A.488.488,0,0,1,1282.267,177.25Z" transform="translate(-823.127 -42.643)" fill="#d5e5fb"/>
    <path id="Trazado_113244" data-name="Trazado 113244" d="M1289.126,167.1a.488.488,0,1,1,.367.093A.488.488,0,0,1,1289.126,167.1Z" transform="translate(-829.369 -34.161)" fill="#d5e5fb"/>
    <path id="Trazado_113245" data-name="Trazado 113245" d="M1296.866,156.517a.49.49,0,1,1,.367.092.488.488,0,0,1-.367-.092Z" transform="translate(-835.774 -25.406)" fill="#d5e5fb"/>
    <path id="Trazado_113246" data-name="Trazado 113246" d="M1305.407,145.65a.486.486,0,1,1,.093-.367A.488.488,0,0,1,1305.407,145.65Z" transform="translate(-842.276 -16.493)" fill="#d5e5fb"/>
    <path id="Trazado_113247" data-name="Trazado 113247" d="M1312.576,135.087a.488.488,0,1,1,.367.093A.488.488,0,0,1,1312.576,135.087Z" transform="translate(-848.774 -7.672)" fill="#d5e5fb"/>
    <path id="Trazado_113248" data-name="Trazado 113248" d="M1320.326,124.507a.488.488,0,1,1,.367.093A.488.488,0,0,1,1320.326,124.507Z" transform="translate(-855.188 1.083)" fill="#d5e5fb"/>
    <path id="Trazado_113249" data-name="Trazado 113249" d="M1328.856,113.64a.488.488,0,1,1,.093-.367A.488.488,0,0,1,1328.856,113.64Z" transform="translate(-861.681 9.996)" fill="#d5e5fb"/>
    <path id="Trazado_113250" data-name="Trazado 113250" d="M1219.969,340.653a.488.488,0,1,1,.2.318A.488.488,0,0,1,1219.969,340.653Z" transform="translate(-772.295 -178.042)" fill="#d5e5fb"/>
    <path id="Trazado_113251" data-name="Trazado 113251" d="M1232.909,338.533a.488.488,0,1,1,.2.318A.488.488,0,0,1,1232.909,338.533Z" transform="translate(-783.004 -176.287)" fill="#d5e5fb"/>
    <path id="Trazado_113252" data-name="Trazado 113252" d="M1246.566,336.771a.49.49,0,1,1,.4-.562A.49.49,0,0,1,1246.566,336.771Z" transform="translate(-793.839 -174.492)" fill="#d5e5fb"/>
    <path id="Trazado_113253" data-name="Trazado 113253" d="M1259.13,334.283a.488.488,0,1,1,.561.4A.488.488,0,0,1,1259.13,334.283Z" transform="translate(-804.701 -172.77)" fill="#d5e5fb"/>
    <path id="Trazado_113254" data-name="Trazado 113254" d="M1272.069,332.113a.488.488,0,1,1,.2.318A.488.488,0,0,1,1272.069,332.113Z" transform="translate(-815.409 -170.974)" fill="#d5e5fb"/>
    <path id="Trazado_113255" data-name="Trazado 113255" d="M1285.726,330.331a.49.49,0,1,1,.4-.562A.49.49,0,0,1,1285.726,330.331Z" transform="translate(-826.245 -169.163)" fill="#d5e5fb"/>
    <path id="Trazado_113256" data-name="Trazado 113256" d="M1298.317,327.789a.49.49,0,1,1,.562.4A.49.49,0,0,1,1298.317,327.789Z" transform="translate(-837.13 -167.392)" fill="#d5e5fb"/>
    <path id="Trazado_113257" data-name="Trazado 113257" d="M1311.258,325.666a.49.49,0,1,1,.562.4A.49.49,0,0,1,1311.258,325.666Z" transform="translate(-847.839 -165.637)" fill="#d5e5fb"/>
    <path id="Trazado_113258" data-name="Trazado 113258" d="M1324.943,323.936a.488.488,0,1,1,.318-.2A.488.488,0,0,1,1324.943,323.936Z" transform="translate(-858.7 -163.874)" fill="#d5e5fb"/>
    <path id="Trazado_113259" data-name="Trazado 113259" d="M1337.477,321.369a.49.49,0,1,1,.562.4A.49.49,0,0,1,1337.477,321.369Z" transform="translate(-869.536 -162.079)" fill="#d5e5fb"/>
    <path id="Trazado_113260" data-name="Trazado 113260" d="M1350.418,319.266a.49.49,0,1,1,.563.4A.49.49,0,0,1,1350.418,319.266Z" transform="translate(-880.245 -160.341)" fill="#d5e5fb"/>
    <path id="Trazado_113261" data-name="Trazado 113261" d="M1364.1,317.516a.488.488,0,1,1,.4-.561A.488.488,0,0,1,1364.1,317.516Z" transform="translate(-891.106 -158.561)" fill="#d5e5fb"/>
    <path id="Trazado_113262" data-name="Trazado 113262" d="M1376.12,315.054a.488.488,0,1,1,.2.319A.488.488,0,0,1,1376.12,315.054Z" transform="translate(-901.514 -156.858)" fill="#d5e5fb"/>
    <path id="Trazado_113263" data-name="Trazado 113263" d="M1389.06,312.933a.488.488,0,1,1,.2.318A.488.488,0,0,1,1389.06,312.933Z" transform="translate(-912.222 -155.103)" fill="#d5e5fb"/>
    <path id="Trazado_113264" data-name="Trazado 113264" d="M1402.735,311.187a.488.488,0,1,1,.4-.561A.488.488,0,0,1,1402.735,311.187Z" transform="translate(-923.074 -153.324)" fill="#d5e5fb"/>
    <path id="Trazado_113265" data-name="Trazado 113265" d="M1415.28,308.634a.488.488,0,1,1,.562.4A.488.488,0,0,1,1415.28,308.634Z" transform="translate(-933.92 -151.546)" fill="#d5e5fb"/>
    <path id="Trazado_113266" data-name="Trazado 113266" d="M1428.22,306.514a.488.488,0,1,1,.562.4A.488.488,0,0,1,1428.22,306.514Z" transform="translate(-944.628 -149.791)" fill="#d5e5fb"/>
    <path id="Trazado_113267" data-name="Trazado 113267" d="M1441.9,304.766a.488.488,0,1,1,.4-.561A.488.488,0,0,1,1441.9,304.766Z" transform="translate(-955.488 -148.01)" fill="#d5e5fb"/>
    <path id="Trazado_113268" data-name="Trazado 113268" d="M1142.46,287.105a.488.488,0,1,1,.286-.241A.488.488,0,0,1,1142.46,287.105Z" transform="translate(-707.633 -133.409)" fill="#d5e5fb"/>
    <path id="Trazado_113269" data-name="Trazado 113269" d="M1138.451,274.6a.488.488,0,1,1,.286-.241A.49.49,0,0,1,1138.451,274.6Z" transform="translate(-704.313 -123.06)" fill="#d5e5fb"/>
    <path id="Trazado_113270" data-name="Trazado 113270" d="M1134.724,261.371a.486.486,0,1,1-.241-.286A.49.49,0,0,1,1134.724,261.371Z" transform="translate(-700.967 -112.622)" fill="#d5e5fb"/>
    <path id="Trazado_113271" data-name="Trazado 113271" d="M1130.361,249.292a.488.488,0,1,1,.286-.241A.49.49,0,0,1,1130.361,249.292Z" transform="translate(-697.618 -102.115)" fill="#d5e5fb"/>
    <path id="Trazado_113272" data-name="Trazado 113272" d="M1126.364,236.8a.49.49,0,1,1,.316-.614A.49.49,0,0,1,1126.364,236.8Z" transform="translate(-694.309 -91.782)" fill="#d5e5fb"/>
    <path id="Trazado_113273" data-name="Trazado 113273" d="M1122.644,223.545a.49.49,0,1,1-.614-.316A.49.49,0,0,1,1122.644,223.545Z" transform="translate(-690.971 -81.32)" fill="#d5e5fb"/>
    <path id="Trazado_113274" data-name="Trazado 113274" d="M1118.264,211.465a.49.49,0,1,1,.316-.614A.49.49,0,0,1,1118.264,211.465Z" transform="translate(-687.606 -70.813)" fill="#d5e5fb"/>
    <path id="Trazado_113275" data-name="Trazado 113275" d="M1114.29,198.985a.488.488,0,1,1,.317-.614A.488.488,0,0,1,1114.29,198.985Z" transform="translate(-684.322 -60.487)" fill="#d5e5fb"/>
    <path id="Trazado_113276" data-name="Trazado 113276" d="M1110.5,185.576a.49.49,0,1,1-.361-.355A.49.49,0,0,1,1110.5,185.576Z" transform="translate(-680.917 -49.875)" fill="#d5e5fb"/>
    <path id="Trazado_113277" data-name="Trazado 113277" d="M1106.2,173.675a.488.488,0,1,1,.286-.241A.488.488,0,0,1,1106.2,173.675Z" transform="translate(-677.627 -39.543)" fill="#d5e5fb"/>
    <path id="Trazado_113278" data-name="Trazado 113278" d="M1102.184,161.174a.49.49,0,1,1,.316-.614A.49.49,0,0,1,1102.184,161.174Z" transform="translate(-674.299 -29.196)" fill="#d5e5fb"/>
    <path id="Trazado_113279" data-name="Trazado 113279" d="M1098.465,147.913a.49.49,0,1,1-.614-.316A.49.49,0,0,1,1098.465,147.913Z" transform="translate(-670.961 -18.732)" fill="#d5e5fb"/>
    <path id="Trazado_113280" data-name="Trazado 113280" d="M1094.263,136.411a.49.49,0,1,1,.317-.616A.49.49,0,0,1,1094.263,136.411Z" transform="translate(-667.746 -8.703)" fill="#d5e5fb"/>
    <path id="Trazado_113281" data-name="Trazado 113281" d="M1090.143,123.927a.49.49,0,1,1,.29-.606.49.49,0,0,1-.29.606Z" transform="translate(-664.315 1.62)" fill="#d5e5fb"/>
    <path id="Trazado_113282" data-name="Trazado 113282" d="M1086.541,110.615a.49.49,0,1,1-.616-.317A.49.49,0,0,1,1086.541,110.615Z" transform="translate(-661.093 12.134)" fill="#d5e5fb"/>
    <path id="Trazado_113283" data-name="Trazado 113283" d="M1082.176,98.573a.49.49,0,1,1,.316-.616A.49.49,0,0,1,1082.176,98.573Z" transform="translate(-657.742 22.608)" fill="#d5e5fb"/>
    <path id="Trazado_113284" data-name="Trazado 113284" d="M1078.2,86.094a.488.488,0,1,1,.317-.616A.488.488,0,0,1,1078.2,86.094Z" transform="translate(-654.459 32.933)" fill="#d5e5fb"/>
    <path id="Trazado_113285" data-name="Trazado 113285" d="M1074.374,72.686a.49.49,0,1,1-.361-.354A.49.49,0,0,1,1074.374,72.686Z" transform="translate(-651.018 43.544)" fill="#d5e5fb"/>
    <path id="Trazado_113286" data-name="Trazado 113286" d="M823.8,200.4a.488.488,0,1,1,.68.124A.488.488,0,0,1,823.8,200.4Z" transform="translate(-444.385 -61.812)" fill="#d5e5fb"/>
    <path id="Trazado_113287" data-name="Trazado 113287" d="M834.586,192.948a.488.488,0,1,1,.68.124A.488.488,0,0,1,834.586,192.948Z" transform="translate(-453.314 -55.647)" fill="#d5e5fb"/>
    <path id="Trazado_113288" data-name="Trazado 113288" d="M846.2,185.516a.488.488,0,1,1,.2-.314A.488.488,0,0,1,846.2,185.516Z" transform="translate(-462.367 -49.393)" fill="#d5e5fb"/>
    <path id="Trazado_113289" data-name="Trazado 113289" d="M856.456,177.848a.488.488,0,1,1,.314.2A.488.488,0,0,1,856.456,177.848Z" transform="translate(-471.412 -43.152)" fill="#d5e5fb"/>
    <path id="Trazado_113290" data-name="Trazado 113290" d="M867.249,170.4a.488.488,0,1,1,.314.2A.488.488,0,0,1,867.249,170.4Z" transform="translate(-480.344 -36.992)" fill="#d5e5fb"/>
    <path id="Trazado_113291" data-name="Trazado 113291" d="M878.864,162.976a.488.488,0,1,1,.126-.68A.488.488,0,0,1,878.864,162.976Z" transform="translate(-489.394 -30.741)" fill="#d5e5fb"/>
    <path id="Trazado_113292" data-name="Trazado 113292" d="M889.13,155.308a.488.488,0,1,1,.314.2.49.49,0,0,1-.314-.2Z" transform="translate(-498.449 -24.496)" fill="#d5e5fb"/>
    <path id="Trazado_113293" data-name="Trazado 113293" d="M899.922,147.822a.49.49,0,1,1,.681.124.49.49,0,0,1-.681-.124Z" transform="translate(-507.381 -18.301)" fill="#d5e5fb"/>
    <path id="Trazado_113294" data-name="Trazado 113294" d="M911.528,140.41a.488.488,0,1,1,.2-.314.49.49,0,0,1-.2.314Z" transform="translate(-516.421 -12.066)" fill="#d5e5fb"/>
    <path id="Trazado_113295" data-name="Trazado 113295" d="M921.79,132.728a.488.488,0,1,1,.314.2.49.49,0,0,1-.314-.2Z" transform="translate(-525.476 -5.81)" fill="#d5e5fb"/>
    <path id="Trazado_113296" data-name="Trazado 113296" d="M932.6,125.332a.49.49,0,1,1,.319.207A.49.49,0,0,1,932.6,125.332Z" transform="translate(-534.421 0.306)" fill="#d5e5fb"/>
    <path id="Trazado_113297" data-name="Trazado 113297" d="M944.212,117.854a.49.49,0,1,1,.207-.319A.49.49,0,0,1,944.212,117.854Z" transform="translate(-543.471 6.603)" fill="#d5e5fb"/>
    <path id="Trazado_113298" data-name="Trazado 113298" d="M954.025,110.512a.49.49,0,1,1,.319.207A.49.49,0,0,1,954.025,110.512Z" transform="translate(-552.155 12.57)" fill="#d5e5fb"/>
    <path id="Trazado_113299" data-name="Trazado 113299" d="M964.816,103.058a.488.488,0,1,1,.314.2A.488.488,0,0,1,964.816,103.058Z" transform="translate(-561.082 18.739)" fill="#d5e5fb"/>
    <path id="Trazado_113300" data-name="Trazado 113300" d="M976.428,95.63a.488.488,0,1,1,.2-.314A.488.488,0,0,1,976.428,95.63Z" transform="translate(-570.13 24.989)" fill="#d5e5fb"/>
    <path id="Trazado_113301" data-name="Trazado 113301" d="M986.672,87.952a.49.49,0,1,1,.681.124A.49.49,0,0,1,986.672,87.952Z" transform="translate(-579.169 31.243)" fill="#d5e5fb"/>
    <path id="Trazado_113302" data-name="Trazado 113302" d="M997.476,80.518a.488.488,0,1,1,.314.2A.488.488,0,0,1,997.476,80.518Z" transform="translate(-588.11 37.392)" fill="#d5e5fb"/>
    <path id="Trazado_113303" data-name="Trazado 113303" d="M1009.088,73.09a.488.488,0,1,1,.2-.314A.488.488,0,0,1,1009.088,73.09Z" transform="translate(-597.157 43.642)" fill="#d5e5fb"/>
    <path id="Trazado_113304" data-name="Trazado 113304" d="M1365.28,164.66a.488.488,0,1,1-.016.69A.488.488,0,0,1,1365.28,164.66Z" transform="translate(-892.425 -32.76)" fill="#d5e5fb"/>
    <path id="Trazado_113305" data-name="Trazado 113305" d="M1374.365,174.126a.488.488,0,1,1-.014.69.488.488,0,0,1,.014-.69Z" transform="translate(-899.943 -40.592)" fill="#d5e5fb"/>
    <path id="Trazado_113306" data-name="Trazado 113306" d="M1383.54,184.419a.488.488,0,1,1,.69.016.488.488,0,0,1-.69-.016Z" transform="translate(-907.548 -48.54)" fill="#d5e5fb"/>
    <path id="Trazado_113307" data-name="Trazado 113307" d="M1392.741,193.346a.488.488,0,1,1-.014.69A.488.488,0,0,1,1392.741,193.346Z" transform="translate(-915.15 -56.497)" fill="#d5e5fb"/>
    <path id="Trazado_113308" data-name="Trazado 113308" d="M1401.815,202.768a.49.49,0,1,1-.014.69.49.49,0,0,1,.014-.69Z" transform="translate(-922.659 -64.293)" fill="#d5e5fb"/>
    <path id="Trazado_113309" data-name="Trazado 113309" d="M1410.99,213.039a.488.488,0,1,1,.69.016A.488.488,0,0,1,1410.99,213.039Z" transform="translate(-930.264 -72.223)" fill="#d5e5fb"/>
    <path id="Trazado_113310" data-name="Trazado 113310" d="M1420.217,222a.488.488,0,1,1-.015.69A.488.488,0,0,1,1420.217,222Z" transform="translate(-937.886 -80.21)" fill="#d5e5fb"/>
    <path id="Trazado_113311" data-name="Trazado 113311" d="M1429.285,231.448a.49.49,0,1,1-.014.69A.49.49,0,0,1,1429.285,231.448Z" transform="translate(-945.391 -88.026)" fill="#d5e5fb"/>
    <path id="Trazado_113312" data-name="Trazado 113312" d="M1438.47,241.749a.486.486,0,1,1,.342.151A.488.488,0,0,1,1438.47,241.749Z" transform="translate(-953.004 -95.982)" fill="#d5e5fb"/>
    <path id="Trazado_113313" data-name="Trazado 113313" d="M1447.675,250.646a.488.488,0,1,1-.014.69A.488.488,0,0,1,1447.675,250.646Z" transform="translate(-960.609 -103.915)" fill="#d5e5fb"/>
    <path id="Trazado_113314" data-name="Trazado 113314" d="M1456.747,260.12a.488.488,0,1,1-.015.69.488.488,0,0,1,.015-.69Z" transform="translate(-968.116 -111.755)" fill="#d5e5fb"/>
    <path id="Trazado_113315" data-name="Trazado 113315" d="M1465.916,270.4a.488.488,0,1,1,.69.014A.488.488,0,0,1,1465.916,270.4Z" transform="translate(-975.716 -119.694)" fill="#d5e5fb"/>
    <circle id="Elipse_4276" data-name="Elipse 4276" cx="6.916" cy="6.916" r="6.916" transform="translate(413.354 106.854)" fill="#d5e5fb"/>
    <path id="Trazado_113316" data-name="Trazado 113316" d="M1048.24,33.458a2.22,2.22,0,1,1,.648,1.573A2.221,2.221,0,0,1,1048.24,33.458Z" transform="translate(-630.19 77.537)" fill="#fff"/>
    <path id="Trazado_113317" data-name="Trazado 113317" d="M1042.474,57a3.886,3.886,0,0,0-3.884,3.886h7.77A3.886,3.886,0,0,0,1042.474,57Z" transform="translate(-622.204 56.22)" fill="#fff"/>
    <circle id="Elipse_4277" data-name="Elipse 4277" cx="10.659" cy="10.659" r="10.659" transform="translate(457.536 115.312)" fill="#c6dcf7"/>
    <circle id="Elipse_4278" data-name="Elipse 4278" cx="3.42" cy="3.42" r="3.42" transform="translate(464.775 118.275)" fill="#fff"/>
    <path id="Trazado_113318" data-name="Trazado 113318" d="M1310.277,126a5.987,5.987,0,0,0-5.987,5.987h11.973A5.986,5.986,0,0,0,1310.277,126Z" transform="translate(-842.078 -0.879)" fill="#fff"/>
    <path id="Trazado_113319" data-name="Trazado 113319" d="M1452,265.754a7.2,7.2,0,1,1,7.189,7.2A7.2,7.2,0,0,1,1452,265.754Z" transform="translate(-964.312 -110.576)" fill="#d5e5fb"/>
    <path id="Trazado_113320" data-name="Trazado 113320" d="M1479.693,277.2a1.1,1.1,0,0,0-.055-.39.848.848,0,0,0-.2-.309,1.6,1.6,0,0,0-.361-.257,4.2,4.2,0,0,0-.543-.235q-.511-.185-1-.421a3.347,3.347,0,0,1-.767-.5,2,2,0,0,1-.491-.659,2.036,2.036,0,0,1-.173-.892,2,2,0,0,1,.172-.812,1.87,1.87,0,0,1,.463-.635,2.342,2.342,0,0,1,.711-.435,3.148,3.148,0,0,1,.922-.2l.016-1.126.906.014-.015,1.14a2.82,2.82,0,0,1,.879.271,2.218,2.218,0,0,1,.666.517,2.182,2.182,0,0,1,.416.74,2.817,2.817,0,0,1,.136.952l-1.635-.024a1.381,1.381,0,0,0-.266-.949.959.959,0,0,0-.747-.323,1.218,1.218,0,0,0-.44.064.85.85,0,0,0-.305.19.794.794,0,0,0-.172.29,1.116,1.116,0,0,0-.062.362,1.047,1.047,0,0,0,.052.354.777.777,0,0,0,.191.295,1.583,1.583,0,0,0,.364.257,4.969,4.969,0,0,0,.565.252q.547.214.992.436a3.431,3.431,0,0,1,.766.507,2.121,2.121,0,0,1,.483,2.377,1.859,1.859,0,0,1-.464.63,2.28,2.28,0,0,1-.718.421,3.328,3.328,0,0,1-.928.2l-.015,1.047-.9-.014.016-1.035a3.852,3.852,0,0,1-.906-.219,2.382,2.382,0,0,1-.771-.466,2.147,2.147,0,0,1-.533-.757,2.643,2.643,0,0,1-.188-1.087l1.637.024a1.59,1.59,0,0,0,.095.624,1.043,1.043,0,0,0,.274.4,1,1,0,0,0,.4.216,1.691,1.691,0,0,0,.454.067,1.444,1.444,0,0,0,.462-.067.975.975,0,0,0,.345-.185.75.75,0,0,0,.209-.285A.932.932,0,0,0,1479.693,277.2Z" transform="translate(-983.965 -120.308)" fill="#fff"/>
    <path id="Trazado_113321" data-name="Trazado 113321" d="M2454.2,1308.1l-12.449,1.773a2.984,2.984,0,0,1-3.367-2.525l-.767-5.4a2.984,2.984,0,0,1,2.525-3.367l12.449-1.773a2.982,2.982,0,0,1,3.365,2.525l.769,5.4A2.984,2.984,0,0,1,2454.2,1308.1Z" transform="translate(-1939.844 -1056.495)" fill="#233862"/>
    <path id="Trazado_113322" data-name="Trazado 113322" d="M2447.128,1293.943l.778,5.457a2.989,2.989,0,0,0,1.757,2.313,2.94,2.94,0,0,0,.969.243h0a2.924,2.924,0,0,0,.648-.019l12.427-1.773a3,3,0,0,0,2.536-3.377l-.778-5.457a3,3,0,0,0-3.379-2.535l-4.279.609-.172-1.164a.987.987,0,0,0-1.115-.837l-.469.067-2.589.373-.647.093a.985.985,0,0,0-.837,1.114l.173,1.164-2.479.345a2.6,2.6,0,0,0-.288.057h0a2.994,2.994,0,0,0-2.07,1.8h0A2.946,2.946,0,0,0,2447.128,1293.943Zm10.073-4.453-4.448.635-.173-1.164a.37.37,0,0,1,.312-.416l1.118-.159,2.049-.293.552-.077a.342.342,0,0,1,.11,0,.367.367,0,0,1,.307.31Z" transform="translate(-1947.712 -1048.727)" fill="#2b478b"/>
    <path id="Trazado_113323" data-name="Trazado 113323" d="M2479,1265.129a4.19,4.19,0,0,1,.679,1.219c.173,2.358-.9,2.684,1.889,3.995,0,0,1.19.453,1.207-.471s-.826-.94-.671-2.242c.172-1.492.16-1.506-.821-2.287l-.648-1.073Z" transform="translate(-1974.111 -1029.592)" fill="#ffb27d"/>
    <path id="Trazado_113324" data-name="Trazado 113324" d="M2480.281,1275.26s-.629.657-.669.93c-.127.876-.421,1.256-.274,1.35.305.2.708-.45.9-1.035a2.675,2.675,0,0,0,.041-1.245Z" transform="translate(-1974.358 -1038.687)" fill="#ffb27d"/>
    <path id="Trazado_113325" data-name="Trazado 113325" d="M2327.264,1572.846l.659-4.751-2.77-2.315-.873,6.29Z" transform="translate(-1846.077 -1279.1)" fill="#ffb27d"/>
    <path id="Trazado_113326" data-name="Trazado 113326" d="M2288.23,1602.5h11.3a6.2,6.2,0,0,0-.319-3.029c-.566-1.252-1.446-2.026-1.525-2.987a3.408,3.408,0,0,1-3.234,1,12.122,12.122,0,0,1-1.961,2.54C2291.748,1600.547,2288.456,1600.364,2288.23,1602.5Z" transform="translate(-1816.244 -1304.505)" fill="#233862"/>
    <path id="Trazado_113327" data-name="Trazado 113327" d="M2301.287,1205.131c.738,5.943,1.342,11.545,1.835,16.768,2.629,27.823,2.113,44.829,2.113,44.829s.189.5,1.819.518a9.331,9.331,0,0,0,1.823-.2s5.886-18.168,5.433-28.508a15.805,15.805,0,0,0-.461-3.346c-1.41-5.29,5.226-25.526-1.988-33.053S2300.947,1202.41,2301.287,1205.131Z" transform="translate(-1827.031 -975.54)" fill="#d9a171"/>
    <path id="Trazado_113328" data-name="Trazado 113328" d="M2301.287,1205.106c.738,5.943,1.342,11.545,1.835,16.768l11.188,16.635a15.806,15.806,0,0,0-.461-3.346c-1.41-5.29,5.226-25.526-1.988-33.053S2300.947,1202.384,2301.287,1205.106Z" transform="translate(-1827.031 -975.514)" fill="#a66d58"/>
    <path id="Trazado_113329" data-name="Trazado 113329" d="M2236.178,875.982s.273-1.357.578-2.394c.136-.459-.81-3.47-1.465-3.841s-2.357,1.657-1.876,3.215c.248.8.655,3.4.655,3.4Z" transform="translate(-1770.813 -703.077)" fill="#ffb27d"/>
    <path id="Trazado_113330" data-name="Trazado 113330" d="M2249.84,891.891s.355-.786.676-.914.666-1.416.9-1.927c0,0-.228-.333-.626.1-.243.262-.787,1.035-.787,1.035Z" transform="translate(-1784.475 -718.986)" fill="#ffb27d"/>
    <path id="Trazado_113331" data-name="Trazado 113331" d="M2433.493,1568.492c.161-1.523.2-5.529.2-5.529s-4.082-1.3-3.932-.409a28.89,28.89,0,0,1,.538,6.587l1.651.987Z" transform="translate(-1933.361 -1276.17)" fill="#ffb27d"/>
    <path id="Trazado_113332" data-name="Trazado 113332" d="M2321.16,1229.116s15.771,43.232,18.875,61.984a3.159,3.159,0,0,0,2.07.331,2.306,2.306,0,0,0,1.938-1.244s2.849-22.475-2.815-30.279c-3.891-5.361,1.678-28.9-7.383-30.792S2321.16,1229.116,2321.16,1229.116Z" transform="translate(-1843.495 -999.808)" fill="#d9a171"/>
    <path id="Trazado_113333" data-name="Trazado 113333" d="M2334.117,959.58a4.806,4.806,0,0,0,.238.528,4.348,4.348,0,0,0,.458.705,6.423,6.423,0,0,1-.191-.818h0q-.036-.216-.067-.466a17.42,17.42,0,0,1-.038-3.1,17.054,17.054,0,0,0,.264,3.08c.024.131.052.262.081.391a7.339,7.339,0,0,0,.39,1.244c.029.073.062.145.1.217a31.648,31.648,0,0,1,3.6,4.031c.883,1.135,1.776,2.375,2.622,3.622q.49.721.954,1.438h0c.131.2.257.4.383.6h0c.155.248.307.49.455.733.414.671.8,1.323,1.142,1.94.08.14.157.279.229.416,1.066,1.954,1.7,3.5,1.552,4.1l.2-.135.119-.083c.437-.3,1.3-.892,2.384-1.63l.071-.219.543-1.683a3.907,3.907,0,0,1-.041,1.516c1.7-1.152,3.832-2.572,5.76-3.807h0c1.442-.923,2.76-1.74,3.727-2.27a24.371,24.371,0,0,0-.6-2.441c.562.25,1.1,1.43,1.354,2.054.064-.033.126-.06.183-.084,0,0,.1-4.819-6.19-9.367-3.3-2.382-5.636-3.513-5.143-5.843s.919-12.6-6.345-10.98a4.574,4.574,0,0,0-1.535-.654,1.38,1.38,0,0,1,.567.38,5.414,5.414,0,0,0-2.969.122,4.534,4.534,0,0,0-1.8,1.952h0l-.115.2a16.829,16.829,0,0,0-.755,1.509,25.194,25.194,0,0,0-1.147,3.173h0c-.108.373-.208.747-.3,1.128a.256.256,0,0,0-.012.055h0C2333.5,954.167,2333.266,957.4,2334.117,959.58Z" transform="translate(-1853.766 -763.41)" fill="#163560"/>
    <path id="Trazado_113334" data-name="Trazado 113334" d="M2345.309,1023.913a6.458,6.458,0,0,0,3.779,1.287,5.1,5.1,0,0,0,2.956-2.1c-.649-.233-.7-1.18-.1-5.124l-.31.016-5.229.25s-.123,1.616-.345,3.122C2345.873,1022.64,2345.618,1023.82,2345.309,1023.913Z" transform="translate(-1863.478 -825.781)" fill="#ffb27d"/>
    <path id="Trazado_113335" data-name="Trazado 113335" d="M2349.985,1018.32s-.123,1.616-.345,3.122c2.854.345,4.743-2.026,5.573-3.372Z" transform="translate(-1867.062 -825.855)" fill="#ed975d"/>
    <path id="Trazado_113336" data-name="Trazado 113336" d="M2347,962.752a15.11,15.11,0,0,0,2.5-4.091c.469-1.4.53-6.833-4.936-6.863a7.352,7.352,0,0,0-3.185.69c-1.278.612-3.208,2.058-2.023,6.983l.254,1.642Z" transform="translate(-1858.245 -771.013)" fill="#163560"/>
    <path id="Trazado_113337" data-name="Trazado 113337" d="M2295.13,1078.865s9.276,3.092,17.818,1.014c.1-.024,4.984-4.346,4.984-4.346-.119-.326-1.016-5.692-1.133-5.983-1.515-3.91-4.286-25.138-6.6-26.185a5.249,5.249,0,0,1-3.725.955c-1.665-.148-2.223-.862-2.084-1.64-1.842.863-3.258,1.68-3.258,1.68C2299.45,1046.883,2295.13,1078.865,2295.13,1078.865Z" transform="translate(-1821.954 -846.221)" fill="#fff"/>
    <path id="Trazado_113338" data-name="Trazado 113338" d="M2338.614,973.689s6.708,1.111,7.335-3.077,1.917-6.866-2.341-7.761-5.329.586-5.879,1.933S2336.884,973.287,2338.614,973.689Z" transform="translate(-1856.852 -779.934)" fill="#ffb27d"/>
    <path id="Trazado_113339" data-name="Trazado 113339" d="M2356.2,957.9s1.111,5.188,3.829,6.335,4.057.573,4.057.573a8.082,8.082,0,0,1-1.915-5.116S2357.937,955.764,2356.2,957.9Z" transform="translate(-1872.491 -775.534)" fill="#163560"/>
    <path id="Trazado_113340" data-name="Trazado 113340" d="M2340.042,958.9a6,6,0,0,0-2.033,1.909c-.5,1.018-.971,3.191-1.6,3.02,0,0-.89-3.546.95-5.2C2339.309,956.868,2340.042,958.9,2340.042,958.9Z" transform="translate(-1855.934 -776.071)" fill="#163560"/>
    <path id="Trazado_113341" data-name="Trazado 113341" d="M2237.138,904.878a4.358,4.358,0,0,1,1.207-.371,3.745,3.745,0,0,1,1.054.11s1.9,11.766,2.034,12.389,8.118,9.61,10.269,9.574c1.942-.031,4.243,1.468,4.671,1.756a45.259,45.259,0,0,0-4.772,14.326c-.743,6.166-2.564,29.094-2.564,29.094s.14,1.4-2.477.648a8.947,8.947,0,0,1-3.277-1.38s2.4-23.7,2.908-31.071c.069-.99.507-4.436,0-5.117-3.308-4.543-8.532-11.9-8.824-13.463C2236.945,919.078,2237.138,904.878,2237.138,904.878Z" transform="translate(-1773.927 -731.877)" fill="#2b478b"/>
    <path id="Trazado_113342" data-name="Trazado 113342" d="M2396.85,1602.5h11.3a6.208,6.208,0,0,0-.319-3.029c-.566-1.252-1.445-2.026-1.526-2.987a3.408,3.408,0,0,1-3.234,1,12.176,12.176,0,0,1-1.959,2.54C2400.37,1600.547,2397.078,1600.364,2396.85,1602.5Z" transform="translate(-1906.13 -1304.505)" fill="#233862"/>
    <path id="Trazado_113343" data-name="Trazado 113343" d="M2364.91,1088.808s.762,3.684,4.255,3.45a42.027,42.027,0,0,0,8.557-1.983s-.237-3.839-.617-9.219c-.371-5.217-.88-11.882-1.446-17.887-.773-8.2-1.652-15.177-2.432-15.548a27.992,27.992,0,0,0-5.874-1.82s-2.565,10.95-3,16.359C2363.939,1067.221,2364.91,1088.808,2364.91,1088.808Z" transform="translate(-1879.151 -848.802)" fill="#2b478b"/>
    <path id="Trazado_113344" data-name="Trazado 113344" d="M2345.245,1012.048a2.984,2.984,0,0,1-1.777.335c-.659-.1-.809-.881-.809-.881a2.61,2.61,0,0,1,1.189,0A5.083,5.083,0,0,1,2345.245,1012.048Z" transform="translate(-1861.286 -820.362)" fill="#fff"/>
    <path id="Trazado_113345" data-name="Trazado 113345" d="M2405.82,1120.51s.05,12.013,4.229,20.524c.66,1.347,1.133,1.885,1.457,1.839-.371-5.217-.879-11.882-1.445-17.887Z" transform="translate(-1913.553 -910.627)" fill="#233862"/>
    <path id="Trazado_113346" data-name="Trazado 113346" d="M2402.668,1052.27s3.853,1.135,5.6,3.622,7.387,16.518,8.88,21.664a82.384,82.384,0,0,1,2.159,12.742,7.842,7.842,0,0,1-4.593,0s-3.21-11.471-4.427-12.742-8.365-14.112-8.365-14.112Z" transform="translate(-1910.325 -854.156)" fill="#2b478b"/>
    <path id="Trazado_113347" data-name="Trazado 113347" d="M1002.349,696.24s-30.912-10.726-96.789,2.1c-20.379,3.967-45.878,11.992-73.367,18.8L815.94,660.3l.473-.122c8.31-2.14,36.118-9.878,68.337-21.865,29.088-10.823,61.933-24.919,86.1-52.232l23.339,81.609Z" transform="translate(-663.991 -468.372)" fill="#a66d58"/>
    <path id="Trazado_113348" data-name="Trazado 113348" d="M996.452,667.706c-10.414-2.468-41.29-7.435-94.633,2.875-20.757,4.012-46.714,12.194-74.705,19.108L818.68,660.2c8.31-2.14,36.118-9.878,68.337-21.864,29.088-10.823,61.933-24.919,86.1-52.232Z" transform="translate(-666.258 -468.388)" fill="#d9a171"/>
    <path id="Trazado_113349" data-name="Trazado 113349" d="M1743.374,672.345h0a1.775,1.775,0,0,1-2.2-1.218L1707.93,554.866a1.775,1.775,0,0,1,1.219-2.2h0a1.775,1.775,0,0,1,2.194,1.219l33.25,116.261A1.775,1.775,0,0,1,1743.374,672.345Z" transform="translate(-1402.08 -440.668)" fill="#a66d58"/>
    <path id="Trazado_113350" data-name="Trazado 113350" d="M630.1,1082.962l33.384-9.547-16.271-56.9-33.382,9.548a2.57,2.57,0,0,0-1.761,3.17l14.86,51.964A2.572,2.572,0,0,0,630.1,1082.962Z" transform="translate(-495.202 -824.572)" fill="#a66d58"/>
    <path id="Trazado_113351" data-name="Trazado 113351" d="M1027.25,1330.584l-29.643.126-14.791-31.323-5.466-11.578.01,0,27.035-8.536.488,1.1,5.022,11.273Z" transform="translate(-797.562 -1042.005)" fill="#d9a171"/>
    <path id="Trazado_113352" data-name="Trazado 113352" d="M1053.474,1389.935l-29.643.126-14.791-31.323,27.09-7.748Z" transform="translate(-823.786 -1101.355)" fill="#a66d58"/>
    <path id="Trazado_113353" data-name="Trazado 113353" d="M1917.08,625.639h0a1.928,1.928,0,0,1-.268,2.706l-28.565,23.422a1.928,1.928,0,0,1-2.706-.267h0a1.93,1.93,0,0,1,.267-2.706l28.567-23.422A1.928,1.928,0,0,1,1917.08,625.639Z" transform="translate(-1548.756 -500.529)" fill="#d9a171"/>
    <path id="Trazado_113354" data-name="Trazado 113354" d="M1973.485,949.986h0a1.928,1.928,0,0,1-2.1,1.725l-36.761-3.638a1.926,1.926,0,0,1-1.725-2.1h0a1.93,1.93,0,0,1,2.1-1.725l36.761,3.637A1.927,1.927,0,0,1,1973.485,949.986Z" transform="translate(-1588.295 -764.758)" fill="#d9a171"/>
    <path id="Trazado_113355" data-name="Trazado 113355" d="M1978.5,793.985h0a1.928,1.928,0,0,1-1.552,2.242l-51.509,9.369a1.928,1.928,0,0,1-2.242-1.552h0a1.928,1.928,0,0,1,1.552-2.242l51.509-9.364A1.928,1.928,0,0,1,1978.5,793.985Z" transform="translate(-1580.251 -639.113)" fill="#d9a171"/>
    <path id="Trazado_113356" data-name="Trazado 113356" d="M1334.64,1555.615a10.874,10.874,0,0,1,.285-2.663c.285-.664,1.33-3.372,1.33-3.372h4.084a25.219,25.219,0,0,1,.807,3.277c.048.807,0,2.76,0,2.76Z" transform="translate(-1093.229 -1265.694)" fill="#233862"/>
    <path id="Trazado_113357" data-name="Trazado 113357" d="M1453.691,1555.615a10.874,10.874,0,0,0-.285-2.663c-.285-.664-1.33-3.372-1.33-3.372h-4.083a25.223,25.223,0,0,0-.807,3.277c-.048.807,0,2.76,0,2.76Z" transform="translate(-1186.347 -1265.694)" fill="#233862"/>
    <path id="Trazado_113358" data-name="Trazado 113358" d="M1365.052,922.95a38.137,38.137,0,0,1-.714,6.445l-4.509,3.144,16.973,2.54-4.048-5.588s-1.221-5.968-.581-8.175S1365.052,922.95,1365.052,922.95Z" transform="translate(-1114.074 -745.223)" fill="#ffb27d"/>
    <path id="Trazado_113359" data-name="Trazado 113359" d="M1390,937.63s1.342,3.232,3.87,3.16,3.1-2.932,3.1-2.932Z" transform="translate(-1139.041 -759.289)" fill="#ed985f"/>
    <path id="Trazado_113360" data-name="Trazado 113360" d="M1373.139,860.793a41.492,41.492,0,0,0-1.38-5.309c-.562-1.233-1.035-6.742,5.271-7.026a7.31,7.31,0,0,0,3.75-.517s0,.807-.331,1.092a4.2,4.2,0,0,1,3.893,1.38c1.709,1.9-1.14,8.546-1,10.114Z" transform="translate(-1123.694 -685.068)" fill="#2c3a64"/>
    <path id="Trazado_113361" data-name="Trazado 113361" d="M1385.763,890.121c-1.832-.031-5.2-2.472-5.2-5.492v-4.714a1.882,1.882,0,0,1,1.709-2.006h6.99a1.882,1.882,0,0,1,1.709,2.006v4.446C1390.967,887.53,1387.864,890.159,1385.763,890.121Z" transform="translate(-1131.229 -709.869)" fill="#ffb27d"/>
    <path id="Trazado_113362" data-name="Trazado 113362" d="M1379.442,877.282s0-2.832,2.252-3.267,7.265,1.38,7.977-.69-9.705-2.03-10.229-.712S1379.442,877.282,1379.442,877.282Z" transform="translate(-1130.111 -704.719)" fill="#2c3a64"/>
    <path id="Trazado_113363" data-name="Trazado 113363" d="M1333.7,1183.2s.714,21.814-.345,34.262,0,29.769,0,29.769a8.08,8.08,0,0,0,7.12,0s4.062-24.046,4.036-29.769c-.028-6.1,4.42-33.31,4.42-33.31Z" transform="translate(-1091.773 -962.504)" fill="#2b478b"/>
    <path id="Trazado_113364" data-name="Trazado 113364" d="M1409.366,1247.055a8.074,8.074,0,0,1-7.12,0s-4.06-24.044-4.034-29.767c.01-2.575-.776-8.917-1.689-15.383-1.249-8.846-2.734-17.927-2.734-17.927l15.821-.988s-1.306,21.852-.237,34.3S1409.366,1247.055,1409.366,1247.055Z" transform="translate(-1142.177 -962.331)" fill="#2b478b"/>
    <path id="Trazado_113365" data-name="Trazado 113365" d="M1359.482,1011.593a79.189,79.189,0,0,1-12.9,1.306,62.38,62.38,0,0,1-7.92-.605c-2.566-.345-4.407-.7-4.407-.7s-1.368.119-.561-6.623a94.593,94.593,0,0,0,.285-14.527c-.016-.529,0-1.157.029-1.854.262-5.557,1.942-15.561,3.223-16.1a23.352,23.352,0,0,1,5.267-1.052c0,.065,1.954,2.92,4.27,3.239a7.981,7.981,0,0,0,4.14-3.148,45.365,45.365,0,0,1,6.5,1.254s.243,1.059,1.157,19.444C1358.936,999.513,1361.424,1011.616,1359.482,1011.593Z" transform="translate(-1092.238 -787.268)" fill="#fff"/>
    <path id="Trazado_113366" data-name="Trazado 113366" d="M1411.329,1271.631c.01-2.575-.776-8.917-1.689-15.383a30.568,30.568,0,0,1,3.255-7.589C1415.814,1256.858,1411.329,1271.631,1411.329,1271.631Z" transform="translate(-1155.294 -1016.674)" fill="#233862"/>
    <path id="Trazado_113367" data-name="Trazado 113367" d="M1261.114,998.871c-.161.133.4,1.523,1.228,3.336,1.7,3.722,4.524,9.219,4.524,9.219a16.317,16.317,0,0,1-.862,2.509,59.815,59.815,0,0,1-9.771-9.346c-2.749-3.425-3.313-5.388-3.313-5.388,10.58-21.537,18.025-22.33,18.025-22.33l-.88,14.233S1261.606,998.464,1261.114,998.871Z" transform="translate(-1025.603 -791.761)" fill="#fff"/>
    <path id="Trazado_113368" data-name="Trazado 113368" d="M1328.655,1171.834s2.565-2.375,3.608-1.045,1.235,3.418.428,3.277-2.468-.9-2.706-.517-1.3,1.106-1.623.529S1328.655,1171.834,1328.655,1171.834Z" transform="translate(-1087.956 -951.9)" fill="#ffb27d"/>
    <path id="Trazado_113369" data-name="Trazado 113369" d="M1282.763,1132.989a16.344,16.344,0,0,1-.862,2.51,59.832,59.832,0,0,1-9.771-9.346,12.2,12.2,0,0,0,6.1-2.382C1279.94,1127.492,1282.763,1132.989,1282.763,1132.989Z" transform="translate(-1041.5 -913.325)" fill="#ffb27d"/>
    <path id="Trazado_113370" data-name="Trazado 113370" d="M1485.879,1000.21s-.564,1.963-3.313,5.388a59.81,59.81,0,0,1-9.771,9.346,16.339,16.339,0,0,1-.862-2.509s2.825-5.5,4.526-9.219c.826-1.813,1.38-3.2,1.226-3.336-.381-.317-5.552-4.81-7.86-6.814l-1.1-.954-.528-14.022S1475.3,978.673,1485.879,1000.21Z" transform="translate(-1203.753 -792.771)" fill="#fff"/>
    <path id="Trazado_113371" data-name="Trazado 113371" d="M1471.372,1171.834s-2.563-2.375-3.608-1.045-1.233,3.418-.426,3.277,2.468-.9,2.706-.517,1.3,1.106,1.623.529S1471.372,1171.834,1471.372,1171.834Z" transform="translate(-1202.626 -951.9)" fill="#ffb27d"/>
    <path id="Trazado_113372" data-name="Trazado 113372" d="M1489.87,1132.989a16.344,16.344,0,0,0,.862,2.51,59.812,59.812,0,0,0,9.771-9.346,12.2,12.2,0,0,1-6.1-2.382C1492.693,1127.492,1489.87,1132.989,1489.87,1132.989Z" transform="translate(-1221.686 -913.325)" fill="#ffb27d"/>
    <path id="Trazado_113373" data-name="Trazado 113373" d="M1382.706,965.14a1.8,1.8,0,0,0-.966,1.169s3.022,3.1,5,3.156Z" transform="translate(-1132.205 -782.054)" fill="#ed7d2b"/>
    <path id="Trazado_113374" data-name="Trazado 113374" d="M1410.73,968.7l3.9-4.484a1.833,1.833,0,0,1,.8,1.4C1415.433,965.625,1412.408,968.823,1410.73,968.7Z" transform="translate(-1156.196 -781.293)" fill="#ed7d2b"/>
    <path id="Trazado_113375" data-name="Trazado 113375" d="M1396.286,988.227s-2.979,25.709-1.94,28.843a21.392,21.392,0,0,0,1.816,3.984,1.056,1.056,0,0,0,1.827,0c.792-1.38,1.825-3.36,1.825-4.367,0-1.635-2.259-28.477-2.259-28.477Z" transform="translate(-1142.455 -801.145)" fill="#f99746"/>
    <path id="Trazado_113376" data-name="Trazado 113376" d="M1400.97,980.51a19.875,19.875,0,0,1,2.9-.069.305.305,0,0,1,.233.452c-.307.552-.933,1.511-1.589,1.511C1401.589,982.408,1400.154,980.574,1400.97,980.51Z" transform="translate(-1147.919 -794.689)" fill="#ed7d2b"/>
    <path id="Trazado_113377" data-name="Trazado 113377" d="M1402.27,930.522a2,2,0,0,0,1.566.743,1.86,1.86,0,0,0,1.466-.743A9.928,9.928,0,0,0,1402.27,930.522Z" transform="translate(-1149.195 -753.305)" fill="#fff"/>
    <path id="Trazado_113378" data-name="Trazado 113378" d="M1369.105,784.978l-1.38,1-1.4-.985a1.708,1.708,0,0,1,2.782-.012Z" transform="translate(-1119.453 -632.377)" fill="#fff"/>
    <path id="Trazado_113379" data-name="Trazado 113379" d="M1358.183,770.21a4.126,4.126,0,0,0-3.376,1.753l.882.619a3.049,3.049,0,0,1,4.972-.019l.876-.628A4.119,4.119,0,0,0,1358.183,770.21Z" transform="translate(-1109.918 -620.744)" fill="#fff"/>
    <path id="Trazado_113380" data-name="Trazado 113380" d="M1340.141,743.48a8.72,8.72,0,0,0-7.136,3.71l.879.619a7.658,7.658,0,0,1,12.487-.047l.873-.63a8.724,8.724,0,0,0-7.1-3.653Z" transform="translate(-1091.876 -598.624)" fill="#fff"/>
    <path id="Trazado_113381" data-name="Trazado 113381" d="M1349.939,758.1a6.244,6.244,0,0,0-5.094,2.631l.882.618a5.174,5.174,0,0,1,8.4-.033l.873-.626a6.238,6.238,0,0,0-5.062-2.59Z" transform="translate(-1101.674 -610.723)" fill="#fff"/>
    <path id="Trazado_113382" data-name="Trazado 113382" d="M529.812,898.884s-2.058-3.656,0-4.4,2.989-.059,3.087.774a22.725,22.725,0,0,1-.785,4.115Z" transform="translate(-426.456 -723.321)" fill="#ffb27d"/>
    <path id="Trazado_113383" data-name="Trazado 113383" d="M402.36,940.46a66.429,66.429,0,0,1-10.312,1.059,57.192,57.192,0,0,1-7.934-.357c-.624-.071-1.223-.152-1.8-.238a35.666,35.666,0,0,1-9.427-2.554s5.548-11.616,10.031-11.171c5.26.517,14.172,5.245,15.057,3.92,1-1.49,1.833-14.281,1.833-14.281,2.332-1.6,3.724.086,3.724.086S408.094,939.425,402.36,940.46Z" transform="translate(-297.355 -741.514)" fill="#d9a171"/>
    <path id="Trazado_113384" data-name="Trazado 113384" d="M449.574,1026.474a66.43,66.43,0,0,1-10.312,1.059,57.173,57.173,0,0,1-7.934-.357c-1.4-4.45-2.406-8.995.407-6.254C436.707,1025.755,449.574,1026.474,449.574,1026.474Z" transform="translate(-344.568 -827.528)" fill="#a66d58"/>
    <path id="Trazado_113385" data-name="Trazado 113385" d="M370.1,1592.328s-.4,4.617.576,5.1l12.492-.026s0-1.442-2.006-1.761-5.531-1.5-6.128-4.112S370.1,1592.328,370.1,1592.328Z" transform="translate(-294.979 -1299.59)" fill="#233862"/>
    <path id="Trazado_113386" data-name="Trazado 113386" d="M347.445,1207.46c-.062,3.02-.207,6.135-.49,8.934-1.35,13.281-1.825,29.333-2.018,32.425-.336,5.371-1.4,13.951-1.4,13.951s-2.1,2-6.209,1.045a139.626,139.626,0,0,1-4.158-25.373c-.012-.214-.022-.429-.035-.643-.088-1.725-.172-3.687-.274-5.809-.624-14.208-1.3-35.316-1.3-35.316L347.238,1193S347.6,1199.933,347.445,1207.46Z" transform="translate(-263.153 -970.614)" fill="#2a4e96"/>
    <path id="Trazado_113387" data-name="Trazado 113387" d="M332.874,1231.993c-.624-14.208-1.3-35.316-1.3-35.316L347.246,1193S335.908,1226.944,332.874,1231.993Z" transform="translate(-263.162 -970.614)" fill="#233862"/>
    <path id="Trazado_113388" data-name="Trazado 113388" d="M177.869,1199.86s-2.551,3-2.78,3.831a16.679,16.679,0,0,0-.419,4.729c.219.9,1.914-2.511,2.532-2.875s-.464,1.357-.252,1.644,1.428-1,1.9-1.44.429-2.791,1-4.183S177.869,1199.86,177.869,1199.86Z" transform="translate(-133.271 -976.291)" fill="#ffb27d"/>
    <path id="Trazado_113389" data-name="Trazado 113389" d="M181.192,1565.869s-2.223,2.03-1.79,3.47,2.441,2.4,2.713,4.165,1.356,2.723,2.332,2.723H189.1s.719-1.24-1.018-1.613-2.389-2.446-2.28-4.367a33.736,33.736,0,0,0-.164-4.484l-3.687-.854Z" transform="translate(-137.192 -1278.38)" fill="#233862"/>
    <path id="Trazado_113390" data-name="Trazado 113390" d="M227.665,1193.291s-14.676,31.39-22.484,45.176-10.25,17.622-10.25,17.622-4.474-1.763-4.881-2.965c0,0,2.986-26.6,8.217-33.081,2.954-3.663,6.426-14.66,6.589-18.5s3.591-13.022,3.591-13.022Z" transform="translate(-146.05 -966.907)" fill="#2a4e96"/>
    <path id="Trazado_113391" data-name="Trazado 113391" d="M307.311,1006.249a25.437,25.437,0,0,1-14.1,3.539c-3.622-.159-10.814-1.187-11.975-4.069-.272-.678-.072-1.537.336-2.854,1.061-3.427,3.532-9.952,2.785-24.421a23.759,23.759,0,0,1,.1-3.794c.778-7.126,4.862-11.347,8.808-12.725,9.627-3.365,12.837,1.3,12.837,1.3A15.488,15.488,0,0,1,311,973.63C312.287,987.7,307.311,1006.249,307.311,1006.249Z" transform="translate(-221.409 -778.384)" fill="#d9a171"/>
    <path id="Trazado_113392" data-name="Trazado 113392" d="M368,920.3a15.281,15.281,0,0,0,9.208,1.927s.947-.24.481-1.352a13.873,13.873,0,0,0,.424-1.483,22.216,22.216,0,0,0,.548-2.415l-2.729-2.863-2.575-2.73A11.4,11.4,0,0,1,368,920.3Z" transform="translate(-293.309 -737.566)" fill="#ffb27d"/>
    <path id="Trazado_113393" data-name="Trazado 113393" d="M396.7,925.73a10.65,10.65,0,0,0,5.157,5.533c.421-1.535.69-3.141.69-3.141l-2.863-2.137Z" transform="translate(-317.059 -749.441)" fill="#ed985f"/>
    <path id="Trazado_113394" data-name="Trazado 113394" d="M401.087,876.857s-8.432,1.054-9.024-4.127-2.07-8.536,3.277-9.427,6.632.971,7.256,2.653S403.265,876.445,401.087,876.857Z" transform="translate(-312.689 -697.59)" fill="#ffb27d"/>
    <path id="Trazado_113395" data-name="Trazado 113395" d="M376.675,847.085c-.072-.09-.245-.172-.635-.2a1.588,1.588,0,0,1,.736-.172,1.965,1.965,0,0,1,1.371-1.688,1.173,1.173,0,0,0-.6.823c1.125-1.069,3.474-1.792,9.878-1.035,8.437.988,5.443,6.3,4.324,6.9s-3.812-1.269-5.864-1.185-2.547,3.02-3.256,3.4-.407-.326-1.328-.785-1.069,1.09-.836,2.109-1.106,2.3-1.106,2.3L378.11,856.1c-1.247-1.451-2.242-7.432-1.611-8.674Z" transform="translate(-299.962 -682.217)" fill="#1d2a49"/>
    <path id="Trazado_113396" data-name="Trazado 113396" d="M459.872,892.432l-14.314.128-.1-2.154,14.269-1.106Z" transform="translate(-357.409 -719.294)" fill="#2a4e96"/>
    <path id="Trazado_113397" data-name="Trazado 113397" d="M516.041,886.063l-15.583.226-.178-3.915,15.54-1.2Z" transform="translate(-402.774 -712.567)" fill="#2a4e96"/>
    <path id="Trazado_113398" data-name="Trazado 113398" d="M588.382,880.329l-13.141.017L575,875.06l13.089-1.19Z" transform="translate(-464.607 -706.526)" fill="#233862"/>
    <path id="Trazado_113399" data-name="Trazado 113399" d="M648.554,876.874h0a.735.735,0,0,0,.7-.767l-.3-6.79a.731.731,0,0,0-.766-.7h0a.735.735,0,0,0-.7.768l.309,6.788a.737.737,0,0,0,.759.7Z" transform="translate(-524.59 -702.177)" fill="#233862"/>
    <path id="Trazado_113400" data-name="Trazado 113400" d="M442.109,896.117h0a.654.654,0,0,1-.69-.623l-.072-1.768a.65.65,0,0,1,.623-.681h0a.654.654,0,0,1,.69.623l.079,1.763a.652.652,0,0,1-.629.686Z" transform="translate(-354.004 -722.393)" fill="#2a4e96"/>
    <path id="Trazado_113401" data-name="Trazado 113401" d="M283.81,1069.7c1.061-3.427,3.532-9.952,2.785-24.421a23.768,23.768,0,0,1,.1-3.794h0c3.168-.269,8.015,3.151,8.015,3.151S291.723,1062.823,283.81,1069.7Z" transform="translate(-223.639 -845.221)" fill="#a66d58"/>
    <path id="Trazado_113402" data-name="Trazado 113402" d="M218.739,963.08s-8.123,1.4-12.361,6.569-11.052,12.466-12.663,15.019-6.085,19.934-6.085,19.934.295.559,1.528.885a2.918,2.918,0,0,0,2.039-.172s5.926-10.143,8.156-15.21c.928-2.106,16.954-10.443,22.98-9.579C224.693,980.867,218.739,963.08,218.739,963.08Z" transform="translate(-144.048 -780.349)" fill="#d9a171"/>
    <path id="Trazado_113403" data-name="Trazado 113403" d="M528.52,882.974s1.747,1.069,2.792.617.954-.862.954-.862S529.108,881.85,528.52,882.974Z" transform="translate(-426.143 -713.586)" fill="#ffb27d"/>
    <path id="Trazado_113404" data-name="Trazado 113404" d="M261.958,994.028s-3.563,22.508-28.858,29.06l-2.76,5.436,4.84.819s28.8-8.343,28.41-35.714Z" transform="translate(-179.391 -805.63)" fill="#bc3f3f"/>
    <path id="Trazado_113405" data-name="Trazado 113405" d="M404.858,975.11l-1.168.114v1.69l1.72,1.789,1.635-.4v-2.346l-1.175-.849Z" transform="translate(-322.843 -790.304)" fill="#a02e2e"/>
    <path id="Trazado_113406" data-name="Trazado 113406" d="M366.073,949.16s-1.13.254-3.713,2.4c0,0,2.57,5.455,7.991,6.107a18.158,18.158,0,0,1,.305-4.032S366.358,952.1,366.073,949.16Z" transform="translate(-288.641 -768.83)" fill="#a66d58"/>
    <path id="Trazado_113407" data-name="Trazado 113407" d="M410.46,967.911s2.646,1.4,2.841,3.593a4.407,4.407,0,0,0,.717-2.713,9.074,9.074,0,0,0-1.2-2.38S412.909,967.747,410.46,967.911Z" transform="translate(-328.445 -783.105)" fill="#ed7d2b"/>
    <path id="Trazado_113408" data-name="Trazado 113408" d="M665.453,670.4a20,20,0,0,1-5.937,6.9l-14.3.066S667.455,666.751,665.453,670.4Z" transform="translate(-522.716 -537.518)" fill="#233862"/>
    <path id="Trazado_113409" data-name="Trazado 113409" d="M701.82,830.255a1.316,1.316,0,0,0-.207,1.411h0a8.77,8.77,0,0,0,2.822,2.975c.173.131.321.25.452.361.034.029.069.059.1.088l.079.067c1.235,1.1.783,1.361,3.01,3.589,2.539,2.537,4.252,2.551,4.734,2.306.407-.21-.457-1.566-1.416-3.091l-.138-.222c-.128-.2-.255-.407-.381-.61-1.125-1.835-.862-2.713-.659-5.48.164-2.251,3.244-12.613,3.244-12.613l-4.783-.726s-1.273,8.227-2.829,9.522c-.833.69-1.78.716-2.587,1.231l-.172.11A6.253,6.253,0,0,0,701.82,830.255Z" transform="translate(-569.285 -660.548)" fill="#ffb27d"/>
    <path id="Trazado_113410" data-name="Trazado 113410" d="M701.82,881.852a1.316,1.316,0,0,0-.207,1.411h0a10.185,10.185,0,0,0,2.827,2.965c.172.133.314.257.447.371.034.029.069.059.1.088l.079.067c1.235,1.1.783,1.361,3.01,3.589,2.539,2.537,4.252,2.551,4.734,2.306.407-.21-.457-1.566-1.416-3.091a10.594,10.594,0,0,1-4.5-3.179c-1.535-1.882-2.587-4.312-3.631-5.719l-.172.11A6.259,6.259,0,0,0,701.82,881.852Z" transform="translate(-569.285 -712.145)" fill="#233862"/>
    <path id="Trazado_113411" data-name="Trazado 113411" d="M906.636,816.531c.324,1.464,2.415,1.178,4.747.559s1.788.074,5.115-.362,4.312-1.7,4.405-2.2c.083-.442-1.568-.564-3.339-.733l-.671-.067c-2-.21-3.486-1.47-5.319-2.49-1.737-.968-4.379-5-4.379-5l-4.565.454s2.471,3.6,3.431,5.162a5.6,5.6,0,0,1,.517,3.1A5.882,5.882,0,0,0,906.636,816.531Z" transform="translate(-735.729 -650.56)" fill="#ffb27d"/>
    <path id="Trazado_113412" data-name="Trazado 113412" d="M930.173,853.361c2.332-.617,1.789.074,5.116-.362s4.312-1.7,4.4-2.2c.083-.442-1.568-.564-3.339-.733l-.016.034a9.394,9.394,0,0,1-4.746,1.578c-2.261.1-4.67-.5-6.231-.445a5.878,5.878,0,0,0,.066,1.564C925.751,854.266,927.843,853.98,930.173,853.361Z" transform="translate(-754.52 -686.831)" fill="#233862"/>
    <path id="Trazado_113413" data-name="Trazado 113413" d="M747.988,663.794l-4.048,11.587-5.285,15.131a9.023,9.023,0,0,1-2.97-.214,12.827,12.827,0,0,1-2.9-1.338s1.232-16.157,3.939-25.473a16.409,16.409,0,0,1,2.382-5.429C743.489,652.673,747.988,663.794,747.988,663.794Z" transform="translate(-595.182 -526.717)" fill="#233862"/>
    <path id="Trazado_113414" data-name="Trazado 113414" d="M596.411,585.552c-2.818-.849-10.783.469-18.775,2.2l-1.735-2.737L558.543,584s-5.469,12.794-2.178,20.814a2.756,2.756,0,0,0,2.9,1.806l.959-.05s9.686-.053,13.036-.119c8.624-.172,18.124-6.285,19.364-6.554,2.03-.448,2.932,3.612,5.047,7.849S617.191,626.3,617.191,626.3a15.1,15.1,0,0,0,3.708-.454,3.684,3.684,0,0,0,1.576-1.035S602.769,587.458,596.411,585.552Z" transform="translate(-448.314 -466.651)" fill="#2b478b"/>
    <path id="Trazado_113415" data-name="Trazado 113415" d="M525.612,290.62a6.143,6.143,0,0,0-3.349-.8,10.042,10.042,0,0,1-1.657-.076c-6.585-.754-10.348,8.869-10.521,11.764-.324,5.338-3.127,6.209-7.03,9.622-7.83,6.844-5.341,14.576-.931,17.378,2.644,1.683,7.213-.141,7.213-.141.066.043,12.447-7.244,18.551-10.768C537.111,316.106,529.374,292.752,525.612,290.62Z" transform="translate(-400.871 -223.115)" fill="#233862"/>
    <path id="Trazado_113416" data-name="Trazado 113416" d="M600.168,389.27c.028.017-3.017,1.123-5.083.255-1.944-.812-3.467-3.955-3.437-3.956.876-.059,1.823-.843,2.465-5.888l.376.128,6.321,2.134s-.414,2.023-.671,3.946C599.923,387.5,599.815,389.049,600.168,389.27Z" transform="translate(-478.383 -297.57)" fill="#ffb27d"/>
    <path id="Trazado_113417" data-name="Trazado 113417" d="M614.441,382.554s-.414,2.023-.671,3.946c-3.622-.576-5.1-4.139-5.65-6.08Z" transform="translate(-492.014 -298.183)" fill="#ed975d"/>
    <path id="Trazado_113418" data-name="Trazado 113418" d="M612.246,332.07s-8.61-.983-7.917-6.337.052-9.084,5.579-8.684,6.328,2.587,6.53,4.426S614.5,332.194,612.246,332.07Z" transform="translate(-488.844 -245.717)" fill="#ffb27d"/>
    <path id="Trazado_113419" data-name="Trazado 113419" d="M603.9,316.2s-5.4,4.845-9.141,5.3-5.174-.717-5.174-.717a14.594,14.594,0,0,0,3.436-4.853,2.628,2.628,0,0,1,2.137-1.592C597.828,314.056,602.886,313.851,603.9,316.2Z" transform="translate(-476.672 -243.361)" fill="#233862"/>
    <path id="Trazado_113420" data-name="Trazado 113420" d="M652.61,318.751a13.758,13.758,0,0,1,2.482,3.049,10.408,10.408,0,0,1,.39,5.519s2.76-5.63,1.08-8.3C654.783,316.188,652.61,318.751,652.61,318.751Z" transform="translate(-528.831 -246.269)" fill="#233862"/>
    <path id="Trazado_113421" data-name="Trazado 113421" d="M573.748,429.018c.084,17.389.2,13.753-1.668,15.44a7.332,7.332,0,0,1-3.427.814c-5.324.459-14.712-.235-15.088-1.207-1.3-3.384-.448-4.46-1.578-9.658-.117-.554-.262-1.152-.429-1.8-.926-3.567-1.783-4.771,1.137-10.588,2.649-5.271,5.424-9.56,5.692-9.414,7.346,4.167,7.86.533,7.86.533S573.708,420.536,573.748,429.018Z" transform="translate(-444.482 -324.811)" fill="#9cc4ff"/>
    <path id="Trazado_113422" data-name="Trazado 113422" d="M743.94,708.494l-5.285,15.131a9.021,9.021,0,0,1-2.97-.214,12.824,12.824,0,0,1-2.9-1.338s1.232-16.157,3.939-25.473Z" transform="translate(-595.182 -559.83)" fill="#2b478b"/>
    <path id="Trazado_113423" data-name="Trazado 113423" d="M640.88,415.67s7.5,1.119,8.436,4.312l6.476,22.013s-3.784.757-5.573-.962-6.426-16.156-6.426-16.156Z" transform="translate(-519.124 -327.353)" fill="#9cc4ff"/>
    <path id="Trazado_113424" data-name="Trazado 113424" d="M574.916,514.886c-5.324.459-14.712-.235-15.088-1.207-1.3-3.384-.448-4.46-1.578-9.659l2.428-7.29s-.266,8.07,2.152,10.143,9.815,3.9,11.007,5.65A6.425,6.425,0,0,1,574.916,514.886Z" transform="translate(-450.745 -394.432)" fill="#7da6ef"/>
    <path id="Trazado_113425" data-name="Trazado 113425" d="M619.08,578.657s5.236-1.275,6.093-.826a12.322,12.322,0,0,1,3.236,2.7c.271.586-1.9-.412-2.6-.585a6.189,6.189,0,0,0-2.225.533,7.43,7.43,0,0,1-3.994.481Z" transform="translate(-501.084 -461.467)" fill="#ffb27d"/>
    <path id="Trazado_113426" data-name="Trazado 113426" d="M516.188,412.57s-7.052.574-9.429,4.041c-3.346,4.867-9.769,25.455-5.8,28.113,4.465,2.986,20.067.409,20.067.409s.473-2.444-.276-3.608-12.558-2.832-13.108-3.365,6.583-10.728,6.554-12.358S516.188,412.57,516.188,412.57Z" transform="translate(-402.297 -324.788)" fill="#9cc4ff"/>
    <path id="Trazado_113427" data-name="Trazado 113427" d="M656.05,586.75a10.114,10.114,0,0,0,1.5,1.563,1.082,1.082,0,0,0,.6.116l-.769-1.321Z" transform="translate(-531.678 -468.926)" fill="#ffb27d"/>
    <path id="Trazado_113428" data-name="Trazado 113428" d="M654.41,578.29l3.234,1.5a.569.569,0,0,1-.517.216,7.628,7.628,0,0,1-1.4-.355Z" transform="translate(-530.32 -461.925)" fill="#ffb27d"/>
    <path id="Trazado_113429" data-name="Trazado 113429" d="M664.97,514.357l25.341-.5,7.249-19.107-25.3.5Z" transform="translate(-539.059 -392.794)" fill="#a66d58"/>
    <path id="Trazado_113430" data-name="Trazado 113430" d="M652.975,601.22l-33.465.661.016.738,33.167-.655Z" transform="translate(-501.44 -480.901)" fill="#ed7d2b"/>
    <path id="Trazado_113431" data-name="Trazado 113431" d="M761.948,545.6a.879.879,0,0,0-.883-1.19,1.725,1.725,0,0,0-1.53,1.237.88.88,0,0,0,.885,1.19A1.725,1.725,0,0,0,761.948,545.6Z" transform="translate(-617.281 -433.887)" fill="#fff"/>
    <path id="Trazado_113432" data-name="Trazado 113432" d="M477.277,1579.08h293.86a3.717,3.717,0,0,1,3.718,3.717v.812a3.718,3.718,0,0,1-3.722,3.717L477.184,1587a3.717,3.717,0,0,1-3.651-4.393l.09-.483A3.717,3.717,0,0,1,477.277,1579.08Z" transform="translate(-380.588 -1290.106)" fill="#233862"/>
  </g>
</svg>
