<svg xmlns="http://www.w3.org/2000/svg" width="389.421" height="423.934" viewBox="0 0 389.421 423.934">
  <g id="Grupo_59812" data-name="Grupo 59812" transform="translate(-978.257 -3258.066)">
    <g id="Window_Shopping-amico" data-name="Window Shopping-amico" transform="translate(890.087 3229.796)">
      <g id="freepik--Shadow--inject-265" transform="translate(345.518 395.244)">
        <ellipse id="freepik--shadow--inject-265-2" data-name="freepik--shadow--inject-265" cx="43.201" cy="24.52" rx="43.201" ry="24.52" fill="#e0e0e0"/>
      </g>
      <g id="freepik--Clouds--inject-265" transform="translate(386.236 80.078)">
        <path id="Trazado_108666" data-name="Trazado 108666" d="M405.645,80.673l8.029,4.63a8.828,8.828,0,0,1-.065-1.079v-2.3c0-4.144,2.9-5.817,6.475-3.756a12.638,12.638,0,0,1,3.864,3.723c.594-5.2,4.673-7.144,9.627-4.317,5.4,3.087,9.713,10.619,9.713,16.8v3.486a9.27,9.27,0,0,1-.82,4.025l6.659,3.853a7.965,7.965,0,0,1,3.6,6.227c0,2.3-1.619,3.238-3.6,2.083L405.634,88.939a7.943,7.943,0,0,1-3.594-6.227C402.051,80.457,403.659,79.529,405.645,80.673Z" transform="translate(-361.375 -76.276)" fill="#ebebeb"/>
        <path id="Trazado_108667" data-name="Trazado 108667" d="M367.069,98.417l6.065,3.5a6.765,6.765,0,0,1-.054-.8v-1.8c0-3.119,2.158-4.392,4.9-2.828a9.573,9.573,0,0,1,2.914,2.806c.442-3.928,3.518-5.4,7.263-3.238a16.188,16.188,0,0,1,7.328,12.691v2.622a7.068,7.068,0,0,1-.615,3.043l5.029,2.9a5.99,5.99,0,0,1,2.709,4.705c0,1.727-1.209,2.428-2.709,1.565l-32.83-18.875A5.99,5.99,0,0,1,364.36,100C364.36,98.233,365.569,97.553,367.069,98.417Z" transform="translate(-364.36 -74.788)" fill="#ebebeb"/>
      </g>
      <g id="freepik--window-shopping--inject-265" transform="translate(88.17 28.27)">
        <path id="Trazado_108676" data-name="Trazado 108676" d="M88.17,159.534,315.537,28.27V320.929L88.17,452.2Z" transform="translate(-88.17 -28.27)" fill="#37474f"/>
        <path id="Trazado_108677" data-name="Trazado 108677" d="M251.072,98.06V278.816L101.98,364.894V184.127Z" transform="translate(-87.076 -22.742)" fill="#d9a171"/>
        <path id="Trazado_108678" data-name="Trazado 108678" d="M251.072,98.06V278.816L101.98,364.894V184.127Z" transform="translate(-87.076 -22.742)" fill="#fff" opacity="0.7"/>
        <path id="Trazado_108679" data-name="Trazado 108679" d="M288.586,72.14V308.853L240.13,280.869V100.113Z" transform="translate(-76.134 -24.795)" fill="#d9a171"/>
        <path id="Trazado_108680" data-name="Trazado 108680" d="M288.586,72.14V308.853L240.13,280.869V100.113Z" transform="translate(-76.134 -24.795)" fill="#fff" opacity="0.6"/>
        <path id="Trazado_108681" data-name="Trazado 108681" d="M299.529,293.534,101.98,407.584V351.628L251.072,265.55Z" transform="translate(-87.076 -9.476)" fill="#d9a171"/>
        <path id="Trazado_108682" data-name="Trazado 108682" d="M299.529,293.534,101.98,407.584V351.628L251.072,265.55Z" transform="translate(-87.076 -9.476)" fill="#fff" opacity="0.8"/>
        <path id="Trazado_108683" data-name="Trazado 108683" d="M156.336,338.836c-7.209-4.155-18.983-4.1-26.3.13-3.691,2.158-5.526,4.91-5.526,7.684v2.774c0,2.741,1.738,5.461,5.331,7.554,7.209,4.155,18.983,4.1,26.3-.119,3.712-2.158,5.547-4.943,5.526-7.727v-2.838C161.624,343.574,159.865,340.887,156.336,338.836Z" transform="translate(-85.292 -3.915)" fill="#d9a171"/>
        <path id="Trazado_108684" data-name="Trazado 108684" d="M156.336,338.836c-7.209-4.155-18.983-4.1-26.3.13-3.691,2.158-5.526,4.91-5.526,7.684v2.774c0,2.741,1.738,5.461,5.331,7.554,7.209,4.155,18.983,4.1,26.3-.119,3.712-2.158,5.547-4.943,5.526-7.727v-2.838C161.624,343.574,159.865,340.887,156.336,338.836Z" transform="translate(-85.292 -3.915)" opacity="0.5"/>
        <path id="Trazado_108685" data-name="Trazado 108685" d="M129.812,354.139c7.209,4.155,18.983,4.1,26.3-.119s7.414-11.029.205-15.184-18.983-4.1-26.3.13S122.6,349.984,129.812,354.139Z" transform="translate(-85.295 -3.915)" fill="#d9a171"/>
        <path id="Trazado_108686" data-name="Trazado 108686" d="M129.812,354.139c7.209,4.155,18.983,4.1,26.3-.119s7.414-11.029.205-15.184-18.983-4.1-26.3.13S122.6,349.984,129.812,354.139Z" transform="translate(-85.295 -3.915)" opacity="0.3"/>
        <path id="Trazado_108687" data-name="Trazado 108687" d="M145.013,352.226a1.435,1.435,0,0,1-.863,1.284,4.759,4.759,0,0,1-4.317,0,1.673,1.673,0,0,1-.993-1.273h0V258l6.1.076Z" transform="translate(-84.157 -10.074)" fill="#d9a171"/>
        <path id="Trazado_108688" data-name="Trazado 108688" d="M145.013,352.226a1.435,1.435,0,0,1-.863,1.284,4.759,4.759,0,0,1-4.317,0,1.673,1.673,0,0,1-.993-1.273h0V258l6.1.076Z" transform="translate(-84.157 -10.074)" opacity="0.5"/>
        <path id="Trazado_108689" data-name="Trazado 108689" d="M141.581,354.049a3.939,3.939,0,0,1-1.748-.5,1.673,1.673,0,0,1-.993-1.273h0V258h2.741Z" transform="translate(-84.157 -10.074)" opacity="0.3"/>
        <path id="Trazado_108690" data-name="Trazado 108690" d="M144.063,259.461a4.792,4.792,0,0,1-4.317,0c-1.2-.691-1.22-1.8,0-2.493a4.792,4.792,0,0,1,4.317,0A1.322,1.322,0,0,1,144.063,259.461Z" transform="translate(-84.157 -10.196)" fill="#263238"/>
        <path id="Trazado_108691" data-name="Trazado 108691" d="M167.351,262.021a141.484,141.484,0,0,0-8.256-35.074l1.079-11.472c5.687-4.608,3.238-10.943,1.619-13.4s-3.4-5.094-5.223-7.706a11.2,11.2,0,0,0-1.4-6.475c-3.551-5.968-9.993-2.849-12.044-1.673l-11.213,6.389c-.561.324-3.238,1.813-3.723,2.158a56.3,56.3,0,0,0-7,5.4h0c-1.079.9-1.673,2.633-1.673,4.975,0,4.522,2.385,9.562,5.32,11.256.151.086.291.151.432.216h0c2.817,1.532,4.058,3.13,5.633,6.713,1.284,2.925,3.162,6.572,2.925,7.641s-5.644,8-8.493,14.8a72.7,72.7,0,0,0-4.446,15.584c-.637,3.853,1.6,7.846,6.723,10.792,9.087,5.245,23.84,5.245,32.937,0C165.365,269.381,167.653,265.668,167.351,262.021Z" transform="translate(-85.688 -15.908)" fill="#d9a171"/>
        <path id="Trazado_108692" data-name="Trazado 108692" d="M167.351,262.021a141.484,141.484,0,0,0-8.256-35.074l1.079-11.472c5.687-4.608,3.238-10.943,1.619-13.4s-3.4-5.094-5.223-7.706a11.2,11.2,0,0,0-1.4-6.475c-3.551-5.968-9.993-2.849-12.044-1.673l-11.213,6.389c-.561.324-3.238,1.813-3.723,2.158a56.3,56.3,0,0,0-7,5.4h0c-1.079.9-1.673,2.633-1.673,4.975,0,4.522,2.385,9.562,5.32,11.256.151.086.291.151.432.216h0c2.817,1.532,4.058,3.13,5.633,6.713,1.284,2.925,3.162,6.572,2.925,7.641s-5.644,8-8.493,14.8a72.7,72.7,0,0,0-4.446,15.584c-.637,3.853,1.6,7.846,6.723,10.792,9.087,5.245,23.84,5.245,32.937,0C165.365,269.381,167.653,265.668,167.351,262.021Z" transform="translate(-85.688 -15.908)" opacity="0.05"/>
        <path id="Trazado_108693" data-name="Trazado 108693" d="M124.85,215.313c-2.935-1.694-5.32-6.734-5.32-11.256,0-2.547.755-4.382,1.943-5.2a3.011,3.011,0,0,1,3.378.086c2.935,1.694,5.321,6.723,5.321,11.256a7.112,7.112,0,0,1-1.381,4.705,2.946,2.946,0,0,1-3.939.41Z" transform="translate(-85.686 -14.796)" opacity="0.1"/>
        <path id="Trazado_108694" data-name="Trazado 108694" d="M153.058,188.31l-2.428,1.565s2.158,2.493,3.432,4.177v-1.468a10.921,10.921,0,0,0-1-4.274Z" transform="translate(-83.223 -15.594)" opacity="0.05"/>
        <path id="Trazado_108695" data-name="Trazado 108695" d="M132.81,186.06v6.475a7.317,7.317,0,0,0,1.791,4.77c2.417,2.31,8.785,5.191,11.235,3.788,1.219-.7,0-5.2-.313-8.267a65.855,65.855,0,0,1-.237-6.767Z" transform="translate(-84.634 -15.772)" fill="#d9a171"/>
        <path id="Trazado_108696" data-name="Trazado 108696" d="M132.81,186.06v6.475a7.317,7.317,0,0,0,1.791,4.77c2.417,2.31,8.785,5.191,11.235,3.788,1.219-.7,0-5.2-.313-8.267a65.855,65.855,0,0,1-.237-6.767Z" transform="translate(-84.634 -15.772)" opacity="0.1"/>
        <path id="Trazado_108697" data-name="Trazado 108697" d="M134.6,197.3a16.706,16.706,0,0,0,4.436,2.8V186.07H132.81v6.475A7.317,7.317,0,0,0,134.6,197.3Z" transform="translate(-84.634 -15.771)" opacity="0.05"/>
        <path id="Trazado_108698" data-name="Trazado 108698" d="M143.464,188.873a9.713,9.713,0,0,1-8.839,0c-1.381-.788-1.986-1.867-1.813-2.892a3.335,3.335,0,0,1,1.813-2.212,9.713,9.713,0,0,1,8.839,0,3.238,3.238,0,0,1,1.824,2.385A3.022,3.022,0,0,1,143.464,188.873Z" transform="translate(-84.636 -16.038)" fill="#d9a171"/>
        <path id="Trazado_108699" data-name="Trazado 108699" d="M144.153,172.278a1.986,1.986,0,0,0-2.029.076c-1.662.96-2.968,3.615-3.076,6.162h0A3.162,3.162,0,0,0,137.742,176a2.051,2.051,0,0,0-2.094.119,7.123,7.123,0,0,0-2.828,5.4,2.374,2.374,0,0,0,.928,2.158,1.2,1.2,0,0,0,.637.173,1.672,1.672,0,0,0,.831-.248,4.252,4.252,0,0,0,1.673-3.464,1.64,1.64,0,0,0-.658-1.5,1.014,1.014,0,0,0-1.079,0,2.86,2.86,0,0,0-1.133,2.331,1.2,1.2,0,0,0,.475,1.079.788.788,0,0,0,.809,0,.345.345,0,0,0,.119-.475.335.335,0,0,0-.464-.119h-.119a.881.881,0,0,1-.13-.475,2.277,2.277,0,0,1,.777-1.738.378.378,0,0,1,.378,0c.14.086.313.367.313.907a3.648,3.648,0,0,1-1.327,2.871.766.766,0,0,1-.777.076,1.824,1.824,0,0,1-.583-1.576,6.475,6.475,0,0,1,2.482-4.846,1.4,1.4,0,0,1,1.4-.108,3.011,3.011,0,0,1,1,2.644h0v7.554a.335.335,0,0,0,.205.313,1.079,1.079,0,0,0,.96,0,.335.335,0,0,0,.194-.281h0V178.9h0c0-2.374,1.23-5.083,2.752-5.957a1.306,1.306,0,0,1,1.338-.076,2.051,2.051,0,0,1,.8,1.856,4.63,4.63,0,0,1-1.705,3.669.55.55,0,0,1-.55,0c-.205-.119-.432-.5-.432-1.2a2.871,2.871,0,0,1,1.025-2.245.248.248,0,0,1,.237,0c.108.054.205.281.205.658a1.694,1.694,0,0,1-.594,1.327.345.345,0,0,0-.119.475.335.335,0,0,0,.464.119,2.309,2.309,0,0,0,.939-1.921,1.414,1.414,0,0,0-.55-1.263.907.907,0,0,0-.917,0,3.475,3.475,0,0,0-1.381,2.838,2,2,0,0,0,.777,1.8,1.079,1.079,0,0,0,.54.14,1.371,1.371,0,0,0,.7-.205,5.223,5.223,0,0,0,2.05-4.263A2.709,2.709,0,0,0,144.153,172.278Z" transform="translate(-84.634 -16.883)" fill="#d9a171"/>
        <path id="Trazado_108700" data-name="Trazado 108700" d="M144.153,172.278a1.986,1.986,0,0,0-2.029.076c-1.662.96-2.968,3.615-3.076,6.162h0A3.162,3.162,0,0,0,137.742,176a2.051,2.051,0,0,0-2.094.119,7.123,7.123,0,0,0-2.828,5.4,2.374,2.374,0,0,0,.928,2.158,1.2,1.2,0,0,0,.637.173,1.672,1.672,0,0,0,.831-.248,4.252,4.252,0,0,0,1.673-3.464,1.64,1.64,0,0,0-.658-1.5,1.014,1.014,0,0,0-1.079,0,2.86,2.86,0,0,0-1.133,2.331,1.2,1.2,0,0,0,.475,1.079.788.788,0,0,0,.809,0,.345.345,0,0,0,.119-.475.335.335,0,0,0-.464-.119h-.119a.881.881,0,0,1-.13-.475,2.277,2.277,0,0,1,.777-1.738.378.378,0,0,1,.378,0c.14.086.313.367.313.907a3.648,3.648,0,0,1-1.327,2.871.766.766,0,0,1-.777.076,1.824,1.824,0,0,1-.583-1.576,6.475,6.475,0,0,1,2.482-4.846,1.4,1.4,0,0,1,1.4-.108,3.011,3.011,0,0,1,1,2.644h0v7.554a.335.335,0,0,0,.205.313,1.079,1.079,0,0,0,.96,0,.335.335,0,0,0,.194-.281h0V178.9h0c0-2.374,1.23-5.083,2.752-5.957a1.306,1.306,0,0,1,1.338-.076,2.051,2.051,0,0,1,.8,1.856,4.63,4.63,0,0,1-1.705,3.669.55.55,0,0,1-.55,0c-.205-.119-.432-.5-.432-1.2a2.871,2.871,0,0,1,1.025-2.245.248.248,0,0,1,.237,0c.108.054.205.281.205.658a1.694,1.694,0,0,1-.594,1.327.345.345,0,0,0-.119.475.335.335,0,0,0,.464.119,2.309,2.309,0,0,0,.939-1.921,1.414,1.414,0,0,0-.55-1.263.907.907,0,0,0-.917,0,3.475,3.475,0,0,0-1.381,2.838,2,2,0,0,0,.777,1.8,1.079,1.079,0,0,0,.54.14,1.371,1.371,0,0,0,.7-.205,5.223,5.223,0,0,0,2.05-4.263A2.709,2.709,0,0,0,144.153,172.278Z" transform="translate(-84.634 -16.883)" opacity="0.6"/>
        <path id="Trazado_108701" data-name="Trazado 108701" d="M159.893,225.664l1.079-11.472c5.687-4.608,3.238-10.943,1.619-13.4,0,0-5.31-2.158-7.986,6.162,0,0-6.626-3.723-12.443.809s-6.831,11-11.148,12.724h0c.237.475.475.971.723,1.532,1.284,2.925,3.162,6.572,2.925,7.641,0,0-15.918,11.289-25.221,41.409,0,0,4.727,18.206,36.553,18.206s38.441-18.206,38.441-18.206C176.027,239.888,159.893,225.664,159.893,225.664Z" transform="translate(-86.485 -14.625)" fill="#6595bf"/>
        <path id="Trazado_108703" data-name="Trazado 108703" d="M158.135,224.163l.421-4.673s-1.532,4.943-12.109,5.785a56.725,56.725,0,0,1-14.817-1.025c.777,1.77,1.392,3.324,1.252,3.961,0,0,2.266,1.781,12.281,1.619C155.567,229.656,158.135,224.163,158.135,224.163Z" transform="translate(-84.728 -13.124)" opacity="0.2"/>
        <path id="Trazado_108704" data-name="Trazado 108704" d="M136.448,228.52a49.46,49.46,0,0,0-10.328,22.286s4.576-14.882,11.807-22.048Z" transform="translate(-85.164 -12.409)" opacity="0.1"/>
        <path id="Trazado_108705" data-name="Trazado 108705" d="M152.94,227c7.22,7.166,11.483,22.1,11.483,22.1-2.061-12.853-10.306-22.89-10.306-22.89Z" transform="translate(-83.04 -12.592)" opacity="0.1"/>
        <path id="Trazado_108706" data-name="Trazado 108706" d="M144.246,229.07a112.982,112.982,0,0,0-.183,29.063s-.648-18.8,1.446-29.02Z" transform="translate(-83.81 -12.365)" opacity="0.1"/>
        <path id="Trazado_108707" data-name="Trazado 108707" d="M208.2,307.006c-7.209-4.155-18.983-4.1-26.3.119-3.691,2.158-5.526,4.921-5.526,7.695V319.6c0,2.73,1.738,5.461,5.331,7.554,7.209,4.155,18.983,4.1,26.3-.129,3.712-2.158,5.547-4.943,5.536-7.727v-4.835C213.505,311.733,211.746,309.046,208.2,307.006Z" transform="translate(-81.184 -6.436)" fill="#d9a171"/>
        <path id="Trazado_108708" data-name="Trazado 108708" d="M208.2,307.006c-7.209-4.155-18.983-4.1-26.3.119-3.691,2.158-5.526,4.921-5.526,7.695V319.6c0,2.73,1.738,5.461,5.331,7.554,7.209,4.155,18.983,4.1,26.3-.129,3.712-2.158,5.547-4.943,5.536-7.727v-4.835C213.505,311.733,211.746,309.046,208.2,307.006Z" transform="translate(-81.184 -6.436)" opacity="0.5"/>
        <path id="Trazado_108709" data-name="Trazado 108709" d="M181.692,322.349c7.209,4.155,18.983,4.1,26.3-.129s7.414-11.019.205-15.174-18.983-4.1-26.3.119S174.483,318.151,181.692,322.349Z" transform="translate(-81.186 -6.433)" fill="#d9a171"/>
        <path id="Trazado_108710" data-name="Trazado 108710" d="M181.692,322.349c7.209,4.155,18.983,4.1,26.3-.129s7.414-11.019.205-15.174-18.983-4.1-26.3.119S174.483,318.151,181.692,322.349Z" transform="translate(-81.186 -6.433)" opacity="0.3"/>
        <path id="Trazado_108711" data-name="Trazado 108711" d="M206.149,282.194c-6.195-3.572-16.318-3.518-22.609.108-3.173,1.835-4.759,4.231-4.759,6.6v26.829c0,2.353,1.489,4.695,4.587,6.475,6.195,3.572,16.307,3.529,22.6-.108,3.238-1.835,4.77-4.241,4.759-6.637v-26.8C210.714,286.3,209.235,283.986,206.149,282.194Z" transform="translate(-80.993 -8.367)" fill="#d9a171"/>
        <path id="Trazado_108712" data-name="Trazado 108712" d="M206.149,282.194c-6.195-3.572-16.318-3.518-22.609.108-3.173,1.835-4.759,4.231-4.759,6.6v26.829c0,2.353,1.489,4.695,4.587,6.475,6.195,3.572,16.307,3.529,22.6-.108,3.238-1.835,4.77-4.241,4.759-6.637v-26.8C210.714,286.3,209.235,283.986,206.149,282.194Z" transform="translate(-80.993 -8.367)" opacity="0.5"/>
        <path id="Trazado_108713" data-name="Trazado 108713" d="M183.336,295.38c6.195,3.572,16.307,3.529,22.6-.108s6.378-9.475.183-13.048-16.318-3.518-22.609.108S177.174,291.808,183.336,295.38Z" transform="translate(-80.995 -8.365)" fill="#d9a171"/>
        <path id="Trazado_108714" data-name="Trazado 108714" d="M183.336,295.38c6.195,3.572,16.307,3.529,22.6-.108s6.378-9.475.183-13.048-16.318-3.518-22.609.108S177.174,291.808,183.336,295.38Z" transform="translate(-80.995 -8.365)" opacity="0.05"/>
        <g id="Grupo_59611" data-name="Grupo 59611" transform="translate(98.909 293.663)" opacity="0.15">
          <path id="Trazado_108715" data-name="Trazado 108715" d="M195.92,305.075V319.86a1.241,1.241,0,0,1-1.144,1.23H192.7a1.209,1.209,0,0,1-1.144-1.209V305.139a1.079,1.079,0,0,1,1.144-1.079h2.072a1.079,1.079,0,0,1,1.144,1.014Z" transform="translate(-178.89 -300.088)"/>
          <path id="Trazado_108716" data-name="Trazado 108716" d="M201.791,303.984v14.569a1.673,1.673,0,0,1-1.079,1.511c-.7.227-1.425.41-2.158.572a.917.917,0,0,1-1.133-.939V304.955a1.392,1.392,0,0,1,1.133-1.327c.723-.13,1.435-.291,2.158-.475a.831.831,0,0,1,1.079.831Z" transform="translate(-178.426 -300.163)"/>
          <path id="Trazado_108717" data-name="Trazado 108717" d="M204.349,301.912a1.889,1.889,0,0,0-1.079,1.6v14.4c0,.626.475.939,1.014.615a12.259,12.259,0,0,0,2.644-2.158,3.507,3.507,0,0,0,.723-2.051V301.049c0-.637-.389-.842-.885-.518-.3.205-.6.388-.928.583S204.867,301.664,204.349,301.912Z" transform="translate(-177.963 -300.38)"/>
          <path id="Trazado_108718" data-name="Trazado 108718" d="M190.061,305.019v14.742a.928.928,0,0,1-1.133.95c-.734-.14-1.446-.313-2.158-.518a1.651,1.651,0,0,1-1.079-1.5V304.145a.842.842,0,0,1,1.079-.853c.691.162,1.4.3,2.158.421A1.371,1.371,0,0,1,190.061,305.019Z" transform="translate(-179.355 -300.152)"/>
          <path id="Trazado_108719" data-name="Trazado 108719" d="M180.608,300.728c-.442-.291-.788,0-.788.594v13.253a3.454,3.454,0,0,0,.734,2.029,12.183,12.183,0,0,0,2.612,2.1.678.678,0,0,0,1.079-.626V303.7a1.9,1.9,0,0,0-1.079-1.586q-.885-.4-1.716-.874C181.093,301.031,180.867,300.9,180.608,300.728Z" transform="translate(-179.82 -300.361)"/>
        </g>
        <path id="Trazado_108720" data-name="Trazado 108720" d="M181.7,284.524a14.957,14.957,0,0,0-2.86,2.158,6.479,6.479,0,0,0-.065.788v15.087a14.16,14.16,0,0,0,2.72,2.029c7.209,4.155,18.983,4.1,26.3-.13a14.191,14.191,0,0,0,2.925-2.158V287.19a5.94,5.94,0,0,0-.065-.755A13.785,13.785,0,0,0,208,284.47C200.8,280.251,189.022,280.3,181.7,284.524Z" transform="translate(-80.993 -8.226)" opacity="0.15"/>
        <path id="Trazado_108721" data-name="Trazado 108721" d="M208.2,281.056c-7.209-4.155-18.983-4.1-26.3.13-3.691,2.158-5.526,4.91-5.526,7.684v4.781c0,2.741,1.738,5.461,5.331,7.554,7.209,4.166,18.983,4.1,26.3-.119,3.712-2.158,5.547-4.943,5.536-7.727v-4.846C213.505,285.794,211.746,283.107,208.2,281.056Z" transform="translate(-81.184 -8.492)" fill="#d9a171"/>
        <path id="Trazado_108722" data-name="Trazado 108722" d="M208.2,281.056c-7.209-4.155-18.983-4.1-26.3.13-3.691,2.158-5.526,4.91-5.526,7.684v4.781c0,2.741,1.738,5.461,5.331,7.554,7.209,4.166,18.983,4.1,26.3-.119,3.712-2.158,5.547-4.943,5.536-7.727v-4.846C213.505,285.794,211.746,283.107,208.2,281.056Z" transform="translate(-81.184 -8.492)" opacity="0.5"/>
        <path id="Trazado_108723" data-name="Trazado 108723" d="M181.692,296.35c7.209,4.166,18.983,4.1,26.3-.119s7.414-11.019.205-15.184-18.983-4.1-26.3.13S174.483,292.205,181.692,296.35Z" transform="translate(-81.186 -8.493)" fill="#d9a171"/>
        <path id="Trazado_108724" data-name="Trazado 108724" d="M181.692,296.35c7.209,4.166,18.983,4.1,26.3-.119s7.414-11.019.205-15.184-18.983-4.1-26.3.13S174.483,292.205,181.692,296.35Z" transform="translate(-81.186 -8.493)" opacity="0.3"/>
        <path id="Trazado_108725" data-name="Trazado 108725" d="M180.012,279.46c-.432,1.381.108,3.087.442,4.392a28.692,28.692,0,0,1,.281,4.8h0a.475.475,0,0,0,.281.4,1.349,1.349,0,0,0,1.3,0,.453.453,0,0,0,.281-.378h0c0-.119-.205-4.123,1.241-3.68C183.595,283.345,181.825,281.4,180.012,279.46Z" transform="translate(-80.908 -8.374)" fill="#6595bf"/>
        <path id="Trazado_108727" data-name="Trazado 108727" d="M196.9,291.045c.755,1.079-1.867,2.439-4.91.907-2.687-1.349-3.529-3.907-5.126-7.134-1.155-2.331-2.946-6.939-3.669-8.083-1.155-1.835-1.263-2.9,0-3.292.291.4,7.468,10.08,6.011,6.551s-2.482-5.666-3.335-6.4a3.076,3.076,0,0,0-2.061-.723h-.14a2.536,2.536,0,0,0-2.633,1.673,38.614,38.614,0,0,1-1.273,4.241,3.874,3.874,0,0,0,1.22,4.317,8.936,8.936,0,0,1,3.831,4.317c.723,2.288,1.6,6.648,3.583,7.954,3.076,2.018,8.148,3.1,11.04,1.079C201.361,295.092,199.958,293.516,196.9,291.045Z" transform="translate(-80.933 -8.897)" fill="#aed3f2"/>
        <path id="Trazado_108729" data-name="Trazado 108729" d="M191.792,291.917c-2.676-1.349-3.54-3.907-5.126-7.134-1.155-2.331-2.946-6.939-3.669-8.083-1.187-1.9-1.284-2.989.173-3.335,1.079-.173,2.439-.345,3.993,2.752s3.464,6.788,4.738,9.055a26.656,26.656,0,0,0,4.8,5.839C197.458,292.047,194.835,293.482,191.792,291.917Z" transform="translate(-80.731 -8.863)" fill="#6595bf"/>
        <path id="Trazado_108731" data-name="Trazado 108731" d="M192.051,290.625c-2.212-2.007-4.414-7.554-5.267-9.238a4.511,4.511,0,0,0-2.655-2.417c.777,1.792,1.694,3.972,2.374,5.4,1.586,3.238,2.45,5.785,5.126,7.134a5.968,5.968,0,0,0,2.515.669,13.316,13.316,0,0,1-2.094-1.543Z" transform="translate(-80.569 -8.413)" opacity="0.3"/>
        <path id="Trazado_108732" data-name="Trazado 108732" d="M190.342,273.86c-.442,1.392.1,3.087.442,4.4a28.251,28.251,0,0,1,.27,4.792h0a.464.464,0,0,0,.281.4,1.381,1.381,0,0,0,1.3.065.518.518,0,0,0,.291-.388h0c0-.108-.205-4.112,1.23-3.68C193.958,277.745,192.145,275.813,190.342,273.86Z" transform="translate(-80.09 -8.818)" fill="#6595bf"/>
        <path id="Trazado_108734" data-name="Trazado 108734" d="M207.276,285.441c.745,1.079-1.878,2.45-4.921.907-2.676-1.349-3.529-3.907-5.126-7.123-1.155-2.342-2.946-6.939-3.669-8.094-1.144-1.835-1.252-2.892,0-3.238.291.388,7.457,10.08,6,6.54s-2.482-5.666-3.324-6.4a3.173,3.173,0,0,0-2.072-.723h-.13a2.558,2.558,0,0,0-2.633,1.673,37.406,37.406,0,0,1-1.284,4.241,3.885,3.885,0,0,0,1.23,4.317,8.99,8.99,0,0,1,3.82,4.317c.723,2.3,1.6,6.659,3.583,7.954,3.076,2.029,8.159,3.1,11.04,1.079C211.722,289.5,210.319,287.88,207.276,285.441Z" transform="translate(-80.113 -9.337)" fill="#aed3f2"/>
        <path id="Trazado_108736" data-name="Trazado 108736" d="M202.152,286.367c-2.676-1.338-3.529-3.907-5.126-7.123-1.155-2.342-2.946-6.939-3.669-8.083-1.187-1.9-1.284-2.989.173-3.346,1.079-.173,2.439-.335,3.993,2.752s3.464,6.788,4.749,9.065a26.257,26.257,0,0,0,4.792,5.828C207.818,286.443,205.2,287.857,202.152,286.367Z" transform="translate(-79.91 -9.302)" fill="#6595bf"/>
        <path id="Trazado_108738" data-name="Trazado 108738" d="M202.411,285.025c-2.158-2.007-4.414-7.554-5.267-9.238a4.489,4.489,0,0,0-2.655-2.407c.777,1.781,1.694,3.971,2.374,5.4,1.6,3.238,2.45,5.785,5.126,7.123a6.032,6.032,0,0,0,2.515.68,15.319,15.319,0,0,1-2.094-1.554Z" transform="translate(-79.749 -8.856)" opacity="0.3"/>
        <path id="Trazado_108739" data-name="Trazado 108739" d="M220.777,277c1.781,3.432,13.889,16.113,31.416-13.835,13.933-23.818,13.663-34.049,13.663-43.427,0-3.421-1.079-20.311-21.584-16.274C220.215,208.2,211.819,259.822,220.777,277Z" transform="translate(-77.944 -14.442)" fill="#333549"/>
        <path id="Trazado_108741" data-name="Trazado 108741" d="M253.246,282.926c-7.2-4.166-18.983-4.1-26.3.119-3.691,2.158-5.526,4.921-5.526,7.684V293.5c0,2.741,1.738,5.461,5.32,7.554,7.209,4.166,18.983,4.1,26.311-.119,3.7-2.158,5.547-4.943,5.526-7.727v-2.838C258.566,287.653,256.8,284.966,253.246,282.926Z" transform="translate(-77.616 -8.344)" fill="#d9a171"/>
        <path id="Trazado_108742" data-name="Trazado 108742" d="M253.246,282.926c-7.2-4.166-18.983-4.1-26.3.119-3.691,2.158-5.526,4.921-5.526,7.684V293.5c0,2.741,1.738,5.461,5.32,7.554,7.209,4.166,18.983,4.1,26.311-.119,3.7-2.158,5.547-4.943,5.526-7.727v-2.838C258.566,287.653,256.8,284.966,253.246,282.926Z" transform="translate(-77.616 -8.344)" opacity="0.5"/>
        <path id="Trazado_108743" data-name="Trazado 108743" d="M226.742,298.219c7.209,4.166,18.983,4.1,26.311-.119s7.4-11.019.194-15.174-18.983-4.1-26.3.119S219.544,294.042,226.742,298.219Z" transform="translate(-77.617 -8.344)" fill="#d9a171"/>
        <path id="Trazado_108744" data-name="Trazado 108744" d="M226.742,298.219c7.209,4.166,18.983,4.1,26.311-.119s7.4-11.019.194-15.174-18.983-4.1-26.3.119S219.544,294.042,226.742,298.219Z" transform="translate(-77.617 -8.344)" opacity="0.3"/>
        <path id="Trazado_108745" data-name="Trazado 108745" d="M241.954,296.314a1.457,1.457,0,0,1-.874,1.284,4.792,4.792,0,0,1-4.317,0,1.673,1.673,0,0,1-.993-1.273h0V202.11l6.1.086Z" transform="translate(-76.479 -14.501)" fill="#d9a171"/>
        <path id="Trazado_108746" data-name="Trazado 108746" d="M241.954,296.314a1.457,1.457,0,0,1-.874,1.284,4.792,4.792,0,0,1-4.317,0,1.673,1.673,0,0,1-.993-1.273h0V202.11l6.1.086Z" transform="translate(-76.479 -14.501)" opacity="0.5"/>
        <path id="Trazado_108747" data-name="Trazado 108747" d="M238.511,298.041a3.983,3.983,0,0,1-1.748-.507,1.673,1.673,0,0,1-.993-1.273h0V202.11h2.741Z" transform="translate(-76.479 -14.501)" opacity="0.3"/>
        <path id="Trazado_108748" data-name="Trazado 108748" d="M240.993,203.54a4.759,4.759,0,0,1-4.317,0c-1.2-.691-1.209-1.8,0-2.482a4.727,4.727,0,0,1,4.317,0A1.312,1.312,0,0,1,240.993,203.54Z" transform="translate(-76.479 -14.625)" fill="#263238"/>
        <path id="Trazado_108749" data-name="Trazado 108749" d="M221.78,159.393c-2.935-1.694-5.31-6.734-5.31-11.256,0-2.547.755-4.382,1.932-5.2a3.033,3.033,0,0,1,3.389.086c2.935,1.694,5.31,6.734,5.31,11.256a7.047,7.047,0,0,1-1.381,4.705,2.925,2.925,0,0,1-3.939.41Z" transform="translate(-78.008 -19.225)" opacity="0.1"/>
        <path id="Trazado_108750" data-name="Trazado 108750" d="M250,132.39l-2.439,1.565s2.158,2.493,3.443,4.177v-1.457A10.932,10.932,0,0,0,250,132.39Z" transform="translate(-75.545 -20.023)" opacity="0.05"/>
        <path id="Trazado_108751" data-name="Trazado 108751" d="M257.49,213.506c-9.119,5.245-23.85,5.245-32.948,0-5.115-2.957-7.36-4.187-6.713-8.04a73.3,73.3,0,0,1,4.015-14.548.076.076,0,0,1,0-.065l.4-.971c2.86-6.8,8.267-13.728,8.5-14.807a5.224,5.224,0,0,0-.561-2.277c-.108-.291-.227-.594-.367-.907-.594-1.4-1.371-3.011-2.007-4.446a16.88,16.88,0,0,0-2.353-4.133,10.459,10.459,0,0,0-3.238-2.59l-.432-.216c-2.935-1.694-5.31-6.734-5.31-11.256,0-2.342.648-4.079,1.662-4.975h0a52.794,52.794,0,0,1,5.461-4.317c.475-.345.982-.68,1.532-1.079h0l.27-.173.248-.151.626-.367.227-.13c.917-.518,2.018-1.079,2.353-1.327l11.159-6.475a15.457,15.457,0,0,1,1.662-.842h.076c2.817-1.22,7.479-2.234,10.3,2.525a11.116,11.116,0,0,1,1.4,6.475c1.835,2.612,3.551,5.245,5.223,7.706s4.079,8.8-1.608,13.4L255.99,171c.54,1.381,1.079,2.817,1.543,4.317v.065c.162.486.335.96.475,1.446a150.532,150.532,0,0,1,4.317,16.76.469.469,0,0,0,.054.27c.8,4.177,1.4,8.3,1.835,12.249C264.526,209.751,262.368,210.722,257.49,213.506Z" transform="translate(-78.007 -20.339)" fill="#d9a171"/>
        <path id="Trazado_108752" data-name="Trazado 108752" d="M264.288,206.1a141.042,141.042,0,0,0-8.267-35.074l1.079-11.472c5.687-4.608,3.238-10.943,1.619-13.4s-3.4-5.094-5.223-7.706a11.2,11.2,0,0,0-1.4-6.475c-3.561-5.968-9.993-2.849-12.044-1.673l-11.159,6.475c-.572.324-3.238,1.813-3.723,2.158a57.391,57.391,0,0,0-7,5.4h0c-1.079.9-1.673,2.633-1.673,4.975,0,4.522,2.385,9.562,5.32,11.256a4.03,4.03,0,0,0,.432.216h0c2.806,1.543,4.058,3.13,5.633,6.723,1.284,2.914,3.151,6.562,2.925,7.63s-5.644,8-8.493,14.8a72.707,72.707,0,0,0-4.446,15.584c-.637,3.853,1.6,5.094,6.713,8.051,9.1,5.245,23.84,5.245,32.948,0C262.367,210.709,264.59,209.748,264.288,206.1Z" transform="translate(-78.006 -20.337)" opacity="0.05"/>
        <path id="Trazado_108753" data-name="Trazado 108753" d="M221.79,159.393c-2.935-1.694-5.32-6.734-5.32-11.256,0-2.547.755-4.382,1.932-5.2a3.033,3.033,0,0,1,3.389.086c2.935,1.694,5.32,6.734,5.32,11.256a7.112,7.112,0,0,1-1.381,4.705,2.957,2.957,0,0,1-3.939.41Z" transform="translate(-78.008 -19.225)" opacity="0.1"/>
        <path id="Trazado_108754" data-name="Trazado 108754" d="M250,132.39l-2.428,1.565s2.158,2.493,3.432,4.177v-1.457A10.932,10.932,0,0,0,250,132.39Z" transform="translate(-75.544 -20.023)" opacity="0.05"/>
        <path id="Trazado_108755" data-name="Trazado 108755" d="M264.438,206.031c-.345-3.518-.961-7.749-1.856-12.249a.5.5,0,0,0-.054-.27,135.44,135.44,0,0,0-4.317-16.76c-.14-.486-.313-.961-.475-1.446v-.065c-.486-1.457-1-2.871-1.554-4.317l1.079-11.472c5.687-4.608,3.292-10.943,1.619-13.4-3.065-4.576-16.49-16.339-16.911-16.738H241.9l-2.871,1.867s6.313,4.317,11.213,14.386a20.267,20.267,0,0,1,1.241,12.292,63.262,63.262,0,0,0-12.756-11.742c-4.77-3.356-10.155-7.9-12.227-8.051l-.626.367-.248.151-.27.173h0c-.55.378-1.079.712-1.532,1.079,4.986.831,9.033,13.663,9.767,19.49s-1.63,14.353-3.507,12.465h0c.14.324.27.626.389.928a7.164,7.164,0,0,1,.561,2.04v.237c-.237,1.079-5.655,8.008-8.5,14.807-.14.324-.27.637-.389.971a.076.076,0,0,0,0,.065,98.211,98.211,0,0,0-5.4,17.084c-1.781,7.878-3.076,27.574-1.3,51.122.723,9.6,2.158,17.861,5.666,23.743-4.025-11.224-2.266-28.534,2.763-40.039s13.058-22.469,25.62-25.9c11.871-3.238,16.523,7.285,16.685,8.634C265.992,224.064,265.279,214.956,264.438,206.031Z" transform="translate(-78.156 -20.267)" fill="#5e6178"/>
        <path id="Trazado_108757" data-name="Trazado 108757" d="M229.794,171.947s.874,2.73,6.788,3.335c7.749.809,15.7-1.738,18.454-7.382l.658,1.748c.108.907-4.317,7.554-15.109,7.8-9.778.27-11.418-3.033-11.807-3.766a9.811,9.811,0,0,0,1.014-1.738Z" transform="translate(-77.033 -17.21)" opacity="0.3"/>
        <path id="Trazado_108758" data-name="Trazado 108758" d="M229.75,129.2v6.475a7.306,7.306,0,0,0,1.791,4.781c2.407,2.31,8.785,5.191,11.224,3.777,1.219-.7,0-5.2-.313-8.267a65.855,65.855,0,0,1-.237-6.767Z" transform="translate(-76.956 -20.276)" fill="#d9a171"/>
        <path id="Trazado_108759" data-name="Trazado 108759" d="M229.75,129.2v6.475a7.306,7.306,0,0,0,1.791,4.781c2.407,2.31,8.785,5.191,11.224,3.777,1.219-.7,0-5.2-.313-8.267a65.855,65.855,0,0,1-.237-6.767Z" transform="translate(-76.956 -20.276)" opacity="0.1"/>
        <path id="Trazado_108760" data-name="Trazado 108760" d="M231.541,140.455a16.727,16.727,0,0,0,4.425,2.8V129.22H229.75V135.7a7.306,7.306,0,0,0,1.791,4.759Z" transform="translate(-76.956 -20.274)" opacity="0.05"/>
        <path id="Trazado_108761" data-name="Trazado 108761" d="M240.393,132.02a9.81,9.81,0,0,1-8.839,0c-1.371-.8-1.975-1.867-1.8-2.9a3.291,3.291,0,0,1,1.8-2.158,9.713,9.713,0,0,1,8.839,0,3.238,3.238,0,0,1,1.824,2.374,3.022,3.022,0,0,1-1.824,2.687Z" transform="translate(-76.958 -20.537)" fill="#d9a171"/>
        <path id="Trazado_108762" data-name="Trazado 108762" d="M241.082,115.417a2,2,0,0,0-2.018.076c-1.673.961-2.979,3.626-3.087,6.162h0a3.162,3.162,0,0,0-1.3-2.515,2.061,2.061,0,0,0-2.1.108,7.166,7.166,0,0,0-2.817,5.4,2.417,2.417,0,0,0,.917,2.158,1.3,1.3,0,0,0,.637.162,1.651,1.651,0,0,0,.831-.237,4.317,4.317,0,0,0,1.673-3.475,1.662,1.662,0,0,0-.648-1.5,1.079,1.079,0,0,0-1.079,0,2.86,2.86,0,0,0-1.079,2.331,1.155,1.155,0,0,0,.486,1.079.766.766,0,0,0,.8,0,.335.335,0,0,0,.13-.464.345.345,0,0,0-.475-.13h-.119a.708.708,0,0,1-.13-.475,2.158,2.158,0,0,1,.788-1.727.388.388,0,0,1,.378,0c.14.086.3.367.3.907a3.659,3.659,0,0,1-1.327,2.881.734.734,0,0,1-.777.065,1.824,1.824,0,0,1-.583-1.576,6.475,6.475,0,0,1,2.482-4.835,1.392,1.392,0,0,1,1.414-.119,3.022,3.022,0,0,1,1,2.644h0v7.554a.291.291,0,0,0,.194.313,1.015,1.015,0,0,0,.96,0c.129-.076.205-.173.194-.27h0v-7.911h0c0-2.385,1.23-5.083,2.752-5.957a1.263,1.263,0,0,1,1.327-.076,2.029,2.029,0,0,1,.8,1.845,4.651,4.651,0,0,1-1.694,3.669.55.55,0,0,1-.561.065c-.205-.119-.421-.5-.421-1.209a2.8,2.8,0,0,1,1.025-2.234c.1-.065.173-.076.227,0a1.08,1.08,0,0,1,.216.669,1.694,1.694,0,0,1-.594,1.317.348.348,0,1,0,.345.6,2.363,2.363,0,0,0,.939-1.921,1.381,1.381,0,0,0-.561-1.263.885.885,0,0,0-.917,0,3.5,3.5,0,0,0-1.371,2.838,2,2,0,0,0,.766,1.8,1.079,1.079,0,0,0,.55.14,1.468,1.468,0,0,0,.7-.194,5.267,5.267,0,0,0,2.04-4.317,2.687,2.687,0,0,0-1.22-2.385Z" transform="translate(-76.956 -21.386)" fill="#d9a171"/>
        <path id="Trazado_108763" data-name="Trazado 108763" d="M241.082,115.417a2,2,0,0,0-2.018.076c-1.673.961-2.979,3.626-3.087,6.162h0a3.162,3.162,0,0,0-1.3-2.515,2.061,2.061,0,0,0-2.1.108,7.166,7.166,0,0,0-2.817,5.4,2.417,2.417,0,0,0,.917,2.158,1.3,1.3,0,0,0,.637.162,1.651,1.651,0,0,0,.831-.237,4.317,4.317,0,0,0,1.673-3.475,1.662,1.662,0,0,0-.648-1.5,1.079,1.079,0,0,0-1.079,0,2.86,2.86,0,0,0-1.079,2.331,1.155,1.155,0,0,0,.486,1.079.766.766,0,0,0,.8,0,.335.335,0,0,0,.13-.464.345.345,0,0,0-.475-.13h-.119a.708.708,0,0,1-.13-.475,2.158,2.158,0,0,1,.788-1.727.388.388,0,0,1,.378,0c.14.086.3.367.3.907a3.659,3.659,0,0,1-1.327,2.881.734.734,0,0,1-.777.065,1.824,1.824,0,0,1-.583-1.576,6.475,6.475,0,0,1,2.482-4.835,1.392,1.392,0,0,1,1.414-.119,3.022,3.022,0,0,1,1,2.644h0v7.554a.291.291,0,0,0,.194.313,1.015,1.015,0,0,0,.96,0c.129-.076.205-.173.194-.27h0v-7.911h0c0-2.385,1.23-5.083,2.752-5.957a1.263,1.263,0,0,1,1.327-.076,2.029,2.029,0,0,1,.8,1.845,4.651,4.651,0,0,1-1.694,3.669.55.55,0,0,1-.561.065c-.205-.119-.421-.5-.421-1.209a2.8,2.8,0,0,1,1.025-2.234c.1-.065.173-.076.227,0a1.08,1.08,0,0,1,.216.669,1.694,1.694,0,0,1-.594,1.317.348.348,0,1,0,.345.6,2.363,2.363,0,0,0,.939-1.921,1.381,1.381,0,0,0-.561-1.263.885.885,0,0,0-.917,0,3.5,3.5,0,0,0-1.371,2.838,2,2,0,0,0,.766,1.8,1.079,1.079,0,0,0,.55.14,1.468,1.468,0,0,0,.7-.194,5.267,5.267,0,0,0,2.04-4.317,2.687,2.687,0,0,0-1.22-2.385Z" transform="translate(-76.956 -21.386)" opacity="0.6"/>
        <path id="Trazado_108764" data-name="Trazado 108764" d="M334.175,56.35,106.862,187.593A29.875,29.875,0,0,0,92.373,161.98L91.9,161.7l-3.734-2.158L315.483,28.28l3.734,2.158A29.926,29.926,0,0,1,334.175,56.35Z" transform="translate(-88.17 -28.269)" fill="#6595bf"/>
        <path id="Trazado_108765" data-name="Trazado 108765" d="M247.972,62.448l-3.745-2.158L232.27,67.2,236,69.355a29.894,29.894,0,0,1,14.958,25.9l11.958-6.907a29.915,29.915,0,0,0-14.947-25.9Z" transform="translate(-76.756 -25.734)" fill="#f0f0f0"/>
        <path id="Trazado_108766" data-name="Trazado 108766" d="M225.8,75.248l-3.745-2.158L210.1,80l3.734,2.158a29.894,29.894,0,0,1,14.958,25.9l11.968-6.907a29.948,29.948,0,0,0-14.958-25.9Z" transform="translate(-78.512 -24.72)" fill="#f0f0f0"/>
        <path id="Trazado_108767" data-name="Trazado 108767" d="M203.632,88.048,199.9,85.89,187.93,92.8l3.734,2.158a29.9,29.9,0,0,1,14.958,25.9l11.968-6.918a29.926,29.926,0,0,0-14.958-25.89Z" transform="translate(-80.268 -23.706)" fill="#f0f0f0"/>
        <path id="Trazado_108768" data-name="Trazado 108768" d="M181.462,100.858,177.728,98.7l-11.968,6.907,3.745,2.158a29.916,29.916,0,0,1,14.947,25.9l11.968-6.907A29.926,29.926,0,0,0,181.462,100.858Z" transform="translate(-82.024 -22.691)" fill="#f0f0f0"/>
        <path id="Trazado_108769" data-name="Trazado 108769" d="M159.292,113.658l-3.734-2.158-11.968,6.907,3.745,2.158a29.916,29.916,0,0,1,14.947,25.9l11.968-6.907a29.9,29.9,0,0,0-14.963-25.9Z" transform="translate(-83.78 -21.678)" fill="#f0f0f0"/>
        <path id="Trazado_108770" data-name="Trazado 108770" d="M137.152,126.458l-3.734-2.158-11.968,6.907,3.745,2.158a29.916,29.916,0,0,1,14.947,25.9l11.968-6.907a29.9,29.9,0,0,0-14.963-25.9Z" transform="translate(-85.534 -20.664)" fill="#f0f0f0"/>
        <path id="Trazado_108771" data-name="Trazado 108771" d="M114.952,139.258l-3.734-2.158L99.25,144.007l3.745,2.158a29.916,29.916,0,0,1,14.947,25.9l11.968-6.907a29.9,29.9,0,0,0-14.963-25.9Z" transform="translate(-87.292 -19.65)" fill="#f0f0f0"/>
        <path id="Trazado_108772" data-name="Trazado 108772" d="M270.152,49.638l-3.734-2.158L254.45,54.387l3.745,2.158a29.916,29.916,0,0,1,14.947,25.9l11.968-6.918a29.892,29.892,0,0,0-14.953-25.888Z" transform="translate(-74.999 -26.748)" fill="#f0f0f0"/>
        <path id="Trazado_108773" data-name="Trazado 108773" d="M292.332,36.838l-3.745-2.158L276.63,41.6l3.734,2.158a29.916,29.916,0,0,1,14.958,25.9l11.925-6.907a29.916,29.916,0,0,0-14.915-25.912Z" transform="translate(-73.243 -27.762)" fill="#f0f0f0"/>
        <path id="Trazado_108774" data-name="Trazado 108774" d="M116.57,170.037c0,3.572,2.687,4.921,5.99,3.022s5.979-6.357,5.979-9.929Z" transform="translate(-85.921 -17.588)" fill="#e0e0e0"/>
        <path id="Trazado_108775" data-name="Trazado 108775" d="M138.74,157.247c0,3.572,2.676,4.921,5.99,3.011s5.979-6.346,5.979-9.918Z" transform="translate(-84.164 -18.601)" fill="#e0e0e0"/>
        <path id="Trazado_108776" data-name="Trazado 108776" d="M160.91,144.4c0,3.572,2.676,4.932,5.979,3.022s5.99-6.357,5.99-9.929Z" transform="translate(-82.408 -19.619)" fill="#e0e0e0"/>
        <path id="Trazado_108777" data-name="Trazado 108777" d="M183.08,131.618c0,3.572,2.676,4.921,5.979,3.011s5.99-6.346,5.99-9.929Z" transform="translate(-80.652 -20.632)" fill="#e0e0e0"/>
        <path id="Trazado_108778" data-name="Trazado 108778" d="M205.24,118.807c0,3.572,2.676,4.921,5.979,3.011s5.99-6.346,5.99-9.918Z" transform="translate(-78.897 -21.646)" fill="#e0e0e0"/>
        <path id="Trazado_108779" data-name="Trazado 108779" d="M227.42,106c0,3.572,2.676,4.921,5.979,3.011s5.99-6.346,5.99-9.918Z" transform="translate(-77.14 -22.661)" fill="#e0e0e0"/>
        <path id="Trazado_108780" data-name="Trazado 108780" d="M249.59,93.217c0,3.572,2.676,4.921,5.979,3.022s5.979-6.357,5.979-9.929Z" transform="translate(-75.384 -23.673)" fill="#e0e0e0"/>
        <path id="Trazado_108781" data-name="Trazado 108781" d="M271.77,80.387c0,3.572,2.676,4.921,5.99,3.011s5.979-6.346,5.979-9.918Z" transform="translate(-73.628 -24.689)" fill="#e0e0e0"/>
        <path id="Trazado_108782" data-name="Trazado 108782" d="M293.94,67.587c0,3.572,2.676,4.921,5.979,3.022s5.957-6.346,5.957-9.929Z" transform="translate(-71.872 -25.703)" fill="#e0e0e0"/>
        <g id="Grupo_59615" data-name="Grupo 59615" transform="translate(18.692 28.049)">
          <path id="Trazado_108783" data-name="Trazado 108783" d="M105.49,176.407c0,3.572,2.676,4.932,5.979,3.022s5.979-6.357,5.979-9.929Z" transform="translate(-105.49 -45.132)" fill="#aed3f2"/>
          <path id="Trazado_108784" data-name="Trazado 108784" d="M127.66,163.607c0,3.572,2.676,4.921,5.979,3.022s5.99-6.357,5.99-9.929Z" transform="translate(-103.734 -46.146)" fill="#aed3f2"/>
          <path id="Trazado_108785" data-name="Trazado 108785" d="M149.83,150.807c0,3.572,2.676,4.921,5.979,3.011s5.979-6.346,5.979-9.918Z" transform="translate(-101.978 -47.16)" fill="#aed3f2"/>
          <path id="Trazado_108786" data-name="Trazado 108786" d="M172,138.007c0,3.572,2.676,4.921,5.979,3.011s5.979-6.346,5.979-9.918Z" transform="translate(-100.222 -48.174)" fill="#aed3f2"/>
          <path id="Trazado_108787" data-name="Trazado 108787" d="M194.17,125.207c0,3.572,2.676,4.921,5.979,3.011s5.979-6.346,5.979-9.918Z" transform="translate(-98.466 -49.188)" fill="#aed3f2"/>
          <path id="Trazado_108788" data-name="Trazado 108788" d="M216.34,112.4c0,3.572,2.676,4.932,5.979,3.022s5.979-6.357,5.979-9.929Z" transform="translate(-96.71 -50.202)" fill="#aed3f2"/>
          <path id="Trazado_108789" data-name="Trazado 108789" d="M238.51,99.6c0,3.572,2.676,4.921,5.979,3.022s5.979-6.357,5.979-9.929Z" transform="translate(-94.954 -51.216)" fill="#aed3f2"/>
          <path id="Trazado_108790" data-name="Trazado 108790" d="M260.67,86.8c0,3.572,2.687,4.921,5.99,3.011s5.979-6.346,5.979-9.918Z" transform="translate(-93.199 -52.23)" fill="#aed3f2"/>
          <path id="Trazado_108791" data-name="Trazado 108791" d="M282.86,73.967c0,3.572,2.676,4.932,5.979,3.022s5.979-6.357,5.979-9.929Z" transform="translate(-91.441 -53.246)" fill="#aed3f2"/>
          <path id="Trazado_108792" data-name="Trazado 108792" d="M305,61.167c0,3.572,2.676,4.921,5.979,3.022s5.979-6.357,5.979-9.929Z" transform="translate(-89.687 -54.26)" fill="#aed3f2"/>
        </g>
        <g id="Grupo_59612" data-name="Grupo 59612" transform="translate(18.692 28.049)" opacity="0.1">
          <g id="Grupo_59614" data-name="Grupo 59614" transform="translate(0 0)">
            <path id="Trazado_108793" data-name="Trazado 108793" d="M105.49,176.407c0,3.572,2.676,4.932,5.979,3.022s5.979-6.357,5.979-9.929Z" transform="translate(-105.49 -45.132)"/>
            <path id="Trazado_108794" data-name="Trazado 108794" d="M127.66,163.607c0,3.572,2.676,4.921,5.979,3.022s5.99-6.357,5.99-9.929Z" transform="translate(-103.734 -46.146)"/>
            <path id="Trazado_108795" data-name="Trazado 108795" d="M149.83,150.807c0,3.572,2.676,4.921,5.979,3.011s5.979-6.346,5.979-9.918Z" transform="translate(-101.978 -47.16)"/>
            <path id="Trazado_108796" data-name="Trazado 108796" d="M172,138.007c0,3.572,2.676,4.921,5.979,3.011s5.979-6.346,5.979-9.918Z" transform="translate(-100.222 -48.174)"/>
            <path id="Trazado_108797" data-name="Trazado 108797" d="M194.17,125.207c0,3.572,2.676,4.921,5.979,3.011s5.979-6.346,5.979-9.918Z" transform="translate(-98.466 -49.188)"/>
            <path id="Trazado_108798" data-name="Trazado 108798" d="M216.34,112.4c0,3.572,2.676,4.932,5.979,3.022s5.979-6.357,5.979-9.929Z" transform="translate(-96.71 -50.202)"/>
            <path id="Trazado_108799" data-name="Trazado 108799" d="M238.51,99.6c0,3.572,2.676,4.921,5.979,3.022s5.979-6.357,5.979-9.929Z" transform="translate(-94.954 -51.216)"/>
            <path id="Trazado_108800" data-name="Trazado 108800" d="M260.67,86.8c0,3.572,2.687,4.921,5.99,3.011s5.979-6.346,5.979-9.918Z" transform="translate(-93.199 -52.23)"/>
            <path id="Trazado_108801" data-name="Trazado 108801" d="M282.86,73.967c0,3.572,2.676,4.932,5.979,3.022s5.979-6.357,5.979-9.929Z" transform="translate(-91.441 -53.246)"/>
            <path id="Trazado_108802" data-name="Trazado 108802" d="M305,61.167c0,3.572,2.676,4.921,5.979,3.022s5.979-6.357,5.979-9.929Z" transform="translate(-89.687 -54.26)"/>
          </g>
        </g>
        <path id="Trazado_108803" data-name="Trazado 108803" d="M106.862,177.841v.119L88.17,167.113V149.9l3.734,2.158.475.281A29.8,29.8,0,0,1,106.84,176.8C106.862,177.139,106.862,177.517,106.862,177.841Z" transform="translate(-88.17 -18.636)" fill="#e0e0e0"/>
      </g>
      <g id="freepik--Character--inject-265" transform="translate(323.836 199.112)">
        <g id="freepik--character--inject-265-2" data-name="freepik--character--inject-265">
          <path id="Trazado_108804" data-name="Trazado 108804" d="M371.88,392.492s.7,1.23,4.49-.367,4.856-3.486,4.856-3.486-.993-7.554-3.335-5.687S371.88,392.492,371.88,392.492Z" transform="translate(-301.364 -171.043)" fill="#d9a171"/>
          <path id="Trazado_108805" data-name="Trazado 108805" d="M371.88,392.492s.7,1.23,4.49-.367,4.856-3.486,4.856-3.486-.993-7.554-3.335-5.687S371.88,392.492,371.88,392.492Z" transform="translate(-301.364 -171.043)" opacity="0.3"/>
          <path id="Trazado_108806" data-name="Trazado 108806" d="M381.711,367.12c-.065,3.982-.173,7.036,1.349,9.173a8.277,8.277,0,0,1,1.64,3.594s-4.5.626-6.788,3.734-2.158,6.195-4.317,6.7-5.666-1.921-5.666-1.921a3.691,3.691,0,0,0,3.119-2.9c.885-2.817,3.141-8.839,3.238-10.425s0-7.706,0-7.706Z" transform="translate(-301.677 -172.273)" fill="#ffa8a7"/>
          <path id="Trazado_108807" data-name="Trazado 108807" d="M382.116,376.581c-1.953.119-4.964,2.31-5.968,4.576s-2.655,5.461-3.928,6.173-3.529-.324-5.461-.335-3.238.885-3.389,2.288l8.008,3.788c1.856.874,3.41.907,4.867-2.935s2-6,3.151-3.389,1.63,8.483,1.63,8.483a1.867,1.867,0,0,0,2.331-.971,39.845,39.845,0,0,1,.281-5.126c.335-2.363,2.471-5.331,2.31-8.17S384.242,376.44,382.116,376.581Z" transform="translate(-302.038 -171.524)" fill="#263238"/>
          <path id="Trazado_108808" data-name="Trazado 108808" d="M350.52,406.377s.723,1.273,4.641-.367,5.018-3.6,5.018-3.6-1.014-7.867-3.443-5.882S350.52,406.377,350.52,406.377Z" transform="translate(-303.056 -169.97)" fill="#d9a171"/>
          <path id="Trazado_108809" data-name="Trazado 108809" d="M350.52,406.377s.723,1.273,4.641-.367,5.018-3.6,5.018-3.6-1.014-7.867-3.443-5.882S350.52,406.377,350.52,406.377Z" transform="translate(-303.056 -169.97)" opacity="0.3"/>
          <path id="Trazado_108810" data-name="Trazado 108810" d="M360.684,380.14c-.076,4.123-.173,7.285,1.392,9.486a8.633,8.633,0,0,1,1.705,3.712s-4.662.68-7.026,3.917-2.234,6.41-4.436,6.939-5.86-1.986-5.86-1.986A3.842,3.842,0,0,0,349.7,399.2c.907-2.914,3.238-9.141,3.324-10.792s.388-8.224.388-8.224Z" transform="translate(-303.378 -171.242)" fill="#ffa8a7"/>
          <path id="Trazado_108811" data-name="Trazado 108811" d="M361.1,389.921c-2.018.13-5.137,2.4-6.162,4.738s-2.752,5.655-4.069,6.389-3.659-.335-5.644-.345-3.4.907-3.518,2.353l8.3,3.928c1.91.907,3.518.939,5.018-3.033s2.072-6.205,3.238-3.507,1.684,8.774,1.684,8.774a1.921,1.921,0,0,0,2.407-1,41.321,41.321,0,0,1,.291-5.3c.345-2.45,2.558-5.515,2.4-8.461S363.3,389.791,361.1,389.921Z" transform="translate(-303.754 -170.468)" fill="#263238"/>
          <path id="Trazado_108812" data-name="Trazado 108812" d="M376.37,224.55c5.169,1,7.554,2.763,10.468,9.939s8.18,24.638,9.4,29.43c.55,2.158-13.037,21.358-12.454,21.066.173-.086-5.31-9.26-5.31-9.26l6.669-12.756L380.4,251.357Z" transform="translate(-301.009 -183.566)" fill="#ffa8a7"/>
          <path id="Trazado_108813" data-name="Trazado 108813" d="M388.263,339.117c-.248-9.5-2.158-13.663-2.158-13.663s1.176-11.083,3.011-25.4c2.925-22.814-.766-29.376-7.382-38.312,0,0-27.423-6.216-30.747,4.835-7.3,24.2-5.061,66.209-4.554,72.933s.5.507,2.158,14.116c1.3,10.792,4.759,39.931,4.759,39.931,4.889,2.644,7.835-.183,7.835-.183s3.885-35.614,3.572-43.406c-.388-9.475-.928-11.871-.928-11.871s3.864-27.455,4.533-32.376c0,0,.475,8.148.982,14.871s1.025,9.627,2.439,23.538c1.079,10.9,4.317,34.653,4.317,34.653a7.457,7.457,0,0,0,7.479-.788S388.457,346.79,388.263,339.117Z" transform="translate(-303.437 -180.758)" fill="#455a64"/>
          <path id="Trazado_108814" data-name="Trazado 108814" d="M358.91,220.168l1.727,14.2,12.5-1.122-1.425-15.778Z" transform="translate(-302.392 -184.126)" fill="#ffa8a7"/>
          <path id="Trazado_108815" data-name="Trazado 108815" d="M386.2,231.426c-.928-3.874-4.511-7.652-9.324-6.756-1.252.227-2.342.41-3.529.648-.108,3.238-6.27,4.964-12.422,2.979q-2.763.788-5.083,1.619c-4.392,1.576-10.317,10.317-7.22,22.135a85.26,85.26,0,0,1,2.158,17.332s23.235,5.515,30.747-4.835C382.176,260.866,389.644,245.66,386.2,231.426Z" transform="translate(-303.275 -183.567)" fill="#d9a171"/>
          <g id="Grupo_59613" data-name="Grupo 59613" transform="translate(44.487 40.97)" opacity="0.3">
            <path id="Trazado_108816" data-name="Trazado 108816" d="M386.2,231.426c-.928-3.874-4.511-7.652-9.324-6.756-1.252.227-2.342.41-3.529.648-.108,3.238-6.27,4.964-12.422,2.979q-2.763.788-5.083,1.619c-4.392,1.576-10.317,10.317-7.22,22.135a85.26,85.26,0,0,1,2.158,17.332s23.235,5.515,30.747-4.835C382.176,260.866,389.644,245.66,386.2,231.426Z" transform="translate(-347.762 -224.537)"/>
          </g>
          <path id="Trazado_108817" data-name="Trazado 108817" d="M350.379,204.56a10.954,10.954,0,0,1,.939-10.565c4.2-6.583,12.519-8.979,22.1-6.41,4.749,1.273,11.159,7.554,11.753,16.706.453,7.026-19.145,12.206-18.692,17.019Z" transform="translate(-303.142 -186.574)" fill="#263238"/>
          <path id="Trazado_108818" data-name="Trazado 108818" d="M350.09,205.71s-2.655,4.263-2.288,4.705a6.659,6.659,0,0,0,2.158.853Z" transform="translate(-303.274 -185.058)" fill="#f28f8f"/>
          <path id="Trazado_108819" data-name="Trazado 108819" d="M358.056,193.293c-2.666,1.468-7.252,4.155-8.18,14.116-.95,10.22,1.414,13.706,2.838,15,.961.874,5.806,1.079,8.31.216,3.13-1.079,9.875-4.63,12.951-9.972,3.615-6.292,4.166-14.559-.27-17.667C367.435,190.595,360.3,192.052,358.056,193.293Z" transform="translate(-303.125 -186.142)" fill="#ffa8a7"/>
          <path id="Trazado_108820" data-name="Trazado 108820" d="M358.042,205.617a10.1,10.1,0,0,1-6.475-8.159c-1-6.475,7.09-9.238,7.09-9.238Z" transform="translate(-302.98 -186.443)" fill="#263238"/>
          <path id="Trazado_108821" data-name="Trazado 108821" d="M356.824,193.906s-2.094,9.357.874,15.109c0,0,1.543-3.68,4.695-2.72s2.989,5.159.583,7.36a4.694,4.694,0,0,1-4.846,1.166c.259,4.716-.55,6.842-2.86,11.04,0,0,17.2,2.439,25.264-6.659,7.317-8.256,5.612-24.94-5.6-28.34S356.824,193.906,356.824,193.906Z" transform="translate(-302.68 -186.312)" fill="#263238"/>
          <path id="Trazado_108822" data-name="Trazado 108822" d="M326.842,251.485c-1.813-2.072-2.158-6.648-4.533-9.8s-1.975-6.313-3.486-4.91-.388,6.583-.388,6.583-2.806,5.213-3.054,7.889,6.831,9.378,6.831,9.378Z" transform="translate(-305.84 -182.624)" fill="#ffa8a7"/>
          <path id="Trazado_108823" data-name="Trazado 108823" d="M319.469,242.8c-1.36,1.964-5.817-1.252-7-2.158a8.213,8.213,0,0,0-2.439-1.468,2.579,2.579,0,0,0-2.655.561,3.238,3.238,0,0,0-.637,1.543,12.4,12.4,0,0,0,2.633,10.069c2.741,3.356,7.209,3.82,10.695,6.195a9.281,9.281,0,0,1-.076-2.277c-.065-1.673-.14-3.346-.205-5.018C319.674,247.762,319.544,245.269,319.469,242.8Z" transform="translate(-306.54 -182.42)" fill="#ffa8a7"/>
          <path id="Trazado_108824" data-name="Trazado 108824" d="M359.107,229.17c-3.68,1.284-6.9,2.763-10.317,9.206-4.414,8.277-12.422,24.5-12.422,24.5l-9.983-10.792s-1.446-2.05-4.155,2.417-1.511,5.7-1.511,5.7,11.623,15.562,13.749,17.537,5.633.443,7.921-2.666,14.105-24.5,14.105-24.5S364.3,237.005,359.107,229.17Z" transform="translate(-305.438 -183.2)" fill="#ffa8a7"/>
          <path id="Trazado_108825" data-name="Trazado 108825" d="M366.59,303.77l1.187-11.019A28.059,28.059,0,0,0,379,288.51s-2.4,3.82-8.947,5.569l-2.493,9.929v13.879Z" transform="translate(-301.783 -178.499)" fill="#37474f"/>
          <path id="Trazado_108826" data-name="Trazado 108826" d="M345.378,276.5l-2.882-1.662a28.192,28.192,0,0,0-.5-4.8c.572-.939,1.263-2.094,2.018-3.389a36.778,36.778,0,0,1,1.36,9.853Z" transform="translate(-303.731 -180.231)" fill="#d9a171"/>
          <path id="Trazado_108827" data-name="Trazado 108827" d="M345.378,276.5l-2.882-1.662a28.192,28.192,0,0,0-.5-4.8c.572-.939,1.263-2.094,2.018-3.389a36.778,36.778,0,0,1,1.36,9.853Z" transform="translate(-303.731 -180.231)" opacity="0.5"/>
          <path id="Trazado_108828" data-name="Trazado 108828" d="M346.714,276.819l-.119-.917-.086.065V275.9l-2.871-1.662c-.378,1.079-.82,2.525-1.284,4.144-5.914,3.421-15.864,9.141-15.864,9.141l3.033,23.149,19.955-11.58h0a1.8,1.8,0,0,0,.831-1.025C351.15,295.641,347.642,280.694,346.714,276.819Z" transform="translate(-304.96 -179.63)" fill="#d9a171"/>
          <path id="Trazado_108829" data-name="Trazado 108829" d="M346.714,276.819l-.119-.917-.086.065V275.9l-2.871-1.662c-.378,1.079-.82,2.525-1.284,4.144-5.914,3.421-15.864,9.141-15.864,9.141l3.033,23.149,19.955-11.58h0a1.8,1.8,0,0,0,.831-1.025C351.15,295.641,347.642,280.694,346.714,276.819Z" transform="translate(-304.96 -179.63)" opacity="0.2"/>
          <path id="Trazado_108830" data-name="Trazado 108830" d="M346.809,275.9l-20.138,11.623-2.871-1.662,20.138-11.623Z" transform="translate(-305.173 -179.63)" fill="#d9a171"/>
          <path id="Trazado_108831" data-name="Trazado 108831" d="M327.55,291.937s-.119.529,1.835.95,10.091.324,11.17-.313,3.95-4.177,5.256-6.551a31.771,31.771,0,0,0,2.04-4.533Z" transform="translate(-304.876 -179.056)" opacity="0.2"/>
          <path id="Trazado_108832" data-name="Trazado 108832" d="M324.125,285c-1.673,4.846-4.867,17.267-4.382,19.145s2.935,3.238,4.382,4.112,5.72,3.3,6.691.54-3.81-22.135-3.81-22.135Z" transform="translate(-305.498 -178.778)" fill="#d9a171"/>
          <path id="Trazado_108833" data-name="Trazado 108833" d="M324.125,285c-1.673,4.846-4.867,17.267-4.382,19.145s2.935,3.238,4.382,4.112,5.72,3.3,6.691.54-3.81-22.135-3.81-22.135Z" transform="translate(-305.498 -178.778)" opacity="0.3"/>
          <path id="Trazado_108834" data-name="Trazado 108834" d="M326.47,287.4c0,.291.432,3.831,1.166,4.986s10.63.475,12.314,0,7.77-9.109,7.986-10.447-1.338-6.162-1.338-6.162Z" transform="translate(-304.961 -179.508)" fill="#d9a171"/>
          <path id="Trazado_108835" data-name="Trazado 108835" d="M326.47,287.4c0,.291.432,3.831,1.166,4.986s10.63.475,12.314,0,7.77-9.109,7.986-10.447-1.338-6.162-1.338-6.162Z" transform="translate(-304.961 -179.508)" opacity="0.1"/>
          <path id="Trazado_108836" data-name="Trazado 108836" d="M338.61,289.611c.054.432.378.572.723.313a1.511,1.511,0,0,0,.55-1.252c-.054-.432-.378-.572-.723-.313a1.543,1.543,0,0,0-.55,1.252Z" transform="translate(-304 -178.522)" fill="#d9a171"/>
          <path id="Trazado_108837" data-name="Trazado 108837" d="M337.063,258.61C326.487,260.445,323.8,287.1,323.8,287.1l2.882,1.662c.518-15.756,7.144-26.861,9.486-28.232Z" transform="translate(-305.173 -180.868)" fill="#d9a171"/>
          <path id="Trazado_108838" data-name="Trazado 108838" d="M337.063,258.61C326.487,260.445,323.8,287.1,323.8,287.1l2.882,1.662c.518-15.756,7.144-26.861,9.486-28.232Z" transform="translate(-305.173 -180.868)" opacity="0.3"/>
        </g>
      </g>
    </g>
  </g>
</svg>
