<svg id="Componente_13_1" data-name="Componente 13 – 1" xmlns="http://www.w3.org/2000/svg" width="60" height="60" viewBox="0 0 60 60">
  <g id="Grupo_59808" data-name="Grupo 59808" transform="translate(-390 -7390)">
    <g id="Grupo_59508" data-name="Grupo 59508" transform="translate(205 -84)">
      <circle id="Elipse_4191" data-name="Elipse 4191" cx="30" cy="30" r="30" transform="translate(185 7474)" fill="#6595bf"/>
    </g>
    <g id="handshake" transform="translate(397 7362.561)">
      <path id="Trazado_113531" data-name="Trazado 113531" d="M245.461,143.549l-6.49,5.285,10.007,13.831,13.416-9.523-8.681-11.8-4.5,3.444Z" transform="translate(-217.765 -93.773)" fill="#fef0bf"/>
      <path id="Trazado_113532" data-name="Trazado 113532" d="M366.441,69.465l1.841-1.46V45.955l-13.263,8.513Z" transform="translate(-323.514 -6.849)" fill="#d9a171"/>
      <path id="Trazado_113533" data-name="Trazado 113533" d="M455.635,244.663l2.494,3.274,1.841-1.46v-4.67Z" transform="translate(-415.202 -185.321)" fill="#a66d58"/>
      <path id="Trazado_113534" data-name="Trazado 113534" d="M270.551,232.371l-14.365-7.83,2.042-3.747,14.365,7.83a2.134,2.134,0,0,1,.852,2.895h0A2.134,2.134,0,0,1,270.551,232.371Z" transform="translate(-233.452 -166.173)" fill="#fef8df"/>
      <path id="Trazado_113535" data-name="Trazado 113535" d="M343.447,292.211l-7.828-4.267-.921,1.586,7.4,4.032a2.132,2.132,0,0,0,3.046-1.2A2.128,2.128,0,0,1,343.447,292.211Z" transform="translate(-304.997 -227.365)" fill="#fef0bf"/>
      <path id="Trazado_113536" data-name="Trazado 113536" d="M233.458,266.926l-14.365-7.83,2.043-3.747,14.365,7.83a2.134,2.134,0,0,1,.852,2.895h0A2.134,2.134,0,0,1,233.458,266.926Z" transform="translate(-199.651 -197.661)" fill="#f2e9e4"/>
      <path id="Trazado_113537" data-name="Trazado 113537" d="M317.917,334.92l-6.564-3.578-.829,1.426,6.251,3.407a2.132,2.132,0,0,0,3.041-1.185A2.13,2.13,0,0,1,317.917,334.92Z" transform="translate(-282.969 -266.911)" fill="#fef0bf"/>
      <path id="Trazado_113538" data-name="Trazado 113538" d="M196.365,301.482,182,293.652l2.042-3.747,14.365,7.83a2.134,2.134,0,0,1,.852,2.895h0A2.134,2.134,0,0,1,196.365,301.482Z" transform="translate(-165.85 -229.151)" fill="#fef8df"/>
      <path id="Trazado_113539" data-name="Trazado 113539" d="M292.631,376.437l-5.479-2.986-.8,1.381,5.1,2.782a2.131,2.131,0,0,0,3-1.073A2.129,2.129,0,0,1,292.631,376.437Z" transform="translate(-260.94 -305.283)" fill="#fef0bf"/>
      <path id="Trazado_113540" data-name="Trazado 113540" d="M159.272,336.039l-14.365-7.83,2.043-3.747,14.365,7.829a2.134,2.134,0,0,1,.852,2.895h0A2.134,2.134,0,0,1,159.272,336.039Z" transform="translate(-132.048 -260.641)" fill="#fef8df"/>
      <path id="Trazado_113541" data-name="Trazado 113541" d="M267.42,415.984l-4.367-2.38-.877,1.509,3.958,2.157a2.134,2.134,0,0,0,2.895-.852h0a2.161,2.161,0,0,0,.135-.3A2.128,2.128,0,0,1,267.42,415.984Z" transform="translate(-238.911 -341.873)" fill="#fef0bf"/>
      <path id="Trazado_113542" data-name="Trazado 113542" d="M38.872,160.63l7.361,3.1-8.17,14.989-14.517-7.743,7.113-12.8,4.9,2.845Z" transform="translate(-21.458 -109.109)" fill="#f2e9e4"/>
      <rect id="Rectángulo_8864" data-name="Rectángulo 8864" width="3.556" height="18.852" transform="matrix(-0.866, -0.5, 0.5, -0.866, 4.191, 64.874)" fill="#f4f6f7"/>
      <path id="Trazado_113543" data-name="Trazado 113543" d="M18.242,74.29,7.516,68.1V89.865l1.3.751Z" transform="translate(-6.849 -27.026)" fill="#a66d58"/>
      <path id="Trazado_113544" data-name="Trazado 113544" d="M12.518,275.832l3.08,1.778,2.29-3.966-3.1-1.752Z" transform="translate(-11.407 -212.736)" fill="#eaecee"/>
      <path id="Trazado_113545" data-name="Trazado 113545" d="M7.516,259.773l1.3.751,2.279-3.947L7.516,254.55Z" transform="translate(-6.849 -196.933)" fill="#865a4a"/>
      <path id="Trazado_113546" data-name="Trazado 113546" d="M88.2,291.618a2.134,2.134,0,0,0-2.943-.429L80.541,294.6a2.134,2.134,0,0,0-.478,2.98h0a2.134,2.134,0,0,0,2.98.478l4.717-3.413a2.134,2.134,0,0,0,.441-3.028Z" transform="translate(-72.589 -229.951)" fill="#fef0bf"/>
      <path id="Trazado_113547" data-name="Trazado 113547" d="M89.763,293.183h0a2.123,2.123,0,0,0-.9-.682,2.134,2.134,0,0,1-.73,2.522l-4.717,3.413a2.132,2.132,0,0,1-2.044.252,2.135,2.135,0,0,0,3.233.937l4.717-3.413A2.134,2.134,0,0,0,89.763,293.183Z" transform="translate(-74.151 -231.516)" fill="#fde9a0"/>
      <path id="Trazado_113548" data-name="Trazado 113548" d="M125.515,329.347l-3.625,2.623a2.173,2.173,0,0,0-.492,3.041,2.134,2.134,0,0,0,2.955.445l3.663-2.651a2.134,2.134,0,0,0,.442-3.029h0A2.134,2.134,0,0,0,125.515,329.347Z" transform="translate(-110.246 -264.724)" fill="#fef0bf"/>
      <path id="Trazado_113549" data-name="Trazado 113549" d="M129.956,331.366h0a2.123,2.123,0,0,0-.894-.679,2.134,2.134,0,0,1-.728,2.527l-3.663,2.651a2.132,2.132,0,0,1-2.046.252,2.057,2.057,0,0,0,.271.484,2.134,2.134,0,0,0,2.955.445l3.663-2.651A2.134,2.134,0,0,0,129.956,331.366Z" transform="translate(-111.743 -266.314)" fill="#fde9a0"/>
      <path id="Trazado_113550" data-name="Trazado 113550" d="M162.9,369.394a2.134,2.134,0,0,0-.478,2.98h0a2.134,2.134,0,0,0,2.98.478l2.61-1.888a2.134,2.134,0,0,0,.442-3.029h0a2.134,2.134,0,0,0-2.943-.429Z" transform="translate(-147.64 -299.496)" fill="#fef0bf"/>
      <path id="Trazado_113551" data-name="Trazado 113551" d="M169.7,369.185h0a2.124,2.124,0,0,0-.983-.713,2.134,2.134,0,0,1-.762,2.438l-2.61,1.888a2.131,2.131,0,0,1-1.96.283,2.134,2.134,0,0,0,.284.542h0a2.134,2.134,0,0,0,2.98.478l2.61-1.888A2.134,2.134,0,0,0,169.7,369.185Z" transform="translate(-148.886 -300.746)" fill="#fde9a0"/>
      <path id="Trazado_113552" data-name="Trazado 113552" d="M204.082,406.79a2.134,2.134,0,0,0-.478,2.98h0a2.134,2.134,0,0,0,2.98.478l1.556-1.126a2.134,2.134,0,0,0,.442-3.029h0a2.134,2.134,0,0,0-2.943-.429Z" transform="translate(-185.167 -334.269)" fill="#fef0bf"/>
      <path id="Trazado_113553" data-name="Trazado 113553" d="M210.057,407.578h0a2.124,2.124,0,0,0-.921-.69,2.134,2.134,0,0,1-.739,2.5l-1.556,1.126a2.131,2.131,0,0,1-2.023.26,2.135,2.135,0,0,0,3.241.958l1.556-1.126A2.134,2.134,0,0,0,210.057,407.578Z" transform="translate(-186.644 -335.753)" fill="#fde9a0"/>
      <path id="Trazado_113554" data-name="Trazado 113554" d="M217.153,166.189l-3.556,5.69v5.69a2.845,2.845,0,0,1-2.845,2.845h0a2.845,2.845,0,0,1-2.845-2.845v-5.69l1.423-5.69Z" transform="translate(-189.457 -116.413)" fill="#fef0bf"/>
      <path id="Trazado_113555" data-name="Trazado 113555" d="M210.04,177.57v-5.69l1.423-5.69h-2.134l-1.423,5.69v5.69a2.845,2.845,0,0,0,2.845,2.845h0a2.836,2.836,0,0,0,1.067-.208A2.845,2.845,0,0,1,210.04,177.57Z" transform="translate(-189.457 -116.413)" fill="#fde9a0"/>
      <path id="Trazado_113556" data-name="Trazado 113556" d="M44.353,80.81l-1.308,1.037L32.472,67.966l6.044-3.879a.667.667,0,0,0-.72-1.122l-6.652,4.27a.674.674,0,0,0-.17.965l1.211,1.59-.861.659-3.418-1.129a.68.68,0,0,0-.209-.034H19.872a.667.667,0,0,0-.647.505l-.44,1.761-1.111-.468a.667.667,0,0,0-.336-.048l-3.091.362-1.05-.61,1-1.73a.674.674,0,0,0-.244-.911L1,60.67a.667.667,0,1,0-.667,1.155l10.149,5.86L1.723,82.856,1,82.438a.667.667,0,1,0-.667,1.155l3.524,2.035a.673.673,0,0,0,.911-.244l.51-.883,1.439.767a2.8,2.8,0,0,0,3.352,3.951,2.735,2.735,0,0,0,.551,1.646,2.822,2.822,0,0,0,3.093.98,2.8,2.8,0,0,0,2.355,2.724,2.831,2.831,0,0,0,.45.036,2.772,2.772,0,0,0,.848-.133,2.8,2.8,0,0,0,2.357,2.721,2.819,2.819,0,0,0,.45.036,2.779,2.779,0,0,0,1.636-.532l1.556-1.126a2.79,2.79,0,0,0,.8-.9L26.9,96.159a2.8,2.8,0,0,0,4.124-2.771,2.8,2.8,0,0,0,3.29-3.067,2.8,2.8,0,0,0,3.293-3.065,2.762,2.762,0,0,0,.5.047,2.812,2.812,0,0,0,.795-.115,2.8,2.8,0,0,0,1.9-3.478,2.835,2.835,0,0,0-.2-.494l1.17-.83.618.811a.674.674,0,0,0,.945.118l1.841-1.46a.667.667,0,0,0-.829-1.045ZM3.947,84.139l-1.068-.617,8.759-15.171,1.068.617Zm4.067,3.276a1.469,1.469,0,0,1,.329-2.049l4.717-3.413a1.467,1.467,0,0,1,1.72,2.377l-4.718,3.413A1.469,1.469,0,0,1,8.014,87.416Zm3.671,2.647a1.517,1.517,0,0,1,.35-2.1l3.526-2.551a2.4,2.4,0,0,1,.391-.237,1.458,1.458,0,0,1,1.732.46,1.481,1.481,0,0,1-.3,2.082l-3.664,2.651A1.474,1.474,0,0,1,11.685,90.062Zm4.593,3.189a1.467,1.467,0,0,1-.629-2.636L18.163,88.8l.1-.071a1.46,1.46,0,0,1,2.024.295,1.481,1.481,0,0,1-.3,2.082l-2.61,1.888A1.455,1.455,0,0,1,16.279,93.252Zm6.894.261a1.455,1.455,0,0,1-.592.977l-1.556,1.126a1.467,1.467,0,0,1-1.72-2.377l1.457-1.054.1-.072a1.475,1.475,0,0,1,2.023.295A1.455,1.455,0,0,1,23.173,93.513ZM39.408,85.2a1.481,1.481,0,0,1-1.99.586l-7.71-4.2a.667.667,0,0,0-.638,1.171l6.461,3.521a1.467,1.467,0,1,1-1.4,2.576l-6.555-3.573a.667.667,0,0,0-.638,1.171l5.307,2.893a1.467,1.467,0,0,1-1.405,2.576l-5.556-3.029a.667.667,0,0,0-.638,1.171l4.307,2.348a1.467,1.467,0,1,1-1.4,2.576l-3.021-1.647A2.809,2.809,0,0,0,21.86,90.5c.013-.059.024-.119.033-.179a2.809,2.809,0,0,0-2.633-3.207c.013-.059.024-.119.033-.179a2.809,2.809,0,0,0-2.633-3.207c.013-.059.024-.119.033-.179a2.779,2.779,0,0,0-.55-2.11h0a2.787,2.787,0,0,0-3.863-.563L7.624,84.24l-1.679-.9,6.583-11.4,1.24.72a.668.668,0,0,0,.412.086l3.137-.367,1.14.48-.655,2.62a.671.671,0,0,0-.02.162v5.69a3.512,3.512,0,1,0,7.024,0v-5.5l.121-.194,13.894,7.573A1.481,1.481,0,0,1,39.408,85.2Zm.318-3a2.856,2.856,0,0,0-.266-.165L25.636,74.507l.513-.821a.667.667,0,0,0-1.131-.707l-1.444,2.31a.668.668,0,0,0-.1.353v5.69a2.178,2.178,0,0,1-4.357,0V75.725l1.276-5.106h7.2l3.651,1.206a.672.672,0,0,0,.615-.1l1.138-.871L40.97,81.324Z" transform="translate(0 -20.176)"/>
      <path id="Trazado_113557" data-name="Trazado 113557" d="M455.536,42.171a.664.664,0,0,0,.36-.106l3.736-2.4a.667.667,0,1,0-.72-1.122l-3.736,2.4a.667.667,0,0,0,.361,1.228Z" transform="translate(-414.504 0)"/>
    </g>
  </g>
</svg>
