<svg id="Componente_6_1" data-name="Componente 6 – 1" xmlns="http://www.w3.org/2000/svg" width="60" height="60" viewBox="0 0 60 60">
  <g id="Grupo_59494" data-name="Grupo 59494" transform="translate(-185 -7474)">
    <circle id="Elipse_4191" data-name="Elipse 4191" cx="30" cy="30" r="30" transform="translate(185 7474)" fill="#6595bf"/>
  </g>
  <g id="pelo" transform="translate(-21.431 7.333)">
    <path id="Trazado_113448" data-name="Trazado 113448" d="M74.662,168.575l-12.357-3.593V152.326a10,10,0,0,0-9.824-8.122H50.092v10a7.959,7.959,0,0,0,3.717,6.738v4.04l-12.357,3.593a3.54,3.54,0,0,0-2.511,3.387,31.392,31.392,0,0,0-.649,4.545c.15.525,2.192,1.876,4.475,3.325a31.123,31.123,0,0,0,15.325,4.325c3.909,0,4,.23,9.644-1.462a26.478,26.478,0,0,0,9.438-5.2l.643-.544-.643-4.989A3.54,3.54,0,0,0,74.662,168.575Z" transform="translate(-6.873 -131.504)" fill="#ffdaaa"/>
    <path id="Trazado_113449" data-name="Trazado 113449" d="M216.26,338.311v-4.04a7.927,7.927,0,0,1-4.248,1.227h0a7.927,7.927,0,0,1-4.248-1.227v2.02a9.729,9.729,0,0,0,6.726.656v12.976h13.585v-8.178Z" transform="translate(-160.828 -304.832)" fill="#ffc477"/>
    <path id="Trazado_113450" data-name="Trazado 113450" d="M98.394,7.537h0A14.735,14.735,0,0,0,83.659,22.272V27.8a10.784,10.784,0,0,0,10.8,10.708h.133v-2.2a7.959,7.959,0,0,1-3.717-6.738v-10h2.389a10,10,0,0,1,9.824,8.122v24.27H113.13V22.272A14.735,14.735,0,0,0,98.394,7.537Z" transform="translate(-47.653 -6.873)" fill="#d9a171"/>
    <path id="Trazado_113451" data-name="Trazado 113451" d="M264.7,38.671a9.192,9.192,0,0,0-.52-1.209l1.178-.611a10.5,10.5,0,0,1,.6,1.384ZM263.536,36.4A9.225,9.225,0,0,0,256,32.479V31.152a10.554,10.554,0,0,1,8.622,4.49Z" transform="translate(-204.816 -28.408)" fill="#fff"/>
    <path id="Trazado_113452" data-name="Trazado 113452" d="M150.948,155.632v-2.02a7.959,7.959,0,0,1-3.717-6.738V136.165h-1.77v10.709A9.747,9.747,0,0,0,150.948,155.632Z" transform="translate(-104.012 -124.173)" fill="#dba34b"/>
    <path id="Trazado_113453" data-name="Trazado 113453" d="M167.948,144.2h-2.389v1.77h.619c4.881,0,9.824,3.452,9.824,8.122v7.68a7.941,7.941,0,0,0,1.77-.833v-8.616A10,10,0,0,0,167.948,144.2Z" transform="translate(-122.34 -131.504)" fill="#ffc477"/>
    <rect id="Rectángulo_8862" data-name="Rectángulo 8862" width="1.328" height="22.479" transform="translate(61.524 22.612)"/>
    <rect id="Rectángulo_8863" data-name="Rectángulo 8863" width="1.328" height="15.399" transform="translate(58.235 29.692)"/>
    <path id="Trazado_113454" data-name="Trazado 113454" d="M446.035,415.4l-.514,1.276a2.994,2.994,0,0,1,1.762,2.763v4.828h1.328v-4.828A4.377,4.377,0,0,0,446.035,415.4Z" transform="translate(-377.646 -378.815)"/>
    <path id="Trazado_113455" data-name="Trazado 113455" d="M50.741,0a15.417,15.417,0,0,0-15.4,15.4v5.532A11.426,11.426,0,0,0,46.272,32.29v.69L34.386,36.436A4.18,4.18,0,0,0,31.4,40.459v4.633h1.328V40.458a2.858,2.858,0,0,1,2.033-2.75L47.6,33.977V30.549a8.623,8.623,0,0,0,7.169,0V45.091H56.1V20.759l-.012-.061a10.669,10.669,0,0,0-10.476-8.662H42.555V22.7a8.625,8.625,0,0,0,3.717,7.09v1.171a10.1,10.1,0,0,1-9.6-10.031V15.4a14.072,14.072,0,0,1,28.143,0V43.764h-.044v1.327h1.372V15.4A15.417,15.417,0,0,0,50.741,0ZM43.883,22.7V13.364h1.726a9.34,9.34,0,0,1,9.16,7.522v8.176A7.3,7.3,0,0,1,43.883,22.7Z"/>
  </g>
</svg>
