<svg xmlns="http://www.w3.org/2000/svg" xmlns:xlink="http://www.w3.org/1999/xlink" width="394.15" height="343.563" viewBox="0 0 394.15 343.563">
  <defs>
    <clipPath id="clip-path">
      <path id="Trazado_111366" data-name="Trazado 111366" d="M193.44,122l73.17-42.25c1.31-.76,2.37-.14,2.37,1.37V193.53a5.25,5.25,0,0,1-2.37,4.11l-73.17,42.17c-1.31.75-2.38.14-2.38-1.37V126.13a5.21,5.21,0,0,1,2.38-4.13Z" fill="none"/>
    </clipPath>
  </defs>
  <g id="Active_Support-amico" data-name="Active Support-amico" transform="translate(-65.53 -55.49)">
    <g id="freepik--Shadow--inject-267">
      <ellipse id="freepik--shadow--inject-267-2" data-name="freepik--shadow--inject-267" cx="51.39" cy="32.22" rx="51.39" ry="32.22" transform="translate(356.9 331.31)" fill="#e6e6e6"/>
    </g>
    <g id="freepik--Device--inject-267">
      <g id="freepik--Laptop--inject-267">
        <path id="Trazado_111301" data-name="Trazado 111301" d="M73.69,320.39a9.32,9.32,0,0,0,4.36,7.23L200,398a9.6,9.6,0,0,0,8.7,0l166.83-96.32a8.18,8.18,0,0,0,0-14.45L253.6,216.83a9.66,9.66,0,0,0-8.7,0L78.05,313.17A9.31,9.31,0,0,0,73.69,320.39Z" fill="#37474f"/>
        <path id="Trazado_111302" data-name="Trazado 111302" d="M204.33,389.64v9.41a8.88,8.88,0,0,1-4.35-1L78,327.62a8.15,8.15,0,0,1-.44-14.17c-1.95,1.4-1.8,3.45.44,4.74l122,70.4A8.89,8.89,0,0,0,204.33,389.64Z" fill="#263238"/>
        <path id="Trazado_111303" data-name="Trazado 111303" d="M69.61,313.32a9.34,9.34,0,0,1-4.08-7.38V160.43a9.61,9.61,0,0,1,4.35-7.53L236.71,56.58a9.34,9.34,0,0,1,8.44-.16,9.34,9.34,0,0,1,4.08,7.38V209.31a9.61,9.61,0,0,1-4.35,7.53L78.05,313.17a9.37,9.37,0,0,1-8.44.15Z" fill="#455a64"/>
        <path id="Trazado_111304" data-name="Trazado 111304" d="M77.53,313.43a9.39,9.39,0,0,1-7.92-.11,9.34,9.34,0,0,1-4.08-7.38V160.43a8.72,8.72,0,0,1,1.28-4.28l8.16,4.7h0a8.89,8.89,0,0,0-1.28,4.28V310.65C73.69,313.23,75.37,314.38,77.53,313.43Z" fill="#263238"/>
        <path id="Trazado_111305" data-name="Trazado 111305" d="M73.69,165.15v145.5c0,2.78,2,3.9,4.36,2.52l166.83-96.33a9.61,9.61,0,0,0,4.35-7.53V63.8c0-2.77-1.95-3.9-4.35-2.51L78.05,157.61a9.61,9.61,0,0,0-4.36,7.54Z" fill="#37474f"/>
        <path id="Trazado_111306" data-name="Trazado 111306" d="M78.05,318.19,200,388.59a9.66,9.66,0,0,0,8.7,0l166.83-96.32c2.41-1.39,2.41-3.64,0-5L253.6,216.87a9.66,9.66,0,0,0-8.7,0L78.05,313.17C75.64,314.55,75.64,316.8,78.05,318.19Z" fill="#455a64"/>
        <path id="Trazado_111307" data-name="Trazado 111307" d="M80.39,165.69,241.24,72.84c1.44-.83,2.61-.15,2.61,1.51v126a5.78,5.78,0,0,1-2.61,4.52L80.39,297.67c-1.45.83-2.62.16-2.62-1.51v-126A5.74,5.74,0,0,1,80.39,165.69Z" fill="#fafafa"/>
        <path id="Trazado_111308" data-name="Trazado 111308" d="M92.2,314.42,247.06,225a4.77,4.77,0,0,1,4.35,0l7.92,4.57a1.33,1.33,0,0,1,0,2.51L104.45,321.49a4.77,4.77,0,0,1-4.35,0l-7.9-4.56a1.33,1.33,0,0,1,0-2.51Z" fill="#37474f"/>
        <path id="Trazado_111309" data-name="Trazado 111309" d="M112.61,326.21,267.47,236.8a4.83,4.83,0,0,1,4.35,0l48.72,28.13a1.33,1.33,0,0,1,0,2.51L165.86,356.72a4.82,4.82,0,0,1-4.36,0l-48.88-28a1.32,1.32,0,0,1-.01-2.51Z" fill="#263238"/>
        <path id="Trazado_111310" data-name="Trazado 111310" d="M251.43,277l4.84-2.79c.21-.12.2-.32,0-.45l-5.61-3.24a.84.84,0,0,0-.77,0l-4.85,2.8c-.21.11-.2.31,0,.44l5.6,3.24A.86.86,0,0,0,251.43,277Zm-9.57-11.12L237,268.7c-.21.12-.19.32,0,.45l5.6,3.23a.86.86,0,0,0,.78,0l4.85-2.8a.246.246,0,0,0,0-.45l-5.61-3.23a.84.84,0,0,0-.76,0ZM226.19,275l-8.2,4.73c-.21.12-.2.32,0,.45l5.6,3.24a.89.89,0,0,0,.78,0l8.2-4.73c.21-.12.19-.32,0-.45L227,275A.86.86,0,0,0,226.19,275Zm8.58-5-4.85,2.8a.246.246,0,0,0,0,.45l5.61,3.24a.87.87,0,0,0,.77,0l4.85-2.8a.239.239,0,0,0,0-.44L235.54,270A.84.84,0,0,0,234.77,270Zm-19,11-4.85,2.79a.246.246,0,0,0,0,.45l5.61,3.24a.84.84,0,0,0,.77,0l4.85-2.8c.2-.11.19-.31,0-.44L216.52,281a.84.84,0,0,0-.77,0Zm-7.09,4.09-4.84,2.8c-.21.11-.2.31,0,.44l5.61,3.24a.87.87,0,0,0,.77,0l4.85-2.8c.21-.12.19-.32,0-.45l-5.6-3.24a.86.86,0,0,0-.81-.01Zm22.06,13.16,4.85-2.8a.246.246,0,0,0,0-.45l-5.61-3.23a.84.84,0,0,0-.77,0l-4.85,2.8c-.21.12-.19.32,0,.45l5.6,3.23a.86.86,0,0,0,.76-.02Zm-7.09,4.09,4.85-2.8c.21-.12.19-.32,0-.45l-5.6-3.23a.86.86,0,0,0-.78,0l-4.85,2.8a.246.246,0,0,0,0,.45l5.61,3.24a.87.87,0,0,0,.75-.03Zm-7.09,4.09,4.85-2.8a.234.234,0,0,0,0-.44l-5.6-3.24a.84.84,0,0,0-.77,0l-4.85,2.8c-.21.12-.2.32,0,.45l5.61,3.24a.87.87,0,0,0,.74-.03Zm-7.08,4.09,4.85-2.8c.2-.11.19-.31,0-.44L208.67,304a.84.84,0,0,0-.77,0l-4.85,2.79c-.21.12-.19.32,0,.45l5.6,3.24a.86.86,0,0,0,.81.02Zm34.88-29.38,4.85-2.8a.246.246,0,0,0,0-.45l-5.61-3.24a.87.87,0,0,0-.77,0l-4.85,2.8a.239.239,0,0,0,0,.44l5.61,3.24a.87.87,0,0,0,.75-.01Zm-6.54,13,10.82-6.25c.21-.12.19-.32,0-.44L235,279.59a.86.86,0,0,0-.78,0l-5.59,3.23c-.21.12-.2.32,0,.45l7.2,4.16c.23.13.24.33,0,.44l-4.47,2.59c-.21.12-.2.32,0,.45l5.61,3.23a.84.84,0,0,0,.83,0Zm-36.22-5-4.85,2.8c-.21.12-.19.32,0,.44l5.6,3.24a.86.86,0,0,0,.78,0l4.84-2.8c.21-.12.2-.32,0-.45l-5.61-3.24a.87.87,0,0,0-.78.03Zm-7.09,4.09-4.85,2.8a.246.246,0,0,0,0,.45l5.61,3.23a.84.84,0,0,0,.77,0l4.85-2.8a.246.246,0,0,0,0-.45l-5.61-3.23a.84.84,0,0,0-.79.02ZM159.1,339.11a.87.87,0,0,0,.77,0l4.85-2.8a.234.234,0,0,0,0-.44l-5.6-3.24a.89.89,0,0,0-.78,0l-4.84,2.8c-.21.12-.2.32,0,.45ZM137.8,326l-4.85,2.8a.246.246,0,0,0,0,.45l5.61,3.23a.84.84,0,0,0,.77,0l4.85-2.8a.246.246,0,0,0,0-.45L138.57,326A.84.84,0,0,0,137.8,326Zm11.41,9.6a.87.87,0,0,0,.77,0l4.85-2.8a.246.246,0,0,0,0-.45l-5.61-3.24a.84.84,0,0,0-.77,0l-4.85,2.8c-.2.12-.19.31,0,.44Zm22.38,6,4.85-2.8c.21-.11.19-.31,0-.44l-5.6-3.24a.86.86,0,0,0-.78,0l-4.85,2.79a.246.246,0,0,0,0,.45l5.61,3.24a.84.84,0,0,0,.77.01Zm-7.86,4.08a.89.89,0,0,0,.78,0l4.84-2.8c.21-.12.2-.32,0-.45l-5.61-3.24a.84.84,0,0,0-.77,0L158.1,342c-.21.11-.2.31,0,.44Zm-18.84-23.8-4.85,2.8a.234.234,0,0,0,0,.44l5.6,3.24a.84.84,0,0,0,.77,0l4.85-2.8c.21-.12.2-.32,0-.45l-5.61-3.24a.87.87,0,0,0-.76.02Zm35.43-20.46-4.85,2.8c-.21.12-.19.32,0,.45l5.6,3.23a.86.86,0,0,0,.78,0l4.85-2.8a.246.246,0,0,0,0-.45l-5.61-3.23a.84.84,0,0,0-.77.01ZM152,317.8l-4.85,2.8a.239.239,0,0,0,0,.44l5.61,3.24a.84.84,0,0,0,.77,0l4.85-2.8c.21-.12.19-.32,0-.45l-5.6-3.24a.89.89,0,0,0-.78.01Zm35.43-20.46-4.84,2.8c-.21.12-.2.32,0,.45l5.61,3.23a.84.84,0,0,0,.77,0l4.85-2.8c.21-.12.2-.32,0-.45l-5.6-3.23a.86.86,0,0,0-.82,0Zm-14.17,8.18-4.85,2.8a.246.246,0,0,0,0,.45L174,312a.87.87,0,0,0,.77,0l4.85-2.8c.21-.12.19-.32,0-.44L174,305.54a.84.84,0,0,0-.77-.02Zm-7.08,4.09-4.85,2.8c-.21.12-.2.32,0,.45l5.61,3.24a.84.84,0,0,0,.77,0l4.85-2.8a.234.234,0,0,0,0-.44l-5.61-3.24a.87.87,0,0,0-.8-.01Zm-7.09,4.1-4.85,2.8c-.21.11-.19.31,0,.44l5.6,3.24a.86.86,0,0,0,.78,0l4.85-2.79a.246.246,0,0,0,0-.45l-5.61-3.24a.84.84,0,0,0-.8,0Zm36.22,5,4.85-2.8c.21-.12.2-.32,0-.45l-5.61-3.24a.87.87,0,0,0-.77,0l-4.85,2.8a.234.234,0,0,0,0,.44l5.61,3.24a.84.84,0,0,0,.74-.01Zm62.24-61.83-4.85,2.8a.239.239,0,0,0,0,.44l5.61,3.24a.84.84,0,0,0,.77,0l4.85-2.8c.21-.12.19-.32,0-.45l-5.6-3.24a.89.89,0,0,0-.81-.01Zm-8.58,4.95-4.84,2.8c-.21.12-.2.32,0,.45l5.61,3.23a.84.84,0,0,0,.77,0l4.85-2.8c.21-.12.2-.32,0-.45l-5.6-3.23a.86.86,0,0,0-.82-.02Zm15.67-9-4.85,2.8c-.21.11-.19.31,0,.44l5.6,3.24a.89.89,0,0,0,.78,0l4.85-2.8a.246.246,0,0,0,0-.45l-5.61-3.24a.84.84,0,0,0-.8-.05Zm-36.68,37.82,4.85-2.8a.246.246,0,0,0,0-.45l-5.61-3.23a.84.84,0,0,0-.77,0l-4.85,2.8a.246.246,0,0,0,0,.45l5.61,3.23a.84.84,0,0,0,.74-.06Zm44.54-41.9a.86.86,0,0,0-.78,0l-4.84,2.79c-.21.12-.2.32,0,.45l5.61,3.24a.84.84,0,0,0,.77,0l4.85-2.8c.21-.11.2-.31,0-.44Zm-70.1,65.9,4.85-2.79c.21-.12.19-.32,0-.45l-5.6-3.24a.86.86,0,0,0-.78,0L196,310.9c-.2.11-.19.31,0,.44l5.61,3.24a.84.84,0,0,0,.76.01Zm86.9-50.17,4.85-2.8c.21-.12.19-.32,0-.44l-5.6-3.24a.86.86,0,0,0-.78,0l-4.84,2.8c-.21.12-.2.32,0,.45l5.61,3.24a.87.87,0,0,0,.73-.07Zm-15.09-.53,4.85-2.8a.246.246,0,0,0,0-.45l-5.61-3.23a.84.84,0,0,0-.77,0l-4.85,2.8c-.21.12-.19.32,0,.45l5.6,3.23a.86.86,0,0,0,.75-.06Zm6.3-10.57a.86.86,0,0,0-.78,0l-4.84,2.8c-.21.12-.2.32,0,.45l5.61,3.23a.84.84,0,0,0,.77,0l4.85-2.8c.21-.12.2-.32,0-.45Zm1.49-.87,13.62,7.87a.87.87,0,0,0,.77,0l4.85-2.8a.239.239,0,0,0,0-.44l-13.62-7.87a.87.87,0,0,0-.77,0l-4.85,2.8c-.26.06-.25.26,0,.38Zm-16.44,9-4.85,2.8a.246.246,0,0,0,0,.45l5.61,3.23a.84.84,0,0,0,.77,0l4.85-2.8c.21-.12.19-.32,0-.45l-5.6-3.23a.86.86,0,0,0-.81-.03ZM212.2,292.27l-4.85,2.8c-.21.12-.19.32,0,.45l5.6,3.24a.86.86,0,0,0,.78,0l4.84-2.8c.21-.12.2-.31,0-.44L213,292.29A.87.87,0,0,0,212.2,292.27Zm69.21-23.77a.86.86,0,0,0,.78,0l4.85-2.8c.2-.11.19-.31,0-.44L281.4,262a.87.87,0,0,0-.77,0l-4.85,2.8c-.21.12-.19.32,0,.45Zm-62.13,19.68-4.84,2.8c-.21.12-.2.32,0,.45l5.61,3.24a.87.87,0,0,0,.77,0l4.85-2.8a.234.234,0,0,0,0-.44l-5.6-3.24a.86.86,0,0,0-.79-.01ZM166.17,335a.87.87,0,0,0,.77,0l4.85-2.8a.239.239,0,0,0,0-.44l-5.61-3.24a.84.84,0,0,0-.77,0l-4.85,2.8a.246.246,0,0,0,0,.45Zm-10.66-10-4.85,2.79c-.21.12-.2.32,0,.45l5.6,3.24a.86.86,0,0,0,.78,0l4.84-2.8c.21-.11.2-.31,0-.44l-5.6-3.24a.84.84,0,0,0-.77,0ZM174,331l4.84-2.8c.21-.12.2-.32,0-.45l-5.61-3.23a.84.84,0,0,0-.77,0l-4.85,2.8c-.21.12-.2.32,0,.45l5.6,3.23a.86.86,0,0,0,.79,0Zm7.08-4.09,4.85-2.8c.21-.12.19-.32,0-.45l-5.6-3.23a.86.86,0,0,0-.78,0l-4.85,2.8a.246.246,0,0,0,0,.45l5.61,3.23a.84.84,0,0,0,.8-.04Zm7.09-4.09,4.85-2.8a.246.246,0,0,0,0-.45l-5.61-3.24a.87.87,0,0,0-.77,0l-4.85,2.8c-.21.12-.19.32,0,.44l5.6,3.24a.86.86,0,0,0,.81-.03Zm-25.61-1.87-4.85,2.8a.246.246,0,0,0,0,.45l5.61,3.24a.87.87,0,0,0,.77,0l4.85-2.8c.21-.12.19-.32,0-.44l-5.6-3.24a.89.89,0,0,0-.75-.05Zm7.09-4.09-4.85,2.8c-.21.12-.19.32,0,.45l5.6,3.24a.89.89,0,0,0,.78,0l4.85-2.8a.239.239,0,0,0,0-.44l-5.61-3.24a.84.84,0,0,0-.74-.05ZM198,300.46l-4.84,2.8a.234.234,0,0,0,0,.44l5.61,3.24a.84.84,0,0,0,.77,0l4.85-2.8c.21-.12.2-.32,0-.45l-5.6-3.24a.89.89,0,0,0-.79.01Zm-7.08,4.09-4.85,2.8c-.21.12-.19.32,0,.44l5.6,3.24a.86.86,0,0,0,.78,0l4.85-2.8a.246.246,0,0,0,0-.45l-5.61-3.24a.87.87,0,0,0-.75.01Zm14.17-8.18-4.85,2.8c-.2.11-.19.31,0,.44l5.61,3.24a.84.84,0,0,0,.77,0l4.85-2.79a.246.246,0,0,0,0-.45l-5.61-3.24a.84.84,0,0,0-.75,0Zm-28.34,16.36-4.85,2.8c-.21.12-.2.32,0,.45l5.61,3.23a.84.84,0,0,0,.77,0l4.85-2.8c.21-.12.2-.32,0-.45l-5.61-3.23a.84.84,0,0,0-.75,0Zm7.08-4.09-4.85,2.8a.246.246,0,0,0,0,.45l5.61,3.23a.84.84,0,0,0,.77,0l4.85-2.8c.21-.12.19-.32,0-.45l-5.61-3.23a.84.84,0,0,0-.75,0Zm-5.17,28.88,4.85-2.8a.239.239,0,0,0,0-.44L177.89,331a.84.84,0,0,0-.77,0l-4.85,2.8c-.21.12-.19.32,0,.45l5.6,3.24a.89.89,0,0,0,.81.03Zm-41.59-4.2-5.6-3.23a.86.86,0,0,0-.78,0l-4.85,2.8a.246.246,0,0,0,0,.45l5.61,3.23a.84.84,0,0,0,.77,0l4.85-2.8c.26-.12.24-.32.02-.45Zm10.62,3.12-5.6-3.24a.89.89,0,0,0-.78,0l-7.46,4.3a.246.246,0,0,0,0,.45l5.61,3.24a.84.84,0,0,0,.77,0l7.46-4.3c.31-.12.24-.32.02-.45Zm-19.22-9.37-5.6-3.24a.86.86,0,0,0-.78,0l-6,3.45a.239.239,0,0,0,0,.44l5.61,3.24a.84.84,0,0,0,.77,0l6-3.45c.26-.12.24-.32.02-.44Zm4.58-2.65a.84.84,0,0,0,.77,0l4.85-2.8a.246.246,0,0,0,0-.45L133.05,318a.84.84,0,0,0-.77,0l-4.85,2.8a.246.246,0,0,0,0,.45ZM157.59,340,152,336.75a.84.84,0,0,0-.77,0l-9.33,5.38a.246.246,0,0,0,0,.45l5.61,3.23a.84.84,0,0,0,.77,0l9.32-5.38C157.82,340.32,157.81,340.12,157.59,340Zm4.65,6.56-5.61-3.24a.87.87,0,0,0-.77,0l-6,3.44a.246.246,0,0,0,0,.45l5.61,3.24a.87.87,0,0,0,.77,0l6-3.44c.23-.13.22-.33,0-.46ZM185.75,294a.89.89,0,0,0,.78,0l4.85-2.8a.239.239,0,0,0,0-.44l-5.61-3.24a.84.84,0,0,0-.77,0l-4.85,2.8c-.21.12-.19.32,0,.45Zm-14.17,8.18a.86.86,0,0,0,.78,0l4.84-2.8c.21-.11.2-.31,0-.44l-5.61-3.24a.87.87,0,0,0-.77,0L166,298.5c-.21.12-.2.32,0,.45Zm-31.43,18.14a.86.86,0,0,0,.78,0l4.84-2.8c.21-.12.2-.32,0-.45l-5.61-3.23a.84.84,0,0,0-.77,0l-4.85,2.8c-.21.12-.19.32,0,.45Zm38.52-22.23a.87.87,0,0,0,.77,0l4.85-2.8c.21-.12.19-.32,0-.44l-5.6-3.24a.86.86,0,0,0-.78,0l-4.85,2.8a.246.246,0,0,0,0,.45Zm-14.17,8.18a.84.84,0,0,0,.77,0l4.85-2.79a.246.246,0,0,0,0-.45l-5.61-3.24a.84.84,0,0,0-.77,0l-4.85,2.8c-.2.11-.19.31,0,.44Zm1.64,40.8a.86.86,0,0,0-.78,0l-7.46,4.31a.239.239,0,0,0,0,.44l5.61,3.24a.84.84,0,0,0,.77,0l7.46-4.31a.246.246,0,0,0,0-.45Zm-11.81-34.93a.87.87,0,0,0,.77,0l4.85-2.8a.246.246,0,0,0,0-.45l-5.61-3.24a.87.87,0,0,0-.77,0l-4.85,2.8a.239.239,0,0,0,0,.44Zm-7.09,4.09a.84.84,0,0,0,.77,0l4.85-2.8c.21-.12.2-.32,0-.45l-5.6-3.24a.89.89,0,0,0-.78,0l-4.84,2.8a.234.234,0,0,0,0,.44Zm150.18-45a.84.84,0,0,0-.77,0l-11.94,6.89a.246.246,0,0,0,0,.45l5.61,3.24a.87.87,0,0,0,.77,0L303.05,275a.234.234,0,0,0,0-.44Zm-15.67,9a.87.87,0,0,0-.77,0l-4.85,2.8a.239.239,0,0,0,0,.44l5.61,3.24a.87.87,0,0,0,.77,0l4.85-2.8a.246.246,0,0,0,0-.45Zm-96,53.11,4.85-2.8a.234.234,0,0,0,0-.44L185,327a.84.84,0,0,0-.77,0l-4.85,2.8c-.21.12-.2.32,0,.45l5.61,3.24a.87.87,0,0,0,.77-.06Zm81.82-44.92a.84.84,0,0,0-.77,0l-4.85,2.8c-.21.12-.19.32,0,.45l5.6,3.23a.86.86,0,0,0,.78,0l4.85-2.8a.246.246,0,0,0,0-.45ZM304.5,267.1a.86.86,0,0,0-.78,0l-4.85,2.8a.246.246,0,0,0,0,.45l5.61,3.23a.84.84,0,0,0,.77,0l4.85-2.8c.21-.12.19-.32,0-.45Zm12.69-.86-13.62-7.86a.84.84,0,0,0-.77,0l-4.85,2.8c-.21.11-.19.31,0,.44l13.61,7.86a.86.86,0,0,0,.78,0l4.85-2.8c.24-.02.23-.22.01-.35Zm-76.1,37.46a.87.87,0,0,0-.77,0l-6,3.44c-.21.12-.19.32,0,.45l5.6,3.24a.89.89,0,0,0,.78,0l6-3.44a.246.246,0,0,0,0-.45ZM259,293.46a.84.84,0,0,0-.77,0l-7.46,4.31a.246.246,0,0,0,0,.45l5.61,3.23a.84.84,0,0,0,.77,0l7.46-4.31a.239.239,0,0,0,0-.44Zm-34.31,19.81a.84.84,0,0,0-.77,0l-39.91,23c-.21.12-.19.32,0,.45l5.6,3.24a.89.89,0,0,0,.78,0l39.9-23a.234.234,0,0,0,0-.44ZM182.55,337.6a.86.86,0,0,0-.78,0l-6,3.44a.246.246,0,0,0,0,.45l5.61,3.23a.84.84,0,0,0,.77,0l6-3.45c.21-.11.19-.31,0-.44Zm50.35-29.07a.86.86,0,0,0-.78,0l-6,3.44c-.21.12-.2.32,0,.45l5.61,3.23a.84.84,0,0,0,.77,0l6-3.45c.21-.11.19-.31,0-.44Zm-58.56,33.81a.84.84,0,0,0-.77,0l-6,3.45c-.21.12-.19.32,0,.45l5.6,3.23a.86.86,0,0,0,.78,0l6-3.45a.234.234,0,0,0,0-.44Zm75-43.28a.86.86,0,0,0-.78,0l-6,3.45a.234.234,0,0,0,0,.44l5.61,3.24a.87.87,0,0,0,.77,0l6-3.45c.21-.12.19-.32,0-.45Zm25.36-14.65a.89.89,0,0,0-.78,0l-4.84,2.8a.234.234,0,0,0,0,.44l5.61,3.24a.84.84,0,0,0,.77,0l4.85-2.8c.21-.12.2-.32,0-.45Zm15.53-11.27,4.84-2.8c.21-.12.2-.32,0-.45l-5.61-3.23a.84.84,0,0,0-.77,0l-4.85,2.8c-.21.12-.2.32,0,.45l5.6,3.23a.86.86,0,0,0,.76,0Zm-31.69-.21,4.85-2.8c.21-.11.19-.31,0-.44l-5.6-3.24a.89.89,0,0,0-.78,0l-4.85,2.8a.246.246,0,0,0,0,.45l5.61,3.24a.84.84,0,0,0,.74-.01Zm-16,27.77,14.17-8.18a.246.246,0,0,0,0-.45L251,288.83a.87.87,0,0,0-.77,0L236.05,297c-.21.12-.2.32,0,.45l5.6,3.23a.86.86,0,0,0,.81.02Zm39.88-23.49a.84.84,0,0,0,.77,0l4.85-2.8a.246.246,0,0,0,0-.45l-5.61-3.23a.84.84,0,0,0-.77,0l-4.85,2.8a.246.246,0,0,0,0,.45Zm-7.24-4.6,4.85-2.8a.246.246,0,0,0,0-.45l-5.61-3.24a.84.84,0,0,0-.77,0l-4.85,2.8c-.2.11-.19.31,0,.44l5.61,3.24a.87.87,0,0,0,.69.01Zm-39.73,32.18,4.85-2.8a.239.239,0,0,0,0-.44l-5.61-3.24a.84.84,0,0,0-.77,0l-4.85,2.8a.246.246,0,0,0,0,.45l5.61,3.24a.87.87,0,0,0,.69-.01Zm31.3-18.53a.84.84,0,0,0,.77,0l4.85-2.8a.234.234,0,0,0,0-.44l-5.61-3.24a.87.87,0,0,0-.77,0l-4.85,2.8c-.21.12-.2.32,0,.45Zm-66.73,39,4.85-2.8a.246.246,0,0,0,0-.45l-5.61-3.23a.84.84,0,0,0-.77,0l-4.85,2.8c-.21.12-.19.32,0,.45l5.6,3.23a.86.86,0,0,0,.7-.01Zm7.08-4.09,4.85-2.8c.21-.12.2-.32,0-.45l-5.6-3.24a.87.87,0,0,0-.77,0l-4.85,2.8a.234.234,0,0,0,0,.44l5.61,3.24a.84.84,0,0,0,.66,0Zm-14.17,8.18,4.85-2.8c.21-.12.19-.32,0-.45l-5.6-3.23a.86.86,0,0,0-.78,0l-4.85,2.8a.246.246,0,0,0,0,.45l5.61,3.23a.84.84,0,0,0,.69-.01ZM221.2,313l4.84-2.79c.21-.12.2-.32,0-.45l-5.61-3.24a.84.84,0,0,0-.77,0l-4.85,2.8c-.21.11-.19.31,0,.44l5.6,3.24a.86.86,0,0,0,.79,0Zm-7.09,4.1,4.85-2.8a.246.246,0,0,0,0-.45l-5.61-3.24a.87.87,0,0,0-.77,0l-4.85,2.8a.239.239,0,0,0,0,.44l5.61,3.24a.87.87,0,0,0,.77-.02Zm14.17-8.19,4.85-2.8c.21-.12.19-.32,0-.44l-5.6-3.24a.89.89,0,0,0-.78,0l-4.84,2.8c-.21.12-.2.32,0,.45l5.61,3.24a.87.87,0,0,0,.76-.04Zm32.42-60.52a.86.86,0,0,0,.78,0l4.85-2.8c.2-.11.19-.31,0-.44l-1.49-.86a.86.86,0,0,0-.78,0l-4.85,2.8a.246.246,0,0,0,0,.45Zm-34.86,22.5a.84.84,0,0,0,.77,0l4.85-2.8a.246.246,0,0,0,0-.45l-5.61-3.23a.84.84,0,0,0-.77,0l-4.85,2.8a.246.246,0,0,0,0,.45ZM240,262.68a.84.84,0,0,0,.77,0l4.85-2.8c.21-.12.19-.32,0-.45l-5.6-3.24a.89.89,0,0,0-.78,0l-4.85,2.8a.239.239,0,0,0,0,.44Zm-22.83,13.18a.89.89,0,0,0,.78,0l4.85-2.8a.246.246,0,0,0,0-.45l-5.61-3.24a.87.87,0,0,0-.77,0l-4.85,2.8c-.21.11-.19.31,0,.44Zm15.74-9.09a.86.86,0,0,0,.78,0l4.84-2.8c.21-.12.2-.32,0-.45l-5.61-3.23a.84.84,0,0,0-.77,0l-4.85,2.8c-.21.12-.2.32,0,.45ZM203,284a.84.84,0,0,0,.77,0l4.85-2.8c.21-.12.2-.32,0-.45L203,277.58a.84.84,0,0,0-.77,0l-4.85,2.8c-.21.12-.2.32,0,.45Zm7.1-4a.84.84,0,0,0,.77,0l4.85-2.8c.21-.12.19-.32,0-.45l-5.61-3.24a.87.87,0,0,0-.77,0l-4.85,2.8a.239.239,0,0,0,0,.44Zm36.43-23.41a.84.84,0,0,0,.77,0l4.85-2.8c.21-.12.2-.32,0-.45l-1.49-.86a.84.84,0,0,0-.77,0l-4.85,2.8c-.21.12-.19.32,0,.45Zm21.26-12.27a.87.87,0,0,0,.77,0l4.85-2.8a.234.234,0,0,0,0-.44l-1.49-.86a.84.84,0,0,0-.77,0l-4.85,2.8c-.21.12-.19.32,0,.45Zm11.78,6.8a.87.87,0,0,0,.77,0l4.85-2.8c.21-.12.19-.32,0-.44l-5.61-3.24a.84.84,0,0,0-.77,0l-4.85,2.8a.246.246,0,0,0,0,.45Zm17.71,18,4.85-2.8c.21-.12.19-.32,0-.45l-5.6-3.24a.89.89,0,0,0-.78,0l-4.85,2.8a.239.239,0,0,0,0,.44l5.61,3.24a.84.84,0,0,0,.77-.06Zm-43.66-16.6a.87.87,0,0,0,.77,0l4.85-2.8a.246.246,0,0,0,0-.45l-1.49-.86a.84.84,0,0,0-.77,0l-4.85,2.8c-.21.12-.2.32,0,.45Zm-57.7,35.68a.86.86,0,0,0,.78,0l4.85-2.8a.246.246,0,0,0,0-.45l-5.61-3.23a.84.84,0,0,0-.77,0l-4.85,2.8c-.21.12-.19.32,0,.45Z" fill="#455a64"/>
        <path id="Trazado_111311" data-name="Trazado 111311" d="M227.35,330.67,275.2,303a5.78,5.78,0,0,1,5.22,0l27.44,15.84c1.44.84,1.44,2.19,0,3L260,349.52a5.72,5.72,0,0,1-5.22,0l-27.44-15.84C225.91,332.85,225.91,331.5,227.35,330.67Z" fill="#263238"/>
        <g id="freepik--Window--inject-267">
          <path id="Trazado_111312" data-name="Trazado 111312" d="M237.81,87.22v7.31L128.9,157.41c-.75.43-1.36.08-1.36-.79l.08-2.62a13.267,13.267,0,0,0-2-.62L93,172.21a3.05,3.05,0,0,0-1.37,2.37v2.76a3,3,0,0,1-1.36,2.37l-3.76,2.17v-7.3a3,3,0,0,1,1.36-2.37L236.45,86.43C237.2,86,237.81,86.35,237.81,87.22Z" fill="#d9a171"/>
          <path id="Trazado_111313" data-name="Trazado 111313" d="M237.82,196.68a3,3,0,0,1-1.37,2.36L87.87,284.82c-.75.44-1.36.08-1.36-.79V181.88l3.76-2.17c.75-.43,2-7.06,2.73-7.5l32.62-18.83c.75-.43,2.53,4.46,3.28,4L237.81,94.53V196.68Z" fill="#ebebeb"/>
          <path id="Trazado_111314" data-name="Trazado 111314" d="M93,209.88l65.26-37.71c.75-.44,1.36-.08,1.36.79V237.1a3,3,0,0,1-1.36,2.37L93,277.18c-.75.43-1.36.08-1.36-.79V212.25A3,3,0,0,1,93,209.88Z" fill="#fafafa"/>
          <path id="Trazado_111315" data-name="Trazado 111315" d="M93,192.94l138.33-79.86c.75-.44,1.36-.08,1.36.79v9.61a3,3,0,0,1-1.36,2.36L93,205.71c-.75.43-1.36.08-1.36-.79v-9.61A3,3,0,0,1,93,192.94Z" fill="#455a64"/>
          <path id="Trazado_111316" data-name="Trazado 111316" d="M181.4,149.52v2.54c0,.53.37.74.82.48l40.21-23.22v-4.44L182.22,148.1A1.82,1.82,0,0,0,181.4,149.52Z" fill="#fafafa"/>
          <path id="Trazado_111317" data-name="Trazado 111317" d="M226.74,122.39a.507.507,0,0,1,.82.47v2.55a1.8,1.8,0,0,1-.82,1.42l-4.31,2.49v-4.44Z" fill="#d9a171"/>
          <path id="Trazado_111318" data-name="Trazado 111318" d="M226.43,125.88l-.49-.15a2.569,2.569,0,0,0,.08-.62,1.12,1.12,0,0,0-.44-1,.68.68,0,0,0-.7,0,2.45,2.45,0,0,0-1,2,1.14,1.14,0,0,0,.44,1,.65.65,0,0,0,.31.08.77.77,0,0,0,.39-.12,2.05,2.05,0,0,0,.78-1l.48.15h.05a.17.17,0,0,0,.17-.12.18.18,0,0,0-.07-.22Zm-1.55.92a.33.33,0,0,1-.34,0,.84.84,0,0,1-.26-.72,2.16,2.16,0,0,1,.78-1.69.51.51,0,0,1,.22-.07.17.17,0,0,1,.12,0c.17.09.26.36.26.71a2.1,2.1,0,0,1-.78,1.77Z" fill="#fafafa"/>
          <path id="Trazado_111319" data-name="Trazado 111319" d="M237.81,94.53v8.89L86.51,190.77v-8.89l2.81-1.62c.75-.44,1-1.1,1.36-2.37l.95-3.31A3.46,3.46,0,0,1,93,172.21l32.62-18.83a1.2,1.2,0,0,1,1.92.47l1.17,2.12c.43.74.64,1.18,1.39.74Z" fill="#e6e6e6"/>
          <path id="Trazado_111320" data-name="Trazado 111320" d="M231.41,91.81c1-.55,1.72-.11,1.72,1a3.8,3.8,0,0,1-1.72,3c-1,.55-1.73.1-1.73-1A3.77,3.77,0,0,1,231.41,91.81Z" fill="#455a64"/>
          <path id="Trazado_111321" data-name="Trazado 111321" d="M225.21,95.38c.95-.55,1.72-.11,1.72,1a3.8,3.8,0,0,1-1.72,3c-1,.55-1.72.1-1.72-1a3.79,3.79,0,0,1,1.72-3Z" fill="#455a64"/>
          <path id="Trazado_111322" data-name="Trazado 111322" d="M219,99c.95-.55,1.72-.11,1.72,1a3.8,3.8,0,0,1-1.72,3c-1,.55-1.72.1-1.72-1A3.79,3.79,0,0,1,219,99Z" fill="#455a64"/>
          <path id="Trazado_111323" data-name="Trazado 111323" d="M92.78,182.53l-2.15,1.23.82-1.57a.4.4,0,0,0,0-.38c-.07-.08-.18,0-.25.11l-1.16,2.24h0v.08a.49.49,0,0,0,0,.12.25.25,0,0,0,0,.09h0v.05h0l1.16.9a.13.13,0,0,0,.12,0,.5.5,0,0,0,.13-.17.36.36,0,0,0,0-.37l-.82-.62L92.78,183a.48.48,0,0,0,.17-.37C93,182.54,92.87,182.47,92.78,182.53Z" fill="#455a64" opacity="0.5"/>
          <path id="Trazado_111324" data-name="Trazado 111324" d="M94.57,181.49l2.15-1.24-.82-.63c-.07-.05-.08-.22,0-.36s.17-.22.24-.17l1.17.9h0a.3.3,0,0,1,0,.1.5.5,0,0,1,0,.12.41.41,0,0,1,0,.08h0l-1.17,2.24a.36.36,0,0,1-.11.13.11.11,0,0,1-.13,0,.4.4,0,0,1,0-.38l.82-1.58L94.57,182c-.1.06-.17,0-.17-.16a.45.45,0,0,1,.17-.35Z" fill="#455a64" opacity="0.5"/>
          <path id="Trazado_111325" data-name="Trazado 111325" d="M101.61,175.31c0-.13-.13-.11-.18,0l-.3.72c-.5-.06-1.11.43-1.52,1.3-.53,1.13-.53,2.46,0,3a.78.78,0,0,0,1,.06,2.65,2.65,0,0,0,1-1.17c.07-.15.07-.32,0-.38s-.18,0-.24.14c-.4.84-1,1.21-1.44.83a2.14,2.14,0,0,1,0-2.21c.28-.6.69-1,1-1l-.22.54c-.06.14,0,.28.08.22l.88-.57a.3.3,0,0,0,.1-.24Z" fill="#455a64" opacity="0.5"/>
          <path id="Trazado_111326" data-name="Trazado 111326" d="M124.67,157.44l.79-1.66a.51.51,0,0,0,0-.51c-.1-.09-.25,0-.34.19l-.78,1.66-.78-.76c-.1-.08-.24,0-.34.2a.51.51,0,0,0,0,.51l.78.76-.78,1.65a.52.52,0,0,0,0,.52.15.15,0,0,0,.17,0,.54.54,0,0,0,.17-.21l.78-1.65.78.75a.12.12,0,0,0,.17,0,.44.44,0,0,0,.17-.2.52.52,0,0,0,0-.52Z" fill="#455a64" opacity="0.5"/>
          <path id="Trazado_111327" data-name="Trazado 111327" d="M104.46,177.35v-2.77a3,3,0,0,1,1.36-2.37l122.94-70.94c.75-.43,1.36-.08,1.36.79v2.77a3,3,0,0,1-1.36,2.37L105.82,178.14C105.07,178.57,104.46,178.22,104.46,177.35Z" fill="#fafafa"/>
          <path id="Trazado_111328" data-name="Trazado 111328" d="M228,102.74l.36.76a.09.09,0,0,0,.11,0l.81-.31c.12,0,.18.13.08.3l-.58,1.09a.41.41,0,0,0,0,.21l.14,1c0,.15-.12.36-.23.35l-.72-.09a.15.15,0,0,0-.14.08l-.72.92c-.12.14-.25.09-.23-.09l.14-1.14a.17.17,0,0,0,0-.16l-.59-.42c-.09-.07,0-.31.09-.41l.8-.61a.37.37,0,0,0,.12-.19l.36-1.17C227.74,102.71,227.9,102.62,228,102.74Z" fill="none" stroke="#e0e0e0" stroke-miterlimit="10" stroke-width="0.75"/>
          <g id="Grupo_59746" data-name="Grupo 59746" opacity="0.5">
            <path id="Trazado_111329" data-name="Trazado 111329" d="M231.73,100.94a.49.49,0,0,1-.41-.24.48.48,0,0,1,.18-.65l3.84-2.22a.48.48,0,0,1,.48.82L232,100.87A.42.42,0,0,1,231.73,100.94Z" fill="#455a64"/>
            <path id="Trazado_111330" data-name="Trazado 111330" d="M231.73,103.16a.49.49,0,0,1-.41-.24.47.47,0,0,1,.18-.64l3.84-2.23a.48.48,0,0,1,.48.82L232,103.1a.5.5,0,0,1-.27.06Z" fill="#455a64"/>
            <path id="Trazado_111331" data-name="Trazado 111331" d="M231.73,105.38a.47.47,0,0,1-.23-.88l3.84-2.22a.46.46,0,0,1,.65.17.48.48,0,0,1-.17.65L232,105.32A.5.5,0,0,1,231.73,105.38Z" fill="#455a64"/>
          </g>
        </g>
        <g id="freepik--question-mark--inject-267">
          <path id="Trazado_111332" data-name="Trazado 111332" d="M122.89,225c5.49-5.59,6.9-8.13,6.9-10.37s-.94-3.65-3.86-2a9.28,9.28,0,0,0-4.32,5.3,3.36,3.36,0,0,1-2.14,2l-3.81.84c-.91.21-1.52-.37-1.3-1.28,1.67-6.81,5.88-13.1,11.79-16.51,7.1-4.1,11.24-1,11.24,5.92,0,6.65-3.5,12.2-7,16.19A5.19,5.19,0,0,0,129.3,228v2.26a3.24,3.24,0,0,1-1.46,2.53l-4.68,2.7c-.81.47-1.46.09-1.46-.84v-6.82A4.73,4.73,0,0,1,122.89,225Z" fill="#455a64"/>
          <path id="Trazado_111333" data-name="Trazado 111333" d="M121.61,244.87a8,8,0,0,1,3.87-6.91c2.51-1.46,3.82-.17,3.82,2.47a8,8,0,0,1-3.82,6.94C122.91,248.85,121.61,247.51,121.61,244.87Z" fill="#455a64"/>
        </g>
      </g>
    </g>
    <g id="freepik--support-character--inject-267">
      <path id="Trazado_111334" data-name="Trazado 111334" d="M276.67,63.88,273,61.74h0a2.17,2.17,0,0,0-2.23.21L179.4,114.69a6.94,6.94,0,0,0-3.14,5.43V251.53a2.24,2.24,0,0,0,.89,2h0l3.7,2.14,89.88-55.1a6.93,6.93,0,0,0,3.13-5.43Z" fill="#d9a171"/>
      <path id="Trazado_111335" data-name="Trazado 111335" d="M180.79,255.67l-3.65-2.11h0a2.2,2.2,0,0,1-.88-2V120.12a6.55,6.55,0,0,1,1-3.25L181,119a6.51,6.51,0,0,0-1,3.26V253.68a2.25,2.25,0,0,0,.79,1.99Z" opacity="0.15"/>
      <path id="Trazado_111336" data-name="Trazado 111336" d="M183.07,116.84l91.37-52.75c1.73-1,3.13-.19,3.13,1.81V197.31a6.93,6.93,0,0,1-3.13,5.43l-91.37,52.75c-1.73,1-3.14.19-3.14-1.81V122.26a6.94,6.94,0,0,1,3.14-5.42Z" fill="#6595bf"/>
      <path id="Trazado_111337" data-name="Trazado 111337" d="M273,61.74l3.58,2.07a2.3,2.3,0,0,0-2.1.28l-91.37,52.75A6.25,6.25,0,0,0,181,119l-3.71-2.13a6.31,6.31,0,0,1,2.11-2.18L270.72,62a2.16,2.16,0,0,1,2.23-.2Z" fill="#fff" opacity="0.4"/>
      <path id="Trazado_111338" data-name="Trazado 111338" d="M193.44,122l73.17-42.25c1.31-.76,2.37-.14,2.37,1.37V193.53a5.25,5.25,0,0,1-2.37,4.11l-73.17,42.17c-1.31.75-2.38.14-2.38-1.37V126.13a5.21,5.21,0,0,1,2.38-4.13Z" fill="#fff"/>
      <path id="Trazado_111339" data-name="Trazado 111339" d="M251.42,146.75l.74-.61a9.11,9.11,0,0,0-4.56-2.68l-.24.92a8.33,8.33,0,0,1,4.06,2.37Z" fill="#37474f"/>
      <path id="Trazado_111340" data-name="Trazado 111340" d="M253.05,150.48,251.54,149a2,2,0,0,1,0-2.77h0a2,2,0,0,1,2.77,0l1.5,1.48a2,2,0,0,1,0,2.77h0A2,2,0,0,1,253.05,150.48Z" fill="#d9a171"/>
      <g id="Grupo_59747" data-name="Grupo 59747" clip-path="url(#clip-path)">
        <g id="freepik--character-boy--inject-267">
          <path id="Trazado_111341" data-name="Trazado 111341" d="M266.36,184.66l3.38,5.78s22.14-11.74,23.39-13.28,1.17-4.65,1.36-6.33c.31-2.8-.72-5.21-.87-6.22-.25-1.76,2.28-1.86,3.53.59.92,1.78,1,3.82,1.78,3.84a21.9,21.9,0,0,0,3.11-2.65c1.37-1.5,3.85-4,5.73-3.66a1.64,1.64,0,0,1,1.25,1.35,8.74,8.74,0,0,0,.7,3,4.729,4.729,0,0,1,.74,1.2,10.5,10.5,0,0,1,0,1.94c.08.93,1,1.32,1.1,2.23a15.348,15.348,0,0,1-.23,2.09c0,.45.14.84.14,1.29a4.18,4.18,0,0,1-1.14,2.46,26.15,26.15,0,0,1-6.57,5.5c-2,1.32-4.68,2.49-7,3.73s-28.38,21.26-31.85,18.9c-1.42-1-5.16-5.77-9.09-11.11" fill="#ffa8a7"/>
          <path id="Trazado_111342" data-name="Trazado 111342" d="M255,196a179.005,179.005,0,0,1-11-17.33c-4-11.2.53-18.66.53-18.66s5.75-1.78,10.54,5.78c2.11,3.33,7.63,12.69,11.25,18.87" fill="#ffa8a7"/>
          <path id="Trazado_111343" data-name="Trazado 111343" d="M234.47,160.18s6.34-2.57,10.45-2.3,7.15,1.43,10.17,6.28c4,6.47,10.69,17.65,10.69,17.65a32.17,32.17,0,0,1-12.95,13.85l-12.28-18.52Z" fill="#6595bf"/>
          <g id="freepik--character-boy--inject-267-2" data-name="freepik--character-boy--inject-267">
            <path id="Trazado_111344" data-name="Trazado 111344" d="M214.35,171.38a13.67,13.67,0,0,0-4.48,6.59,32.429,32.429,0,0,0-1.36,9.66v21.05l-.27,39.84c13.36,4.55,30.34.54,44.59-15.3,0,0-.79-51-.79-59.33v-1.15c-.52-11.81-10.71-17.29-20.75-11.61l-8.44,4.76-8.47,5.49Z" fill="#f0f0f0"/>
            <path id="Trazado_111345" data-name="Trazado 111345" d="M219,122.92s-6.55-.51-8,5.57c-1.33,5.42,8.55,26.82,8.33,26.46S219,122.92,219,122.92Z" fill="#263238"/>
            <path id="Trazado_111346" data-name="Trazado 111346" d="M242.13,110.68s-2.43-6.54-14.23-1.89c-6,2.37-8.25,9.8-8.25,9.8Z" fill="#d9a171"/>
            <path id="Trazado_111347" data-name="Trazado 111347" d="M242.13,110.68s-2.43-6.54-14.23-1.89c-6,2.37-8.25,9.8-8.25,9.8Z" opacity="0.4"/>
            <path id="Trazado_111348" data-name="Trazado 111348" d="M223.5,128.05c0,9,6.3,14.58,14.08,12.49s14.08-11,14.08-20-6.71-9-14.49-6.9S223.5,119.07,223.5,128.05Z" fill="#263238"/>
            <path id="Trazado_111349" data-name="Trazado 111349" d="M216.15,142.27s2.07,10.7,2.9,12.33a3.2,3.2,0,0,0,2.55,1.69l-.14-7.88Z" fill="#263238"/>
            <path id="Trazado_111350" data-name="Trazado 111350" d="M218.75,125.45a5.78,5.78,0,0,0-4,2.68c-1.7,2.47-.75,8.53,1.38,14.14l3.9-.53Z" fill="#263238"/>
            <path id="Trazado_111351" data-name="Trazado 111351" d="M221.23,141.43c-.79.75-1.9-.69-2.87-1.6s-4.12-1.66-5.7,2.59,1.39,8.69,3.88,8.93c4.28.4,4.92-2.94,4.92-2.94l.14,18.27c7.19,7.62,19.77-1.36,14.11-4.73v-5.43a24.8,24.8,0,0,0,5.77-1.2c3.15-1.41,5.13-4.8,6.09-9,1.53-6.73,2.11-12,.81-24.07-1.42-13.24-15.15-9.7-22.56-2.33S221.23,141.43,221.23,141.43Z" fill="#ffa8a7"/>
            <path id="Trazado_111352" data-name="Trazado 111352" d="M221.23,143c-.4.12-1.9-2.35-2.87-3.12-1.35-1.06.39-14.38.39-14.38-1.56-3.44,1.32-8.63,4.33-10.74a17.59,17.59,0,0,1,7.15-2.63q3.24-.58,6.46-.89a58.5,58.5,0,0,0,7.82-.94,27,27,0,0,0,5.84-2.12c1.64-.75,3,.94,1.55,3.75a21.19,21.19,0,0,1-5.3,6.66c-6.38,4.79-13.79,5.94-20.24,6.65-1.45.16-1.77,1.87-2.55,6.52C223.12,135.8,222.55,142.57,221.23,143Z" fill="#263238"/>
            <path id="Trazado_111353" data-name="Trazado 111353" d="M213.84,125.56l-4.74-1.67c.67-1.75,2.28-2.79,3.58-2.33S214.51,123.81,213.84,125.56Z" fill="#263238"/>
            <path id="Trazado_111354" data-name="Trazado 111354" d="M235.7,156.52s-7,.25-9.48-.6a6,6,0,0,1-3.4-3,10.36,10.36,0,0,0,1.93,4.06c1.8,2.17,10.95,1.67,10.95,1.67Z" fill="#f28f8f"/>
            <path id="Trazado_111355" data-name="Trazado 111355" d="M234,136a2.17,2.17,0,0,1-1.4,2c-.77.2-1.4-.39-1.4-1.32a2.17,2.17,0,0,1,1.4-2.06C233.38,134.45,234,135,234,136Z" fill="#263238"/>
            <path id="Trazado_111356" data-name="Trazado 111356" d="M231.75,129.85l-3,2.73a2.65,2.65,0,0,1,.7-3,1.39,1.39,0,0,1,2.3.27Z" fill="#263238"/>
            <path id="Trazado_111357" data-name="Trazado 111357" d="M235.07,146.93l3.21.53a2.2,2.2,0,0,1-2.18,1.81C235.21,149.13,234.75,148.08,235.07,146.93Z" fill="#f28f8f"/>
            <path id="Trazado_111358" data-name="Trazado 111358" d="M246.93,127.21l-2.75-1.71c.57-1,1.63-1.53,2.39-1.06a2.12,2.12,0,0,1,.36,2.77Z" fill="#263238"/>
            <path id="Trazado_111359" data-name="Trazado 111359" d="M245.73,132.37a2.17,2.17,0,0,1-1.41,2.07c-.78.2-1.41-.39-1.41-1.32a2.16,2.16,0,0,1,1.41-2.06C245.1,130.85,245.73,131.44,245.73,132.37Z" fill="#263238"/>
            <path id="Trazado_111360" data-name="Trazado 111360" d="M238.77,132.93l.16,9.82,5.05-2.64Z" fill="#f28f8f"/>
          </g>
        </g>
        <path id="Trazado_111361" data-name="Trazado 111361" d="M193.19,231c3.94-40.5,10.31-54.89,20.29-58.92,3.35,2.62,3.89,14.57.1,23.54,0,0-8.34,26.86-9,36a148.691,148.691,0,0,0,.95,25.61,3.66,3.66,0,0,0,1.49,2.58c2.13,1.46,1.94,3.5,3.44,5.47,1.18,1.54,2.3,1.84,2,2.4a2.69,2.69,0,0,1-3,1.54,8.06,8.06,0,0,1-2.61-1.5,21.87,21.87,0,0,0,2.64,6.1c2.7,4.37,2.5,7.26-4.12,8.07-4.15.51-7.1-2.13-8.93-12.54-.52-3-1.8-8.4-2.29-12.28C192.73,246,192.55,237.52,193.19,231Z" fill="#ffa8a7"/>
        <path id="Trazado_111362" data-name="Trazado 111362" d="M216.34,170.16s-7.26,2.34-11,8.15-7.48,15.21-10.32,32c0,0,4.4,6.34,16.41,1.45,0,0,5.69-21.36,6.36-29.85C218.48,172.65,216.34,170.16,216.34,170.16Z" fill="#6595bf"/>
        <path id="Trazado_111363" data-name="Trazado 111363" d="M223.09,111c-6.79,4.25-9.72,9.41-9.89,15.63a119.223,119.223,0,0,0,.51,12.8,10.47,10.47,0,0,0-4.34,8c0,4.21,3.41,6.71,7.62,5.58a10.66,10.66,0,0,0,7.62-9.66,5.49,5.49,0,0,0-4.63-5.77,62,62,0,0,1,.05-17.91c1.51-9,18.33-14.19,22.1-9C241,106.19,232.53,105.05,223.09,111Z" fill="#d9a171"/>
        <path id="Trazado_111364" data-name="Trazado 111364" d="M223.09,111c-6.79,4.25-9.72,9.41-9.89,15.63a119.223,119.223,0,0,0,.51,12.8,10.47,10.47,0,0,0-4.34,8c0,4.21,3.41,6.71,7.62,5.58a10.66,10.66,0,0,0,7.62-9.66,5.49,5.49,0,0,0-4.63-5.77,62,62,0,0,1,.05-17.91c1.51-9,18.33-14.19,22.1-9C241,106.19,232.53,105.05,223.09,111Z" opacity="0.15"/>
        <path id="Trazado_111365" data-name="Trazado 111365" d="M220.64,144.41a2.71,2.71,0,0,0-3.65-2.67,5.11,5.11,0,0,0-3.65,4.63A2.71,2.71,0,0,0,217,149,5.1,5.1,0,0,0,220.64,144.41Z" fill="#d9a171"/>
      </g>
      <path id="Trazado_111367" data-name="Trazado 111367" d="M163.06,208.66a4.056,4.056,0,0,0-.45.52h0a2.92,2.92,0,0,0-.53,1h0a1,1,0,0,0,0,.65.71.71,0,0,0,.21.39.929.929,0,0,0,.18.16l-3.67-2.12a.9.9,0,0,1-.35-.35,1.14,1.14,0,0,1,0-.88h0a2.78,2.78,0,0,1,.34-.7,5.882,5.882,0,0,1,.64-.8Z" fill="#d9a171"/>
      <path id="Trazado_111368" data-name="Trazado 111368" d="M163.09,208.62c-1.91,2-1.24,3.35,1.5,3l15.34-1.77V191.12Z" fill="#6595bf"/>
      <path id="Trazado_111369" data-name="Trazado 111369" d="M163.09,208.62c-1.21,1.26-1.38,2.26-.66,2.75l-3.67-2.12c-.77-.48-.6-1.5.62-2.78L176.23,189l3.71,2.15Z" fill="#d9a171"/>
      <path id="Trazado_111370" data-name="Trazado 111370" d="M163.06,208.66a4.056,4.056,0,0,0-.45.52h0a3.339,3.339,0,0,0-.53,1h0a1.22,1.22,0,0,0,0,.65.75.75,0,0,0,.21.39.929.929,0,0,0,.18.16l-3.67-2.12a.9.9,0,0,1-.35-.35,1.14,1.14,0,0,1,0-.88h0a3.18,3.18,0,0,1,.34-.7,5.879,5.879,0,0,1,.64-.8Z" opacity="0.15"/>
      <path id="Trazado_111371" data-name="Trazado 111371" d="M179.94,191.12l-16.85,17.5h0l-3.72-2.15h0L176.23,189Z" fill="#fff" opacity="0.4"/>
      <path id="Trazado_111372" data-name="Trazado 111372" d="M266.36,184.66l3.38,5.78s22.14-11.74,23.39-13.28,1.17-4.65,1.36-6.33c.31-2.8-.72-5.21-.87-6.22-.3-2.15,2.79-1.65,3.77-.8a9.311,9.311,0,0,1,1.59,2.31c.48.8,1.38,3.41,2.3,3.57.72.13,2.15-.89,2.74-1.33,2.43-1.84,3.93-4.39,5.8-6.72a3.31,3.31,0,0,1,1.34-1.16,3.22,3.22,0,0,1,2.72.71,6.2,6.2,0,0,1,2,1.78,5.76,5.76,0,0,1,.68,1.77c1,4.24-1.18,7.82-3.75,11a38.45,38.45,0,0,1-9.06,8c-2,1.32-4.68,2.49-7,3.73s-27.18,22.07-30.66,19.71A61.539,61.539,0,0,1,255,196" fill="#ffa8a7"/>
    </g>
    <g id="freepik--Character--inject-267">
      <path id="Trazado_111373" data-name="Trazado 111373" d="M429.68,148.53c8,0,12.2,2.4,15.52,9.79,3.18,7.07,13.05,27.58,12.56,32.55S437,217,437,217l-5.79-7,12.56-21.1L431.4,171Z" fill="#ffa8a7"/>
      <g id="freepik--character--inject-267-2" data-name="freepik--character--inject-267">
        <path id="Trazado_111374" data-name="Trazado 111374" d="M410.26,366.16s.9,2.73,1.39,5.13c.39,1.9.94,5.07.27,6.5s-3.26,2.35-7.28,2.32c-2.61,0-6.67,1.75-9.45,3.31s-8.85,2.24-11.89,1.88c-3.58-.42-7.29-2.5-7.87-4s-1.07-3.51,8.63-6.62c.08,0,11.73-3.82,15.81-8.33Z" fill="#263238"/>
        <path id="Trazado_111375" data-name="Trazado 111375" d="M410.26,366.43l-1.85-.23-8.54.17c-4.08,4.51-15.73,8.31-15.81,8.33l-1.55.52c-1.69,1.36-.26,3.67,3.74,4s16.47-3.84,19.23-5.17a8.26,8.26,0,0,0,4.78-7.62Z" fill="#ffa8a7"/>
        <path id="Trazado_111376" data-name="Trazado 111376" d="M410.26,362.76v3.67c0,1.34-1.56,3.32-5.64,3.17-2.86-.1-4.86-.87-4.75-3.23V363Z" fill="#ffa8a7"/>
        <path id="Trazado_111377" data-name="Trazado 111377" d="M437.64,350.83c.73.3.88,1.72.91,4.53,0,2.12.39,5.84-2.12,6.52s-6.14.19-7.68-1.85a95.415,95.415,0,0,0-6-7.92c-2.39-2.71-5-5.25-5.88-9-.81-3.38,0-4.81,2.29-5.73s4.4-.16,7.6,2.51a14.939,14.939,0,0,0,2.85,1.51C431.74,342.07,436.9,350.53,437.64,350.83Z" fill="#263238"/>
        <path id="Trazado_111378" data-name="Trazado 111378" d="M437.71,348.23l-.1,3.45s-2.3,4.51-8.71,0c-.14-.34-.72-7-.72-7Z" fill="#ffa8a7"/>
        <path id="Trazado_111379" data-name="Trazado 111379" d="M429.64,341.42a14.938,14.938,0,0,1-2.85-1.51h0c-2.58-.83-8,.13-5.57,3.89a29.12,29.12,0,0,0,7.68,7.88c2.9,1.43,3.91-.34,3.91-.34l-1-8.09a6.38,6.38,0,0,0-2.17-1.83Z" fill="#ffa8a7"/>
        <path id="Trazado_111380" data-name="Trazado 111380" d="M442.39,300.55c-1.28-11.31-3.73-17.84-3.73-17.84s2.17-15.22,3.87-29.81c4-34.27,1.34-34.82-3.5-46.74,0,0-43.93-5.65-45.77,12.62-2.29,22.75-1.25,66.87-.87,74.94s1,11.72,3.44,28.62c1.82,12.87,3.55,41,3.55,41,5.76,3.32,11.3-.58,11.3-.58s5.51-34.59,5.38-43.9a79.449,79.449,0,0,0-3-20.37s3.74-37.08,4.69-43c0,0,1.06,11.83,1.45,19.9s2.57,15.82,4.5,30.85c1.67,13,4.45,40.23,4.45,40.23,5.76,3.32,9.78,1.82,9.78,1.82S443.66,311.85,442.39,300.55Z" fill="#d9a171"/>
        <path id="Trazado_111381" data-name="Trazado 111381" d="M411.09,141.13l1.61,17.08,15-.95-1.2-18.94Z" fill="#ffa8a7"/>
        <path id="Trazado_111382" data-name="Trazado 111382" d="M441.18,155.78c-1.53-4.52-4.63-7.17-11.5-7.25l-2.53.08c-.48,2.52-7.87,4.56-15.17,2-1,.27-3.85.79-5.44,1l-3.5.51c-5.31,1.74-7.66,11-8.17,25.61s-2.7,45.94-2.7,45.94,11.43,6.12,29.47,3.75c16.15-2.12,22.43-11.67,21.87-10.45a111.16,111.16,0,0,0-8.34-23.45C443.67,172.61,443.44,162.49,441.18,155.78Z" fill="#6595bf"/>
        <path id="Trazado_111383" data-name="Trazado 111383" d="M412.7,227.94a63.248,63.248,0,0,0,8.94-.54c14.72-1.93,21.24-10,21.85-10.53a111,111,0,0,0-8.32-23.37c4.3-10.56,6.36-18.36,7.06-24.37-.7,4.38-7.17,21.34-15.64,26.43,0,0,4.78.74,8.87,6.36S436.19,226.73,412.7,227.94Z" fill="#37474f"/>
        <path id="Trazado_111384" data-name="Trazado 111384" d="M406.54,151.59c-7.05.89-13.12,2.15-15.69,9.07a76.78,76.78,0,0,1-15.31,25.52c-4.38,4.69-22.36,13.67-26.41,13s-7.7-6.44-9.78-5.24,2.48,5.32,2.23,6.34-7.55-1.1-11-3.55-5.5,4.58-1,9.84,12.92,5.67,22.08,3.84,25.9-7.27,32.55-13.47c8.72-8.15,10.31-12.58,14.09-19.6C410.34,168,406.54,151.59,406.54,151.59Z" fill="#ffa8a7"/>
        <path id="Trazado_111385" data-name="Trazado 111385" d="M403.24,119.92s-5.66-6.75-1.22-13.33c5.24-7.76,14.46-10.38,25.86-7,5.64,1.67,13.93,9.47,14.35,20.41.32,8.43-23.32,14-22.94,19.78Z" fill="#263238"/>
        <path id="Trazado_111386" data-name="Trazado 111386" d="M400,122.39s-3.32,5-2.89,5.56a7.9,7.9,0,0,0,2.55,1.09Z" fill="#f28f8f"/>
        <path id="Trazado_111387" data-name="Trazado 111387" d="M410.11,106.48c-3.23,1.67-8.81,4.75-10.25,16.65-1.47,12.21,1.25,16.45,2.91,18.05,1.13,1.08,6.93,1.47,10,.53,3.79-1.17,12-5.22,15.83-11.52,4.52-7.42,5.45-17.3.23-21.18C421.44,103.56,412.84,105.07,410.11,106.48Z" fill="#ffa8a7"/>
        <path id="Trazado_111388" data-name="Trazado 111388" d="M409.16,107s-2.82,11.14.55,18.18c0,0,2-4.35,5.71-3.1s3.42,6.27.46,8.83a5.58,5.58,0,0,1-5.83,1.24s.1,6.17,5.37,8.61c0,0,11,5.27,21-5.37,9-9.66,7.87-27-5.44-31.39S409.16,107,409.16,107Z" fill="#263238"/>
        <path id="Trazado_111389" data-name="Trazado 111389" d="M453.94,154h0A15.94,15.94,0,0,1,438,138V117.56h0a15.93,15.93,0,0,1,15.93,15.93Z" fill="#263238"/>
        <path id="Trazado_111390" data-name="Trazado 111390" d="M400.58,102c-4.95,5-5.23,19.61,9.13,23.19l9.41-25.79C413.64,95.83,405,97.48,400.58,102Z" fill="#263238"/>
        <path id="Trazado_111391" data-name="Trazado 111391" d="M408.27,129.16a2.84,2.84,0,1,1,1.93-5.34Z" fill="#263238"/>
        <path id="Trazado_111392" data-name="Trazado 111392" d="M417.77,255.51l2.39-15.29a33.64,33.64,0,0,0,13.58-4.72s-3,4.51-10.9,6.39L420.4,259.6l-1,18.55Z" opacity="0.1"/>
      </g>
    </g>
  </g>
</svg>
