<svg xmlns="http://www.w3.org/2000/svg" width="466.345" height="390.76" viewBox="0 0 466.345 390.76">
  <g id="manual-01" transform="translate(-113.489 -57.322)">
    <path id="Trazado_111540" data-name="Trazado 111540" d="M1118.419,715.1V985.445a4.748,4.748,0,0,1-4.748,4.748H905.33a4.75,4.75,0,0,1-4.75-4.748V715.1a4.748,4.748,0,0,1,4.75-4.748h208.341a4.733,4.733,0,0,1,4.747,4.748Z" transform="translate(-676.081 -542.322)" fill="#d9a171"/>
    <path id="Trazado_111541" data-name="Trazado 111541" d="M923.05,710.35V990.192H905.33a4.75,4.75,0,0,1-4.75-4.747V715.1a4.747,4.747,0,0,1,4.75-4.748Z" transform="translate(-685.362 -542.322)" fill="#a66d58"/>
    <path id="Trazado_111542" data-name="Trazado 111542" d="M1169.26,1084.12h3.985l4.409,7.094,4.409-7.094h3.985V1100.9h-3.667v-10.959l-4.732,7.164h-.1l-4.673-7.091v10.88h-3.619Z" transform="translate(-879.962 -822.993)" fill="#ffeddc"/>
    <path id="Trazado_111543" data-name="Trazado 111543" d="M1254.191,1083.63h3.4l7.188,16.9h-3.858l-1.534-3.764H1252.3l-1.532,3.764H1247Zm3.88,9.876-2.241-5.443-2.227,5.443Z" transform="translate(-936.19 -822.625)" fill="#ffeddc"/>
    <path id="Trazado_111544" data-name="Trazado 111544" d="M1328.765,1084.12h3.4l7.861,10.327V1084.12h3.642V1100.9h-3.143l-8.125-10.665V1100.9h-3.642Z" transform="translate(-995.518 -822.993)" fill="#ffeddc"/>
    <path id="Trazado_111545" data-name="Trazado 111545" d="M1403.73,1093.7v-9.584h3.689v9.49c0,2.74,1.367,4.145,3.619,4.145s3.619-1.365,3.619-4.025v-9.61h3.691v9.465c0,5.081-2.852,7.574-7.358,7.574S1403.73,1098.641,1403.73,1093.7Z" transform="translate(-1049.814 -822.993)" fill="#ffeddc"/>
    <path id="Trazado_111546" data-name="Trazado 111546" d="M1476.531,1083.63h3.4l7.188,16.9h-3.858l-1.534-3.764h-7.094l-1.532,3.764h-3.763Zm3.881,9.876-2.242-5.443-2.227,5.443Z" transform="translate(-1097.118 -822.625)" fill="#ffeddc"/>
    <path id="Trazado_111547" data-name="Trazado 111547" d="M1551.12,1084.12h3.692v13.421h8.362v3.355H1551.12Z" transform="translate(-1156.707 -822.993)" fill="#ffeddc"/>
    <g id="Grupo_59753" data-name="Grupo 59753" transform="translate(288.51 308.689)" opacity="0.7">
      <path id="Trazado_111548" data-name="Trazado 111548" d="M1169.049,1312.247l3.809-2.1a.958.958,0,0,1,1,.055q.573.393,1.181.747a16.094,16.094,0,0,0,2.311,1.113.95.95,0,0,1,.618.877l.085,4.546a.932.932,0,0,0,.877.919l4.147.281a.921.921,0,0,0,.969-.747l.732-4.123a.931.931,0,0,1,.807-.767,16.826,16.826,0,0,0,5.074-1.527.951.951,0,0,1,1.138.249l1.635,1.955a.969.969,0,0,0,1.265.182l3.425-2.3a.846.846,0,0,0,.187-.161.927.927,0,0,0,.117-1.074l-1.567-2.847-.384-.692a16.449,16.449,0,0,0,1.318-1.948,16.732,16.732,0,0,0,1.315-2.847.927.927,0,0,1,.862-.628l3.662-.062a.964.964,0,0,0,.942-.9l.217-3.168.06-.909a.98.98,0,0,0-.8-1.029l-3.444-.615a.927.927,0,0,1-.77-.775,16.551,16.551,0,0,0-.937-3.442c-.03-.1-.067-.187-.1-.282a.41.41,0,0,1-.032-.095.951.951,0,0,1,.306-1l3.168-2.658a.765.765,0,0,0,.1-.1.967.967,0,0,0,.08-1.166l-2.287-3.418a.959.959,0,0,0-1.26-.306l-3.985,2.192a.924.924,0,0,1-1.046-.095,17.079,17.079,0,0,0-2.13-1.457c-.4-.234-.809-.446-1.223-.643a.975.975,0,0,1-.558-.864l-.082-4.369a.934.934,0,0,0-.869-.914l-4.1-.274a.976.976,0,0,0-1.031.8l-.581,3.261a.958.958,0,0,1-.879.792,16.73,16.73,0,0,0-5.051,1.1.956.956,0,0,1-1.084-.277l-2.4-2.856a1,1,0,0,0-1.3-.185l-3.407,2.279a.939.939,0,0,0-.3,1.246l.09.167,1.821,3.308a.961.961,0,0,1-.112,1.091h0a16.6,16.6,0,0,0-1.7,2.416c-.269.463-.5.934-.73,1.415a.944.944,0,0,1-.844.558l-3.719.064a.98.98,0,0,0-.959.909l-.274,4.088a1.064,1.064,0,0,0,.037.333.973.973,0,0,0,.747.675l2.74.483a.974.974,0,0,1,.73.615,1.007,1.007,0,0,1,.057.264,16.7,16.7,0,0,0,1.716,6.377.935.935,0,0,1-.122,1.026,1.014,1.014,0,0,1-.114.115l-2.566,2.152a.954.954,0,0,0-.182,1.26l.052.08,2.227,3.333A.974.974,0,0,0,1169.049,1312.247Zm20.87-21.906a10.987,10.987,0,0,1,1.305,1.621,8.865,8.865,0,0,1,1.245,4.623c0,.149-.022.293-.034.441a9.076,9.076,0,0,1-18.106.224,5.779,5.779,0,0,1,0-.882,10.267,10.267,0,0,1,.822-3.412,9.011,9.011,0,0,1,14.768-2.615Z" transform="translate(-1162.415 -1275.07)" fill="#6595bf"/>
    </g>
    <path id="Trazado_111549" data-name="Trazado 111549" d="M1335.606,1244.942l2.384-.812a.561.561,0,0,1,.567.135c.19.187.386.371.6.545a9.43,9.43,0,0,0,1.2.87.548.548,0,0,1,.264.563l-.413,2.6a.54.54,0,0,0,.406.613l2.334.581a.536.536,0,0,0,.63-.331l.837-2.274a.535.535,0,0,1,.536-.356,9.7,9.7,0,0,0,3.046-.356.555.555,0,0,1,.625.249l.732,1.278a.56.56,0,0,0,.7.234l2.185-.964a.5.5,0,0,0,.122-.072.543.543,0,0,0,.177-.6l-.605-1.781-.147-.436a9.5,9.5,0,0,0,.949-.974,9.758,9.758,0,0,0,1.036-1.494.539.539,0,0,1,.556-.269l2.092.334a.555.555,0,0,0,.628-.416l.446-1.784.124-.513a.563.563,0,0,0-.351-.665l-1.9-.7a.538.538,0,0,1-.361-.521,9.6,9.6,0,0,0-.185-2.055.825.825,0,0,0-.032-.172.263.263,0,0,1,0-.057.548.548,0,0,1,.276-.543l2.075-1.193a.584.584,0,0,0,.067-.045.561.561,0,0,0,.164-.655l-.959-2.179a.553.553,0,0,0-.685-.3l-2.491.847a.54.54,0,0,1-.588-.159,9.6,9.6,0,0,0-1.066-1.046c-.2-.175-.416-.339-.63-.5a.569.569,0,0,1-.231-.551l.4-2.491a.538.538,0,0,0-.4-.608l-2.311-.573a.567.567,0,0,0-.668.354l-.663,1.8a.55.55,0,0,1-.58.361,9.724,9.724,0,0,0-2.989.115.552.552,0,0,1-.59-.269l-1.076-1.87a.57.57,0,0,0-.72-.249l-2.172.954a.542.542,0,0,0-.3.7l.032.1.7,2.07a.551.551,0,0,1-.174.61h0a9.538,9.538,0,0,0-1.215,1.206c-.2.249-.384.481-.558.73a.548.548,0,0,1-.538.234l-2.125-.341a.568.568,0,0,0-.64.421l-.57,2.3a.656.656,0,0,0,0,.194.563.563,0,0,0,.359.461l1.519.555a.564.564,0,0,1,.354.423.642.642,0,0,1,0,.155,9.684,9.684,0,0,0,.331,3.808.543.543,0,0,1-.175.573.361.361,0,0,1-.077.052l-1.679.966a.553.553,0,0,0-.232.7l.023.05.929,2.127A.568.568,0,0,0,1335.606,1244.942Zm14.115-10.364a6.346,6.346,0,0,1,.578,1.056,5.083,5.083,0,0,1,.249,2.76c-.022.082-.045.164-.065.249a5.253,5.253,0,0,1-10.339-1.709,3.431,3.431,0,0,1,.085-.5,5.98,5.98,0,0,1,.814-1.861,5.216,5.216,0,0,1,8.678,0Z" transform="translate(-998.491 -929.024)" fill="#ffeddc"/>
    <path id="Trazado_111550" data-name="Trazado 111550" d="M1342.553,1386.25l6.177-3a1.526,1.526,0,0,1,1.582.169q.862.668,1.8,1.275a25.621,25.621,0,0,0,3.555,1.945,1.5,1.5,0,0,1,.9,1.432l-.249,7.176a1.477,1.477,0,0,0,1.31,1.522l6.516.784a1.459,1.459,0,0,0,1.589-1.113l1.495-6.439a1.463,1.463,0,0,1,1.332-1.146,26.55,26.55,0,0,0,8.128-1.993,1.509,1.509,0,0,1,1.776.483l2.418,3.215a1.524,1.524,0,0,0,1.978.391l5.592-3.348a1.315,1.315,0,0,0,.307-.249,1.465,1.465,0,0,0,.271-1.684l-2.242-4.618-.548-1.123a26.586,26.586,0,0,0,4.541-7.348,1.466,1.466,0,0,1,1.41-.917l5.778.2a1.52,1.52,0,0,0,1.559-1.338l.6-4.982.167-1.427a1.532,1.532,0,0,0-1.176-1.684l-5.38-1.245a1.465,1.465,0,0,1-1.151-1.286,26.271,26.271,0,0,0-1.2-5.5,4.254,4.254,0,0,0-.145-.451.691.691,0,0,1-.042-.155,1.494,1.494,0,0,1,.568-1.562l5.21-3.936a1.147,1.147,0,0,0,.165-.142,1.522,1.522,0,0,0,.224-1.83l-3.33-5.579a1.514,1.514,0,0,0-1.96-.585l-6.444,3.135a1.469,1.469,0,0,1-1.644-.249,26.59,26.59,0,0,0-3.238-2.471q-.927-.6-1.878-1.113a1.544,1.544,0,0,1-.809-1.413l.227-6.9a1.475,1.475,0,0,0-1.3-1.512l-6.447-.765a1.539,1.539,0,0,0-1.689,1.18l-1.183,5.1a1.514,1.514,0,0,1-1.452,1.176,26.488,26.488,0,0,0-8.053,1.318,1.494,1.494,0,0,1-1.688-.523l-3.545-4.7a1.557,1.557,0,0,0-2.03-.4l-5.56,3.315a1.5,1.5,0,0,0-.575,1.933l.127.272,2.6,5.362a1.526,1.526,0,0,1-.264,1.717h0a26.25,26.25,0,0,0-2.877,3.671c-.463.712-.877,1.432-1.268,2.172a1.5,1.5,0,0,1-1.378.812l-5.868-.2a1.544,1.544,0,0,0-1.587,1.358l-.765,6.419a1.642,1.642,0,0,0,.03.531,1.537,1.537,0,0,0,1.129,1.126l4.3,1a1.539,1.539,0,0,1,1.1,1.029,1.771,1.771,0,0,1,.067.418,26.355,26.355,0,0,0,2.187,10.212,1.5,1.5,0,0,1-.276,1.609,1.536,1.536,0,0,1-.192.169l-4.222,3.184a1.507,1.507,0,0,0-.388,1.973l.074.129,3.238,5.44A1.537,1.537,0,0,0,1342.553,1386.25Zm34.7-32.844a17.672,17.672,0,0,1,1.926,2.663,13.9,13.9,0,0,1,1.569,7.393c-.027.234-.06.463-.092.692-2.16,13.916-19.488,17.436-26.874,5.206a14.374,14.374,0,0,1-1.7-6.332,9.161,9.161,0,0,1,.062-1.39,16.349,16.349,0,0,1,1.574-5.313A14.231,14.231,0,0,1,1377.257,1353.406Z" transform="translate(-995.739 -1006.775)" fill="#5e6178"/>
    <path id="Trazado_111551" data-name="Trazado 111551" d="M1006.419,689s-5.579-.12-5.769,5.33h11.724s1.228-4.068,4.819-2.665V689Z" transform="translate(-757.917 -526.29)" fill="#7999e2"/>
    <path id="Trazado_111552" data-name="Trazado 111552" d="M1023.81,688.955s9.926.947,10.3,9.465,0,25.523,0,25.523l7.562-2.857,6.05,2.835v-25.9a10.224,10.224,0,0,0-8.7-9.077Z" transform="translate(-774.465 -526.245)" fill="#aec3ff"/>
    <path id="Trazado_111553" data-name="Trazado 111553" d="M1535.072,678.6h-20.883a27.754,27.754,0,0,1-6.76-7.022c-.5-.725-1-1.507-1.467-2.354C1503.282,664.479,1528.068,675.431,1535.072,678.6Z" transform="translate(-1122.679 -510.556)" fill="#233862"/>
    <path id="Trazado_111554" data-name="Trazado 111554" d="M1517.706,842.516a1.993,1.993,0,0,1,.341,2.145h0c-.526,1.422-2.242,3-4.234,4.583-.249.2-.481.386-.678.558l-.154.134-.117.1c-1.859,1.689-1.166,2.085-4.511,5.517-3.814,3.913-6.419,3.966-7.159,3.6-.625-.311.665-2.391,2.093-4.732.07-.112.137-.227.209-.339l.568-.939c1.674-2.815,1.246-4.145.9-8.352-.294-3.42-5.181-19.129-5.181-19.129l7.263-1.2s2.095,12.5,4.483,14.447c1.281,1.034,2.72,1.056,3.953,1.823l.249.164A9.546,9.546,0,0,1,1517.706,842.516Z" transform="translate(-1119.106 -628.017)" fill="#ffb27d"/>
    <path id="Trazado_111555" data-name="Trazado 111555" d="M1521.506,891.559a1.993,1.993,0,0,1,.341,2.145h0c-.643,1.422-2.316,2.989-4.234,4.568-.249.2-.473.4-.67.573l-.154.134-.117.1c-1.858,1.689-1.166,2.085-4.511,5.517-3.813,3.913-6.419,3.966-7.159,3.6-.625-.311.665-2.391,2.092-4.733a16.1,16.1,0,0,0,6.767-4.917c2.3-2.892,3.848-6.618,5.415-8.773l.249.165A9.55,9.55,0,0,1,1521.506,891.559Z" transform="translate(-1122.852 -677.06)" fill="#233862"/>
    <path id="Trazado_111556" data-name="Trazado 111556" d="M1271.384,829.922c-.463,2.242-3.651,1.838-7.223.944s-2.72.144-7.792-.453-6.6-2.491-6.745-3.255c-.134-.672,2.376-.889,5.066-1.181.339-.035.68-.075,1.019-.115,3.041-.361,5.278-2.3,8.047-3.893,2.623-1.495,6.569-7.689,6.569-7.689l6.954.6s-3.691,5.52-5.121,7.923a8.4,8.4,0,0,0-.715,4.733A8.963,8.963,0,0,1,1271.384,829.922Z" transform="translate(-937.609 -620.365)" fill="#ffb27d"/>
    <path id="Trazado_111557" data-name="Trazado 111557" d="M1264.251,866.129c-3.562-.9-2.72.144-7.791-.453s-6.6-2.491-6.745-3.255c-.134-.673,2.376-.889,5.066-1.181l.025.052a14.3,14.3,0,0,0,7.253,2.309c3.442.109,7.1-.852,9.465-.8a8.974,8.974,0,0,1-.072,2.381C1271,867.42,1267.81,867.024,1264.251,866.129Z" transform="translate(-937.957 -655.629)" fill="#233862"/>
    <path id="Trazado_111558" data-name="Trazado 111558" d="M1469.031,703.707s-.483.316-1.208.715a16.033,16.033,0,0,1-3.171,1.38,12.981,12.981,0,0,1-3.263.426,12.463,12.463,0,0,1-1.246-.047l-8.334-22.915-1.5-4.147-1.6-4.409-.558-1.534-2.715-7.472s6.633-17.01,13.4-8.9a16.568,16.568,0,0,1,2.316,4.187c.5,1.2.961,2.558,1.41,4.028.336,1.1.657,2.269.971,3.487.842,3.3,1.587,6.947,2.242,10.608C1467.929,691.343,1469.031,703.707,1469.031,703.707Z" transform="translate(-1079.443 -500.467)" fill="#233862"/>
    <path id="Trazado_111559" data-name="Trazado 111559" d="M1416.793,606.971a3.628,3.628,0,0,1-1.928,2.018H1384.1c-7.4-1.532-14.479-4.919-18.723-7.022l-1-.5a20.292,20.292,0,0,0-2.855-1.3c-2.573-.535-3.9,3.654-6.073,8.807-.445,1.049-.921,2.135-1.455,3.238a16.744,16.744,0,0,1-2.06,2.967c-.179.214-.364.436-.558.662-7.475,8.733-26.719,25.005-26.719,25.005h-.593a19.421,19.421,0,0,1-5.062-.613,7.8,7.8,0,0,1-1.639-.852,3.685,3.685,0,0,1-.78-.7s23.042-45.049,34.971-57.321h0c.172-.179.344-.349.513-.511a9.707,9.707,0,0,1,3.42-2.416c4.065-1.28,30.358.147,30.358.147l.839-1.365,1.4-.1.249-.015,1.171-.087h0l1.616-.112,2.4-.169,6.5-.463,1.044-.075,12.013-.852s.548,1.245,1.288,3.283c.292.8.608,1.721.934,2.74C1417.441,588.073,1419.941,599.015,1416.793,606.971Z" transform="translate(-980.795 -440.948)" fill="#2b478b"/>
    <path id="Trazado_111560" data-name="Trazado 111560" d="M1616.9,298.18c-6-5.124-10.284-6.391-10.88-14.506-.324-4.4-6.227-18.972-16.24-17.7a15.006,15.006,0,0,1-2.523.147,9.354,9.354,0,0,0-5.081,1.278c-4.817,2.817-13.684,28.893-7.706,38.05a6.644,6.644,0,0,0,4.767,3.066c.249.139.5.284.772.433h0c1.076.6,2.257,1.268,3.509,1.975,7.066,3.985,16.322,9.256,21.06,11.919h0l.81.456,1.378.767c.555.3.879.473.9.473a20.56,20.56,0,0,0,2.934.825c2.381.5,5.729.775,8.045-.747a12.889,12.889,0,0,0,2.548-2.207C1626.012,317.03,1627.28,307.034,1616.9,298.18Z" transform="translate(-1168.991 -208.573)" fill="#233862"/>
    <path id="Trazado_111561" data-name="Trazado 111561" d="M1628.009,375.2c-.042.025,4.61,1.651,7.739.291,2.942-1.275,5.2-6.085,5.154-6.088-1.333-.072-2.79-1.245-3.863-8.912l-.57.2-9.577,3.37s.67,3.069,1.1,5.99C1628.347,372.506,1628.534,374.854,1628.009,375.2Z" transform="translate(-1211.436 -279.606)" fill="#ffb27d"/>
    <path id="Trazado_111562" data-name="Trazado 111562" d="M1626.89,364.685s.409,2.15.974,5.231c5.494-.949,7.809-5.637,8.6-8.6Z" transform="translate(-1211.764 -280.229)" fill="#ed975d"/>
    <path id="Trazado_111563" data-name="Trazado 111563" d="M1601.189,317.784s13.084-1.661,11.923-9.794-.249-13.822-8.655-13.1-9.58,4.05-9.854,6.86S1597.757,318.008,1601.189,317.784Z" transform="translate(-1187.71 -230.297)" fill="#ffb27d"/>
    <path id="Trazado_111564" data-name="Trazado 111564" d="M1596.69,295.1s8.317,7.271,14,7.893,7.856-1.191,7.856-1.191a22.231,22.231,0,0,1-5.323-7.32,4,4,0,0,0-3.283-2.381C1605.884,291.72,1598.179,291.506,1596.69,295.1Z" transform="translate(-1188.987 -228.1)" fill="#233862"/>
    <path id="Trazado_111565" data-name="Trazado 111565" d="M1597.224,297.521a20.6,20.6,0,0,0-3.714,4.688c-.864,1.93-1.153,6.563-.5,8.409,0,0-4.3-8.514-1.8-12.616C1593.868,293.653,1597.224,297.521,1597.224,297.521Z" transform="translate(-1185.544 -231.131)" fill="#233862"/>
    <path id="Trazado_111566" data-name="Trazado 111566" d="M1586.648,420.293c.207,26.462-.04,20.923,2.837,23.461.692.61,2.65.984,5.231,1.173,8.107.6,22.38-.64,22.933-2.137,1.908-5.173.6-6.795,2.217-14.726.167-.844.376-1.756.62-2.752,1.34-5.445,2.62-7.293-1.938-16.088-4.132-7.971-8.436-14.447-8.83-14.212-11.1,6.476-11.956.961-11.956.961S1586.543,407.386,1586.648,420.293Z" transform="translate(-1180.687 -305.524)" fill="#aec3ff"/>
    <path id="Trazado_111567" data-name="Trazado 111567" d="M1488.262,735.1s-.483.316-1.208.715a16.025,16.025,0,0,1-3.171,1.38,12.981,12.981,0,0,1-3.263.426q-.624.008-1.246-.047l-8.334-22.915,2.441-4.145,6.252-10.608,2.05-3.487c.336,1.1.657,2.269.971,3.487.842,3.3,1.587,6.947,2.242,10.608C1487.161,722.738,1488.262,735.1,1488.262,735.1Z" transform="translate(-1098.384 -531.862)" fill="#2b478b"/>
    <path id="Trazado_111568" data-name="Trazado 111568" d="M1564.413,398.88s-11.383,1.848-12.753,6.725l-9.43,33.608s5.774,1.081,8.468-1.572,9.465-24.709,9.465-24.709Z" transform="translate(-1149.563 -308.434)" fill="#aec3ff"/>
    <path id="Trazado_111569" data-name="Trazado 111569" d="M1619,511.289c8.107.6,22.38-.64,22.933-2.137,1.908-5.173.6-6.795,2.217-14.726l-3.836-11.047s.56,12.275-3.081,15.475-14.86,6.127-16.639,8.81A10.236,10.236,0,0,0,1619,511.289Z" transform="translate(-1204.869 -371.886)" fill="#95b3ef"/>
    <path id="Trazado_111570" data-name="Trazado 111570" d="M1613.714,571.093s-7.991-1.838-9.289-1.136-4.483,3.266-4.872,4.162,2.88-.663,3.946-.942c.69-.179,2.491.463,3.395.77a11.31,11.31,0,0,0,6.088.655Z" transform="translate(-1191.606 -436.779)" fill="#ffb27d"/>
    <path id="Trazado_111571" data-name="Trazado 111571" d="M1658.236,395s10.743.747,14.427,5.956c5.188,7.34,15.356,38.545,9.373,42.655-6.725,4.628-30.528,1.009-30.528,1.009s-.765-3.711.349-5.495,19.055-4.551,19.887-5.373-10.212-16.19-10.212-18.681S1658.236,395,1658.236,395Z" transform="translate(-1227.569 -305.52)" fill="#aec3ff"/>
    <path id="Trazado_111572" data-name="Trazado 111572" d="M1608.106,579.34a15.478,15.478,0,0,1-2.242,2.406,1.63,1.63,0,0,1-.9.187l1.143-2.025Z" transform="translate(-1196.328 -443.944)" fill="#ffb27d"/>
    <path id="Trazado_111573" data-name="Trazado 111573" d="M1604.462,570.41l-4.892,2.334a.87.87,0,0,0,.8.316,11.6,11.6,0,0,0,2.12-.565Z" transform="translate(-1192.301 -437.239)" fill="#ffb27d"/>
    <path id="Trazado_111574" data-name="Trazado 111574" d="M1462.121,510.117l-38.57-.272-11.4-28.936,38.513.272Z" transform="translate(-1053.608 -370.032)" fill="#f99746"/>
    <path id="Trazado_111575" data-name="Trazado 111575" d="M1456.14,592.55l50.932.361-.007,1.123-50.481-.356Z" transform="translate(-1085.251 -453.864)" fill="#ed7d2b"/>
    <path id="Trazado_111576" data-name="Trazado 111576" d="M1497.206,533.928a1.337,1.337,0,0,1,1.323-1.828,2.635,2.635,0,0,1,2.351,1.853,1.339,1.339,0,0,1-1.325,1.828,2.631,2.631,0,0,1-2.349-1.853Z" transform="translate(-1118.126 -408.471)" fill="#fff"/>
    <rect id="Rectángulo_8561" data-name="Rectángulo 8561" width="195.085" height="40.07" rx="20.035" transform="translate(346.712 447.87) rotate(180)" fill="#2b478b"/>
    <path id="Trazado_111577" data-name="Trazado 111577" d="M1141.094,1690.379l-.139,8.758a14.03,14.03,0,0,0,13.8,14.25l103.57,1.654.027-1.744a17.852,17.852,0,0,1-9.622-16.133l.05-3.081a17.849,17.849,0,0,1,10.13-15.82v-.035l-103.57-1.654A14.031,14.031,0,0,0,1141.094,1690.379Z" transform="translate(-854.023 -1267.877)" fill="#ffeddc"/>
    <path id="Trazado_111578" data-name="Trazado 111578" d="M1256.276,1712.961H1147.161c-7.037,0-12.551-8.8-12.551-20.048s5.515-20.046,12.551-20.046h109.112a1.642,1.642,0,1,1,0,3.281H1147.161c-5.024,0-9.268,7.679-9.268,16.766s4.234,16.768,9.268,16.768h109.112a1.641,1.641,0,1,1,0,3.28Z" transform="translate(-849.088 -1265.094)" fill="#1b3770"/>
    <rect id="Rectángulo_8562" data-name="Rectángulo 8562" width="78.787" height="0.237" transform="translate(319.334 418.459)" fill="#e8c2a3"/>
    <rect id="Rectángulo_8563" data-name="Rectángulo 8563" width="35.621" height="0.237" transform="translate(363.315 422.108)" fill="#e8c2a3"/>
    <rect id="Rectángulo_8564" data-name="Rectángulo 8564" width="62.141" height="0.237" transform="translate(335.446 434.549)" fill="#e8c2a3"/>
    <path id="Trazado_111579" data-name="Trazado 111579" d="M1316.781,1716.24s3.305,1.385,3.7,6.056a33.114,33.114,0,0,1,0,7.156l-3.985-1.9-4.028,1.9v-7.293s-.147-5.911-5.646-5.911Z" transform="translate(-979.687 -1297.664)" fill="#f78248"/>
    <g id="girl_2" data-name="girl 2" transform="translate(137.156 260.983)">
      <path id="Trazado_111580" data-name="Trazado 111580" d="M860.681,1084.008a13.715,13.715,0,0,1,14.359,4.827c6.24,7.507,15.381,17.65,13.01,20.522s-2.847,5.231.556,7.079,5.2,4.284.189,11.956c-3.27,5-3.966-1.654-13.9-1.325s-17.525-4.68-20.846-1.928C841.525,1135.52,843.348,1083.724,860.681,1084.008Z" transform="translate(-794.015 -1083.543)" fill="#233862"/>
      <path id="Trazado_111581" data-name="Trazado 111581" d="M712,1239.27s-22.818,10.791-27.21,10.6-32.714-9.42-32.714-9.42l.687,4.655s20.881,12.008,28.179,12.688c7.186.672,31.76-6.449,34.124-7.953S718.9,1240.789,712,1239.27Z" transform="translate(-648.438 -1200.481)" fill="#ed985f"/>
      <path id="Trazado_111582" data-name="Trazado 111582" d="M881.26,1205.242a23.252,23.252,0,0,0,8.133,3.462c12.534,2.9,17.336-7.7,19.142-14.97a10.792,10.792,0,0,0-4.234-1.305c-.907-.107-1.861-.177-2.648-.217-1.407-1.079-3.5-5.48-3.97-12.342l-.588.159-9.879,2.7s.451,3.141.672,6.11c.172,2.321.2,4.541-.249,5.084-.77.167-1.245.277-1.245.277A63.627,63.627,0,0,0,881.26,1205.242Z" transform="translate(-820.534 -1155.877)" fill="#ffb27d"/>
      <path id="Trazado_111583" data-name="Trazado 111583" d="M905.11,1183.223s.456,3.138.675,6.107c5.6-.56,8.195-5.888,9.216-8.81Z" transform="translate(-838.443 -1156.365)" fill="#ed985f"/>
      <path id="Trazado_111584" data-name="Trazado 111584" d="M881.743,1134.443s13.283-.747,12.7-9,.747-13.929-7.769-13.809-9.928,3.39-10.4,6.195S878.271,1134.42,881.743,1134.443Z" transform="translate(-816.745 -1104.636)" fill="#ffb27d"/>
      <path id="Trazado_111585" data-name="Trazado 111585" d="M870.706,1108.123c1.873-2.633,3.462-2.2,4.384-1.514a9.3,9.3,0,0,1,12.063,1.053,15.881,15.881,0,0,0,5.831,8.967s-2.309,1.666-7.988.632a9.417,9.417,0,0,1-4.733-2.792,31.112,31.112,0,0,0,5.786,6.107c-6.88-2.6-10.212-11.672-10.556-12.631a10.6,10.6,0,0,0-2.615,4.062c-.5,2.152-2.713,5.517-3.986,5.46C868.893,1117.464,867.9,1112.058,870.706,1108.123Z" transform="translate(-811.119 -1099.541)" fill="#233862"/>
      <path id="Trazado_111586" data-name="Trazado 111586" d="M855.862,1237.613c-.717,6.4.349,9.216,6.989,24.011,5.609,12.494-.747,23.745-.747,23.745s13.647,10.974,23.446,15.219c5.445,2.364,9.714,2.648,9.772-2.182.072-5.465-2.491-12.357-4.645-18.781-1.858-5.54-3.41-10.733-2.7-14.365,1.2-6.13,5.109-30.637,1.2-38.518-1.4-2.832-6.917-3.089-12.952-2.837-1.883,1.213-9.051,5.806-12,5.231l-.164-.035c-1.387-.349-1.387-1.178-.747-2.164a27.8,27.8,0,0,0-6.376,1.021,26.974,26.974,0,0,0-8.105,4.219A19.771,19.771,0,0,0,855.862,1237.613Z" transform="translate(-796.182 -1188.888)" fill="#ffeddc"/>
      <path id="Trazado_111587" data-name="Trazado 111587" d="M802.417,1367.768a6.137,6.137,0,0,1-4.416-2.7c-.159-.249-.331-.5-.5-.77-3.761-5.692-5.231-23.125-13.682-41.694-2.06-4.521-9.453-5.335-11.458-10.446,0,0-4.962-16.564,9.5-17.052s38.73,46.08,39.106,50.977C821.322,1350.828,830.511,1370.939,802.417,1367.768Z" transform="translate(-738.144 -1242.409)" fill="#1b3770"/>
      <path id="Trazado_111588" data-name="Trazado 111588" d="M664.74,1553.123h20.584s.77-3.283-.583-5.517c-1.2-1.975-.747-3.1.15-4.732a7.958,7.958,0,0,1-3.467.653,7.221,7.221,0,0,1-3.061-1.076,73.49,73.49,0,0,1-5.863,6.162C671.154,1549.574,665.156,1549.228,664.74,1553.123Z" transform="translate(-657.945 -1428.145)" fill="#233862"/>
      <path id="Trazado_111589" data-name="Trazado 111589" d="M727.313,1297.971c-1.245,9.293-6.078,38.607-14.616,52.929-2.74,4.613,6.935,7.2,6.987,7.184,1.3-.339,3.465-2.411,4.461-3.31,6.932-6.247,21-23.937,21-38.109,0-6.915.122-20.121-4.907-23.478C737.144,1291.111,727.806,1294.282,727.313,1297.971Z" transform="translate(-693.59 -1240.474)" fill="#1b3770"/>
      <path id="Trazado_111590" data-name="Trazado 111590" d="M822.914,1309.1c2.018,5.111,7.684,4.484,9.747,9.007.087.192.172.384.249.573,1.059,2.347,2.057,4.693,3,7.012,1.97,4.842,4.9,14.972,7.109,23.179,1.495,5.569,2.655,10.257,2.949,11.8a22.841,22.841,0,0,0,1.231,4.2c31.529,4.865,27.553-16.86,25.822-21.936-1.577-4.638-29.055-52.524-43.517-52.034S822.914,1309.1,822.914,1309.1Z" transform="translate(-775.115 -1239.247)" fill="#2b478b"/>
      <path id="Trazado_111591" data-name="Trazado 111591" d="M725.4,1553.123h20.574s.77-3.283-.58-5.517c-1.2-1.975-.747-3.1.147-4.732a7.959,7.959,0,0,1-3.467.653,7.219,7.219,0,0,1-3.061-1.076,73.483,73.483,0,0,1-5.863,6.162C731.814,1549.574,725.816,1549.228,725.4,1553.123Z" transform="translate(-703.496 -1428.145)" fill="#1e3d7c"/>
      <path id="Trazado_111592" data-name="Trazado 111592" d="M869.52,1382.263c1.059,2.346,2.057,4.692,3,7.011,1.97,4.842,4.9,14.972,7.109,23.18.015.035.035.07.052.1,8.2-12.783-3.612-37-3.612-37A14.357,14.357,0,0,0,869.52,1382.263Z" transform="translate(-811.718 -1302.824)" fill="#1e3d7c"/>
      <path id="Trazado_111593" data-name="Trazado 111593" d="M784.869,1298.432c-1.245,9.291-2.989,39.278-11.522,53.587-2.753,4.613,6.934,7.2,6.974,7.183,1.3-.339,3.465-2.411,4.461-3.31,6.932-6.247,21-23.937,21-38.109,0-6.914-8.115-19.568-13.142-22.915A5.039,5.039,0,0,0,784.869,1298.432Z" transform="translate(-739.13 -1241.592)" fill="#2b478b"/>
      <path id="Trazado_111594" data-name="Trazado 111594" d="M637.46,1176.769l4.269-7.7,3.348,9.348,20.044,18.262-19.608,4Z" transform="translate(-637.46 -1147.767)" fill="#ea642f"/>
      <path id="Trazado_111595" data-name="Trazado 111595" d="M661.212,1205.116,669.036,1229l-23.523-5.111-8.053-23.91Z" transform="translate(-637.46 -1170.978)" fill="#f78248"/>
      <path id="Trazado_111596" data-name="Trazado 111596" d="M660.308,1203.532l-21.882-4.911-.966.339,22.689,4.9Z" transform="translate(-637.46 -1169.957)" fill="#fcecdb"/>
      <path id="Trazado_111597" data-name="Trazado 111597" d="M728.709,1218.34l.261.423-.421-.092Z" transform="translate(-705.861 -1184.765)" fill="#eac5a4"/>
      <path id="Trazado_111598" data-name="Trazado 111598" d="M637.46,1177.9l4.615-7.323,3.016,8.481-6.665-1.5Z" transform="translate(-637.46 -1148.901)" fill="#efdece"/>
      <path id="Trazado_111599" data-name="Trazado 111599" d="M692.9,1226.673c.747-.142,2.331-.748,3.943-1.186a3.312,3.312,0,0,1-1.166-1.3c-.286-.909-.478-1.2.481-.914s4.309,1.826,4.309,1.826h0c1.906.555,3.659,3.238,3.659,3.238s23.583,8.289,26.423,8.434c4.389.219,33.6-10.539,33.6-10.539,6.894,1.522,5.348,9.993,2.974,11.495s-23.394,9.151-35.853,9.3c-6.31.072-29.265-14.681-29.265-14.681a9.765,9.765,0,0,0-4.79-.842c-2.107.384-6.994,0-8.05-1.726S691.651,1226.912,692.9,1226.673Z" transform="translate(-676.141 -1188.388)" fill="#ffb27d"/>
      <path id="Trazado_111600" data-name="Trazado 111600" d="M930.33,1238.8a16.046,16.046,0,0,0,11.587,10.152s14.818-4.566,7.44-14.661C949.357,1234.288,942.062,1228.875,930.33,1238.8Z" transform="translate(-857.382 -1195.633)" fill="#ffeddc"/>
      <path id="Trazado_111601" data-name="Trazado 111601" d="M643.241,1227.082h0a2.239,2.239,0,0,1,.08-.673s2.112-3.345,2.8-3.487c2.11-.418,2.11,2.359,1.661,4.15-.311,1.246-.765,3.054-1.407,3.7l.9,2.66A6.685,6.685,0,0,1,643.241,1227.082Z" transform="translate(-641.799 -1188.174)" fill="#ffb27d"/>
      <path id="Trazado_111602" data-name="Trazado 111602" d="M977.82,1459.443c5.445,2.364,9.714,2.648,9.772-2.182.072-5.465-2.491-12.357-4.646-18.781,0,0-2.964,2.045-9.345-2.635C968.567,1432.151,974.914,1451.223,977.82,1459.443Z" transform="translate(-888.463 -1347.741)" fill="#2b478b"/>
    </g>
    <path id="Trazado_111603" data-name="Trazado 111603" d="M514,1760.794a9.794,9.794,0,0,0,.08,1.275,10.462,10.462,0,0,0,10.382,9.2H671.73a10.473,10.473,0,0,0,0-20.946H524.461A10.462,10.462,0,0,0,514,1760.794Z" transform="translate(-400.511 -1323.256)" fill="#f78248"/>
    <path id="Trazado_111604" data-name="Trazado 111604" d="M554.229,1733.023h50.494a1.612,1.612,0,0,0,1.607-1.607h0a1.611,1.611,0,0,0-1.607-1.606H554.229a1.611,1.611,0,0,0-1.609,1.606h0A1.612,1.612,0,0,0,554.229,1733.023Z" transform="translate(-434.751 -1307.854)" fill="#f78248"/>
    <rect id="Rectángulo_8565" data-name="Rectángulo 8565" width="5.472" height="1.896" transform="translate(132.98 427.064) rotate(180)" fill="#ea642f"/>
    <path id="Trazado_111605" data-name="Trazado 111605" d="M519.08,1812.48a10.494,10.494,0,0,0,9.2,5.463h31.2v-5.463Z" transform="translate(-404.326 -1369.933)" fill="#ea642f"/>
    <path id="Trazado_111606" data-name="Trazado 111606" d="M760.484,1757.725v6.135a7.392,7.392,0,0,1-7.4,7.4h-153.4a7.4,7.4,0,0,1-7.4-7.4v-6.135a7.4,7.4,0,0,1,7.4-7.406H753.089A7.4,7.4,0,0,1,760.484,1757.725Z" transform="translate(-466.7 -1323.256)" fill="#d9a171"/>
    <path id="Trazado_111607" data-name="Trazado 111607" d="M761.009,1812.48a7.4,7.4,0,0,1-7.146,5.463h-153.4a7.4,7.4,0,0,1-7.144-5.463Z" transform="translate(-467.491 -1369.933)" fill="#ef873a"/>
    <path id="Trazado_111608" data-name="Trazado 111608" d="M1206.41,1760.831a11.638,11.638,0,0,0,3.046,8.085l.124.127a7.436,7.436,0,0,0,5.256,2.294c3.106,0,10.8-4.685,15.575-7.8,2.376-1.552,4.025-2.711,4.025-2.711s-1.649-1.16-4.025-2.712c-4.772-3.113-12.469-7.8-15.575-7.8a6.942,6.942,0,0,0-2.578.5,8.442,8.442,0,0,0-3.549,2.8,11.58,11.58,0,0,0-2.135,5.126c0,.022,0,.045,0,.067a13,13,0,0,0-.164,2.017Z" transform="translate(-906.352 -1323.256)" fill="#cde0fb"/>
    <path id="Trazado_111609" data-name="Trazado 111609" d="M1206.41,1786.438a11.639,11.639,0,0,0,3.046,8.085l23.61-8.122-26.51-1.98A12.99,12.99,0,0,0,1206.41,1786.438Z" transform="translate(-906.415 -1348.862)" fill="#a6c7ed"/>
    <path id="Trazado_111610" data-name="Trazado 111610" d="M1215.64,1755.122l23.553,6.434-20-9.236A8.445,8.445,0,0,0,1215.64,1755.122Z" transform="translate(-913.232 -1324.758)" fill="#e3f0ff"/>
    <path id="Trazado_111611" data-name="Trazado 111611" d="M1296.59,1784.342a2.911,2.911,0,0,0,1.539,2.71c2.376-1.552,4.025-2.71,4.025-2.71s-1.649-1.16-4.025-2.712A2.9,2.9,0,0,0,1296.59,1784.342Z" transform="translate(-972.679 -1346.767)" fill="#2e3552"/>
    <path id="Trazado_111612" data-name="Trazado 111612" d="M1941.239,1181.713s-.715-1.609-1.178-2.369-2.439-2.989-2.777-2.491-1.682,3.906-.966,4.857-.047,2.608,3.512,3.609Z" transform="translate(-1425.435 -892.575)" fill="#ffb27d"/>
    <path id="Trazado_111613" data-name="Trazado 111613" d="M1991.548,1155.82s-18.215,15.194-25.316,13.8a140.286,140.286,0,0,1-14.075-4.023l-1.706,4.359s7.644,10.369,15.615,10.436a45.468,45.468,0,0,0,21.67-5.392Z" transform="translate(-1437.946 -876.834)" fill="#95b3ef"/>
    <path id="Trazado_111614" data-name="Trazado 111614" d="M2180.532,1791.4s-.531,8.529-2.18,8.651c-.219.018-8.369.018-8.369.018l-10.4-.062a3.374,3.374,0,0,1,3.108-3.036c3.042-.53,8.133-2.668,9.963-6.685C2174.6,1786.051,2180.532,1791.4,2180.532,1791.4Z" transform="translate(-1601.296 -1352.04)" fill="#1c3d72"/>
    <path id="Trazado_111615" data-name="Trazado 111615" d="M2139.694,1484.549a21.662,21.662,0,0,1-5.631,1.059,20.7,20.7,0,0,1-5.259-.747s-.6-5.759-3.871-18.447c-1.719-6.65-4.172-15.194-7.662-25.825-9.652-29.364-12.586-46.543-12.853-48.17-.015-.085-.02-.127-.02-.127l.03-.015,29.67-13.027s-3.666,40.471,1.012,56a66.007,66.007,0,0,1,1.7,7.442C2139.764,1459.578,2139.694,1484.549,2139.694,1484.549Z" transform="translate(-1559.86 -1044.612)" fill="#2b478b"/>
    <path id="Trazado_111616" data-name="Trazado 111616" d="M2124.994,1466.443c-1.718-6.65-4.172-15.194-7.662-25.825-9.652-29.364-12.586-46.543-12.853-48.17v-.142l29.671-13.027s-3.666,40.471,1.011,56C2135.827,1437.455,2124.994,1466.443,2124.994,1466.443Z" transform="translate(-1559.921 -1044.635)" fill="#233862"/>
    <path id="Trazado_111617" data-name="Trazado 111617" d="M2087.492,1791.4s-.528,8.529-2.179,8.651c-.219.018-8.369.018-8.369.018l-10.4-.062a3.377,3.377,0,0,1,3.108-3.036c3.039-.53,8.133-2.668,9.976-6.685C2081.562,1786.051,2087.492,1791.4,2087.492,1791.4Z" transform="translate(-1525.83 -1352.04)" fill="#1c3d72"/>
    <path id="Trazado_111618" data-name="Trazado 111618" d="M2083.105,1383.11a422.18,422.18,0,0,0,4.152,58.425c4.539,32.2,2.99,45.868,2.99,45.868a30.774,30.774,0,0,0,4.376,1.113,20.28,20.28,0,0,0,6.491-.747s6.494-32.214,4.633-48.322,8.893-55.3,8.893-55.3Z" transform="translate(-1543.864 -1047.511)" fill="#2b478b"/>
    <path id="Trazado_111619" data-name="Trazado 111619" d="M2130.508,1097.65l-5.79,3.806-5.277-1.495c-.963-1.377-1.22-4.027-1.232-6.326a38.843,38.843,0,0,1,.207-4.209l7.814-3.45,2.914-1.285c0,.045-.227,2.393-.249,2.74A19.871,19.871,0,0,0,2130.508,1097.65Z" transform="translate(-1570.23 -823.421)" fill="#ffb27d"/>
    <path id="Trazado_111620" data-name="Trazado 111620" d="M2082.241,1198.749c7.21,6.959,34.49,5.788,36.171-1.878s-1.833-65.279-14.145-68.9c-2.556-.747-16.218,3.664-16.218,3.664a86.915,86.915,0,0,0-3.549,12.748c-.271,1.39-1.069,16.111-1.663,29.89-.28,6.441-.514,12.676-.636,17.241A51.564,51.564,0,0,0,2082.241,1198.749Z" transform="translate(-1543.134 -855.859)" fill="#afcdfb"/>
    <path id="Trazado_111621" data-name="Trazado 111621" d="M2128.3,1091.386c-1.584,2.68-7.146,5.027-10.093,6.1a39.161,39.161,0,0,1,.206-4.209l7.814-3.45C2127.955,1089.8,2129.009,1090.191,2128.3,1091.386Z" transform="translate(-1570.23 -827.278)" fill="#fca56b"/>
    <path id="Trazado_111622" data-name="Trazado 111622" d="M2102.464,1039.3s12.589,3.928,14.912-3.951,5.518-12.675-2.423-15.515-10.4-.3-11.812,2.142S2099.248,1038.075,2102.464,1039.3Z" transform="translate(-1557.224 -773.778)" fill="#ffb27d"/>
    <path id="Trazado_111623" data-name="Trazado 111623" d="M2108.341,1008.241s.8,9.169,2.7,8.77,3.986-1.245,3.707,1.515,1.843,7.5,4.576,7.49c5.863-.025,12.234-15.069,10.628-17.934C2125.319,999.862,2101.636,998.2,2108.341,1008.241Z" transform="translate(-1561.929 -760.804)" fill="#163560"/>
    <path id="Trazado_111624" data-name="Trazado 111624" d="M2109.258,1117.348c.162-.07,9.373-4.2,10.462-3.843s2.42,3.644,2.42,3.644l-16.23,3.687A8.039,8.039,0,0,1,2109.258,1117.348Z" transform="translate(-1560.994 -845.042)" fill="#95b3ef"/>
    <path id="Trazado_111625" data-name="Trazado 111625" d="M1885.855,1293.284l51.627,48.609c1.011.951,2.286,1.245,2.834.675l1.744-1.851c.548-.583.167-1.838-.844-2.792l-51.627-48.605c-1.011-.954-2.289-1.245-2.837-.675l-1.744,1.851C1884.462,1291.077,1884.841,1292.332,1885.855,1293.284Z" transform="translate(-1388.426 -976.355)" fill="#1f4d84"/>
    <path id="Trazado_111626" data-name="Trazado 111626" d="M2005.47,1405.705l22.667,21.331c1.011.952,2.286,1.246,2.834.675l1.744-1.851c.548-.583.167-1.838-.844-2.792L2009.2,1401.74Z" transform="translate(-1479.419 -1061.5)" fill="#f78248"/>
    <path id="Trazado_111627" data-name="Trazado 111627" d="M1688.871,1037.347a40.463,40.463,0,0,0-57.194-1.744q-.324.3-.635.613a40.466,40.466,0,1,0,57.829,1.128Zm-3.93,54.875a37.228,37.228,0,1,1,11.73-26.009A37.272,37.272,0,0,1,1684.94,1092.222Z" transform="translate(-1199.551 -778.308)" fill="#1f4d84"/>
    <g id="Grupo_59754" data-name="Grupo 59754" transform="translate(422.235 249.494)" opacity="0.5">
      <path id="Trazado_111628" data-name="Trazado 111628" d="M1641.711,1100.227a37.128,37.128,0,1,0-10.166-26.675A37.275,37.275,0,0,0,1641.711,1100.227Z" transform="translate(-1631.528 -1037.416)" fill="#b3cff9"/>
    </g>
    <path id="Trazado_111629" data-name="Trazado 111629" d="M2082.43,1240.645c28.447-20.27,26.082-47.325,26.082-47.325-10.4,5.866-20.714,18.831-25.446,30.079C2082.786,1229.855,2082.552,1236.082,2082.43,1240.645Z" transform="translate(-1538.221 -904.994)" fill="#95b3ef"/>
    <path id="Trazado_111630" data-name="Trazado 111630" d="M1945.077,1339.5a7.967,7.967,0,0,1-3.632-2.242s-.857.057.139,1.883c.085.152.269.545.409.822a.177.177,0,0,1-.15.249c-1.158.09-2.322-.369-4.551.1-.309.062-.4.8-.386,1.113a2.847,2.847,0,0,0,.6,1.943c.359.476,1.363,1,3.594,1.883.85.341,3.283.085,5.562-.7l1.821-.842-.565-3.385-.456.1C1946.735,1340.575,1945.836,1339.686,1945.077,1339.5Z" transform="translate(-1426.305 -1013.081)" fill="#ffb27d"/>
    <path id="Trazado_111631" data-name="Trazado 111631" d="M2021.33,1143s25.561,4.867-7.52,41.881c-5.29,5.921-33.875,13.627-33.875,13.627s-2.9-2.466-1.437-4.463c0,0,19.677-14.292,24.011-16.564,1.948-1.021,7.56-22.811,10.736-28.056A14.332,14.332,0,0,1,2021.33,1143Z" transform="translate(-1459.644 -867.207)" fill="#afcdfb"/>
    <path id="Trazado_111632" data-name="Trazado 111632" d="M1943.479,1179.592a12.838,12.838,0,0,1-1-2.441,13.444,13.444,0,0,0-1.649-3.736c-.174-.172-.747.052-.814.8a4.32,4.32,0,0,0,.411,1.616,18.394,18.394,0,0,1,.541,3.211C1941.364,1180.329,1943.479,1179.592,1943.479,1179.592Z" transform="translate(-1428.353 -890.006)" fill="#ffb27d"/>
    <path id="Trazado_111633" data-name="Trazado 111633" d="M635.145,1607.01h123.7a10.942,10.942,0,0,0,10.942-10.945h0a10.945,10.945,0,0,0-10.942-10.945h-123.7a10.945,10.945,0,0,0-10.945,10.93h0a10.945,10.945,0,0,0,10.945,10.96Z" transform="translate(-490.855 -1199.204)" fill="#699dee"/>
    <path id="Trazado_111634" data-name="Trazado 111634" d="M947.3,1594.6l-.1,4.775c-.092,4.235,4.521,7.707,10.3,7.776l77.295.9.02-.951c-4.336-1.649-7.263-4.982-7.181-8.8l.037-1.682c.082-3.816,3.156-7.081,7.562-8.628v-.02l-77.295-.9C952.155,1587,947.4,1590.37,947.3,1594.6Z" transform="translate(-717.137 -1200.665)" fill="#ffeddc"/>
    <path id="Trazado_111635" data-name="Trazado 111635" d="M1033.267,1606.882H951.838c-5.253,0-9.368-4.8-9.368-10.937S946.587,1585,951.838,1585h81.429c.677,0,1.226.4,1.226.894s-.548.894-1.226.894H951.838c-3.751,0-6.919,4.19-6.919,9.147s3.168,9.146,6.919,9.146h81.429c.677,0,1.226.4,1.226.894S1033.945,1606.882,1033.267,1606.882Z" transform="translate(-713.603 -1199.114)" fill="#4b87dd"/>
    <rect id="Rectángulo_8566" data-name="Rectángulo 8566" width="58.798" height="0.152" transform="translate(254.984 391.712)" fill="#e8c2a3"/>
    <rect id="Rectángulo_8567" data-name="Rectángulo 8567" width="26.584" height="0.152" transform="translate(288.55 393.703)" fill="#e8c2a3"/>
    <rect id="Rectángulo_8568" data-name="Rectángulo 8568" width="46.376" height="0.152" transform="translate(267.299 400.492)" fill="#e8c2a3"/>
  </g>
</svg>
