<svg xmlns="http://www.w3.org/2000/svg" width="366.211" height="324.334" viewBox="0 0 366.211 324.334">
  <g id="Agreement-amico" transform="translate(-31.585 -39.745)">
    <g id="freepik--Floor--inject-147" transform="translate(31.585 211.953)">
      <path id="freepik--floor--inject-147-2" data-name="freepik--floor--inject-147" d="M85.214,376.838c71.506,29.724,187.447,29.724,258.952,0s71.506-77.851,0-107.549-187.447-29.724-258.952,0S13.709,347.14,85.214,376.838Z" transform="translate(-31.585 -247.005)" fill="#f5f5f5"/>
    </g>
    <g id="freepik--Shadows--inject-147" transform="translate(245.134 277.539)">
      <ellipse id="freepik--Shadow--inject-147" cx="33.975" cy="19.617" rx="33.975" ry="19.617" transform="translate(0 29.322)" fill="#e0e0e0"/>
      <ellipse id="freepik--shadow--inject-147-2" data-name="freepik--shadow--inject-147" cx="30.053" cy="17.349" rx="30.053" ry="17.349" transform="translate(66.005)" fill="#e0e0e0"/>
    </g>
    <g id="freepik--Clouds--inject-147" transform="translate(289.96 69.341)">
      <g id="freepik--clouds--inject-147-2" data-name="freepik--clouds--inject-147">
        <path id="Trazado_108041" data-name="Trazado 108041" d="M371.6,78.252l5.318,3.066a5.134,5.134,0,0,1-.05-.706V79.075c0-2.742,1.928-3.847,4.3-2.493a8.16,8.16,0,0,1,2.559,2.493c.391-3.448,3.091-4.728,6.373-2.833a14.2,14.2,0,0,1,6.423,11.125v2.3a6.082,6.082,0,0,1-.54,2.675l4.412,2.543a5.284,5.284,0,0,1,2.385,4.154c0,1.521-1.072,2.135-2.385,1.371L371.6,83.794a5.276,5.276,0,0,1-2.376-4.154C369.22,78.1,370.284,77.488,371.6,78.252Z" transform="translate(-347.06 -75.365)" fill="#ebebeb"/>
        <path id="Trazado_108042" data-name="Trazado 108042" d="M344.353,97.024l4.013,2.31a3.824,3.824,0,0,1-.042-.532V97.647c0-2.069,1.454-2.908,3.249-1.878a6.4,6.4,0,0,1,1.928,1.861c.291-2.6,2.335-3.564,4.811-2.135a10.71,10.71,0,0,1,4.844,8.4v1.737a4.536,4.536,0,0,1-.407,2.011l3.324,1.919a3.988,3.988,0,0,1,1.795,3.116c0,1.147-.831,1.612-1.795,1.039L344.345,101.17a3.947,3.947,0,0,1-1.795-3.107C342.558,96.916,343.356,96.451,344.353,97.024Z" transform="translate(-342.55 -78.657)" fill="#ebebeb"/>
      </g>
    </g>
    <g id="freepik--Plants--inject-147" transform="translate(32.227 250.85)">
      <g id="freepik--plants--inject-147-2" data-name="freepik--plants--inject-147" transform="translate(0 34.53)">
        <path id="Trazado_108043" data-name="Trazado 108043" d="M70.68,385.565c-.523.283-10.311,3.066-13.934-1.728s2.393-12.247-1.014-15-12.92,0-15.213-5.775,4.5-8.309.681-14.125c-2.41-3.672-9.14-5.7-8.832-9.14.449-4.985,9.647-6.348,17.689-.989s11.782.964,14.341.607,8.051.432,7.868,9.389S70.68,385.565,70.68,385.565Z" transform="translate(-32.358 -335.377)" fill="#455a64"/>
        <path id="Trazado_108044" data-name="Trazado 108044" d="M72.392,373.266a.532.532,0,0,1-.523-.449c-2.8-17-22.558-30.834-32.836-33.8a.548.548,0,0,1-.366-.665.532.532,0,0,1,.665-.357c10.5,3.033,30.743,17.208,33.593,34.648a.54.54,0,0,1-.44.615Z" transform="translate(-33.421 -335.816)" fill="#fff"/>
        <path id="Trazado_108045" data-name="Trazado 108045" d="M51.112,362.486a.532.532,0,0,1-.457-.258.54.54,0,0,1,.183-.731c.324-.191,7.927-4.636,15.413-2.559a.532.532,0,0,1,.374.656.523.523,0,0,1-.656.374c-7.046-1.953-14.507,2.4-14.582,2.443A.524.524,0,0,1,51.112,362.486Z" transform="translate(-35.44 -339.268)" fill="#fff"/>
      </g>
      <g id="freepik--plants--inject-147-3" data-name="freepik--plants--inject-147" transform="translate(321.715)">
        <path id="Trazado_108046" data-name="Trazado 108046" d="M422.5,333.4l-2.576-1.213s-.831-9.3,0-15.5c1.662-11.558,9.73-21.52,16.917-22.691,9.256-1.5,7.611,7.013,2.318,10.693C430.726,310.587,424.162,319.5,422.5,333.4Z" transform="translate(-419.556 -293.818)" fill="#d9a171"/>
        <g id="Grupo_59592" data-name="Grupo 59592" opacity="0.1">
          <path id="Trazado_108047" data-name="Trazado 108047" d="M422.5,333.4l-2.576-1.213s-.831-9.3,0-15.5c1.662-11.558,9.73-21.52,16.917-22.691,9.256-1.5,7.611,7.013,2.318,10.693C430.726,310.587,424.162,319.5,422.5,333.4Z" transform="translate(-419.556 -293.818)"/>
        </g>
        <path id="Trazado_108048" data-name="Trazado 108048" d="M421.771,330.181h.066a.449.449,0,0,0,.357-.523c-1.795-9.5,6.024-27.1,16.485-32.105a.459.459,0,0,0-.391-.831c-10.8,5.151-18.828,23.265-16.983,33.086a.449.449,0,0,0,.465.374Z" transform="translate(-419.807 -294.302)" fill="#fff"/>
        <path id="Trazado_108049" data-name="Trazado 108049" d="M419.934,334.093c-.191-1.379-.274-3.39-.3-3.889a12.662,12.662,0,0,1,.756-5.151,10.162,10.162,0,0,1,4.3-5.21c1.08-.623,2.343-1.072,3.041-2.1a6.713,6.713,0,0,0,.789-3.083,6.686,6.686,0,0,1,2.152-4.636,6.957,6.957,0,0,1,4.985-.906c2.493.266,4.827.6,7.154-.54a48.866,48.866,0,0,1,5.75-2.592c2.493-.831,8.068-2.077,9.239,1.421a3.365,3.365,0,0,1-.507,2.85,10.2,10.2,0,0,1-2.094,2.135l-3.9,3.24a4.986,4.986,0,0,0-1.188,1.238c-.756,1.3-.216,2.933-.382,4.42a5.276,5.276,0,0,1-2.393,3.722,7.087,7.087,0,0,1-4.354,1.055c-2.036-.141-5.359-1.7-6.605.7a7.768,7.768,0,0,0-.6,2.576,3.863,3.863,0,0,1-4.346,3.93,20.017,20.017,0,0,0-5.359.831c-.7.274-1.138,1.163-1.545,1.753C423.258,335.43,421.862,334.924,419.934,334.093Z" transform="translate(-419.565 -295.721)" fill="#d9a171"/>
        <path id="Trazado_108050" data-name="Trazado 108050" d="M421.278,333.873a.39.39,0,0,1-.191,0,.424.424,0,0,1-.233-.548c5.235-13,21.935-22.317,31.889-25.408a.415.415,0,0,1,.523.282.424.424,0,0,1-.274.523c-9.8,3.041-26.231,12.181-31.357,24.926A.432.432,0,0,1,421.278,333.873Z" transform="translate(-419.77 -296.199)" fill="#fff"/>
      </g>
    </g>
    <g id="freepik--Agreement--inject-147" transform="translate(69.469 39.745)">
      <g id="freepik--Contract--inject-147">
        <path id="Trazado_108051" data-name="Trazado 108051" d="M81.742,339.332l-2.9-1.662A3.664,3.664,0,0,1,77.18,334.8V119.963a3.656,3.656,0,0,1,1.662-2.867L212.115,40.148a3.648,3.648,0,0,1,3.324,0l2.9,1.662A3.664,3.664,0,0,1,220,44.677V259.518a3.648,3.648,0,0,1-1.662,2.867L85.048,339.332a3.631,3.631,0,0,1-3.307,0Z" transform="translate(-77.18 -39.746)" fill="#aed3f2"/>
        <path id="Trazado_108052" data-name="Trazado 108052" d="M220.04,44.419c-.108-.831-.831-1.172-1.662-.69L85.147,120.677a3.481,3.481,0,0,0-1.172,1.23l-6.215-3.581a3.481,3.481,0,0,1,1.172-1.23L212.213,40.148a3.631,3.631,0,0,1,3.324,0l2.908,1.662A3.681,3.681,0,0,1,220.04,44.419Z" transform="translate(-77.278 -39.745)" fill="#fff" opacity="0.4"/>
        <path id="Trazado_108053" data-name="Trazado 108053" d="M84.764,355.454a.257.257,0,0,1-.1,0l-.166.058h-.066a1.5,1.5,0,0,0-.307.075h0a3.747,3.747,0,0,1-1.969-.158,3.012,3.012,0,0,1-.366-.166L78.882,353.6a3.689,3.689,0,0,1-1.662-2.867V135.952a3.5,3.5,0,0,1,.482-1.662l6.215,3.581a3.323,3.323,0,0,0-.49,1.662V354.374a1.346,1.346,0,0,0,.258.872.831.831,0,0,0,.881.283,1.082,1.082,0,0,0,.2-.075Z" transform="translate(-77.187 -55.735)" opacity="0.15"/>
        <path id="Trazado_108054" data-name="Trazado 108054" d="M187.2,84.331l-.241-.15-2.75-1.579a10.178,10.178,0,0,0-3.215-1.138c-.474-.108-.9-.233-1.271-.357a9.655,9.655,0,0,1-1.213-.49l.2-.258h0l-3.091-1.8h0a3.265,3.265,0,0,0-.831-.324c-1.172-.291-2.925.391-4.67.191a4.346,4.346,0,0,1-3.174-1.886c-1.064-1.429-1.7-3.93-2.642-6.007l.831-1.2a2.55,2.55,0,0,0-.258-.141l-2.85-1.662a3.124,3.124,0,0,0-1.587-.432,6.082,6.082,0,0,0-2.991.972c-6.822,3.947-7.054,13.294-9.514,19.459s-5.941,8.084-7.835,10.735-2.027,4.611-6.223,10.394-4.362,7.2-4.362,8.309v8.616l3.107,1.795,55.852-32.263Zm-51.216,33.235c-.723.407-1.321-.15-1.321-1.271a3.531,3.531,0,0,1,1.321-2.8c.723-.415,1.313.158,1.313,1.28a3.506,3.506,0,0,1-1.313,2.775Zm24.536-24.187a2.808,2.808,0,0,1-4.3-1.313c-2.169.415-3.781-1.662-3.781-5.268,0-4.237,2.235-8.949,4.985-10.544a2.808,2.808,0,0,1,4.3,1.321c2.169-.432,3.772,1.662,3.772,5.259,0,4.221-2.218,8.932-4.977,10.527Zm18.554-.7c-.731.424-1.321-.141-1.321-1.263a3.448,3.448,0,0,1,1.321-2.8c.731-.424,1.321.141,1.321,1.263a3.457,3.457,0,0,1-1.321,2.783Z" transform="translate(-86.03 -44.37)" fill="#455a64"/>
        <path id="Trazado_108055" data-name="Trazado 108055" d="M135.737,128.965l-6.007-3.465a4.287,4.287,0,0,0-.2,1.338v8.616l3.107,1.795,3.1-1.795Z" transform="translate(-86.033 -54.248)" fill="#37474f" opacity="0.5"/>
        <path id="Trazado_108056" data-name="Trazado 108056" d="M143.282,114.682l3.107-7.171-4.935-2.891h0c-1.446,2-1.869,3.623-3.814,6.8Z" transform="translate(-87.405 -50.717)" fill="#37474f" opacity="0.5"/>
        <path id="Trazado_108057" data-name="Trazado 108057" d="M157.871,95.546l.4-2.094c-1.371-.573-2.285-2.426-2.285-5.127a14.288,14.288,0,0,1,3.781-9.613l-4.3-2.493c-1.828,4.154-2.493,9.14-4,12.854a20.959,20.959,0,0,1-1,2.185Z" transform="translate(-89.573 -45.914)" fill="#37474f" opacity="0.5"/>
        <path id="Trazado_108058" data-name="Trazado 108058" d="M187.827,84.706l-.241-.15a12.521,12.521,0,0,0-2.867-.931,8.907,8.907,0,0,1-4.37-2.11,6.356,6.356,0,0,0-1.014-.748,2.891,2.891,0,0,0-.831-.332c-1.878-.457-5.3,1.6-7.76-1.6a.448.448,0,0,1-.075-.1c-1.72-2.31-2.351-7.478-4.927-9a2.55,2.55,0,0,0-.258-.141c-1.064-.5-2.443-.407-4.337.673-6.822,3.947-7.054,13.294-9.514,19.459s-5.932,8.084-7.827,10.735-2.019,4.611-6.223,10.394-4.354,7.2-4.354,8.309V127.8l55.852-32.263V86.875A2.16,2.16,0,0,0,187.827,84.706Zm-48.141,35.03c-.731.424-1.321-.141-1.321-1.271a3.473,3.473,0,0,1,1.321-2.792c.731-.424,1.313.15,1.313,1.271A3.473,3.473,0,0,1,139.686,119.736Zm21.437-25.973a2.808,2.808,0,0,1-4.3-1.313,7.91,7.91,0,0,1-.681-3.481c0-4.229,2.227-8.949,4.985-10.536a3.939,3.939,0,0,1,1.2-.474c2.169-.432,3.772,1.662,3.772,5.259.017,4.213-2.2,8.924-4.96,10.519ZM182.8,94.81c-.731.424-1.321-.141-1.321-1.255a3.448,3.448,0,0,1,1.321-2.792c.723-.424,1.313.141,1.313,1.263A3.465,3.465,0,0,1,182.8,94.81Z" transform="translate(-86.659 -44.745)" fill="#37474f"/>
        <path id="Trazado_108059" data-name="Trazado 108059" d="M170.931,84.919c0,4.237-2.218,8.949-4.985,10.544a2.808,2.808,0,0,1-4.3-1.313,4.154,4.154,0,0,0,1.2-.474c2.75-1.6,4.985-6.306,4.985-10.544a7.968,7.968,0,0,0-.681-3.473C169.327,79.244,170.931,81.329,170.931,84.919Z" transform="translate(-91.465 -46.487)" fill="#263238"/>
        <path id="Trazado_108060" data-name="Trazado 108060" d="M140.731,129.145c-.731.415-1.321-.15-1.321-1.263a3.49,3.49,0,0,1,1.321-2.8c.723-.424,1.313.158,1.313,1.271a3.5,3.5,0,0,1-1.313,2.792" transform="translate(-87.704 -54.154)" fill="#263238"/>
        <path id="Trazado_108061" data-name="Trazado 108061" d="M192.621,99.145c-.731.415-1.321-.141-1.321-1.263a3.49,3.49,0,0,1,1.321-2.8c.723-.415,1.313.158,1.313,1.28a3.49,3.49,0,0,1-1.313,2.783" transform="translate(-96.48 -49.081)" fill="#263238"/>
        <path id="Trazado_108062" data-name="Trazado 108062" d="M96.857,147.663,212.831,80.7a2.2,2.2,0,0,1,1.986,0l1.122.648a2.194,2.194,0,0,1,.989,1.72V260a2.177,2.177,0,0,1-.989,1.72L99.965,328.678a2.2,2.2,0,0,1-1.986,0l-1.122-.648a2.185,2.185,0,0,1-1-1.72V149.382A2.2,2.2,0,0,1,96.857,147.663Z" transform="translate(-80.339 -46.632)" fill="#f5f5f5"/>
        <path id="Trazado_108063" data-name="Trazado 108063" d="M216.954,82.771c-.125-.407-.507-.54-.956-.274L100.024,149.457a1.894,1.894,0,0,0-.706.739L96.21,148.41a2.044,2.044,0,0,1,.706-.748L212.891,80.7a2.2,2.2,0,0,1,1.986,0L216,81.35A2.2,2.2,0,0,1,216.954,82.771Z" transform="translate(-80.398 -46.632)" fill="#fafafa"/>
        <path id="Trazado_108064" data-name="Trazado 108064" d="M99.725,342.616a2.357,2.357,0,0,1-.366.1h-.191a2.967,2.967,0,0,1-.607,0,2.635,2.635,0,0,1-.366-.1l-.224-.108-1.113-.64a2.2,2.2,0,0,1-.989-1.72V163.212a1.928,1.928,0,0,1,.282-.972l3.107,1.786a2.085,2.085,0,0,0-.291.98V341.935C98.969,342.475,99.3,342.741,99.725,342.616Z" transform="translate(-80.341 -60.462)" fill="#e0e0e0"/>
        <path id="Trazado_108065" data-name="Trazado 108065" d="M195.785,104.656l-3.091-1.786a3.324,3.324,0,0,0-3.1.091c-3.606,1.587-5.168,2.31-7.029,3.091l-1.346.54c-.731.291-2.185.042-1.737-2.493l4.794-12.9H184.2l-3.033-1.753a1.263,1.263,0,0,0-.507-.183h-.332c-1.961-.05-2.493-12.7-2.534-13.095h0l-.141-.075-3-1.728a3.323,3.323,0,0,0-1.712-.432,6.306,6.306,0,0,0-2.85.831c-4.711,2.493-9.472,9.813-10.635,16.4-.731,4.154-4.911,10.552-7.328,12.912s-2.584,4.321-2.584,4.321l-1.878,10.652-.607,3.415c-.44,2.542-3.049,4.985-3.049,4.985l-9.73,7.2c-6.09,5.052-7.81,10.162-8.974,16.476v.05c0,.224,0,.374.108.432a.1.1,0,0,0,.108,0h0l1.246-.706,66.936-38.6a1.446,1.446,0,0,0,.607-.931h0c.382-2.3,1.5-6.647,1.5-6.647ZM176.434,85.105c-.723,4.046-3.639,8.566-6.539,10.087-2,1.047-3.465.4-3.955-1.446a2.3,2.3,0,0,1-2.194-.282c-.931-.731,7.594-15.371,8.309-15.047a2.493,2.493,0,0,1,1.288,1.745C175.736,79.439,177.074,81.466,176.434,85.105Z" transform="translate(-85.32 -45.527)" fill="#455a64"/>
        <path id="Trazado_108066" data-name="Trazado 108066" d="M135.03,154.987l-4.877-2.817c-2.825,3.722-3.963,7.636-4.8,12.181v.05c0,.224,0,.374.108.432a.1.1,0,0,0,.108,0h0l3.847-3.041Z" transform="translate(-85.326 -58.759)" fill="#37474f" opacity="0.5"/>
        <path id="Trazado_108067" data-name="Trazado 108067" d="M151.1,129.96l6.88,3.963,3.1-17.922-6.2-3.581a5.9,5.9,0,0,0-.972,2.368l-1.878,10.652-.607,3.415a5.4,5.4,0,0,1-.324,1.105Z" transform="translate(-89.681 -52.036)" fill="#37474f" opacity="0.5"/>
        <path id="Trazado_108068" data-name="Trazado 108068" d="M169.173,84.23a26.854,26.854,0,0,0-3.257,8.558,21.537,21.537,0,0,1-2.426,6.082l5.891,3.407,2.933-6.772a2.277,2.277,0,0,1-2.11-.3c-.482-.382,1.545-4.429,3.714-8.234Z" transform="translate(-91.777 -47.269)" fill="#37474f" opacity="0.5"/>
        <path id="Trazado_108069" data-name="Trazado 108069" d="M195.878,105.04h-.042a3.39,3.39,0,0,0-3.091.1c-4.42,1.953-5.758,2.592-8.384,3.631-.7.283-2.119.058-1.745-2.335a1.131,1.131,0,0,1,0-.166l.607-3.407,1.662-9.281s.382-1.462-.582-2.011h-.075a1.8,1.8,0,0,0-.773-.166,3.781,3.781,0,0,1-2.767-1.77,6.98,6.98,0,0,1-1.039-5.309c.706-3.98-.066-6.772-1.828-7.81l-.141-.083c-1.138-.607-2.667-.507-4.454.432-4.719,2.493-9.48,9.813-10.635,16.4-.739,4.154-4.919,10.561-7.337,12.912s-2.576,4.321-2.576,4.321l-1.82,10.594-.6,3.407c-.449,2.542-3.058,4.985-3.058,4.985l-9.721,7.3a23.456,23.456,0,0,0-8,12.106s-3.648,2.833-3.872,3.058h0l1.246-.706,67.127-38.586s.764-.424.939-.532,2.875-2.659,2.875-2.659C197.647,107.283,197,105.713,195.878,105.04ZM176.485,85.464c-.723,4.046-3.639,8.566-6.539,10.087-2,1.047-3.465.4-3.955-1.446a7.594,7.594,0,0,1,0-3.141c.723-4.055,3.648-8.566,6.547-10.079a5.217,5.217,0,0,1,.831-.366C175.787,79.8,177.125,81.825,176.485,85.464Z" transform="translate(-85.37 -45.886)" fill="#37474f"/>
        <path id="Trazado_108070" data-name="Trazado 108070" d="M184.7,86.344c-.723,4.046-3.639,8.566-6.539,10.087-2,1.047-3.465.4-3.955-1.446a5.733,5.733,0,0,0,.831-.349c2.908-1.521,5.816-6.04,6.539-10.1a7.619,7.619,0,0,0,0-3.141C184.006,80.678,185.344,82.7,184.7,86.344Z" transform="translate(-93.59 -46.766)" fill="#263238"/>
        <path id="Trazado_108071" data-name="Trazado 108071" d="M181.871,81.593h0a1.579,1.579,0,0,1,1.4.681c1.2,1.712.05,6.065-.449,7.478-.69,1.936-5.193,6.489-6.431,6.489a3.058,3.058,0,0,1-2.036-1.3,7.536,7.536,0,0,1,0-3.024c.706-4,3.6-8.458,6.448-9.971a5.518,5.518,0,0,1,.789-.341h.274m0-.191h-.307a5.218,5.218,0,0,0-.831.366c-2.9,1.512-5.816,6.024-6.547,10.079a7.594,7.594,0,0,0,0,3.141,3.274,3.274,0,0,0,2.2,1.412h0c1.346,0,5.874-4.595,6.6-6.647s2.293-8.4-1.13-8.4Z" transform="translate(-93.556 -46.783)" fill="#263238"/>
        <path id="Trazado_108072" data-name="Trazado 108072" d="M125.567,158.771l68.365-39.3.947-.523c.166-.1,2.867-2.667,2.867-2.667l-68.315,39.434S125.293,158.921,125.567,158.771Z" transform="translate(-85.361 -52.689)" fill="#263238"/>
        <path id="Trazado_108073" data-name="Trazado 108073" d="M114.54,189.454v1.554c0,.831.6,1.188,1.329.764l90.45-52.229a2.941,2.941,0,0,0,1.329-2.293v-1.562c0-.831-.6-1.188-1.329-.764l-90.45,52.237a2.933,2.933,0,0,0-1.329,2.293Z" transform="translate(-83.498 -55.812)" fill="#e0e0e0"/>
        <path id="Trazado_108074" data-name="Trazado 108074" d="M114.54,200.763v1.554c0,.831.6,1.188,1.329.764l90.45-52.237a2.933,2.933,0,0,0,1.329-2.293v-1.562c0-.831-.6-1.18-1.329-.764l-90.45,52.246a2.933,2.933,0,0,0-1.329,2.293Z" transform="translate(-83.498 -57.723)" fill="#e0e0e0"/>
        <path id="Trazado_108075" data-name="Trazado 108075" d="M114.54,212v1.545c0,.831.6,1.188,1.329.764l90.45-52.221a2.941,2.941,0,0,0,1.329-2.293v-1.562c0-.831-.6-1.188-1.329-.764l-90.45,52.238A2.933,2.933,0,0,0,114.54,212Z" transform="translate(-83.498 -59.625)" fill="#e0e0e0"/>
        <path id="Trazado_108076" data-name="Trazado 108076" d="M114.54,236.918v1.554c0,.831.6,1.188,1.329.764l90.45-52.213a2.933,2.933,0,0,0,1.329-2.293v-1.562c0-.831-.6-1.18-1.329-.764l-90.45,52.221a2.933,2.933,0,0,0-1.329,2.293Z" transform="translate(-83.498 -63.842)" fill="#e0e0e0"/>
        <path id="Trazado_108077" data-name="Trazado 108077" d="M114.54,248.214v1.562c0,.831.6,1.18,1.329.764l90.45-52.238a2.933,2.933,0,0,0,1.329-2.293v-1.562c0-.831-.6-1.188-1.329-.764l-90.45,52.237A2.941,2.941,0,0,0,114.54,248.214Z" transform="translate(-83.498 -65.749)" fill="#e0e0e0"/>
        <path id="Trazado_108078" data-name="Trazado 108078" d="M114.54,259.463v1.554c0,.831.6,1.188,1.329.764l90.45-52.238a2.933,2.933,0,0,0,1.329-2.293v-1.562c0-.831-.6-1.18-1.329-.764l-90.45,52.246a2.933,2.933,0,0,0-1.329,2.293Z" transform="translate(-83.498 -67.651)" fill="#e0e0e0"/>
        <path id="Trazado_108079" data-name="Trazado 108079" d="M114.54,284.364v1.562c0,.831.6,1.18,1.329.764l90.45-52.238a2.933,2.933,0,0,0,1.329-2.293V230.6c0-.831-.6-1.188-1.329-.764l-90.45,52.237a2.941,2.941,0,0,0-1.329,2.293Z" transform="translate(-83.498 -71.863)" fill="#e0e0e0"/>
        <path id="Trazado_108080" data-name="Trazado 108080" d="M114.54,295.674v1.554c0,.831.6,1.188,1.329.764l90.45-52.238a2.916,2.916,0,0,0,1.329-2.285v-1.562c0-.831-.6-1.188-1.329-.764l-90.45,52.237a2.933,2.933,0,0,0-1.329,2.293Z" transform="translate(-83.498 -73.775)" fill="#e0e0e0"/>
        <path id="Trazado_108081" data-name="Trazado 108081" d="M114.54,306.918v1.562c0,.831.6,1.18,1.329.764l90.45-52.221a2.933,2.933,0,0,0,1.329-2.293v-1.562c0-.831-.6-1.188-1.329-.764l-90.45,52.221A2.941,2.941,0,0,0,114.54,306.918Z" transform="translate(-83.498 -75.68)" fill="#e0e0e0"/>
        <path id="Trazado_108082" data-name="Trazado 108082" d="M170.58,314.089l46.571-26.879v.9L170.58,314.986Z" transform="translate(-92.976 -81.596)" fill="#e0e0e0"/>
        <path id="Trazado_108083" data-name="Trazado 108083" d="M182.466,299.429c1.936-1.3,4.1-3.481,3.747-6.065a1.982,1.982,0,0,0-2.933-1.62c-2.833,1.088-4.62,5.351-5.608,7.927-.831,2.252-1.969,6.5,1.412,7.22,3.963.831,7.029-4.985,7.927-8.01.125-.424-.565-.656-.764-.274-.349.69-2.684,5.243-.116,4.67.914-.2,1.437-1.62,1.77-2.343.582-1.3.872-3.1,1.786-4.213l-.673-.307a3.9,3.9,0,0,0,.831,2.941.407.407,0,0,0,.565.091c1.313-1.221,1.4-3.207,2.85-4.312l-.59-.283c0,.382-.174,1.471-.2,1.978a.4.4,0,0,0,.515.324,1.13,1.13,0,0,0,.831-.715l-.631-.233c.548,2.933,3.049,0,3.905-1.113,2.493-3.324,4.271-6.888,4.337-11.142,0-.341-.64-.515-.648-.108-.058,3.274-1.487,6.273-2.41,9.364-.989,3.324-1.811,6.722-2.493,10.145l.59.216a20.373,20.373,0,0,1,1.828-7,13.834,13.834,0,0,1,3.149-5.251l-.548-.208a5.933,5.933,0,0,1-1.329,4.836c-.174.224.216.648.391.424.914-1.147,2.418-1.512,3.4-2.626a29.077,29.077,0,0,0,2.451-3.955l-.449-.224c-.058,2.792,2.576-1.562,2.933-2.027l-.432-.166c.174.573.407.956,1.055.964,1.288,0,1.77-1.878,2.742-2.094a2.267,2.267,0,0,0,.573.374,2.435,2.435,0,0,0,1.554-.291,7.229,7.229,0,0,0,2.542-2.842c.15-.266-.357-.6-.523-.307-.64,1.08-2.634,3.947-4.08,2.543-.091-.083-.283-.166-.382-.05-.391.482-2.626,3.041-3.041,1.662-.05-.166-.291-.349-.424-.166-.341.449-.615.947-.931,1.421-.174.258-1.147,1.894-1.113,1.064,0-.2-.307-.432-.449-.224-.906,1.388-1.57,3.207-2.833,4.337-.939.831-2.169,1.147-2.983,2.152l.391.424a6.365,6.365,0,0,0,1.521-5.251.349.349,0,0,0-.548-.208,14.226,14.226,0,0,0-3.2,5.367,21,21,0,0,0-1.861,7.137c0,.258.523.548.59.216a98.733,98.733,0,0,1,2.734-10.934c.914-2.891,2.152-5.675,2.21-8.749l-.648-.108a16.111,16.111,0,0,1-2.883,8.89c-.465.723-.956,1.446-1.487,2.127-.233.307-2.293,3-2.559,1.437-.042-.224-.482-.54-.631-.233l-.6.532.515.316c.042-.673.174-1.3.208-1.986a.4.4,0,0,0-.59-.274c-1.471,1.122-1.579,3.107-2.9,4.329l.565.091a4.5,4.5,0,0,1-.631-2.493c0-.291-.449-.573-.673-.307-1.014,1.213-1.329,3.149-1.994,4.562-.366.773-1.662,2.833-1.246.64a10.8,10.8,0,0,1,1.172-2.584l-.764-.274c-.781,2.642-2.867,6.647-5.716,7.478-3.639,1.088-3.008-3.423-2.343-5.434a22.383,22.383,0,0,1,3.473-6.5,7.236,7.236,0,0,1,.939-1.08c.74-.665.956-.831,1.986-.241s1.08.914.831,2.027a6.125,6.125,0,0,1-.681,1.57,10.427,10.427,0,0,1-2.443,2.609c-.133.108.058.465.208.357Z" transform="translate(-94.027 -80.895)" fill="#455a64"/>
      </g>
    </g>
    <g id="freepik--Characters--inject-147" transform="translate(254.647 150.988)">
      <g id="freepik--characters--inject-147-2" data-name="freepik--characters--inject-147">
        <path id="Trazado_108084" data-name="Trazado 108084" d="M314.964,240.353c-3.008-.715-6.323,1.429-8.259,6.149s-5.816,16.784-6.647,19.941c-.366,1.413,10.369,13.926,9.971,13.743-.116-.058,3.5-6.107,3.5-6.107l-5.21-8.018,3.324-8.7Z" transform="translate(-300.049 -184.891)" fill="#b16668"/>
        <path id="Trazado_108085" data-name="Trazado 108085" d="M309.493,373.708c-.407.158-.515.931-.573,2.493-.05,1.172-.3,3.207,1.072,3.614s3.373.2,4.254-.9a54.016,54.016,0,0,1,3.4-4.262c1.354-1.462,2.817-2.817,3.365-4.861.5-1.845.083-2.642-1.172-3.182-1.737-.731-4.454,1.662-5.816,2.052C312.867,368.98,309.9,373.558,309.493,373.708Z" transform="translate(-301.541 -206.244)" fill="#263238"/>
        <path id="Trazado_108086" data-name="Trazado 108086" d="M309.62,373.32v1.894a4.653,4.653,0,0,0,4.794.133c.083-.183.5-2.717.5-2.717Z" transform="translate(-301.668 -207.285)" fill="#b16668"/>
        <path id="Trazado_108087" data-name="Trazado 108087" d="M326.358,387.31a31.847,31.847,0,0,0-.831,3.091c-.241,1.147-.573,3.066-.166,3.922s1.961,1.421,4.4,1.4c1.57,0,4.021,1.055,5.7,1.994a8.791,8.791,0,0,0,5.442.756c2.16-.258,4.4-1.512,4.753-2.4s-.1-1.329-5.193-3.5c-.05,0-5.367-2.426-7.835-5.143Z" transform="translate(-304.297 -209.767)" fill="#263238"/>
        <path id="Trazado_108088" data-name="Trazado 108088" d="M326.6,384.84v2.21c0,.806.947,2,3.407,1.919,1.728-.066,2.933-.532,2.858-1.953v-2.044Z" transform="translate(-304.539 -209.35)" fill="#b16668"/>
        <path id="Trazado_108089" data-name="Trazado 108089" d="M307.336,331.21a45.052,45.052,0,0,1,2.318-9.755s-1.072-8.392-1.662-16.451c-1.105-14.449-.216-19.168,2.626-25.649,0,0,24.237-2.493,24.976,7.619.922,12.546-.3,36.791-.632,41.22s-.748,6.431-2.31,15.687c-1.2,7.046-3.041,23.207-3.041,23.207a6.647,6.647,0,0,1-6.265-.133s-1.977-20.174-1.77-25.284a43.437,43.437,0,0,1,1.9-11.142s-1.5-20.448-1.936-23.705c0,0-.764,6.489-1.1,10.918s-1.662,8.666-2.925,16.9c-1.113,7.137-3.182,23.1-3.182,23.1-3.216,1.745-5.135-.224-5.135-.224S306.471,337.4,307.336,331.21Z" transform="translate(-301.253 -191.464)" fill="#d9a171"/>
        <g id="Grupo_59593" data-name="Grupo 59593" transform="translate(5.914 87.619)" opacity="0.35">
          <path id="Trazado_108090" data-name="Trazado 108090" d="M307.336,331.21a45.052,45.052,0,0,1,2.318-9.755s-1.072-8.392-1.662-16.451c-1.105-14.449-.216-19.168,2.626-25.649,0,0,24.237-2.493,24.976,7.619.922,12.546-.3,36.791-.632,41.22s-.748,6.431-2.31,15.687c-1.2,7.046-3.041,23.207-3.041,23.207a6.647,6.647,0,0,1-6.265-.133s-1.977-20.174-1.77-25.284a43.437,43.437,0,0,1,1.9-11.142s-1.5-20.448-1.936-23.705c0,0-.764,6.489-1.1,10.918s-1.662,8.666-2.925,16.9c-1.113,7.137-3.182,23.1-3.182,23.1-3.216,1.745-5.135-.224-5.135-.224S306.471,337.4,307.336,331.21Z" transform="translate(-307.167 -279.083)"/>
        </g>
        <path id="Trazado_108091" data-name="Trazado 108091" d="M331,236.09l-1.138,9.364-8.234-.739.939-10.394Z" transform="translate(-303.699 -183.894)" fill="#b16668"/>
        <path id="Trazado_108092" data-name="Trazado 108092" d="M310.2,245.043c.906-2.493,3.988-5.21,7.154-4.62l2.326.424c.066,2.16,4.154,3.274,8.192,1.969,1.213.349,2.335.706,3.324,1.064,2.9,1.039,4.063,5.816,4.154,13.909s.922,28.142.922,28.142l-3.431,1.088-1.579-5.874-.64,7.038a25.233,25.233,0,0,1-11.707-.058c-8.708-1.9-11.416-6.6-11.416-6.6a42.5,42.5,0,0,1,6.232-15.23C309.378,254.69,308.863,248.724,310.2,245.043Z" transform="translate(-301.309 -184.912)" fill="#ebebeb"/>
        <path id="Trazado_108093" data-name="Trazado 108093" d="M335.611,219.853a7.237,7.237,0,0,0-.623-6.963c-2.767-4.337-8.093-5.077-14.408-3.382a11.192,11.192,0,0,0-7.9,10.17c-.307,4.628,12.613,8.043,12.314,11.217Z" transform="translate(-302.184 -179.556)" fill="#263238"/>
        <path id="Trazado_108094" data-name="Trazado 108094" d="M340.61,224.25s1.753,2.808,1.5,3.1a4.378,4.378,0,0,1-1.413.565Z" transform="translate(-306.909 -182.191)" fill="#9a4a4d"/>
        <path id="Trazado_108095" data-name="Trazado 108095" d="M331.658,213.371c1.745.964,4.769,2.742,5.384,9.306.631,6.73-.931,9.023-1.869,9.879-.632.582-3.83.706-5.476.15-2.061-.706-6.514-3.049-8.533-6.572-2.376-4.154-2.742-9.6.183-11.632A10.71,10.71,0,0,1,331.658,213.371Z" transform="translate(-303.299 -180.211)" fill="#b16668"/>
        <path id="Trazado_108096" data-name="Trazado 108096" d="M331.056,213.354s1.379,6.165-.582,9.971c0,0-1.014-2.418-3.091-1.786s-1.969,3.4-.382,4.852a3.074,3.074,0,0,0,3.191.764,13.8,13.8,0,0,1-3.083,4.653s-6.14,2.734-11.45-3.265c-4.827-5.442-3.93-14.956,3.456-17.174S331.056,213.354,331.056,213.354Z" transform="translate(-302.182 -179.903)" fill="#263238"/>
        <path id="Trazado_108097" data-name="Trazado 108097" d="M313.316,214.588a1.446,1.446,0,0,1,.158,2.036l-2.194-1.886a1.437,1.437,0,0,1,2.036-.15Z" transform="translate(-301.948 -180.497)" fill="#263238"/>
        <path id="Trazado_108098" data-name="Trazado 108098" d="M361.13,260.569c1.2-1.363,1.662-4.4,3.24-6.481s2.177-3.6,2.808-2.692c.831,1.2-1.047,3.606-.631,3.847a12.5,12.5,0,0,1,2.135,5.168c.158,1.761-4.5,6.182-4.5,6.182Z" transform="translate(-310.379 -186.736)" fill="#b16668"/>
        <path id="Trazado_108099" data-name="Trazado 108099" d="M367.49,255.706s5.633-.482,6.456,0,.573,2.925,0,4.42-3.448,2.493-6.115,4.271C367.831,264.132,367.49,255.706,367.49,255.706Z" transform="translate(-311.455 -187.475)" fill="#b16668"/>
        <path id="Trazado_108100" data-name="Trazado 108100" d="M334.71,244.33c2.418.831,4.537,1.82,6.8,6.065,2.9,5.459,8.184,16.144,8.184,16.144l6.581-7.121s.956-1.346,2.734,1.6,1,3.756,1,3.756-7.652,10.253-9.057,11.558-3.714.291-5.226-1.761-11.009-13.942-11.009-13.942S329.517,253.794,334.71,244.33Z" transform="translate(-305.521 -185.587)" fill="#b16668"/>
        <path id="Trazado_108101" data-name="Trazado 108101" d="M322.87,310.884l-.465-4.894a18.6,18.6,0,0,1-7.395-2.8s1.579,2.493,5.9,3.673l.449,6.232.266,10.22Z" transform="translate(-302.579 -195.541)" opacity="0.2"/>
        <path id="Trazado_108102" data-name="Trazado 108102" d="M303.7,238.334h0a8.533,8.533,0,0,0,8.558-8.525V216.855h0a6.514,6.514,0,0,0-8.525,6.2Z" transform="translate(-300.666 -180.886)" fill="#263238"/>
        <path id="Trazado_108103" data-name="Trazado 108103" d="M339.97,269.81s-4.728-6.1-6.24-8.55l6.406,13.527Z" transform="translate(-305.745 -188.45)" fill="#e0e0e0"/>
        <path id="Trazado_108104" data-name="Trazado 108104" d="M387.35,210.286c-1.795,5.293-5.625,21.079-5.625,21.079s-7.3,9.713-9.314,11.566c-1.113,1.03-3.631,2.883-3.631,2.883l2.094,1.545s3.49-1.064,3.781.831a106.3,106.3,0,0,0,10.3-9.472,6.646,6.646,0,0,0,1.662-3.041l3.116-13.4s0-10.8,1.662-12.214,1.005-4.611,1.005-4.611C391.264,205.483,388.763,206.14,387.35,210.286Z" transform="translate(-311.673 -179.011)" fill="#ffa8a7"/>
        <path id="Trazado_108105" data-name="Trazado 108105" d="M393.424,204.81a30.024,30.024,0,0,0,1.845,4.154c.731,1.255-4.861,23.813-5.235,25.491s-11.217,11.458-11.217,11.458a8.143,8.143,0,0,1-4.337-4.354l7.827-10.187s2.434-10.685,3.714-15.587S388.663,205.342,393.424,204.81Z" transform="translate(-312.637 -178.903)" fill="#d9a171"/>
        <path id="Trazado_108106" data-name="Trazado 108106" d="M393.424,204.81a30.024,30.024,0,0,0,1.845,4.154c.731,1.255-4.861,23.813-5.235,25.491s-11.217,11.458-11.217,11.458a8.143,8.143,0,0,1-4.337-4.354l7.827-10.187s2.434-10.685,3.714-15.587S388.663,205.342,393.424,204.81Z" transform="translate(-312.637 -178.903)" opacity="0.1"/>
        <rect id="Rectángulo_8392" data-name="Rectángulo 8392" width="5.401" height="9.256" transform="translate(98.286 131.919)" fill="#ffa8a7"/>
        <path id="Trazado_108107" data-name="Trazado 108107" d="M397.087,333.108l-5.4.191-.266-9.8,5.667-.183Z" transform="translate(-315.502 -198.945)" fill="#ffa8a7"/>
        <path id="Trazado_108108" data-name="Trazado 108108" d="M418.3,252.682c0,5.16.357,35.171.357,35.171.125,1.479,1.554,4.154,1.662,9.472.158,7.76-1.039,26.031-1.039,26.031a7.112,7.112,0,0,1-6.016.116s-4.246-25.84-5.21-33.526c-.831-6.7-3.764-24.586-3.764-24.586l-4.154,22.65a30.744,30.744,0,0,1,.673,8.591c-.258,3.548-3.548,21.337-3.548,21.337a7.378,7.378,0,0,1-6.24.482s-.324-27.926-.382-31.183c-.075-3.714,1.545-35.678,1.545-35.678Z" transform="translate(-315.369 -186.809)" fill="#37474f"/>
        <path id="Trazado_108109" data-name="Trazado 108109" d="M416.93,340.172V339.4c-.291,0-.465.283-.582.972a14.027,14.027,0,0,1-.316,1.529,18.161,18.161,0,0,1-.939,2.767c-.764,1.886-1.4,2.584-3.157,4.786a20.435,20.435,0,0,0-1.662,1.936c-.324.582-.44,2.194.116,2.567,2.036,1.363,5.135,1.4,7.328.756a4.437,4.437,0,0,0,3.182-3.573c.083-.5.05-1.014.108-1.512a7.211,7.211,0,0,1,1.354-3.141,9.692,9.692,0,0,0,1.039-1.712,5.577,5.577,0,0,0-.2-3.465c-.249-.956-.523-2-.831-1.911v.582a4.238,4.238,0,0,1-2.709.914C418.841,340.928,416.922,340.77,416.93,340.172Z" transform="translate(-318.644 -201.664)" fill="#263238"/>
        <path id="Trazado_108110" data-name="Trazado 108110" d="M389.054,333.248c-.283,0-.507.407-1.13,1.08a11.939,11.939,0,0,1-3.174,2.285c-2.027,1.014-5.957,2.567-7.744,3.373-1.113.5-1.055,1.845.091,2.609s3.93,1.313,7.262.573c1.811-.407,4.154-2.086,5.675-1.994s4.3.066,5.4-.7.665-2.385.349-3.78c-.341-1.521-.764-3.905-1.271-3.8v.523c-.648.989-4,1.388-5.426.665Z" transform="translate(-312.928 -200.565)" fill="#263238"/>
        <path id="Trazado_108111" data-name="Trazado 108111" d="M405.544,267.3A20.066,20.066,0,0,1,398,263s1.454,2.725,5.816,5.251L401.722,288.4Z" transform="translate(-316.614 -188.744)" fill="#263238"/>
        <path id="Trazado_108112" data-name="Trazado 108112" d="M409.153,205.2c1.845.449,5.55,1.055,6.381,4.719,1,4.4,1.321,13.975,1.321,13.975l.341,21.32c-3.722,2.709-17.39,4.154-25.226-1.537,0,0,.964-25.591.964-29.579s2.21-8.774,8.309-9.14Z" transform="translate(-315.595 -178.929)" fill="#f5f5f5"/>
        <path id="Trazado_108113" data-name="Trazado 108113" d="M401.229,204.372a10.884,10.884,0,0,0-3.49,5.4C396.992,213,396.908,249,396.908,249s-3.822-.706-5.608-2.11c0,0,.224-28.416.59-33.119.557-7.121.5-9.14,9.364-9.929Z" transform="translate(-315.481 -178.739)" fill="#d9a171"/>
        <path id="Trazado_108114" data-name="Trazado 108114" d="M413.459,203.84s-5.093,3.132-5.151,15.6c-.05,10.8-.407,29.554-.407,29.554s8.433,1.238,13.776-1.953c0,0,.64-26.14.532-30.186-.116-4.636-1.2-10.627-2.684-11.225A42.439,42.439,0,0,0,413.459,203.84Z" transform="translate(-318.289 -178.739)" fill="#d9a171"/>
        <path id="Trazado_108115" data-name="Trazado 108115" d="M434.131,232.692c-5.068-20.722-8.816-27.635-14.956-27.552-1.8,2.144-1.3,8.641,1.537,12.58,0,0,6.34,13.361,7.345,18.113.889,4.154,1.894,9.43,1.836,13.02a2.617,2.617,0,0,1-.706,1.7c-1.155,1.255-1.163,2.268-1.911,3.656-.59,1.08-1.23,1.487-1.047,1.737a1.413,1.413,0,0,0,1.9.141,7.261,7.261,0,0,0,1.437-1.388,14.465,14.465,0,0,1-1.138,3.847c-1.3,2.933-.989,4.429,2.975,3.382,2.493-.656,4.038-2.717,4.4-8.683a45.238,45.238,0,0,0,.066-6.6C435.336,241,434.953,236.032,434.131,232.692Z" transform="translate(-320.017 -178.959)" fill="#ffa8a7"/>
        <path id="Trazado_108116" data-name="Trazado 108116" d="M417.966,204.729s4.08-.183,6.29,2.052,5.193,6.938,8.084,17.216a94.486,94.486,0,0,1,3.922,23.572,8.3,8.3,0,0,1-6.963-.233s-1.479-8.949-2.792-13.71-6.207-14.79-6.207-14.79S415.623,211.883,417.966,204.729Z" transform="translate(-319.88 -178.889)" fill="#d9a171"/>
        <path id="Trazado_108117" data-name="Trazado 108117" d="M417.966,204.729s4.08-.183,6.29,2.052,5.193,6.938,8.084,17.216a94.486,94.486,0,0,1,3.922,23.572,8.3,8.3,0,0,1-6.963-.233s-1.479-8.949-2.792-13.71-6.207-14.79-6.207-14.79S415.623,211.883,417.966,204.729Z" transform="translate(-319.88 -178.889)" opacity="0.1"/>
        <path id="Trazado_108118" data-name="Trazado 108118" d="M414.419,212.05l-2.335,2.883,1.172,3.29-3.066,7.86,3.689-7.86-1.288-3.107Z" transform="translate(-318.676 -180.128)" opacity="0.1"/>
        <path id="Trazado_108119" data-name="Trazado 108119" d="M395.172,210.93l.507,2.983-2.019,2.634,2.808,8.841-2.177-8.741,1.861-2.459Z" transform="translate(-315.88 -179.938)" opacity="0.1"/>
        <circle id="Elipse_4213" data-name="Elipse 4213" cx="7.428" cy="7.428" r="7.428" transform="translate(76.301 14.664) rotate(-80.78)" fill="#263238"/>
        <path id="Trazado_108120" data-name="Trazado 108120" d="M416.941,190.23s-1.2,5.658-1.662,6.589a2.567,2.567,0,0,1-1.479,1.188l.083-3.98Z" transform="translate(-319.286 -176.437)" fill="#263238"/>
        <path id="Trazado_108121" data-name="Trazado 108121" d="M415.6,180.476a2.784,2.784,0,0,1,2.31.831c.989,1.014.44,4.154-.831,7.287l-2.268.258Z" transform="translate(-319.457 -174.785)" fill="#263238"/>
        <path id="Trazado_108122" data-name="Trazado 108122" d="M410.717,188.134c.457.266,1.105-.607,1.662-1.188a1.969,1.969,0,0,1,3.323.532c.931,1.961-.831,4.553-2.243,4.985-2.493.781-2.858-.831-2.858-.831l-.183,9.231h0c-1.72,2.2-5.575,4.794-7.652,4.42-1.662-.291-2.019-3.091-.432-4.927v-2.709a15.463,15.463,0,0,1-3.324.166c-1.828-.283-2.975-1.72-3.531-3.7-.889-3.174-1.23-5.733-.474-11.981.831-6.846,8.791-6.913,13.086-4.213S410.717,188.134,410.717,188.134Z" transform="translate(-316.037 -174.075)" fill="#ffa8a7"/>
        <path id="Trazado_108123" data-name="Trazado 108123" d="M410.52,188.458c.233,0,1.105-1.437,1.662-1.953.781-.715-.233-7.179-.233-7.179a3.132,3.132,0,0,0-.54-3.49c-1.072-1.18-2.567-2.626-7.478-2.044-3.473.407-7.254,1.487-10.311,0a5.2,5.2,0,0,0,1.811,5.525,10.361,10.361,0,0,0,4.013,1.064,42.934,42.934,0,0,0,8.06-.15c.831-.116,1.022.7,1.479,2.933C409.448,185.118,409.78,188.441,410.52,188.458Z" transform="translate(-315.84 -173.635)" fill="#263238"/>
        <path id="Trazado_108124" data-name="Trazado 108124" d="M415.726,180.613l2.75-1.479a1.521,1.521,0,0,0-2.086-.69A1.662,1.662,0,0,0,415.726,180.613Z" transform="translate(-319.584 -174.414)" fill="#263238"/>
        <path id="Trazado_108125" data-name="Trazado 108125" d="M403.93,201.281a31.483,31.483,0,0,0,5.5-1.579,4.686,4.686,0,0,0,1.969-1.953,6.372,6.372,0,0,1-1.122,2.3c-1.039,1.329-6.348,2.31-6.348,2.31Z" transform="translate(-317.617 -177.709)" fill="#f28f8f"/>
        <path id="Trazado_108126" data-name="Trazado 108126" d="M405.11,189.151a.831.831,0,1,0,.831-.831A.831.831,0,0,0,405.11,189.151Z" transform="translate(-317.817 -176.114)" fill="#263238"/>
        <path id="Trazado_108127" data-name="Trazado 108127" d="M406.15,185.5l1.745.964a1.055,1.055,0,0,0-.407-1.4.972.972,0,0,0-1.338.432Z" transform="translate(-317.993 -175.544)" fill="#263238"/>
        <path id="Trazado_108128" data-name="Trazado 108128" d="M403.991,196.11l-1.861.7a.972.972,0,0,0,1.263.623,1.047,1.047,0,0,0,.6-1.321Z" transform="translate(-317.313 -177.432)" fill="#f28f8f"/>
        <path id="Trazado_108129" data-name="Trazado 108129" d="M396.3,186.1l1.6-1.23a.972.972,0,0,0-1.388-.216,1.064,1.064,0,0,0-.208,1.446Z" transform="translate(-316.294 -175.46)" fill="#263238"/>
        <path id="Trazado_108130" data-name="Trazado 108130" d="M396.93,188.831a.831.831,0,1,0,.831-.831A.831.831,0,0,0,396.93,188.831Z" transform="translate(-316.433 -176.06)" fill="#263238"/>
        <path id="Trazado_108131" data-name="Trazado 108131" d="M401.363,188.11l-.266,4.911-2.567-.872Z" transform="translate(-316.704 -176.079)" fill="#f28f8f"/>
        <path id="Trazado_108132" data-name="Trazado 108132" d="M400.87,210.124c.5,1.2,1.429,1.662,3.1,1.869a6.24,6.24,0,0,0,4.636-1.662l-2.077-2.069-2.651,1.986-.224-2.218Z" transform="translate(-317.1 -179.448)" fill="#d9a171"/>
        <path id="Trazado_108133" data-name="Trazado 108133" d="M400.87,210.124c.5,1.2,1.429,1.662,3.1,1.869a6.24,6.24,0,0,0,4.636-1.662l-2.077-2.069-2.651,1.986-.224-2.218Z" transform="translate(-317.1 -179.448)" opacity="0.1"/>
        <path id="Trazado_108134" data-name="Trazado 108134" d="M402.39,209.77a5.484,5.484,0,0,0-.274,2.235,3.8,3.8,0,0,0,.748,1.853,2.027,2.027,0,0,0,1.795.2,4.935,4.935,0,0,0,1.72-3.731l-2.293.258Z" transform="translate(-317.307 -179.742)" fill="#d9a171"/>
        <path id="Trazado_108135" data-name="Trazado 108135" d="M402.424,214.69s-2.717,14.956-2.825,16.186,1.554,5.5,2.592,5.534,3.066-3.847,3.091-4.985-1.064-16.576-1.064-16.576Z" transform="translate(-316.884 -180.574)" fill="#d9a171"/>
        <path id="Trazado_108136" data-name="Trazado 108136" d="M404.815,214.889a1.8,1.8,0,0,1-1.795-.2v.241a2.061,2.061,0,0,0,1.869.366Z" transform="translate(-317.463 -180.574)" opacity="0.1"/>
        <path id="Trazado_108137" data-name="Trazado 108137" d="M404.49,209.214l7.644-5.816V201.67s1.778.673,2.177,3.805a13.411,13.411,0,0,1-5.957,6.34l-1.6-2.858Z" transform="translate(-317.712 -178.372)" fill="#e0e0e0"/>
        <path id="Trazado_108138" data-name="Trazado 108138" d="M403.3,202.62a3.83,3.83,0,0,0-2.493,1.521c-.764,1.255-.59,6.082-.59,6.082l1.828-1.662,1.662.831c-.158-1.6-.474-4.528-.474-4.528Z" transform="translate(-316.986 -178.533)" fill="#e0e0e0"/>
        <path id="Trazado_108139" data-name="Trazado 108139" d="M368,265.071a6.563,6.563,0,0,0,1.2-3.415c.216-1.57,4.52-3.257,4.661-2.086s.532,2.144-.831,3.564S370,266.126,368,265.071Z" transform="translate(-311.541 -188.098)" fill="#ffa8a7"/>
        <path id="Trazado_108140" data-name="Trazado 108140" d="M367.683,253.745c-1.03,1.329-1.662,3.913-2.21,4.786s-1.2,1.662,0,1.786,2.933-2.169,3.581-3.581a3.822,3.822,0,0,1,1.113-1.429,2.493,2.493,0,0,1,.623-.366c-.557-.191-.266-2.434-.656-2.742C370.134,252.2,368.106,253.031,367.683,253.745Z" transform="translate(-310.999 -186.918)" fill="#ffa8a7"/>
      </g>
    </g>
  </g>
</svg>
