<svg xmlns="http://www.w3.org/2000/svg" width="400.4" height="298.346" viewBox="0 0 400.4 298.346">
  <g id="Upload-rafiki" transform="translate(0 -55)">
    <g id="freepik--background-complete--inject-187" transform="translate(0 55)">
      <rect id="Rectángulo_8393" data-name="Rectángulo 8393" width="400.4" height="0.2" transform="translate(0 262.182)" fill="#ebebeb"/>
      <rect id="Rectángulo_8394" data-name="Rectángulo 8394" width="26.522" height="0.2" transform="translate(62.895 268.901)" fill="#ebebeb"/>
      <rect id="Rectángulo_8395" data-name="Rectángulo 8395" width="24.16" height="0.2" transform="translate(106.771 274.674)" fill="#ebebeb"/>
      <rect id="Rectángulo_8396" data-name="Rectángulo 8396" width="30.631" height="0.2" transform="translate(45.525 276.332)" fill="#ebebeb"/>
      <rect id="Rectángulo_8397" data-name="Rectángulo 8397" width="12.733" height="0.2" transform="translate(347.547 275.9)" fill="#ebebeb"/>
      <rect id="Rectángulo_8398" data-name="Rectángulo 8398" width="31.487" height="0.2" transform="translate(313.489 275.9)" fill="#ebebeb"/>
      <rect id="Rectángulo_8399" data-name="Rectángulo 8399" width="24.288" height="0.2" transform="translate(200.2 268.796)" fill="#ebebeb"/>
      <rect id="Rectángulo_8400" data-name="Rectángulo 8400" width="57.738" height="0.2" transform="translate(227.964 268.796)" fill="#ebebeb"/>
      <path id="Trazado_108141" data-name="Trazado 108141" d="M197.4,281.466H42.775a4.573,4.573,0,0,1-4.565-4.573V59.533A4.573,4.573,0,0,1,42.775,55H197.4a4.573,4.573,0,0,1,4.573,4.573V276.894A4.573,4.573,0,0,1,197.4,281.466ZM42.775,55.16a4.372,4.372,0,0,0-4.364,4.372V276.894a4.372,4.372,0,0,0,4.364,4.372H197.4a4.38,4.38,0,0,0,4.372-4.372V59.533A4.38,4.38,0,0,0,197.4,55.16Z" transform="translate(-7.611 -55)" fill="#ebebeb"/>
      <path id="Trazado_108142" data-name="Trazado 108142" d="M413.707,281.466H259.073a4.581,4.581,0,0,1-4.573-4.573V59.533A4.581,4.581,0,0,1,259.073,55H413.707a4.573,4.573,0,0,1,4.557,4.533V276.894A4.573,4.573,0,0,1,413.707,281.466ZM259.073,55.16a4.38,4.38,0,0,0-4.372,4.372V276.894a4.38,4.38,0,0,0,4.372,4.372H413.707a4.38,4.38,0,0,0,4.372-4.372V59.533a4.38,4.38,0,0,0-4.372-4.372Z" transform="translate(-50.696 -55)" fill="#ebebeb"/>
      <rect id="Rectángulo_8401" data-name="Rectángulo 8401" width="23.039" height="93.045" transform="translate(211.908 169.137)" fill="#e6e6e6"/>
      <path id="Trazado_108143" data-name="Trazado 108143" d="M278.932,378.408h9.578V362.36H268.89Z" transform="translate(-53.563 -116.226)" fill="#f5f5f5"/>
      <rect id="Rectángulo_8402" data-name="Rectángulo 8402" width="23.039" height="93.045" transform="translate(45.525 169.137)" fill="#e6e6e6"/>
      <rect id="Rectángulo_8403" data-name="Rectángulo 8403" width="174.735" height="87.519" transform="translate(60.204 169.137)" fill="#f5f5f5"/>
      <path id="Trazado_108144" data-name="Trazado 108144" d="M244.648,295H84V275.86H244.648ZM84.8,294.2H243.848V276.661H84.8Z" transform="translate(-16.733 -98.995)" fill="#ebebeb"/>
      <path id="Trazado_108145" data-name="Trazado 108145" d="M84.758,378.408H75.18V362.36H94.8Z" transform="translate(-14.976 -116.226)" fill="#f5f5f5"/>
      <path id="Trazado_108146" data-name="Trazado 108146" d="M244.648,354.5H84V308.85H244.648Zm-159.848-.8H243.848V309.651H84.8Z" transform="translate(-16.733 -105.567)" fill="#ebebeb"/>
      <rect id="Rectángulo_8404" data-name="Rectángulo 8404" width="182.086" height="126.094" transform="translate(144.536 18.835)" fill="#e6e6e6"/>
      <rect id="Rectángulo_8405" data-name="Rectángulo 8405" width="182.086" height="126.094" transform="translate(147.884 18.835)" fill="#f5f5f5"/>
      <rect id="Rectángulo_8406" data-name="Rectángulo 8406" width="113.361" height="170.066" transform="translate(323.956 25.209) rotate(90)" fill="#fff"/>
      <rect id="Rectángulo_8407" data-name="Rectángulo 8407" width="113.361" height="2.531" transform="translate(323.964 25.201) rotate(90)" fill="#e6e6e6"/>
      <rect id="Rectángulo_8408" data-name="Rectángulo 8408" width="177.113" height="4.276" transform="translate(150.366 35.355)" fill="#f5f5f5"/>
      <g id="Grupo_59594" data-name="Grupo 59594" transform="translate(191.912 14.623)" opacity="0.5">
        <rect id="Rectángulo_8409" data-name="Rectángulo 8409" width="7.191" height="140.052" transform="translate(127.888)" fill="#f0f0f0"/>
        <rect id="Rectángulo_8410" data-name="Rectángulo 8410" width="7.191" height="140.052" transform="translate(118.751)" fill="#f0f0f0"/>
        <rect id="Rectángulo_8411" data-name="Rectángulo 8411" width="7.191" height="140.052" transform="translate(109.613)" fill="#f0f0f0"/>
        <rect id="Rectángulo_8412" data-name="Rectángulo 8412" width="7.191" height="140.052" transform="translate(100.484)" fill="#f0f0f0"/>
        <rect id="Rectángulo_8413" data-name="Rectángulo 8413" width="7.191" height="140.052" transform="translate(91.347)" fill="#f0f0f0"/>
        <rect id="Rectángulo_8414" data-name="Rectángulo 8414" width="7.191" height="140.052" transform="translate(82.21)" fill="#f0f0f0"/>
        <rect id="Rectángulo_8415" data-name="Rectángulo 8415" width="7.191" height="140.052" transform="translate(73.081)" fill="#f0f0f0"/>
        <rect id="Rectángulo_8416" data-name="Rectángulo 8416" width="7.191" height="140.052" transform="translate(63.944)" fill="#f0f0f0"/>
        <rect id="Rectángulo_8417" data-name="Rectángulo 8417" width="7.191" height="140.052" transform="translate(54.807)" fill="#f0f0f0"/>
        <rect id="Rectángulo_8418" data-name="Rectángulo 8418" width="7.191" height="140.052" transform="translate(45.67)" fill="#f0f0f0"/>
        <rect id="Rectángulo_8419" data-name="Rectángulo 8419" width="7.191" height="140.052" transform="translate(36.541)" fill="#f0f0f0"/>
        <rect id="Rectángulo_8420" data-name="Rectángulo 8420" width="7.191" height="140.052" transform="translate(27.403)" fill="#f0f0f0"/>
        <rect id="Rectángulo_8421" data-name="Rectángulo 8421" width="7.191" height="140.052" transform="translate(18.266)" fill="#f0f0f0"/>
        <rect id="Rectángulo_8422" data-name="Rectángulo 8422" width="7.191" height="140.052" transform="translate(9.129)" fill="#f0f0f0"/>
        <rect id="Rectángulo_8423" data-name="Rectángulo 8423" width="7.191" height="140.052" fill="#f0f0f0"/>
      </g>
      <rect id="Rectángulo_8424" data-name="Rectángulo 8424" width="52.773" height="95.968" transform="translate(49.93 33.898)" fill="#f0f0f0"/>
      <rect id="Rectángulo_8425" data-name="Rectángulo 8425" width="60.701" height="95.968" transform="translate(53.333 33.898)" fill="#f5f5f5"/>
      <rect id="Rectángulo_8426" data-name="Rectángulo 8426" width="91.419" height="55.752" transform="translate(55.808 127.591) rotate(-90)" fill="#fff"/>
      <rect id="Rectángulo_8427" data-name="Rectángulo 8427" width="59.451" height="26.034" rx="2.76" transform="translate(70.671 111.607) rotate(-90)" fill="#f5f5f5"/>
      <path id="Trazado_108147" data-name="Trazado 108147" d="M380.6,197.29l10.795,26.6c-.312,76.949,3.163,81.385,3.2,94.622H367.372C366.363,254.107,375.916,268.585,380.6,197.29Z" transform="translate(-73.166 -83.344)" fill="#ebebeb"/>
      <path id="Trazado_108148" data-name="Trazado 108148" d="M385.438,285.286C363.5,224.9,313.005,243.6,315.272,265.61S398.05,320.017,385.438,285.286Z" transform="translate(-62.787 -92.758)" fill="#ebebeb"/>
      <path id="Trazado_108149" data-name="Trazado 108149" d="M381.658,331.748c-11.964-38.911-43.788-32.561-43.788-14.679S388.545,354.13,381.658,331.748Z" transform="translate(-67.304 -104.401)" fill="#ebebeb"/>
      <path id="Trazado_108150" data-name="Trazado 108150" d="M376.062,241.349c-18.787-52.052-65.578-44.845-61.806-22.911S386.881,271.267,376.062,241.349Z" transform="translate(-62.557 -84.249)" fill="#ebebeb"/>
      <path id="Trazado_108151" data-name="Trazado 108151" d="M383.927,212.428c1.738-35.443-33.361-50.034-30.927-28.829S382.926,232.809,383.927,212.428Z" transform="translate(-70.294 -78.655)" fill="#ebebeb"/>
      <path id="Trazado_108152" data-name="Trazado 108152" d="M388.311,255.652c7.407-43.676,52.388-60.284,47.359-35.564S384.043,280.773,388.311,255.652Z" transform="translate(-77.297 -85.594)" fill="#ebebeb"/>
      <path id="Trazado_108153" data-name="Trazado 108153" d="M383.343,223.346c-8.737-45.8,31.672-66.146,32.833-44.044S388.364,249.684,383.343,223.346Z" transform="translate(-76.116 -77.977)" fill="#ebebeb"/>
      <path id="Trazado_108154" data-name="Trazado 108154" d="M378.97,293.509c17.85-44.132,56.056-33.185,52.22-13.1S368.7,318.894,378.97,293.509Z" transform="translate(-75.251 -96.408)" fill="#ebebeb"/>
      <path id="Trazado_108155" data-name="Trazado 108155" d="M390.269,332.644c-.4-28.468,25.449-35.828,25.754-19.331S390.5,349.02,390.269,332.644Z" transform="translate(-77.741 -104.728)" fill="#ebebeb"/>
      <path id="Trazado_108156" data-name="Trazado 108156" d="M372.36,374.148h0a29.734,29.734,0,0,1-29.109-23.223,60.647,60.647,0,0,0-3.035-10.41L340,339.97h64.729l-.224.545a60.622,60.622,0,0,0-3.027,10.41,29.742,29.742,0,0,1-29.117,23.223Z" transform="translate(-67.728 -111.766)" fill="#e0e0e0"/>
    </g>
    <g id="freepik--Shadow--inject-187" transform="translate(44.933 335.216)">
      <ellipse id="freepik--path--inject-187" cx="155.267" cy="9.065" rx="155.267" ry="9.065" fill="#f5f5f5"/>
    </g>
    <g id="freepik--Cloud--inject-187" transform="translate(45.442 116.101)">
      <path id="Trazado_108157" data-name="Trazado 108157" d="M129.244,212.647l-.5-.617a53.469,53.469,0,0,1,6.567-4.581l.408.7a52.685,52.685,0,0,0-6.47,4.5Z" transform="translate(-71.087 -146.469)" fill="#d9a171"/>
      <path id="Trazado_108158" data-name="Trazado 108158" d="M108.645,237.6l-.745-.28a55.023,55.023,0,0,1,12.549-19.5l.569.569A54.31,54.31,0,0,0,108.645,237.6Z" transform="translate(-66.936 -148.535)" fill="#d9a171"/>
      <path id="Trazado_108159" data-name="Trazado 108159" d="M253.6,269.639a42.667,42.667,0,0,0-58.627-39.2,51.555,51.555,0,0,0-96.657,11.411,44.364,44.364,0,0,0,2.891,88.641h141.2a31.455,31.455,0,0,0,11.211-60.861Z" transform="translate(-56.746 -145.283)" fill="#aed3f2"/>
      <path id="Trazado_108160" data-name="Trazado 108160" d="M233.94,266.963H120.947a3.484,3.484,0,0,1-3.467-3.475h0a3.475,3.475,0,0,1,3.467-3.467H233.94a3.475,3.475,0,0,1,3.467,3.467h0a3.484,3.484,0,0,1-3.467,3.475Z" transform="translate(-68.844 -156.941)" fill="#263238"/>
      <path id="Trazado_108161" data-name="Trazado 108161" d="M219.1,321.489H140.19a11.66,11.66,0,0,1,0-23.319H219.1a11.66,11.66,0,1,1,0,23.319ZM140.19,298.971a10.859,10.859,0,1,0,0,21.718H219.1a10.859,10.859,0,0,0,0-21.718Z" transform="translate(-71.046 -164.541)" fill="#fff"/>
      <path id="Trazado_108162" data-name="Trazado 108162" d="M159.315,319.382H140.9a8.889,8.889,0,0,1-8.9-8.857h0a8.889,8.889,0,0,1,8.857-8.865h18.418a8.889,8.889,0,0,1,8.857,8.865h0A8.889,8.889,0,0,1,159.315,319.382Z" transform="translate(-71.737 -165.236)" fill="#fff"/>
      <path id="Trazado_108163" data-name="Trazado 108163" d="M240.978,174.007,226,237.846H136.61l25-106.546L223.5,145.818Z" transform="translate(-72.655 -131.3)" fill="#d9a171"/>
      <path id="Trazado_108164" data-name="Trazado 108164" d="M240.978,174.007,226,237.846H136.61l25-106.546L223.5,145.818Z" transform="translate(-72.655 -131.3)" fill="#fafafa" opacity="0.8"/>
      <path id="Trazado_108165" data-name="Trazado 108165" d="M235.143,194.594l-67.892-15.936a1.81,1.81,0,0,1-1.353-2.178h0a1.818,1.818,0,0,1,2.178-1.361l67.9,15.912a1.826,1.826,0,0,1,1.353,2.186h0a1.834,1.834,0,0,1-2.186,1.377Z" transform="translate(-78.48 -140.019)" fill="#d9a171"/>
      <path id="Trazado_108166" data-name="Trazado 108166" d="M231.9,208.394l-67.892-15.936a1.818,1.818,0,0,1-1.353-2.186h0a1.826,1.826,0,0,1,2.186-1.353l67.892,15.936a1.818,1.818,0,0,1,1.353,2.178h0a1.826,1.826,0,0,1-2.186,1.361Z" transform="translate(-77.834 -142.768)" fill="#d9a171"/>
      <path id="Trazado_108167" data-name="Trazado 108167" d="M228.663,222.146l-67.892-15.928a1.826,1.826,0,0,1-1.353-2.186h0a1.834,1.834,0,0,1,2.186-1.353L229.5,218.607a1.818,1.818,0,0,1,1.353,2.186h0A1.818,1.818,0,0,1,228.663,222.146Z" transform="translate(-77.189 -145.51)" fill="#d9a171"/>
      <path id="Trazado_108168" data-name="Trazado 108168" d="M225.432,236l-67.9-15.888a1.834,1.834,0,0,1-1.353-2.186h0a1.826,1.826,0,0,1,2.186-1.353L226.257,232.5a1.834,1.834,0,0,1,1.361,2.186h0A1.818,1.818,0,0,1,225.432,236Z" transform="translate(-76.544 -148.276)" fill="#d9a171"/>
      <path id="Trazado_108169" data-name="Trazado 108169" d="M195.206,243.447l-40.9-9.61a1.818,1.818,0,0,1-1.321-2.186h0a1.81,1.81,0,0,1,2.178-1.353l40.9,9.61a1.818,1.818,0,0,1,1.353,2.186h0a1.818,1.818,0,0,1-2.218,1.353Z" transform="translate(-75.907 -151.011)" fill="#d9a171"/>
      <path id="Trazado_108170" data-name="Trazado 108170" d="M261.261,177.618l-22.831-5.357,5.357-22.831Z" transform="translate(-92.938 -134.911)" fill="#d9a171"/>
    </g>
    <g id="freepik--Character--inject-187" transform="translate(198.47 61.302)">
      <path id="Trazado_108171" data-name="Trazado 108171" d="M281.369,260.33,262.39,385.183h3.748l2.507-16.521H317l-2.507,16.521h3.748L337.217,260.33ZM317.5,365.355H269.149l2.7-17.714H320.2Zm3.2-21.021h-48.36l2.7-17.714h48.352Zm3.2-21.021H275.539l2.7-17.714H326.59Zm3.2-21.021H278.742l2.691-17.722h48.352Zm-45.173-21.029,2.691-17.714H332.98l-2.691,17.714Z" transform="translate(-250.738 -102.204)" fill="#263238"/>
      <path id="Trazado_108172" data-name="Trazado 108172" d="M351.688,260.33H295.84l18.979,124.853h3.748l-2.515-16.521H364.4l2.515,16.521h3.748Zm-51.612,3.2h48.352l2.691,17.714H302.767Zm3.2,21.021h48.344l2.691,17.722H305.962Zm3.2,21.029h48.352l2.675,17.746H309.157Zm3.2,21.021h48.352l2.691,17.714H312.352Zm5.886,38.735-2.691-17.714h48.352l2.691,17.714Z" transform="translate(-257.402 -102.204)" fill="#263238"/>
      <path id="Trazado_108173" data-name="Trazado 108173" d="M351.688,260.33H295.84l18.979,124.853h3.748l-2.515-16.521H364.4l2.515,16.521h3.748Zm-51.612,3.2h48.352l2.691,17.714H302.767Zm3.2,21.021h48.344l2.691,17.722H305.962Zm3.2,21.029h48.352l2.675,17.746H309.157Zm3.2,21.021h48.352l2.691,17.714H312.352Zm5.886,38.735-2.691-17.714h48.352l2.691,17.714Z" transform="translate(-257.402 -102.204)" fill="#fff" opacity="0.4"/>
      <path id="Trazado_108174" data-name="Trazado 108174" d="M334.316,108.58c1.6,1.233,3.011,2.466,4.468,3.748s2.851,2.595,4.228,3.948a88.892,88.892,0,0,1,7.816,8.745l.9,1.209.448.6a9.014,9.014,0,0,1,.681,1.113,10.715,10.715,0,0,1,1.105,4.148,21.526,21.526,0,0,1-.681,6.607,44.645,44.645,0,0,1-4.436,11.051l-4.092-1.666a77.745,77.745,0,0,0,1.738-10.5,17.516,17.516,0,0,0-.144-4.573,3.156,3.156,0,0,0-.473-1.209c-.04-.04-.056-.04-.08-.064l-.432-.488-.865-.985c-2.4-2.595-4.933-5.125-7.608-7.56s-5.445-4.885-8.136-7.159Z" transform="translate(-263.957 -71.975)" fill="#7f3e3b"/>
      <path id="Trazado_108175" data-name="Trazado 108175" d="M349.615,155.85l-4.6,3.2,5.606,3.4s2.891-2.763,1.65-5.325Z" transform="translate(-267.196 -81.392)" fill="#7f3e3b"/>
      <path id="Trazado_108176" data-name="Trazado 108176" d="M342.15,165.1l4.244,2.378,3.684-4.284-5.638-3.387Z" transform="translate(-266.627 -82.18)" fill="#7f3e3b"/>
      <path id="Trazado_108177" data-name="Trazado 108177" d="M296.232,87.477c.128.521-.04,1.009-.376,1.1s-.721-.264-.857-.8.04-1.009.376-1.1S296.1,86.933,296.232,87.477Z" transform="translate(-257.225 -67.61)" fill="#263238"/>
      <path id="Trazado_108178" data-name="Trazado 108178" d="M296.227,88.93a19.058,19.058,0,0,1-1.337,5.061,3.1,3.1,0,0,0,2.595-.168Z" transform="translate(-257.212 -68.061)" fill="#630f0f"/>
      <path id="Trazado_108179" data-name="Trazado 108179" d="M297.194,83.3a.312.312,0,0,1-.192,0,2.514,2.514,0,0,0-2.266.152.312.312,0,0,1-.36-.5,3.107,3.107,0,0,1,2.859-.232.312.312,0,0,1-.04.593Z" transform="translate(-257.09 -66.775)" fill="#263238"/>
      <path id="Trazado_108180" data-name="Trazado 108180" d="M314.9,89.5c.745,4.885,1.794,12.372,6.086,14.262,0,0,.416,5.077-8.064,8.128-9.321,3.355-6.118-3.019-6.118-3.019,4.653-3.051,3.163-6.775,1-10Z" transform="translate(-259.481 -68.175)" fill="#7f3e3b"/>
      <path id="Trazado_108181" data-name="Trazado 108181" d="M321.864,105c0-1.53-1.562-4.18-3.139-4-1.738.2-8.368,2.643-10.787,4.877s-.7,6.15-.7,6.15Z" transform="translate(-259.554 -70.463)" fill="#263238"/>
      <path id="Trazado_108182" data-name="Trazado 108182" d="M389.063,336.845c-.416.432-.889.8-1.257.745-.16,0-.368-.112-.472-.464a.641.641,0,0,1,.072-.537c.448-.761,2.4-1.153,2.458-1.169a.144.144,0,0,1,.144.056.152.152,0,0,1,0,.152A7.5,7.5,0,0,1,389.063,336.845Zm-1.313-.248a.6.6,0,0,0-.112.136.393.393,0,0,0-.04.312c.08.248.2.264.24.272.408.048,1.249-.8,1.754-1.546A4.508,4.508,0,0,0,387.749,336.6Z" transform="translate(-275.621 -117.161)" fill="#d9a171"/>
      <path id="Trazado_108183" data-name="Trazado 108183" d="M389.932,335.4a.145.145,0,0,1-.056.04c-.665.208-2.4.152-2.795-.392a.464.464,0,0,1,.048-.569.753.753,0,0,1,.545-.3c.873-.1,2.194.977,2.25,1.025a.136.136,0,0,1,.048.128A.152.152,0,0,1,389.932,335.4Zm-2.539-.8-.04.048c-.112.144-.064.208-.04.24.224.32,1.449.464,2.2.344a3.315,3.315,0,0,0-1.81-.8A.44.44,0,0,0,387.394,334.6Z" transform="translate(-275.562 -116.913)" fill="#d9a171"/>
      <path id="Trazado_108184" data-name="Trazado 108184" d="M328.546,357.748c-.753,0-1.481-.1-1.73-.44a.537.537,0,0,1,0-.609.7.7,0,0,1,.44-.328c.977-.264,3.035.9,3.123.961a.128.128,0,0,1,.064.136.136.136,0,0,1-.112.12,10.565,10.565,0,0,1-1.786.16Zm-.929-1.137a.944.944,0,0,0-.272,0,.409.409,0,0,0-.272.192c-.1.176-.064.256,0,.312.272.376,1.754.384,2.851.232a6.311,6.311,0,0,0-2.3-.737Z" transform="translate(-263.553 -121.328)" fill="#d9a171"/>
      <path id="Trazado_108185" data-name="Trazado 108185" d="M330.715,357.241a.08.08,0,0,1-.056,0c-.713-.312-2.114-1.6-2.01-2.25,0-.16.136-.352.521-.392a1.041,1.041,0,0,1,.8.24,3.908,3.908,0,0,1,.913,2.266.122.122,0,0,1-.168.136Zm-1.433-2.4h-.088c-.248,0-.264.12-.272.152-.064.4.9,1.4,1.6,1.834a3.2,3.2,0,0,0-.8-1.81.737.737,0,0,0-.44-.16Z" transform="translate(-263.936 -120.981)" fill="#d9a171"/>
      <path id="Trazado_108186" data-name="Trazado 108186" d="M337.7,354.34h-5.886l-.585-13.63h5.886Z" transform="translate(-264.451 -118.216)" fill="#7f3e3b"/>
      <path id="Trazado_108187" data-name="Trazado 108187" d="M395.1,329.774l-5.445,1.978-6.919-12.2,5.445-1.978Z" transform="translate(-274.712 -113.606)" fill="#7f3e3b"/>
      <path id="Trazado_108188" data-name="Trazado 108188" d="M389.194,333.389l4.6-4.757a.521.521,0,0,1,.633-.08l4.565,2.8a.865.865,0,0,1,.152,1.345c-1.6,1.6-2.507,2.346-4.525,4.436-1.249,1.281-4.949,5.606-6.663,7.415s-3.7.3-3.155-.577c2.442-3.948,3.916-7.7,4-9.65A1.417,1.417,0,0,1,389.194,333.389Z" transform="translate(-275.104 -115.779)" fill="#263238"/>
      <path id="Trazado_108189" data-name="Trazado 108189" d="M328.824,356.88h6.406a.512.512,0,0,1,.5.4l1.161,5.229a.849.849,0,0,1-.849,1.041c-2.314,0-5.662-.168-8.577-.168-3.4,0-4.893.184-8.889.184-2.4,0-3.083-2.442-2.074-2.667,4.6-1.009,6.9-1.113,10.883-3.564A2.754,2.754,0,0,1,328.824,356.88Z" transform="translate(-261.429 -121.437)" fill="#263238"/>
      <path id="Trazado_108190" data-name="Trazado 108190" d="M301.66,122.333c-.9,2.282-1.866,4.4-2.859,6.583s-2.05,4.292-3.139,6.406a97.788,97.788,0,0,1-7.568,12.5q-1.117,1.513-2.4,3c-.44.5-.889.969-1.417,1.489a12.631,12.631,0,0,1-1.994,1.538,23.279,23.279,0,0,1-3.7,1.834c-1.2.488-2.4.889-3.58,1.241a73.513,73.513,0,0,1-14.214,2.643l-.9-4.324c4.284-1.546,8.641-3.155,12.653-4.949.993-.464,1.97-.937,2.883-1.425a16.217,16.217,0,0,0,2.4-1.53,4.639,4.639,0,0,0,.713-.665c.28-.328.617-.713.921-1.105.617-.8,1.225-1.65,1.81-2.555,1.193-1.778,2.3-3.708,3.363-5.67s2.106-4,3.1-6.006c1.994-4.06,3.924-8.264,5.7-12.372Z" transform="translate(-250.24 -74.045)" fill="#7f3e3b"/>
      <path id="Trazado_108191" data-name="Trazado 108191" d="M327.457,104.184c8.44-.657,16.016,11.86,16.016,11.86l-6.062,9.85a43.731,43.731,0,0,1-12.012-7.151C319.658,113.753,321.692,104.64,327.457,104.184Z" transform="translate(-262.609 -71.095)" fill="#d9a171"/>
      <path id="Trazado_108192" data-name="Trazado 108192" d="M328.16,117.36l8.881,11.956-.4.488s-3.059-2.4-6.6-5.878Z" transform="translate(-263.84 -73.724)" opacity="0.3"/>
      <path id="Trazado_108193" data-name="Trazado 108193" d="M299.584,113.567c-.472,4.124,6.406,22.366,8.008,44l31.319-3.083c-.224-4.148-2.515-21.622-6.663-41.345-1.145-5.445-5.365-9.61-10.819-8.545h-.152a114.814,114.814,0,0,0-12.957,3.323,57.448,57.448,0,0,0-7.015,3.1A3.259,3.259,0,0,0,299.584,113.567Z" transform="translate(-258.143 -71.149)" fill="#d9a171"/>
      <path id="Trazado_108194" data-name="Trazado 108194" d="M303.55,133.591c.529,2.2,1.081,4.589,1.6,7.127,4.765-1.129,3.844-11.692,3.94-11.828Z" transform="translate(-258.937 -76.021)" opacity="0.3"/>
      <path id="Trazado_108195" data-name="Trazado 108195" d="M308.489,117.142c2.4,8.24-6.486,19.219-6.486,19.219L293.05,130.6s-.064-7.552,2.795-13.445C299.472,109.687,306.776,111.264,308.489,117.142Z" transform="translate(-256.846 -72.682)" fill="#d9a171"/>
      <path id="Trazado_108196" data-name="Trazado 108196" d="M259.106,163.168l-3.6-.488.056,7.512s4.845.5,7.536-2.843l-.529-1.409A4.332,4.332,0,0,0,259.106,163.168Z" transform="translate(-249.368 -82.752)" fill="#7f3e3b"/>
      <path id="Trazado_108197" data-name="Trazado 108197" d="M247.84,164.418l2.3,6.118,3.932-.344-.056-7.512Z" transform="translate(-247.84 -82.752)" fill="#7f3e3b"/>
      <path id="Trazado_108198" data-name="Trazado 108198" d="M331.23,340.72l.328,7.656h5.886l-.328-7.656Z" transform="translate(-264.451 -118.218)" opacity="0.2"/>
      <path id="Trazado_108199" data-name="Trazado 108199" d="M388.185,317.57l-5.445,1.978,3.828,6.759,5.189-2.45Z" transform="translate(-274.712 -113.606)" opacity="0.2"/>
      <path id="Trazado_108200" data-name="Trazado 108200" d="M313.294,78.939c1.241,6.462,2.3,10.178-.08,14.27-3.572,6.15-12.172,5.245-15.311-.713-2.835-5.373-4.388-15.031,1.169-19.155a8.969,8.969,0,0,1,14.222,5.6Z" transform="translate(-257.302 -64.597)" fill="#7f3e3b"/>
      <path id="Trazado_108201" data-name="Trazado 108201" d="M300.76,81.529c-3.94,1.97-4-4.324-3.692-5.662-1.481,1.425-3.483,2.859-7.119,1.289-4.468-1.93-3.2-6.975,0-6.911,0,0-2.4-4.565,2.851-5.045a17.418,17.418,0,0,1,6.358.977s1.946-5.1,6.687-2.627c2.507,1.305,4.509,5.165,4.509,5.165s10.21,1.514,4.669,6.847c1.257,2.739.593,11.652-2.651,15.463C310.955,92.693,298.822,92.2,300.76,81.529Z" transform="translate(-255.651 -62.871)" fill="#263238"/>
      <path id="Trazado_108202" data-name="Trazado 108202" d="M313.94,71.318s1.85-2.555,2-8.448C320.258,67.563,313.94,71.318,313.94,71.318Z" transform="translate(-261.007 -62.87)" fill="#263238"/>
      <path id="Trazado_108203" data-name="Trazado 108203" d="M305.347,85.106a7.415,7.415,0,0,1-1.249,4.613c-1.2,1.786-2.835,1.017-3.363-.865-.48-1.69-.432-4.661,1.193-5.782S305.178,83.136,305.347,85.106Z" transform="translate(-258.324 -66.808)" fill="#7f3e3b"/>
      <path id="Trazado_108204" data-name="Trazado 108204" d="M323.48,168.93s11.051,44.044,16.352,60.484c5.8,17.97,30.959,65.081,30.959,65.081l9.874-4.3s-19.043-42.891-23.111-60.861c-4.412-19.475-13.862-62.414-13.862-62.414Z" transform="translate(-262.908 -83.597)" fill="#263238"/>
      <path id="Trazado_108205" data-name="Trazado 108205" d="M378.91,320.963c-.04,0,3.2,4.637,3.2,4.637l11.091-4.9-2.242-4.589Z" transform="translate(-273.949 -113.315)" fill="#d9a171"/>
      <path id="Trazado_108206" data-name="Trazado 108206" d="M330.264,188.815c7.832.745,9.834,29.477,10.362,44.308-3.243-10.2-8.456-29.926-12.076-43.932a2.667,2.667,0,0,1,1.714-.376Z" transform="translate(-263.917 -87.955)" opacity="0.3"/>
      <path id="Trazado_108207" data-name="Trazado 108207" d="M309.61,170.282s1.273,45.261,3.668,63.055c2.49,18.507,11.7,77.678,11.7,77.678h9.97s-2.306-59.756-3.66-78.038c-1.473-19.932-1.089-64.737-1.089-64.737Z" transform="translate(-260.145 -83.86)" fill="#263238"/>
      <path id="Trazado_108208" data-name="Trazado 108208" d="M326.32,340.72c-.04,0,.8,6.03.8,6.03l12.116-.416.112-5.606Z" transform="translate(-263.473 -118.218)" fill="#d9a171"/>
    </g>
  </g>
</svg>
