<svg xmlns="http://www.w3.org/2000/svg" width="657.066" height="275.413" viewBox="0 0 657.066 275.413">
  <g id="portada-02" transform="translate(-15.83 -10.72)">
    <rect id="Rectángulo_8783" data-name="Rectángulo 8783" width="169.743" height="97.494" transform="translate(137.685 47.417)" fill="#dae2f2"/>
    <rect id="Rectángulo_8784" data-name="Rectángulo 8784" width="158.372" height="8.602" transform="translate(141.575 50.32)" fill="#eaf0fe"/>
    <rect id="Rectángulo_8785" data-name="Rectángulo 8785" width="60.185" height="77.575" transform="translate(145.573 63.209)" fill="#eaf0fe"/>
    <rect id="Rectángulo_8786" data-name="Rectángulo 8786" width="47.109" height="22.529" transform="translate(150.514 113.514)" fill="#dae2f2"/>
    <rect id="Rectángulo_8787" data-name="Rectángulo 8787" width="47.109" height="3.169" transform="translate(150.514 69.094)" fill="#dae2f2"/>
    <rect id="Rectángulo_8788" data-name="Rectángulo 8788" width="47.109" height="3.196" transform="translate(150.514 76.258)" fill="#dae2f2"/>
    <rect id="Rectángulo_8789" data-name="Rectángulo 8789" width="47.109" height="3.196" transform="translate(150.514 84.859)" fill="#dae2f2"/>
    <rect id="Rectángulo_8790" data-name="Rectángulo 8790" width="47.109" height="3.196" transform="translate(150.514 92.023)" fill="#dae2f2"/>
    <rect id="Rectángulo_8791" data-name="Rectángulo 8791" width="78.906" height="3.808" transform="translate(216.322 63.209)" fill="#eaf0fe"/>
    <rect id="Rectángulo_8792" data-name="Rectángulo 8792" width="78.906" height="3.808" transform="translate(216.322 70.372)" fill="#eaf0fe"/>
    <rect id="Rectángulo_8793" data-name="Rectángulo 8793" width="78.906" height="3.835" transform="translate(216.322 78.974)" fill="#eaf0fe"/>
    <rect id="Rectángulo_8794" data-name="Rectángulo 8794" width="78.906" height="50.491" transform="translate(216.322 88.055)" fill="#eaf0fe"/>
    <rect id="Rectángulo_8795" data-name="Rectángulo 8795" width="66.976" height="22.716" transform="translate(222.93 93.621)" fill="#dae2f2"/>
    <rect id="Rectángulo_8796" data-name="Rectángulo 8796" width="85.99" height="4.074" transform="translate(145.122 52.477)" fill="#dae2f2"/>
    <rect id="Rectángulo_8797" data-name="Rectángulo 8797" width="34.06" height="4.074" transform="translate(256.112 52.477)" fill="#dae2f2"/>
    <path id="Trazado_113072" data-name="Trazado 113072" d="M161.978,232.739h-1.758v-2.663h7.936v2.663Zm-9.88-.16c-2.477,0-5.166-.186-7.989-.346V229.57c2.876.16,5.539.266,7.989.346ZM136.12,231.7q-3.995-.28-7.989-.719l.266-2.663c2.663.266,5.326.506,7.989.692Zm-15.978-1.624q-3.995-.479-7.989-1.118l.4-2.663q3.995.639,7.989,1.118Zm-15.978-2.45c-2.663-.479-5.326-1.012-7.989-1.571l.559-2.663c2.663.559,5.326,1.092,7.8,1.571Zm-15.712-3.409c-2.663-.666-5.193-1.385-7.776-2.157l.746-2.663c2.663.746,5.113,1.438,7.67,2.1Zm-15.472-4.607c-2.663-.905-5.113-1.864-7.536-2.849l1.012-2.477a73.84,73.84,0,0,0,7.4,2.663Zm-14.913-6.125q-3.755-1.784-7.19-3.755l1.332-2.317c2.21,1.278,4.554,2.5,7,3.675ZM44.032,205.5c-2.29-1.571-4.447-3.222-6.471-4.9l1.731-2.051c1.944,1.651,4.048,3.249,6.232,4.767ZM31.649,195.031a67.692,67.692,0,0,1-5.246-6.365l2.157-1.545a61.248,61.248,0,0,0,4.98,5.992Zm-9.48-13.315a51.372,51.372,0,0,1-3.222-7.4l2.5-.879a54.137,54.137,0,0,0,3.009,7.244ZM16.842,166.4a61.25,61.25,0,0,1-1.012-7.989l2.663-.16a60.586,60.586,0,0,0,.959,7.723Zm1.678-15.978-2.663-.16a79.573,79.573,0,0,1,.905-7.989l2.663.426a73.475,73.475,0,0,0-.985,7.7ZM21,134.926l-2.663-.666c.613-2.663,1.385-5.14,2.237-7.749l2.53.826c-.826,2.53-1.491,5.086-2.184,7.563Zm4.847-15.046-2.477-.959c.959-2.5,2-5.007,3.063-7.43l2.423,1.065c-1.118,2.37-2.13,4.82-3.089,7.3Zm6.418-14.514-2.4-1.2c1.225-2.423,2.5-4.82,3.808-7.11l2.317,1.332A58.472,58.472,0,0,0,32.261,105.366Zm7.856-13.741-2.343-1.491c1.465-2.264,3.009-4.474,4.607-6.631l2.13,1.571c-1.6,2.184-3.089,4.367-4.5,6.551Zm9.4-12.676-2.024-1.731c1.731-2.051,3.568-4.074,5.326-5.992l1.917,1.864a75.306,75.306,0,0,0-5.326,5.859Zm86.043-2.663-.346-2.663a13.821,13.821,0,0,0,6.658-2.663l1.624,2.1a16.564,16.564,0,0,1-8.042,3.222Zm-8.469-1.6a21.784,21.784,0,0,1-6.951-5.033l1.971-1.811a19.307,19.307,0,0,0,6.019,4.447ZM60.516,67.6l-1.784-1.971c2.024-1.811,4.128-3.568,6.232-5.193l1.624,2.13a76.321,76.321,0,0,0-6.2,5.033Zm87.321-2.237-2.663-.24v-.719a11,11,0,0,0-2.051-5.939L145.361,57a13.635,13.635,0,0,1,2.477,7.4A3.849,3.849,0,0,1,147.838,65.367Zm-32.143-2.823a25.112,25.112,0,0,1-1.784-8.2h2.663a21.864,21.864,0,0,0,1.6,7.323ZM72.873,57.99l-1.465-2.237c2.264-1.491,4.607-2.876,6.951-4.154l1.278,2.343C77.346,55.167,75.083,56.525,72.873,57.99Zm65.218-5.14c-1.332-1.145-2.849-2.317-4.527-3.489a15.392,15.392,0,0,0-1.7-1.065l1.332-2.317a20.594,20.594,0,0,1,1.917,1.2,55.925,55.925,0,0,1,4.714,3.675Zm-51.4-2.343-1.172-2.45c2.5-1.092,5.06-2.051,7.59-2.876l.826,2.53c-2.343.8-4.82,1.731-7.244,2.77ZM117.479,46.7l-2.663-.666a35.312,35.312,0,0,1,3.063-7.723l2.264,1.225q-.612,1.118-1.118,2.237a42.263,42.263,0,0,1,6.365,1.092l-.666,2.663a39.68,39.68,0,0,0-6.711-1.092A8.483,8.483,0,0,0,117.479,46.7ZM101.74,45.66,101.181,43a67.509,67.509,0,0,1,7.989-1.2l.24,2.663a66.949,66.949,0,0,0-7.776,1.2Zm22.822-12.516-2.184-1.6a60.5,60.5,0,0,1,5.539-5.992l1.838,1.917a55.523,55.523,0,0,0-5.3,5.672Zm11.265-10.839L134.2,20.2c1.7-1.332,3.568-2.663,5.513-3.941l1.465,2.21c-2,1.252-3.808,2.557-5.459,3.835Z" transform="translate(0 9.213)" fill="#d7d9dd"/>
    <path id="Trazado_113073" data-name="Trazado 113073" d="M65.1,29.947,59.829,33.17l-.639-9.72L82.279,10.72Z" transform="translate(72.11)" fill="#5e6178"/>
    <path id="Trazado_113074" data-name="Trazado 113074" d="M69.774,36.818l10.359-26.1L60.48,27.471Z" transform="translate(74.255)" fill="#6595bf"/>
    <path id="Trazado_113075" data-name="Trazado 113075" d="M86.3,10.72,64.36,24.861l-7.59-9.427Z" transform="translate(68.085)" fill="#6595bf"/>
    <path id="Trazado_113076" data-name="Trazado 113076" d="M59.43,22.709l2.8-5.7L64.7,19.487Z" transform="translate(72.509 10.461)" fill="#454759"/>
    <path id="Trazado_113077" data-name="Trazado 113077" d="M177.511,63.352c0,20.426-28.1,36.191-48.494,36.191a36.937,36.937,0,1,1,0-73.873C149.415,25.67,177.511,42.953,177.511,63.352Z" transform="translate(110.515 24.863)" fill="#aed3f2"/>
    <path id="Trazado_113078" data-name="Trazado 113078" d="M93.64,75.529,106.662,65.2l-11-22.316Z" transform="translate(114.511 53.484)" fill="#aed3f2"/>
    <rect id="Rectángulo_8798" data-name="Rectángulo 8798" width="166.654" height="95.737" transform="translate(114.816 138.68)" fill="#dae2f2"/>
    <rect id="Rectángulo_8799" data-name="Rectángulo 8799" width="155.522" height="8.442" transform="translate(118.704 141.502)" fill="#eaf0fe"/>
    <rect id="Rectángulo_8800" data-name="Rectángulo 8800" width="59.093" height="76.163" transform="translate(120.941 154.179)" fill="#eaf0fe"/>
    <rect id="Rectángulo_8801" data-name="Rectángulo 8801" width="46.257" height="22.13" transform="translate(117.636 203.578)" fill="#dae2f2"/>
    <rect id="Rectángulo_8802" data-name="Rectángulo 8802" width="46.257" height="3.116" transform="translate(117.636 159.957)" fill="#dae2f2"/>
    <rect id="Rectángulo_8803" data-name="Rectángulo 8803" width="46.257" height="3.116" transform="translate(117.636 166.988)" fill="#dae2f2"/>
    <rect id="Rectángulo_8804" data-name="Rectángulo 8804" width="46.257" height="3.116" transform="translate(117.636 175.43)" fill="#dae2f2"/>
    <rect id="Rectángulo_8805" data-name="Rectángulo 8805" width="46.257" height="3.142" transform="translate(117.636 182.46)" fill="#dae2f2"/>
    <rect id="Rectángulo_8806" data-name="Rectángulo 8806" width="77.468" height="3.755" transform="translate(182.424 154.179)" fill="#eaf0fe"/>
    <rect id="Rectángulo_8807" data-name="Rectángulo 8807" width="77.468" height="3.755" transform="translate(182.424 161.209)" fill="#eaf0fe"/>
    <rect id="Rectángulo_8808" data-name="Rectángulo 8808" width="77.468" height="3.755" transform="translate(182.424 169.651)" fill="#eaf0fe"/>
    <rect id="Rectángulo_8809" data-name="Rectángulo 8809" width="77.468" height="49.586" transform="translate(182.424 178.572)" fill="#eaf0fe"/>
    <rect id="Rectángulo_8810" data-name="Rectángulo 8810" width="65.777" height="22.316" transform="translate(188.85 184.031)" fill="#dae2f2"/>
    <rect id="Rectángulo_8811" data-name="Rectángulo 8811" width="84.445" height="3.995" transform="translate(120.941 143.633)" fill="#dae2f2"/>
    <rect id="Rectángulo_8812" data-name="Rectángulo 8812" width="33.448" height="3.995" transform="translate(221.286 143.633)" fill="#dae2f2"/>
    <path id="Trazado_113083" data-name="Trazado 113083" d="M72.111,98.1l-1.944.639.346,3.116-.4,1.518-4.474,5.752,9.188-5.513Z" transform="translate(73.356 145.317)" fill="#f7ae30"/>
    <path id="Trazado_113084" data-name="Trazado 113084" d="M69.451,96.91l2.024.16.373,3.142.719,1.385,5.646,4.58-10.173-3.3Z" transform="translate(76.877 143.338)" fill="#f7ae30"/>
    <path id="Trazado_113085" data-name="Trazado 113085" d="M63.835,64.6,62.29,114.159l13.262,43.275,3.995-1.864-6.924-38.481L84.846,77.01Z" transform="translate(68.25 89.605)" fill="#5e6178"/>
    <path id="Trazado_113086" data-name="Trazado 113086" d="M72.584,74.291v39.653L67.87,152.425h4.714l9.347-39.067,8.5-47.988Z" transform="translate(76.447 90.886)" fill="#5e6178"/>
    <path id="Trazado_113087" data-name="Trazado 113087" d="M97.06,57.793s5.566-2.983,6.844-2.264,3.728,4.5-6.232,4.74Z" transform="translate(119.654 74.335)" fill="#ffc190"/>
    <path id="Trazado_113088" data-name="Trazado 113088" d="M80.305,59.559,93.434,84.937,130,73.753l-.8-3.089L99.746,74.845,86.857,52.928s-3.728-7.723-8.708-4.82A25.06,25.06,0,0,0,80.305,59.559Z" transform="translate(90.962 61.092)" fill="#5c84a8"/>
    <path id="Trazado_113089" data-name="Trazado 113089" d="M93.442,45.76c-4.767,0-15.632,3.675-18.641,9.72s-4.554,21.3-4.554,21.3L62.87,95.932s14.354,20.239,35.9,7.084c0,0,5.326-19.573,8.788-27.856,2.077-4.793,8.735-17.869,2.929-22.583C102.017,45.707,98.262,45.84,93.442,45.76Z" transform="translate(68.722 58.273)" fill="#6595bf"/>
    <path id="Trazado_113090" data-name="Trazado 113090" d="M78.845,43.49l-3.6,6.844s7.51,8.5,7.457,4.66a87.057,87.057,0,0,1,.985-10.386Z" transform="translate(87.521 54.498)" fill="#ffc190"/>
    <path id="Trazado_113091" data-name="Trazado 113091" d="M78.79,40.994a9.747,9.747,0,0,0-2.37,6.152c.4,2.157.852,5.939,2.9,7.3A3.2,3.2,0,0,0,83.717,53.4c.905-1.332,3.222-9.321,0-12.117C81.427,39.05,79.509,40.089,78.79,40.994Z" transform="translate(89.236 48.605)" fill="#ffc190"/>
    <path id="Trazado_113092" data-name="Trazado 113092" d="M85.172,43.354a4.634,4.634,0,0,1-4.314,0c-2.343-1.172-2.663,1.358-2.663,1.624s-.426,3.888-1.3,3.755-1.039-4.767.905-7.43a4.154,4.154,0,0,1,7.377,2.051Z" transform="translate(89.009 48.243)" fill="#2e3b57"/>
    <path id="Trazado_113093" data-name="Trazado 113093" d="M76.61,43.64a7.67,7.67,0,0,0,4.634,3.3c1.7.186,3.2-2.5,3.329-3.116s-.453,5.646-4.128,5.033S76.61,43.64,76.61,43.64Z" transform="translate(89.532 54.748)" fill="#2e3b57"/>
    <path id="Trazado_113094" data-name="Trazado 113094" d="M74.2,66.65s5.326,3.3,5.326,4.767S77.553,76.9,72.28,68.461Z" transform="translate(83.165 93.014)" fill="#ffc190"/>
    <path id="Trazado_113095" data-name="Trazado 113095" d="M76.979,53.568,61.8,77.908l28.175,25.8,2.264-2.264L73.6,78.2l12.33-22.236s5.326-9.773-.266-9.933C82.838,45.951,80.175,48.614,76.979,53.568Z" transform="translate(67.426 58.721)" fill="#5c84a8"/>
    <path id="Trazado_113096" data-name="Trazado 113096" d="M157.655,56.241l-16.4,17.15L114.62,55.922,116,53.631l22.583,10.279L153.98,49.45s4.794-5.326,7.989-1.811A20.852,20.852,0,0,1,157.655,56.241Z" transform="translate(144.403 59.403)" fill="#ffc190"/>
    <path id="Trazado_113097" data-name="Trazado 113097" d="M119.233,51.686S115.8,47.718,114.6,47.9s-4.234,2.343,3.382,5.539Z" transform="translate(143.158 61.828)" fill="#ffc190"/>
    <path id="Trazado_113098" data-name="Trazado 113098" d="M165.414,64.811l-22,8.948-17.1-26.631L128.5,45.61l16.378,18.508,19.973-6.9s6.525-2.876,7.989,1.651a20.452,20.452,0,0,1-7.43,5.939Z" transform="translate(161.533 58.024)" fill="#ffc190"/>
    <path id="Trazado_113099" data-name="Trazado 113099" d="M130.279,49.15s-1.518-5.033-2.663-5.326-4.82.426.826,6.445Z" transform="translate(161.466 54.963)" fill="#ffc190"/>
    <path id="Trazado_113100" data-name="Trazado 113100" d="M141.814,97.45l-1.624.133-.266,2.477-.586,1.092-4.447,3.622,8.016-2.61Z" transform="translate(175.381 144.236)" fill="#ffda89"/>
    <path id="Trazado_113101" data-name="Trazado 113101" d="M140.748,95.83l-1.278,1.012,1.118,2.21.133,1.225-1.731,5.486,5.273-6.6Z" transform="translate(181.512 141.542)" fill="#ffda89"/>
    <path id="Trazado_113102" data-name="Trazado 113102" d="M152.111,64.14l-4.527,49.719-1.6,40.984H142.1l-3.888-42.609L133.39,64.14Z" transform="translate(172.824 88.84)" fill="#5e6178"/>
    <path id="Trazado_113103" data-name="Trazado 113103" d="M127.08,64.14l1.3,45.352,30.332,41.49,3.888-1.944L141.62,111.6l7.4-44.872V64.14Z" transform="translate(163.01 88.84)" fill="#5e6178"/>
    <path id="Trazado_113104" data-name="Trazado 113104" d="M163.22,104.138l-36.67-7.59,9.294-24.82,5.3-25.7,15.233.08,17.709,5.406-5.113,24.793Z" transform="translate(161.835 58.722)" fill="#6595bf"/>
    <path id="Trazado_113105" data-name="Trazado 113105" d="M139.858,46.493s5.326,4.634-7,13.315l-4.634-7.643S134.585,44.016,139.858,46.493Z" transform="translate(165.409 58.712)" fill="#5c84a8"/>
    <path id="Trazado_113106" data-name="Trazado 113106" d="M150.521,48.282s6.418,2.823-2.663,14.94l-6.737-5.885S144.742,47.59,150.521,48.282Z" transform="translate(184.435 62.409)" fill="#5c84a8"/>
    <path id="Trazado_113107" data-name="Trazado 113107" d="M142.009,51.946c-.186,1.3-5.326.24-5.166-1.065a26.63,26.63,0,0,1,1.837-6.391l4.128-.639S142.408,49.2,142.009,51.946Z" transform="translate(178.318 55.097)" fill="#ffc190"/>
    <path id="Trazado_113108" data-name="Trazado 113108" d="M140.048,52.293c-.373,0-3.7-.16-3.888-1.837a21.466,21.466,0,0,1,2.264-8.761,4.314,4.314,0,0,1,4.767-.826c1.065.746,3.515,4.74.586,10.12a5.672,5.672,0,0,1-3.728,1.3Z" transform="translate(177.219 49.504)" fill="#ffc190"/>
    <path id="Trazado_113109" data-name="Trazado 113109" d="M136.742,42.186s-.133,2.051,1.332,2.184,3.941.213,3.968,1.358-1.731,4.58-1.172,5.646,2.264,2.663,2.956,1.3,3.222-9.321-.719-12.117a5.326,5.326,0,0,0-6.365,1.624Z" transform="translate(178.087 48.878)" fill="#2e3b57"/>
    <path id="Trazado_113110" data-name="Trazado 113110" d="M254.291,86.663a35.206,35.206,0,1,0,25.96-7.317,35.232,35.232,0,0,0-25.96,7.317Zm33.262,42.209a18.641,18.641,0,1,1,3.089-26.071,18.641,18.641,0,0,1-3.089,26.071Z" transform="translate(324.36 113.719)" fill="#dae2f2"/>
    <path id="Trazado_113111" data-name="Trazado 113111" d="M263.9,90.043l-12.49,9.827s-9.96-8.362-9.4-12.09,8.6-10.652,12.463-9.827S263.9,90.043,263.9,90.043Z" transform="translate(326.251 111.698)" fill="#dae2f2"/>
    <path id="Trazado_113112" data-name="Trazado 113112" d="M270.23,98.86l-12.49,9.827s5.7,11.611,9.507,12.064,12.437-5.832,12.49-9.827S270.23,98.86,270.23,98.86Z" transform="translate(352.442 146.581)" fill="#dae2f2"/>
    <path id="Trazado_113113" data-name="Trazado 113113" d="M255,89.059v15.978s-12.623,2.823-15.366,0-3.2-13.315-.133-15.978S255,89.059,255,89.059Z" transform="translate(318.591 128.314)" fill="#dae2f2"/>
    <path id="Trazado_113114" data-name="Trazado 113114" d="M253.483,96.75l7.643,13.9s-9.773,8.5-13.475,7.43-9.134-10.253-7.643-13.928S253.483,96.75,253.483,96.75Z" transform="translate(322.532 143.072)" fill="#dae2f2"/>
    <path id="Trazado_113115" data-name="Trazado 113115" d="M269.914,102.378,260.62,89.515s8.655-9.64,12.463-9.028,10.333,9.028,9.294,12.863S269.914,102.378,269.914,102.378Z" transform="translate(357.231 115.98)" fill="#dae2f2"/>
    <path id="Trazado_113116" data-name="Trazado 113116" d="M252.35,91.294l15.392,3.968s5.7-11.611,3.728-14.913-12.223-6.232-15.392-3.861S252.35,91.294,252.35,91.294Z" transform="translate(343.478 107.943)" fill="#dae2f2"/>
    <path id="Trazado_113117" data-name="Trazado 113117" d="M267.436,106.411l-15.419-3.861s-5.7,11.611-3.728,14.913,12.223,6.232,15.392,3.861S267.436,106.411,267.436,106.411Z" transform="translate(336.035 152.718)" fill="#dae2f2"/>
    <path id="Trazado_113118" data-name="Trazado 113118" d="M264.78,107.552l-.16-15.978s12.65-2.823,15.392,0,3.2,13.315.133,15.978S264.78,107.552,264.78,107.552Z" transform="translate(363.883 132.377)" fill="#dae2f2"/>
    <path id="Trazado_113121" data-name="Trazado 113121" d="M284.595,218.246h-2.317v-2.663h7.936v2.663Zm-10.359-.186c-2.45,0-5.14-.213-7.989-.373l.133-2.663c2.876.16,5.539.293,7.989.373Zm-15.978-.959c-2.663-.213-5.326-.479-7.989-.772l.293-2.663c2.663.32,5.326.559,7.989.772Zm-15.978-1.758c-2.663-.373-5.326-.772-7.989-1.225l.453-2.663c2.663.453,5.326.852,7.989,1.225ZM226.3,212.68c-2.663-.533-5.326-1.092-7.989-1.731l.639-2.663c2.663.613,5.166,1.172,7.749,1.7ZM210.668,208.9c-2.663-.746-5.326-1.571-7.723-2.4l.852-2.5c2.423.8,4.98,1.6,7.59,2.343Zm-15.286-5.166c-2.53-1.012-5.033-2.1-7.4-3.222l1.118-2.4c2.344,1.092,4.794,2.157,7.27,3.142Zm-14.567-6.977c-2.4-1.358-4.714-2.823-6.844-4.314l1.518-2.184c2.077,1.465,4.314,2.876,6.658,4.208ZM167.5,187.461a65.639,65.639,0,0,1-5.805-5.726l2-1.758a63.685,63.685,0,0,0,5.566,5.326Zm-10.785-12.17a54.977,54.977,0,0,1-3.941-7.137l2.423-1.118a45.452,45.452,0,0,0,3.755,6.764Zm-6.738-14.807a53,53,0,0,1-1.571-7.989l2.663-.32a54.642,54.642,0,0,0,1.491,7.59Zm.666-15.978H147.98a65.486,65.486,0,0,1,.586-7.989l2.663.32a66.565,66.565,0,0,0-.533,7.536Zm1.944-15.552-2.663-.586c.586-2.663,1.3-5.166,2.13-7.829l2.53.826c-.666,2.423-1.385,4.98-1.944,7.457Zm4.687-15.073-2.5-.932c.959-2.53,1.971-5.06,3.036-7.483l2.423,1.065c-.959,2.343-1.971,4.714-2.9,7.217Zm6.338-14.514-2.4-1.172c1.225-2.423,2.5-4.82,3.835-7.11l2.317,1.332c-1.252,2.13-2.53,4.474-3.7,6.817ZM171.6,85.706l-2.264-1.6c1.491-2.264,3.089-4.474,4.687-6.578l2.13,1.624c-1.491,2.051-3.116,4.208-4.58,6.418Zm9.587-12.516-2-1.784c1.811-2.024,3.675-3.995,5.566-5.859l1.864,1.917a68.033,68.033,0,0,0-5.459,5.592Zm74.778-.852a19.014,19.014,0,0,1-7.723-3.622l1.624-2.1a16.644,16.644,0,0,0,6.631,3.116Zm8.6-1.252-1.145-2.423a9.8,9.8,0,0,0,4.953-4.74l2.45,1.012a12.356,12.356,0,0,1-6.285,6.018ZM242.7,62.351a22.636,22.636,0,0,1-2.663-7.989l2.663-.373a20.24,20.24,0,0,0,2.264,6.951Zm-50.252-.186-1.7-2.051c2.077-1.731,4.234-3.409,6.418-4.953l1.518,2.184a59.821,59.821,0,0,0-6.258,4.687Zm75.418-4.98a21.624,21.624,0,0,0-4.607-5.885l1.811-1.944a24.341,24.341,0,0,1,5.193,6.631ZM205.289,52.95l-1.358-2.29c2.37-1.385,4.767-2.663,7.164-3.782l1.145,2.4A60.068,60.068,0,0,0,205.289,52.95Zm51.93-6.365a24.953,24.953,0,0,0-7-2.9l.692-2.663a28.362,28.362,0,0,1,7.7,3.222Zm-14.407-.24-2.663-.479a31.261,31.261,0,0,1,.826-3.382,54.916,54.916,0,0,0-6.2.293l-.266-2.663a54.433,54.433,0,0,1,7.457-.266c.24-.613.533-1.252.852-1.891l2.37,1.172a28.468,28.468,0,0,0-2.477,7.217Zm-23.2,0-.905-2.5a80.605,80.605,0,0,1,7.8-2.29l.613,2.663a68.151,68.151,0,0,0-7.616,2.051ZM249.229,32.6l-2.1-1.624a54.4,54.4,0,0,1,5.486-6.045l1.838,1.917a49.267,49.267,0,0,0-5.22,5.752Zm11.185-10.839-1.6-2.1c1.545-1.2,3.169-2.343,4.847-3.462l1.545,2.13C263.5,19.5,261.905,20.621,260.414,21.766Z" transform="translate(188.695 9.114)" fill="#d7d9dd"/>
    <path id="Trazado_113122" data-name="Trazado 113122" d="M519.339,115.864c0,3.835-85.218,6.924-190.595,6.924S138.15,119.7,138.15,115.864s85.218-6.924,190.595-6.924S519.339,112.029,519.339,115.864Z" transform="translate(153.557 163.345)" fill="#eaf0fe" opacity="0.35"/>
    <path id="Trazado_113172" data-name="Trazado 113172" d="M430.892,114.992c0,3.352-65.445,6.052-146.371,6.052s-146.371-2.7-146.371-6.052,65.445-6.052,146.371-6.052S430.892,111.64,430.892,114.992Z" transform="translate(-51.115 136.407)" fill="#eaf0fe" opacity="0.22"/>
    <path id="Trazado_113123" data-name="Trazado 113123" d="M172.928,79.872a25.326,25.326,0,1,0,30.971,18,25.326,25.326,0,0,0-30.971-18Zm9.88,37.283a6.408,6.408,0,1,1,0,.08Z" transform="translate(201.947 113.587)" fill="#d9a171"/>
    <path id="Trazado_113124" data-name="Trazado 113124" d="M172.683,87.941l-11.025,2.9s-4.208-8.309-2.823-10.652,8.735-4.607,11.025-2.929S172.683,87.941,172.683,87.941Z" transform="translate(210.001 109.698)" fill="#d9a171"/>
    <path id="Trazado_113125" data-name="Trazado 113125" d="M174.132,95.22,163.08,98.149s.453,9.294,2.823,10.652,9.88-.32,11.052-2.929S174.132,95.22,174.132,95.22Z" transform="translate(216.661 140.528)" fill="#d9a171"/>
    <path id="Trazado_113126" data-name="Trazado 113126" d="M167.367,85.763,162.92,96.416s-9.161-1.758-10.2-4.314,1.7-9.72,4.447-10.652S167.367,85.763,167.367,85.763Z" transform="translate(201.057 117.442)" fill="#d9a171"/>
    <path id="Trazado_113127" data-name="Trazado 113127" d="M163.842,88.964l1.092,11.371s-8.895,2.663-11.025,1.039S150.793,92,152.843,90,163.842,88.964,163.842,88.964Z" transform="translate(199.974 129.741)" fill="#d9a171"/>
    <path id="Trazado_113128" data-name="Trazado 113128" d="M172.8,97.678,170.32,86.519s8.5-3.888,10.812-2.4,4.234,8.921,2.477,11.158S172.8,97.678,172.8,97.678Z" transform="translate(227.318 121.506)" fill="#ffda89"/>
    <path id="Trazado_113129" data-name="Trazado 113129" d="M165.54,86.4l9.054,6.951s7.084-6.018,6.738-8.761-6.285-7.616-9.054-6.951S165.54,86.4,165.54,86.4Z" transform="translate(220.209 111.186)" fill="#d9a171"/>
    <path id="Trazado_113130" data-name="Trazado 113130" d="M170.871,100.817,161.816,94s-7.11,6.045-6.738,8.788,6.285,7.616,9.054,6.924S170.871,100.817,170.871,100.817Z" transform="translate(204.801 138.499)" fill="#d9a171"/>
    <path id="Trazado_113131" data-name="Trazado 113131" d="M169.3,101.162l4.447-10.652s9.161,1.731,10.2,4.288-1.7,9.747-4.447,10.652S169.3,101.162,169.3,101.162Z" transform="translate(225.779 132.695)" fill="#ffda89"/>
    <path id="Trazado_113132" data-name="Trazado 113132" d="M242.338,26.826a46.018,46.018,0,1,0,56.244,32.756,46.018,46.018,0,0,0-56.244-32.756ZM260.26,94.707a24.207,24.207,0,1,1,17.23-29.56,24.207,24.207,0,0,1-17.23,29.56Z" transform="translate(269.817 24.24)" fill="#d9a171"/>
    <path id="Trazado_113133" data-name="Trazado 113133" d="M241.892,41.515l-20.053,5.326s-7.67-15.073-5.14-19.414,15.978-8.362,20.053-5.326S241.892,41.515,241.892,41.515Z" transform="translate(294.147 17.166)" fill="#d9a171"/>
    <path id="Trazado_113134" data-name="Trazado 113134" d="M244.523,54.74,224.47,60.066s.8,16.884,5.14,19.414,17.922-.559,20.053-5.326S244.523,54.74,244.523,54.74Z" transform="translate(306.314 73.208)" fill="#ffda89"/>
    <path id="Trazado_113135" data-name="Trazado 113135" d="M232.133,37.514l-7.989,19.094s-16.617-3.169-18.508-7.829,3.116-17.656,7.989-19.094S232.133,37.514,232.133,37.514Z" transform="translate(278.908 18.781)" fill="#d9a171"/>
    <path id="Trazado_113136" data-name="Trazado 113136" d="M225.815,43.368l1.944,20.639s-16.138,5.113-20,1.891-5.672-17.017-1.944-20.639S225.815,43.368,225.815,43.368Z" transform="translate(276.014 53.608)" fill="#ffda89"/>
    <path id="Trazado_113137" data-name="Trazado 113137" d="M242.054,59.16,237.58,38.894s15.392-7.03,19.6-4.314,7.723,16.191,4.5,20.239S242.054,59.16,242.054,59.16Z" transform="translate(318.914 38.642)" fill="#d9a171"/>
    <path id="Trazado_113138" data-name="Trazado 113138" d="M228.88,38.75l16.458,12.623S258.227,40.4,257.561,35.395,246.137,21.547,241.1,22.772,228.88,38.75,228.88,38.75Z" transform="translate(304.446 19.851)" fill="#d9a171"/>
    <path id="Trazado_113139" data-name="Trazado 113139" d="M238.557,65.043,222.1,52.42S209.21,63.392,209.876,68.4,221.3,82.22,226.333,81.021,238.557,65.043,238.557,65.043Z" transform="translate(284.677 69.349)" fill="#ffda89"/>
    <path id="Trazado_113140" data-name="Trazado 113140" d="M235.72,65.354l7.989-19.094s16.617,3.169,18.641,7.829-3.116,17.656-7.989,19.094S235.72,65.354,235.72,65.354Z" transform="translate(315.821 59.105)" fill="#ffda89"/>
    <rect id="Rectángulo_8813" data-name="Rectángulo 8813" width="66.124" height="43.408" transform="translate(459.031 225.708)" fill="#292b40"/>
    <path id="Trazado_113141" data-name="Trazado 113141" d="M379.032,40.55H177.386A10.226,10.226,0,0,0,167.16,50.8V168.536H389.338V50.8A10.226,10.226,0,0,0,379.033,40.55Z" transform="translate(201.802 49.609)" fill="#5e6178"/>
    <path id="Trazado_113142" data-name="Trazado 113142" d="M379.032,127.917H177.386a10.226,10.226,0,0,1-10.226-10.226V88.61H389.338v29.081a10.226,10.226,0,0,1-10.306,10.226Z" transform="translate(201.802 129.535)" fill="#3d415f"/>
    <rect id="Rectángulo_8814" data-name="Rectángulo 8814" width="182.419" height="10.093" transform="translate(390.588 269.116)" fill="#292b40"/>
    <rect id="Rectángulo_8815" data-name="Rectángulo 8815" width="205.161" height="117.201" transform="translate(376.419 100.944)" fill="#eaf0fe"/>
    <path id="Trazado_113145" data-name="Trazado 113145" d="M326.447,81.7c0,24.607-30.492,38.215-55.1,38.215S228.74,105.965,228.74,81.358,249.8,43.33,274.411,43.33,326.447,57.1,326.447,81.7Z" transform="translate(304.213 54.232)" fill="#dac7bd"/>
    <path id="Trazado_113146" data-name="Trazado 113146" d="M230.67,101.017l16.218-19.68L233.147,61.63Z" transform="translate(307.423 84.666)" fill="#dac7bd"/>
    <path id="Trazado_113147" data-name="Trazado 113147" d="M237.24,74.9V71.942l2.663-2.423c4.554-4.074,6.764-6.418,6.817-8.868,0-1.7-1.012-3.063-3.409-3.063a7.457,7.457,0,0,0-4.474,1.758l-1.385-3.515a11.691,11.691,0,0,1,6.844-2.157,6.5,6.5,0,0,1,7.323,6.551c0,3.515-2.663,6.311-5.566,9l-1.917,1.6h7.989v4.021Z" transform="translate(318.349 71.345)" fill="#fff"/>
    <path id="Trazado_113148" data-name="Trazado 113148" d="M252.941,74.632v-4.98H243.7V66.483l7.989-12.7h5.965V66h2.5v3.648h-2.5v4.98Zm0-8.628V61.37a31.429,31.429,0,0,1,.16-3.888h0c-.692,1.358-1.225,2.663-1.944,3.888l-2.8,4.58h0Z" transform="translate(329.092 71.611)" fill="#fff"/>
    <path id="Trazado_113149" data-name="Trazado 113149" d="M250.31,76.625l6.871-23.275H260.4l-6.871,23.275Z" transform="translate(340.085 70.896)" fill="#fff"/>
    <path id="Trazado_113150" data-name="Trazado 113150" d="M269.4,53.78v3.063l-8.575,17.789h-5.14l8.575-16.777H254.7V53.86Z" transform="translate(347.386 71.611)" fill="#fff"/>
    <path id="Trazado_113151" data-name="Trazado 113151" d="M157,72.065c0,20.4,28.015,36.084,48.441,36.084a36.963,36.963,0,0,0,0-73.9C185.015,34.357,157,51.666,157,72.065Z" transform="translate(204.658 39.132)" fill="#aed3f2"/>
    <path id="Trazado_113152" data-name="Trazado 113152" d="M195.649,84.149,182.6,73.843l11-22.343Z" transform="translate(245.43 67.819)" fill="#aed3f2"/>
    <path id="Trazado_113157" data-name="Trazado 113157" d="M216,46.238l-2.8-.826,3.2-3.3,11.771,4.074Z" transform="translate(290.358 52.203)" fill="#f0c542"/>
    <path id="Trazado_113158" data-name="Trazado 113158" d="M214.16,49.255l12.41-4.634L214.48,43.05Z" transform="translate(291.911 53.766)" fill="#fad77e"/>
    <path id="Trazado_113159" data-name="Trazado 113159" d="M226.254,49.178l-11.9-3.222.905-5.646Z" transform="translate(292.218 49.21)" fill="#fad784"/>
    <path id="Trazado_113160" data-name="Trazado 113160" d="M213.2,43.849l2.876-.8L216,44.674Z" transform="translate(291.009 53.766)" fill="#dbab33"/>
    <path id="Trazado_113161" data-name="Trazado 113161" d="M234.689,65.38A11.291,11.291,0,0,1,223.4,76.7h0A11.318,11.318,0,0,1,212,65.38V54.728A11.318,11.318,0,0,1,223.318,43.41h0a11.318,11.318,0,0,1,11.291,11.318Z" transform="translate(288.168 54.365)" fill="#6595bf"/>
    <path id="Trazado_113162" data-name="Trazado 113162" d="M197.927,78.835c.959,22.1,13.315,39.626,27.722,39.12s25.192-18.828,24.26-40.931-13.4-39.653-27.722-39.014S196.968,56.652,197.927,78.835Z" transform="translate(265.822 45.357)" fill="#ffc190"/>
    <path id="Trazado_113163" data-name="Trazado 113163" d="M250.63,68s-13.848,2.264-37.682-6.738c0,0-18.322,17.5-6.285,44.9,0,0-17.549-15.978-8.895-43.594S224.4,40.011,234.065,36.6s20.665,2.663,27.8-3.782S271.4,51.275,250.63,68Z" transform="translate(261.054 35.022)" fill="#2e3b57"/>
    <path id="Trazado_113164" data-name="Trazado 113164" d="M196.112,60.3c.133,6.045,2.876,10.839,6.072,10.652s5.619-5.326,5.459-11.265-2.9-10.839-6.1-10.652S195.846,54.279,196.112,60.3Z" transform="translate(265.361 63.708)" fill="#ffc190"/>
    <path id="Trazado_113165" data-name="Trazado 113165" d="M246.2,69.77c-30.252,0-55.684,21.472-62.768,50.5H308.993C301.883,91.242,276.45,69.77,246.2,69.77Z" transform="translate(240.444 98.203)" fill="#c86277"/>
    <path id="Trazado_113166" data-name="Trazado 113166" d="M222.7,86.7l-9.267,11.025L204.17,86.7V65.85H222.7Z" transform="translate(276.886 91.684)" fill="#ffc190"/>
    <path id="Trazado_113167" data-name="Trazado 113167" d="M214.669,66.043a11.291,11.291,0,0,1-11.291,11.291h0A11.291,11.291,0,0,1,192.06,66.043V55.258A11.318,11.318,0,0,1,203.378,43.94h0a11.291,11.291,0,0,1,11.291,11.318Z" transform="translate(258.881 55.247)" fill="#6595bf"/>
    <path id="Trazado_113168" data-name="Trazado 113168" d="M232.269,33.41H214.533A19.707,19.707,0,0,0,194.8,53.117v12.17h5.646V55.141a15.819,15.819,0,0,1,15.978-15.819h14.221a15.819,15.819,0,0,1,15.818,15.819V65.287h5.672V53.117A19.707,19.707,0,0,0,232.269,33.41Z" transform="translate(261.049 37.734)" fill="#6595bf"/>
    <path id="Trazado_113169" data-name="Trazado 113169" d="M207.829,50.281s6.764-12.836,15.739-13.768,19.121,1.092,23.222-1.278,10.093-7.084,9.188,1.278,2.423,27.27-15.206,36.723c0,0-32.729-.613-38.8-11.93Z" transform="translate(271.696 34.978)" fill="#2e3b57"/>
    <path id="Trazado_113170" data-name="Trazado 113170" d="M221.467,63.848a3.968,3.968,0,0,1-3.968,3.968h-4.021a3.968,3.968,0,0,1-3.968-3.968h0a3.968,3.968,0,0,1,3.968-3.968h3.995a3.968,3.968,0,0,1,3.995,3.968Z" transform="translate(285.091 81.756)" fill="#6595bf"/>
    <path id="Trazado_113171" data-name="Trazado 113171" d="M219.629,75.894a72.273,72.273,0,0,1-7.989-.479l.586-5.326c6.391.719,13.315.426,14.7-.559a27.829,27.829,0,0,0,0-13.795l5.14-1.465a32.941,32.941,0,0,1,0,17.177C230.734,74.855,225.515,75.894,219.629,75.894Z" transform="translate(287.701 72.426)" fill="#6595bf"/>
  </g>
</svg>
