<svg xmlns="http://www.w3.org/2000/svg" width="368.6" height="274.651" viewBox="0 0 368.6 274.651">
  <g id="Customer_Survey-rafiki" data-name="Customer Survey-rafiki" transform="translate(0 -55)">
    <g id="freepik--background-complete--inject-69" transform="translate(0 55)">
      <rect id="Rectángulo_8362" data-name="Rectángulo 8362" width="368.6" height="0.184" transform="translate(0 241.359)" fill="#ebebeb"/>
      <rect id="Rectángulo_8363" data-name="Rectángulo 8363" width="24.416" height="0.184" transform="translate(307.25 253.221)" fill="#ebebeb"/>
      <rect id="Rectángulo_8364" data-name="Rectángulo 8364" width="6.406" height="0.184" transform="translate(237.769 255.226)" fill="#ebebeb"/>
      <rect id="Rectángulo_8365" data-name="Rectángulo 8365" width="14.147" height="0.184" transform="translate(292.366 246.38)" fill="#ebebeb"/>
      <rect id="Rectángulo_8366" data-name="Rectángulo 8366" width="31.84" height="0.184" transform="translate(38.674 247.618)" fill="#ebebeb"/>
      <rect id="Rectángulo_8367" data-name="Rectángulo 8367" width="4.666" height="0.184" transform="translate(77.082 247.618)" fill="#ebebeb"/>
      <rect id="Rectángulo_8368" data-name="Rectángulo 8368" width="69.061" height="0.184" transform="translate(96.92 250.729)" fill="#ebebeb"/>
      <path id="Trazado_107156" data-name="Trazado 107156" d="M184.758,263.48H42.412a4.209,4.209,0,0,1-4.2-4.209V59.173A4.209,4.209,0,0,1,42.412,55H184.758a4.209,4.209,0,0,1,4.209,4.209V259.271A4.209,4.209,0,0,1,184.758,263.48ZM42.412,55.147a4.025,4.025,0,0,0-4.018,4.025v200.1a4.025,4.025,0,0,0,4.018,4.025H184.758a4.033,4.033,0,0,0,4.025-4.025V59.173a4.032,4.032,0,0,0-4.025-4.025Z" transform="translate(-10.042 -55)" fill="#ebebeb"/>
      <path id="Trazado_107157" data-name="Trazado 107157" d="M401.063,263.48H258.709a4.217,4.217,0,0,1-4.209-4.209V59.173A4.217,4.217,0,0,1,258.709,55H401.063a4.209,4.209,0,0,1,4.195,4.173v200.1A4.209,4.209,0,0,1,401.063,263.48ZM258.709,55.147a4.032,4.032,0,0,0-4.025,4.025v200.1a4.033,4.033,0,0,0,4.025,4.025H401.063a4.033,4.033,0,0,0,4.025-4.025V59.173a4.032,4.032,0,0,0-4.025-4.025Z" transform="translate(-66.883 -55)" fill="#ebebeb"/>
      <rect id="Rectángulo_8369" data-name="Rectángulo 8369" width="25.876" height="96.374" transform="translate(223.283 241.359) rotate(180)" fill="#e6e6e6"/>
      <path id="Trazado_107158" data-name="Trazado 107158" d="M272.085,379.307H267.78V370.63H276.6Z" transform="translate(-70.373 -137.948)" fill="#f0f0f0"/>
      <rect id="Rectángulo_8370" data-name="Rectángulo 8370" width="25.876" height="96.374" transform="translate(328.6 241.359) rotate(180)" fill="#e6e6e6"/>
      <rect id="Rectángulo_8371" data-name="Rectángulo 8371" width="109.076" height="93.042" transform="translate(306.484 238.027) rotate(180)" fill="#f0f0f0"/>
      <rect id="Rectángulo_8372" data-name="Rectángulo 8372" width="102.39" height="25.514" transform="translate(303.144 174.621) rotate(180)" fill="#e6e6e6"/>
      <path id="Trazado_107159" data-name="Trazado 107159" d="M331.24,264.9h9.672c4.2,0,8.22-3.148,11.11-8.706H320.13C323.02,261.763,327.038,264.9,331.24,264.9Z" transform="translate(-84.13 -107.873)" fill="#f0f0f0"/>
      <path id="Trazado_107160" data-name="Trazado 107160" d="M408.289,379.307h4.305V370.63H403.77Z" transform="translate(-106.111 -137.948)" fill="#f0f0f0"/>
      <rect id="Rectángulo_8373" data-name="Rectángulo 8373" width="102.39" height="25.514" transform="translate(303.144 204.263) rotate(180)" fill="#e6e6e6"/>
      <path id="Trazado_107161" data-name="Trazado 107161" d="M331.24,305.116h9.672c4.2,0,8.22-3.148,11.11-8.706H320.13C323.02,302.005,327.038,305.116,331.24,305.116Z" transform="translate(-84.13 -118.443)" fill="#f0f0f0"/>
      <rect id="Rectángulo_8374" data-name="Rectángulo 8374" width="102.39" height="25.514" transform="translate(303.144 233.906) rotate(180)" fill="#e6e6e6"/>
      <path id="Trazado_107162" data-name="Trazado 107162" d="M331.24,345.326h9.672c4.2,0,8.22-3.148,11.11-8.706H320.13C323.02,342.178,327.038,345.326,331.24,345.326Z" transform="translate(-84.13 -129.01)" fill="#f0f0f0"/>
      <rect id="Rectángulo_8375" data-name="Rectángulo 8375" width="98.814" height="99.986" transform="translate(156.309 123.127) rotate(180)" fill="#e6e6e6"/>
      <rect id="Rectángulo_8376" data-name="Rectángulo 8376" width="103.857" height="99.986" transform="translate(154.488 123.127) rotate(180)" fill="#f0f0f0"/>
      <rect id="Rectángulo_8377" data-name="Rectángulo 8377" width="82.589" height="86.451" transform="translate(145.796 31.84) rotate(90)" fill="#fff"/>
      <path id="Trazado_107163" data-name="Trazado 107163" d="M130.53,112.914l-15.865,15.894a20.5,20.5,0,0,0,0,28.957l15.865,15.872a.833.833,0,0,0,1.18,0l15.872-15.872a20.5,20.5,0,0,0,0-28.957l-15.865-15.894a.848.848,0,0,0-1.187,0Zm-14.685,43.642a18.828,18.828,0,0,1,0-26.591Zm30.557,0V129.995a18.828,18.828,0,0,1,0,26.591Z" transform="translate(-28.561 -70.156)" fill="#f0f0f0"/>
      <path id="Trazado_107164" data-name="Trazado 107164" d="M386.047,205H330.838l-3.148,32.6H382.9Z" transform="translate(-86.117 -94.42)" fill="#e6e6e6"/>
      <path id="Trazado_107165" data-name="Trazado 107165" d="M382.817,249.22l-.221,1.806H327.38l.229-1.806Z" transform="translate(-86.035 -106.041)" fill="#e6e6e6"/>
      <path id="Trazado_107166" data-name="Trazado 107166" d="M383.744,205H328.535l-3.155,32.6h55.209Z" transform="translate(-85.51 -94.42)" fill="#f0f0f0"/>
      <path id="Trazado_107167" data-name="Trazado 107167" d="M380.164,236l2.307-28.264a.693.693,0,0,0-.686-.737H331.029a.693.693,0,0,0-.693.634L328,235.891a.693.693,0,0,0,.693.737h50.756a.686.686,0,0,0,.715-.627Z" transform="translate(-86.198 -94.946)" fill="#fff"/>
      <path id="Trazado_107168" data-name="Trazado 107168" d="M359.008,249.22l-.221,1.806h-60.8l.221-1.806Z" transform="translate(-78.312 -106.041)" fill="#f0f0f0"/>
      <rect id="Rectángulo_8378" data-name="Rectángulo 8378" width="103.672" height="68.921" transform="translate(310.155 93.153) rotate(180)" fill="#e6e6e6"/>
      <rect id="Rectángulo_8379" data-name="Rectángulo 8379" width="103.672" height="68.921" transform="translate(307.855 93.153) rotate(180)" fill="#f5f5f5"/>
      <rect id="Rectángulo_8380" data-name="Rectángulo 8380" width="59.625" height="95.401" transform="translate(303.719 28.883) rotate(90)" fill="#fff"/>
      <rect id="Rectángulo_8381" data-name="Rectángulo 8381" width="59.625" height="1.74" transform="translate(210.05 28.876) rotate(90)" fill="#e6e6e6"/>
      <rect id="Rectángulo_8382" data-name="Rectángulo 8382" width="100.252" height="6.237" transform="translate(306.145 80.598) rotate(180)" fill="#f5f5f5"/>
      <path id="Trazado_107169" data-name="Trazado 107169" d="M270.621,77.45h115a.641.641,0,0,1,.634.634h0a.634.634,0,0,1-.634.634h-115a.634.634,0,0,1-.641-.634h0a.641.641,0,0,1,.641-.634Z" transform="translate(-70.951 -60.9)" fill="#e6e6e6"/>
      <path id="Trazado_107170" data-name="Trazado 107170" d="M267.83,77.742a1.592,1.592,0,1,0,.469-1.129A1.592,1.592,0,0,0,267.83,77.742Z" transform="translate(-70.386 -60.558)" fill="#e6e6e6"/>
      <path id="Trazado_107171" data-name="Trazado 107171" d="M419.245,81.883h0a.863.863,0,0,0,.863-.848V79.193a.863.863,0,0,0-.863-.863h0a.855.855,0,0,0-.855.863v1.843a.862.862,0,0,0,.855.848Z" transform="translate(-109.953 -61.131)" fill="#e6e6e6"/>
      <path id="Trazado_107172" data-name="Trazado 107172" d="M283.555,81.883h0a.87.87,0,0,0,.833-.848V79.193a.863.863,0,0,0-.863-.863h0a.855.855,0,0,0-.855.863v1.843a.863.863,0,0,0,.885.848Z" transform="translate(-74.286 -61.131)" fill="#e6e6e6"/>
      <rect id="Rectángulo_8383" data-name="Rectángulo 8383" width="106.267" height="66.96" transform="translate(306.145 84.144) rotate(180)" fill="#e0e0e0" opacity="0.4"/>
      <path id="Trazado_107173" data-name="Trazado 107173" d="M403.51,77.742A1.592,1.592,0,1,0,405.1,76.15,1.592,1.592,0,0,0,403.51,77.742Z" transform="translate(-106.042 -60.558)" fill="#e6e6e6"/>
      <rect id="Rectángulo_8384" data-name="Rectángulo 8384" width="8.522" height="73.919" transform="translate(155.593 236.582) rotate(180)" fill="#f0f0f0"/>
      <rect id="Rectángulo_8385" data-name="Rectángulo 8385" width="97.694" height="4.681" transform="translate(152.32 241.264) rotate(180)" fill="#f0f0f0"/>
      <rect id="Rectángulo_8386" data-name="Rectángulo 8386" width="95.718" height="73.919" transform="translate(51.353 162.663)" fill="#f5f5f5"/>
      <rect id="Rectángulo_8387" data-name="Rectángulo 8387" width="82.316" height="24.239" rx="7.12" transform="translate(58.055 171.76)" fill="#f0f0f0"/>
      <rect id="Rectángulo_8388" data-name="Rectángulo 8388" width="82.316" height="24.239" rx="7.12" transform="translate(58.055 203.239)" fill="#f0f0f0"/>
      <path id="Trazado_107174" data-name="Trazado 107174" d="M109.8,305.5h35.666a1.666,1.666,0,0,0,1.666-1.659h0a1.673,1.673,0,0,0-1.666-1.666H109.8a1.673,1.673,0,0,0-1.666,1.666h0A1.666,1.666,0,0,0,109.8,305.5Z" transform="translate(-28.417 -119.959)" fill="#f5f5f5"/>
      <path id="Trazado_107175" data-name="Trazado 107175" d="M109.8,348.2h35.666a1.666,1.666,0,0,0,1.666-1.659h0a1.673,1.673,0,0,0-1.666-1.666H109.8a1.673,1.673,0,0,0-1.666,1.666h0A1.666,1.666,0,0,0,109.8,348.2Z" transform="translate(-28.417 -131.18)" fill="#f5f5f5"/>
    </g>
    <g id="freepik--Shadow--inject-69" transform="translate(41.364 312.961)">
      <ellipse id="freepik--path--inject-69" cx="142.936" cy="8.345" rx="142.936" ry="8.345" fill="#f5f5f5"/>
    </g>
    <g id="freepik--Survey--inject-69" transform="translate(79.654 80.492)">
      <path id="Trazado_107176" data-name="Trazado 107176" d="M244.285,101.45H108.05l10.586,185.531H254.863Z" transform="translate(-108.05 -92.699)" fill="#263238"/>
      <path id="Trazado_107177" data-name="Trazado 107177" d="M247.875,101.45H111.64l10.586,185.531H258.461Z" transform="translate(-108.993 -92.699)" fill="#6595bf"/>
      <path id="Trazado_107178" data-name="Trazado 107178" d="M240.711,109.91H120.09l8.647,167.942H252.491Z" transform="translate(-111.214 -94.923)" opacity="0.5"/>
      <path id="Trazado_107179" data-name="Trazado 107179" d="M120.09,109.91c8.964,55.983,2.816,111.966,11.8,167.942H255.624c-8.964-55.976-2.816-111.959-11.8-167.942Z" transform="translate(-111.214 -94.923)" fill="#fff"/>
      <g id="Grupo_59573" data-name="Grupo 59573" transform="translate(22.345 63.222)" opacity="0.3">
        <path id="Trazado_107180" data-name="Trazado 107180" d="M150.192,177.426a10.667,10.667,0,0,1,10.571,10.2,9.687,9.687,0,0,1-9.775,10.092,10.571,10.571,0,0,1-10.476-10.151,9.753,9.753,0,0,1,2.676-7.143,9.62,9.62,0,0,1,7-2.949m-.074-2.131a11.685,11.685,0,0,0-11.744,12.26,12.761,12.761,0,0,0,12.643,12.26A11.8,11.8,0,0,0,162.9,187.6,12.879,12.879,0,0,0,150.119,175.34Z" transform="translate(-138.361 -175.34)" fill="#d9a171"/>
      </g>
      <path id="Trazado_107181" data-name="Trazado 107181" d="M232.546,302.92H193.474a2.057,2.057,0,0,0-2.079,2.285h0a2.588,2.588,0,0,0,2.514,2.293h39.072a2.042,2.042,0,0,0,2.064-2.293h0a2.573,2.573,0,0,0-2.5-2.285Z" transform="translate(-129.95 -145.646)" fill="#e0e0e0"/>
      <path id="Trazado_107182" data-name="Trazado 107182" d="M253.152,289.87h-60.76a2.086,2.086,0,0,0-2.116,2.285h0a2.506,2.506,0,0,0,2.462,2.293h60.731a2.086,2.086,0,0,0,2.138-2.271h0a2.5,2.5,0,0,0-2.455-2.307Z" transform="translate(-129.657 -142.216)" fill="#e0e0e0"/>
      <g id="Grupo_59574" data-name="Grupo 59574" transform="translate(23.488 102.854)" opacity="0.3">
        <path id="Trazado_107183" data-name="Trazado 107183" d="M151.846,231.238a10.513,10.513,0,0,1,10.431,10.151,9.775,9.775,0,0,1-2.72,7.143,9.657,9.657,0,0,1-7.033,2.949,10.579,10.579,0,0,1-10.5-10.151,9.761,9.761,0,0,1,9.82-10.092m0-2.138h0a11.862,11.862,0,0,0-11.928,12.26,12.776,12.776,0,0,0,12.695,12.267,11.8,11.8,0,0,0,11.832-12.267A12.687,12.687,0,0,0,151.846,229.1Z" transform="translate(-139.911 -229.1)" fill="#d9a171"/>
      </g>
      <path id="Trazado_107184" data-name="Trazado 107184" d="M209.5,186.858H188.6a2.4,2.4,0,0,1-2.374-2.293h0a2.212,2.212,0,0,1,2.212-2.285h20.892a2.411,2.411,0,0,1,2.389,2.285h0a2.212,2.212,0,0,1-2.219,2.293Z" transform="translate(-128.595 -113.942)" fill="#e0e0e0"/>
      <path id="Trazado_107185" data-name="Trazado 107185" d="M244.625,186.858H230.471a2.4,2.4,0,0,1-2.381-2.293h0a2.212,2.212,0,0,1,2.212-2.285h14.162a2.4,2.4,0,0,1,2.381,2.285h0a2.212,2.212,0,0,1-2.219,2.293Z" transform="translate(-139.596 -113.942)" fill="#e0e0e0"/>
      <path id="Trazado_107186" data-name="Trazado 107186" d="M245.157,199.908h-56.1a2.381,2.381,0,0,1-2.366-2.293h0a2.212,2.212,0,0,1,2.212-2.285h56.094a2.374,2.374,0,0,1,2.359,2.285h0a2.212,2.212,0,0,1-2.2,2.293Z" transform="translate(-128.716 -117.371)" fill="#e0e0e0"/>
      <g id="Grupo_59575" data-name="Grupo 59575" transform="translate(25.494 142.491)" opacity="0.3">
        <path id="Trazado_107187" data-name="Trazado 107187" d="M154.16,285a11.176,11.176,0,0,1,10.911,10.159,9.326,9.326,0,0,1-2.293,7.136,9,9,0,0,1-6.826,2.949,11.382,11.382,0,0,1-11.132-10.151,9.2,9.2,0,0,1,2.4-7.143A9.333,9.333,0,0,1,154.16,285m-.1-2.13a11.205,11.205,0,0,0-11.375,12.26,13.775,13.775,0,0,0,13.476,12.26,10.98,10.98,0,0,0,11.058-12.26,13.447,13.447,0,0,0-13.152-12.26Z" transform="translate(-142.632 -282.867)" fill="#d9a171"/>
      </g>
      <path id="Trazado_107188" data-name="Trazado 107188" d="M255.135,249.13H190.4a2.212,2.212,0,0,0-2.212,2.285h0a2.389,2.389,0,0,0,2.366,2.285h64.763a2.212,2.212,0,0,0,2.212-2.285h0a2.374,2.374,0,0,0-2.4-2.285Z" transform="translate(-129.11 -131.51)" fill="#e0e0e0"/>
      <path id="Trazado_107189" data-name="Trazado 107189" d="M239.694,236.07H190.021a2.212,2.212,0,0,0-2.212,2.293h0a2.366,2.366,0,0,0,2.352,2.285h49.68a2.212,2.212,0,0,0,2.212-2.285h0a2.359,2.359,0,0,0-2.359-2.293Z" transform="translate(-129.01 -128.078)" fill="#e0e0e0"/>
      <path id="Trazado_107190" data-name="Trazado 107190" d="M153.029,195.652l-.87-1.43c-1.909-3.118-5.9-5.9-7.269-6.716l1.032-1.828a28.19,28.19,0,0,1,7.136,6.163c3.133-4.209,7.711-8.537,13.911-13.211l1.334,1.725c-6.635,4.991-11.338,9.584-14.353,13.955C153.648,194.76,153.338,195.21,153.029,195.652Z" transform="translate(-117.732 -112.982)" fill="#d9a171"/>
      <path id="Trazado_107191" data-name="Trazado 107191" d="M154.531,249.449c-.288-.479-.582-.958-.877-1.43-1.917-3.118-5.9-5.9-7.254-6.723l1.047-1.828a28.265,28.265,0,0,1,7.1,6.163c3.14-4.2,7.755-8.537,14.051-13.211l1.3,1.725c-6.723,4.991-11.456,9.584-14.456,13.955Z" transform="translate(-118.128 -127.118)" fill="#d9a171"/>
      <path id="Trazado_107192" data-name="Trazado 107192" d="M157.785,303.372l-.973-1.43c-2.123-3.118-6.237-5.9-7.652-6.716l.958-1.828a31,31,0,0,1,7.438,6.156c2.89-4.2,7.284-8.537,13.388-13.2l1.379,1.725c-6.517,4.991-10.992,9.584-13.712,13.955Z" transform="translate(-118.854 -141.291)" fill="#d9a171"/>
      <path id="Trazado_107193" data-name="Trazado 107193" d="M222.678,129q-1.946,4.246-3.988,8.485a18.246,18.246,0,0,1,10.055,14.8h9.8C237.894,142.27,231.451,133.549,222.678,129Z" transform="translate(-137.126 -99.94)" fill="#d9a171"/>
      <path id="Trazado_107194" data-name="Trazado 107194" d="M173.448,152.492h9.8a15.606,15.606,0,0,1,6.812-14.28q-2.86-4.246-5.809-8.493C177.1,134.35,172.822,142.835,173.448,152.492Z" transform="translate(-125.221 -100.129)" fill="#263238"/>
      <path id="Trazado_107195" data-name="Trazado 107195" d="M201.39,124.54a24.136,24.136,0,0,0-13.27,3.819q2.949,4.246,5.809,8.493a15.481,15.481,0,0,1,8.6-2.521,17.877,17.877,0,0,1,8.109,2q2.035-4.246,3.988-8.485a28.9,28.9,0,0,0-13.233-3.3Z" transform="translate(-129.092 -98.767)" fill="#d9a171"/>
      <path id="Trazado_107196" data-name="Trazado 107196" d="M201.39,124.54a24.136,24.136,0,0,0-13.27,3.819q2.949,4.246,5.809,8.493a15.481,15.481,0,0,1,8.6-2.521,17.877,17.877,0,0,1,8.109,2q2.035-4.246,3.988-8.485a28.9,28.9,0,0,0-13.233-3.3Z" transform="translate(-129.092 -98.767)" fill="#263238" opacity="0.5"/>
      <path id="Trazado_107197" data-name="Trazado 107197" d="M218.128,151.51s-9.893,4.047-10.94,4.784a2.352,2.352,0,0,0-.42,3.34,2.47,2.47,0,0,0,3.376.641C211.228,159.494,218.143,151.51,218.128,151.51Zm-10.395,7.372a1.157,1.157,0,0,1,.206-1.644,1.231,1.231,0,0,1,1.666.317,1.157,1.157,0,0,1-.206,1.644,1.231,1.231,0,0,1-1.666-.287Z" transform="translate(-133.858 -105.855)" fill="#263238"/>
      <path id="Trazado_107198" data-name="Trazado 107198" d="M235.782,143.922a3.14,3.14,0,0,1-3.185,3.48,3.87,3.87,0,0,1-3.774-3.48,3.118,3.118,0,0,1,3.155-3.472,3.892,3.892,0,0,1,3.8,3.472Z" transform="translate(-139.784 -102.948)" fill="#fff"/>
      <path id="Trazado_107199" data-name="Trazado 107199" d="M232.025,143.883a.5.5,0,0,1-.5.553.612.612,0,0,1-.6-.553.494.494,0,0,1,.5-.553.612.612,0,0,1,.6.553Z" transform="translate(-140.339 -103.705)" fill="#263238"/>
      <path id="Trazado_107200" data-name="Trazado 107200" d="M235.6,143.883a.5.5,0,0,1-.509.553.627.627,0,0,1-.6-.553.494.494,0,0,1,.509-.553A.612.612,0,0,1,235.6,143.883Z" transform="translate(-141.277 -103.705)" fill="#263238"/>
      <path id="Trazado_107201" data-name="Trazado 107201" d="M233.04,147.558h0a2.949,2.949,0,0,1-1.968-.774.273.273,0,0,1,0-.383.265.265,0,0,1,.383,0,2.4,2.4,0,0,0,1.6.634h0a1.961,1.961,0,0,0,1.474-.619.274.274,0,1,1,.4.376A2.492,2.492,0,0,1,233.04,147.558Z" transform="translate(-140.359 -104.491)" fill="#263238"/>
      <path id="Trazado_107202" data-name="Trazado 107202" d="M209.127,129.862a3.059,3.059,0,0,1-3.1,3.48,3.988,3.988,0,0,1-3.863-3.48,3.023,3.023,0,0,1,3.067-3.472,4.025,4.025,0,0,1,3.892,3.472Z" transform="translate(-132.775 -99.253)" fill="#fff"/>
      <path id="Trazado_107203" data-name="Trazado 107203" d="M205.344,129.8a.487.487,0,0,1-.487.553.641.641,0,0,1-.619-.553.479.479,0,0,1,.487-.553A.634.634,0,0,1,205.344,129.8Z" transform="translate(-133.327 -100.005)" fill="#263238"/>
      <path id="Trazado_107204" data-name="Trazado 107204" d="M208.912,129.8a.487.487,0,0,1-.494.553.649.649,0,0,1-.619-.553.487.487,0,0,1,.494-.553A.641.641,0,0,1,208.912,129.8Z" transform="translate(-134.263 -100.005)" fill="#263238"/>
      <path id="Trazado_107205" data-name="Trazado 107205" d="M208.1,132.8h-3.45a.28.28,0,0,1,0-.553h3.45a.28.28,0,0,1,0,.553Z" transform="translate(-133.374 -100.794)" fill="#263238"/>
      <path id="Trazado_107206" data-name="Trazado 107206" d="M185.382,143.922a3.14,3.14,0,0,1-3.185,3.48,3.87,3.87,0,0,1-3.774-3.48,3.118,3.118,0,0,1,3.155-3.472A3.9,3.9,0,0,1,185.382,143.922Z" transform="translate(-126.539 -102.948)" fill="#fff"/>
      <path id="Trazado_107207" data-name="Trazado 107207" d="M181.6,143.883a.5.5,0,0,1-.5.553.612.612,0,0,1-.6-.553.494.494,0,0,1,.5-.553A.612.612,0,0,1,181.6,143.883Z" transform="translate(-127.089 -103.705)" fill="#263238"/>
      <path id="Trazado_107208" data-name="Trazado 107208" d="M185.185,143.883a.494.494,0,0,1-.5.553.627.627,0,0,1-.6-.553.494.494,0,0,1,.5-.553.6.6,0,0,1,.6.553Z" transform="translate(-128.029 -103.705)" fill="#263238"/>
      <path id="Trazado_107209" data-name="Trazado 107209" d="M180.906,147.553a.258.258,0,0,1-.184-.074.273.273,0,0,1,0-.383,2.529,2.529,0,0,1,1.865-.8,2.949,2.949,0,0,1,1.968.781.265.265,0,0,1,0,.383.287.287,0,0,1-.391,0,2.359,2.359,0,0,0-1.607-.634,1.976,1.976,0,0,0-1.474.612A.287.287,0,0,1,180.906,147.553Z" transform="translate(-127.127 -104.486)" fill="#263238"/>
      <path id="Trazado_107210" data-name="Trazado 107210" d="M229.284,105.046A14.887,14.887,0,0,0,215.83,97h-11.8a4.6,4.6,0,0,1-4.091-2.138c-1.644-3.081-5.566-5.278-10.019-5.278s-8.109,2.212-9.407,5.278A4.036,4.036,0,0,1,176.67,97h-11.8c-5.787,0-10.793,3.207-12.532,8.05a1.194,1.194,0,0,0-.074.531,1.474,1.474,0,0,0,1.474,1.4h74.369a1.32,1.32,0,0,0,1.172-1.931ZM190.4,98.331a3.524,3.524,0,0,1-3.443-3.281,3.067,3.067,0,0,1,3.1-3.281,3.516,3.516,0,0,1,3.472,3.281,3.067,3.067,0,0,1-3.126,3.281Z" transform="translate(-119.669 -89.58)" fill="#263238"/>
    </g>
    <g id="freepik--Character--inject-69" transform="translate(204.861 97.669)">
      <path id="Trazado_107211" data-name="Trazado 107211" d="M359.8,408.645a2.359,2.359,0,0,1-1.637-.405.509.509,0,0,1-.052-.56.546.546,0,0,1,.376-.3c.87-.243,2.882.833,2.949.885a.125.125,0,0,1,.074.133.111.111,0,0,1-.088.1A9.523,9.523,0,0,1,359.8,408.645Zm-.973-1.047a.819.819,0,0,0-.243,0,.332.332,0,0,0-.236.177.355.355,0,0,0,0,.288c.295.346,1.666.354,2.654.214a6.377,6.377,0,0,0-2.175-.678Z" transform="translate(-298.955 -190.264)" fill="#d9a171"/>
      <path id="Trazado_107212" data-name="Trazado 107212" d="M361.858,408.039h-.052c-.686-.295-2.116-1.474-2.086-2.079,0-.147.088-.324.442-.361a1.047,1.047,0,0,1,.737.221,4.165,4.165,0,0,1,1.076,2.086.133.133,0,0,1,0,.118A.125.125,0,0,1,361.858,408.039Zm-1.57-2.212h-.074c-.229,0-.236.111-.236.14,0,.369.966,1.29,1.681,1.688a3.435,3.435,0,0,0-.907-1.666.737.737,0,0,0-.464-.147Z" transform="translate(-299.395 -189.805)" fill="#d9a171"/>
      <path id="Trazado_107213" data-name="Trazado 107213" d="M368.057,404.267h-5.418L360.7,391.72h5.418Z" transform="translate(-299.652 -186.159)" fill="#ffc3bd"/>
      <path id="Trazado_107214" data-name="Trazado 107214" d="M359.836,407.89h5.9a.546.546,0,0,1,.5.369l1.607,4.814a.737.737,0,0,1-.671.958c-2.138,0-5.234-.155-7.918-.155-3.133,0-2.853.17-6.532.17-2.212,0-3.089-2.248-2.212-2.455,4.136-.922,4.615-1.025,8.021-3.281a2.278,2.278,0,0,1,1.3-.42Z" transform="translate(-296.886 -190.409)" fill="#263238"/>
      <path id="Trazado_107215" data-name="Trazado 107215" d="M360.7,391.73l1,6.465h5.418l-1-6.465Z" transform="translate(-299.652 -186.162)" opacity="0.2"/>
      <path id="Trazado_107216" data-name="Trazado 107216" d="M368.526,225.45l-3.686,3.723,5.647,2s2.212-3.037.656-5.116Z" transform="translate(-300.74 -142.463)" fill="#ffc3bd"/>
      <path id="Trazado_107217" data-name="Trazado 107217" d="M363.16,235.7l5.64.826,1.261-4.032-5.647-2Z" transform="translate(-300.299 -143.791)" fill="#ffc3bd"/>
      <path id="Trazado_107218" data-name="Trazado 107218" d="M369.879,163.27c.479,1.032.863,1.909,1.246,2.868s.737,1.88,1.106,2.823c.7,1.895,1.327,3.826,1.909,5.78a61.044,61.044,0,0,1,1.474,6.008l.28,1.548.229,1.578c.081.523.133,1.069.177,1.607s.118,1.025.118,1.7v1.806l-.044.833-.081.789c-.1,1.062-.236,2.057-.369,3.067-.295,1.99-.634,3.937-1.01,5.9-.781,3.856-1.637,7.623-2.669,11.419l-6.716-1.327c.428-3.745.87-7.549,1.224-11.294.17-1.872.354-3.738.457-5.566.044-.9.1-1.814.1-2.676v-1.843l-.052-.487a11.052,11.052,0,0,0-.162-1.157c-.066-.413-.125-.826-.221-1.246l-.273-1.261-.317-1.268c-.457-1.7-.973-3.4-1.563-5.1s-1.246-3.4-1.939-5.079c-.339-.848-.693-1.688-1.062-2.514s-.737-1.688-1.1-2.4Z" transform="translate(-299.631 -126.122)" fill="#a66d58"/>
      <path id="Trazado_107219" data-name="Trazado 107219" d="M338.65,221.87s.9,41.46,3.332,57.973c2.536,17.177,11.8,72.459,11.8,72.459h9.171s-3.288-52.614-4.335-69.518c-1.143-18.43-.892-60.915-.892-60.915Z" transform="translate(-293.858 -141.523)" fill="#d9a171"/>
      <path id="Trazado_107220" data-name="Trazado 107220" d="M356.179,393.84c-.044,0,.944,3.811.944,3.811h11.161l-.081-3.4Z" transform="translate(-298.464 -186.716)" fill="#263238"/>
      <ellipse id="Elipse_4210" data-name="Elipse 4210" cx="0.833" cy="0.546" rx="0.833" ry="0.546" transform="matrix(0.061, -0.998, 0.998, 0.061, 41.586, 13.902)" fill="#263238"/>
      <path id="Trazado_107221" data-name="Trazado 107221" d="M334.71,131.78a17.1,17.1,0,0,1-2.33,3.922,2.6,2.6,0,0,0,2.175.413Z" transform="translate(-292.21 -117.847)" fill="#ed847e"/>
      <path id="Trazado_107222" data-name="Trazado 107222" d="M337.318,126.834a.317.317,0,0,1-.162-.044,2.079,2.079,0,0,0-1.895-.354.265.265,0,0,1-.346-.155.273.273,0,0,1,.17-.346,2.617,2.617,0,0,1,2.4.413.273.273,0,0,1,.052.376.28.28,0,0,1-.221.111Z" transform="translate(-292.872 -116.277)" fill="#263238"/>
      <path id="Trazado_107223" data-name="Trazado 107223" d="M350.752,137.52c-.914,3.966-1.946,11.228.737,13.867,0,0-1.224,4.018-8.588,4.018-8.109,0-3.723-4.018-3.723-4.018,4.423-1.054,4.46-4.327,3.8-7.409Z" transform="translate(-293.685 -119.355)" fill="#ffc3bd"/>
      <path id="Trazado_107224" data-name="Trazado 107224" d="M353.661,157.135c.8-1.614,1.673-3.472,0-4.047-1.828-.641-11.935-1.29-15.481-.1a3.686,3.686,0,0,0-2.661,4.482Z" transform="translate(-293.005 -123.246)" fill="#d9a171"/>
      <path id="Trazado_107225" data-name="Trazado 107225" d="M368.269,158.208c4.666,2.153,7.04,18.474,7.04,18.474l-9.4,2.949a95.459,95.459,0,0,1-4.077-13.27C360.388,159.55,363.492,156.012,368.269,158.208Z" transform="translate(-299.856 -124.622)" fill="#8d5f4e"/>
      <path id="Trazado_107226" data-name="Trazado 107226" d="M289.395,191.56l-4.335-3.73-3.9,5.676s3.5,2.809,7.372,1.659Z" transform="translate(-278.749 -132.577)" fill="#ffc3bd"/>
      <path id="Trazado_107227" data-name="Trazado 107227" d="M278.487,185.38l-.6,5.61,2.411,1.872,3.9-5.676Z" transform="translate(-277.89 -131.933)" fill="#ffc3bd"/>
      <path id="Trazado_107228" data-name="Trazado 107228" d="M350.834,126.378c-.546,5.632-.582,8.95-3.531,11.839a7.372,7.372,0,0,1-12.429-3.856c-1.032-5.057,0-13.417,5.625-15.658a7.438,7.438,0,0,1,10.336,7.674Z" transform="translate(-292.772 -114.251)" fill="#ffc3bd"/>
      <path id="Trazado_107229" data-name="Trazado 107229" d="M339.652,126.813c-.494-3.892-.413-5.367,1.666-6.229-2.16-.428-4.033-.487-4.924-1.747s-1.106-4.482,3.229-5.957c-.4.737.863,2.271,4.851.885s9.8-1.533,10.321,2.521c2.108-.737,5.64,5.772,1.474,10.527-3.472,3.981-5.787,6.731-6.473,8.846a.737.737,0,0,1-1.01.442c-1.438-.671-4.01-.1-5.16.214a.737.737,0,0,1-.84-.376C342.041,134.406,340.028,130.027,339.652,126.813Z" transform="translate(-293.127 -112.88)" fill="#263238"/>
      <path id="Trazado_107230" data-name="Trazado 107230" d="M360.48,117.713s1.71-2.411,4.991-.619a14.862,14.862,0,0,0-4.991.619Z" transform="translate(-299.595 -113.813)" fill="#263238"/>
      <path id="Trazado_107231" data-name="Trazado 107231" d="M360.86,117.354s2.381-1.474.523-4.254A10.712,10.712,0,0,1,360.86,117.354Z" transform="translate(-299.695 -112.938)" fill="#263238"/>
      <path id="Trazado_107232" data-name="Trazado 107232" d="M343.115,131.129a6.746,6.746,0,0,1-1.976,3.649c-1.364,1.29-2.543.376-2.58-1.283-.037-1.474.627-3.966,2.212-4.63S343.4,129.463,343.115,131.129Z" transform="translate(-293.834 -117.034)" fill="#ffc3bd"/>
      <path id="Trazado_107233" data-name="Trazado 107233" d="M339.68,253.12c.531,12.37,1.364,26.731,2.573,34.936.464,3.126,1.143,7.5,1.954,12.584C347.465,282.859,349.411,259.946,339.68,253.12Z" transform="translate(-294.128 -149.735)" opacity="0.3"/>
      <path id="Trazado_107234" data-name="Trazado 107234" d="M333.577,408.645c-.693,0-1.364-.1-1.578-.405a.5.5,0,0,1,0-.56.737.737,0,0,1,.42-.3c.907-.243,2.764.833,2.846.885a.111.111,0,0,1,.052.133.133.133,0,0,1-.1.1,9.9,9.9,0,0,1-1.637.147Zm-.818-1.047a.87.87,0,0,0-.251,0,.391.391,0,0,0-.258.177c-.1.162-.066.243-.037.288.243.346,1.607.354,2.624.214a5.611,5.611,0,0,0-2.079-.678Z" transform="translate(-292.087 -190.264)" fill="#d9a171"/>
      <path id="Trazado_107235" data-name="Trazado 107235" d="M335.745,408.038h-.052c-.641-.295-1.9-1.474-1.777-2.079,0-.147.133-.324.487-.361a.951.951,0,0,1,.737.221,3.421,3.421,0,0,1,.737,2.086.155.155,0,0,1-.059.118.141.141,0,0,1-.074.015Zm-1.246-2.212h-.074c-.236,0-.251.111-.258.14-.074.369.774,1.29,1.43,1.688a2.949,2.949,0,0,0-.656-1.666.678.678,0,0,0-.442-.147Z" transform="translate(-292.612 -189.804)" fill="#d9a171"/>
      <path id="Trazado_107236" data-name="Trazado 107236" d="M342.514,404.267H337.1L337,391.72h5.418Z" transform="translate(-293.424 -186.159)" fill="#ffc3bd"/>
      <path id="Trazado_107237" data-name="Trazado 107237" d="M332.486,407.89h5.9a.442.442,0,0,1,.442.369l.907,4.814a.818.818,0,0,1-.818.958c-2.131,0-5.212-.155-7.888-.155-3.141,0-5.853.17-9.532.17-2.212,0-2.757-2.248-1.821-2.455,4.268-.922,7.733-1.025,11.471-3.281a2.632,2.632,0,0,1,1.342-.42Z" transform="translate(-288.756 -190.409)" fill="#263238"/>
      <path id="Trazado_107238" data-name="Trazado 107238" d="M337.01,391.73l.044,6.465h5.418l-.044-6.465Z" transform="translate(-293.427 -186.162)" opacity="0.2"/>
      <path id="Trazado_107239" data-name="Trazado 107239" d="M324.767,221.87s-2.212,40.494-2.167,57.008c0,17.177,8.7,73.425,8.7,73.425h9.171s-2.389-55.246-1.356-72.1c1.1-18.43,6.421-58.32,6.421-58.32Z" transform="translate(-289.64 -141.523)" fill="#d9a171"/>
      <path id="Trazado_107240" data-name="Trazado 107240" d="M332.179,393.84c-.044,0,.376,3.811.376,3.811h11.161l.428-3.4Z" transform="translate(-292.156 -186.716)" fill="#263238"/>
      <path id="Trazado_107241" data-name="Trazado 107241" d="M326,157.771s-9.23,23.318-5.212,63.62h33.7c.354-4.423-3.17-42.949,1.858-63.9a74.726,74.726,0,0,0-9.657-1.224,107.109,107.109,0,0,0-12.311,0,55.172,55.172,0,0,0-8.382,1.5Z" transform="translate(-288.898 -124.236)" fill="#a66d58"/>
      <path id="Trazado_107242" data-name="Trazado 107242" d="M321.33,183.98c-.5,3.686-.914,7.9-1.18,12.532,6.546-6.016,8.787-21,8.787-21Z" transform="translate(-288.996 -129.339)" opacity="0.2"/>
      <path id="Trazado_107243" data-name="Trazado 107243" d="M321.083,172.195c-1.327,3.45-2.669,6.775-4.143,10.114s-3,6.635-4.718,9.937l-.671,1.231-.339.619c-.14.251-.125.265-.509.907a7.21,7.21,0,0,1-2.661,2.477,7.933,7.933,0,0,1-2.882.87,12.134,12.134,0,0,1-4.128-.332A22.855,22.855,0,0,1,297.905,197a40.656,40.656,0,0,1-5.286-2.654c-.833-.479-1.629-1-2.418-1.474s-1.5-1.091-2.352-1.681l3.981-6.1a51.8,51.8,0,0,0,8.957,3.885,13.52,13.52,0,0,0,2.013.457,2.831,2.831,0,0,0,1.18,0c.044,0-.1-.044-.339.081a1.983,1.983,0,0,0-.737.649c-.155.258.044-.125.111-.273l.265-.582.531-1.157c1.4-3.126,2.7-6.362,3.959-9.584s2.484-6.583,3.612-9.834Z" transform="translate(-280.508 -127.557)" fill="#a66d58"/>
      <path id="Trazado_107244" data-name="Trazado 107244" d="M331.582,160.694c1.725,4.821-10.483,24.232-10.483,24.232l-7.239-7.173s1.85-6.1,4.291-13.439C320.554,157.1,329.938,156.086,331.582,160.694Z" transform="translate(-287.343 -124.711)" fill="#8d5f4e"/>
    </g>
  </g>
</svg>
