<svg xmlns="http://www.w3.org/2000/svg" width="482.6" height="272.147" viewBox="0 0 482.6 272.147">
  <g id="Cash_Payment-rafiki" data-name="Cash Payment-rafiki" transform="translate(0 -95.804)">
    <g id="freepik--background-complete--inject-50" transform="translate(0 102.628)">
      <rect id="Rectángulo_8572" data-name="Rectángulo 8572" width="482.6" height="0.21" transform="translate(0 227.388)" fill="#ebebeb"/>
      <rect id="Rectángulo_8573" data-name="Rectángulo 8573" width="27.821" height="0.21" transform="translate(412.695 240.904)" fill="#ebebeb"/>
      <rect id="Rectángulo_8574" data-name="Rectángulo 8574" width="7.3" height="0.21" transform="translate(312.02 243.188)" fill="#ebebeb"/>
      <rect id="Rectángulo_8575" data-name="Rectángulo 8575" width="16.12" height="0.21" transform="translate(384.771 233.108)" fill="#ebebeb"/>
      <rect id="Rectángulo_8576" data-name="Rectángulo 8576" width="36.28" height="0.21" transform="translate(44.066 234.52)" fill="#ebebeb"/>
      <rect id="Rectángulo_8577" data-name="Rectángulo 8577" width="5.317" height="0.21" transform="translate(101.089 234.52)" fill="#ebebeb"/>
      <rect id="Rectángulo_8578" data-name="Rectángulo 8578" width="78.691" height="0.21" transform="translate(130.69 238.064)" fill="#ebebeb"/>
      <rect id="Rectángulo_8579" data-name="Rectángulo 8579" width="88.603" height="227.312" transform="translate(351.913)" fill="#ebebeb"/>
      <rect id="Rectángulo_8580" data-name="Rectángulo 8580" width="15.607" height="227.312" transform="translate(424.909)" fill="#f5f5f5"/>
      <rect id="Rectángulo_8581" data-name="Rectángulo 8581" width="12.155" height="22.218" transform="translate(342.285 9.568)" fill="#e6e6e6"/>
      <rect id="Rectángulo_8582" data-name="Rectángulo 8582" width="12.155" height="22.218" transform="translate(359.696 9.568)" fill="#e6e6e6"/>
      <rect id="Rectángulo_8583" data-name="Rectángulo 8583" width="12.155" height="22.218" transform="translate(377.108 9.568)" fill="#e6e6e6"/>
      <rect id="Rectángulo_8584" data-name="Rectángulo 8584" width="12.155" height="22.218" transform="translate(404.623 9.568)" fill="#e6e6e6"/>
      <rect id="Rectángulo_8585" data-name="Rectángulo 8585" width="12.155" height="22.218" transform="translate(342.285 38.279)" fill="#e6e6e6"/>
      <rect id="Rectángulo_8586" data-name="Rectángulo 8586" width="12.155" height="22.218" transform="translate(359.696 38.279)" fill="#e6e6e6"/>
      <rect id="Rectángulo_8587" data-name="Rectángulo 8587" width="12.155" height="22.218" transform="translate(377.108 38.279)" fill="#e6e6e6"/>
      <rect id="Rectángulo_8588" data-name="Rectángulo 8588" width="12.155" height="22.218" transform="translate(404.623 38.279)" fill="#e6e6e6"/>
      <rect id="Rectángulo_8589" data-name="Rectángulo 8589" width="12.155" height="22.218" transform="translate(342.285 66.99)" fill="#e6e6e6"/>
      <rect id="Rectángulo_8590" data-name="Rectángulo 8590" width="12.155" height="22.218" transform="translate(359.696 66.99)" fill="#e6e6e6"/>
      <rect id="Rectángulo_8591" data-name="Rectángulo 8591" width="12.155" height="22.218" transform="translate(377.108 66.99)" fill="#e6e6e6"/>
      <rect id="Rectángulo_8592" data-name="Rectángulo 8592" width="12.155" height="22.218" transform="translate(404.623 66.99)" fill="#e6e6e6"/>
      <rect id="Rectángulo_8593" data-name="Rectángulo 8593" width="12.155" height="22.218" transform="translate(342.285 95.71)" fill="#e6e6e6"/>
      <rect id="Rectángulo_8594" data-name="Rectángulo 8594" width="12.155" height="22.218" transform="translate(359.696 95.71)" fill="#e6e6e6"/>
      <rect id="Rectángulo_8595" data-name="Rectángulo 8595" width="12.155" height="22.218" transform="translate(377.108 95.71)" fill="#e6e6e6"/>
      <rect id="Rectángulo_8596" data-name="Rectángulo 8596" width="12.155" height="22.218" transform="translate(404.623 95.71)" fill="#e6e6e6"/>
      <rect id="Rectángulo_8597" data-name="Rectángulo 8597" width="12.155" height="22.218" transform="translate(342.285 124.421)" fill="#e6e6e6"/>
      <rect id="Rectángulo_8598" data-name="Rectángulo 8598" width="12.155" height="22.218" transform="translate(359.696 124.421)" fill="#e6e6e6"/>
      <rect id="Rectángulo_8599" data-name="Rectángulo 8599" width="12.155" height="22.218" transform="translate(377.108 124.421)" fill="#e6e6e6"/>
      <rect id="Rectángulo_8600" data-name="Rectángulo 8600" width="12.155" height="22.218" transform="translate(404.623 124.421)" fill="#e6e6e6"/>
      <rect id="Rectángulo_8601" data-name="Rectángulo 8601" width="12.155" height="22.218" transform="translate(342.285 153.132)" fill="#e6e6e6"/>
      <rect id="Rectángulo_8602" data-name="Rectángulo 8602" width="12.155" height="22.218" transform="translate(359.696 153.132)" fill="#e6e6e6"/>
      <rect id="Rectángulo_8603" data-name="Rectángulo 8603" width="12.155" height="22.218" transform="translate(377.108 153.132)" fill="#e6e6e6"/>
      <rect id="Rectángulo_8604" data-name="Rectángulo 8604" width="12.155" height="22.218" transform="translate(404.623 153.132)" fill="#e6e6e6"/>
      <rect id="Rectángulo_8605" data-name="Rectángulo 8605" width="141.162" height="188" transform="translate(125.086 38.48)" fill="#f0f0f0"/>
      <rect id="Rectángulo_8606" data-name="Rectángulo 8606" width="112.543" height="25.452" transform="translate(126.561 43.193)" fill="#e6e6e6"/>
      <rect id="Rectángulo_8607" data-name="Rectángulo 8607" width="112.543" height="25.452" transform="translate(126.561 73.66)" fill="#e6e6e6"/>
      <rect id="Rectángulo_8608" data-name="Rectángulo 8608" width="112.543" height="25.452" transform="translate(126.561 104.118)" fill="#e6e6e6"/>
      <rect id="Rectángulo_8609" data-name="Rectángulo 8609" width="112.543" height="25.452" transform="translate(126.561 134.585)" fill="#e6e6e6"/>
      <rect id="Rectángulo_8610" data-name="Rectángulo 8610" width="112.543" height="25.452" transform="translate(126.561 165.052)" fill="#e6e6e6"/>
      <rect id="Rectángulo_8611" data-name="Rectángulo 8611" width="112.543" height="25.452" transform="translate(126.561 195.518)" fill="#e6e6e6"/>
      <rect id="Rectángulo_8612" data-name="Rectángulo 8612" width="19.841" height="188" transform="translate(258.433 38.48)" fill="#f5f5f5"/>
      <rect id="Rectángulo_8613" data-name="Rectángulo 8613" width="12.146" height="16.934" transform="translate(132.714 51.71)" fill="#ebebeb"/>
      <rect id="Rectángulo_8614" data-name="Rectángulo 8614" width="12.146" height="16.934" transform="translate(151.347 51.71)" fill="#ebebeb"/>
      <rect id="Rectángulo_8615" data-name="Rectángulo 8615" width="12.146" height="16.934" transform="translate(169.989 51.71)" fill="#ebebeb"/>
      <rect id="Rectángulo_8616" data-name="Rectángulo 8616" width="12.146" height="16.934" transform="translate(188.621 51.71)" fill="#ebebeb"/>
      <rect id="Rectángulo_8617" data-name="Rectángulo 8617" width="12.146" height="16.934" transform="translate(207.264 51.71)" fill="#ebebeb"/>
      <rect id="Rectángulo_8618" data-name="Rectángulo 8618" width="12.146" height="16.934" transform="translate(225.906 51.71)" fill="#ebebeb"/>
      <rect id="Rectángulo_8619" data-name="Rectángulo 8619" width="12.146" height="16.934" transform="translate(132.143 82.118)" fill="#ebebeb"/>
      <rect id="Rectángulo_8620" data-name="Rectángulo 8620" width="12.146" height="16.934" transform="translate(150.775 82.118)" fill="#ebebeb"/>
      <rect id="Rectángulo_8621" data-name="Rectángulo 8621" width="12.146" height="16.934" transform="translate(169.417 82.118)" fill="#ebebeb"/>
      <rect id="Rectángulo_8622" data-name="Rectángulo 8622" width="12.146" height="16.934" transform="translate(188.059 82.118)" fill="#ebebeb"/>
      <rect id="Rectángulo_8623" data-name="Rectángulo 8623" width="12.146" height="16.934" transform="translate(206.692 82.118)" fill="#ebebeb"/>
      <rect id="Rectángulo_8624" data-name="Rectángulo 8624" width="12.146" height="16.934" transform="translate(225.334 82.118)" fill="#ebebeb"/>
      <rect id="Rectángulo_8625" data-name="Rectángulo 8625" width="12.146" height="16.934" transform="translate(131.571 112.526)" fill="#ebebeb"/>
      <rect id="Rectángulo_8626" data-name="Rectángulo 8626" width="12.146" height="16.934" transform="translate(150.213 112.526)" fill="#ebebeb"/>
      <rect id="Rectángulo_8627" data-name="Rectángulo 8627" width="12.146" height="16.934" transform="translate(168.846 112.526)" fill="#ebebeb"/>
      <rect id="Rectángulo_8628" data-name="Rectángulo 8628" width="12.146" height="16.934" transform="translate(187.488 112.526)" fill="#ebebeb"/>
      <rect id="Rectángulo_8629" data-name="Rectángulo 8629" width="12.146" height="16.934" transform="translate(206.13 112.526)" fill="#ebebeb"/>
      <rect id="Rectángulo_8630" data-name="Rectángulo 8630" width="12.146" height="16.934" transform="translate(224.762 112.526)" fill="#ebebeb"/>
      <rect id="Rectángulo_8631" data-name="Rectángulo 8631" width="12.146" height="16.934" transform="translate(130.999 142.934)" fill="#ebebeb"/>
      <rect id="Rectángulo_8632" data-name="Rectángulo 8632" width="12.146" height="16.934" transform="translate(149.641 142.934)" fill="#ebebeb"/>
      <rect id="Rectángulo_8633" data-name="Rectángulo 8633" width="12.146" height="16.934" transform="translate(168.284 142.934)" fill="#ebebeb"/>
      <rect id="Rectángulo_8634" data-name="Rectángulo 8634" width="12.146" height="16.934" transform="translate(186.916 142.934)" fill="#ebebeb"/>
      <rect id="Rectángulo_8635" data-name="Rectángulo 8635" width="12.146" height="16.934" transform="translate(205.558 142.934)" fill="#ebebeb"/>
      <rect id="Rectángulo_8636" data-name="Rectángulo 8636" width="12.146" height="16.934" transform="translate(224.191 142.934)" fill="#ebebeb"/>
      <rect id="Rectángulo_8637" data-name="Rectángulo 8637" width="12.146" height="16.934" transform="translate(130.437 173.342)" fill="#ebebeb"/>
      <rect id="Rectángulo_8638" data-name="Rectángulo 8638" width="12.146" height="16.934" transform="translate(149.07 173.342)" fill="#ebebeb"/>
      <rect id="Rectángulo_8639" data-name="Rectángulo 8639" width="12.146" height="16.934" transform="translate(167.712 173.342)" fill="#ebebeb"/>
      <rect id="Rectángulo_8640" data-name="Rectángulo 8640" width="12.146" height="16.934" transform="translate(186.354 173.342)" fill="#ebebeb"/>
      <rect id="Rectángulo_8641" data-name="Rectángulo 8641" width="12.146" height="16.934" transform="translate(204.987 173.342)" fill="#ebebeb"/>
      <rect id="Rectángulo_8642" data-name="Rectángulo 8642" width="12.146" height="16.934" transform="translate(223.629 173.342)" fill="#ebebeb"/>
      <rect id="Rectángulo_8643" data-name="Rectángulo 8643" width="12.146" height="16.934" transform="translate(129.866 203.75)" fill="#ebebeb"/>
      <rect id="Rectángulo_8644" data-name="Rectángulo 8644" width="12.146" height="16.934" transform="translate(148.508 203.75)" fill="#ebebeb"/>
      <rect id="Rectángulo_8645" data-name="Rectángulo 8645" width="12.146" height="16.934" transform="translate(167.14 203.75)" fill="#ebebeb"/>
      <rect id="Rectángulo_8646" data-name="Rectángulo 8646" width="12.146" height="16.934" transform="translate(185.782 203.75)" fill="#ebebeb"/>
      <rect id="Rectángulo_8647" data-name="Rectángulo 8647" width="12.146" height="16.934" transform="translate(204.415 203.75)" fill="#ebebeb"/>
      <rect id="Rectángulo_8648" data-name="Rectángulo 8648" width="12.146" height="16.934" transform="translate(223.057 203.75)" fill="#ebebeb"/>
      <rect id="Rectángulo_8649" data-name="Rectángulo 8649" width="141.162" height="194.662" transform="translate(44.066 31.819)" fill="#f0f0f0"/>
      <rect id="Rectángulo_8650" data-name="Rectángulo 8650" width="112.543" height="26.351" transform="translate(47.065 36.7)" fill="#e6e6e6"/>
      <rect id="Rectángulo_8651" data-name="Rectángulo 8651" width="112.543" height="26.351" transform="translate(47.065 68.242)" fill="#e6e6e6"/>
      <rect id="Rectángulo_8652" data-name="Rectángulo 8652" width="112.543" height="26.351" transform="translate(47.065 99.784)" fill="#e6e6e6"/>
      <rect id="Rectángulo_8653" data-name="Rectángulo 8653" width="112.543" height="26.351" transform="translate(47.065 131.334)" fill="#e6e6e6"/>
      <rect id="Rectángulo_8654" data-name="Rectángulo 8654" width="112.543" height="26.351" transform="translate(47.065 162.876)" fill="#e6e6e6"/>
      <rect id="Rectángulo_8655" data-name="Rectángulo 8655" width="112.543" height="26.351" transform="translate(47.065 194.418)" fill="#e6e6e6"/>
      <rect id="Rectángulo_8656" data-name="Rectángulo 8656" width="19.841" height="194.662" transform="translate(191.261 31.819)" fill="#f5f5f5"/>
      <rect id="Rectángulo_8657" data-name="Rectángulo 8657" width="12.146" height="17.531" transform="translate(56.969 45.52)" fill="#ebebeb"/>
      <rect id="Rectángulo_8658" data-name="Rectángulo 8658" width="12.146" height="17.531" transform="translate(84.345 45.52)" fill="#ebebeb"/>
      <rect id="Rectángulo_8659" data-name="Rectángulo 8659" width="12.146" height="17.531" transform="translate(102.987 45.52)" fill="#ebebeb"/>
      <rect id="Rectángulo_8660" data-name="Rectángulo 8660" width="12.146" height="17.531" transform="translate(121.62 45.52)" fill="#ebebeb"/>
      <rect id="Rectángulo_8661" data-name="Rectángulo 8661" width="12.146" height="17.531" transform="translate(140.262 45.52)" fill="#ebebeb"/>
      <rect id="Rectángulo_8662" data-name="Rectángulo 8662" width="12.146" height="17.531" transform="translate(158.904 45.52)" fill="#ebebeb"/>
      <rect id="Rectángulo_8663" data-name="Rectángulo 8663" width="12.146" height="17.531" transform="translate(56.473 77.003)" fill="#ebebeb"/>
      <rect id="Rectángulo_8664" data-name="Rectángulo 8664" width="12.146" height="17.531" transform="translate(83.783 77.003)" fill="#ebebeb"/>
      <rect id="Rectángulo_8665" data-name="Rectángulo 8665" width="12.146" height="17.531" transform="translate(102.416 77.003)" fill="#ebebeb"/>
      <rect id="Rectángulo_8666" data-name="Rectángulo 8666" width="12.146" height="17.531" transform="translate(121.058 77.003)" fill="#ebebeb"/>
      <rect id="Rectángulo_8667" data-name="Rectángulo 8667" width="12.146" height="17.531" transform="translate(139.69 77.003)" fill="#ebebeb"/>
      <rect id="Rectángulo_8668" data-name="Rectángulo 8668" width="12.146" height="17.531" transform="translate(158.333 77.003)" fill="#ebebeb"/>
      <rect id="Rectángulo_8669" data-name="Rectángulo 8669" width="12.146" height="17.531" transform="translate(55.978 108.486)" fill="#ebebeb"/>
      <rect id="Rectángulo_8670" data-name="Rectángulo 8670" width="12.146" height="17.531" transform="translate(83.212 108.486)" fill="#ebebeb"/>
      <rect id="Rectángulo_8671" data-name="Rectángulo 8671" width="12.146" height="17.531" transform="translate(101.844 108.486)" fill="#ebebeb"/>
      <rect id="Rectángulo_8672" data-name="Rectángulo 8672" width="12.146" height="17.531" transform="translate(120.486 108.486)" fill="#ebebeb"/>
      <rect id="Rectángulo_8673" data-name="Rectángulo 8673" width="12.146" height="17.531" transform="translate(139.128 108.486)" fill="#ebebeb"/>
      <rect id="Rectángulo_8674" data-name="Rectángulo 8674" width="12.146" height="17.531" transform="translate(157.761 108.486)" fill="#ebebeb"/>
      <rect id="Rectángulo_8675" data-name="Rectángulo 8675" width="12.146" height="17.531" transform="translate(55.49 139.978)" fill="#ebebeb"/>
      <rect id="Rectángulo_8676" data-name="Rectángulo 8676" width="12.146" height="17.531" transform="translate(86.901 139.978)" fill="#ebebeb"/>
      <rect id="Rectángulo_8677" data-name="Rectángulo 8677" width="12.146" height="17.531" transform="translate(101.282 139.978)" fill="#ebebeb"/>
      <rect id="Rectángulo_8678" data-name="Rectángulo 8678" width="12.146" height="17.531" transform="translate(119.915 139.978)" fill="#ebebeb"/>
      <rect id="Rectángulo_8679" data-name="Rectángulo 8679" width="12.146" height="17.531" transform="translate(138.557 139.978)" fill="#ebebeb"/>
      <rect id="Rectángulo_8680" data-name="Rectángulo 8680" width="12.146" height="17.531" transform="translate(157.199 139.978)" fill="#ebebeb"/>
      <rect id="Rectángulo_8681" data-name="Rectángulo 8681" width="12.146" height="17.531" transform="translate(54.995 171.461)" fill="#ebebeb"/>
      <rect id="Rectángulo_8682" data-name="Rectángulo 8682" width="12.146" height="17.531" transform="translate(86.3 171.461)" fill="#ebebeb"/>
      <rect id="Rectángulo_8683" data-name="Rectángulo 8683" width="12.146" height="17.531" transform="translate(100.71 171.461)" fill="#ebebeb"/>
      <rect id="Rectángulo_8684" data-name="Rectángulo 8684" width="12.146" height="17.531" transform="translate(119.353 171.461)" fill="#ebebeb"/>
      <rect id="Rectángulo_8685" data-name="Rectángulo 8685" width="12.146" height="17.531" transform="translate(137.985 171.461)" fill="#ebebeb"/>
      <rect id="Rectángulo_8686" data-name="Rectángulo 8686" width="12.146" height="17.531" transform="translate(156.627 171.461)" fill="#ebebeb"/>
      <rect id="Rectángulo_8687" data-name="Rectángulo 8687" width="12.146" height="17.531" transform="translate(54.499 202.952)" fill="#ebebeb"/>
      <rect id="Rectángulo_8688" data-name="Rectángulo 8688" width="12.146" height="17.531" transform="translate(85.709 202.952)" fill="#ebebeb"/>
      <rect id="Rectángulo_8689" data-name="Rectángulo 8689" width="12.146" height="17.531" transform="translate(100.139 202.952)" fill="#ebebeb"/>
      <rect id="Rectángulo_8690" data-name="Rectángulo 8690" width="12.146" height="17.531" transform="translate(118.781 202.952)" fill="#ebebeb"/>
      <rect id="Rectángulo_8691" data-name="Rectángulo 8691" width="12.146" height="17.531" transform="translate(137.423 202.952)" fill="#ebebeb"/>
      <rect id="Rectángulo_8692" data-name="Rectángulo 8692" width="12.146" height="17.531" transform="translate(156.056 202.952)" fill="#ebebeb"/>
    </g>
    <g id="freepik--Shadow--inject-50" transform="translate(47.132 348.933)">
      <ellipse id="freepik--path--inject-50" cx="194.168" cy="9.509" rx="194.168" ry="9.509" fill="#f5f5f5"/>
    </g>
    <g id="freepik--character-2--inject-50" transform="translate(192.533 95.804)">
      <path id="Trazado_112175" data-name="Trazado 112175" d="M249.164,231.927H194.85V191.54H229l3.1,16.758,17.06,6.922Z" transform="translate(-181.494 -117.65)" fill="#263238"/>
      <path id="Trazado_112176" data-name="Trazado 112176" d="M249.164,231.927H194.85V191.54H229l3.1,16.758,17.06,6.922Z" transform="translate(-181.494 -117.65)" fill="#fff" opacity="0.1"/>
      <path id="Trazado_112177" data-name="Trazado 112177" d="M223.644,231.927H192.85V191.54h10.634l3.1,16.758,17.06,6.922Z" transform="translate(-181.174 -117.65)" fill="#fff" opacity="0.1"/>
      <path id="Trazado_112178" data-name="Trazado 112178" d="M230.358,199.764l-.916-4.964H209.82l.916,4.964Z" transform="translate(-183.889 -118.172)" opacity="0.2"/>
      <path id="Trazado_112179" data-name="Trazado 112179" d="M211.4,203.35l.655,3.545h19.622l-.655-3.545Z" transform="translate(-184.142 -119.54)" opacity="0.2"/>
      <path id="Trazado_112180" data-name="Trazado 112180" d="M209.2,211.49h25.2l17.06,6.922h-25.2Z" transform="translate(-183.79 -120.842)" fill="#fff" opacity="0.3"/>
      <g id="freepik--group--inject-50" transform="translate(56.611)">
        <path id="Trazado_112181" data-name="Trazado 112181" d="M304.255,155.719c5.309,2.7,3.788,15.725-9.786,40.034l-9.3-7.56a137.5,137.5,0,0,1,8.534-21.974C299.206,155.249,304.255,155.719,304.255,155.719Z" transform="translate(-252.557 -111.918)" fill="#d9a171"/>
        <path id="Trazado_112182" data-name="Trazado 112182" d="M304.255,155.719c5.309,2.7,3.788,15.725-9.786,40.034l-9.3-7.56a137.5,137.5,0,0,1,8.534-21.974C299.206,155.249,304.255,155.719,304.255,155.719Z" transform="translate(-252.557 -111.918)" fill="#fff" opacity="0.4"/>
        <path id="Trazado_112183" data-name="Trazado 112183" d="M353.537,225.38h-36.12c-3.436,18.774-14.2,85.193-6.476,144.371l12.214-1.52s-1.134-78.565,9.677-107.6c1.243,15.54,2.713,32.08,4,40.883,3.125,21.655,9.845,69,9.845,69h12.457s-2.52-45.31-3.73-66.6C354.142,280.795,353.587,230.1,353.537,225.38Z" transform="translate(-256.243 -123.064)" fill="#263238"/>
        <path id="Trazado_112184" data-name="Trazado 112184" d="M304.67,155.045c3.738-.84,23.453-5.258,39.362-4.637,0,0,5.116,52.424,9.912,73.735l-41.605,7.291s-9.341-52.164-8.324-75.6A.84.84,0,0,1,304.67,155.045Z" transform="translate(-255.559 -111.059)" fill="#d9a171"/>
        <path id="Trazado_112185" data-name="Trazado 112185" d="M304.67,155.045c3.738-.84,23.453-5.258,39.362-4.637,0,0,5.116,52.424,9.912,73.735l-41.605,7.291s-9.341-52.164-8.324-75.6A.84.84,0,0,1,304.67,155.045Z" transform="translate(-255.559 -111.059)" fill="#fff" opacity="0.6"/>
        <path id="Trazado_112186" data-name="Trazado 112186" d="M340.341,149.58s-4.763,20.026,8.257,37.036l3.217,21.361,3.738,17.69-20.7,5.46-7.417-16.607-.748,18.337-16.472,2.4-1.789-21s-2.848-16.582-3.578-25.687c0,0-2.47-21.1,1.378-34.558l5.418-1.168s.3,12.86,8.534,23.176c0,0,7.812-20.588,14.9-26.418Z" transform="translate(-255.581 -110.936)" fill="#6595bf"/>
        <path id="Trazado_112188" data-name="Trazado 112188" d="M280.73,185.359s-2.47,6.762-4.36,6.98-14.179-20.4-14.179-20.4-1.411-4.091-3.738-5.2-9.24-5.04-11.021-4.15-.84,7.694-.84,9.24c0,1.361,5.88,3.36,7.644,3.7a5.947,5.947,0,0,0,3.41-.3s9.853,24.259,16.246,28.51,16.019-10.206,16.019-10.206Z" transform="translate(-246.344 -112.998)" fill="#ebb376"/>
        <path id="Trazado_112189" data-name="Trazado 112189" d="M283.27,193.553l1.747-1.4,10.626,8.988-1.705,3.049Z" transform="translate(-252.252 -117.748)" fill="#d9a171"/>
        <path id="Trazado_112190" data-name="Trazado 112190" d="M283.27,193.553l1.747-1.4,10.626,8.988-1.705,3.049Z" transform="translate(-252.252 -117.748)" fill="#fff" opacity="0.3"/>
        <path id="Trazado_112191" data-name="Trazado 112191" d="M322.831,406.632l-7.022.739-1.319-15.154,7.022-.748Z" transform="translate(-257.248 -149.639)" fill="#ebb376"/>
        <path id="Trazado_112192" data-name="Trazado 112192" d="M364.775,405.905h-6.812L357.4,390.13h6.812Z" transform="translate(-264.113 -149.424)" fill="#ebb376"/>
        <path id="Trazado_112193" data-name="Trazado 112193" d="M354.532,408h8.274a.613.613,0,0,1,.588.47l1.336,6.065a1,1,0,0,1-.773,1.193.959.959,0,0,1-.218,0c-2.68-.042-4.628-.2-7.988-.2-2.075,0-8.316.21-11.18.21s-3.226-2.822-2.058-3.083c5.25-1.142,9.2-2.73,10.878-4.2A1.68,1.68,0,0,1,354.532,408Z" transform="translate(-261.632 -152.284)" fill="#263238"/>
        <path id="Trazado_112194" data-name="Trazado 112194" d="M353.945,409.074a2.041,2.041,0,0,1-1.3-.353.949.949,0,0,1-.344-.84.487.487,0,0,1,.277-.445c.756-.395,2.957.958,3.2,1.117a.143.143,0,0,1,.076.151.176.176,0,0,1-.118.143,9.182,9.182,0,0,1-1.789.227Zm-1.008-1.42a.428.428,0,0,0-.21.05c-.042,0-.1.059-.109.185a.68.68,0,0,0,.218.58,3.284,3.284,0,0,0,2.428.126A6.72,6.72,0,0,0,352.937,407.655Z" transform="translate(-263.296 -152.182)" fill="#d9a171"/>
        <path id="Trazado_112195" data-name="Trazado 112195" d="M355.956,408.533h-.084c-.7-.386-2.058-1.882-1.924-2.6a.529.529,0,0,1,.521-.42.89.89,0,0,1,.689.2c.79.647.949,2.6.958,2.7a.177.177,0,0,1-.076.151.143.143,0,0,1-.084-.025Zm-1.369-2.764H354.5c-.2,0-.218.118-.235.16-.084.445.781,1.579,1.487,2.108a3.88,3.88,0,0,0-.84-2.134A.563.563,0,0,0,354.587,405.769Z" transform="translate(-263.56 -151.884)" fill="#d9a171"/>
        <path id="Trazado_112196" data-name="Trazado 112196" d="M312.758,407.71h8.257a.613.613,0,0,1,.58.47l1.344,6.065a1.008,1.008,0,0,1-.773,1.193h-.218c-2.68-.05-4.628-.21-7.988-.21-2.075,0-8.324.218-11.18.218s-3.234-2.831-2.058-3.091c5.25-1.142,9.2-2.73,10.878-4.2A1.68,1.68,0,0,1,312.758,407.71Z" transform="translate(-254.945 -152.237)" fill="#263238"/>
        <path id="Trazado_112197" data-name="Trazado 112197" d="M312.176,408.816a2.075,2.075,0,0,1-1.31-.344.991.991,0,0,1-.336-.84.479.479,0,0,1,.277-.445c.756-.395,2.957.958,3.2,1.117a.151.151,0,0,1,.076.151.168.168,0,0,1-.126.143,7.919,7.919,0,0,1-1.781.218Zm-1.016-1.411a.336.336,0,0,0-.2.042c-.05,0-.1.059-.109.193a.7.7,0,0,0,.218.58,3.36,3.36,0,0,0,2.428.118,6.721,6.721,0,0,0-2.335-.932Z" transform="translate(-256.613 -152.142)" fill="#d9a171"/>
        <path id="Trazado_112198" data-name="Trazado 112198" d="M314.177,408.273H314.1c-.706-.378-2.058-1.882-1.924-2.6a.529.529,0,0,1,.521-.42.84.84,0,0,1,.68.21c.79.638.958,2.6.966,2.688a.193.193,0,0,1-.076.151A.168.168,0,0,1,314.177,408.273Zm-1.369-2.764h-.076c-.21,0-.227.118-.235.16-.084.445.781,1.579,1.487,2.108a3.881,3.881,0,0,0-.84-2.134.588.588,0,0,0-.336-.134Z" transform="translate(-256.876 -151.842)" fill="#d9a171"/>
        <path id="Trazado_112199" data-name="Trazado 112199" d="M321.512,391.47l-7.022.748.68,7.82,7.031-.748Z" transform="translate(-257.248 -149.639)" opacity="0.2"/>
        <path id="Trazado_112200" data-name="Trazado 112200" d="M364.212,390.14H357.4l.294,8.131h6.821Z" transform="translate(-264.113 -149.426)" opacity="0.2"/>
        <path id="Trazado_112201" data-name="Trazado 112201" d="M309.555,399.411,324.7,397.16l-.462-4.2-15.758,2.075Z" transform="translate(-256.286 -149.877)" fill="#d9a171"/>
        <path id="Trazado_112202" data-name="Trazado 112202" d="M309.555,399.411,324.7,397.16l-.462-4.2-15.758,2.075Z" transform="translate(-256.286 -149.877)" fill="#fff" opacity="0.6"/>
        <path id="Trazado_112203" data-name="Trazado 112203" d="M352.134,397.379h14.692v-4.393L351.58,392.7Z" transform="translate(-263.182 -149.836)" fill="#d9a171"/>
        <path id="Trazado_112204" data-name="Trazado 112204" d="M352.134,397.379h14.692v-4.393L351.58,392.7Z" transform="translate(-263.182 -149.836)" fill="#fff" opacity="0.6"/>
        <path id="Trazado_112205" data-name="Trazado 112205" d="M336.7,264.9a96.771,96.771,0,0,0-4.032,15.674c-1.016-13.835,3.032-28.5,3.032-28.5Z" transform="translate(-260.13 -127.335)" opacity="0.2"/>
        <path id="Trazado_112206" data-name="Trazado 112206" d="M332.934,147.684c-2.621,3.629-10.811,4.2-10.811,4.2s-5.25-.311-4.536-2.083c2.822-1.1,3.948-2.764,4.2-4.637a8.626,8.626,0,0,0-.412-3.4,16.655,16.655,0,0,0-.638-1.814l8.291-9.358C328.726,135.7,329.02,144.87,332.934,147.684Z" transform="translate(-257.733 -107.898)" fill="#ebb376"/>
        <path id="Trazado_112207" data-name="Trazado 112207" d="M328.429,136.7c.84,5.981-3.646,8.635-5.947,9.467a8.627,8.627,0,0,0-.412-3.4Z" transform="translate(-258.461 -108.876)" opacity="0.2"/>
        <path id="Trazado_112208" data-name="Trazado 112208" d="M309.736,114.056s-2.05,9.24,2.68,13.213,5.88-13.5,5.88-13.5Z" transform="translate(-256.416 -105.207)" fill="#263238"/>
        <path id="Trazado_112209" data-name="Trazado 112209" d="M326.4,135.388a8.526,8.526,0,0,1-9.988,2.638,9.484,9.484,0,0,1-5.1-4.763,7.778,7.778,0,0,1-.395-.932c-2.058-5.88-2.159-15.96,4.141-19.32A9.24,9.24,0,0,1,328.67,120.9C328.964,127.66,329.451,131.617,326.4,135.388Z" transform="translate(-256.476 -104.909)" fill="#ebb376"/>
        <path id="Trazado_112210" data-name="Trazado 112210" d="M320.142,125.934c.092.538-.185,1.016-.546,1.058s-.689-.386-.748-.932.193-1.016.546-1.05S320.083,125.379,320.142,125.934Z" transform="translate(-257.944 -107.005)" fill="#263238"/>
        <path id="Trazado_112211" data-name="Trazado 112211" d="M312.75,126.684c.092.538-.193,1.016-.554,1.058s-.689-.386-.748-.924.193-1.025.546-1.058S312.75,126.171,312.75,126.684Z" transform="translate(-256.76 -107.125)" fill="#263238"/>
        <path id="Trazado_112212" data-name="Trazado 112212" d="M315,126.94a20.034,20.034,0,0,1-2.134,4.948,3.167,3.167,0,0,0,2.671.218Z" transform="translate(-256.988 -107.314)" fill="#d58745"/>
        <path id="Trazado_112213" data-name="Trazado 112213" d="M321.893,123.2a.361.361,0,0,1-.328-.092,2.579,2.579,0,0,0-2.159-.84.328.328,0,0,1-.109-.638h0a3.217,3.217,0,0,1,2.738,1.058.319.319,0,0,1,0,.454h0a.429.429,0,0,1-.143.059Z" transform="translate(-257.981 -106.461)" fill="#263238"/>
        <path id="Trazado_112214" data-name="Trazado 112214" d="M309.543,124.183a.311.311,0,0,1-.193,0,.319.319,0,0,1-.193-.412h0a3.192,3.192,0,0,1,2.125-2.033.319.319,0,0,1,.386.235h0a.328.328,0,0,1-.244.386h0a2.587,2.587,0,0,0-1.68,1.68A.353.353,0,0,1,309.543,124.183Z" transform="translate(-256.391 -106.48)" fill="#263238"/>
        <path id="Trazado_112215" data-name="Trazado 112215" d="M325.372,113.27l-.2,2.99a2.218,2.218,0,0,1,1.26,2.73c-.84,2.52.84,6.342,2.806,7.787,0,0,0-1.092.924-.84s.983,5.88-.655,8.644c0,0,2.562-2.579,3.763-8.576,1.117-5.544,1.042-10.08-.2-12.172Z" transform="translate(-258.956 -105.127)" fill="#263238"/>
        <path id="Trazado_112216" data-name="Trazado 112216" d="M335.206,128.06a6.392,6.392,0,0,1-3.36,3.6c-2.05.932-3.419-.84-3.133-2.94.26-1.873,1.63-4.679,3.83-4.7A2.879,2.879,0,0,1,335.206,128.06Z" transform="translate(-259.517 -106.847)" fill="#ebb376"/>
        <path id="Trazado_112217" data-name="Trazado 112217" d="M322.52,114.709a19.715,19.715,0,0,0-6.854.672,11.205,11.205,0,0,1-5.972.244s-2.99-6.048.966-9.71,10.576-2.234,12.718-.991-2.209,1.033-2.209,1.033,7.006,1.3,10.038,3.965,2.3,7.048,1.68,7.787-1.176-.89-1.176-.89a8.039,8.039,0,0,1-4.2.84C324.9,117.624,325.99,115.314,322.52,114.709Z" transform="translate(-256.307 -103.576)" fill="#263238"/>
        <path id="Trazado_112218" data-name="Trazado 112218" d="M316.53,135.32a17.644,17.644,0,0,1,1.21,2.327,3.85,3.85,0,0,0,.445-.118c2.033-.521,2.8-1.436,3.032-2.293a2.729,2.729,0,0,0,0-1.277,2.521,2.521,0,0,0-.244-.689,9.971,9.971,0,0,1-3.763,1.856Z" transform="translate(-257.574 -108.327)" fill="#263238"/>
        <path id="Trazado_112219" data-name="Trazado 112219" d="M317.35,135.126l.378.68c1.907-.5,3.184-1.117,3.629-1.848a2.519,2.519,0,0,0-.244-.689,9.97,9.97,0,0,1-3.763,1.856Z" transform="translate(-257.705 -108.327)" fill="#fff"/>
        <path id="Trazado_112220" data-name="Trazado 112220" d="M318.5,137.9c2.033-.521,2.8-1.436,3.032-2.293a6.669,6.669,0,0,0-2.134,1.033,2.52,2.52,0,0,0-.9,1.26Z" transform="translate(-257.889 -108.701)" fill="#de5753"/>
        <path id="Trazado_112221" data-name="Trazado 112221" d="M330.691,147.77a22.823,22.823,0,0,1-7.787,6.367,10.08,10.08,0,0,1-1.915-4.318,17.575,17.575,0,0,0-4.469,3.041,12.231,12.231,0,0,0,1.982,5.494l4.259-3.049,5.166,3.772s6.787-4.385,8.308-8.887Z" transform="translate(-257.572 -110.647)" fill="#d9a171"/>
        <path id="Trazado_112222" data-name="Trazado 112222" d="M330.691,147.77a22.823,22.823,0,0,1-7.787,6.367,10.08,10.08,0,0,1-1.915-4.318,17.575,17.575,0,0,0-4.469,3.041,12.231,12.231,0,0,0,1.982,5.494l4.259-3.049,5.166,3.772s6.787-4.385,8.308-8.887Z" transform="translate(-257.572 -110.647)" fill="#fff" opacity="0.4"/>
        <path id="Trazado_112223" data-name="Trazado 112223" d="M268.671,188.425c-5.729-.42-4.981,4.318-3.956,7.711l4.452,10.08,9.055-.328S274.4,188.837,268.671,188.425Zm-.412,11.81c-1.327-2.184-5.158-8.988-1.084-10.156s8.887,7.9,7.728,11.382-4.015,3.1-6.644-1.226Z" transform="translate(-249.17 -117.147)" fill="#d9a171"/>
        <path id="Trazado_112224" data-name="Trazado 112224" d="M268.671,188.425c-5.729-.42-4.981,4.318-3.956,7.711l4.452,10.08,9.055-.328S274.4,188.837,268.671,188.425Zm-.412,11.81c-1.327-2.184-5.158-8.988-1.084-10.156s8.887,7.9,7.728,11.382-4.015,3.1-6.644-1.226Z" transform="translate(-249.17 -117.147)" fill="#fff" opacity="0.5"/>
        <path id="Trazado_112225" data-name="Trazado 112225" d="M267.58,206.908,270.4,196.45l13.709,3.469-3.5,17.287Z" transform="translate(-249.742 -118.436)" fill="#d9a171"/>
        <path id="Trazado_112226" data-name="Trazado 112226" d="M285.146,214.091l-3.326-20.924,8.308-3.746,6.544,3.746.689,21.924Z" transform="translate(-252.02 -117.311)" fill="#d9a171"/>
        <path id="Trazado_112227" data-name="Trazado 112227" d="M285.146,214.091l-3.326-20.924,8.308-3.746,6.544,3.746.689,21.924Z" transform="translate(-252.02 -117.311)" opacity="0.2"/>
        <path id="Trazado_112228" data-name="Trazado 112228" d="M292.9,205.728s4.57-28.56,7.9-29.492,6.392,3.494,6.392,3.494-2.831,18.606-4.906,25.2S292.9,205.728,292.9,205.728Z" transform="translate(-253.793 -115.181)" fill="#d9a171"/>
        <path id="Trazado_112229" data-name="Trazado 112229" d="M292.9,205.728s4.57-28.56,7.9-29.492,6.392,3.494,6.392,3.494-2.831,18.606-4.906,25.2S292.9,205.728,292.9,205.728Z" transform="translate(-253.793 -115.181)" fill="#fff" opacity="0.8"/>
        <path id="Trazado_112230" data-name="Trazado 112230" d="M297.986,209.255c0-4.2,5.544-15.96-1.352-17.119s-12.382,11.357-20.16,11.332-13.289-6.72-13.289-6.72l1.193,2.478s-14.994,29.341-7.846,32.256c6.653,2.7,43.991,0,43.991,0C305.983,227.735,297.986,213.463,297.986,209.255Zm-.84-4.343c-.84.21-4.813-4.091-4.813-4.091-.336-7.8,3.906-8.324,5.981-6.082s-.328,9.971-1.159,10.172Z" transform="translate(-247.665 -117.733)" fill="#d9a171"/>
        <path id="Trazado_112231" data-name="Trazado 112231" d="M297.986,209.255c0-4.2,5.544-15.96-1.352-17.119s-12.382,11.357-20.16,11.332-13.289-6.72-13.289-6.72l1.193,2.478s-14.994,29.341-7.846,32.256c6.653,2.7,43.991,0,43.991,0C305.983,227.735,297.986,213.463,297.986,209.255Zm-.84-4.343c-.84.21-4.813-4.091-4.813-4.091-.336-7.8,3.906-8.324,5.981-6.082s-.328,9.971-1.159,10.172Z" transform="translate(-247.665 -117.733)" fill="#fff" opacity="0.7"/>
        <rect id="Rectángulo_8697" data-name="Rectángulo 8697" width="8.467" height="5.796" transform="matrix(0.994, -0.107, 0.107, 0.994, 100.662, 75.307)" fill="#fff" opacity="0.6"/>
        <path id="Trazado_112232" data-name="Trazado 112232" d="M333.7,180.113l.84,2.78a.739.739,0,0,0,.84.521h0a.756.756,0,0,0,.63-.638l.445-3.226Z" transform="translate(-260.321 -115.732)" fill="#d9a171"/>
        <path id="Trazado_112233" data-name="Trazado 112233" d="M333.7,180.113l.84,2.78a.739.739,0,0,0,.84.521h0a.756.756,0,0,0,.63-.638l.445-3.226Z" transform="translate(-260.321 -115.732)" opacity="0.4"/>
        <path id="Trazado_112234" data-name="Trazado 112234" d="M330.719,189.66s-3.125,9.383-4.469,11.424-35.994,11-35.994,11-2.906-1.478-4.738-1.319-8.971,1.823-9.139,3.15,3.662,7.308,4.57,7.8,10.08-.882,11.054-3.268c0,0,35.389-6.35,38.716-7.686s10.458-17.119,10.458-17.119Z" transform="translate(-251.149 -117.349)" fill="#ebb376"/>
        <path id="Trazado_112235" data-name="Trazado 112235" d="M349.324,150.419c5.359.361,10.038,11.9,9.122,21.21s-9.475,25.2-9.475,25.2l-11.962-5.88s2.99-10.643,6.4-20.723S345.276,150.142,349.324,150.419Z" transform="translate(-260.851 -111.07)" fill="#d9a171"/>
        <path id="Trazado_112236" data-name="Trazado 112236" d="M349.324,150.419c5.359.361,10.038,11.9,9.122,21.21s-9.475,25.2-9.475,25.2l-11.962-5.88s2.99-10.643,6.4-20.723S345.276,150.142,349.324,150.419Z" transform="translate(-260.851 -111.07)" fill="#fff" opacity="0.4"/>
        <path id="Trazado_112237" data-name="Trazado 112237" d="M335.31,199.55l1.327-1.94,13.969,4.721-.722,3.469Z" transform="translate(-260.579 -118.621)" fill="#d9a171"/>
        <path id="Trazado_112238" data-name="Trazado 112238" d="M335.31,199.55l1.327-1.94,13.969,4.721-.722,3.469Z" transform="translate(-260.579 -118.621)" fill="#fff" opacity="0.3"/>
      </g>
      <path id="Trazado_112239" data-name="Trazado 112239" d="M203.714,222.07h24.578a1.5,1.5,0,0,1,1.5,1.5V237.4H202.21V223.565a1.5,1.5,0,0,1,1.5-1.5Z" transform="translate(-182.672 -122.535)" fill="#d9a171"/>
      <path id="Trazado_112240" data-name="Trazado 112240" d="M229.754,223.565v13.826H202.21V223.565a1.5,1.5,0,0,1,1.5-1.5h24.587a1.5,1.5,0,0,1,1.462,1.5Z" transform="translate(-182.672 -122.535)" fill="#fff" opacity="0.3"/>
      <path id="Trazado_112241" data-name="Trazado 112241" d="M223.034,223.565v13.826H202.21V223.565a1.5,1.5,0,0,1,1.5-1.5h17.867a1.5,1.5,0,0,1,1.462,1.5Z" transform="translate(-182.672 -122.535)" fill="#fff" opacity="0.4"/>
      <rect id="Rectángulo_8698" data-name="Rectángulo 8698" width="192.293" height="144.472" transform="translate(2.024 118.973)" fill="#5e6178"/>
      <rect id="Rectángulo_8699" data-name="Rectángulo 8699" width="192.293" height="144.472" transform="translate(2.462 121.615)" fill="#fff" opacity="0.3"/>
      <path id="Trazado_112305" data-name="Trazado 112305" d="M0,0H142.4V144.472H0Z" transform="translate(2.024 118.973)" fill="#fff" opacity="0.4"/>
      <rect id="Rectángulo_8701" data-name="Rectángulo 8701" width="197.098" height="8.358" rx="1.56" transform="translate(0 113.656)" fill="#5e6178"/>
      <rect id="Rectángulo_8702" data-name="Rectángulo 8702" width="146.698" height="8.358" rx="1.56" transform="translate(0 113.656)" fill="#fff" opacity="0.2"/>
    </g>
    <g id="freepik--trash-bin--inject-50" transform="translate(397.886 312.569)">
      <path id="Trazado_112242" data-name="Trazado 112242" d="M436.886,390.544a2.52,2.52,0,0,0-2.008-3.587,5.343,5.343,0,0,0-1.68-5.88,1.234,1.234,0,0,0-.731-.328,1.478,1.478,0,0,0-.8.344l-4.679,3.36a2.78,2.78,0,0,0-.932.916c-.958,1.856,2.52,4.2,1.075,5.762-.4.437-1.058.529-1.571.84-1.117.7-1.252,2.226-1.764,3.436s-2.335,2.142-3.024,1.025c.512-1.159-1.042-2.15-2.293-2.3s-2.57-.218-3.268-1.394c-1.789,1.554-5.779-2.789-5.687-4.544a3.436,3.436,0,0,0-2.789,2.856,20.506,20.506,0,0,0-.151,4.368c-.042,2.848-.958,5.628-.907,8.467,0,2.209.89,4.662,2.915,5.552a7.561,7.561,0,0,0,3.133.42l23.041-.143a3.628,3.628,0,0,0,1.621-.269c1.042-.546,1.26-1.915,1.361-3.083l1.235-15.011Z" transform="translate(-400.194 -364.689)" fill="#d9a171"/>
      <path id="Trazado_112243" data-name="Trazado 112243" d="M436.886,390.544a2.52,2.52,0,0,0-2.008-3.587,5.343,5.343,0,0,0-1.68-5.88,1.234,1.234,0,0,0-.731-.328,1.478,1.478,0,0,0-.8.344l-4.679,3.36a2.78,2.78,0,0,0-.932.916c-.958,1.856,2.52,4.2,1.075,5.762-.4.437-1.058.529-1.571.84-1.117.7-1.252,2.226-1.764,3.436s-2.335,2.142-3.024,1.025c.512-1.159-1.042-2.15-2.293-2.3s-2.57-.218-3.268-1.394c-1.789,1.554-5.779-2.789-5.687-4.544a3.436,3.436,0,0,0-2.789,2.856,20.506,20.506,0,0,0-.151,4.368c-.042,2.848-.958,5.628-.907,8.467,0,2.209.89,4.662,2.915,5.552a7.561,7.561,0,0,0,3.133.42l23.041-.143a3.628,3.628,0,0,0,1.621-.269c1.042-.546,1.26-1.915,1.361-3.083l1.235-15.011Z" transform="translate(-400.194 -364.689)" fill="#fff" opacity="0.3"/>
      <path id="Trazado_112244" data-name="Trazado 112244" d="M437.62,363.42H401.87l.294,3.612.21,2.579.546,6.72.311,3.856.412,5.132.176,2.2.059.655.21,2.587.286,3.545.176,2.2.185,2.234.21,2.587.16,1.957.176,2.2.076.958h32.81l.076-.958.176-2.192.16-1.974.21-2.587.185-2.226.176-2.2.286-3.553.21-2.579.05-.655.176-2.2.42-5.132.311-3.847.538-6.72.21-2.579.294-3.612Zm2.15,2.369h0l-.689-.689h.748Zm-.176,2.192-.067.84-3.2,3.2-3.671-3.671,3.284-3.284h.773Zm-.924,11.441-2.344,2.344-3.671-3.671,3.671-3.662,2.52,2.52Zm-34.02-2.453h0l2.52-2.52,3.671,3.662-3.671,3.671-2.335-2.344Zm30.492-3.73-3.671,3.671L427.8,373.24l3.671-3.671Zm-5.771-8.14h4.2l-2.1,2.1Zm.907,12.995-3.662,3.671-3.637-3.671,3.671-3.662ZM418.09,382.95l3.671-3.662,3.662,3.662-3.662,3.637Zm2.478,4.855-3.671,3.671-3.662-3.662,3.671-3.671Zm6.048-3.662,3.662,3.671-3.662,3.662-3.637-3.671Zm-4.855-7.232-3.671-3.671,3.671-3.671,3.662,3.671Zm-1.193,1.184-3.662,3.671-3.671-3.671,3.671-3.662Zm-8.509-1.184L408.4,373.24l3.662-3.671,3.671,3.671Zm0,2.377,3.671,3.662-3.671,3.637-3.662-3.671Zm3.671,13.381-3.671,3.662-3.662-3.662L412.059,389Zm1.184,1.184,3.671,3.671-3.662,3.671-3.688-3.688Zm1.193-1.184L421.778,389l3.662,3.671-3.662,3.662Zm8.526,1.184,3.662,3.671-3.662,3.671-3.654-3.688Zm4.855,4.855,3.671,3.671-2.377,2.377h-2.587l-2.377-2.377Zm-3.671-6.04L431.488,389l3.671,3.671-3.671,3.662Zm0-9.719,3.671-3.662,3.671,3.662-3.688,3.637Zm2.478-14.566-3.662,3.671-3.654-3.671,3.284-3.284h.773Zm-8.518-1.184-2.1-2.1h4.2Zm-1.193,1.184-3.662,3.671-3.671-3.671,3.284-3.284h.773Zm-6.426-3.284-2.1,2.1-2.092-2.1Zm-6.569,0,3.284,3.284-3.671,3.671-3.192-3.2-.067-.84,2.873-2.881Zm-3.142,0-.68.68h0l-.059-.68Zm-.227,6.342,1.8,1.8-1.52,1.529Zm1,12.306-.143-1.739h0l.941.941-.84.8Zm.176,2.209,1.806-1.814,3.671,3.671-3.671,3.662L405.726,390Zm.546,6.787v-.16l.084.084-.076.076Zm.638,7.82-.462-5.628,1.084-1.084,3.671,3.671-3.671,3.662-.622-.622Zm.336,4.2-.067-.84.353-.353,1.193,1.193Zm1.478-2.377,3.662-3.671,3.671,3.671-2.377,2.377h-2.587Zm7.333,2.377,1.193-1.193,1.193,1.193Zm4.754,0-2.377-2.377,3.671-3.671,3.662,3.671-2.369,2.377Zm4.956,0,1.193-1.193,1.193,1.193Zm11.189,0h-1.478l1.193-1.193.353.353Zm.344-4.2-.63.622-3.688-3.679,3.671-3.671,1.084,1.084Zm.647-7.988v.168l-.076-.076.092-.092Zm.21-2.579-1.487,1.478-3.671-3.662,3.671-3.671,1.814,1.814Zm.5-6.241-.84-.84.949-.941Zm.983-12.289-.269,3.36-1.537-1.537,1.806-1.806Z" transform="translate(-399.585 -361.916)" fill="#d9a171"/>
      <g id="Grupo_59777" data-name="Grupo 59777" transform="translate(2.285 1.504)" opacity="0.6">
        <path id="Trazado_112245" data-name="Trazado 112245" d="M437.62,363.42H401.87l.294,3.612.21,2.579.546,6.72.311,3.856.412,5.132.176,2.2.059.655.21,2.587.286,3.545.176,2.2.185,2.234.21,2.587.16,1.957.176,2.2.076.958h32.81l.076-.958.176-2.192.16-1.974.21-2.587.185-2.226.176-2.2.286-3.553.21-2.579.05-.655.176-2.2.42-5.132.311-3.847.538-6.72.21-2.579.294-3.612Zm2.15,2.369h0l-.689-.689h.748Zm-.176,2.192-.067.84-3.2,3.2-3.671-3.671,3.284-3.284h.773Zm-.924,11.441-2.344,2.344-3.671-3.671,3.671-3.662,2.52,2.52Zm-34.02-2.453h0l2.52-2.52,3.671,3.662-3.671,3.671-2.335-2.344Zm30.492-3.73-3.671,3.671L427.8,373.24l3.671-3.671Zm-5.771-8.14h4.2l-2.1,2.1Zm.907,12.995-3.662,3.671-3.637-3.671,3.671-3.662ZM418.09,382.95l3.671-3.662,3.662,3.662-3.662,3.637Zm2.478,4.855-3.671,3.671-3.662-3.662,3.671-3.671Zm6.048-3.662,3.662,3.671-3.662,3.662-3.637-3.671Zm-4.855-7.232-3.671-3.671,3.671-3.671,3.662,3.671Zm-1.193,1.184-3.662,3.671-3.671-3.671,3.671-3.662Zm-8.509-1.184L408.4,373.24l3.662-3.671,3.671,3.671Zm0,2.377,3.671,3.662-3.671,3.637-3.662-3.671Zm3.671,13.381-3.671,3.662-3.662-3.662L412.059,389Zm1.184,1.184,3.671,3.671-3.662,3.671-3.688-3.688Zm1.193-1.184L421.778,389l3.662,3.671-3.662,3.662Zm8.526,1.184,3.662,3.671-3.662,3.671-3.654-3.688Zm4.855,4.855,3.671,3.671-2.377,2.377h-2.587l-2.377-2.377Zm-3.671-6.04L431.488,389l3.671,3.671-3.671,3.662Zm0-9.719,3.671-3.662,3.671,3.662-3.688,3.637Zm2.478-14.566-3.662,3.671-3.654-3.671,3.284-3.284h.773Zm-8.518-1.184-2.1-2.1h4.2Zm-1.193,1.184-3.662,3.671-3.671-3.671,3.284-3.284h.773Zm-6.426-3.284-2.1,2.1-2.092-2.1Zm-6.569,0,3.284,3.284-3.671,3.671-3.192-3.2-.067-.84,2.873-2.881Zm-3.142,0-.68.68h0l-.059-.68Zm-.227,6.342,1.8,1.8-1.52,1.529Zm1,12.306-.143-1.739h0l.941.941-.84.8Zm.176,2.209,1.806-1.814,3.671,3.671-3.671,3.662L405.726,390Zm.546,6.787v-.16l.084.084-.076.076Zm.638,7.82-.462-5.628,1.084-1.084,3.671,3.671-3.671,3.662-.622-.622Zm.336,4.2-.067-.84.353-.353,1.193,1.193Zm1.478-2.377,3.662-3.671,3.671,3.671-2.377,2.377h-2.587Zm7.333,2.377,1.193-1.193,1.193,1.193Zm4.754,0-2.377-2.377,3.671-3.671,3.662,3.671-2.369,2.377Zm4.956,0,1.193-1.193,1.193,1.193Zm11.189,0h-1.478l1.193-1.193.353.353Zm.344-4.2-.63.622-3.688-3.679,3.671-3.671,1.084,1.084Zm.647-7.988v.168l-.076-.076.092-.092Zm.21-2.579-1.487,1.478-3.671-3.662,3.671-3.671,1.814,1.814Zm.5-6.241-.84-.84.949-.941Zm.983-12.289-.269,3.36-1.537-1.537,1.806-1.806Z" transform="translate(-401.87 -363.42)" fill="#fff"/>
      </g>
      <rect id="Rectángulo_8703" data-name="Rectángulo 8703" width="44.352" height="4.679" rx="1.64" transform="translate(44.352 4.679) rotate(180)" fill="#d9a171"/>
      <rect id="Rectángulo_8704" data-name="Rectángulo 8704" width="37.96" height="4.679" rx="1.64" transform="translate(3.192 42.008)" fill="#d9a171"/>
    </g>
    <g id="freepik--character-1--inject-50" transform="translate(98.679 129.092)">
      <path id="Trazado_112246" data-name="Trazado 112246" d="M177.316,210.13c2.9.907,3.36,17.749,3.36,17.749H179s.84-17.85-3.486-17.3Z" transform="translate(-110.301 -153.913)" fill="#263238"/>
      <path id="Trazado_112247" data-name="Trazado 112247" d="M177.316,210.13c2.9.907,3.36,17.749,3.36,17.749H179s.84-17.85-3.486-17.3Z" transform="translate(-110.301 -153.913)" opacity="0.2"/>
      <path id="Trazado_112248" data-name="Trazado 112248" d="M180.208,396.953l-5.3.932-2.176-7.224-1.982-6.628,6.115-2.134,1.772,7.972Z" transform="translate(-109.539 -181.396)" fill="#e4897b"/>
      <path id="Trazado_112249" data-name="Trazado 112249" d="M178.666,390.038l-5.905.781-1.991-6.7,6.1-2.176Z" transform="translate(-109.543 -181.402)" opacity="0.2"/>
      <path id="Trazado_112250" data-name="Trazado 112250" d="M138.554,399.767H133.17l-.882-7.585-.8-6.913,6.384-1.058.361,8.232Z" transform="translate(-103.258 -181.765)" fill="#e4897b"/>
      <path id="Trazado_112251" data-name="Trazado 112251" d="M138.235,392.512l-5.947-.26-.8-6.947,6.384-1.075Z" transform="translate(-103.258 -181.769)" opacity="0.2"/>
      <path id="Trazado_112252" data-name="Trazado 112252" d="M145.492,412.523a9.238,9.238,0,0,0-2.873-1.562h0s-3.125-3.1-4.628-12.432l-4.091-1.067a3.5,3.5,0,0,0-3.721,1.453,1.98,1.98,0,0,0-.26.538,23.336,23.336,0,0,0-.437,3.032,84.294,84.294,0,0,0-.059,10.248h.739l.294-6.434c.109-2.184,1.781.378,2.26,2.73s1.5,4.855,6.283,4.973C144.585,414.111,146.9,413.859,145.492,412.523Z" transform="translate(-102.905 -183.87)" fill="#263238"/>
      <path id="Trazado_112253" data-name="Trazado 112253" d="M187.992,411.773a9.241,9.241,0,0,0-2.873-1.562h0s-3.125-3.1-4.628-12.432l-4.091-1.067a3.5,3.5,0,0,0-3.721,1.453,1.982,1.982,0,0,0-.26.538,23.331,23.331,0,0,0-.437,3.032,84.293,84.293,0,0,0-.059,10.248h.739l.294-6.434c.109-2.184,1.781.378,2.26,2.73s1.5,4.855,6.283,4.973C187.085,413.361,189.4,413.142,187.992,411.773Z" transform="translate(-109.705 -183.75)" fill="#263238"/>
      <path id="Trazado_112254" data-name="Trazado 112254" d="M170.525,362.138l-8.711,1.529c-8.795-21.9-15.044-40.177-19.463-55.348-2.377-8.182-4.36-15.456-5.779-21.916l.26,23.839v53.7h-8.585c-21.512-102.48-6.266-125.84-6.266-125.84l25.746-4.284a117.955,117.955,0,0,1,2.15,14.431l1.159,8.534,10.08,51.979Z" transform="translate(-100.898 -157.703)" fill="#d9a171"/>
      <g id="Grupo_59778" data-name="Grupo 59778" transform="translate(15.842 76.117)" opacity="0.4">
        <path id="Trazado_112255" data-name="Trazado 112255" d="M170.525,362.138l-8.711,1.529c-8.795-21.9-15.044-40.177-19.463-55.348-2.377-8.182-4.36-15.456-5.779-21.916l.26,23.839v53.7h-8.585c-21.512-102.48-6.266-125.84-6.266-125.84l25.746-4.284a117.955,117.955,0,0,1,2.15,14.431l1.159,8.534,10.08,51.979Z" transform="translate(-116.74 -233.82)" fill="#fff"/>
      </g>
      <path id="Trazado_112256" data-name="Trazado 112256" d="M189.91,201.049l8.686-8.585s.3-2.3,1.142-2.94,6.8-2.806,7.56-2.327,1.739,5.3.722,6.182-6.443,2.008-7,1.915l-9.4,11.155Z" transform="translate(-112.605 -150.232)" fill="#eec1bb"/>
      <path id="Trazado_112257" data-name="Trazado 112257" d="M152.676,185.07c3.746,1.991,17.044,20.58,19.009,21.5s16.934-11.222,16.934-11.222l2.52,4.309s-12.314,17.363-19.228,16.523-20.252-15.54-20.252-15.54Z" transform="translate(-106.485 -149.903)" fill="#6595bf"/>
      <path id="Trazado_112259" data-name="Trazado 112259" d="M194.68,197.673l1.033-.983,2.73,4.62-.974,1.89Z" transform="translate(-113.368 -151.762)" fill="#d9a171"/>
      <path id="Trazado_112260" data-name="Trazado 112260" d="M156.982,207.649c-3.108-2.965-5.342-5.426-5.342-5.426l.235-3.7,1.168-3.587A14.742,14.742,0,0,1,156.982,207.649Z" transform="translate(-106.482 -151.482)" opacity="0.2"/>
      <path id="Trazado_112261" data-name="Trazado 112261" d="M146.153,313.98c-2.377-8.182-4.2-15.456-5.653-21.916a201.771,201.771,0,0,1,1.68-22.865S145.96,298.684,146.153,313.98Z" transform="translate(-104.699 -163.364)" opacity="0.2"/>
      <path id="Trazado_112262" data-name="Trazado 112262" d="M147.71,224.331c1.05-18.48.588-28.661.109-33.743-.529-5.418-1.361-5.62-1.361-5.62s-5.88-.571-10.979-.529a82.709,82.709,0,0,0-11.76,1.243,78.644,78.644,0,0,0-10.92,2.629q.89,2.52,1.638,4.838c.672,2,1.268,3.864,1.806,5.594,1.016,3.251,1.8,6.056,2.428,8.568a93.735,93.735,0,0,1,2.8,19.32s-6.468,16.884-7.728,29.274l21.42,2.31,2.94-12.39,2.94,12.81,11.97-4.2Z" transform="translate(-100.267 -149.802)" fill="#6595bf"/>
      <path id="Trazado_112264" data-name="Trazado 112264" d="M128,183.041s3.083-2.461,8.593-.5l.748,2.806s-4.729,1.789-7.115,1.319S128,183.041,128,183.041Z" transform="translate(-102.699 -149.377)" fill="#d9a171"/>
      <path id="Trazado_112265" data-name="Trazado 112265" d="M128,183.041s3.083-2.461,8.593-.5l.748,2.806s-4.729,1.789-7.115,1.319S128,183.041,128,183.041Z" transform="translate(-102.699 -149.377)" opacity="0.2"/>
      <path id="Trazado_112266" data-name="Trazado 112266" d="M120.643,215.3c-.286-1.411-.622-2.915-1.033-4.528-.26-1.025-.546-2.1-.84-3.242.84-2.864,1.68-.63,1.68-.63A25.813,25.813,0,0,1,120.643,215.3Z" transform="translate(-101.223 -153.263)" opacity="0.2"/>
      <path id="Trazado_112267" data-name="Trazado 112267" d="M137.484,183.969a6.65,6.65,0,0,0-.84-.344c-.6-.479-1.336-1.63-1.3-4.427a22.842,22.842,0,0,1,.3-3.284l-7.778-1.453s2.654,5.242.437,9.139c-.756.336-1.21.84-1.134,1.445.588,4.5,10.256,8.854,10.256,8.854S142.146,186.548,137.484,183.969Z" transform="translate(-102.565 -148.205)" fill="#eec1bb"/>
      <path id="Trazado_112268" data-name="Trazado 112268" d="M135.817,175.913a22.837,22.837,0,0,0-.3,3.284c-5.258,0-7.484-4.738-7.484-4.738Z" transform="translate(-102.704 -148.205)" opacity="0.2"/>
      <path id="Trazado_112269" data-name="Trazado 112269" d="M133.16,145.588s9.106-1.151,10.786,6.216a11.315,11.315,0,0,1-3.99,11.441Z" transform="translate(-103.525 -143.575)" fill="#263238"/>
      <path id="Trazado_112270" data-name="Trazado 112270" d="M130.635,150.265c6.77-.37,9.148,3.133,10.021,10.08,1.1,8.686-.5,14.986-9.064,13.591C119.959,172.038,119.387,150.878,130.635,150.265Z" transform="translate(-101.823 -144.33)" fill="#eec1bb"/>
      <path id="Trazado_112271" data-name="Trazado 112271" d="M138.88,162.11a14.279,14.279,0,0,0,2.125,2.7,1.856,1.856,0,0,1-1.747.84Z" transform="translate(-104.44 -146.229)" fill="#d4827d"/>
      <path id="Trazado_112272" data-name="Trazado 112272" d="M133.653,161.537c.042.554-.227,1.025-.6,1.058s-.706-.395-.748-.958.227-1.025.6-1.058S133.611,160.983,133.653,161.537Z" transform="translate(-103.388 -145.984)" fill="#263238"/>
      <path id="Trazado_112273" data-name="Trazado 112273" d="M132.84,160.521l1.168-.571S133.487,161.017,132.84,160.521Z" transform="translate(-103.474 -145.884)" fill="#263238"/>
      <path id="Trazado_112274" data-name="Trazado 112274" d="M141.863,160.757c0,.554-.227,1.025-.6,1.058s-.706-.4-.748-.958.218-1.025.6-1.058S141.821,160.2,141.863,160.757Z" transform="translate(-104.702 -145.859)" fill="#263238"/>
      <path id="Trazado_112275" data-name="Trazado 112275" d="M141,159.741l1.176-.571S141.689,160.237,141,159.741Z" transform="translate(-104.779 -145.759)" fill="#263238"/>
      <path id="Trazado_112276" data-name="Trazado 112276" d="M132.971,156.159a3.536,3.536,0,0,0-2.881,1.184" transform="translate(-103.034 -145.276)" fill="none" stroke="#263238" stroke-linecap="round" stroke-linejoin="round" stroke-width="0.686"/>
      <path id="Trazado_112277" data-name="Trazado 112277" d="M139.36,155.472a3.158,3.158,0,0,1,2.73.4" transform="translate(-104.517 -145.144)" fill="none" stroke="#263238" stroke-linecap="round" stroke-linejoin="round" stroke-width="0.686"/>
      <path id="Trazado_112278" data-name="Trazado 112278" d="M123.479,161.586s2.864-5.729,2.15-10c0,0,13.112-6.216,14.524,7.358,0,0,.647-12.163-11-11.76s-10.676,17.4-4.385,22.134C124.764,169.289,121.707,165.173,123.479,161.586Z" transform="translate(-101.446 -143.84)" fill="#263238"/>
      <path id="Trazado_112279" data-name="Trazado 112279" d="M131.539,144.736s5.561-1.369,7.14.1-9.66,11.869-15.54,12.919c0,0-2,6.51-.42,9.551,0,0-6.619-2.31-6.93-12.39S126.045,141.04,131.539,144.736Z" transform="translate(-100.745 -143.228)" fill="#263238"/>
      <path id="Trazado_112280" data-name="Trazado 112280" d="M124.579,165.514a2.974,2.974,0,0,0-3.36-2.52c-2.083.344-2.848,4.7,2.428,5.46C124.419,168.5,124.8,167.757,124.579,165.514Z" transform="translate(-101.361 -146.366)" fill="#eec1bb"/>
      <path id="Trazado_112281" data-name="Trazado 112281" d="M119.29,148.686s-2.31-5.88-8.509-5.46-7.14,10.08-3.881,17.22,1.084,9.467,1.084,9.467,3.461-.42,3.461-6.829a23.109,23.109,0,0,1,.21,4.1s2.31-3.259.109-9.45,4.83-3.36,4.83-3.36Z" transform="translate(-99.029 -143.204)" fill="#263238"/>
      <path id="Trazado_112282" data-name="Trazado 112282" d="M140.351,145.73s-2.94,9.45-10.811,12.281" transform="translate(-102.946 -143.609)" fill="none" stroke="#263238" stroke-linecap="round" stroke-linejoin="round" stroke-width="0.686"/>
      <path id="Trazado_112283" data-name="Trazado 112283" d="M133,169.23a5.418,5.418,0,0,0,3.881,1.571" transform="translate(-103.499 -147.369)" fill="none" stroke="#263238" stroke-linecap="round" stroke-linejoin="round" stroke-width="0.686"/>
      <path id="Trazado_112284" data-name="Trazado 112284" d="M127.757,183.186s1.394,2.831,6.149,4.847l1.94,3.133V187.6a11.046,11.046,0,0,0,.5-4.906l1.579,2.982a2.52,2.52,0,0,1,1.907,2c.5,1.831-2.2,8.4-2.2,8.4s-8.644-3.1-10.584-6.989c-1.436-2.9.286-3.6.286-3.6Z" transform="translate(-102.456 -149.522)" fill="#d9a171"/>
      <path id="Trazado_112285" data-name="Trazado 112285" d="M141.193,201.362a.622.622,0,1,1-.622-.622.622.622,0,0,1,.622.622Z" transform="translate(-104.611 -152.41)" fill="#263238"/>
      <path id="Trazado_112286" data-name="Trazado 112286" d="M142.993,212.932a.622.622,0,1,1-.622-.622A.622.622,0,0,1,142.993,212.932Z" transform="translate(-104.899 -154.261)" fill="#263238"/>
      <path id="Trazado_112287" data-name="Trazado 112287" d="M143.763,226.952a.622.622,0,1,1-.622-.622.622.622,0,0,1,.622.622Z" transform="translate(-105.023 -156.505)" fill="#263238"/>
      <path id="Trazado_112288" data-name="Trazado 112288" d="M144.373,241.642a.622.622,0,1,1-.622-.622A.622.622,0,0,1,144.373,241.642Z" transform="translate(-105.12 -158.855)" fill="#263238"/>
      <path id="Trazado_112289" data-name="Trazado 112289" d="M202.7,191.484a25.267,25.267,0,0,1,12.768-2.671l4.679,4.922s-3.99-.966-12.995,1.109Z" transform="translate(-114.651 -150.496)" fill="#d9a171"/>
      <path id="Trazado_112290" data-name="Trazado 112290" d="M202.7,191.484a25.267,25.267,0,0,1,12.768-2.671l4.679,4.922s-3.99-.966-12.995,1.109Z" transform="translate(-114.651 -150.496)" opacity="0.4"/>
      <path id="Trazado_112291" data-name="Trazado 112291" d="M202.64,190.91a25.293,25.293,0,0,1,12.6-3.36l4.939,4.662s-4.04-.714-12.928,1.806Z" transform="translate(-114.642 -150.3)" fill="#d9a171"/>
      <path id="Trazado_112292" data-name="Trazado 112292" d="M202.64,190.91a25.293,25.293,0,0,1,12.6-3.36l4.939,4.662s-4.04-.714-12.928,1.806Z" transform="translate(-114.642 -150.3)" opacity="0.2"/>
      <path id="Trazado_112293" data-name="Trazado 112293" d="M203.07,190.1l4.528,3.772A22.966,22.966,0,0,1,222,191.6l-5.687-5S208.051,185.646,203.07,190.1Z" transform="translate(-114.711 -150.134)" fill="#d9a171"/>
      <path id="Trazado_112294" data-name="Trazado 112294" d="M204.44,190.264l3.175,2.806s6.476-3.461,12.877-2.184l-4.2-3.822S209.11,186.157,204.44,190.264Z" transform="translate(-114.93 -150.208)" opacity="0.2"/>
      <path id="Trazado_112295" data-name="Trazado 112295" d="M214.41,189.183c0,.68-.739,1.235-1.68,1.235s-1.68-.554-1.68-1.235.739-1.243,1.68-1.243S214.41,188.494,214.41,189.183Z" transform="translate(-115.988 -150.362)" fill="#d9a171"/>
      <path id="Trazado_112296" data-name="Trazado 112296" d="M164.889,249.08c.311-4.679,3.209-18.48,3.209-18.48a28.35,28.35,0,0,1,4-2.251,21.841,21.841,0,0,1,6.628-1.268s1.319,17.413,0,19.32S164.519,254.615,164.889,249.08Z" transform="translate(-108.6 -156.625)" fill="#263238"/>
      <path id="Trazado_112297" data-name="Trazado 112297" d="M168.71,227.875s2.075-18.539,7.518-17.749c0,0-4.3.907-5.88,18.354Z" transform="translate(-109.213 -153.908)" fill="#263238"/>
      <path id="Trazado_112298" data-name="Trazado 112298" d="M142.826,219.384c.966-.21,3.469-6.518,3.15-7.291S127,213.924,127,213.924l1.226,6.8Z" transform="translate(-102.539 -154.204)" fill="#d9a171"/>
      <path id="Trazado_112299" data-name="Trazado 112299" d="M142.826,219.384c.966-.21,3.469-6.518,3.15-7.291S127,213.924,127,213.924l1.226,6.8Z" transform="translate(-102.539 -154.204)" opacity="0.2"/>
      <path id="Trazado_112300" data-name="Trazado 112300" d="M117.824,213.965s19.908-2.831,20.8-2.52,2.722,7.862,2.722,7.862S124.1,222.038,122.6,221.6,117.119,215.007,117.824,213.965Z" transform="translate(-101.058 -154.119)" fill="#d9a171"/>
      <path id="Trazado_112301" data-name="Trazado 112301" d="M109.79,228.413l10.332-6.518s.79-2.176,1.747-2.621,7.249-1.277,7.862-.647.554,5.544-.63,6.191-6.72.571-7.241.361l-11.584,8.845Z" transform="translate(-99.786 -155.236)" fill="#eec1bb"/>
      <path id="Trazado_112302" data-name="Trazado 112302" d="M110.4,189.05s6.72,9.811,5.771,18.211L107.221,222.1l6.014-3.074,2.73,5.141s-6.93,10.676-15.75,8.156S110.4,189.05,110.4,189.05Z" transform="translate(-97.88 -150.54)" fill="#6595bf"/>
      <path id="Trazado_112304" data-name="Trazado 112304" d="M115.41,224.27l3.436,6.376.764-1.823-2.73-5.183Z" transform="translate(-100.685 -156.074)" fill="#d9a171"/>
    </g>
  </g>
</svg>
