<svg xmlns="http://www.w3.org/2000/svg" width="522.951" height="494.346" viewBox="0 0 522.951 494.346">
  <g id="Customer_Survey-bro" data-name="Customer Survey-bro" transform="translate(-74.791 -103.385)">
    <g id="freepik--background-simple--inject-70" transform="translate(74.791 103.385)">
      <path id="Trazado_108223" data-name="Trazado 108223" d="M521.6,246.167a21.571,21.571,0,0,1-8.146-15.923c-2.159-32.068,16.4-90.039-19.93-104.868-28.283-11.562-54.319,20.565-82.424,10.5-29.658-10.63-41.545-36.991-83.178-42.373s-47.754,40.761-73.761,54.171-72.711-21.142-91.754-6.49S160.422,246.152,143.79,267.4s-46.335,3.992-55.842,34.552,5.914,79.734,5.914,99.663-17.742,18.6-19,39.919S89.131,477.37,89.131,477.37H579.863s16.633-29.229,17.83-63.781-20.2-39.919-35.646-54.482c-14.3-13.528,4.716-47.74,7.629-63.737,1.478-7.644,1.286-16.071-2.41-22.694C557.864,255.836,535.228,256.354,521.6,246.167Z" transform="translate(-74.791 -93.066)" fill="#aed3f2"/>
      <path id="Trazado_108224" data-name="Trazado 108224" d="M521.6,246.167a21.571,21.571,0,0,1-8.146-15.923c-2.159-32.068,16.4-90.039-19.93-104.868-28.283-11.562-54.319,20.565-82.424,10.5-29.658-10.63-41.545-36.991-83.178-42.373s-47.754,40.761-73.761,54.171-72.711-21.142-91.754-6.49S160.422,246.152,143.79,267.4s-46.335,3.992-55.842,34.552,5.914,79.734,5.914,99.663-17.742,18.6-19,39.919S89.131,477.37,89.131,477.37H579.863s16.633-29.229,17.83-63.781-20.2-39.919-35.646-54.482c-14.3-13.528,4.716-47.74,7.629-63.737,1.478-7.644,1.286-16.071-2.41-22.694C557.864,255.836,535.228,256.354,521.6,246.167Z" transform="translate(-74.791 -93.066)" fill="#aed3f2" opacity="0.7"/>
    </g>
    <g id="freepik--supermarket-shelf--inject-70" transform="translate(115.418 71.5)">
      <path id="Trazado_108225" data-name="Trazado 108225" d="M143.989,188.616a15.908,15.908,0,1,0-28.8,0Z" transform="translate(-96.811 -26.31)" fill="none" stroke="#263238" stroke-linecap="round" stroke-linejoin="round" stroke-width="1"/>
      <path id="Trazado_108226" data-name="Trazado 108226" d="M169.664,188.632a15.923,15.923,0,1,0-28.8,0Z" transform="translate(-84.534 -26.326)" fill="none" stroke="#263238" stroke-linecap="round" stroke-linejoin="round" stroke-width="1"/>
      <path id="Trazado_108227" data-name="Trazado 108227" d="M195.319,188.616a15.908,15.908,0,1,0-28.8,0Z" transform="translate(-72.251 -26.31)" fill="none" stroke="#263238" stroke-linecap="round" stroke-linejoin="round" stroke-width="1"/>
      <path id="Trazado_108228" data-name="Trazado 108228" d="M220.979,188.616a15.908,15.908,0,1,0-28.8,0Z" transform="translate(-59.974 -26.31)" fill="none" stroke="#263238" stroke-linecap="round" stroke-linejoin="round" stroke-width="1"/>
      <path id="Trazado_108229" data-name="Trazado 108229" d="M246.656,188.627a15.923,15.923,0,1,0-28.815,0Z" transform="translate(-47.699 -26.321)" fill="none" stroke="#263238" stroke-linecap="round" stroke-linejoin="round" stroke-width="1"/>
      <path id="Trazado_108230" data-name="Trazado 108230" d="M272.309,188.616a15.908,15.908,0,1,0-28.8,0Z" transform="translate(-35.414 -26.31)" fill="none" stroke="#263238" stroke-linecap="round" stroke-linejoin="round" stroke-width="1"/>
      <path id="Trazado_108231" data-name="Trazado 108231" d="M297.969,188.616a15.908,15.908,0,1,0-28.8,0Z" transform="translate(-23.137 -26.31)" fill="none" stroke="#263238" stroke-linecap="round" stroke-linejoin="round" stroke-width="1"/>
      <path id="Trazado_108232" data-name="Trazado 108232" d="M323.629,188.616a15.908,15.908,0,1,0-28.8,0Z" transform="translate(-10.859 -26.31)" fill="none" stroke="#263238" stroke-linecap="round" stroke-linejoin="round" stroke-width="1"/>
      <path id="Trazado_108233" data-name="Trazado 108233" d="M349.294,188.626a15.886,15.886,0,1,0-28.815,0Z" transform="translate(1.428 -26.32)" fill="none" stroke="#263238" stroke-linecap="round" stroke-linejoin="round" stroke-width="1"/>
      <path id="Trazado_108234" data-name="Trazado 108234" d="M374.959,188.616a15.908,15.908,0,1,0-28.8,0Z" transform="translate(13.7 -26.31)" fill="none" stroke="#263238" stroke-linecap="round" stroke-linejoin="round" stroke-width="1"/>
      <path id="Trazado_108235" data-name="Trazado 108235" d="M400.619,188.616a15.908,15.908,0,1,0-28.8,0Z" transform="translate(25.978 -26.31)" fill="none" stroke="#263238" stroke-linecap="round" stroke-linejoin="round" stroke-width="1"/>
      <line id="Línea_452" data-name="Línea 452" x2="424.763" transform="translate(7.88 162.794)" fill="none" stroke="#263238" stroke-linecap="round" stroke-linejoin="round" stroke-width="1"/>
      <line id="Línea_453" data-name="Línea 453" x2="424.763" transform="translate(7.88 191.254)" fill="none" stroke="#263238" stroke-linecap="round" stroke-linejoin="round" stroke-width="1"/>
      <line id="Línea_454" data-name="Línea 454" x2="424.763" transform="translate(7.88 275.276)" fill="none" stroke="#263238" stroke-linecap="round" stroke-linejoin="round" stroke-width="1"/>
      <line id="Línea_455" data-name="Línea 455" x2="424.763" transform="translate(7.88 303.721)" fill="none" stroke="#263238" stroke-linecap="round" stroke-linejoin="round" stroke-width="1"/>
      <rect id="Rectángulo_8428" data-name="Rectángulo 8428" width="30.619" height="50.741" transform="translate(17.135 223.988)" fill="none" stroke="#263238" stroke-linecap="round" stroke-linejoin="round" stroke-width="1"/>
      <rect id="Rectángulo_8429" data-name="Rectángulo 8429" width="30.619" height="50.741" transform="translate(54.748 223.988)" fill="none" stroke="#263238" stroke-linecap="round" stroke-linejoin="round" stroke-width="1"/>
      <rect id="Rectángulo_8430" data-name="Rectángulo 8430" width="30.619" height="50.741" transform="translate(92.375 223.988)" fill="none" stroke="#263238" stroke-linecap="round" stroke-linejoin="round" stroke-width="1"/>
      <rect id="Rectángulo_8431" data-name="Rectángulo 8431" width="30.619" height="50.741" transform="translate(129.987 223.988)" fill="none" stroke="#263238" stroke-linecap="round" stroke-linejoin="round" stroke-width="1"/>
      <rect id="Rectángulo_8432" data-name="Rectángulo 8432" width="30.619" height="50.741" transform="translate(167.614 223.988)" fill="none" stroke="#263238" stroke-linecap="round" stroke-linejoin="round" stroke-width="1"/>
      <rect id="Rectángulo_8433" data-name="Rectángulo 8433" width="30.619" height="50.741" transform="translate(205.226 223.988)" fill="none" stroke="#263238" stroke-linecap="round" stroke-linejoin="round" stroke-width="1"/>
      <rect id="Rectángulo_8434" data-name="Rectángulo 8434" width="30.619" height="50.741" transform="translate(242.853 223.988)" fill="none" stroke="#263238" stroke-linecap="round" stroke-linejoin="round" stroke-width="1"/>
      <rect id="Rectángulo_8435" data-name="Rectángulo 8435" width="30.619" height="50.741" transform="translate(280.465 223.988)" fill="none" stroke="#263238" stroke-linecap="round" stroke-linejoin="round" stroke-width="1"/>
      <rect id="Rectángulo_8436" data-name="Rectángulo 8436" width="30.619" height="50.741" transform="translate(318.092 223.988)" fill="none" stroke="#263238" stroke-linecap="round" stroke-linejoin="round" stroke-width="1"/>
      <rect id="Rectángulo_8437" data-name="Rectángulo 8437" width="30.619" height="50.741" transform="translate(355.704 223.988)" fill="none" stroke="#263238" stroke-linecap="round" stroke-linejoin="round" stroke-width="1"/>
      <rect id="Rectángulo_8438" data-name="Rectángulo 8438" width="30.619" height="50.741" transform="translate(393.316 223.988)" fill="none" stroke="#263238" stroke-linecap="round" stroke-linejoin="round" stroke-width="1"/>
      <path id="Trazado_108236" data-name="Trazado 108236" d="M376.979,308.624V282.47H367.8v26.154h-4.6v49.514h18.377V308.624Z" transform="translate(22.576 29.442)" fill="none" stroke="#263238" stroke-linecap="round" stroke-linejoin="round" stroke-width="1"/>
      <path id="Trazado_108237" data-name="Trazado 108237" d="M356.2,308.624V282.47H347v26.154H342.42v49.514h18.362V308.624Z" transform="translate(12.634 29.442)" fill="none" stroke="#263238" stroke-linecap="round" stroke-linejoin="round" stroke-width="1"/>
      <path id="Trazado_108238" data-name="Trazado 108238" d="M335.409,308.624V282.47h-9.181v26.154h-4.6v49.514h18.377V308.624Z" transform="translate(2.686 29.442)" fill="none" stroke="#263238" stroke-linecap="round" stroke-linejoin="round" stroke-width="1"/>
      <path id="Trazado_108239" data-name="Trazado 108239" d="M314.629,308.624V282.47h-9.2v26.154H300.85v49.514h18.363V308.624Z" transform="translate(-7.256 29.442)" fill="none" stroke="#263238" stroke-linecap="round" stroke-linejoin="round" stroke-width="1"/>
      <path id="Trazado_108240" data-name="Trazado 108240" d="M293.839,308.624V282.47h-9.181v26.154h-4.6v49.514h18.377V308.624Z" transform="translate(-17.203 29.442)" fill="none" stroke="#263238" stroke-linecap="round" stroke-linejoin="round" stroke-width="1"/>
      <path id="Trazado_108241" data-name="Trazado 108241" d="M273.059,308.624V282.47h-9.2v26.154H259.28v49.514h18.363V308.624Z" transform="translate(-27.146 29.442)" fill="none" stroke="#263238" stroke-linecap="round" stroke-linejoin="round" stroke-width="1"/>
      <path id="Trazado_108242" data-name="Trazado 108242" d="M252.269,308.624V282.47h-9.181v26.154h-4.6v49.514h18.377V308.624Z" transform="translate(-37.093 29.442)" fill="none" stroke="#263238" stroke-linecap="round" stroke-linejoin="round" stroke-width="1"/>
      <path id="Trazado_108243" data-name="Trazado 108243" d="M231.489,308.624V282.47h-9.2v26.154H217.71v49.514h18.363V308.624Z" transform="translate(-47.036 29.442)" fill="none" stroke="#263238" stroke-linecap="round" stroke-linejoin="round" stroke-width="1"/>
      <path id="Trazado_108244" data-name="Trazado 108244" d="M210.7,308.624V282.47h-9.181v26.154h-4.6v49.514H215.3V308.624Z" transform="translate(-56.983 29.442)" fill="none" stroke="#263238" stroke-linecap="round" stroke-linejoin="round" stroke-width="1"/>
      <path id="Trazado_108245" data-name="Trazado 108245" d="M189.919,308.624V282.47h-9.2v26.154H176.14v49.514H194.5V308.624Z" transform="translate(-66.926 29.442)" fill="none" stroke="#263238" stroke-linecap="round" stroke-linejoin="round" stroke-width="1"/>
      <path id="Trazado_108246" data-name="Trazado 108246" d="M169.129,308.624V282.47h-9.181v26.154h-4.6v49.514h18.377V308.624Z" transform="translate(-76.873 29.442)" fill="none" stroke="#263238" stroke-linecap="round" stroke-linejoin="round" stroke-width="1"/>
      <path id="Trazado_108247" data-name="Trazado 108247" d="M148.349,308.624V282.47h-9.2v26.154H134.57v49.514h18.363V308.624Z" transform="translate(-86.815 29.442)" fill="none" stroke="#263238" stroke-linecap="round" stroke-linejoin="round" stroke-width="1"/>
      <path id="Trazado_108248" data-name="Trazado 108248" d="M127.559,308.624V282.47h-9.181v26.154h-4.6v49.514h18.377V308.624Z" transform="translate(-96.763 29.442)" fill="none" stroke="#263238" stroke-linecap="round" stroke-linejoin="round" stroke-width="1"/>
      <line id="Línea_456" data-name="Línea 456" x2="424.763" transform="translate(7.88 387.757)" fill="none" stroke="#263238" stroke-linecap="round" stroke-linejoin="round" stroke-width="1"/>
      <line id="Línea_457" data-name="Línea 457" x2="424.763" transform="translate(7.88 416.203)" fill="none" stroke="#263238" stroke-linecap="round" stroke-linejoin="round" stroke-width="1"/>
    </g>
    <g id="freepik--Shadow--inject-70" transform="translate(200.415 543.441)">
      <ellipse id="Elipse_4223" data-name="Elipse 4223" cx="123.422" cy="27.145" rx="123.422" ry="27.145" transform="translate(0)" fill="#e8e8e8"/>
      <ellipse id="Elipse_4224" data-name="Elipse 4224" cx="123.422" cy="27.145" rx="123.422" ry="27.145" transform="translate(0)" fill="#e8e8e8" opacity="0.5"/>
    </g>
    <g id="freepik--character-1--inject-70" transform="translate(184.861 145.393)">
      <path id="Trazado_108259" data-name="Trazado 108259" d="M175.943,397.962s-.562,7.3,1.478,9.462,19.634,2.957,21.63.266.858-12.7.858-12.7S192.738,397.355,175.943,397.962Z" transform="translate(-136.497 9.386)" fill="#d9a171" stroke="#263238" stroke-linecap="round" stroke-linejoin="round" stroke-width="1"/>
      <path id="Trazado_108260" data-name="Trazado 108260" d="M193.715,402.989c-9.6.251-14.785-.37-17.505-1.109a4.938,4.938,0,0,0,1.005,2.188c1.981,2.159,19.634,2.957,21.63.266a4.671,4.671,0,0,0,.665-1.567C197.736,402.856,195.829,402.93,193.715,402.989Z" transform="translate(-136.336 12.682)" fill="#fff" stroke="#263238" stroke-linecap="round" stroke-linejoin="round" stroke-width="1"/>
      <path id="Trazado_108261" data-name="Trazado 108261" d="M222.251,403.245a44.457,44.457,0,0,0,15.125,8.634c8.25,2.439,10.527,3.785,9.669,6.49s-7.969,3.519-25.045,4.066-29.924-1.671-32.2-3.3-.858-4.6,0-5.4S219.116,401.086,222.251,403.245Z" transform="translate(-130.423 13.21)" fill="#d9a171" stroke="#263238" stroke-linecap="round" stroke-linejoin="round" stroke-width="1"/>
      <path id="Trazado_108262" data-name="Trazado 108262" d="M247.046,414.261a2.4,2.4,0,0,0-.384-2.454c-3.977,1.626-11.088,2.114-27.5,1.922-14.43-.177-23.241-2.292-30.456-2.011a2.957,2.957,0,0,0,1.094,3.312c2.277,1.626,15.125,3.829,32.2,3.3S246.2,416.967,247.046,414.261Z" transform="translate(-130.425 17.377)" fill="#fff" stroke="#263238" stroke-linecap="round" stroke-linejoin="round" stroke-width="1"/>
      <path id="Trazado_108263" data-name="Trazado 108263" d="M193.712,298.874s-.577,32.452-6.831,60.307-10.246,40.835-11.384,58.414a213.433,213.433,0,0,0,.281,31.639s3.134,1.611,10.822,1.079a25.475,25.475,0,0,0,11.946-3.519s.858-30.294.858-47.06S206.8,337,207.373,319.971s-4.554-25.7-8.25-28.4S193.712,298.874,193.712,298.874Z" transform="translate(-136.894 -40.319)" fill="#263238" stroke="#263238" stroke-linecap="round" stroke-linejoin="round" stroke-width="1"/>
      <path id="Trazado_108264" data-name="Trazado 108264" d="M230.243,271.257s-.281,16.263-.281,36.784-4.554,68.69-8.25,91.665-1.138,54.334-.577,56.773,1.715,1.626,3.7,4.051a50.9,50.9,0,0,1,4.273,6.757s-11.1,7.585-19.634,10.349-11.68,3.785-13.661,3.785-2-1.892-3.415-6.49-1.478-23.8-1.478-23.8-3.977-27.292-3.977-44.058,7.688-27.041,7.688-43.26-4.849-60.04-7.688-66.531-8.265-15.406-8.871-20-.858-7.585-.858-7.585Z" transform="translate(-135.857 -50.566)" fill="#263238" stroke="#263238" stroke-linecap="round" stroke-linejoin="round" stroke-width="1"/>
      <path id="Trazado_108265" data-name="Trazado 108265" d="M208.08,230.96s10.808-10.275,12.8-13.779.577-10.275,2.853-12.168,9.95-4.879,11.089-7.3,2.573-3.253,3.415.813-1.981,5.914-3.7,7.836l-1.7,1.907,11.384-2.706s-2-8.383.562-10.275,4.273,10.275,4.554,13.794-3.12,6.224-9.388,8.649a101.4,101.4,0,0,1-11.961,3.785l-12.8,30.826Z" transform="translate(-121.087 -86.262)" fill="#fff" stroke="#263238" stroke-linecap="round" stroke-linejoin="round" stroke-width="1"/>
      <path id="Trazado_108266" data-name="Trazado 108266" d="M234.07,207.876c.562-2.691-.281-11.621,2-12.966s2.558,5.13,2.558,5.13,1.138,6.49-.281,9.2-3.415,3.238-3.415,1.345" transform="translate(-108.652 -86.434)" fill="#fff" stroke="#263238" stroke-linecap="round" stroke-linejoin="round" stroke-width="1"/>
      <path id="Trazado_108267" data-name="Trazado 108267" d="M222.781,216.426s-.665-2.853,3.888-4.2,12.242-2.957,12.242-2.957S244.6,193.6,246.6,198.463s-2.558,14.873-4.273,16.263-14.519,3.785-14.519,3.785" transform="translate(-114.069 -85.094)" fill="#fff" stroke="#263238" stroke-linecap="round" stroke-linejoin="round" stroke-width="1"/>
      <path id="Trazado_108268" data-name="Trazado 108268" d="M197.858,174.2s-11.384,18.954-15.361,35.217-7.688,48.42-8.871,66.8-3.7,43.807-3.7,43.807a127.739,127.739,0,0,0,34.714,4.066,206.555,206.555,0,0,0,38.144-4.332s-6.224-53.077-12.138-83.9-11.665-50.268-11.665-50.268S203.55,173.108,197.858,174.2Z" transform="translate(-139.341 -96.286)" fill="#d9a171" stroke="#263238" stroke-linecap="round" stroke-linejoin="round" stroke-width="1"/>
      <path id="Trazado_108269" data-name="Trazado 108269" d="M194.753,152.218a32.63,32.63,0,0,1,.281,15.672c-2,8.383-3.134,14.341-3.134,14.341S208.414,199.81,208.414,199s.577-10.009,3.134-15.687,4.273-8.871,4.273-8.871a21.984,21.984,0,0,1-8.871-9.994c-3.134-7.038-3.415-18.126-7.688-18.392S194.753,152.218,194.753,152.218Z" transform="translate(-128.829 -109.726)" fill="#fff" stroke="#263238" stroke-linecap="round" stroke-linejoin="round" stroke-width="1"/>
      <path id="Trazado_108270" data-name="Trazado 108270" d="M231.845,136.141s0,15.953,1.138,19.471,5.116,4.317,4.554,6.21-5.914,2.957-5.914,2.957-1.478,13.528-2.573,17.313-3.977,4.6-10.246,4.051-13.306-2.425-16.263-6.49-4.554-11.355-4.554-11.355a177.8,177.8,0,0,1-1.478-19.471c0-8.649-1.138-13.306,10.822-17.845S231.253,132.356,231.845,136.141Z" transform="translate(-126.637 -117.719)" fill="#fff" stroke="#263238" stroke-linecap="round" stroke-linejoin="round" stroke-width="1"/>
      <path id="Trazado_108271" data-name="Trazado 108271" d="M211.645,155.52l5.692,3.519s-2.839,5.13-4.835,3.785S211.645,155.52,211.645,155.52Z" transform="translate(-119.536 -105.193)" fill="none" stroke="#263238" stroke-linecap="round" stroke-linejoin="round" stroke-width="1"/>
      <path id="Trazado_108272" data-name="Trazado 108272" d="M217.966,148.669c0,1.567-.444,2.839-1.005,2.839s-.991-1.271-.991-2.839.444-2.839.991-2.839S217.966,147.1,217.966,148.669Z" transform="translate(-117.312 -109.829)" fill="#263238"/>
      <path id="Trazado_108273" data-name="Trazado 108273" d="M213.27,145.387s1.478-5.13,5.707-4.864" transform="translate(-118.604 -112.373)" fill="none" stroke="#263238" stroke-linecap="round" stroke-linejoin="round" stroke-width="1"/>
      <path id="Trazado_108274" data-name="Trazado 108274" d="M206.083,166.6,212,164.991s-3.415-5.145.281-7.57,9.107-4.332,7.688-6.771-10.822-3.785-6.269-6.757,10.822-4.6,11.961-3.519,0,2.439,7.392,2.439,11.384-2.706,9.107-11.355-14.519-11.9-22.177-8.871-9.965,5.145-9.965,5.145-16.263.532-21.068,11.828-2.839,18.392.577,22.177,8.531,7.851,10.527,7.851S206.083,166.6,206.083,166.6Z" transform="translate(-131.612 -121.48)" fill="#263238" stroke="#263238" stroke-linecap="round" stroke-linejoin="round" stroke-width="1"/>
      <path id="Trazado_108275" data-name="Trazado 108275" d="M189.62,152.821c5.618-1.863,8.753-7.5,16.263-12.493a27.13,27.13,0,0,1,15.613-4.435s-3.134-9.373,4.435-8.753,9.994,5.618,3.134,5" transform="translate(-129.92 -118.786)" fill="none" stroke="#fff" stroke-linecap="round" stroke-linejoin="round" stroke-width="0.75"/>
      <path id="Trazado_108276" data-name="Trazado 108276" d="M205.21,158.178c0-.813-2.277-12.168-6.55-12.168s-6.55,2.957-4.835,9.728,6.831,8.871,10.808,5.411" transform="translate(-128.182 -109.743)" fill="#fff" stroke="#263238" stroke-linecap="round" stroke-linejoin="round" stroke-width="1"/>
      <path id="Trazado_108277" data-name="Trazado 108277" d="M191.432,166.13l22.487,20,2.277,12.715L185.74,178.564Z" transform="translate(-131.776 -100.116)" fill="#d9a171" stroke="#263238" stroke-linecap="round" stroke-linejoin="round" stroke-width="1"/>
      <path id="Trazado_108278" data-name="Trazado 108278" d="M171.638,326.967a3.3,3.3,0,0,1-3.356-2.957L166.094,297.5a8,8,0,0,1,7.54-8.427l45.019-3.563a8.206,8.206,0,0,1,8.871,7.067L230.2,319.4a3.253,3.253,0,0,1-3.046,3.5,3.356,3.356,0,0,1-3.681-2.957L220.8,293.125a1.478,1.478,0,0,0-1.612-1.271l-45.019,3.563a1.478,1.478,0,0,0-1.36,1.478L174.98,323.4a3.267,3.267,0,0,1-3.1,3.46Z" transform="translate(-141.182 -43.012)" fill="#263238" stroke="#fff" stroke-miterlimit="10" stroke-width="1"/>
      <path id="Trazado_108279" data-name="Trazado 108279" d="M153.48,314.672l6.062,43.659a5.914,5.914,0,0,0,6.357,5.145l86.564-6.86a5.914,5.914,0,0,0,5.485-5.914V305.52L206.2,316.106Z" transform="translate(-147.211 -33.423)" fill="#5e6178" stroke="#263238" stroke-linecap="round" stroke-linejoin="round" stroke-width="1"/>
      <path id="Trazado_108280" data-name="Trazado 108280" d="M167.451,352.436l-1.183.089a1.242,1.242,0,0,1-1.345-1.094l-2.661-32.393a1.2,1.2,0,0,1,1.153-1.286l1.183-.089a1.227,1.227,0,0,1,1.345,1.094l2.661,32.393a1.2,1.2,0,0,1-1.153,1.286Z" transform="translate(-143.011 -27.616)" fill="#fff" stroke="#263238" stroke-linecap="round" stroke-linejoin="round" stroke-width="1"/>
      <path id="Trazado_108281" data-name="Trazado 108281" d="M174.55,351.92l-1.168.089a1.257,1.257,0,0,1-1.36-1.109l-2.661-32.393a1.212,1.212,0,0,1,1.153-1.286l1.183-.089a1.227,1.227,0,0,1,1.345,1.109l2.676,32.393a1.242,1.242,0,0,1-1.168,1.286Z" transform="translate(-139.614 -27.87)" fill="#fff" stroke="#263238" stroke-linecap="round" stroke-linejoin="round" stroke-width="1"/>
      <path id="Trazado_108282" data-name="Trazado 108282" d="M181.68,351.386l-1.168.089a1.257,1.257,0,0,1-1.36-1.109l-2.661-32.393a1.212,1.212,0,0,1,1.153-1.286l1.183-.074a1.242,1.242,0,0,1,1.36,1.094l2.661,32.393a1.242,1.242,0,0,1-1.168,1.286Z" transform="translate(-136.203 -28.119)" fill="#fff" stroke="#263238" stroke-linecap="round" stroke-linejoin="round" stroke-width="1"/>
      <path id="Trazado_108283" data-name="Trazado 108283" d="M188.765,350.86l-1.183.089a1.242,1.242,0,0,1-1.36-1.094l-2.661-32.408a1.227,1.227,0,0,1,1.168-1.286l1.168-.089a1.242,1.242,0,0,1,1.36,1.094l2.661,32.393a1.2,1.2,0,0,1-1.153,1.3Z" transform="translate(-132.819 -28.377)" fill="#fff" stroke="#263238" stroke-linecap="round" stroke-linejoin="round" stroke-width="1"/>
      <path id="Trazado_108284" data-name="Trazado 108284" d="M195.865,350.325l-1.183.089a1.212,1.212,0,0,1-1.345-1.094l-2.676-32.393a1.227,1.227,0,0,1,1.168-1.286l1.168-.089a1.257,1.257,0,0,1,1.36,1.094l2.72,32.393a1.2,1.2,0,0,1-1.212,1.286Z" transform="translate(-129.422 -28.625)" fill="#fff" stroke="#263238" stroke-linecap="round" stroke-linejoin="round" stroke-width="1"/>
      <path id="Trazado_108285" data-name="Trazado 108285" d="M202.96,349.786l-1.183.089a1.227,1.227,0,0,1-1.345-1.109l-2.661-32.319a1.212,1.212,0,0,1,1.153-1.286l1.168-.089a1.257,1.257,0,0,1,1.36,1.109l2.661,32.393a1.212,1.212,0,0,1-1.153,1.212Z" transform="translate(-126.021 -28.855)" fill="#fff" stroke="#263238" stroke-linecap="round" stroke-linejoin="round" stroke-width="1"/>
      <path id="Trazado_108286" data-name="Trazado 108286" d="M210.06,349.256l-1.168.089a1.257,1.257,0,0,1-1.36-1.109l-2.661-32.378a1.2,1.2,0,0,1,1.153-1.286l1.183-.089a1.212,1.212,0,0,1,1.345,1.094l2.661,32.393a1.2,1.2,0,0,1-1.153,1.286Z" transform="translate(-122.624 -29.138)" fill="#fff" stroke="#263238" stroke-linecap="round" stroke-linejoin="round" stroke-width="1"/>
      <path id="Trazado_108287" data-name="Trazado 108287" d="M217.146,348.746l-1.168.089a1.242,1.242,0,0,1-1.36-1.094L212,315.347a1.2,1.2,0,0,1,1.153-1.286l1.183-.089a1.227,1.227,0,0,1,1.345,1.094l2.676,32.393a1.227,1.227,0,0,1-1.212,1.286Z" transform="translate(-119.213 -29.382)" fill="#fff" stroke="#263238" stroke-linecap="round" stroke-linejoin="round" stroke-width="1"/>
      <path id="Trazado_108288" data-name="Trazado 108288" d="M149.24,310.941l58.074,3.519L265.95,300.4l1.419,8.649L207.6,322.03l-56.921-3.253Z" transform="translate(-149.24 -35.872)" fill="#d9a171" stroke="#263238" stroke-linecap="round" stroke-linejoin="round" stroke-width="1"/>
      <path id="Trazado_108289" data-name="Trazado 108289" d="M180.392,227s-3.415,8.649-2.277,26.228,11.1,47.858,11.1,49.484-6.831,8.383-6.55,11.355a21.025,21.025,0,0,0,2.853,7.038s-3.134,1.079-2.853,2.439,1.138,1.892,3.415,1.892,5.914,1.892,8.265-.547,3.415-3.785,3.977-7.57-.562-9.743-.562-19.471-4.273-54.082-2.853-58.68a63.027,63.027,0,0,1,3.134-8.117Z" transform="translate(-135.535 -70.992)" fill="#fff" stroke="#263238" stroke-linecap="round" stroke-linejoin="round" stroke-width="1"/>
      <path id="Trazado_108290" data-name="Trazado 108290" d="M195.569,188.44a30.59,30.59,0,0,0-10.822,7.57c-3.977,4.879-2.558,10.822-2.277,14.607a62.224,62.224,0,0,1-.281,9.2L175.92,244.43s2,3.238,15.376,5.914,17.653,2.706,17.653,2.706-1.138-28.091,0-39.49,2.558-16.766-1.478-20.817" transform="translate(-136.475 -89.441)" fill="#d9a171" stroke="#263238" stroke-linecap="round" stroke-linejoin="round" stroke-width="1"/>
    </g>
    <g id="freepik--character-2--inject-70" transform="translate(329.612 164.022)">
      <path id="Trazado_108291" data-name="Trazado 108291" d="M281.665,393.637s-15.908,8.5-19.22,11.828,4.938,6.579,10.97,6.579,8.767.828,18.1-2.735,7.954-5.766,16.174-3.578,11.532-.813,11.532-.813L308.8,393.09Z" transform="translate(-240.189 -10.152)" fill="#d9a171" stroke="#263238" stroke-linecap="round" stroke-linejoin="round" stroke-width="1"/>
      <path id="Trazado_108292" data-name="Trazado 108292" d="M313.98,397.07a50.758,50.758,0,0,0-14.519,3.164c-7.126,2.75-11.517,5.485-22.177,6.313a28.624,28.624,0,0,1-15.051-2.706c-2.5,3.179,5.367,6.269,11.222,6.269s8.767.828,18.1-2.735,7.954-5.766,16.174-3.578,11.532-.813,11.532-.813Z" transform="translate(-240.155 -8.248)" fill="#fff" stroke="#263238" stroke-linecap="round" stroke-linejoin="round" stroke-width="1"/>
      <path id="Trazado_108293" data-name="Trazado 108293" d="M305.239,398.66s-20.211,14.356-23.522,18.156,1.8,7.614,11.162,7.614,30.471-7.91,32.881-12.877S305.239,398.66,305.239,398.66Z" transform="translate(-231.088 -7.487)" fill="#d9a171" stroke="#263238" stroke-linecap="round" stroke-linejoin="round" stroke-width="1"/>
      <path id="Trazado_108294" data-name="Trazado 108294" d="M292.883,421.3c9.344,0,30.471-7.91,32.881-12.877.473-.991,0-2.085-1.168-3.208a82.793,82.793,0,0,1-25.134,10.823c-9.4,2.277-15.346,1.567-18.762.488C281.277,419.181,285.889,421.3,292.883,421.3Z" transform="translate(-231.092 -4.353)" fill="#fff" stroke="#263238" stroke-linecap="round" stroke-linejoin="round" stroke-width="1"/>
      <path id="Trazado_108295" data-name="Trazado 108295" d="M275.534,241.17s-15.908,38.44-11.828,65.54,12.064,61.711,13.158,68.009-.281,19.22,1.641,31.255,3.844,42.787,2.957,49.1-2.469,13.705-2.469,13.705,10.157,4.435,13.986,5.485a94.621,94.621,0,0,0,13.439,1.656s-2.735-1.656,3.578,2.735a60.381,60.381,0,0,0,18.643,8.235c3.844.813,5.766,2.957,6.032.813s.281-9.048.281-11.828a357.332,357.332,0,0,0,.813-42.24c-1.094-22.177-8.767-36.474-7.126-59.242s12.345-48.538,10.142-78.98S328.2,243.876,328.2,243.876,285.691,243.077,275.534,241.17Z" transform="translate(-239.543 -82.841)" fill="#263238" stroke="#263238" stroke-linecap="round" stroke-linejoin="round" stroke-width="1"/>
      <path id="Trazado_108296" data-name="Trazado 108296" d="M282.44,269.73l8.22,8.5s-1.641,33.192-1.641,55.4-.281,37.849,1.922,51.022,8.22,55.664,8.767,64.18.828,7.954-.813,10.142a6.549,6.549,0,0,0-1.656,3.3" transform="translate(-230.259 -69.176)" fill="none" stroke="#fff" stroke-linecap="round" stroke-linejoin="round" stroke-width="1"/>
      <path id="Trazado_108297" data-name="Trazado 108297" d="M346.842,208.721c-1.375,1.375-7.392-.547-6.3-5.2s8.767-17.549,1.641-32.911-23.862-15.627-23.862-15.627l-1.567,4.036c0-2.765-.118-4.909-.118-4.909-1.478-3.711-18.54-10.009-19.22-4.82s-3.327,21.127,2.957,25.577c4.258,2.957,8.516,1.478,11.517-1.168a79.479,79.479,0,0,0-1.759,23.242c1.375,18.377,15.1,20.285,25.237,19.22S348.217,207.361,346.842,208.721Z" transform="translate(-223.636 -127.746)" fill="#263238" stroke="#263238" stroke-linecap="round" stroke-linejoin="round" stroke-width="1"/>
      <path id="Trazado_108298" data-name="Trazado 108298" d="M311.89,155.31s17.815,8.871,18.924,22.266-7.792,21.526-4.081,26.731,7.792,3.327,7.792,3.327" transform="translate(-216.168 -123.922)" fill="none" stroke="#fff" stroke-linecap="round" stroke-linejoin="round" stroke-width="0.75"/>
      <path id="Trazado_108299" data-name="Trazado 108299" d="M309.63,157.32s8.176,14.474,3.711,27.47-1.109,23,10.024,25.592" transform="translate(-217.25 -122.96)" fill="none" stroke="#fff" stroke-linecap="round" stroke-linejoin="round" stroke-width="0.75"/>
      <path id="Trazado_108300" data-name="Trazado 108300" d="M306.734,184.4a78.686,78.686,0,0,1-15.908,5.766c-9.063,2.188-10.7,3.563-11.517,5.485s-12.626,21.112-20.846,32.911-12.626,19.738-10.97,24.957,5.751,7.126,9.876,3.563,21.379-31.536,21.379-31.536,3.3,21.112,3.3,30.708-.547,15.361-.547,15.361,8.782,2.469,28.8,2.469,25.5-2.957,25.5-2.957-4.435-10.97-2.75-20.565a83.62,83.62,0,0,1,4.435-16.263s10.7,25.784,13.439,27.973,17.283,7.141,17.283-4.435S353.941,214.5,350.378,203.8s-3.844-9.314-9.876-11.517-24.676-6.032-24.676-6.032Z" transform="translate(-247.146 -110.004)" fill="#d9a171" stroke="#263238" stroke-linecap="round" stroke-linejoin="round" stroke-width="1"/>
      <path id="Trazado_108301" data-name="Trazado 108301" d="M247.492,240.477c1.641,5.2,5.751,7.126,9.876,3.563,2.957-2.543,12.611-17.579,17.889-25.947a13.776,13.776,0,0,0-1.715-2.232,15.82,15.82,0,0,0-12.463-4.11c-.887,1.316-1.745,2.587-2.573,3.77C250.227,227.3,245.836,235.258,247.492,240.477Z" transform="translate(-247.146 -96.962)" fill="#fff" stroke="#263238" stroke-linecap="round" stroke-linejoin="round" stroke-width="1"/>
      <path id="Trazado_108302" data-name="Trazado 108302" d="M337.043,238.86c0-3.4-1.242-8.56-3.09-14.43a36.326,36.326,0,0,0-21.763,4.435c2.957,6.594,6.224,13.306,7.57,14.4C322.51,245.44,337.043,250.378,337.043,238.86Z" transform="translate(-216.025 -90.955)" fill="#fff" stroke="#263238" stroke-linecap="round" stroke-linejoin="round" stroke-width="1"/>
      <line id="Línea_460" data-name="Línea 460" x1="8.176" y2="4.125" transform="translate(7.871 124.014)" fill="#fff" stroke="#263238" stroke-linecap="round" stroke-linejoin="round" stroke-width="1"/>
      <path id="Trazado_108303" data-name="Trazado 108303" d="M293.885,181.5s-6.86.281-9.876,6.032-6.579,27.426-6.579,27.426,13.158-2.957,14.252-2.735,16.16,8.22,16.16,8.22,7.126-21.66,4.657-32.349S299.089,180.136,293.885,181.5Z" transform="translate(-232.656 -112.037)" fill="#fff" stroke="#263238" stroke-linecap="round" stroke-linejoin="round" stroke-width="1"/>
      <path id="Trazado_108304" data-name="Trazado 108304" d="M288.765,178.221s.547,3.829-2.469,15.908-1.656,23.3,3.282,19.738,12.064-18.377,12.611-24.129,2.173-15.908,2.173-15.908S300.282,178.221,288.765,178.221Z" transform="translate(-229.177 -115.061)" fill="#fff" stroke="#263238" stroke-linecap="round" stroke-linejoin="round" stroke-width="1"/>
      <path id="Trazado_108305" data-name="Trazado 108305" d="M279.992,154.11s-2.188,17.83-.266,28.254,9.048,14.533,20.3,11.236,17-15.08,17-15.08,7.954.828,9.876-4.11-.281-9.876-4.125-9.61-7.954,9.063-10.689,7.688-2.425-11.532-1.331-15.1-4.849-6.668-14.785-8.59-14.208-1.478-15.021-.917S279.992,154.11,279.992,154.11Z" transform="translate(-231.936 -127.705)" fill="#fff" stroke="#263238" stroke-linecap="round" stroke-linejoin="round" stroke-width="1"/>
      <path id="Trazado_108306" data-name="Trazado 108306" d="M288.945,157.77s-.547,5.219-1.907,6.313-3.844,1.922-2.2,2.957a10.984,10.984,0,0,0,3.844,1.375" transform="translate(-229.372 -122.745)" fill="none" stroke="#263238" stroke-linecap="round" stroke-linejoin="round" stroke-width="1"/>
      <path id="Trazado_108307" data-name="Trazado 108307" d="M283.55,168.854a10.349,10.349,0,0,0,8.22.813,11.68,11.68,0,0,0,6.032-4.657" transform="translate(-229.728 -119.281)" fill="none" stroke="#263238" stroke-linecap="round" stroke-linejoin="round" stroke-width="1"/>
      <path id="Trazado_108308" data-name="Trazado 108308" d="M293.44,159.322a1.552,1.552,0,1,1-1.478-1.922,1.745,1.745,0,0,1,1.478,1.922Z" transform="translate(-226.46 -122.922)" fill="#263238"/>
      <path id="Trazado_108309" data-name="Trazado 108309" d="M285.56,157.622a1.552,1.552,0,1,1-1.478-1.922A1.759,1.759,0,0,1,285.56,157.622Z" transform="translate(-230.23 -123.736)" fill="#263238"/>
      <path id="Trazado_108310" data-name="Trazado 108310" d="M281.28,153.979s1.375-5.914,6.4-2.277" transform="translate(-230.814 -126.214)" fill="none" stroke="#263238" stroke-linecap="round" stroke-linejoin="round" stroke-width="1"/>
      <path id="Trazado_108311" data-name="Trazado 108311" d="M290.66,152.9a3.637,3.637,0,0,1,4.539,4.214" transform="translate(-226.326 -125.137)" fill="none" stroke="#263238" stroke-linecap="round" stroke-linejoin="round" stroke-width="1"/>
      <path id="Trazado_108312" data-name="Trazado 108312" d="M280.21,155.281s1.641-11.532,4.938-16.189,15.08-7.392,28.253-2.188,16.455,12.611,15.347,19.471a85.664,85.664,0,0,1-4.923,15.908s-8.235-9.876-16.189-13.173S280.21,155.281,280.21,155.281Z" transform="translate(-231.326 -134.08)" fill="#d9a171" stroke="#263238" stroke-linecap="round" stroke-linejoin="round" stroke-width="1"/>
      <path id="Trazado_108313" data-name="Trazado 108313" d="M324.77,162.327s-3.977-7.969-16.559-13.5a48.021,48.021,0,0,0-30.368-2.75c-5.825,1.478-12.271,4.909-7.052,7.969s6.136-1.478,18.1.621,36.814,9.8,36.814,9.8Z" transform="translate(-236.752 -128.958)" fill="#d9a171" stroke="#263238" stroke-linecap="round" stroke-linejoin="round" stroke-width="1"/>
      <path id="Trazado_108314" data-name="Trazado 108314" d="M286.01,151.85s-16.263-3.992-16.869-1.833S276.5,154.926,286.01,151.85Z" transform="translate(-236.638 -126.761)" fill="#fff" stroke="#263238" stroke-linecap="round" stroke-linejoin="round" stroke-width="1"/>
      <path id="Trazado_108315" data-name="Trazado 108315" d="M309.991,231.851l-6.032-18.658L259.25,209.63l17,54.3,43.881,7.954Z" transform="translate(-241.355 -97.932)" fill="#fff" stroke="#263238" stroke-linecap="round" stroke-linejoin="round" stroke-width="1"/>
      <path id="Trazado_108316" data-name="Trazado 108316" d="M260.32,225.943s1.7,4.909,4.258,6.4,3.208-.429,1.715-2.558a20.387,20.387,0,0,1-2.351-3.844,2.144,2.144,0,0,0-3.622,0Z" transform="translate(-240.843 -90.604)" fill="#fff" stroke="#263238" stroke-linecap="round" stroke-linejoin="round" stroke-width="1"/>
      <path id="Trazado_108317" data-name="Trazado 108317" d="M259.744,223.16s-.222,3.415,1.271,4.7,7.91,2.78,8.117,1.064.429-1.7-3.622-2.957a17.194,17.194,0,0,1-5.766-2.809Z" transform="translate(-241.124 -91.458)" fill="#fff" stroke="#263238" stroke-linecap="round" stroke-linejoin="round" stroke-width="1"/>
      <path id="Trazado_108318" data-name="Trazado 108318" d="M260.283,218.25s-2.957,5.559-1.922,7.052,10.689,3.622,11.532,2.558-1.478-4.273-3.622-5.559S260.283,218.25,260.283,218.25Z" transform="translate(-241.885 -93.807)" fill="#fff" stroke="#263238" stroke-linecap="round" stroke-linejoin="round" stroke-width="1"/>
      <path id="Trazado_108319" data-name="Trazado 108319" d="M262.7,215.94s-4.7.429-4.7,2.957,8.339,7.91,9.61,6.624.651-2.144-1.271-4.435A55.049,55.049,0,0,1,262.7,215.94Z" transform="translate(-241.953 -94.913)" fill="#fff" stroke="#263238" stroke-linecap="round" stroke-linejoin="round" stroke-width="1"/>
      <path id="Trazado_108320" data-name="Trazado 108320" d="M286.454,214.6l-5.278-.828-.606-6.224-8.22-1.419,2.188,6.609-5.648-.887,3.3,8.782,15.908,2.188Z" transform="translate(-236.742 -99.606)" fill="#fff" stroke="#263238" stroke-linecap="round" stroke-linejoin="round" stroke-width="1"/>
      <path id="Trazado_108321" data-name="Trazado 108321" d="M304.854,223.111a60.943,60.943,0,0,0-12.3-1.612c-2.617,0-13.513,3.8-11.636,4.554s9.388,0,10.512,0a15.3,15.3,0,0,1,3.386.769s-6.757.754-8.265,1.138-7.511,2.277-6,3.415,7.511.384,7.511.384l6.372.384a77.356,77.356,0,0,1-8.634,1.478c-1.878,0-.754,2.277,1.479,2.277s9,.769,9,.769-6.757,1.478-7.126,3.031,5.633.769,7.511,0,8.634-4.554,10.127-4.938,5.263-1.478,5.263-1.478,13.883,6.076,18.008,9.107,7.511,6.461,14.267,6.461,7.9-5.692,7.9-10.261-7.141-7.6-13.144-8.353-19.516-4.938-23.655-5.322a97.923,97.923,0,0,1-10.571-1.8Z" transform="translate(-231.28 -92.252)" fill="#fff" stroke="#263238" stroke-linecap="round" stroke-linejoin="round" stroke-width="1"/>
    </g>
  </g>
</svg>
