<svg xmlns="http://www.w3.org/2000/svg" width="340.145" height="301.007" viewBox="0 0 340.145 301.007">
  <g id="OBJECTS" transform="translate(-44.991 -72.717)">
    <path id="Trazado_112503" data-name="Trazado 112503" d="M75.071,273.279a50.658,50.658,0,0,0,3.624,9.064L66.73,294.119,87.966,315.76h0l12-11.776a51.326,51.326,0,0,0,8.987,3.822h0l-.129,16.846,30.317.284.164-16.82h0a50.882,50.882,0,0,0,9.116-3.641l11.767,11.991h0l21.632-21.236-11.767-12a51.8,51.8,0,0,0,3.822-9h0l16.8.155h0l.284-30.317-16.82-.155h0a50.587,50.587,0,0,0-3.633-9.064l12.043-11.845-21.219-21.692-12.051,11.776a51.054,51.054,0,0,0-9-3.856h0l.155-16.811-30.317-.284-.155,16.811a51.345,51.345,0,0,0-9.116,3.727L89.077,200.627,67.4,221.881v.043l11.767,11.991a51.1,51.1,0,0,0-3.813,9h0l-16.811-.155-.284,30.317,16.811.155ZM117.69,226.8a43.5,43.5,0,1,1,0-.034Z" transform="translate(-3.878 -16.624)" fill="#fff"/>
    <path id="Trazado_112504" data-name="Trazado 112504" d="M309.22,161.06v158.9H317.4V278.637h98.519v41.318h6.318V161.06Zm8.178,64.3h98.519v41.671H317.4Zm0-53.24h98.519v41.663H317.4Z" transform="translate(-38.811 -12.297)" fill="#87c5f4"/>
    <rect id="Rectángulo_8711" data-name="Rectángulo 8711" width="14.401" height="41.62" transform="translate(372.913 201.435) rotate(180)" fill="#2480ef"/>
    <path id="Trazado_112505" data-name="Trazado 112505" d="M415.41,211.559a3.9,3.9,0,1,0,3.9-3.9A3.9,3.9,0,0,0,415.41,211.559Z" transform="translate(-53.593 -18.784)" fill="#fff"/>
    <circle id="Elipse_4252" data-name="Elipse 4252" cx="3.056" cy="3.056" r="3.056" transform="translate(362.661 189.72)" fill="#ddf2fe"/>
    <rect id="Rectángulo_8712" data-name="Rectángulo 8712" width="9.15" height="19.807" transform="translate(370.219 184.925) rotate(180)" fill="#72b1eb"/>
    <rect id="Rectángulo_8713" data-name="Rectángulo 8713" width="7.721" height="0.318" transform="translate(369.504 182.825) rotate(180)" fill="#ddf2fe"/>
    <rect id="Rectángulo_8714" data-name="Rectángulo 8714" width="7.721" height="0.318" transform="translate(369.504 180.01) rotate(180)" fill="#ddf2fe"/>
    <rect id="Rectángulo_8715" data-name="Rectángulo 8715" width="7.721" height="0.318" transform="translate(369.504 177.186) rotate(180)" fill="#ddf2fe"/>
    <rect id="Rectángulo_8716" data-name="Rectángulo 8716" width="7.721" height="0.318" transform="translate(369.504 171.557) rotate(180)" fill="#ddf2fe"/>
    <rect id="Rectángulo_8717" data-name="Rectángulo 8717" width="7.721" height="0.318" transform="translate(369.504 168.742) rotate(180)" fill="#ddf2fe"/>
    <rect id="Rectángulo_8718" data-name="Rectángulo 8718" width="7.721" height="0.318" transform="translate(369.504 174.372) rotate(180)" fill="#ddf2fe"/>
    <rect id="Rectángulo_8719" data-name="Rectángulo 8719" width="14.401" height="41.62" transform="translate(344.111 201.435) rotate(180)" fill="#abd5f4"/>
    <path id="Trazado_112506" data-name="Trazado 112506" d="M381.94,211.559a3.908,3.908,0,1,0,3.9-3.9A3.908,3.908,0,0,0,381.94,211.559Z" transform="translate(-48.934 -18.784)" fill="#fff"/>
    <circle id="Elipse_4253" data-name="Elipse 4253" cx="3.056" cy="3.056" r="3.056" transform="translate(333.85 189.72)" fill="#ddf2fe"/>
    <rect id="Rectángulo_8720" data-name="Rectángulo 8720" width="9.15" height="19.807" transform="translate(341.408 184.925) rotate(180)" fill="#fff"/>
    <rect id="Rectángulo_8721" data-name="Rectángulo 8721" width="7.721" height="0.318" transform="translate(340.693 182.825) rotate(180)" fill="#72b1eb"/>
    <rect id="Rectángulo_8722" data-name="Rectángulo 8722" width="7.721" height="0.318" transform="translate(340.693 180.01) rotate(180)" fill="#72b1eb"/>
    <rect id="Rectángulo_8723" data-name="Rectángulo 8723" width="7.721" height="0.318" transform="translate(340.693 177.186) rotate(180)" fill="#72b1eb"/>
    <rect id="Rectángulo_8724" data-name="Rectángulo 8724" width="7.721" height="0.318" transform="translate(340.693 171.557) rotate(180)" fill="#72b1eb"/>
    <rect id="Rectángulo_8725" data-name="Rectángulo 8725" width="7.721" height="0.318" transform="translate(340.693 168.742) rotate(180)" fill="#72b1eb"/>
    <rect id="Rectángulo_8726" data-name="Rectángulo 8726" width="7.721" height="0.318" transform="translate(340.693 174.372) rotate(180)" fill="#72b1eb"/>
    <rect id="Rectángulo_8727" data-name="Rectángulo 8727" width="14.401" height="41.62" transform="translate(358.52 201.435) rotate(180)" fill="#274f8e"/>
    <path id="Trazado_112507" data-name="Trazado 112507" d="M398.68,211.559a3.9,3.9,0,1,0,3.9-3.9A3.9,3.9,0,0,0,398.68,211.559Z" transform="translate(-51.264 -18.784)" fill="#fff"/>
    <circle id="Elipse_4254" data-name="Elipse 4254" cx="3.056" cy="3.056" r="3.056" transform="translate(348.26 189.72)" fill="#ddf2fe"/>
    <rect id="Rectángulo_8728" data-name="Rectángulo 8728" width="9.15" height="19.807" transform="translate(355.817 184.925) rotate(180)" fill="#72b1eb"/>
    <rect id="Rectángulo_8729" data-name="Rectángulo 8729" width="7.721" height="0.318" transform="translate(355.094 182.825) rotate(180)" fill="#ddf2fe"/>
    <rect id="Rectángulo_8730" data-name="Rectángulo 8730" width="7.721" height="0.318" transform="translate(355.094 180.01) rotate(180)" fill="#ddf2fe"/>
    <rect id="Rectángulo_8731" data-name="Rectángulo 8731" width="7.721" height="0.318" transform="translate(355.094 177.186) rotate(180)" fill="#ddf2fe"/>
    <rect id="Rectángulo_8732" data-name="Rectángulo 8732" width="7.721" height="0.318" transform="translate(355.094 171.557) rotate(180)" fill="#ddf2fe"/>
    <rect id="Rectángulo_8733" data-name="Rectángulo 8733" width="7.721" height="0.318" transform="translate(355.094 168.742) rotate(180)" fill="#ddf2fe"/>
    <rect id="Rectángulo_8734" data-name="Rectángulo 8734" width="7.721" height="0.318" transform="translate(355.094 174.372) rotate(180)" fill="#ddf2fe"/>
    <rect id="Rectángulo_8735" data-name="Rectángulo 8735" width="14.401" height="41.62" transform="translate(331.861 213.09)" fill="#2480ef"/>
    <path id="Trazado_112508" data-name="Trazado 112508" d="M392.246,273.439a3.908,3.908,0,1,1-3.9-3.9A3.908,3.908,0,0,1,392.246,273.439Z" transform="translate(-49.28 -27.398)" fill="#fff"/>
    <circle id="Elipse_4255" data-name="Elipse 4255" cx="3.056" cy="3.056" r="3.056" transform="translate(336.01 242.986)" fill="#ddf2fe"/>
    <rect id="Rectángulo_8736" data-name="Rectángulo 8736" width="9.15" height="19.807" transform="translate(334.564 218.384)" fill="#72b1eb"/>
    <rect id="Rectángulo_8737" data-name="Rectángulo 8737" width="7.721" height="0.318" transform="translate(335.279 235.772)" fill="#ddf2fe"/>
    <rect id="Rectángulo_8738" data-name="Rectángulo 8738" width="7.721" height="0.318" transform="translate(335.279 232.949)" fill="#ddf2fe"/>
    <rect id="Rectángulo_8739" data-name="Rectángulo 8739" width="7.721" height="0.318" transform="translate(335.279 230.134)" fill="#ddf2fe"/>
    <rect id="Rectángulo_8740" data-name="Rectángulo 8740" width="7.721" height="0.318" transform="translate(335.279 224.505)" fill="#ddf2fe"/>
    <rect id="Rectángulo_8741" data-name="Rectángulo 8741" width="7.721" height="0.318" transform="translate(335.279 221.69)" fill="#ddf2fe"/>
    <rect id="Rectángulo_8742" data-name="Rectángulo 8742" width="7.721" height="0.318" transform="translate(335.279 227.319)" fill="#ddf2fe"/>
    <rect id="Rectángulo_8743" data-name="Rectángulo 8743" width="14.401" height="41.62" transform="translate(311.624 159.85)" fill="#2480ef"/>
    <path id="Trazado_112509" data-name="Trazado 112509" d="M368.736,211.589a3.908,3.908,0,1,1-3.9-3.9A3.908,3.908,0,0,1,368.736,211.589Z" transform="translate(-46.008 -18.788)" fill="#fff"/>
    <circle id="Elipse_4256" data-name="Elipse 4256" cx="3.056" cy="3.056" r="3.056" transform="translate(315.773 189.745)" fill="#ddf2fe"/>
    <rect id="Rectángulo_8744" data-name="Rectángulo 8744" width="9.15" height="19.807" transform="translate(314.327 165.144)" fill="#72b1eb"/>
    <rect id="Rectángulo_8745" data-name="Rectángulo 8745" width="7.721" height="0.318" transform="translate(315.041 182.523)" fill="#ddf2fe"/>
    <rect id="Rectángulo_8746" data-name="Rectángulo 8746" width="7.721" height="0.318" transform="translate(315.041 179.708)" fill="#ddf2fe"/>
    <rect id="Rectángulo_8747" data-name="Rectángulo 8747" width="7.721" height="0.318" transform="translate(315.041 176.894)" fill="#ddf2fe"/>
    <rect id="Rectángulo_8748" data-name="Rectángulo 8748" width="7.721" height="0.318" transform="translate(315.041 171.255)" fill="#ddf2fe"/>
    <rect id="Rectángulo_8749" data-name="Rectángulo 8749" width="7.721" height="0.318" transform="translate(315.041 168.441)" fill="#ddf2fe"/>
    <rect id="Rectángulo_8750" data-name="Rectángulo 8750" width="7.721" height="0.318" transform="translate(315.041 174.079)" fill="#ddf2fe"/>
    <rect id="Rectángulo_8751" data-name="Rectángulo 8751" width="14.362" height="39.239" transform="translate(345.066 216.599) rotate(-15.709)" fill="#abd5f4"/>
    <path id="Trazado_112510" data-name="Trazado 112510" d="M418.032,270.539a3.9,3.9,0,1,1-1.846-2.349A3.9,3.9,0,0,1,418.032,270.539Z" transform="translate(-52.892 -27.14)" fill="#fff"/>
    <path id="Trazado_112511" data-name="Trazado 112511" d="M415.242,274.66a3.056,3.056,0,1,1,1.84-1.446A3.056,3.056,0,0,1,415.242,274.66Z" transform="translate(-53.029 -27.275)" fill="#ddf2fe"/>
    <rect id="Rectángulo_8752" data-name="Rectángulo 8752" width="9.15" height="19.058" transform="translate(349.928 220.36) rotate(-15.71)" fill="#fff"/>
    <rect id="Rectángulo_8753" data-name="Rectángulo 8753" width="7.721" height="0.31" transform="translate(355.144 236.279) rotate(-15.71)" fill="#72b1eb"/>
    <rect id="Rectángulo_8754" data-name="Rectángulo 8754" width="7.721" height="0.31" transform="translate(354.422 233.665) rotate(-15.71)" fill="#72b1eb"/>
    <rect id="Rectángulo_8755" data-name="Rectángulo 8755" width="7.721" height="0.31" transform="translate(353.674 231.062) rotate(-15.71)" fill="#72b1eb"/>
    <rect id="Rectángulo_8756" data-name="Rectángulo 8756" width="7.721" height="0.31" transform="translate(352.211 225.834) rotate(-15.71)" fill="#72b1eb"/>
    <rect id="Rectángulo_8757" data-name="Rectángulo 8757" width="7.721" height="0.31" transform="translate(351.48 223.229) rotate(-15.71)" fill="#72b1eb"/>
    <rect id="Rectángulo_8758" data-name="Rectángulo 8758" width="7.721" height="0.31" transform="translate(352.942 228.44) rotate(-15.71)" fill="#72b1eb"/>
    <rect id="Rectángulo_8759" data-name="Rectángulo 8759" width="14.401" height="41.62" transform="translate(317.451 213.09)" fill="#abd5f4"/>
    <path id="Trazado_112512" data-name="Trazado 112512" d="M375.509,273.439a3.9,3.9,0,1,1-3.9-3.9A3.9,3.9,0,0,1,375.509,273.439Z" transform="translate(-46.953 -27.398)" fill="#fff"/>
    <circle id="Elipse_4257" data-name="Elipse 4257" cx="3.056" cy="3.056" r="3.056" transform="translate(321.601 242.986)" fill="#ddf2fe"/>
    <rect id="Rectángulo_8760" data-name="Rectángulo 8760" width="9.15" height="19.807" transform="translate(320.154 218.384)" fill="#fff"/>
    <rect id="Rectángulo_8761" data-name="Rectángulo 8761" width="7.721" height="0.318" transform="translate(320.869 235.772)" fill="#72b1eb"/>
    <rect id="Rectángulo_8762" data-name="Rectángulo 8762" width="7.721" height="0.318" transform="translate(320.869 232.949)" fill="#72b1eb"/>
    <rect id="Rectángulo_8763" data-name="Rectángulo 8763" width="7.721" height="0.318" transform="translate(320.869 230.134)" fill="#72b1eb"/>
    <rect id="Rectángulo_8764" data-name="Rectángulo 8764" width="7.721" height="0.318" transform="translate(320.869 224.505)" fill="#72b1eb"/>
    <rect id="Rectángulo_8765" data-name="Rectángulo 8765" width="7.721" height="0.318" transform="translate(320.869 221.69)" fill="#72b1eb"/>
    <rect id="Rectángulo_8766" data-name="Rectángulo 8766" width="7.721" height="0.318" transform="translate(320.869 227.319)" fill="#72b1eb"/>
    <path id="Trazado_112513" data-name="Trazado 112513" d="M269.993,119.367H188.854l-.8-8.608A14.737,14.737,0,0,1,202.98,94.31h48.2a18.43,18.43,0,0,1,17.982,16.45Z" transform="translate(-21.931 -3.005)" fill="#eaa813"/>
    <path id="Trazado_112514" data-name="Trazado 112514" d="M227.592,72.72a11.388,11.388,0,0,0-11.535,12.714,14.238,14.238,0,0,0,13.893,12.714,11.4,11.4,0,0,0,11.535-12.714A14.255,14.255,0,0,0,227.592,72.72Zm1.722,18.6a6.6,6.6,0,0,1-6.43-5.888,5.277,5.277,0,0,1,5.337-5.888,6.611,6.611,0,0,1,6.439,5.888,5.285,5.285,0,0,1-5.346,5.888Z" transform="translate(-25.832)" fill="#6595bf"/>
    <path id="Trazado_112515" data-name="Trazado 112515" d="M305.632,311.942H174.187a10.571,10.571,0,0,1-10.33-9.469L146.28,112.968a8.462,8.462,0,0,1,8.608-9.469H286.332a10.588,10.588,0,0,1,10.33,9.469l17.586,189.54a8.444,8.444,0,0,1-8.617,9.434Z" transform="translate(-16.122 -4.285)" fill="#164767"/>
    <path id="Trazado_112516" data-name="Trazado 112516" d="M309.316,311.943H177.871a10.579,10.579,0,0,1-10.33-9.469L149.99,112.969a8.453,8.453,0,0,1,8.556-9.469H289.991a10.579,10.579,0,0,1,10.33,9.469l17.526,189.54a8.453,8.453,0,0,1-8.531,9.434Z" transform="translate(-16.638 -4.285)" fill="#6595bf"/>
    <path id="Trazado_112517" data-name="Trazado 112517" d="M303.3,290.87H184.877L168.84,118.09H287.252Z" transform="translate(-19.27 -6.316)" fill="#aed3f2"/>
    <path id="Trazado_112518" data-name="Trazado 112518" d="M193.806,279l-13.54-146.241a4.175,4.175,0,0,1,4.227-4.665h91.873a5.216,5.216,0,0,1,5.1,4.666L295.036,279a4.175,4.175,0,0,1-4.227,4.657H198.97A5.225,5.225,0,0,1,193.806,279Z" transform="translate(-20.857 -7.708)" fill="#fff"/>
    <path id="Trazado_112519" data-name="Trazado 112519" d="M276.1,119.367H194.964l-.8-8.608A14.745,14.745,0,0,1,209.09,94.31h48.2a18.438,18.438,0,0,1,17.982,16.45Z" transform="translate(-22.782 -3.005)" fill="#d9a171"/>
    <path id="Trazado_112520" data-name="Trazado 112520" d="M233.7,72.72a11.4,11.4,0,0,0-11.535,12.714,14.255,14.255,0,0,0,13.893,12.714A11.388,11.388,0,0,0,247.6,85.434,14.246,14.246,0,0,0,233.7,72.72Zm1.722,18.6a6.611,6.611,0,0,1-6.439-5.888,5.285,5.285,0,0,1,5.346-5.888,6.6,6.6,0,0,1,6.43,5.888,5.277,5.277,0,0,1-5.328,5.888Z" transform="translate(-26.683 0)" fill="#aed3f2"/>
    <path id="Trazado_112521" data-name="Trazado 112521" d="M276.12,122.028H194.981l-.8-8.608h81.139Z" transform="translate(-22.798 -5.666)" fill="#aed3f2"/>
    <path id="Trazado_112522" data-name="Trazado 112522" d="M272.059,179.162H198.59a1.722,1.722,0,0,1-1.722-1.541h0a1.377,1.377,0,0,1,1.395-1.541h73.478a1.722,1.722,0,0,1,1.722,1.541h0a1.386,1.386,0,0,1-1.4,1.541Z" transform="translate(-23.171 -14.388)" fill="#33c7ca"/>
    <path id="Trazado_112523" data-name="Trazado 112523" d="M272.834,187.2h-73.5a1.722,1.722,0,0,1-1.722-1.541h0a1.386,1.386,0,0,1,1.4-1.541H272.49a1.722,1.722,0,0,1,1.679,1.541h0a1.377,1.377,0,0,1-1.334,1.541Z" transform="translate(-23.274 -15.507)" fill="#33c7ca"/>
    <path id="Trazado_112524" data-name="Trazado 112524" d="M221.9,195.24H200.08a1.722,1.722,0,0,1-1.722-1.541h0a1.395,1.395,0,0,1,1.4-1.549h21.821A1.722,1.722,0,0,1,223.3,193.7h0a1.386,1.386,0,0,1-1.4,1.541Z" transform="translate(-23.378 -16.625)" fill="#33c7ca"/>
    <path id="Trazado_112525" data-name="Trazado 112525" d="M279.635,214.342H232.79a1.722,1.722,0,0,1-1.722-1.541h0a1.386,1.386,0,0,1,1.4-1.541h46.845a1.722,1.722,0,0,1,1.679,1.541h0a1.377,1.377,0,0,1-1.36,1.541Z" transform="translate(-27.931 -19.285)" fill="#33c7ca"/>
    <path id="Trazado_112526" data-name="Trazado 112526" d="M280.382,222.382H233.537a1.722,1.722,0,0,1-1.679-1.541h0a1.377,1.377,0,0,1,1.395-1.541H280.1a1.722,1.722,0,0,1,1.722,1.541h0a1.386,1.386,0,0,1-1.438,1.541Z" transform="translate(-28.041 -20.404)" fill="#33c7ca"/>
    <path id="Trazado_112527" data-name="Trazado 112527" d="M256.1,230.42H234.28a1.722,1.722,0,0,1-1.722-1.541h0a1.395,1.395,0,0,1,1.4-1.549h21.821a1.722,1.722,0,0,1,1.722,1.549h0a1.386,1.386,0,0,1-1.4,1.541Z" transform="translate(-28.139 -21.522)" fill="#33c7ca"/>
    <path id="Trazado_112528" data-name="Trazado 112528" d="M218.351,209.49h-17A1.334,1.334,0,0,0,200,210.979l1.584,17.027a1.653,1.653,0,0,0,1.618,1.489h17a1.334,1.334,0,0,0,1.317-1.489l-1.575-16.992A1.67,1.67,0,0,0,218.351,209.49Zm1.119,17.844a.095.095,0,0,1-.095.1H203.657a.112.112,0,0,1-.112-.1l-1.455-15.684a.086.086,0,0,1,.086-.1H217.9a.1.1,0,0,1,.1.1Z" transform="translate(-23.606 -19.039)" fill="#9ce5e5"/>
    <path id="Trazado_112529" data-name="Trazado 112529" d="M214.546,224.631l-8.247-5.974,2.238-3.271,4.777,3.46,9.6-13.687,3.486,2.574Z" transform="translate(-24.485 -18.436)" fill="#ffc121"/>
    <path id="Trazado_112530" data-name="Trazado 112530" d="M282.606,246.392H235.727a1.722,1.722,0,0,1-1.679-1.541h0a1.377,1.377,0,0,1,1.394-1.541h46.845a1.722,1.722,0,0,1,1.722,1.541h0a1.386,1.386,0,0,1-1.4,1.541Z" transform="translate(-28.346 -23.746)" fill="#33c7ca"/>
    <path id="Trazado_112531" data-name="Trazado 112531" d="M283.355,254.43H236.51a1.722,1.722,0,0,1-1.722-1.541h0a1.394,1.394,0,0,1,1.4-1.549h46.845a1.722,1.722,0,0,1,1.679,1.549h0a1.377,1.377,0,0,1-1.36,1.541Z" transform="translate(-28.449 -24.864)" fill="#33c7ca"/>
    <path id="Trazado_112532" data-name="Trazado 112532" d="M259.081,262.5H237.26a1.722,1.722,0,0,1-1.722-1.541h0a1.377,1.377,0,0,1,1.395-1.541h21.83a1.722,1.722,0,0,1,1.679,1.541h0a1.377,1.377,0,0,1-1.36,1.541Z" transform="translate(-28.553 -25.989)" fill="#33c7ca"/>
    <path id="Trazado_112533" data-name="Trazado 112533" d="M221.322,241.53H204.33a1.334,1.334,0,0,0-1.351,1.489l1.575,16.992a1.67,1.67,0,0,0,1.627,1.489h17a1.334,1.334,0,0,0,1.334-1.489l-1.575-17A1.67,1.67,0,0,0,221.322,241.53Zm1.119,17.853a.086.086,0,0,1-.086.095H206.628a.1.1,0,0,1-.1-.095l-1.463-15.727a.086.086,0,0,1,.086-.095h15.727a.121.121,0,0,1,.112.095Z" transform="translate(-24.021 -23.499)" fill="#9ce5e5"/>
    <path id="Trazado_112534" data-name="Trazado 112534" d="M217.518,256.681,209.28,250.7l2.238-3.262,4.777,3.46,9.589-13.687,3.486,2.574Z" transform="translate(-24.9 -22.897)" fill="#ffc121"/>
    <path id="Trazado_112535" data-name="Trazado 112535" d="M285.582,278.442H238.72A1.722,1.722,0,0,1,237,276.9h0a1.386,1.386,0,0,1,1.4-1.541h46.845a1.722,1.722,0,0,1,1.679,1.541h0a1.377,1.377,0,0,1-1.343,1.541Z" transform="translate(-28.757 -28.208)" fill="#33c7ca"/>
    <path id="Trazado_112536" data-name="Trazado 112536" d="M286.332,286.5H239.487a1.722,1.722,0,0,1-1.679-1.549h0a1.377,1.377,0,0,1,1.395-1.541h46.845a1.722,1.722,0,0,1,1.722,1.541h0a1.395,1.395,0,0,1-1.437,1.549Z" transform="translate(-28.869 -29.328)" fill="#33c7ca"/>
    <path id="Trazado_112537" data-name="Trazado 112537" d="M262.051,294.5H240.23a1.722,1.722,0,0,1-1.722-1.541h0a1.386,1.386,0,0,1,1.4-1.541h21.821a1.722,1.722,0,0,1,1.722,1.541h0a1.386,1.386,0,0,1-1.4,1.541Z" transform="translate(-28.967 -30.443)" fill="#33c7ca"/>
    <path id="Trazado_112538" data-name="Trazado 112538" d="M224.3,273.58h-17a1.334,1.334,0,0,0-1.351,1.489l1.584,17a1.661,1.661,0,0,0,1.618,1.489h17a1.334,1.334,0,0,0,1.352-1.489l-1.575-17A1.67,1.67,0,0,0,224.3,273.58Zm1.119,17.853a.086.086,0,0,1-.095.095H209.607a.112.112,0,0,1-.112-.095l-1.463-15.727a.1.1,0,0,1,.095-.095h15.727a.1.1,0,0,1,.1.095Z" transform="translate(-24.435 -27.96)" fill="#9ce5e5"/>
    <path id="Trazado_112539" data-name="Trazado 112539" d="M220.5,288.731l-8.246-5.983,2.238-3.271,4.777,3.469,9.6-13.687,3.478,2.574Z" transform="translate(-25.313 -27.359)" fill="#ffc121"/>
    <path id="Trazado_112540" data-name="Trazado 112540" d="M194.03,140.9l1.868,20.659h3.925L197.955,140.9Z" transform="translate(-22.777 -9.491)" fill="#33c7ca"/>
    <path id="Trazado_112541" data-name="Trazado 112541" d="M210.362,152.678a12.172,12.172,0,0,0-2.161-2.78l-1.79-1.765a8.7,8.7,0,0,1-1.2-1.36,2.764,2.764,0,0,1-.379-1.291,2.04,2.04,0,0,1,.121-1.145c0-.069.138-.241.568-.241a.594.594,0,0,1,.594.37,5.922,5.922,0,0,1,.387,1.894l.164,1.834h3.693l-.155-1.722a9,9,0,0,0-1.257-4.261,4.063,4.063,0,0,0-3.615-1.584c-1.722,0-2.866.465-3.512,1.377a5.879,5.879,0,0,0-.7,3.942,6.835,6.835,0,0,0,.861,2.841,10.777,10.777,0,0,0,1.868,2.307l1.593,1.506a8.219,8.219,0,0,1,1.515,1.825,4.726,4.726,0,0,1,.585,1.988,3.96,3.96,0,0,1-.06,1.592c0,.077-.095.25-.542.25a.706.706,0,0,1-.706-.422,6.293,6.293,0,0,1-.448-2.143l-.215-2.4h-3.77l.207,2.255a9.236,9.236,0,0,0,1.386,4.528,4.3,4.3,0,0,0,3.744,1.67c1.722,0,2.909-.516,3.538-1.541a7.231,7.231,0,0,0,.62-4.381A7.945,7.945,0,0,0,210.362,152.678Z" transform="translate(-23.752 -9.45)" fill="#33c7ca"/>
    <path id="Trazado_112542" data-name="Trazado 112542" d="M222.823,146.473a7.8,7.8,0,0,0-1.472-4.3,4.605,4.605,0,0,0-3.77-1.541,4.3,4.3,0,0,0-3.323,1.24c-.9.99-1.265,2.582-1.076,4.683l.818,9.03a8.2,8.2,0,0,0,1.558,4.562,4.666,4.666,0,0,0,3.813,1.6,3.9,3.9,0,0,0,3.564-1.635,7.619,7.619,0,0,0,.706-4.605Zm-4.872,9.107-.861-9.211a4.4,4.4,0,0,1,.095-1.834c.069-.181.189-.344.594-.344a.646.646,0,0,1,.671.387,5.639,5.639,0,0,1,.4,1.885l.861,9.193a7.058,7.058,0,0,1,0,2.247c-.06.224-.181.362-.568.362a.714.714,0,0,1-.732-.422h0a7.241,7.241,0,0,1-.465-2.264Z" transform="translate(-25.436 -9.452)" fill="#33c7ca"/>
    <path id="Trazado_112543" data-name="Trazado 112543" d="M239.886,147.186a18.488,18.488,0,0,0-.594-3.443,4.3,4.3,0,0,0-1.524-2.264,5.165,5.165,0,0,0-3.159-.861,4.115,4.115,0,0,0-3.194,1.179c-.861.955-1.179,2.686-.938,5.294l.06.723a9.934,9.934,0,0,0,1.317,4.6,3.753,3.753,0,0,0,3.34,1.653,4.691,4.691,0,0,0,1.394-.181l.207,2.3a10.526,10.526,0,0,1,.077,1.567c-.052.155-.112.31-.155.43a.981.981,0,0,1-.422.052.542.542,0,0,1-.56-.344,7.946,7.946,0,0,1-.43-2.281l-.069-.861h-3.762l.138,1.575a6.887,6.887,0,0,0,1.455,4.089,4.631,4.631,0,0,0,3.529,1.3,3.659,3.659,0,0,0,3.366-1.627c.646-1.033.861-2.686.637-5.044Zm-3.633,2.961c0,.284-.095.534-.723.534a.654.654,0,0,1-.671-.387,6.206,6.206,0,0,1-.422-2.109l-.164-1.722a5.165,5.165,0,0,1,.06-1.937c.069-.207.172-.336.516-.336a.654.654,0,0,1,.663.387,5.743,5.743,0,0,1,.4,1.928Z" transform="translate(-27.839 -9.45)" fill="#33c7ca"/>
    <path id="Trazado_112544" data-name="Trazado 112544" d="M253.1,146.256a6.981,6.981,0,0,0-1.541-4.175,4.958,4.958,0,0,0-3.848-1.455,4.235,4.235,0,0,0-3.65,1.489,6.215,6.215,0,0,0-.8,4.227l.861,9.426a7.868,7.868,0,0,0,1.541,4.407,4.8,4.8,0,0,0,3.882,1.575,4.057,4.057,0,0,0,3.658-1.618,6.887,6.887,0,0,0,.766-4.442Zm-5.07,9.469-.861-9.624c-.12-1.351.078-1.661.112-1.722.232-.275.4-.275.465-.275a2.812,2.812,0,0,1,.534,0c.594.155.818,1.205.861,2.049l.861,9.615a4.063,4.063,0,0,1-.112,2.083.68.68,0,0,1-.654.327.861.861,0,0,1-.766-.353,4.794,4.794,0,0,1-.439-2.083Z" transform="translate(-29.617 -9.45)" fill="#33c7ca"/>
    <path id="Trazado_112545" data-name="Trazado 112545" d="M266.255,146.256a6.981,6.981,0,0,0-1.541-4.175,4.958,4.958,0,0,0-3.848-1.455,4.235,4.235,0,0,0-3.65,1.489,6.215,6.215,0,0,0-.8,4.227l.861,9.426a7.868,7.868,0,0,0,1.541,4.407,4.8,4.8,0,0,0,3.882,1.575,4.057,4.057,0,0,0,3.658-1.618,6.887,6.887,0,0,0,.766-4.442Zm-5.07,9.469-.835-9.615c-.129-1.351.077-1.661.112-1.722.232-.275.4-.275.465-.275a2.812,2.812,0,0,1,.534,0c.594.155.818,1.205.9,2.049l.861,9.615a4.063,4.063,0,0,1-.112,2.083.68.68,0,0,1-.654.327.861.861,0,0,1-.766-.353,4.8,4.8,0,0,1-.482-2.092Z" transform="translate(-31.449 -9.45)" fill="#33c7ca"/>
    <path id="Trazado_112546" data-name="Trazado 112546" d="M274.6,140.89h-3.1l-.1.31a3.03,3.03,0,0,1-1.007,1.481,3.134,3.134,0,0,1-1.515.68l-.43.06.275,3.082h.422a4.423,4.423,0,0,0,1.506-.275,3.45,3.45,0,0,0,.473-.224l1.412,15.555h3.925Z" transform="translate(-33.136 -9.49)" fill="#33c7ca"/>
    <ellipse id="Elipse_4258" data-name="Elipse 4258" cx="53.094" cy="6.379" rx="53.094" ry="6.379" transform="translate(267.861 353.573)" fill="#ddf2fe"/>
    <path id="Trazado_112547" data-name="Trazado 112547" d="M342.87,282.9l5.328,4.2c2.049-1.971,15.624-9,16.131-14.169a6.318,6.318,0,0,0-1.5-5.208c-2.78-2.737-5.965-2.118-8.453.232C351.659,270.526,342.87,282.9,342.87,282.9Z" transform="translate(-43.495 -26.894)" fill="#164767"/>
    <path id="Trazado_112548" data-name="Trazado 112548" d="M355.262,400.79H351.01l-.37-4.45h4.252Z" transform="translate(-44.577 -45.048)" fill="#e7afa7"/>
    <path id="Trazado_112549" data-name="Trazado 112549" d="M401.472,400.79h-4.261l-1.661-4.45H399.8Z" transform="translate(-50.828 -45.048)" fill="#e7afa7"/>
    <path id="Trazado_112550" data-name="Trazado 112550" d="M367.94,265.371l8.04-.1L372.6,256.1l-4.5,1.145Z" transform="translate(-46.985 -25.527)" fill="#f79889"/>
    <path id="Trazado_112551" data-name="Trazado 112551" d="M380.846,302.6l3.443-34.983a3.443,3.443,0,0,0-3.107-3.641L360.316,265.7a2.935,2.935,0,0,0-3.047,3.133l2.858,33.786Z" transform="translate(-45.499 -26.624)" fill="#164767"/>
    <path id="Trazado_112552" data-name="Trazado 112552" d="M379.584,308.85l-7.962,10.545-15.417,66.213H348.26l10.51-76.757Z" transform="translate(-44.246 -32.87)" fill="#636363"/>
    <path id="Trazado_112553" data-name="Trazado 112553" d="M364.93,308.847l1.894,8.9a4.984,4.984,0,0,0,4.889,4.072h0l17.931,63.768h7.747L381.9,308.83Z" transform="translate(-46.566 -32.867)" fill="#636363"/>
    <path id="Trazado_112554" data-name="Trazado 112554" d="M375.4,249.942a1.455,1.455,0,1,0,1.386-1.532A1.455,1.455,0,0,0,375.4,249.942Z" transform="translate(-48.023 -24.456)" fill="#f79889"/>
    <path id="Trazado_112555" data-name="Trazado 112555" d="M367.007,240.914a4.57,4.57,0,0,0-2.789,1.8,4.433,4.433,0,0,0-.809,2.78h0l.172,5.337a6.084,6.084,0,0,0,5.965,5.957,5.888,5.888,0,0,0,5.509-6.336l-.155-4.915h0S374.565,239.735,367.007,240.914Z" transform="translate(-46.354 -23.391)" fill="#f79889"/>
    <path id="Trazado_112556" data-name="Trazado 112556" d="M375.032,250.07c-2.316,4.545-4.347,1.67-6.8,1.877-2.04.172-3.443,3.013-4.622-.947-.172,6.172,2.8,7.2,5.965,7.084S375.884,256.836,375.032,250.07Z" transform="translate(-46.381 -24.687)" fill="#164767"/>
    <path id="Trazado_112557" data-name="Trazado 112557" d="M348.854,399.17l2.341,1.024,2.178-1.024,1.954,6.37H337.25c0-3.185,6.809-3.185,6.809-3.185Z" transform="translate(-42.713 -45.442)" fill="#164767"/>
    <path id="Trazado_112558" data-name="Trazado 112558" d="M394.834,399.17l2.341,1.024,2.178-1.024,1.954,6.37H383.23c0-3.185,6.809-3.185,6.809-3.185Z" transform="translate(-49.113 -45.442)" fill="#164767"/>
    <path id="Trazado_112559" data-name="Trazado 112559" d="M270.01,249.53a28.845,28.845,0,1,0,39.029-11.87A28.845,28.845,0,0,0,270.01,249.53Zm44.03,23.491a51.147,51.147,0,1,0,0,.009Z" transform="translate(-32.88 -22.486)" fill="#5e6178"/>
    <rect id="Rectángulo_8767" data-name="Rectángulo 8767" width="8.066" height="52.164" transform="translate(281.315 255.165) rotate(-61.93)" fill="#5e6178"/>
    <path id="Trazado_112560" data-name="Trazado 112560" d="M384.44,311.888h0a8.066,8.066,0,0,1-10.915,3.323L348.39,301.8l7.584-14.229,25.144,13.411a8.057,8.057,0,0,1,3.323,10.906Z" transform="translate(-44.264 -29.907)" fill="#6595bf"/>
    <path id="Trazado_112561" data-name="Trazado 112561" d="M374.549,310.612h0a1.894,1.894,0,0,0,2.729-.207l2.419-3.228,2.333-1.153-2.884-2.634-1.085.422a5.5,5.5,0,0,0-2.849,2.471l-1.145,2.092a1.791,1.791,0,0,0,.482,2.238Z" transform="translate(-47.81 -32.11)" fill="#f79889"/>
    <path id="Trazado_112562" data-name="Trazado 112562" d="M384.038,305.4l14.668-12.137-6.37-5-13.256,12.6Z" transform="translate(-48.536 -30.003)" fill="#164767"/>
    <path id="Trazado_112563" data-name="Trazado 112563" d="M393.627,289.685a4.622,4.622,0,1,0,.731-3.466,4.622,4.622,0,0,0-.731,3.466Z" transform="translate(-50.55 -29.44)" fill="#164767"/>
    <path id="Trazado_112564" data-name="Trazado 112564" d="M392.043,286.027l8.324-1.825c-1.369-2.5-8.315-17.741-13.17-19.575a6.3,6.3,0,0,0-5.414.077c-3.374,1.971-3.6,5.208-1.98,8.221C381.558,276.222,392.043,286.027,392.043,286.027Z" transform="translate(-48.501 -26.634)" fill="#164767"/>
    <path id="Trazado_112565" data-name="Trazado 112565" d="M328.75,288.22l.129.413a8.333,8.333,0,0,0,10.7,5.354h0Z" transform="translate(-41.53 -29.998)" fill="#164767"/>
    <path id="Trazado_112566" data-name="Trazado 112566" d="M332.218,287.217a3.366,3.366,0,0,0-3.323.594.585.585,0,0,0,.086.964l4.235,2.307a.577.577,0,0,0,.861-.336,2.91,2.91,0,0,0-1.859-3.529Z" transform="translate(-41.52 -29.83)" fill="#f79889"/>
    <path id="Trazado_112567" data-name="Trazado 112567" d="M329.84,289.15l-1.4-.757a.525.525,0,0,1-.267-.456v-1.067a.861.861,0,0,1,.861-.809h0a.861.861,0,0,1,.861.861Z" transform="translate(-41.449 -29.697)" fill="#f79889"/>
    <path id="Trazado_112568" data-name="Trazado 112568" d="M375.337,239.385a1.412,1.412,0,0,0-.189-.12c-.74-.387-1.2,0-1.92.052a3.694,3.694,0,0,1-2.135-.861,8.074,8.074,0,0,0-2.582-1.567,2.91,2.91,0,0,0-2.763.861c-.585.628-.637,1.567-1.179,2.221-.267.318-.7.362-1.033.6a2.445,2.445,0,0,0-.93,2.866c.069.2.353,1.42.654,1.265.456-.241.456-.861.714-1.317a1.842,1.842,0,0,1,1.92-.646,19.72,19.72,0,0,0,2.092.456,11.353,11.353,0,0,0,2.892-.62,2.354,2.354,0,0,1,2.634.8,2.582,2.582,0,0,1,.1,1.722,3,3,0,0,0,0,2.135,1.622,1.622,0,0,0,2.789-.275,4.113,4.113,0,0,0,.456-1.782,11.43,11.43,0,0,0-.43-4A3.254,3.254,0,0,0,375.337,239.385Z" transform="translate(-46.222 -22.843)" fill="#164767"/>
    <ellipse id="Elipse_4259" data-name="Elipse 4259" cx="53.094" cy="6.379" rx="53.094" ry="6.379" transform="translate(65.926 360.967)" fill="#ddf2fe"/>
    <path id="Trazado_112569" data-name="Trazado 112569" d="M125.735,243.02a8.143,8.143,0,0,0-6.972,1.446c-1.188.973-2.066,2.333-3.443,3.047s-3.064.723-4.3,1.661a4.975,4.975,0,0,0-1.61,4.183c.06,1.549.516,3.056.723,4.6.465,3.521-1.584,5.6-3.684,8.126a11.285,11.285,0,0,0-2.823,5.845,5.724,5.724,0,0,0,2.582,5.63,5.552,5.552,0,0,0,2.488.628c2.109.06,4.115-.809,6.155-1.343s4.4-.689,6.026.594a16.888,16.888,0,0,0,1.394,1.188c1.773,1.179,4.3.232,5.6-1.5s1.515-3.977,1.627-6.112a48.147,48.147,0,0,0-.06-5.793,12.37,12.37,0,0,1,1.214-5.363c.542-1.394,1.412-2.531,1.971-3.908,1.859-4.614-.5-9.822-4.8-12.12A8.443,8.443,0,0,0,125.735,243.02Z" transform="translate(-10.184 -23.671)" fill="#164767"/>
    <path id="Trazado_112570" data-name="Trazado 112570" d="M139.219,291.878l6.112-3.693-9.159-17.474a3.985,3.985,0,0,0-5.767-1.722h0c-2.049,1.308-2.892,5.716-1.549,9.056S139.219,291.878,139.219,291.878Z" transform="translate(-13.614 -27.235)" fill="#33c7ca"/>
    <path id="Trazado_112571" data-name="Trazado 112571" d="M126.958,271.175l-4.9-.8,1.24-8.5,4.9.8Z" transform="translate(-12.759 -26.33)" fill="#f79889"/>
    <path id="Trazado_112572" data-name="Trazado 112572" d="M129.629,250.29c.577,2,2.462,3.512,2.4,5.1l-.155.689v.086h0l-.465,2.075a4.872,4.872,0,1,1-9.469-2.135l.525-2.333C123.578,251.633,127.71,253.131,129.629,250.29Z" transform="translate(-12.71 -24.718)" fill="#f79889"/>
    <path id="Trazado_112573" data-name="Trazado 112573" d="M118.881,297.089l-5.4-23.293a3.211,3.211,0,0,1,3.03-3.693l13.446-1.773a3.194,3.194,0,0,1,3.331,3.443l2.255,25.35Z" transform="translate(-11.56 -27.229)" fill="#9ce5e5"/>
    <path id="Trazado_112574" data-name="Trazado 112574" d="M130.064,301.74l-8.444,13.609,23.569,76.482h4.872s-10.967-79.021-13.48-90.091Z" transform="translate(-12.697 -31.88)" fill="#d9a171"/>
    <path id="Trazado_112575" data-name="Trazado 112575" d="M128.483,301.74c-1.231,37.109-13.558,90.091-13.558,90.091h-4.657c-.095-11.44.671-66.4,1.438-71.249a42.593,42.593,0,0,1,3.03-10.459c1.351-3.116,1.722-5.655,3.7-8.384h10.046Z" transform="translate(-11.116 -31.88)" fill="#d9a171"/>
    <path id="Trazado_112576" data-name="Trazado 112576" d="M151.1,410.394h3.039l-.912-3.994H149.58Z" transform="translate(-16.589 -46.449)" fill="#f79889"/>
    <path id="Trazado_112577" data-name="Trazado 112577" d="M111.395,410.394h3.039l.2-3.994H110.99Z" transform="translate(-11.218 -46.449)" fill="#f79889"/>
    <path id="Trazado_112578" data-name="Trazado 112578" d="M130.387,281.9a4.175,4.175,0,1,0,4.536-3.779A4.175,4.175,0,0,0,130.387,281.9Z" transform="translate(-13.915 -28.589)" fill="#9ce5e5"/>
    <path id="Trazado_112579" data-name="Trazado 112579" d="M130.73,268.41l-1.351,8.883-7.618-7.721Z" transform="translate(-12.717 -27.24)" fill="#f79889"/>
    <path id="Trazado_112580" data-name="Trazado 112580" d="M123.143,255.932a1.722,1.722,0,1,1-.482-1.257A1.722,1.722,0,0,1,123.143,255.932Z" transform="translate(-12.43 -25.255)" fill="#f79889"/>
    <path id="Trazado_112581" data-name="Trazado 112581" d="M154.505,409.16l-1.549.68-2.445-.68-1.291,4.209h12.972c0-2.1-4.5-2.1-4.5-2.1Z" transform="translate(-16.539 -46.833)" fill="#164767"/>
    <path id="Trazado_112582" data-name="Trazado 112582" d="M114.627,409.16l-1.549.68-2.436-.68-1.291,4.209h12.964c0-2.1-4.493-2.1-4.493-2.1Z" transform="translate(-10.989 -46.833)" fill="#164767"/>
    <path id="Trazado_112583" data-name="Trazado 112583" d="M149.984,285.58l.155.413a8.771,8.771,0,0,1-5.389,11.371h0Z" transform="translate(-15.917 -29.63)" fill="#33c7ca"/>
    <path id="Trazado_112584" data-name="Trazado 112584" d="M139.611,302.107l-14.591-1.334,9.262-20.263,14.6,1.334Z" transform="translate(-13.171 -28.925)" fill="#006cff"/>
    <path id="Trazado_112585" data-name="Trazado 112585" d="M147.433,286.586a2.961,2.961,0,0,1,2.582-1.386.517.517,0,0,1,.465.715l-1.722,3.882a.508.508,0,0,1-.757.215A2.582,2.582,0,0,1,147.433,286.586Z" transform="translate(-16.233 -29.577)" fill="#f79889"/>
    <path id="Trazado_112586" data-name="Trazado 112586" d="M150.427,286.558l.56-1.283a.439.439,0,0,0-.069-.456l-.585-.732a.732.732,0,0,0-1.007-.112h0a.723.723,0,0,0-.121,1.016Z" transform="translate(-16.516 -29.386)" fill="#f79889"/>
    <path id="Trazado_112587" data-name="Trazado 112587" d="M133.735,290.075h0a1.722,1.722,0,0,1-1.722,1.8l-3.882-.06-3.185,1.248-.4-3.443,1.911-.775a5.63,5.63,0,0,1,3.538-.663l2.281.336A1.722,1.722,0,0,1,133.735,290.075Z" transform="translate(-13.105 -29.985)" fill="#f79889"/>
    <path id="Trazado_112588" data-name="Trazado 112588" d="M128.15,288.14l2.178.525a.448.448,0,0,0,.465,0l1.093-.671a.723.723,0,0,0,.241-.981h0a.74.74,0,0,0-1-.258Z" transform="translate(-13.606 -29.78)" fill="#f79889"/>
    <path id="Trazado_112589" data-name="Trazado 112589" d="M122.559,293.563l-14.7,6.456-.516-8.651,14.918-1.928Z" transform="translate(-10.71 -30.168)" fill="#33c7ca"/>
    <path id="Trazado_112590" data-name="Trazado 112590" d="M108.649,294.253l-7.119-2.143,9.667-19.093a3.977,3.977,0,0,1,5.724-1.851h0c2.075,1.248,3.021,5.638,1.722,9.013S108.649,294.253,108.649,294.253Z" transform="translate(-9.901 -27.544)" fill="#33c7ca"/>
    <circle id="Elipse_4260" data-name="Elipse 4260" cx="4.132" cy="4.132" r="4.132" transform="translate(91.345 261.949)" fill="#33c7ca"/>
    <path id="Trazado_112591" data-name="Trazado 112591" d="M362.949,116.19l2.909,7.317,7.859.508-6.06,5.027,1.945,7.635-6.654-4.218-6.654,4.218,1.945-7.635-6.06-5.027,7.859-.508Z" transform="translate(-44.791 -6.051)" fill="#d9a171"/>
    <path id="Trazado_112592" data-name="Trazado 112592" d="M395.6,116.19l2.91,7.317,7.859.508-6.06,5.027,1.945,7.635-6.654-4.218-6.654,4.218,1.954-7.635-6.06-5.027,7.85-.508Z" transform="translate(-49.338 -6.051)" fill="#d9a171"/>
    <path id="Trazado_112593" data-name="Trazado 112593" d="M428.259,116.19l2.91,7.317,7.85.508-6.06,5.027,1.954,7.635-6.654-4.218-6.654,4.218,1.945-7.635-6.06-5.027,7.859-.508Z" transform="translate(-53.882 -6.051)" fill="#d9a171"/>
    <rect id="Rectángulo_8768" data-name="Rectángulo 8768" width="57.915" height="50.865" rx="2.68" transform="translate(87.368 151.319)" fill="#d9a171"/>
    <rect id="Rectángulo_8769" data-name="Rectángulo 8769" width="8.797" height="21.098" rx="2.37" transform="translate(97.999 172.082)" fill="#fff"/>
    <path id="Trazado_112594" data-name="Trazado 112594" d="M116.541,192.12a1.42,1.42,0,1,1-1.42-1.42,1.42,1.42,0,0,1,1.42,1.42Z" transform="translate(-11.595 -16.423)" fill="#9ce5e5"/>
    <path id="Trazado_112595" data-name="Trazado 112595" d="M148.194,193.831a2.582,2.582,0,0,0-1.765-2.341,3.5,3.5,0,0,0,1.722-2.849c0-1.9-1.877-3.383-3.882-3.383H137a1.188,1.188,0,0,1-1.128-1.567c.542-1.567,1.627-3.641,1.627-5.1,0-1.9-.267-3.581-1.851-4.846a1.971,1.971,0,0,0-1.808-.439,2.118,2.118,0,0,0-1.24,1.455,12.585,12.585,0,0,0-.31,1.963,7.945,7.945,0,0,1-1.274,3.262,16.009,16.009,0,0,1-2.582,2.488,8.841,8.841,0,0,0-1.911,2.953,3.994,3.994,0,0,1-3.693,2.479H121.44v18.232h20.28c1.618,0,3.374-1.059,3.374-2.582a2.7,2.7,0,0,0-1.059-2.238s2.634-.611,2.634-2.2a2.729,2.729,0,0,0-1.145-2.281S148.194,195.63,148.194,193.831Z" transform="translate(-12.672 -13.994)" fill="#fff"/>
    <rect id="Rectángulo_8770" data-name="Rectángulo 8770" width="66.523" height="29.293" rx="2.68" transform="translate(44.991 114.374)" fill="#aed3f2"/>
    <path id="Trazado_112596" data-name="Trazado 112596" d="M105.273,131.39H72.209a1.549,1.549,0,0,1-1.549-1.541h0a1.558,1.558,0,0,1,1.549-1.549h33.063a1.558,1.558,0,0,1,1.549,1.549h0a1.549,1.549,0,0,1-1.549,1.541Z" transform="translate(-5.604 -7.737)" fill="#fff"/>
    <path id="Trazado_112597" data-name="Trazado 112597" d="M105.273,139.422H72.209a1.549,1.549,0,0,1-1.549-1.541h0a1.549,1.549,0,0,1,1.549-1.541h33.063a1.549,1.549,0,0,1,1.549,1.541h0a1.549,1.549,0,0,1-1.549,1.541Z" transform="translate(-5.604 -8.856)" fill="#fff"/>
    <path id="Trazado_112598" data-name="Trazado 112598" d="M94.031,147.5H72.209a1.549,1.549,0,0,1-1.549-1.541h0a1.549,1.549,0,0,1,1.549-1.541H94.031a1.541,1.541,0,0,1,1.541,1.541h0A1.541,1.541,0,0,1,94.031,147.5Z" transform="translate(-5.604 -9.981)" fill="#fff"/>
    <path id="Trazado_112599" data-name="Trazado 112599" d="M63.435,129.767a2.057,2.057,0,1,1-2.057-2.057,2.057,2.057,0,0,1,2.057,2.057Z" transform="translate(-4.025 -7.655)" fill="#fff"/>
    <path id="Trazado_112600" data-name="Trazado 112600" d="M63.435,137.8a2.057,2.057,0,1,1-2.057-2.057,2.057,2.057,0,0,1,2.057,2.057Z" transform="translate(-4.025 -8.773)" fill="#fff"/>
    <path id="Trazado_112601" data-name="Trazado 112601" d="M63.435,145.837a2.057,2.057,0,1,1-2.057-2.057,2.057,2.057,0,0,1,2.057,2.057Z" transform="translate(-4.025 -9.892)" fill="#fff"/>
    <path id="Trazado_112602" data-name="Trazado 112602" d="M299.349,205.612l-4.287-12.3-11.862,5.4,18.249-42.678,16.149,6.912Z" transform="translate(-35.189 -11.597)" fill="#d9a171"/>
    <path id="Trazado_112603" data-name="Trazado 112603" d="M334.478,205.612l4.287-12.3,11.853,5.4L332.369,156.03l-16.149,6.912Z" transform="translate(-39.786 -11.597)" fill="#d9a171"/>
    <path id="Trazado_112604" data-name="Trazado 112604" d="M313.483,121.44l3.6,3.486,4.493-2.2,2.35,4.425,4.958-.706.861,4.941,4.932.861-.706,4.958,4.433,2.341-2.212,4.5,3.486,3.6-3.486,3.6,2.212,4.493-4.433,2.35.706,4.958-4.932.861-.861,4.932-4.958-.706-2.35,4.424-4.493-2.2-3.6,3.486-3.6-3.486-4.5,2.2-2.341-4.424-4.958.706-.861-4.932-4.941-.861.706-4.958-4.424-2.35,2.2-4.493-3.486-3.6,3.486-3.6-2.2-4.5,4.424-2.341-.706-4.958,4.941-.861.861-4.941,4.958.706,2.341-4.425,4.5,2.2Z" transform="translate(-35.757 -6.782)" fill="#164767"/>
    <circle id="Elipse_4261" data-name="Elipse 4261" cx="17.672" cy="17.672" r="17.672" transform="translate(260.053 123.188)" fill="#fff"/>
    <path id="Trazado_112605" data-name="Trazado 112605" d="M314.288,160.041l-8.238-5.983,2.238-3.271,4.769,3.469,9.607-13.687,3.478,2.574Z" transform="translate(-38.37 -9.445)" fill="#2480ef"/>
  </g>
</svg>
