<svg id="Componente_1_1" data-name="Componente 1 – 1" xmlns="http://www.w3.org/2000/svg" xmlns:xlink="http://www.w3.org/1999/xlink" width="700" height="462" viewBox="0 0 700 462">
  <defs>
    <clipPath id="clip-path">
      <path id="Trazado_113059" data-name="Trazado 113059" d="M275.117,166.206a82.909,82.909,0,0,1-165.817,0c0-45.787,37.121-99.006,82.909-99.006S275.117,120.453,275.117,166.206Z" transform="translate(-109.3 -67.2)" fill="none"/>
    </clipPath>
  </defs>
  <rect id="Rectángulo_8866" data-name="Rectángulo 8866" width="700" height="462" rx="18" fill="#aed3f2" opacity="0.2"/>
  <g id="OBJECTS" transform="translate(-83.397 -42.212)">
    <path id="Trazado_112927" data-name="Trazado 112927" d="M495.88,420.139a332.588,332.588,0,0,1,38.529-16.9c3.289-1.258,6.612-2.389,9.947-3.462s6.681-2.169,10.039-3.208,6.762-1.95,10.154-2.873c1.7-.45,3.393-.935,5.1-1.362l5.135-1.235,5.146-1.154,5.181-1.015,5.181-1.027c1.731-.323,3.462-.589,5.216-.854,3.462-.508,6.923-1.1,10.466-1.431s6.993-.865,10.524-1a176.4,176.4,0,0,1,42.083,1.558,285.473,285.473,0,0,0-41.714,2.192l-2.585.288-2.585.4-5.146.75c-3.462.438-6.854,1.154-10.27,1.742-1.708.335-3.462.577-5.135.935l-5.1,1.062-5.1,1.062-5.066,1.212-5.089,1.154c-1.685.4-3.358.854-5.043,1.281l-5.054,1.315c-1.685.427-3.346.946-5.031,1.385-3.358.923-6.716,1.823-10.039,2.862s-6.693,1.962-10,3.023C522.3,410.931,509.115,415.5,495.88,420.139Z" transform="translate(65.899 52.145)" fill="#b0bdd1"/>
    <path id="Trazado_112934" data-name="Trazado 112934" d="M414.017,354.53c-6.554,7.789-12.5,20.7-16.155,22.755s-9.981,2.758-15.82,21.636,23.794,16.328,23.794,16.328,12.693-7.293,17.816-24.9l12.693-11.262Z" transform="translate(48.261 47.608)" fill="#f6a397"/>
    <path id="Trazado_112935" data-name="Trazado 112935" d="M389.793,410.346a47.552,47.552,0,0,0,17.759-11.735c8.181-8.631,9.231-24,9.231-24l3.923,7.316,7.835-8.366,3.773-.369,2.781,3.069L422.4,387.522c-5.123,17.609-17.816,24.9-17.816,24.9a47.022,47.022,0,0,1-15.116-1.373C389.655,410.623,389.793,410.346,389.793,410.346Z" transform="translate(49.521 50.48)" fill="#d65863"/>
    <path id="Trazado_112936" data-name="Trazado 112936" d="M455.383,295.8c-9.093,6.647-14.516,11.47-19.04,20.505s-32.84,41.541-34.617,44.414,15.924,33.637,30.106,41.172c0,0,21.428-24.717,33.775-34.052s8.077-42.487,2.412-53.634A86.959,86.959,0,0,0,455.383,295.8Z" transform="translate(51.389 38.569)" fill="#6595bf"/>
    <path id="Trazado_112937" data-name="Trazado 112937" d="M452.527,350.1V331.637s2.412-.958,4.281,5.273a17.078,17.078,0,0,1,.358,7.362l13.789-10.385c.577,11.608-1.292,23.424-7.9,28.421-12.347,9.335-33.775,34.052-33.775,34.052a45,45,0,0,1-11.285-9.589C426.714,378.105,443.261,361.339,452.527,350.1Z" transform="translate(53.911 44.077)" fill="#5885ad"/>
    <path id="Trazado_112938" data-name="Trazado 112938" d="M372.1,400.87c-2.308.739-4.1,1.869-4.1,4.835s.508,7.7,1.639,9.531,6.923,2.954,6.923,2.954-.392-12.278-1.615-14.528A5.77,5.77,0,0,0,372.1,400.87Z" transform="translate(46.217 54.741)" fill="#f6a397"/>
    <path id="Trazado_112939" data-name="Trazado 112939" d="M369.528,413.606a8.215,8.215,0,0,1-.808-2.146,3.981,3.981,0,0,0,3.243,1.419l4.419,1.373c.069,1.385.092,2.308.092,2.308S370.659,415.453,369.528,413.606Z" transform="translate(46.328 56.371)" fill="#d65863"/>
    <path id="Trazado_112940" data-name="Trazado 112940" d="M377.27,397c-2.873.312-5.77,2.458-5.77,5.435s-1.027,11.274,0,12.6,6.047,5.123,7.789,5.435,4.708-.208,4.3-1.154S377.27,397,377.27,397Z" transform="translate(46.685 54.145)" fill="#f6a397"/>
    <path id="Trazado_112941" data-name="Trazado 112941" d="M371.08,410.68c2.181,2.458,7.743,2.239,7.743,2.239a21.924,21.924,0,0,1,2.746,3.462c.185.508,1.154,1.154,1.327,1.685a7.893,7.893,0,0,1-3.589.288c-1.708-.3-6.554-3.946-7.708-5.343l-.519-2.308Z" transform="translate(46.691 56.25)" fill="#d65863"/>
    <path id="Trazado_112942" data-name="Trazado 112942" d="M387.2,392.73c-8.8.5-10.443,1.315-10.743,4.9s-.1,14.043,1.015,16.709,1.742,5.02,3.185,6.45a5.561,5.561,0,0,0,3.577,1.442s4.823-7.073,5.031-13.016S387.2,392.73,387.2,392.73Z" transform="translate(47.499 53.488)" fill="#f6a397"/>
    <path id="Trazado_112943" data-name="Trazado 112943" d="M382.009,415.009a53.183,53.183,0,0,0,1.569-13.178c0-3.058,2.885,12.924,1.615,17.309-.635,1.085-1.085,1.754-1.085,1.754a5.562,5.562,0,0,1-3.577-1.442c-1.442-1.431-2.054-3.785-3.185-6.45a6.549,6.549,0,0,1-.208-.623C377.717,413.878,379.54,414.859,382.009,415.009Z" transform="translate(47.624 54.829)" fill="#d65863"/>
    <path id="Trazado_112944" data-name="Trazado 112944" d="M405.515,411.136c-.554,4.893-6.923,6.658-7.685,9.116s-.208,4.72-1.442,5.331-6.347-2.25-6.15-5.527a6.381,6.381,0,0,1-4.3,3.277c-2.966.508-3.681-1.662-3.173-4.927a41.885,41.885,0,0,0,.312-8.908c-.1-3.9-1.027-7.477.715-11.781s4.1-8.077,8.816-7.385,7.581,6.658,10.143,8.712S406.138,405.7,405.515,411.136Z" transform="translate(48.465 53.106)" fill="#f6a397"/>
    <path id="Trazado_112945" data-name="Trazado 112945" d="M389.22,418.794c.288-6.231.612-11.331.612-12.335s-.323-7.616,2.031-8.008c.358-.069,5.527,3.208,5.62,5.423s0,6.173-1.6,7.3S389.22,418.794,389.22,418.794Z" transform="translate(49.483 54.368)" fill="#d65863"/>
    <path id="Trazado_112946" data-name="Trazado 112946" d="M594.4,312.718c-9.347-11.9-12.555-13.051-22.2-18.682s-46.157-19.893-53.738-21.705-37.918,12.335-47.876,16.882-22.651,8.966-24.821,13.374c-7.235,14.747,7.1,35.644,7.177,79.435,0,22.94,5.262,74.52,5.262,74.52s114.814.208,116.418-2.2,5.585-84.767,7.616-101.591S594.4,312.718,594.4,312.718Z" transform="translate(57.872 34.932)" fill="#6595bf"/>
    <path id="Trazado_112947" data-name="Trazado 112947" d="M446.179,320.812a56.329,56.329,0,0,1-1.8-8.435,57.585,57.585,0,0,1-.669-8.6,56.055,56.055,0,0,1,1.812,8.435A59.155,59.155,0,0,1,446.179,320.812Z" transform="translate(57.87 39.797)" fill="#314ec6"/>
    <path id="Trazado_112948" data-name="Trazado 112948" d="M485.381,304.824c-4.431-1.662-14.943,1.223-16.859,1.892s1.154-7.547,2.308-8.562,2.931-3.393,6.4-2.308,6.37,5.043,6.923,6.347A18.613,18.613,0,0,0,485.381,304.824Z" transform="translate(61.594 38.533)" fill="#314ec6"/>
    <path id="Trazado_112949" data-name="Trazado 112949" d="M519.343,311.36c-1.581-.081-10.8-4.327-13.016-5.377s-12.22-1.546-18.947.335c0,0,12.947-8.747,20.482-8.677s10.385,2.792,11,5.2a50.159,50.159,0,0,1,.485,8.516Z" transform="translate(64.591 38.852)" fill="#314ec6"/>
    <path id="Trazado_112950" data-name="Trazado 112950" d="M474.856,430.569c1.235-1.154,76.216,1.212,77.716-6.623s2.55-22.086,2.55-22.086c-9.024,4.823-22.132,2.816-22.132,2.816,8.735-2.862,21.394-17.193,21.994-21.417,1.858-12.993-5.089-48.822-5.089-48.822l5.089-10.235,5.954-3.312a82.561,82.561,0,0,1,20.932,15.959,84.412,84.412,0,0,0-1.489,8.343c-1.892,15.913-5.573,90.005-7.327,100.471-23.228.854-65.323,2.4-93.467,3.358H456.359s-.173-6.785-.589-16.513C463.605,432.07,474.094,431.32,474.856,430.569Z" transform="translate(59.726 42.431)" fill="#5885ad"/>
    <path id="Trazado_112951" data-name="Trazado 112951" d="M488.362,311c8.077-.981,21.094-7.985,26.217-5.573s6.323,8.585,7.385,9.635,5.573-4.212,5.573-17.17.392-26.228-9.151-28.029-34.248,7.535-39.233,11.308a23.493,23.493,0,0,0-8.435,11.239c-1.35,3.669-4.973,18.463-3.312,18.59s6.323-9.5,9.8-9.8S486.17,311.263,488.362,311Z" transform="translate(61.451 34.541)" fill="#5885ad"/>
    <path id="Trazado_112952" data-name="Trazado 112952" d="M482.087,298.035c-2.065-4.893-4.327-9.231-4.246-12.578s.831-5.77,4.616-6.773,5.354.981,5.573,6.093S482.087,298.035,482.087,298.035Z" transform="translate(63.122 35.896)" fill="#314ec6"/>
    <path id="Trazado_112953" data-name="Trazado 112953" d="M507.12,290.13c7.87-7.143,8.758-15.128,8.077-16.778s-3.993-2.862-3.993-2.862-1.281,5.193-.531,6.473S507.12,290.13,507.12,290.13Z" transform="translate(67.629 34.673)" fill="#314ec6"/>
    <path id="Trazado_112954" data-name="Trazado 112954" d="M496.25,304.405a39.7,39.7,0,0,1,5.966-2.089,20.769,20.769,0,0,1,6.347-.75,5.769,5.769,0,0,1,3.208,1.073c.854.808,1.5,1.535,2.227,2.308a24.637,24.637,0,0,1,3.335,5.47,2.585,2.585,0,0,0,.658.981l.173-.069a2.608,2.608,0,0,0,.439-.438,17.83,17.83,0,0,0,1.535-2.608,21.313,21.313,0,0,0,1.858-5.839,50.2,50.2,0,0,0,.762-6.2c.185-2.089.242-4.177.277-6.277a54.387,54.387,0,0,1-.162,12.624,20.505,20.505,0,0,1-1.754,6.173,17.224,17.224,0,0,1-1.639,2.827,4.055,4.055,0,0,1-.669.669,1.6,1.6,0,0,1-.565.254,1.154,1.154,0,0,1-.739-.081,2.054,2.054,0,0,1-.785-.75,7.231,7.231,0,0,1-.427-.75,23.691,23.691,0,0,0-3.139-5.285,30.458,30.458,0,0,0-2.031-2.308,5.123,5.123,0,0,0-2.654-.981,20.528,20.528,0,0,0-6.139.427A50.978,50.978,0,0,0,496.25,304.405Z" transform="translate(65.956 37.672)" fill="#314ec6"/>
    <path id="Trazado_112955" data-name="Trazado 112955" d="M482.267,300.677a25.622,25.622,0,0,0-2.689-2.192,8.217,8.217,0,0,0-1.431-.831,3.256,3.256,0,0,0-.715-.208,1.154,1.154,0,0,0-.289,0c-.069,0-.115,0-.254.127a15.843,15.843,0,0,0-4.743,4.731c-.658.912-1.223,1.95-2,2.9a8.34,8.34,0,0,1-1.315,1.315,1.985,1.985,0,0,1-1.027.473,1.073,1.073,0,0,1-.762-.242,1.223,1.223,0,0,1-.346-.554,4.616,4.616,0,0,1-.092-1.915c.081-.6.185-1.154.312-1.754a30.313,30.313,0,0,1,1.027-3.346c-.161,1.154-.369,2.308-.461,3.462a14.113,14.113,0,0,0-.115,1.7,4.028,4.028,0,0,0,.173,1.546.463.463,0,0,0,.1.162h.058a1.292,1.292,0,0,0,.508-.3,6.845,6.845,0,0,0,1.085-1.154c.669-.877,1.223-1.881,1.9-2.873a17.89,17.89,0,0,1,2.308-2.735,12.333,12.333,0,0,1,2.919-2.1,1.811,1.811,0,0,1,.531-.208,1.936,1.936,0,0,1,.577,0,3.209,3.209,0,0,1,.935.346,8.712,8.712,0,0,1,1.465,1.073,18.652,18.652,0,0,1,2.331,2.585Z" transform="translate(61.385 38.7)" fill="#314ec6"/>
    <path id="Trazado_112956" data-name="Trazado 112956" d="M480.56,274.393a93.566,93.566,0,0,0,.473,9.52c.819,7.777,0,18.024.635,19.9.681,2.112,4.754,9.647,4.754,9.647s7.235-3.312,10.247-6.923,6.923-3.8,12.2-9.127,8.862-13.847,7.685-20.851c-.15-.9-1.073-9.924-1.281-19.27s-10.016-16.432-19.363-16.432-14.932,13.847-15.22,23.194C480.572,267.885,480.549,271.485,480.56,274.393Z" transform="translate(63.541 30.113)" fill="#f6a397"/>
    <path id="Trazado_112957" data-name="Trazado 112957" d="M515.27,256.949c.208,9.347,1.154,18.37,1.281,19.27a18.845,18.845,0,0,1-.185,6.808c-2.066.381-28.675,1.027-35.564-2.181-.162-2.308-.231-4.523-.242-6.785,0-2.908,0-6.508.127-10.385a35.181,35.181,0,0,1,3.116-12.912l21.924-7.754C511.069,245.906,515.143,250.96,515.27,256.949Z" transform="translate(63.541 30.444)" fill="#d65863"/>
    <path id="Trazado_112958" data-name="Trazado 112958" d="M468.952,221.38c-14.135,0-19.432,10.858-19.432,19,0,7.293,2.308,18.993,19.432,18.993,8.539,0,14.32-8.5,14.32-18.993S477.491,221.38,468.952,221.38Z" transform="translate(58.764 27.115)" fill="#504984"/>
    <path id="Trazado_112959" data-name="Trazado 112959" d="M467.776,225.41c-10.674,0-14.666,8.2-14.666,14.355,0,5.5,1.765,14.343,14.666,14.343,6.45,0,10.812-6.427,10.812-14.343S474.227,225.41,467.776,225.41Z" transform="translate(59.316 27.735)" fill="#372d5b"/>
    <path id="Trazado_112960" data-name="Trazado 112960" d="M450.982,232.763c.842,4.95,3.289,6.843,4.385,13.524s-1.823,16.374,2.527,24.832,11.4,19.559,15.474,20.032,36.648-5.043,47.645-26.909c3.162-6.277,9.9-30.879,4.131-45.914s-15.163-28.848-36.856-29.217S446.563,206.512,450.982,232.763Z" transform="translate(58.894 22.147)" fill="#f6a397"/>
    <path id="Trazado_112961" data-name="Trazado 112961" d="M466.941,250.862a3.854,3.854,0,0,0,3.012-1.154,3.046,3.046,0,0,0,.554-2.308,6.923,6.923,0,0,1-5.862,1.269C464.391,250.158,465.591,250.827,466.941,250.862Z" transform="translate(61.086 31.12)" fill="#d65863"/>
    <path id="Trazado_112962" data-name="Trazado 112962" d="M508.952,235.705a14.6,14.6,0,0,0-4.27-8.077s-8.3-3.462-14.712-4.073a83.921,83.921,0,0,1-12.982-2.5s2.031,5.158,5.47,7.35c0,0-15.336-.773-20.182-5.308,0,0,.935,3.739,1.881,6.243,0,0-7.512-.773-9.866-3.739,0,0-1.881,6.543-1.881,10.154,0,0-9.024-12.347-6.727-22.155s5.423-13.57,5.423-13.57a49.1,49.1,0,0,1-10.016,0s8.354-7.293,14.609-12.093,25.04-5.008,25.04-5.008-1.465-5.008.208-12.935c0,0,8.077,11.781,16.536,15.382s7.362,3.3,16.374,5.573,17.586,8.077,21.186,12.889,7.512,9.866,9.854,10.651c0,0-5.631-.785-8.447-3.139,0,0,4.7,10.674-1.512,24.405s-21.763,9.67-24.775,6.635a5.885,5.885,0,0,1-1.212-6.681Z" transform="translate(57.466 19.205)" fill="#ba6454"/>
    <path id="Trazado_112963" data-name="Trazado 112963" d="M501.923,239.97a5.885,5.885,0,0,1-1.212-6.635,14.609,14.609,0,0,0-3.023-6.773A91.712,91.712,0,0,0,495,185.39a46,46,0,0,0,7.12,2.308,77.311,77.311,0,0,1,9.427,20.447c2.723,9.093,4.05,18.913,1.5,28.052a30.323,30.323,0,0,1-2.8,6.762C506.331,242.636,503.077,241.193,501.923,239.97Z" transform="translate(65.764 21.575)" fill="#874438"/>
    <path id="Trazado_112964" data-name="Trazado 112964" d="M506.888,228.564s1.073-34.329-16.928-45.28a23.494,23.494,0,0,1,21.97,12.37c7.974,13.928,7.443,25.871,7.235,32.563S506.888,228.564,506.888,228.564Z" transform="translate(64.988 21.246)" fill="#504984"/>
    <path id="Trazado_112965" data-name="Trazado 112965" d="M511.29,221.38c14.135,0,19.432,10.858,19.432,19,0,7.293-2.308,18.993-19.432,18.993-8.539,0-14.32-8.5-14.32-18.993S502.774,221.38,511.29,221.38Z" transform="translate(66.067 27.115)" fill="#504984"/>
    <path id="Trazado_112966" data-name="Trazado 112966" d="M502.78,240.1c0-9.324,6.15-16.87,13.732-16.87s13.316,7.547,13.316,16.87-5.77,16.859-13.316,16.859S502.78,249.412,502.78,240.1Z" transform="translate(66.961 27.399)" fill="#372d5b"/>
    <ellipse id="Elipse_4262" data-name="Elipse 4262" cx="9.347" cy="11.481" rx="9.347" ry="11.481" transform="translate(575.938 256.018)" fill="#504984"/>
    <path id="Trazado_112967" data-name="Trazado 112967" d="M480.646,254.31c-3.819,2.1-16.293,2.8-17.147,2.689s.9,9.347,3.958,9.7,9.162-.473,11.712-2.919S480.646,254.31,480.646,254.31Z" transform="translate(60.882 32.183)" fill="#d65863"/>
    <path id="Trazado_112968" data-name="Trazado 112968" d="M479.721,256.989l-.6-2.169c-4.2,1.431-12.474,2.042-15,2.1a17.307,17.307,0,0,0,1.1,3.808c.081,0,0,.127.058.069A18.567,18.567,0,0,0,479.721,256.989Z" transform="translate(61.011 32.262)" fill="#fff"/>
    <path id="Trazado_112969" data-name="Trazado 112969" d="M476.87,235.1c0-1.731.854-3.127,1.9-3.127s1.9,1.4,1.9,3.127-.842,3.127-1.9,3.127S476.87,236.828,476.87,235.1Z" transform="translate(62.973 28.745)" fill="#3f1751"/>
    <path id="Trazado_112970" data-name="Trazado 112970" d="M458,236.419c0-1.731.739-3.139,1.639-3.139s1.639,1.408,1.639,3.139-.727,3.127-1.639,3.127S458,238.08,458,236.419Z" transform="translate(60.069 28.946)" fill="#3f1751"/>
    <path id="Trazado_112971" data-name="Trazado 112971" d="M488.377,224.428a19.813,19.813,0,0,0-8.6-2.308,10.951,10.951,0,0,0-4.616.45,8.469,8.469,0,0,0-3.785,2.642l.115.185c1.569-.173,2.873-.554,4.246-.739s2.631-.692,4.039-.808a24.347,24.347,0,0,1,8.47.762Z" transform="translate(62.128 27.217)" fill="#3f1751"/>
    <path id="Trazado_112972" data-name="Trazado 112972" d="M453.234,227.985a8.412,8.412,0,0,1,2.112-.508,18.524,18.524,0,0,1,2.112-.138,9.232,9.232,0,0,0,2.1.069,5.506,5.506,0,0,0,1.073-.288,4.5,4.5,0,0,0,1.154-.565v-.219a4.108,4.108,0,0,0-2.227-1.154,5.227,5.227,0,0,0-2.308.381,10.629,10.629,0,0,0-2.216.819,7.294,7.294,0,0,0-1.9,1.373Z" transform="translate(59.319 27.698)" fill="#3f1751"/>
    <path id="Trazado_112973" data-name="Trazado 112973" d="M480.439,425c0,.485-.669,1.154-2.308,1.154H425.848c-6.023,0-7.431-2.377-5.62-5.389s9.439-9.647,28.317-14.262,28.848,6.173,31.883,11.043C482.69,421.1,480.439,425,480.439,425Z" transform="translate(54.142 55.434)" fill="#504984"/>
    <path id="Trazado_112974" data-name="Trazado 112974" d="M419.787,421.047c1.039,3.462,40.918,1.65,40.918,1.65s-4.05-5.458-8.516-5.608-6.647,1.4-12.635,2.423S438,417.078,438,417.078s-4.235-.946-5.954-2.308c0,0,9.878-2.919,14.02-3.6s14.689-.231,16.039,0c.969.162,5.827-2.666,11.712-1.246a26.112,26.112,0,0,1,6.624,6.923c2.25,3.566,0,7.431,0,7.431,0,.485-.669,1.154-2.308,1.154H425.846C420.445,425.536,418.772,423.62,419.787,421.047Z" transform="translate(54.144 56.072)" fill="#372d5b"/>
    <path id="Trazado_112975" data-name="Trazado 112975" d="M589.032,397.609s-37.156,5.77-57.3,9.358c-19.086,3.462-35.564,4.893-40.225,3.993s-20.644-6.785-25.767-8.9-15.37-3.312-20.643-1.65-9.589,3.462-11.7,3.462-1.708,3.462,1.154,4.119a20.946,20.946,0,0,0,5.32.6s-9.543,5.227-11.251,5.77.323,3.623,2.631,3.462c0,0-2.031,1.212-1.327,2.412s5.77,1.212,5.77,1.212-6.127,3.012-1.015,4.212,11.251-4.523,13.766-5.02,8.343-.2,11.147,1.9,14.874,11.851,31.34,6.035c0,0,111.814,4.523,122.961,4.523s17.886-9.854,14.309-28.848A143.979,143.979,0,0,0,617.6,371l-38.564,2.712Z" transform="translate(55.449 50.143)" fill="#f6a397"/>
    <path id="Trazado_112976" data-name="Trazado 112976" d="M445.87,401.054a14.36,14.36,0,0,1,2.308-.4Z" transform="translate(58.202 54.707)" fill="#d65863"/>
    <path id="Trazado_112977" data-name="Trazado 112977" d="M439.188,403.988a20.943,20.943,0,0,1-5.32-.6,3.266,3.266,0,0,1-1.789-1.154c3.127,1.385,6.923.508,9.081,0,1.327-.312,4.616-.912,6.831-1.3A51.506,51.506,0,0,0,439.188,403.988Z" transform="translate(56.08 54.75)" fill="#d65863"/>
    <path id="Trazado_112978" data-name="Trazado 112978" d="M438.67,407.532a5.419,5.419,0,0,1,.577-.242Z" transform="translate(57.094 55.729)" fill="#d65863"/>
    <path id="Trazado_112979" data-name="Trazado 112979" d="M428.51,410.942s1.154,1,3.462,0c1.927-.842,6.623-2.769,8.262-3.462-2.054.935-7.639,4.073-9.116,4.616a3.208,3.208,0,0,1-2.608-1.154Z" transform="translate(55.53 55.758)" fill="#d65863"/>
    <path id="Trazado_112980" data-name="Trazado 112980" d="M433.993,414.326c1.708-.508,5.273-2.666,7.454-3.693a14.918,14.918,0,0,1,4.973-1.154,10.247,10.247,0,0,0-3.012,1.154c-2.181,1.073-8.17,4.8-8.17,4.8a18.876,18.876,0,0,1-4.87-.623,14.549,14.549,0,0,0,3.623-.485Z" transform="translate(55.816 56.066)" fill="#d65863"/>
    <path id="Trazado_112981" data-name="Trazado 112981" d="M463.221,416.626c3.162,1.962,12.508,4.523,18.082,3.462a8.47,8.47,0,0,0,6.773-5.77l1.615,5.066s77.543,2.216,93.317,1.512c15.589-.7,39.9-1.062,43.076-10.385-.865,10.87-6.75,16.455-15.151,16.455-11.147,0-122.961-4.523-122.961-4.523-16.466,5.77-28.525-3.923-31.34-6.035-2.308-1.754-6.75-2.25-9.612-2.089h0C451.232,412.795,460.059,414.664,463.221,416.626Z" transform="translate(58.379 56.224)" fill="#d65863"/>
    <path id="Trazado_112982" data-name="Trazado 112982" d="M567.97,395.573s14.528-1.973,17.447-2.308L583.2,384.23l-18.382,3.716Z" transform="translate(76.51 52.179)" fill="#d65863"/>
    <path id="Trazado_112983" data-name="Trazado 112983" d="M611.185,382.621a3.785,3.785,0,0,1-.888,4.073c-6.75,6.589-15.612,15.566-24.728,16.951-9.947,1.512-26.54,2.112-27.429,0s-4.212-28.929-10.247-42.487-9.935-20.493-11.447-28.329,12.058-26.217,18.082-27.694,19.882-2.412,25.617,2.712,9.935,24.705,16.57,39.475C602.057,359.208,608.784,376.424,611.185,382.621Z" transform="translate(72.125 39.826)" fill="#6595bf"/>
    <path id="Trazado_112984" data-name="Trazado 112984" d="M573.577,304.9c-1.835-.208-3.681-.369-5.527-.4a55.153,55.153,0,0,0-5.527,0,47.566,47.566,0,0,0-5.458.623c-.912.138-1.8.346-2.689.554a12.693,12.693,0,0,0-2.435.992,16.575,16.575,0,0,0-2.308,1.431c-.681.6-1.4,1.154-2.019,1.812a36.049,36.049,0,0,0-3.566,4.143,53.106,53.106,0,0,0-3.058,4.616c-.981,1.569-1.858,3.2-2.7,4.858a46.157,46.157,0,0,1,5.031-9.97,30.711,30.711,0,0,1,3.462-4.408,25.659,25.659,0,0,1,2.1-1.927,16.546,16.546,0,0,1,2.412-1.558,13.141,13.141,0,0,1,2.712-1.073c.923-.2,1.835-.415,2.769-.531a35.292,35.292,0,0,1,5.608-.427A45.291,45.291,0,0,1,573.577,304.9Z" transform="translate(72.427 39.774)" fill="#314ec6"/>
    <path id="Trazado_112985" data-name="Trazado 112985" d="M597.241,386.75c0-4.812-10.224-48.949-19.2-73.55h0c3.819,8.4,7.385,21.832,12.255,32.679,5.343,11.908,12.07,29.125,14.47,35.321a3.785,3.785,0,0,1-.889,4.073c-2.585,2.527-5.481,5.4-8.585,8.077C595.522,393.109,597.287,391.251,597.241,386.75Z" transform="translate(78.545 41.247)" fill="#5885ad"/>
    <path id="Trazado_112988" data-name="Trazado 112988" d="M181.19,344.006a7.42,7.42,0,0,0,1.927,1.915,10.9,10.9,0,0,0,1.154.623,4.616,4.616,0,0,1,1.154.762l.15.127.127-.2c.3-.462.669-.888.958-1.362s.577-.946.831-1.431a11.32,11.32,0,0,0,1.027-3.185h-.092a10.9,10.9,0,0,0-1.9,2.735c-.242.5-.439,1.016-.646,1.523s-.323,1.073-.508,1.592l.277-.069a4.616,4.616,0,0,1-1.062-.831,12.679,12.679,0,0,0-.946-.981,7.466,7.466,0,0,0-2.4-1.269Z" transform="translate(17.464 45.566)" fill="#ffa6a4"/>
    <path id="Trazado_112989" data-name="Trazado 112989" d="M181.86,353.459c.542.45,1.154.935,1.7,1.35a14.317,14.317,0,0,0,1.835,1.154c.658.312,1.35.565,1.985.912a13.293,13.293,0,0,1,1.765,1.258l.208.162.2-.265a31.872,31.872,0,0,0,2.308-3.6,21.439,21.439,0,0,0,1.673-3.958h-.081a22.319,22.319,0,0,0-2.527,3.462,32.022,32.022,0,0,0-1.881,3.843l.4-.1a12.823,12.823,0,0,1-1.916-1.05c-.588-.4-1.154-.912-1.708-1.35a12.692,12.692,0,0,0-1.869-1.154,8.262,8.262,0,0,0-2.077-.762Z" transform="translate(17.567 46.983)" fill="#ffa6a4"/>
    <path id="Trazado_112990" data-name="Trazado 112990" d="M185.21,365.6a9.035,9.035,0,0,0,1.95,1.454,7.478,7.478,0,0,0,2.227.877,5.77,5.77,0,0,1,2.146,1.039c.635.485,1.269,1.015,1.9,1.431l.485.323.358-.542a15.432,15.432,0,0,0,1.385-2.492,13.523,13.523,0,0,0,.889-2.758l-.115-.058a13.421,13.421,0,0,0-1.846,2.227,15,15,0,0,0-1.362,2.5l.842-.219a14.542,14.542,0,0,0-2.308-.9,6.509,6.509,0,0,1-2.1-1.154A6.843,6.843,0,0,0,187.6,366.1a8.456,8.456,0,0,0-2.377-.6Z" transform="translate(18.083 49.2)" fill="#ffa6a4"/>
    <path id="Trazado_112993" data-name="Trazado 112993" d="M214.934,329.5a8.02,8.02,0,0,0-3.335,2.654,10.492,10.492,0,0,1-1.246,1.731,15.608,15.608,0,0,1-1.627,1.385h.738c-.254-.542-.554-1.039-.842-1.558a13.845,13.845,0,0,0-.923-1.477c-.323-.485-.692-.946-1.038-1.408s-.75-.9-1.073-1.385h-.127a5.1,5.1,0,0,0,.369,1.835,11.618,11.618,0,0,0,.762,1.627,11.452,11.452,0,0,0,.969,1.5,14.39,14.39,0,0,0,1.154,1.385l.462.485.277-.438a11.446,11.446,0,0,1,1.154-1.742,8.388,8.388,0,0,1,1.639-1.339,7.848,7.848,0,0,0,1.489-1.477,12.993,12.993,0,0,0,1.246-1.731Z" transform="translate(21.2 43.747)" fill="#ffa6a4"/>
    <path id="Trazado_112994" data-name="Trazado 112994" d="M205.84,343.368a9.892,9.892,0,0,0,1.154,1.962,14.5,14.5,0,0,0,1.431,1.719c.531.508,1.154.946,1.731,1.419a9.574,9.574,0,0,1,1.512,1.615l.15.185.2-.162a17.3,17.3,0,0,0,1.95-1.789c.554-.635,1.154-1.246,1.673-1.915s1.027-1.35,1.489-2.054.9-1.442,1.385-2.135l-.069-.1a8.909,8.909,0,0,0-2.1,1.569,20.777,20.777,0,0,0-1.754,1.881c-.542.658-1,1.373-1.512,2.054s-.912,1.489-1.373,2.077h.346a9.116,9.116,0,0,1-1.535-1.592c-.427-.6-.819-1.246-1.269-1.823a16.62,16.62,0,0,0-1.535-1.592,14.917,14.917,0,0,0-1.731-1.419Z" transform="translate(21.258 45.697)" fill="#ffa6a4"/>
    <path id="Trazado_112995" data-name="Trazado 112995" d="M222.526,354.085c-.785.923-1.592,1.766-2.435,2.585s-1.731,1.523-2.6,2.308a8.365,8.365,0,0,1-3.035,1.766,11.241,11.241,0,0,1-3.462.392l.519.369a22.808,22.808,0,0,0-.831-2.827,15.659,15.659,0,0,0-1.154-2.7,13.1,13.1,0,0,0-1.719-2.435,6.611,6.611,0,0,0-2.423-1.742v.115a9.23,9.23,0,0,1,1.742,2.192,26.439,26.439,0,0,1,1.3,2.469l1.154,2.562c.381.865.715,1.765,1.05,2.631l.162.415h.358a20.274,20.274,0,0,0,3.554-1.015,32.413,32.413,0,0,0,3.4-1.4,9.1,9.1,0,0,0,2.862-2.308,9.3,9.3,0,0,0,1.789-3.219Z" transform="translate(21.189 47.188)" fill="#ffa6a4"/>
    <path id="Trazado_112996" data-name="Trazado 112996" d="M200.826,361.883a7.062,7.062,0,0,0-.485,2.9,9.6,9.6,0,0,0,.542,2.908,10.387,10.387,0,0,0,1.5,2.539l1.731,2.308.127.162.208-.15a28.678,28.678,0,0,1,3.023-1.708c1.027-.542,2.077-1.015,3.139-1.465s2.1-.912,3.185-1.315,2.192-.8,3.312-1.223v-.115a16.536,16.536,0,0,0-7.016,1.419,22.639,22.639,0,0,0-3.15,1.754,21.237,21.237,0,0,0-2.781,2.308h.323a8.39,8.39,0,0,1-1.6-2.308,19.986,19.986,0,0,1-.912-2.608,20.968,20.968,0,0,1-.992-5.423Z" transform="translate(20.411 48.736)" fill="#ffa6a4"/>
    <path id="Trazado_112999" data-name="Trazado 112999" d="M407.111,415.62H295.851a2.019,2.019,0,0,0-2.031,2.019v4.939a2.019,2.019,0,0,0,2.031,2.019h111.26Z" transform="translate(34.799 57.011)" fill="#282142"/>
    <path id="Trazado_113000" data-name="Trazado 113000" d="M420.884,421.826v2.008a.785.785,0,0,1-.785.773H392.071a1.569,1.569,0,0,1-1.581-1.569v-5.827a1.569,1.569,0,0,1,1.754-1.569l27.936,5.412a.785.785,0,0,1,.7.773Z" transform="translate(49.678 57.012)" fill="#504984"/>
    <path id="Trazado_113001" data-name="Trazado 113001" d="M224.921,251.72h207.97a9.969,9.969,0,0,1,9.381,6.6l45.488,126.309c1.9,6.508-2.862,11.389-10.524,12.22-1.154.115-6.762-2.389-15.532-6.52H275.786a9.97,9.97,0,0,1-9.393-6.589L225.3,269.64l-10.9-5.7S211.824,251.72,224.921,251.72Z" transform="translate(22.544 31.784)" fill="#504984"/>
    <path id="Trazado_113002" data-name="Trazado 113002" d="M426.377,257.36H218.419a4.269,4.269,0,0,0-4.016,5.712l45.487,126.307a9.97,9.97,0,0,0,9.381,6.6h207.97a4.269,4.269,0,0,0,4.016-5.712L435.77,263.96A9.982,9.982,0,0,0,426.377,257.36Z" transform="translate(22.538 32.652)" fill="#372d5b"/>
    <path id="Trazado_113003" data-name="Trazado 113003" d="M363.288,382.058l-9.231-34.248L319.07,382.058Z" transform="translate(38.686 46.574)" fill="#282142"/>
    <path id="Trazado_113004" data-name="Trazado 113004" d="M313.523,296.857c.912,5.654,4.616,7.927,8.943,7.927a6.75,6.75,0,0,0,6.923-7.927,9.531,9.531,0,0,0-8.943-7.916,6.762,6.762,0,0,0-6.923,7.916Z" transform="translate(37.817 37.512)" fill="#504984"/>
    <path id="Trazado_113005" data-name="Trazado 113005" d="M398.567,360.261l-2.677-7.431h3.358l2.677,7.431Z" transform="translate(50.509 47.347)" fill="#282142"/>
    <path id="Trazado_113006" data-name="Trazado 113006" d="M392.427,360.261l-2.677-7.431h3.369l2.677,7.431Z" transform="translate(49.564 47.347)" fill="#282142"/>
    <path id="Trazado_113007" data-name="Trazado 113007" d="M386.3,360.261l-2.677-7.431h3.358l2.677,7.431Z" transform="translate(48.621 47.347)" fill="#282142"/>
    <path id="Trazado_113008" data-name="Trazado 113008" d="M380.156,360.261l-2.666-7.431h3.358l2.677,7.431Z" transform="translate(47.677 47.347)" fill="#282142"/>
    <path id="Trazado_113009" data-name="Trazado 113009" d="M293.027,360.261l-2.677-7.431h3.358l2.677,7.431Z" transform="translate(34.265 47.347)" fill="#282142"/>
    <path id="Trazado_113010" data-name="Trazado 113010" d="M286.886,360.261l-2.666-7.431h3.358l2.677,7.431Z" transform="translate(33.322 47.347)" fill="#282142"/>
    <path id="Trazado_113011" data-name="Trazado 113011" d="M280.757,360.261l-2.677-7.431h3.369l2.666,7.431Z" transform="translate(32.377 47.347)" fill="#282142"/>
    <path id="Trazado_113012" data-name="Trazado 113012" d="M274.616,360.261l-2.666-7.431h3.358l2.677,7.431Z" transform="translate(31.433 47.347)" fill="#282142"/>
    <path id="Trazado_113013" data-name="Trazado 113013" d="M296.7,424.329c2.054-5.908,26.932-86.209,26.932-86.209h31.952L357.7,349.3s-21.417,69.119-23.471,75q-.242.681-.45,1.35h0c-1.869,5.77,3.081,5.77,8.654,5.77H398.79v5.1H304.907C293.622,436.526,294.649,430.225,296.7,424.329Z" transform="translate(35.044 45.083)" fill="#372d5b"/>
    <path id="Trazado_113014" data-name="Trazado 113014" d="M356.331,338.12s-24.878,80.3-26.944,86.209-3.081,12.2,8.216,12.2H300.078c-11.285,0-10.258-6.3-8.216-12.2s26.9-86.209,26.9-86.209Z" transform="translate(34.3 45.083)" fill="#504984"/>
    <path id="Trazado_113015" data-name="Trazado 113015" d="M346.353,338.189c-2.481-.115-4.95-.173-7.431-.254s-4.95-.1-7.42-.15-4.95-.115-7.431-.115h-7.835l-.127.4c-1.039,3.231-2.054,6.462-3.023,9.716l-2.966,9.751c-1.9,6.52-3.808,13.039-5.55,19.617,2.308-6.393,4.408-12.855,6.531-19.3l3.081-9.7c1.039-3.231,2.031-6.485,3.012-9.727l-.542.392h7.42c2.481,0,4.95-.069,7.431-.1s4.95-.081,7.42-.162S343.872,338.3,346.353,338.189Z" transform="translate(36.454 45.013)" fill="#7f74d1"/>
    <path id="Trazado_113016" data-name="Trazado 113016" d="M153.5,443.12H704.305a9.854,9.854,0,0,0,9.854-9.854h0a9.854,9.854,0,0,0-9.854-9.866H153.5a9.866,9.866,0,0,0-9.866,9.866h0A9.866,9.866,0,0,0,153.5,443.12Z" transform="translate(11.683 58.208)" fill="#8e5058"/>
    <path id="Trazado_113017" data-name="Trazado 113017" d="M153.5,441.8H704.305a9.854,9.854,0,0,0,9.854-9.854H143.63A9.866,9.866,0,0,0,153.5,441.8Z" transform="translate(11.683 59.524)" fill="#64364a"/>
    <circle id="Elipse_4263" data-name="Elipse 4263" cx="82.909" cy="82.909" r="82.909" transform="translate(99.022 231.442) rotate(-76.83)" fill="#a66d58"/>
    <g id="Grupo_59789" data-name="Grupo 59789" transform="translate(115.699 70.584)" clip-path="url(#clip-path)">
      <path id="Trazado_113018" data-name="Trazado 113018" d="M289.238,210.664c1.569,7.9-5.77,14.943-8.077,16.259s-17.689,7.466-26.932,7.685-21.44-19.328-16.443-21.532,39-4.616,42.695-4.616S289.238,210.664,289.238,210.664Z" transform="translate(-89.703 -45.458)" fill="#ffc5c7"/>
      <path id="Trazado_113019" data-name="Trazado 113019" d="M269.1,210.621c-4.039,23.736-13.616,42.187-16.6,42.522s-31.721-9.566-39.637-13.189,2.423-59.323,7.35-58.342,15.739,11.678,24.659,16.813S269.1,210.621,269.1,210.621Z" transform="translate(-93.806 -49.592)" fill="#fff"/>
      <path id="Trazado_113020" data-name="Trazado 113020" d="M220.78,215.3c2.769,4.754,25.605,16.789,38.171,21.174-3.1,7-6.035,11.32-7.454,11.481-2.562.277-23.99-6.923-35.067-11.285a168.754,168.754,0,0,1,4.35-21.371Z" transform="translate(-92.811 -44.405)" fill="#dcedff"/>
      <path id="Trazado_113021" data-name="Trazado 113021" d="M294.722,222.879c.219,9.4-8.262,10.766-18.4,8.343s-26.736-25.271-34.11-35.6-21.151-28.721-23.932-30.371-9.381-2.527-15-11.816,1.765-28.732,4.408-31.04,25.236,5.377,27.9,9.3-1.869,24.821-1.073,27.452,20.055,24.174,28.456,29.448S294.549,216.06,294.722,222.879Z" transform="translate(-95.153 -58.77)" fill="#ffc5c7"/>
      <path id="Trazado_113022" data-name="Trazado 113022" d="M217.181,136.661c-2.666-1.315-3.312-7.3-1.639-6.254s4.616,1.039,8.574.981a34.286,34.286,0,0,0,5.585-.392,34.074,34.074,0,0,1,.358,4.731S219.835,138.034,217.181,136.661Z" transform="translate(-93.089 -57.491)" fill="#fe8a8b"/>
      <path id="Trazado_113023" data-name="Trazado 113023" d="M201.624,137.7c1.615-3,2.862-5.273,2.862-5.273l15.555,15a98.408,98.408,0,0,1,9.462-7.062l1.373,2.446c-2.516,4.258-4.708,13.27-4.766,15.462,0,0-2.389,2.642-3.716,2.862,0,0,16.651,26.367,27.348,39.337s17.932,24.024,22.94,27.613c-10.12-5.839-23.921-24.867-30.475-34.04-7.374-10.385-21.151-28.721-23.99-30.371s-9.381-2.527-15-11.816C201.036,148.146,200.874,142.873,201.624,137.7Z" transform="translate(-95.152 -57.16)" fill="#fe8a8b"/>
      <path id="Trazado_113024" data-name="Trazado 113024" d="M235.157,143.149c-.185,1.535-15.647,15-17.309,16.478-.115.115-1.327.3-1.662,0-4.108-3.612-22.063-36.221-22.386-37.4s11.62-12.312,15.266-15.312a3.2,3.2,0,0,1,2.873.335C215.644,112.686,235.4,141.165,235.157,143.149Z" transform="translate(-96.295 -61.118)" fill="#0c0835"/>
      <path id="Trazado_113025" data-name="Trazado 113025" d="M233.717,143.135c-.185,1.535-15.647,15-17.309,16.478s-23.7-36.129-24.048-37.4c-.3-1.154,12.97-12.128,16.616-15.128a1.015,1.015,0,0,1,1.523.15C214.2,112.672,233.959,141.15,233.717,143.135Z" transform="translate(-96.517 -61.103)" fill="#252384"/>
      <path id="Trazado_113026" data-name="Trazado 113026" d="M231.1,140.913c-.173,1.442-14.643,13.985-16.155,15.416s-22.178-33.8-22.5-34.987,12.139-11.355,15.543-14.159a.958.958,0,0,1,1.431.15C212.842,112.423,231.328,139.055,231.1,140.913Z" transform="translate(-96.504 -61.085)" fill="#57aff7"/>
      <path id="Trazado_113027" data-name="Trazado 113027" d="M218.672,121.977c-2.4-1.442-5.343-6.323-5.608-7.974s-.092-3.139,1.154-3.462,5.25,4.835,7.235,6.37,4.373,4.72,3.393,6.923-5.366,1.315-5.839.992S218.672,121.977,218.672,121.977Z" transform="translate(-93.346 -60.531)" fill="#ffc5c7"/>
      <path id="Trazado_113028" data-name="Trazado 113028" d="M213.518,110.91c-.762,1.881,4.189,9.393,8.527,11.539L220.43,124.3l-1.673-.392a13.03,13.03,0,0,1-.081-2.008c-2.4-1.442-5.343-6.323-5.608-7.974a3.727,3.727,0,0,1,.45-3.012Z" transform="translate(-93.35 -60.472)" fill="#fe8a8b"/>
      <path id="Trazado_113029" data-name="Trazado 113029" d="M224.281,128.059c-4.119-2.2-7.35-1.962-9.589-2.862s-2.654-4.373-1.154-4.95,10.8.912,13.2,1.985,3.531,6,3.531,6Z" transform="translate(-93.393 -59.055)" fill="#ffc5c7"/>
      <path id="Trazado_113030" data-name="Trazado 113030" d="M222.461,125.156c2.308.438,3.127,0,3.127,0,0,.912.8,1.362,1.765,2.666l-3.092-.092c-4.119-2.2-7.35-1.962-9.589-2.862a3.346,3.346,0,0,1-1.892-2.308C213.772,124.441,220.142,124.718,222.461,125.156Z" transform="translate(-93.373 -58.679)" fill="#fe8a8b"/>
      <path id="Trazado_113031" data-name="Trazado 113031" d="M233.467,130.92c-2.2,3.035-12.982,1.719-15.162,1.385s-3.531-1.7-3.312-3.081c.45-2.792,14.689-2.308,15.866-1.858S233.467,130.92,233.467,130.92Z" transform="translate(-93.036 -57.993)" fill="#ffc5c7"/>
      <path id="Trazado_113032" data-name="Trazado 113032" d="M215,129.51c1.465,1.465,5.008,2.308,8.874,2.608a34.444,34.444,0,0,0,5.712.1,44.53,44.53,0,0,1-11.354-.3A3.566,3.566,0,0,1,215,129.51Z" transform="translate(-93.031 -57.61)" fill="#fe8a8b"/>
      <path id="Trazado_113033" data-name="Trazado 113033" d="M196.749,168.389c22.882,11.643,26.644,11.193,36.464,16.478s6.923,60.869,6.289,69.443-3,42.626-1.685,51.857,6.393,43.5,8.643,48.776,6.543,14.17-.1,19.443-20.7,8.908-51.234,6.923-63.465-20.77-64.9-23.4,14.6-51.084,15.266-60.315a124.127,124.127,0,0,1,3.462-20.436c.969-4.281-8.747-24.394-10.293-37.248s-15.52-48.314-12.866-54.8,26.967-13.743,43.537-21.994S196.749,168.389,196.749,168.389Z" transform="translate(-106.813 -52.848)" fill="#fff"/>
      <path id="Trazado_113034" data-name="Trazado 113034" d="M214.474,179.82a63.754,63.754,0,0,1-21.636,31.5c-12.393-3.035-24.994-8.493-35.148-16.236a147.5,147.5,0,0,0,36.925,20.182A54.234,54.234,0,0,0,214.474,179.82Z" transform="translate(-101.852 -49.866)" fill="#dcedff"/>
      <path id="Trazado_113035" data-name="Trazado 113035" d="M211.42,176.917c-4.385-1.881-10.039-4.466-18.013-8.527,0,0-10.858-13.535-27.417-5.273-5.77,2.862-12.428,5.608-18.82,8.239a82.736,82.736,0,0,0,44.31,36.164,58.434,58.434,0,0,0,19.94-30.6Z" transform="translate(-103.471 -52.848)" fill="#ffc5c7"/>
      <path id="Trazado_113036" data-name="Trazado 113036" d="M129.6,349.466c-1.454-2.631,14.6-51.084,15.266-60.315a124.126,124.126,0,0,1,3.462-20.436c.969-4.281-8.747-24.394-10.293-37.248a68.711,68.711,0,0,0-1.789-8.481l10.316-7.685c6.058,16.882,9.831,46.537,15.566,53.8s20.02,10.212,20.02,10.212-14.112,3.3-20.263,1.985c0,0-6.577,26.032-6.647,38.887s1.154,32.31,1.269,34.941c.058.981-.162,4.408-.45,8.331C141.268,357.589,130.422,350.954,129.6,349.466Z" transform="translate(-106.19 -44.405)" fill="#dcedff"/>
      <path id="Trazado_113037" data-name="Trazado 113037" d="M166.289,142.46c-.242,13.755-1.154,23.205-4.189,25.848,0,0,5.239,22.824,26.159,20.874,7.085-.658,6.4-12.532,2.85-18.024l2.112-16.87Z" transform="translate(-101.173 -55.616)" fill="#ffc5c7"/>
      <path id="Trazado_113038" data-name="Trazado 113038" d="M163.48,165.884h0c1.789-4.223,2.4-12.439,2.6-23.424l26.932,11.828-1.35,10.824h0C186.881,167.246,163.48,165.884,163.48,165.884Z" transform="translate(-100.961 -55.616)" fill="#fe8a8b"/>
      <path id="Trazado_113039" data-name="Trazado 113039" d="M102.663,238.86c-4.616,6.381-10.847,22.2-8.516,29.448s26.344,39.556,37.329,51.638,13.478,14.066,15.393,18.013,11.262,20.274,13.72,22.744,6.923,2.8,6.923,2.8a11.689,11.689,0,0,0,9.635,2.966s5.527,3.8,9.9,4.777c0,0,1.442,2.8,2.908,3.046s3.335-2.712.635-8.643-7.131-8.412-7.847-12.2-4.143-11.539-4.143-11.539,7.7,7.9,12.439,8.4,5.389-2.308,2.781-4.616a60.1,60.1,0,0,1-9.116-10.224,18.162,18.162,0,0,0-13.074-8.239c-6.035-.819-10.281-1.477-11.839-2.631s-9.462-12.358-14.851-24.451S134.708,272.635,121,259.065l6.047-10.547Z" transform="translate(-111.71 -40.779)" fill="#ffc5c7"/>
      <path id="Trazado_113040" data-name="Trazado 113040" d="M175.926,355.212a25.478,25.478,0,0,0-5.689-8.735l-.935-.923c-.277-.277-.762-.646-.877-.808-.473-.612-.877-1.4-1.327-2.112-.877-1.489-1.719-3-2.689-4.454a38.968,38.968,0,0,0,1.765,4.962,15.176,15.176,0,0,0,1.235,2.389,9.86,9.86,0,0,0,.958.981l.888.912c1.154,1.223,2.308,2.5,3.462,3.773S174.876,353.816,175.926,355.212Z" transform="translate(-100.818 -25.493)" fill="#fe8a8b"/>
      <path id="Trazado_113041" data-name="Trazado 113041" d="M166.528,349.777c-.912-1.765-1.985-3.312-2.942-4.927s-1.9-3.2-2.816-4.95a10.154,10.154,0,0,0,1.673,5.7,13.074,13.074,0,0,0,4.085,4.177Z" transform="translate(-101.378 -25.228)" fill="#fe8a8b"/>
      <path id="Trazado_113042" data-name="Trazado 113042" d="M163.852,350.872a10.638,10.638,0,0,1-4.616-2.527s-4.431-.323-6.923-2.8a63.721,63.721,0,0,1-5.493-8.181c0,.058,2.816,3.058,4.8,5.539a6.7,6.7,0,0,0,6.808,2.308l-.542-3.219S160.655,349.315,163.852,350.872Z" transform="translate(-103.525 -25.619)" fill="#fe8a8b"/>
      <path id="Trazado_113043" data-name="Trazado 113043" d="M94.055,257.4c.127,3,.162,5.4,4.616,13.293,5.02,8.874,35.194,46.307,41.772,53.218s6.393,7.362,10.281,18.3c-1.754-3.092-3.219-5.77-3.854-7.108-1.916-3.946-4.408-5.931-15.393-18.013s-35-44.391-37.329-51.638a17.909,17.909,0,0,1-.092-8.054Z" transform="translate(-111.71 -37.926)" fill="#fe8a8b"/>
      <path id="Trazado_113044" data-name="Trazado 113044" d="M114.806,249.98l-2.446,4.085a14.066,14.066,0,0,1,5.77,3.392l4.777-8.077Z" transform="translate(-108.829 -39.16)" fill="#fe8a8b"/>
      <path id="Trazado_113045" data-name="Trazado 113045" d="M147.267,238.07c6.3-12.393,8.827-32.506,3.139-43.1s-16.455-14.4-19.051-13.12-9.774,17.782-16.466,25.386S89.906,236.293,89.352,238.07s13.212,16.328,39.118,27C131.551,266.3,147.267,238.07,147.267,238.07Z" transform="translate(-112.373 -49.59)" fill="#fff"/>
      <path id="Trazado_113046" data-name="Trazado 113046" d="M124.455,242.482l-4.131,8.481s20.355-20.413,28.848-35.633a61.157,61.157,0,0,1-5.47,17.551s-15.716,28.271-18.8,27a129.548,129.548,0,0,1-12.185-5.77Z" transform="translate(-108.774 -44.401)" fill="#dcedff"/>
      <path id="Trazado_113047" data-name="Trazado 113047" d="M197.84,154.269c-1.408-5.666-1.373-11.47-1.708-17.309-.254-4.339-.473-8.308-4.408-10.893a14.539,14.539,0,0,0-9.866-1.846c-9.093,1.154-11.054,10.016-10.385,18.4.531,6.427,3.035,12.589,5.527,18.463-3.346-.15-7.916-1.9-9.912-4.685a19.813,19.813,0,0,0,5.262,9.624c-9.693-.173-18.693-6.508-23.828-15s-6.75-18.913-6.208-28.94c.646-11.9,4.362-23.817,11.712-32.979,14.793-18.463,43.306-20.563,60.673-4.731a43.618,43.618,0,0,1,12.462,20.644,68.819,68.819,0,0,1,.565,32.079,107.617,107.617,0,0,0-1.766,12.485c-.138,1.35-1.777,17.055-.831,17-6.127.369-13.155-.865-17.309-5.55,1.858,3.219,3.462,6.312,5.32,9.531C205.432,169.328,199.778,162.128,197.84,154.269Z" transform="translate(-104.234 -66.191)" fill="#372d5b"/>
      <path id="Trazado_113048" data-name="Trazado 113048" d="M164.195,129.954c-2.735-1.615-6.023-2.492-8.562.081-3.739,3.785,1.569,21.417,9.635,17.136,0,0,11.666,16.316,20.228,20.932s14.666,2.308,17.863-.992,14.147-16.813,16.155-31.156c.692-5.112-.058-15.162.1-17.309.473-6.589,2.977-12-2.227-17.17a30.117,30.117,0,0,0-19.928-8.654,32.217,32.217,0,0,0-24.832,10.858C165.776,111.411,164.587,120.146,164.195,129.954Z" transform="translate(-102.357 -63.258)" fill="#ffc5c7"/>
      <path id="Trazado_113049" data-name="Trazado 113049" d="M156.62,129.634c.692-3.231,3.462-3.877,5.5-1.615s2.446,9.612,1.915,10.685-4.154,1-4.835-1.235,1.419-3.623,3.462-2.966c0,0,.565-3.254-1.085-5.354s-3.393-1.292-3.808-.75A16.447,16.447,0,0,1,156.62,129.634Z" transform="translate(-102.017 -58.045)" fill="#fe8a8b"/>
      <path id="Trazado_113050" data-name="Trazado 113050" d="M176,117.488a28.294,28.294,0,0,1,2.469-2.042,18.375,18.375,0,0,1,2.792-1.662,9.231,9.231,0,0,1,3.1-1.039,6.508,6.508,0,0,1,3.15.415v.15a14.448,14.448,0,0,1-1.523.485l-1.442.4c-.946.277-1.927.369-2.885.681a22.1,22.1,0,0,0-2.816,1.154c-.935.462-1.835.992-2.746,1.535Z" transform="translate(-99.034 -60.197)" fill="#3f1751"/>
      <path id="Trazado_113051" data-name="Trazado 113051" d="M209.113,114.006a10.65,10.65,0,0,0-2.792-1,15,15,0,0,0-2.942-.358c-1,0-2,.185-2.977.173a27.948,27.948,0,0,1-3.081-.069v-.138a7.57,7.57,0,0,1,3.069-1.258,9.347,9.347,0,0,1,3.208.115,12.692,12.692,0,0,1,3.023.819,9.624,9.624,0,0,1,2.619,1.6Z" transform="translate(-95.753 -60.418)" fill="#3f1751"/>
      <path id="Trazado_113052" data-name="Trazado 113052" d="M184.832,122.188c0-1.4-.738-2.458-1.569-2.377s-1.477,1.281-1.442,2.677.738,2.458,1.569,2.377S184.867,123.584,184.832,122.188Z" transform="translate(-98.138 -59.103)" fill="#3f1751"/>
      <path id="Trazado_113053" data-name="Trazado 113053" d="M203.826,120.672c0-1.4-.612-2.481-1.292-2.412s-1.154,1.258-1.154,2.642.612,2.481,1.292,2.412S203.872,122.057,203.826,120.672Z" transform="translate(-95.128 -59.342)" fill="#3f1751"/>
      <path id="Trazado_113054" data-name="Trazado 113054" d="M190.4,133.619a6.208,6.208,0,0,0,6.8-.069,3.139,3.139,0,0,1-1.754,2.5,4.166,4.166,0,0,1-3.162-.173C191.323,135.442,191.012,134.473,190.4,133.619Z" transform="translate(-96.818 -56.988)" fill="#fe8a8b"/>
      <path id="Trazado_113055" data-name="Trazado 113055" d="M183.78,140.871a190.016,190.016,0,0,0,19.259-1.281c-1.419,4.616-5.146,9.231-10.385,9.231C188,148.844,184.9,145,183.78,140.871Z" transform="translate(-97.837 -56.058)" fill="#c31f2a"/>
      <path id="Trazado_113056" data-name="Trazado 113056" d="M187.44,146.422a8.308,8.308,0,0,1,4.431,0,7.108,7.108,0,0,1,5.966-.589,8.954,8.954,0,0,1-5.712,2.146,7.847,7.847,0,0,1-4.685-1.558Z" transform="translate(-97.273 -55.159)" fill="#fb8384"/>
      <path id="Trazado_113057" data-name="Trazado 113057" d="M199.661,143.494a22.42,22.42,0,0,1-14.112-.542,15.7,15.7,0,0,0-.138-2.077c4.546-.092,11.908-.646,15.843-1.085A13.132,13.132,0,0,1,199.661,143.494Z" transform="translate(-97.586 -56.027)" fill="#fff"/>
      <path id="Trazado_113058" data-name="Trazado 113058" d="M168.348,116.527a63.9,63.9,0,0,0,21.867-4.846c1.327-3.058,1.362-5.77,1.558-9.081a26.286,26.286,0,0,1,3.208,11.262c4.362-.288,8.747-.519,13.12-.8a27.2,27.2,0,0,0,1.154-10.7,45.96,45.96,0,0,1,2.712,11.539c2.643-.935,5.977.427,8.735.923,3.462-7.6,3.185-21.37-4.027-27.14-7.027-5.62-19.247-7.143-27.832-5.9-18.278,2.642-32.644,17.816-31.513,36.729.646,10.778,6.058,20.978,13.847,28.5a43.722,43.722,0,0,1-2.827-30.5Z" transform="translate(-101.917 -65.016)" fill="#372d5b"/>
    </g>
    <circle id="Elipse_4264" data-name="Elipse 4264" cx="48.292" cy="48.292" r="48.292" transform="translate(304.825 208.756) rotate(-75.548)" fill="#d9a171"/>
    <rect id="Rectángulo_8771" data-name="Rectángulo 8771" width="55.48" height="37.745" rx="3.43" transform="translate(391.565 194.007) rotate(180)" fill="#dbe9ff"/>
    <path id="Trazado_113060" data-name="Trazado 113060" d="M304.226,177.014H351.86a3.958,3.958,0,0,0,3.958-3.958L328.124,155.62,300.43,173.056A3.946,3.946,0,0,0,304.226,177.014Z" transform="translate(35.817 16.993)" fill="#cddcf4"/>
    <path id="Trazado_113061" data-name="Trazado 113061" d="M304.226,141.45H351.86a3.958,3.958,0,0,1,3.958,3.946l-27.694,17.447L300.43,145.4a3.946,3.946,0,0,1,3.8-3.946Z" transform="translate(35.817 14.812)" fill="#6595bf"/>
    <circle id="Elipse_4265" data-name="Elipse 4265" cx="48.211" cy="48.211" r="48.211" transform="translate(647.801 208.485) rotate(-13.04)" fill="#d9a171"/>
    <path id="Trazado_113062" data-name="Trazado 113062" d="M638.23,212.3h-4.846a17.18,17.18,0,0,0-2.2-5.32l3.462-3.462a1.154,1.154,0,0,0,0-1.7l-3.808-3.808a1.154,1.154,0,0,0-1.7,0l-3.462,3.462a17.182,17.182,0,0,0-5.319-2.2v-4.846a1.154,1.154,0,0,0-1.154-1.154h-5.389a1.154,1.154,0,0,0-1.154,1.154v4.846a17.229,17.229,0,0,0-5.308,2.2l-3.462-3.462a1.154,1.154,0,0,0-1.7,0l-3.819,3.808a1.211,1.211,0,0,0,0,1.7l3.462,3.462a17.182,17.182,0,0,0-2.2,5.32h-4.858a1.154,1.154,0,0,0-1.154,1.154v5.389a1.154,1.154,0,0,0,1.154,1.154h4.858a17.228,17.228,0,0,0,2.2,5.308l-3.462,3.462a1.212,1.212,0,0,0,0,1.7l3.819,3.819a1.212,1.212,0,0,0,1.7,0l3.462-3.462a17.227,17.227,0,0,0,5.308,2.2v4.939a1.154,1.154,0,0,0,1.154,1.154H619.2a1.154,1.154,0,0,0,1.154-1.154v-4.846a17.181,17.181,0,0,0,5.32-2.2l3.462,3.462a1.212,1.212,0,0,0,1.7,0l3.808-3.819a1.154,1.154,0,0,0,0-1.7l-3.462-3.462a17.228,17.228,0,0,0,2.2-5.308h4.846a1.154,1.154,0,0,0,1.154-1.154V213.5a1.154,1.154,0,0,0-1.154-1.2Zm-21.763,11.331a7.443,7.443,0,1,1,7.431-7.443,7.443,7.443,0,0,1-7.431,7.443Z" transform="translate(80.943 22.788)" fill="#dbe9ff"/>
    <path id="Trazado_113063" data-name="Trazado 113063" d="M614.805,204.16a10.385,10.385,0,1,0,10.385,10.385A10.385,10.385,0,0,0,614.805,204.16Zm0,16.674a6.323,6.323,0,1,1,6.323-6.323,6.323,6.323,0,0,1-6.323,6.323Z" transform="translate(82.605 24.464)" fill="#6595bf"/>
    <path id="Trazado_113064" data-name="Trazado 113064" d="M653.26,229.462H650.79a8.815,8.815,0,0,0-1.154-2.712L651.39,225a.612.612,0,0,0,0-.865l-1.95-1.95a.611.611,0,0,0-.865,0l-1.754,1.754a8.818,8.818,0,0,0-2.712-1.154v-2.469a.612.612,0,0,0-.612-.612H640.74a.612.612,0,0,0-.612.612v2.469a8.942,8.942,0,0,0-2.712,1.154l-1.719-1.754a.612.612,0,0,0-.865,0l-1.95,1.95a.623.623,0,0,0,0,.865l1.754,1.754a8.528,8.528,0,0,0-1.154,2.712h-2.4a.612.612,0,0,0-.612.612v2.758a.611.611,0,0,0,.612.612h2.481a8.641,8.641,0,0,0,1.154,2.712l-1.754,1.754a.623.623,0,0,0,0,.865l1.95,1.95a.623.623,0,0,0,.865,0l1.754-1.754a8.642,8.642,0,0,0,2.712,1.154v2.481a.612.612,0,0,0,.612.612h2.758a.612.612,0,0,0,.612-.612v-2.481a8.527,8.527,0,0,0,2.712-1.154l1.754,1.754a.623.623,0,0,0,.865,0l1.95-1.95a.612.612,0,0,0,0-.865L649.66,236.2a8.945,8.945,0,0,0,1.154-2.712h2.469a.612.612,0,0,0,.612-.612V230.12a.612.612,0,0,0-.635-.658Zm-11.112,5.77a1.576,1.576,0,1,1,0,.023Z" transform="translate(86.614 26.856)" fill="#dbe9ff"/>
    <path id="Trazado_113065" data-name="Trazado 113065" d="M641.3,225.3a5.3,5.3,0,1,0,5.285,5.285A5.3,5.3,0,0,0,641.3,225.3Zm0,8.516a3.231,3.231,0,1,1,3.231-3.231A3.231,3.231,0,0,1,641.3,233.816Z" transform="translate(87.464 27.718)" fill="#5470d3"/>
    <circle id="Elipse_4266" data-name="Elipse 4266" cx="48.211" cy="48.211" r="48.211" transform="translate(425.419 81.191) rotate(-21.91)" fill="#d9a171"/>
    <rect id="Rectángulo_8772" data-name="Rectángulo 8772" width="55.48" height="47.437" rx="3.3" transform="translate(515.888 132.734) rotate(180)" fill="#fff"/>
    <path id="Trazado_113066" data-name="Trazado 113066" d="M408,89.875h55.5V83.759A3.819,3.819,0,0,0,459.7,79.94H411.843A3.819,3.819,0,0,0,408,83.759Z" transform="translate(52.373 5.345)" fill="#6595bf"/>
    <path id="Trazado_113067" data-name="Trazado 113067" d="M444.774,82.349h0a1.154,1.154,0,0,0,1.154-1.154V79.234a1.154,1.154,0,0,0-1.154-1.154h0a1.154,1.154,0,0,0-1.154,1.154v1.985A1.154,1.154,0,0,0,444.774,82.349Z" transform="translate(57.856 5.059)" fill="#fff"/>
    <path id="Trazado_113068" data-name="Trazado 113068" d="M447.564,82.349h0a1.154,1.154,0,0,0,1.154-1.154V79.234a1.154,1.154,0,0,0-1.154-1.154h0a1.154,1.154,0,0,0-1.154,1.154v1.985A1.154,1.154,0,0,0,447.564,82.349Z" transform="translate(58.285 5.059)" fill="#fff"/>
    <path id="Trazado_113069" data-name="Trazado 113069" d="M416.874,82.349h0a1.154,1.154,0,0,0,1.154-1.154V79.234a1.154,1.154,0,0,0-1.154-1.154h0a1.154,1.154,0,0,0-1.154,1.154v1.985A1.154,1.154,0,0,0,416.874,82.349Z" transform="translate(53.562 5.059)" fill="#fff"/>
    <path id="Trazado_113070" data-name="Trazado 113070" d="M419.664,82.349h0a1.154,1.154,0,0,0,1.154-1.154V79.234a1.154,1.154,0,0,0-1.154-1.154h0a1.154,1.154,0,0,0-1.154,1.154v1.985A1.154,1.154,0,0,0,419.664,82.349Z" transform="translate(53.991 5.059)" fill="#fff"/>
    <rect id="Rectángulo_8773" data-name="Rectángulo 8773" width="4.812" height="4.812" rx="0.79" transform="translate(490.733 101.117)" fill="#dbe9ff"/>
    <rect id="Rectángulo_8774" data-name="Rectángulo 8774" width="4.812" height="4.812" rx="0.79" transform="translate(479.286 101.117)" fill="#dbe9ff"/>
    <rect id="Rectángulo_8775" data-name="Rectángulo 8775" width="4.812" height="4.812" rx="0.79" transform="translate(467.851 101.117)" fill="#dbe9ff"/>
    <rect id="Rectángulo_8776" data-name="Rectángulo 8776" width="4.8" height="4.812" rx="0.79" transform="translate(502.168 110.971)" fill="#dbe9ff"/>
    <rect id="Rectángulo_8777" data-name="Rectángulo 8777" width="4.812" height="4.812" rx="0.79" transform="translate(490.733 110.971)" fill="#dbe9ff"/>
    <rect id="Rectángulo_8778" data-name="Rectángulo 8778" width="4.812" height="4.812" rx="0.79" transform="translate(479.286 110.971)" fill="#dbe9ff"/>
    <rect id="Rectángulo_8779" data-name="Rectángulo 8779" width="4.812" height="4.812" rx="0.79" transform="translate(467.851 110.971)" fill="#dbe9ff"/>
    <rect id="Rectángulo_8780" data-name="Rectángulo 8780" width="4.8" height="4.812" rx="0.79" transform="translate(502.168 120.814)" fill="#dbe9ff"/>
    <rect id="Rectángulo_8781" data-name="Rectángulo 8781" width="4.812" height="4.812" rx="0.79" transform="translate(490.733 120.814)" fill="#dbe9ff"/>
    <rect id="Rectángulo_8782" data-name="Rectángulo 8782" width="4.812" height="4.812" rx="0.79" transform="translate(479.286 120.814)" fill="#dbe9ff"/>
    <circle id="Elipse_4267" data-name="Elipse 4267" cx="48.211" cy="48.211" r="48.211" transform="translate(557.972 132.727) rotate(-45)" fill="#d9a171"/>
    <circle id="Elipse_4268" data-name="Elipse 4268" cx="33.025" cy="33.025" r="33.025" transform="translate(579.448 132.727) rotate(-45)" fill="#fff"/>
    <path id="Trazado_113071" data-name="Trazado 113071" d="M556.075,92.44a32.964,32.964,0,1,1-.008,0Zm2.769,61.157v-4.512a1.512,1.512,0,0,0-1.512-1.523h-2.5a1.512,1.512,0,0,0-1.512,1.523V153.6a28.282,28.282,0,0,1-25.386-25.386h4.512a1.523,1.523,0,0,0,1.523-1.512v-2.458a1.523,1.523,0,0,0-1.523-1.523h-4.512a28.283,28.283,0,0,1,25.386-25.386v4.512a1.5,1.5,0,0,0,1.512,1.512h2.5a1.5,1.5,0,0,0,1.512-1.512V97.321a28.282,28.282,0,0,1,25.386,25.386h-4.512a1.523,1.523,0,0,0-1.523,1.523v2.5a1.523,1.523,0,0,0,1.523,1.512h4.512A28.282,28.282,0,0,1,558.844,153.6Z" transform="translate(70.081 7.269)" fill="#6595bf"/>
    <text id="_24_7" data-name="24/7" transform="translate(606.505 140.206)" fill="#d1c8d9" font-size="23" font-family="SegoeUI, Segoe UI"><tspan x="0" y="0" letter-spacing="-0.04em">2</tspan><tspan y="0" letter-spacing="-0.02em">4</tspan><tspan y="0">/7</tspan></text>
  </g>
</svg>
