<svg id="Componente_5_1" data-name="Componente 5 – 1" xmlns="http://www.w3.org/2000/svg" width="165.941" height="165.941" viewBox="0 0 165.941 165.941">
  <circle id="Elipse_4232" data-name="Elipse 4232" cx="82.97" cy="82.97" r="82.97" fill="#f2e9e4"/>
  <g id="customer-service" transform="translate(10.193 32.12)">
    <g id="Grupo_59636" data-name="Grupo 59636" transform="translate(28.132 0)">
      <g id="Grupo_59633" data-name="Grupo 59633" transform="translate(0 0)">
        <path id="Trazado_110172" data-name="Trazado 110172" d="M216.389,69.937H172.68a12.89,12.89,0,0,1-9.919-21.123l.388-.467A20.618,20.618,0,0,0,167.9,35.179V26.75a26.75,26.75,0,0,1,53.5,0v8.713a20.618,20.618,0,0,0,4.847,13.281A12.89,12.89,0,0,1,216.389,69.937Z" transform="translate(-149.704 0)" fill="#c59191"/>
        <path id="Trazado_110173" data-name="Trazado 110173" d="M207.311,274.394v28.9H117.65V274.611a16.135,16.135,0,0,1,9.873-14.871L142,253.448l4.873-2.119a10.127,10.127,0,0,0,6.089-9.288V240.17H172v1.775a10.128,10.128,0,0,0,6.14,9.307l19.577,8.392A16.131,16.131,0,0,1,207.311,274.394Z" transform="translate(-117.65 -182.795)" fill="#fff"/>
        <path id="Trazado_110174" data-name="Trazado 110174" d="M216.553,260.339a69.335,69.335,0,0,0,40.967-.384l2.36-5.62-7.187-3.081a10.127,10.127,0,0,1-6.138-9.308v-1.774H227.519v1.87a10.127,10.127,0,0,1-6.089,9.287l-5.821,2.531Z" transform="translate(-192.207 -182.797)" fill="#ffcebf"/>
        <g id="Grupo_59632" data-name="Grupo 59632" transform="translate(0 70.527)">
          <path id="Trazado_110175" data-name="Trazado 110175" d="M405.8,301.547l-14.747-6.321h0v49.967H415.4V316.3A16.134,16.134,0,0,0,405.8,301.547Z" transform="translate(-325.739 -295.226)" fill="#9163ac"/>
          <path id="Trazado_110176" data-name="Trazado 110176" d="M142,295.75v49.843H117.65V316.914a16.135,16.135,0,0,1,9.873-14.871Z" transform="translate(-117.65 -295.625)" fill="#9163ac"/>
        </g>
      </g>
      <g id="Grupo_59635" data-name="Grupo 59635" transform="translate(18.198)">
        <path id="Trazado_110177" data-name="Trazado 110177" d="M278.757,250.622a16.012,16.012,0,0,0,6.179-1.233,10.126,10.126,0,0,1-3.26-7.442v-1.774H262.639v1.87a10.11,10.11,0,0,1-.887,4.14,16.005,16.005,0,0,0,11.08,4.438h5.925Z" transform="translate(-245.525 -182.797)" fill="#ffb09e"/>
        <path id="Trazado_110178" data-name="Trazado 110178" d="M263.716,87v15.749a16.065,16.065,0,0,1-16.065,16.065h-5.925a16.065,16.065,0,0,1-16.065-16.065V87a10.451,10.451,0,0,1,10.451-10.451h17.152A10.451,10.451,0,0,1,263.716,87Z" transform="translate(-218.057 -58.259)" fill="#ffcebf"/>
        <path id="Trazado_110179" data-name="Trazado 110179" d="M343.6,154.593c-.007.022-.016.043-.022.065a16.952,16.952,0,0,1-5.788,8.634,16.187,16.187,0,0,1-5.814,2.841,1.818,1.818,0,1,0,.923,3.518,19.812,19.812,0,0,0,7.112-3.478,19.476,19.476,0,0,0,3.579-3.6c0-.141.011-.281.011-.423v-7.555Z" transform="translate(-297.937 -117.662)" fill="#7a6d79"/>
        <path id="Trazado_110180" data-name="Trazado 110180" d="M303.184,201.561h-4.261a3.512,3.512,0,1,1,0-7.024h4.261a3.512,3.512,0,1,1,0,7.024Z" transform="translate(-271.144 -148.064)" fill="#685e68"/>
        <g id="Grupo_59634" data-name="Grupo 59634">
          <path id="Trazado_110181" data-name="Trazado 110181" d="M321.114,26.187c.408-5.146,5.335-8.561,10.05-10.329a26.735,26.735,0,0,1,13.021,22.961v1.839c-.431.091-.86.17-1.285.233a21.657,21.657,0,0,1-6.321,0C326.842,39.594,320.621,32.4,321.114,26.187Z" transform="translate(-290.686 -12.07)" fill="#b98080"/>
          <path id="Trazado_110182" data-name="Trazado 110182" d="M220.578,0A26.63,26.63,0,0,1,236.67,5.381a47.714,47.714,0,0,1-16.982,17.262,47.338,47.338,0,0,1-18.02,6.179h-7.84V26.75A26.749,26.749,0,0,1,220.578,0Z" transform="translate(-193.828)" fill="#c59191"/>
        </g>
      </g>
    </g>
    <path id="Trazado_110183" data-name="Trazado 110183" d="M235.23,395.091H177.023l-3.21-30.286a3.637,3.637,0,0,1,3.616-4.02h57.4a3.637,3.637,0,0,1,3.616,4.02Z" transform="translate(-132.247 -274.596)" fill="#5e6178"/>
    <path id="Trazado_110184" data-name="Trazado 110184" d="M406.1,360.785h-7.273a3.637,3.637,0,0,1,3.616,4.02l-3.21,30.286h7.273l3.21-30.286A3.636,3.636,0,0,0,406.1,360.785Z" transform="translate(-303.523 -274.596)" fill="#5e6178"/>
    <circle id="Elipse_4228" data-name="Elipse 4228" cx="5.091" cy="5.091" r="5.091" transform="translate(68.788 98.251)" fill="#c9bfc8"/>
    <g id="Grupo_59631" data-name="Grupo 59631" transform="translate(28.132 -25)">
      <g id="Grupo_59630" data-name="Grupo 59630">
        <path id="Trazado_110170" data-name="Trazado 110170" d="M3.806,19.268A19.268,19.268,0,1,1,35.737,33.789a.837.837,0,0,0,.123,1.351l3.63,2.148a.67.67,0,0,1-.341,1.247l-16.44,0a19.267,19.267,0,0,1-18.9-19.263Z" transform="translate(-3.806 0)" fill="#6595bf"/>
      </g>
    </g>
    <path id="Trazado_110171" data-name="Trazado 110171" d="M89.215,37.288,85.584,35.14a.835.835,0,0,1-.129-1.346A19.267,19.267,0,0,0,73.373.008a19.417,19.417,0,0,0-4.235.339,19.263,19.263,0,0,1,11.6,30.739,4.16,4.16,0,0,0,1.124,6.156l.076.045a.669.669,0,0,1-.32,1.245l7.252,0A.67.67,0,0,0,89.215,37.288Z" transform="translate(-25.399 -25)" fill="#54799a"/>
    <g id="Grupo_59638" data-name="Grupo 59638" transform="translate(38.308 -7.551)">
      <circle id="Elipse_4229" data-name="Elipse 4229" cx="1.818" cy="1.818" r="1.818" fill="#fff"/>
      <circle id="Elipse_4230" data-name="Elipse 4230" cx="1.818" cy="1.818" r="1.818" transform="translate(7.273)" fill="#fff"/>
      <circle id="Elipse_4231" data-name="Elipse 4231" cx="1.818" cy="1.818" r="1.818" transform="translate(14.547)" fill="#fff"/>
    </g>
  </g>
</svg>
