<svg xmlns="http://www.w3.org/2000/svg" width="122" height="122" viewBox="0 0 122 122">
  <g id="speaking" transform="translate(0 0.54)">
    <circle id="Elipse_4225" data-name="Elipse 4225" cx="61" cy="61" r="61" transform="translate(0 -0.54)" fill="#d9a171"/>
    <path id="Trazado_108333" data-name="Trazado 108333" d="M158.381,93.21a3.508,3.508,0,0,0-1.336,3.45c.445,2.115,0,4.563,0,6.789.111,4.674,2,9.238,1.113,13.912-1,5.453-5.787,6.455-8.347,11.241a2.028,2.028,0,0,0,1.558,2.894,2.17,2.17,0,0,1,2.115,1.558c.223.668-.223,3.673-.223,4.341,0,2.56,7.346,4.118,9.571,5.342-1.781.334-6.566,1.781-7.9,3.45a.773.773,0,0,0,.445,1.224c1.892.668,3.116,2.894,3.45,5.008.334,2.448-.111,4.9.445,7.234,1.224,5.12,8.459,3.339,13.133.779l-.445,13.467,33.166-5.565v-3s-.89-11.13,3-18.364c2.115-4.007,3.673-7.791,5.787-11.8a44.549,44.549,0,0,0,4.341-17.7C219.7,89.315,186.984,71.4,158.381,93.21Z" transform="translate(-115.922 -68.839)" fill="#f2e9e4"/>
    <g id="Grupo_59597" data-name="Grupo 59597" transform="translate(9.85 59.318)">
      <rect id="Rectángulo_8439" data-name="Rectángulo 8439" width="22.704" height="3.45" transform="translate(0 13.355)" fill="#6595bf"/>
      <path id="Trazado_108334" data-name="Trazado 108334" d="M104.6,253.126l-13.8-6.01L92.247,244l13.689,6.01Z" transform="translate(-83.343 -244)" fill="#6595bf"/>
      <path id="Trazado_108335" data-name="Trazado 108335" d="M104.6,319.2l-13.8,6.01,1.447,3.228,13.689-6.01Z" transform="translate(-83.343 -298.277)" fill="#6595bf"/>
    </g>
  </g>
</svg>
