<svg xmlns="http://www.w3.org/2000/svg" width="324.711" height="318.4" viewBox="0 0 324.711 318.4">
  <g id="FAQs-amico" transform="translate(-15.55 -25.018)">
    <g id="freepik--Plants--inject-126" transform="translate(15.55 159.487)">
      <g id="freepik--plants--inject-126-2" data-name="freepik--plants--inject-126">
        <path id="Trazado_107469" data-name="Trazado 107469" d="M47.1,276.491l5.987-3.876s2.907-15.442.748-29.071C50.8,224.315,37.73,217.7,32.982,219.6s-5.87,7.614,2.706,18.689C40.748,244.838,47.254,258.674,47.1,276.491Z" transform="translate(-19.789 -219.29)" fill="#d9a171"/>
        <g id="Grupo_59577" data-name="Grupo 59577" transform="translate(9.532)" opacity="0.3">
          <path id="Trazado_107470" data-name="Trazado 107470" d="M47.1,276.491l5.987-3.876s2.907-15.442.748-29.071C50.8,224.315,37.73,217.7,32.982,219.6s-5.87,7.614,2.706,18.689C40.748,244.838,47.254,258.674,47.1,276.491Z" transform="translate(-29.32 -219.29)" fill="#fff"/>
        </g>
        <path id="Trazado_107471" data-name="Trazado 107471" d="M52.179,270.093h-.062a.436.436,0,0,1-.367-.485c2.485-18-4.741-37.668-12.867-45.607a.431.431,0,0,1,.6-.616c8.271,8.078,15.636,28.074,13.117,46.334a.429.429,0,0,1-.422.374Z" transform="translate(-22.692 -220.513)" fill="#fff"/>
        <path id="Trazado_107472" data-name="Trazado 107472" d="M27.781,294.433c-.9.512-3.461-1.461-4.153-1.938a8.576,8.576,0,0,1-2.852-3.274,8.022,8.022,0,0,1-.692-4.845,19.227,19.227,0,0,1,.609-2.568c.242-.831.478-1.661.692-2.492a6.229,6.229,0,0,0,.36-2.513c-.215-1.7-1.73-2.893-3.1-3.925-1.523-1.135-3.1-2.637-3.094-4.686a7.185,7.185,0,0,1,1.807-4.291c.983-1.246,2.146-2.34,3.032-3.655a5.025,5.025,0,0,0,1.031-3.184,5.288,5.288,0,0,0-.692-1.986,31.864,31.864,0,0,1-2.173-3.994,4.012,4.012,0,0,1,.692-4.243,4.673,4.673,0,0,1,3.523-.879,8.078,8.078,0,0,1,3.281,1.156c3.253,1.807,5.115,5.662,8.569,7.053a33.8,33.8,0,0,0,4.153,1.024,5.241,5.241,0,0,1,3.461,2.36c1.267,2.533-1.087,5.655-.194,8.341.789,2.381,3.1,3.288,4.4,5.434a5.1,5.1,0,0,1,.609,3.115,14.9,14.9,0,0,1-1.315,5.26,46.725,46.725,0,0,1-2.873,4.991Z" transform="translate(-15.55 -227.493)" fill="#d9a171"/>
        <g id="Grupo_59578" data-name="Grupo 59578" transform="translate(0 18.445)" opacity="0.65">
          <path id="Trazado_107473" data-name="Trazado 107473" d="M27.781,294.433c-.9.512-3.461-1.461-4.153-1.938a8.576,8.576,0,0,1-2.852-3.274,8.022,8.022,0,0,1-.692-4.845,19.227,19.227,0,0,1,.609-2.568c.242-.831.478-1.661.692-2.492a6.229,6.229,0,0,0,.36-2.513c-.215-1.7-1.73-2.893-3.1-3.925-1.523-1.135-3.1-2.637-3.094-4.686a7.185,7.185,0,0,1,1.807-4.291c.983-1.246,2.146-2.34,3.032-3.655a5.025,5.025,0,0,0,1.031-3.184,5.288,5.288,0,0,0-.692-1.986,31.864,31.864,0,0,1-2.173-3.994,4.012,4.012,0,0,1,.692-4.243,4.673,4.673,0,0,1,3.523-.879,8.078,8.078,0,0,1,3.281,1.156c3.253,1.807,5.115,5.662,8.569,7.053a33.8,33.8,0,0,0,4.153,1.024,5.241,5.241,0,0,1,3.461,2.36c1.267,2.533-1.087,5.655-.194,8.341.789,2.381,3.1,3.288,4.4,5.434a5.1,5.1,0,0,1,.609,3.115,14.9,14.9,0,0,1-1.315,5.26,46.725,46.725,0,0,1-2.873,4.991Z" transform="translate(-15.55 -245.938)" fill="#fff"/>
        </g>
        <path id="Trazado_107474" data-name="Trazado 107474" d="M40.021,290.8h0a.4.4,0,0,1-.388-.422c.692-16.086-6.922-33.854-12.459-39.011a.408.408,0,0,1,.554-.6c5.62,5.267,13.359,23.326,12.681,39.641a.408.408,0,0,1-.388.388Z" transform="translate(-19.097 -228.955)" fill="#fff"/>
        <path id="Trazado_107475" data-name="Trazado 107475" d="M36.594,279.023h-.118a54.715,54.715,0,0,0-11.649-1.9.4.4,0,0,1-.388-.422.395.395,0,0,1,.422-.388,55.884,55.884,0,0,1,11.885,1.917.415.415,0,0,1,.263.512A.408.408,0,0,1,36.594,279.023Z" transform="translate(-18.286 -236.842)" fill="#fff"/>
      </g>
    </g>
    <g id="freepik--Floor--inject-126" transform="translate(20.492 158.802)">
      <ellipse id="freepik--floor--inject-126-2" data-name="freepik--floor--inject-126" cx="159.884" cy="92.308" rx="159.884" ry="92.308" fill="#fafafa"/>
    </g>
    <g id="freepik--Shadows--inject-126" transform="translate(70.013 197.1)">
      <path id="freepik--Shadow--inject-126" d="M119.627,288.29c33.868-19.547,88.771-19.547,122.632,0,28.7,16.571,33.065,41.869,13.11,61.1l74.512,42.472c4.541,2.623,4.541,6.873,0,9.5l-6.7,3.869c-4.541,2.623-11.767,2.416-16.169-.457l-65.064-45.5c-33.916,19.381-88.542,19.3-122.293-.18C85.766,339.538,85.766,307.844,119.627,288.29Z" transform="translate(-94.235 -273.63)" fill="#e6e6e6"/>
    </g>
    <g id="freepik--Clouds--inject-126" transform="translate(27.414 28.681)">
      <path id="freepik--Cloud--inject-126" d="M135.435,45.061l-5.87,3.392a7.4,7.4,0,0,0,.048-.775v-1.7c0-3.032-2.125-4.257-4.748-2.769a9.1,9.1,0,0,0-2.831,2.72c-.436-3.807-3.419-5.226-7.053-3.136a15.716,15.716,0,0,0-7.1,12.314v2.54a6.68,6.68,0,0,0,.6,2.956l-4.845,2.817A5.8,5.8,0,0,0,101,68.006c0,1.682,1.177,2.36,2.637,1.523l31.84-18.384a5.8,5.8,0,0,0,2.637-4.561C138.073,44.9,136.9,44.223,135.435,45.061Z" transform="translate(-53.718 -33.854)" fill="#ebebeb"/>
      <path id="freepik--cloud--inject-126-2" data-name="freepik--cloud--inject-126" d="M36.988,56.785,40.3,54.231v-7.3c0-5.787,4.617-12.5,9.621-15.387h0c5.011-2.893,9.074-.547,9.074,5.233v1.059A12.923,12.923,0,0,1,63.2,33.632h0c3.606-2.077,6.527-.395,6.527,3.765v.485l4.617-2.665c2.374-1.384,4.3-.263,4.3,2.478a9.5,9.5,0,0,1-4.3,7.448L36.988,66.711c-2.374,1.384-4.3.256-4.3-2.485A9.49,9.49,0,0,1,36.988,56.785Z" transform="translate(-32.69 -30.31)" fill="#ebebeb"/>
    </g>
    <g id="freepik--Glass--inject-126" transform="translate(80.808 179.804)">
      <g id="freepik--glass--inject-126-2" data-name="freepik--glass--inject-126">
        <path id="Trazado_107476" data-name="Trazado 107476" d="M109.83,293.32v21.063c0,11.435,7.558,22.842,22.669,31.6,30.22,17.45,79.226,17.45,109.446,0,15.11-8.728,22.669-20.163,22.669-31.6V293.32h0c0-11.435-7.559-22.842-22.669-31.591-30.22-17.45-79.226-17.45-109.446,0-15.11,8.721-22.669,20.156-22.669,31.591Zm147.294,0c0,9.15-6.721,18.066-18.924,25.112-13.5,7.794-31.6,12.085-50.978,12.085s-37.481-4.291-50.978-12.085c-12.2-7.046-18.924-15.961-18.924-25.112s6.721-18.066,18.924-25.112c13.5-7.794,31.6-12.085,50.978-12.085s37.488,4.291,50.978,12.085C250.41,275.255,257.124,284.191,257.124,293.32Z" transform="translate(-109.83 -248.642)" fill="#d9a171"/>
        <path id="Trazado_107477" data-name="Trazado 107477" d="M109.83,293.32v21.063c0,11.435,7.558,22.842,22.669,31.6,30.22,17.45,79.226,17.45,109.446,0,15.11-8.728,22.669-20.163,22.669-31.6V293.32h0c0-11.435-7.559-22.842-22.669-31.591-30.22-17.45-79.226-17.45-109.446,0-15.11,8.721-22.669,20.156-22.669,31.591Zm147.294,0c0,9.15-6.721,18.066-18.924,25.112-13.5,7.794-31.6,12.085-50.978,12.085s-37.481-4.291-50.978-12.085c-12.2-7.046-18.924-15.961-18.924-25.112s6.721-18.066,18.924-25.112c13.5-7.794,31.6-12.085,50.978-12.085s37.488,4.291,50.978,12.085C250.41,275.255,257.124,284.191,257.124,293.32Z" transform="translate(-109.83 -248.642)" fill="#fff" opacity="0.2"/>
        <path id="Trazado_107478" data-name="Trazado 107478" d="M264.537,325.438c-1.2,7.247-4.4,12.7-17.249,22.731-18.169,14.19-64.178,19.983-90.882,11.172-25.188-8.306-33.224-24.565-33.224-35.716l.069-6.555c-3.89-4.631-5.939-9.607-5.939-14.66,0-5.177,2.153-10.279,6.23-15.006l.09-9.234H122.2c-8.244,7.358-12.369,15.8-12.369,24.226v21.063c0,11.435,7.558,22.842,22.669,31.6,30.22,17.45,79.226,17.45,109.446,0C256.189,346.847,263.72,336.195,264.537,325.438Z" transform="translate(-109.83 -257.732)" fill="#d9a171" opacity="0.6"/>
        <path id="Trazado_107479" data-name="Trazado 107479" d="M241.955,261.73c-30.227-17.45-79.226-17.45-109.446,0s-30.227,45.739,0,63.188,79.219,17.45,109.446,0S272.175,279.179,241.955,261.73Zm-3.745,56.7c-13.5,7.794-31.6,12.085-50.978,12.085s-37.481-4.291-50.985-12.085c-12.2-7.046-18.924-15.961-18.924-25.112s6.721-18.066,18.924-25.112c13.5-7.794,31.6-12.085,50.985-12.085s37.481,4.291,50.978,12.085c12.2,7.046,18.924,15.968,18.924,25.112S250.413,311.386,238.21,318.432Z" transform="translate(-109.833 -248.642)" fill="#d9a171"/>
        <path id="Trazado_107480" data-name="Trazado 107480" d="M241.955,261.73c-30.227-17.45-79.226-17.45-109.446,0s-30.227,45.739,0,63.188,79.219,17.45,109.446,0S272.175,279.179,241.955,261.73Zm-3.745,56.7c-13.5,7.794-31.6,12.085-50.978,12.085s-37.481-4.291-50.985-12.085c-12.2-7.046-18.924-15.961-18.924-25.112s6.721-18.066,18.924-25.112c13.5-7.794,31.6-12.085,50.985-12.085s37.481,4.291,50.978,12.085c12.2,7.046,18.924,15.968,18.924,25.112S250.413,311.386,238.21,318.432Z" transform="translate(-109.833 -248.642)" fill="#fff" opacity="0.5"/>
        <path id="Trazado_107481" data-name="Trazado 107481" d="M260.468,296.647a20.723,20.723,0,0,1-3.025,10.535c-3.066-5.309-8.472-10.293-15.92-14.577-13.483-7.8-31.6-12.092-50.978-12.092S153.064,284.8,139.574,292.6c-7.441,4.285-12.84,9.268-15.92,14.577a20.9,20.9,0,0,1-3-10.535c0-9.144,6.721-18.066,18.931-25.119,13.49-7.78,31.6-12.078,50.971-12.078s37.495,4.3,50.978,12.078C253.747,278.582,260.468,287.517,260.468,296.647Z" transform="translate(-113.161 -251.969)" fill="#d9a171"/>
        <path id="Trazado_107482" data-name="Trazado 107482" d="M260.468,296.647a20.723,20.723,0,0,1-3.025,10.535c-3.066-5.309-8.472-10.293-15.92-14.577-13.483-7.8-31.6-12.092-50.978-12.092S153.064,284.8,139.574,292.6c-7.441,4.285-12.84,9.268-15.92,14.577a20.9,20.9,0,0,1-3-10.535c0-9.144,6.721-18.066,18.931-25.119,13.49-7.78,31.6-12.078,50.971-12.078s37.495,4.3,50.978,12.078C253.747,278.582,260.468,287.517,260.468,296.647Z" transform="translate(-113.161 -251.969)" fill="#fff" opacity="0.3"/>
        <path id="Trazado_107483" data-name="Trazado 107483" d="M139.581,271.827c-12.21,7.053-18.931,15.975-18.931,25.119a20.9,20.9,0,0,0,3.011,10.535c3.087-5.309,8.486-10.293,15.92-14.577a77.385,77.385,0,0,1,9.773-4.714c-2.949,1.142-12,4.056-8.7-4.575,3.925-10.251,23.077-21.353,37.149-23.195h0C163.329,261.853,150.06,265.784,139.581,271.827Z" transform="translate(-113.161 -252.268)" fill="#d9a171" opacity="0.6"/>
        <path id="Trazado_107484" data-name="Trazado 107484" d="M241.815,285.315c-13.5-7.794-31.6-12.085-50.978-12.085s-37.488,4.291-50.985,12.085c-10.064,5.814-16.391,12.9-18.3,20.343,1.91,7.441,8.237,14.536,18.3,20.343,13.5,7.794,31.6,12.085,50.985,12.085s37.481-4.291,50.978-12.085c10.071-5.814,16.4-12.9,18.3-20.343C258.219,298.217,251.886,291.129,241.815,285.315Z" transform="translate(-113.438 -256.211)" fill="#fff" opacity="0.4"/>
        <path id="Trazado_107485" data-name="Trazado 107485" d="M140.52,323.406a47.248,47.248,0,0,0,14.238,7.24,101.744,101.744,0,0,0,15.373,3.793,152.184,152.184,0,0,0,31.535,1.8c5.267-.235,10.542-.727,15.781-1.433a129.657,129.657,0,0,0,15.5-3.052,67.1,67.1,0,0,0,14.626-5.537,33.273,33.273,0,0,0,3.322-2.028,26.2,26.2,0,0,0,3.039-2.423,17.379,17.379,0,0,0,2.554-2.956,12.653,12.653,0,0,0,1.723-3.62,11.684,11.684,0,0,1-.692,4.153,18.154,18.154,0,0,1-1.98,3.793,22.744,22.744,0,0,1-2.713,3.322,33.707,33.707,0,0,1-3.177,2.873,56.834,56.834,0,0,1-14.833,8.14,94.829,94.829,0,0,1-16.176,4.506,121.589,121.589,0,0,1-16.612,1.973,105.985,105.985,0,0,1-33.224-3.537,74.47,74.47,0,0,1-15.581-6.23,48.375,48.375,0,0,1-6.991-4.665c-.547-.436-1.059-.914-1.585-1.384s-1.024-.948-1.5-1.454a25.154,25.154,0,0,1-2.623-3.274Z" transform="translate(-119.277 -269.128)" fill="#fff"/>
        <path id="Trazado_107486" data-name="Trazado 107486" d="M297.38,373.69a11.968,11.968,0,0,1,5.385-9.414,3.812,3.812,0,0,1,3.814-.4h0l17.249,9.863h0a3.786,3.786,0,0,1,1.592,3.461,11.988,11.988,0,0,1-5.385,9.414,3.8,3.8,0,0,1-3.835.395h0l-17.242-9.857h0C298,376.639,297.387,375.428,297.38,373.69Z" transform="translate(-167.564 -284.008)" fill="#37474f"/>
        <path id="Trazado_107487" data-name="Trazado 107487" d="M298.993,379.915a3.8,3.8,0,0,1-1.613-3.509,10.189,10.189,0,0,1,.921-4.056l24.787,14.2a10.382,10.382,0,0,1-3.018,2.824,3.8,3.8,0,0,1-3.835.395Z" transform="translate(-167.564 -286.723)" fill="#263238"/>
        <path id="Trazado_107488" data-name="Trazado 107488" d="M390.7,406.162h0l-54.889-27.971h0l-.069-.042h0c-1.274-.692-3-.568-4.908.54a15.593,15.593,0,0,0-7,12.251c0,2.257.81,3.835,2.077,4.568l51.587,33.224h0a13.082,13.082,0,1,0,13.2-22.572Z" transform="translate(-175.706 -288.377)" fill="#455a64"/>
        <path id="Trazado_107489" data-name="Trazado 107489" d="M325.907,399.857l51.587,33.224a13.068,13.068,0,0,0,19.99-10.237c-.99,4.3-8.091,7.953-16.9,3.032S339.169,400.334,324.35,391.8a12.024,12.024,0,0,0-.54,3.461C323.817,397.545,324.634,399.123,325.907,399.857Z" transform="translate(-175.699 -292.711)" fill="#37474f"/>
        <path id="Trazado_107490" data-name="Trazado 107490" d="M325.917,395.531c-1.287-.734-2.077-2.312-2.077-4.568a15.649,15.649,0,0,1,7-12.251c1.9-1.107,3.634-1.225,4.908-.54l4.845,2.464c-1.308-.692-3.073-.581-5.032.554a16,16,0,0,0-7.185,12.57c0,2.312.8,3.966,2.111,4.714" transform="translate(-175.709 -288.384)" fill="#d9a171"/>
        <path id="Trazado_107491" data-name="Trazado 107491" d="M330.481,402.8c-1.315-.748-2.077-2.4-2.111-4.714a12.363,12.363,0,0,1,.561-3.606c-1.654-.983-3.2-1.883-4.575-2.679a13.792,13.792,0,0,0-.408,1.765q-.062.436-.1.872a6.987,6.987,0,0,0,0,.851c0,2.257.81,3.835,2.077,4.568Z" transform="translate(-175.705 -292.711)" opacity="0.2"/>
      </g>
    </g>
    <g id="freepik--paper-planes--inject-126" transform="translate(41.686 35.561)">
      <g id="freepik--paper-plane--inject-126" transform="translate(0 173.172)">
        <path id="Trazado_107492" data-name="Trazado 107492" d="M111.383,440.522,69.853,419.75,53.31,427.073Z" transform="translate(-53.31 -330.243)" fill="#d9a171"/>
        <g id="Grupo_59579" data-name="Grupo 59579" transform="translate(0 89.507)" opacity="0.15">
          <path id="Trazado_107493" data-name="Trazado 107493" d="M111.383,440.522,69.853,419.75,53.31,427.073Z" transform="translate(-53.31 -419.75)" fill="#fff"/>
        </g>
        <path id="Trazado_107494" data-name="Trazado 107494" d="M120.941,434.7,84.36,410.243l6.548-9.414Z" transform="translate(-62.868 -324.419)" fill="#d9a171"/>
        <g id="Grupo_59580" data-name="Grupo 59580" transform="translate(21.492 76.411)" opacity="0.15">
          <path id="Trazado_107495" data-name="Trazado 107495" d="M120.941,434.7,84.36,410.243l6.548-9.414Z" transform="translate(-84.36 -400.83)" fill="#fff"/>
        </g>
        <path id="Trazado_107496" data-name="Trazado 107496" d="M84.36,414.43l.685,6.5,35.9,17.955Z" transform="translate(-62.868 -328.606)" fill="#d9a171"/>
        <g id="Grupo_59581" data-name="Grupo 59581" transform="translate(21.492 85.824)" opacity="0.2">
          <path id="Trazado_107497" data-name="Trazado 107497" d="M84.36,414.43l.685,6.5,35.9,17.955Z" transform="translate(-84.36 -414.43)"/>
        </g>
        <path id="Trazado_107498" data-name="Trazado 107498" d="M75.261,411.749a.408.408,0,0,0,.27-.111.484.484,0,0,0,.042-.644l-.8-1.066a.388.388,0,0,0-.581-.055.491.491,0,0,0-.048.644c.263.353.533.692.8,1.045A.409.409,0,0,0,75.261,411.749Z" transform="translate(-59.694 -327.17)" fill="#455a64"/>
        <path id="Trazado_107499" data-name="Trazado 107499" d="M65.423,371.247q-.741-1.08-1.433-2.18a.491.491,0,0,1,.1-.637.381.381,0,0,1,.568.111c.464.727.934,1.447,1.384,2.16a.478.478,0,0,1-.083.637.367.367,0,0,1-.242.09A.408.408,0,0,1,65.423,371.247ZM61.761,365.3c-.422-.768-.838-1.55-1.232-2.333a.484.484,0,0,1,.159-.623.388.388,0,0,1,.561.18c.388.768.8,1.537,1.211,2.3a.485.485,0,0,1-.132.63.422.422,0,0,1-.215.062A.408.408,0,0,1,61.761,365.3Zm-3.087-6.34c-.346-.824-.692-1.654-.983-2.478a.478.478,0,0,1,.221-.6.4.4,0,0,1,.54.249c.3.81.623,1.627.969,2.436a.485.485,0,0,1-.2.609.4.4,0,0,1-.173.041A.415.415,0,0,1,58.674,358.961Zm-2.395-6.7c-.249-.865-.485-1.744-.692-2.6a.457.457,0,0,1,.291-.561.408.408,0,0,1,.505.318c.2.844.429,1.7.692,2.554a.471.471,0,0,1-.263.574h-.125A.422.422,0,0,1,56.279,352.261Zm-1.606-7c-.138-.879-.263-1.779-.367-2.672a.443.443,0,0,1,.353-.512.436.436,0,0,1,.464.395c.1.879.221,1.765.36,2.63a.45.45,0,0,1-.325.526h-.076A.436.436,0,0,1,54.673,345.263Zm-.692-7.171c0-.692-.042-1.384-.042-2.125v-.581a.429.429,0,0,1,.408-.45h0a.436.436,0,0,1,.4.464v2.644a.443.443,0,0,1-.395.478h0A.429.429,0,0,1,53.981,338.092Zm.547-6.707a.45.45,0,0,1-.367-.5c.076-.893.173-1.8.284-2.693a.415.415,0,0,1,.471-.381.443.443,0,0,1,.346.512c-.111.879-.208,1.772-.284,2.644a.436.436,0,0,1-.408.415Zm.969-7.074a.457.457,0,0,1-.3-.547c.18-.879.388-1.758.616-2.623a.4.4,0,0,1,.505-.311.471.471,0,0,1,.284.568c-.221.844-.429,1.717-.609,2.575a.415.415,0,0,1-.395.353Zm1.869-6.846a.464.464,0,0,1-.228-.588c.3-.831.63-1.668.976-2.485a.4.4,0,0,1,.547-.221.491.491,0,0,1,.2.609c-.346.8-.692,1.62-.962,2.436a.408.408,0,0,1-.381.284.3.3,0,0,1-.152-.035Zm2.845-6.43a.485.485,0,0,1-.145-.63c.422-.768.865-1.537,1.315-2.277a.388.388,0,0,1,.575-.125.5.5,0,0,1,.111.637c-.45.727-.886,1.481-1.294,2.236a.4.4,0,0,1-.353.221A.38.38,0,0,1,60.211,311.035Zm3.675-5.877a.485.485,0,0,1-.048-.637c.519-.692,1.066-1.384,1.613-2.035a.381.381,0,0,1,.581,0,.485.485,0,0,1,0,.644c-.54.644-1.073,1.308-1.585,1.993a.394.394,0,0,1-.318.166.374.374,0,0,1-.277-.132Zm4.451-5.177a.484.484,0,0,1,0-.644c.609-.6,1.239-1.191,1.869-1.744a.388.388,0,0,1,.581.076.5.5,0,0,1-.069.644c-.623.54-1.239,1.114-1.841,1.7a.388.388,0,0,1-.27.118.394.394,0,0,1-.3-.152Zm5.094-4.381a.5.5,0,0,1,.125-.63c.692-.5,1.384-.962,2.077-1.384a.388.388,0,0,1,.554.18.478.478,0,0,1-.159.616c-.692.415-1.384.872-2.077,1.384a.381.381,0,0,1-.222.069.422.422,0,0,1-.332-.235Z" transform="translate(-53.504 -291.389)" fill="#455a64"/>
        <path id="Trazado_107500" data-name="Trazado 107500" d="M90.714,291.657h.125a6.315,6.315,0,0,1,1.128-.311.45.45,0,0,0,.346-.519.422.422,0,0,0-.464-.388,7.854,7.854,0,0,0-1.26.346.464.464,0,0,0-.27.574A.422.422,0,0,0,90.714,291.657Z" transform="translate(-64.696 -290.437)" fill="#455a64"/>
      </g>
      <g id="freepik--paper-plane--inject-126-2" data-name="freepik--paper-plane--inject-126" transform="translate(177.812 0)">
        <path id="Trazado_107501" data-name="Trazado 107501" d="M352.768,56.347,310.2,43.3l32.795,22.53Z" transform="translate(-310.2 -41.189)" fill="#d9a171"/>
        <path id="Trazado_107502" data-name="Trazado 107502" d="M352.768,56.347,310.2,43.3l32.795,22.53Z" transform="translate(-310.2 -41.189)" fill="#fff" opacity="0.15"/>
        <path id="Trazado_107503" data-name="Trazado 107503" d="M310.2,42.361l45.815,7.372,9.773-9.483Z" transform="translate(-310.2 -40.25)" fill="#d9a171"/>
        <path id="Trazado_107504" data-name="Trazado 107504" d="M310.2,42.361l45.815,7.372,9.773-9.483Z" transform="translate(-310.2 -40.25)" fill="#fff" opacity="0.15"/>
        <path id="Trazado_107505" data-name="Trazado 107505" d="M356.015,50.672,356.056,62l-3.288-5.648L310.2,43.3Z" transform="translate(-310.2 -41.189)" fill="#d9a171"/>
        <path id="Trazado_107506" data-name="Trazado 107506" d="M356.015,50.672,356.056,62l-3.288-5.648L310.2,43.3Z" transform="translate(-310.2 -41.189)" opacity="0.2"/>
        <path id="Trazado_107507" data-name="Trazado 107507" d="M373.538,67.8l-6.548-2.485,3.26-3.163Z" transform="translate(-327.682 -46.991)" fill="#d9a171"/>
        <path id="Trazado_107508" data-name="Trazado 107508" d="M370.25,62.15l-3.26,3.163,1.045.395Z" transform="translate(-327.682 -46.991)" opacity="0.2"/>
        <path id="Trazado_107509" data-name="Trazado 107509" d="M388.794,59.235a.367.367,0,0,0-.145.249.5.5,0,0,0,.36.54l1.26.339a.381.381,0,0,0,.491-.311.491.491,0,0,0-.346-.54l-1.274-.339a.394.394,0,0,0-.346.062Z" transform="translate(-334.348 -46.07)" fill="#455a64"/>
        <path id="Trazado_107510" data-name="Trazado 107510" d="M396.958,61.489c.824.277,1.647.568,2.457.865a.5.5,0,0,1,.311.568.388.388,0,0,1-.526.256c-.8-.3-1.62-.581-2.436-.858a.485.485,0,0,1-.318-.554.353.353,0,0,1,.138-.221A.4.4,0,0,1,396.958,61.489Zm6.513,2.506c.81.36,1.606.692,2.395,1.114a.478.478,0,0,1,.249.588.395.395,0,0,1-.554.2c-.775-.381-1.564-.748-2.36-1.094a.491.491,0,0,1-.27-.581.367.367,0,0,1,.132-.187A.4.4,0,0,1,403.471,63.995Zm6.3,3.177c.775.443,1.537.907,2.284,1.384a.484.484,0,0,1,.187.609.4.4,0,0,1-.581.132c-.734-.464-1.488-.914-2.25-1.384a.478.478,0,0,1-.208-.6.339.339,0,0,1,.111-.145A.415.415,0,0,1,409.77,67.172Zm5.966,3.883c.727.533,1.44,1.087,2.125,1.64a.464.464,0,0,1,.1.623.4.4,0,0,1-.6.048c-.692-.547-1.384-1.087-2.077-1.613a.471.471,0,0,1-.138-.623.257.257,0,0,1,.083-.09A.429.429,0,0,1,415.737,71.055Zm5.5,4.624c.651.616,1.294,1.253,1.917,1.9a.45.45,0,0,1,0,.623.429.429,0,0,1-.609,0c-.609-.637-1.246-1.267-1.883-1.869a.457.457,0,0,1-.055-.623l.055-.055a.429.429,0,0,1,.575.021Zm4.907,5.274c.45.547.886,1.1,1.322,1.668l.346.464a.436.436,0,0,1-.055.609h0a.429.429,0,0,1-.6-.118l-.346-.457c-.422-.554-.851-1.1-1.294-1.64a.443.443,0,0,1,0-.616h0a.429.429,0,0,1,.63.062Zm3.634,5.676a.45.45,0,0,1,.6.166c.478.761.948,1.537,1.384,2.319a.422.422,0,0,1-.138.588.457.457,0,0,1-.588-.2c-.443-.768-.907-1.537-1.384-2.277a.429.429,0,0,1,.076-.574Zm3.509,6.23a.464.464,0,0,1,.581.249c.381.81.754,1.634,1.094,2.457a.415.415,0,0,1-.215.561.471.471,0,0,1-.568-.284c-.332-.81-.692-1.62-1.073-2.409a.415.415,0,0,1,.1-.526.285.285,0,0,1,.076-.1Zm2.665,6.576a.471.471,0,0,1,.54.332c.263.844.512,1.71.727,2.568a.395.395,0,0,1-.3.505.471.471,0,0,1-.519-.36c-.215-.844-.457-1.7-.692-2.519a.408.408,0,0,1,.125-.457.353.353,0,0,1,.125-.118Zm1.661,6.818a.485.485,0,0,1,.491.415c.138.865.249,1.744.339,2.616a.388.388,0,0,1-.381.436.478.478,0,0,1-.471-.436c-.09-.851-.194-1.71-.332-2.561a.408.408,0,0,1,.145-.388.387.387,0,0,1,.208-.132Z" transform="translate(-336.746 -46.781)" fill="#455a64"/>
      </g>
    </g>
    <g id="freepik--Stars--inject-126" transform="translate(257.657 25.033)">
      <g id="freepik--stars--inject-126-2" data-name="freepik--stars--inject-126" transform="translate(0 179.8)">
        <path id="Trazado_107511" data-name="Trazado 107511" d="M435.62,285.514c-1.855-1.107-4.471-.955-7.379.692l-52.716,30.455c-5.627,3.246-10.2,10.971-10.2,17.249,0,3.066,1.094,5.212,2.866,6.23l5.655,3.26c1.848,1.052,4.43.886,7.3-.768l52.723-30.455c5.627-3.246,10.189-10.971,10.189-17.249,0-3.046-1.08-5.2-2.838-6.23C440.257,288.172,436.547,286.067,435.62,285.514Z" transform="translate(-365.33 -284.802)" fill="#e0e0e0"/>
        <path id="Trazado_107512" data-name="Trazado 107512" d="M379.124,345.383c-3.184,0-5.164-2.52-5.164-6.569,0-6.153,4.492-13.76,10.016-16.944L436.7,291.414a9.267,9.267,0,0,1,4.506-1.384c3.184,0,5.164,2.52,5.164,6.569,0,6.16-4.492,13.76-10.016,16.951L383.63,344.005A9.192,9.192,0,0,1,379.124,345.383Z" transform="translate(-367.987 -286.412)" fill="#fafafa"/>
        <path id="Trazado_107513" data-name="Trazado 107513" d="M441.05,290.185h0c2.969,0,4.845,2.388,4.845,6.23,0,6.05-4.416,13.518-9.843,16.612L383.33,343.482A8.909,8.909,0,0,1,379,344.825a4.305,4.305,0,0,1-3.461-1.557,7.275,7.275,0,0,1-1.384-4.665c0-6.043,4.416-13.511,9.843-16.612l52.723-30.455a8.908,8.908,0,0,1,4.333-1.343m0-.692a9.5,9.5,0,0,0-4.679,1.44L383.649,321.4c-5.627,3.253-10.189,10.971-10.189,17.249,0,4.4,2.236,6.922,5.537,6.922a9.572,9.572,0,0,0,4.679-1.433L436.4,313.677c5.627-3.246,10.189-10.971,10.189-17.249,0-4.4-2.236-6.922-5.537-6.922Z" transform="translate(-367.833 -286.248)" fill="#ebebeb"/>
        <g id="freepik--stars--inject-126-3" data-name="freepik--stars--inject-126" transform="translate(12.964 9.77)">
          <path id="Trazado_107514" data-name="Trazado 107514" d="M395.179,343.74c.215-.4.18-.817,0-.927l-1.765-1.018a.263.263,0,0,0-.242,0l-1.62.623-.533-1.135a.291.291,0,0,0-.125-.132l-1.765-1.024c-.221-.125-.588.159-.734.63l-1.1,3.606a1.094,1.094,0,0,1-.36.554l-2.457,1.9c-.395.3-.547,1.031-.263,1.232l1.779,1.287a.533.533,0,0,1,.138.485l-.422,3.509c-.035.256.042.429.159.491l1.765,1.024c.138.076.346,0,.533-.228l2.2-2.81a.526.526,0,0,1,.443-.256l2.208.242c.346.048.754-.588.692-1.066l-.422-3.025a1.121,1.121,0,0,1,.138-.644Z" transform="translate(-384.063 -311.594)" fill="#d9a171"/>
          <path id="Trazado_107515" data-name="Trazado 107515" d="M398.477,343.535a.291.291,0,0,0-.242,0l-2.464.941a.256.256,0,0,1-.353-.138l-.568-1.2,1.62-.616a.27.27,0,0,1,.242,0Z" transform="translate(-387.381 -312.33)" fill="#fff" opacity="0.15"/>
          <path id="Trazado_107516" data-name="Trazado 107516" d="M389.1,347.267a1.121,1.121,0,0,1-.36.554l-2.457,1.9a.892.892,0,0,0-.263.332l-1.765-1.024a1.017,1.017,0,0,1,.263-.332l2.457-1.9a1.1,1.1,0,0,0,.36-.547h0Z" transform="translate(-384.118 -313.488)" fill="#fff" opacity="0.15"/>
          <path id="Trazado_107517" data-name="Trazado 107517" d="M392.313,341.138c-.221-.145-.6.138-.748.623l-1.1,3.606-1.765-1.024,1.1-3.606c.145-.471.512-.754.734-.63.048,0,1.544.9,1.772,1.024Z" transform="translate(-385.488 -311.588)" opacity="0.1"/>
          <path id="Trazado_107518" data-name="Trazado 107518" d="M387.735,353.485l-1.751-1.011h0l-1.779-1.287c-.208-.152-.18-.568,0-.907l1.765,1.024c-.18.332-.208.754,0,.907Z" transform="translate(-384.06 -314.729)" opacity="0.25"/>
          <path id="Trazado_107519" data-name="Trazado 107519" d="M388.214,358.457c0,.256.042.429.173.5h0l-1.772-1.024a.478.478,0,0,1-.152-.491l.422-3.509a.54.54,0,0,0-.125-.471l1.751,1.011h0a.519.519,0,0,1,.125.464Z" transform="translate(-384.794 -315.707)" opacity="0.15"/>
          <path id="Trazado_107520" data-name="Trazado 107520" d="M391.787,341.718l1.1,2.34a.256.256,0,0,0,.353.138l2.464-.941c.388-.152.547.4.263.934l-1.779,3.336a1.121,1.121,0,0,0-.138.644l.422,3.025c.062.478-.346,1.114-.692,1.066l-2.2-.27a.526.526,0,0,0-.443.256l-2.173,2.81c-.353.45-.761.291-.692-.27l.422-3.509a.519.519,0,0,0-.138-.485l-1.779-1.281c-.284-.208-.125-.934.263-1.239l2.457-1.9a1.094,1.094,0,0,0,.36-.554l1.1-3.606C391.1,341.641,391.607,341.351,391.787,341.718Z" transform="translate(-384.851 -312.043)" fill="#d9a171"/>
          <path id="Trazado_107521" data-name="Trazado 107521" d="M391.787,341.718l1.1,2.34a.256.256,0,0,0,.353.138l2.464-.941c.388-.152.547.4.263.934l-1.779,3.336a1.121,1.121,0,0,0-.138.644l.422,3.025c.062.478-.346,1.114-.692,1.066l-2.2-.27a.526.526,0,0,0-.443.256l-2.173,2.81c-.353.45-.761.291-.692-.27l.422-3.509a.519.519,0,0,0-.138-.485l-1.779-1.281c-.284-.208-.125-.934.263-1.239l2.457-1.9a1.094,1.094,0,0,0,.36-.554l1.1-3.606C391.1,341.641,391.607,341.351,391.787,341.718Z" transform="translate(-384.851 -312.043)" fill="#fff" opacity="0.5"/>
          <path id="Trazado_107522" data-name="Trazado 107522" d="M413.04,333.443c.215-.4.173-.81,0-.921l-1.758-1.017a.277.277,0,0,0-.249,0l-1.613.623-.54-1.135a.249.249,0,0,0-.118-.132L407,329.837c-.221-.125-.588.159-.734.63l-1.149,3.627a1.143,1.143,0,0,1-.36.554l-2.457,1.9c-.395.3-.547,1.038-.27,1.239l1.786,1.287a.519.519,0,0,1,.132.484l-.415,3.509c-.035.256.035.429.152.491l1.744.99c.138.076.339,0,.533-.228l2.2-2.81a.526.526,0,0,1,.443-.256l2.2.27c.346.042.754-.588.692-1.066l-.415-3.025a1.073,1.073,0,0,1,.138-.644Z" transform="translate(-389.547 -308.426)" fill="#d9a171"/>
          <path id="Trazado_107523" data-name="Trazado 107523" d="M416.318,333.255a.3.3,0,0,0-.242,0l-2.485.941a.263.263,0,0,1-.36-.138l-.561-1.2,1.613-.616a.283.283,0,0,1,.249,0Z" transform="translate(-392.867 -309.165)" fill="#fff" opacity="0.15"/>
          <path id="Trazado_107524" data-name="Trazado 107524" d="M406.942,336.984a1.121,1.121,0,0,1-.36.554l-2.478,1.917a.892.892,0,0,0-.263.332l-1.751-1.024a1.143,1.143,0,0,1,.27-.332l2.457-1.9a1.142,1.142,0,0,0,.36-.554h0Z" transform="translate(-389.61 -310.326)" fill="#fff" opacity="0.15"/>
          <path id="Trazado_107525" data-name="Trazado 107525" d="M410.163,330.864c-.222-.145-.6.138-.748.623l-1.1,3.606-1.765-.99,1.1-3.606c.145-.471.512-.754.734-.63.048,0,1.544.9,1.765,1.017Z" transform="translate(-390.983 -308.436)" opacity="0.1"/>
          <path id="Trazado_107526" data-name="Trazado 107526" d="M405.588,343.188l-1.751-1h0l-1.779-1.287c-.2-.152-.173-.568,0-.907l1.772,1.024c-.18.332-.208.754,0,.9Z" transform="translate(-389.557 -311.561)" opacity="0.25"/>
          <path id="Trazado_107527" data-name="Trazado 107527" d="M406.027,348.161c-.035.263.042.436.166.505h0l-1.765-1.024c-.118-.069-.187-.235-.152-.491l.422-3.509a.561.561,0,0,0-.125-.471l1.751,1h0a.519.519,0,0,1,.125.464Z" transform="translate(-390.28 -312.54)" opacity="0.15"/>
          <path id="Trazado_107528" data-name="Trazado 107528" d="M409.614,331.432l1.1,2.34a.263.263,0,0,0,.36.138l2.464-.941c.388-.152.547.4.263.927l-1.779,3.343a1.073,1.073,0,0,0-.138.644l.415,3.025c.069.478-.339,1.107-.692,1.066l-2.2-.27a.526.526,0,0,0-.443.256l-2.2,2.81c-.353.45-.761.291-.692-.27l.422-3.509a.533.533,0,0,0-.138-.485l-1.779-1.28c-.284-.208-.132-.934.263-1.239l2.457-1.9a1.094,1.094,0,0,0,.36-.554l1.1-3.606C408.936,331.356,409.441,331.086,409.614,331.432Z" transform="translate(-390.33 -308.879)" fill="#d9a171"/>
          <path id="Trazado_107529" data-name="Trazado 107529" d="M409.614,331.432l1.1,2.34a.263.263,0,0,0,.36.138l2.464-.941c.388-.152.547.4.263.927l-1.779,3.343a1.073,1.073,0,0,0-.138.644l.415,3.025c.069.478-.339,1.107-.692,1.066l-2.2-.27a.526.526,0,0,0-.443.256l-2.2,2.81c-.353.45-.761.291-.692-.27l.422-3.509a.533.533,0,0,0-.138-.485l-1.779-1.28c-.284-.208-.132-.934.263-1.239l2.457-1.9a1.094,1.094,0,0,0,.36-.554l1.1-3.606C408.936,331.356,409.441,331.086,409.614,331.432Z" transform="translate(-390.33 -308.879)" fill="#fff" opacity="0.5"/>
          <path id="Trazado_107530" data-name="Trazado 107530" d="M430.867,323.162c.208-.4.173-.81,0-.921l-1.786-1a.3.3,0,0,0-.249,0l-1.62.623-.533-1.135a.249.249,0,0,0-.118-.132l-1.765-1.024c-.221-.125-.6.159-.734.63l-1.1,3.606a1.142,1.142,0,0,1-.36.554l-2.464,1.9c-.388.3-.547,1.031-.263,1.239l1.779,1.287a.5.5,0,0,1,.138.485l-.422,3.509c0,.256.042.422.159.491L423.3,334.3c.145.076.346,0,.54-.228l2.194-2.81a.526.526,0,0,1,.45-.256l2.194.27c.353.042.761-.588.692-1.066l-.415-3.025a1.114,1.114,0,0,1,.132-.644Z" transform="translate(-395.041 -305.268)" fill="#d9a171"/>
          <path id="Trazado_107531" data-name="Trazado 107531" d="M434.174,322.965a.311.311,0,0,0-.249,0l-2.457.941a.263.263,0,0,1-.36-.138l-.568-1.2,1.62-.616a.27.27,0,0,1,.242,0Z" transform="translate(-398.368 -305.998)" fill="#fff" opacity="0.15"/>
          <path id="Trazado_107532" data-name="Trazado 107532" d="M424.842,326.678a1.163,1.163,0,0,1-.36.561l-2.457,1.9a.982.982,0,0,0-.27.332l-1.765-1.024a1.142,1.142,0,0,1,.27-.332l2.457-1.9a1.142,1.142,0,0,0,.36-.554h0Z" transform="translate(-395.12 -307.15)" fill="#fff" opacity="0.15"/>
          <path id="Trazado_107533" data-name="Trazado 107533" d="M428.028,320.538c-.221-.145-.6.138-.748.616l-1.066,3.627-1.765-1.018,1.1-3.606c.145-.471.512-.754.734-.63.048,0,1.537.9,1.765,1.017Z" transform="translate(-396.493 -305.253)" opacity="0.1"/>
          <path id="Trazado_107534" data-name="Trazado 107534" d="M423.42,332.895l-1.744-1h0l-1.8-1.294c-.2-.152-.18-.568,0-.907l1.765,1.024c-.173.332-.2.754,0,.9Z" transform="translate(-395.041 -308.39)" opacity="0.25"/>
          <path id="Trazado_107535" data-name="Trazado 107535" d="M423.875,337.871c-.035.263.042.436.166.505h0l-1.765-1.024c-.118-.069-.187-.235-.159-.491l.422-3.516a.533.533,0,0,0-.118-.464l1.744,1h0a.554.554,0,0,1,.125.464Z" transform="translate(-395.773 -309.372)" opacity="0.15"/>
          <path id="Trazado_107536" data-name="Trazado 107536" d="M427.466,321.138l1.1,2.34a.263.263,0,0,0,.36.138l2.457-.941c.395-.152.547.4.27.927l-1.786,3.343a1.115,1.115,0,0,0-.132.644l.415,3.025c.069.478-.339,1.107-.692,1.066l-2.194-.27a.526.526,0,0,0-.45.256l-2.194,2.81c-.353.45-.761.291-.692-.27l.415-3.509a.519.519,0,0,0-.131-.484l-1.786-1.287c-.277-.2-.125-.934.27-1.232l2.457-1.9a1.142,1.142,0,0,0,.36-.554l1.1-3.606C426.788,321.061,427.293,320.771,427.466,321.138Z" transform="translate(-395.827 -305.707)" fill="#d9a171"/>
          <path id="Trazado_107537" data-name="Trazado 107537" d="M427.466,321.138l1.1,2.34a.263.263,0,0,0,.36.138l2.457-.941c.395-.152.547.4.27.927l-1.786,3.343a1.115,1.115,0,0,0-.132.644l.415,3.025c.069.478-.339,1.107-.692,1.066l-2.194-.27a.526.526,0,0,0-.45.256l-2.194,2.81c-.353.45-.761.291-.692-.27l.415-3.509a.519.519,0,0,0-.131-.484l-1.786-1.287c-.277-.2-.125-.934.27-1.232l2.457-1.9a1.142,1.142,0,0,0,.36-.554l1.1-3.606C426.788,321.061,427.293,320.771,427.466,321.138Z" transform="translate(-395.827 -305.707)" fill="#fff" opacity="0.5"/>
          <path id="Trazado_107538" data-name="Trazado 107538" d="M448.72,312.86c.215-.4.18-.81,0-.921l-1.758-1.024a.3.3,0,0,0-.249,0l-1.62.623-.533-1.135a.291.291,0,0,0-.118-.138c-.221-.118-1.717-.99-1.765-1.017-.222-.125-.6.159-.741.63l-1.1,3.606a1.129,1.129,0,0,1-.353.554l-2.464,1.9c-.388.3-.547,1.031-.263,1.239l1.779,1.287a.5.5,0,0,1,.138.478l-.422,3.509c0,.256.042.429.159.5l1.765,1.024c.138.076.346,0,.533-.228l2.2-2.81a.526.526,0,0,1,.443-.256l2.2.27c.353.042.761-.588.692-1.066l-.422-3.025a1.17,1.17,0,0,1,.138-.644Z" transform="translate(-400.545 -302.088)" fill="#d9a171"/>
          <path id="Trazado_107539" data-name="Trazado 107539" d="M452.017,312.674a.291.291,0,0,0-.242,0l-2.464.941a.256.256,0,0,1-.353-.138l-.568-1.2,1.62-.616a.249.249,0,0,1,.242,0Z" transform="translate(-403.863 -302.829)" fill="#fff" opacity="0.15"/>
          <path id="Trazado_107540" data-name="Trazado 107540" d="M442.642,316.388a1.163,1.163,0,0,1-.36.561l-2.457,1.9a.984.984,0,0,0-.27.332l-1.765-1.024a1.114,1.114,0,0,1,.263-.332l2.457-1.9a1.1,1.1,0,0,0,.367-.554h0Z" transform="translate(-400.599 -303.982)" fill="#fff" opacity="0.15"/>
          <path id="Trazado_107541" data-name="Trazado 107541" d="M445.863,310.268c-.221-.145-.6.138-.748.616l-1.1,3.606-1.765-1.017,1.1-3.606c.138-.471.512-.754.734-.63.048,0,1.537.9,1.765,1.017Z" transform="translate(-401.972 -302.085)" opacity="0.1"/>
          <path id="Trazado_107542" data-name="Trazado 107542" d="M441.278,322.578l-1.744-1h0l-1.779-1.287c-.208-.152-.18-.568,0-.907l1.765,1.024c-.18.332-.2.754,0,.9Z" transform="translate(-400.544 -305.217)" opacity="0.25"/>
          <path id="Trazado_107543" data-name="Trazado 107543" d="M441.712,327.565c0,.263.048.436.173.505h0l-1.779-1.059c-.118-.069-.187-.235-.159-.491L440.37,323a.554.554,0,0,0-.118-.464l1.744,1h0a.533.533,0,0,1,.118.464Z" transform="translate(-401.262 -306.189)" opacity="0.15"/>
          <path id="Trazado_107544" data-name="Trazado 107544" d="M445.315,310.848l1.1,2.34a.263.263,0,0,0,.36.138l2.457-.941c.395-.152.547.4.263.927l-1.779,3.343a1.169,1.169,0,0,0-.138.644l.422,3.025c.069.478-.339,1.107-.692,1.066l-2.2-.27a.526.526,0,0,0-.443.256l-2.2,2.81c-.346.45-.754.291-.692-.27l.422-3.509a.5.5,0,0,0-.138-.485l-1.779-1.287c-.284-.2-.125-.934.263-1.232l2.464-1.9a1.17,1.17,0,0,0,.36-.554l1.1-3.613C444.636,310.771,445.142,310.481,445.315,310.848Z" transform="translate(-401.32 -302.54)" fill="#d9a171"/>
          <path id="Trazado_107545" data-name="Trazado 107545" d="M445.315,310.848l1.1,2.34a.263.263,0,0,0,.36.138l2.457-.941c.395-.152.547.4.263.927l-1.779,3.343a1.169,1.169,0,0,0-.138.644l.422,3.025c.069.478-.339,1.107-.692,1.066l-2.2-.27a.526.526,0,0,0-.443.256l-2.2,2.81c-.346.45-.754.291-.692-.27l.422-3.509a.5.5,0,0,0-.138-.485l-1.779-1.287c-.284-.2-.125-.934.263-1.232l2.464-1.9a1.17,1.17,0,0,0,.36-.554l1.1-3.613C444.636,310.771,445.142,310.481,445.315,310.848Z" transform="translate(-401.32 -302.54)" fill="#fff" opacity="0.5"/>
          <path id="Trazado_107546" data-name="Trazado 107546" d="M466.554,302.57c.215-.4.18-.81,0-.928l-1.765-1.017a.291.291,0,0,0-.242,0l-1.62.623-.533-1.135a.4.4,0,0,0-.118-.138c-.228-.118-1.724-.99-1.765-1.017-.228-.125-.6.152-.741.63l-1.1,3.606a1.094,1.094,0,0,1-.36.554l-2.492,1.89c-.395.3-.547,1.031-.263,1.239l1.779,1.287a.5.5,0,0,1,.138.478l-.408,3.489c0,.256.042.429.159.5l1.765,1.024c.138.076.346,0,.533-.228l2.2-2.81a.526.526,0,0,1,.443-.256l2.2.27c.346.042.754-.588.692-1.066l-.422-3.025a1.114,1.114,0,0,1,.138-.644Z" transform="translate(-406.023 -298.92)" fill="#d9a171"/>
          <path id="Trazado_107547" data-name="Trazado 107547" d="M469.867,302.381a.27.27,0,0,0-.242,0l-2.464.941a.256.256,0,0,1-.353-.138l-.568-1.2,1.62-.623a.263.263,0,0,1,.242,0Z" transform="translate(-409.357 -299.659)" fill="#fff" opacity="0.15"/>
          <path id="Trazado_107548" data-name="Trazado 107548" d="M460.492,306.1a1.17,1.17,0,0,1-.367.561l-2.457,1.9a.969.969,0,0,0-.263.332l-1.765-1.024a1.017,1.017,0,0,1,.263-.332l2.457-1.9a1.093,1.093,0,0,0,.36-.554h0Z" transform="translate(-406.094 -300.815)" fill="#fff" opacity="0.15"/>
          <path id="Trazado_107549" data-name="Trazado 107549" d="M463.71,299.971c-.221-.138-.6.145-.748.623l-1.1,3.606-1.772-1.017,1.1-3.606c.145-.471.519-.754.741-.63.048,0,1.537.9,1.765,1.018Z" transform="translate(-407.464 -298.918)" opacity="0.1"/>
          <path id="Trazado_107550" data-name="Trazado 107550" d="M459.125,312.318l-1.751-1-1.779-1.287c-.208-.152-.18-.568,0-.907l1.765,1.024c-.18.332-.208.754,0,.9Z" transform="translate(-406.036 -302.058)" opacity="0.25"/>
          <path id="Trazado_107551" data-name="Trazado 107551" d="M459.553,317.287c0,.263.042.436.173.5h0l-1.8-1.024c-.118-.069-.187-.235-.159-.5l.422-3.509a.533.533,0,0,0-.125-.464l1.751,1h0a.526.526,0,0,1,.118.464Z" transform="translate(-406.747 -303.034)" opacity="0.15"/>
          <path id="Trazado_107552" data-name="Trazado 107552" d="M463.165,300.556l1.1,2.34a.263.263,0,0,0,.36.138l2.457-.941c.388-.152.547.4.263.927l-1.779,3.329a1.115,1.115,0,0,0-.138.644l.422,3.025c.062.478-.346,1.107-.692,1.066l-2.2-.27a.526.526,0,0,0-.443.256l-2.2,2.81c-.346.45-.754.284-.692-.27l.422-3.509a.519.519,0,0,0-.138-.485l-1.779-1.287c-.284-.2-.125-.934.263-1.232l2.464-1.9a1.2,1.2,0,0,0,.353-.554l1.1-3.613C462.486,300.48,462.992,300.182,463.165,300.556Z" transform="translate(-406.815 -299.371)" fill="#d9a171"/>
          <path id="Trazado_107553" data-name="Trazado 107553" d="M463.165,300.556l1.1,2.34a.263.263,0,0,0,.36.138l2.457-.941c.388-.152.547.4.263.927l-1.779,3.329a1.115,1.115,0,0,0-.138.644l.422,3.025c.062.478-.346,1.107-.692,1.066l-2.2-.27a.526.526,0,0,0-.443.256l-2.2,2.81c-.346.45-.754.284-.692-.27l.422-3.509a.519.519,0,0,0-.138-.485l-1.779-1.287c-.284-.2-.125-.934.263-1.232l2.464-1.9a1.2,1.2,0,0,0,.353-.554l1.1-3.613C462.486,300.48,462.992,300.182,463.165,300.556Z" transform="translate(-406.815 -299.371)" fill="#fff" opacity="0.5"/>
        </g>
      </g>
      <path id="freepik--Star--inject-126" d="M469.765,51.941l-5.537,2.374-1.184,5.9a.893.893,0,0,1-1.544.408l-3.966-4.534-5.987.692a.886.886,0,0,1-.858-1.384l3.08-5.171-2.506-5.475a.886.886,0,0,1,.976-1.211l5.87,1.336,4.43-4.077a.886.886,0,0,1,1.488.575l.547,5.994,5.247,2.949a.886.886,0,0,1-.055,1.62Z" transform="translate(-391.557 -29.819)" fill="#e0e0e0"/>
      <path id="freepik--star--inject-126-2" data-name="freepik--star--inject-126" d="M429.595,36.9a.789.789,0,0,1-.173.166.775.775,0,0,1-.817.055l-3.08-1.62-3.087,1.62a.775.775,0,0,1-.817-.055.755.755,0,0,1-.3-.761l.588-3.461-2.5-2.43a.777.777,0,0,1,.429-1.322l3.461-.5,1.544-3.129a.768.768,0,0,1,.692-.429.782.782,0,0,1,.692.429l1.544,3.129,3.461.5a.775.775,0,0,1,.429,1.322h0l-2.5,2.43.6,3.461a.817.817,0,0,1-.159.6Zm-9.85-7.192-.042.09a.284.284,0,0,0,.076.3l2.672,2.609-.63,3.682a.3.3,0,0,0,.429.311l3.309-1.737,3.3,1.737a.312.312,0,0,0,.312,0,.284.284,0,0,0,.118-.291l-.63-3.682,2.672-2.609a.3.3,0,0,0,.076-.3.284.284,0,0,0-.235-.2l-3.7-.54L425.781,25.7a.284.284,0,0,0-.263-.166.3.3,0,0,0-.235.166l-1.647,3.35-3.7.54A.311.311,0,0,0,419.745,29.712Z" transform="translate(-381.904 -25.04)" fill="#e0e0e0"/>
    </g>
    <g id="freepik--speech-bubbles--inject-126" transform="translate(217.65 81.213)">
      <g id="freepik--speech-bubbles--inject-126-2" data-name="freepik--speech-bubbles--inject-126">
        <g id="freepik--speech-bubble--inject-126">
          <g id="freepik--speech-bubble--inject-126-2" data-name="freepik--speech-bubble--inject-126">
            <path id="Trazado_107554" data-name="Trazado 107554" d="M356.681,108.139c-5.212-3.018-12.376-2.609-20.294,1.959-15.92,9.206-28.857,31.75-28.857,50.362,0,9.365,3.281,15.92,8.562,18.986,1.225.692,6.015,3.461,6.015,3.461a13.207,13.207,0,0,1-6.721,10.147c-.3.173-.118.471.152.623l7.316,4.229a.692.692,0,0,0,.325.1,18.572,18.572,0,0,0,17.872-14.909c.872-.415,1.751-.865,2.644-1.384,15.92-9.2,28.857-31.75,28.857-50.355,0-9.372-3.274-15.92-8.555-19.007Z" transform="translate(-307.53 -106.204)" fill="#37474f"/>
            <path id="Trazado_107555" data-name="Trazado 107555" d="M346.947,116.2c-15.92,9.2-28.857,31.75-28.857,50.355,0,12.632,5.946,20.191,14.75,20.883-.332,4.015-1.5,8.528-6.922,11.718-.429.256.132.734.491.734a18.572,18.572,0,0,0,17.872-14.909c.872-.415,1.751-.865,2.644-1.384,15.92-9.2,28.857-31.75,28.857-50.355S362.88,107,346.947,116.2Z" transform="translate(-310.781 -108.08)" fill="#455a64"/>
            <path id="Trazado_107556" data-name="Trazado 107556" d="M326.113,231.383c-.263.166-.145.408.076.574l-7.226-4.153c-.27-.166-.457-.45-.152-.63A13.2,13.2,0,0,0,325.531,217l.8.471.734.429a14.363,14.363,0,0,0,5.953,1.744C332.688,223.679,331.512,228.192,326.113,231.383Z" transform="translate(-310.954 -140.311)" fill="#263238"/>
          </g>
          <path id="Trazado_107557" data-name="Trazado 107557" d="M354.866,176.146a3.383,3.383,0,0,1-1.156-2.949,8.763,8.763,0,0,1,1.135-4.215,7.773,7.773,0,0,1,2.907-3.108q1.765-1.017,2.9-.242a3.272,3.272,0,0,1,1.135,2.9,9.047,9.047,0,0,1-1.156,4.291,7.725,7.725,0,0,1-2.879,3.149A2.557,2.557,0,0,1,354.866,176.146Zm-1.031-37.626,7.828-4.52-1.308,26.386-5.212,3.011Z" transform="translate(-321.746 -114.761)" fill="#fafafa"/>
        </g>
        <path id="Trazado_107558" data-name="Trazado 107558" d="M365.34,199.771c8.5-6.23,15.83-16.107,20.315-26.711C377.155,179.3,369.825,189.167,365.34,199.771Z" transform="translate(-325.326 -126.785)" opacity="0.2"/>
        <g id="freepik--speech-bubble--inject-126-3" data-name="freepik--speech-bubble--inject-126" transform="translate(37.626 41.296)">
          <g id="freepik--speech-bubble--inject-126-4" data-name="freepik--speech-bubble--inject-126">
            <path id="Trazado_107559" data-name="Trazado 107559" d="M418.627,233.618c-2.949.035-5.143-2.028-6.52-4.624,8.832-10.86,14.806-25.326,14.806-37.979,0-9.379-3.288-15.968-8.583-19.014l-7.3-4.208c-5.212-3.011-12.369-2.6-20.281,1.966-15.92,9.206-28.857,31.75-28.857,50.362,0,9.365,3.274,15.92,8.555,19,1.232.692,6.084,3.5,7.282,4.2,5.219,3.039,12.4,2.637,20.329-1.945a43.941,43.941,0,0,0,6.029-4.222c5.357,4.243,11.891-.381,14.48-2.6C418.911,234.269,418.952,233.618,418.627,233.618Z" transform="translate(-361.89 -165.866)" fill="#e0e0e0"/>
            <path id="Trazado_107560" data-name="Trazado 107560" d="M388.736,246.954c-9.649,0-15.636-7.856-15.636-20.5,0-18.439,12.847-40.838,28.628-49.968a25.405,25.405,0,0,1,12.549-3.842c9.642,0,15.636,7.849,15.636,20.5,0,12.092-5.634,26.538-14.7,37.689l-.187.235.138.263c1.627,3.066,3.987,4.783,6.659,4.845a.36.36,0,0,1-.1.152c-1.841,1.578-5.5,4.215-9.282,4.215h0a7.289,7.289,0,0,1-4.631-1.634l-.284-.221-.284.228a43.885,43.885,0,0,1-5.967,4.153C396.869,245.625,392.647,246.954,388.736,246.954Z" transform="translate(-365.341 -167.954)" fill="#fafafa"/>
            <path id="Trazado_107561" data-name="Trazado 107561" d="M414.065,172v.9c9.365,0,15.186,7.683,15.186,20.038,0,12-5.593,26.337-14.6,37.412l-.381.464.284.526c1.5,2.824,3.6,4.561,6.015,5-1.917,1.53-5.094,3.572-8.341,3.572a6.846,6.846,0,0,1-4.354-1.537l-.568-.45-.561.464a43.852,43.852,0,0,1-5.9,4.153,24.977,24.977,0,0,1-12.321,3.779c-9.365,0-15.186-7.683-15.186-20.073,0-18.294,12.743-40.533,28.379-49.58a24.977,24.977,0,0,1,12.321-3.779V172m0,0a25.9,25.9,0,0,0-12.771,3.9c-15.92,9.2-28.857,31.743-28.857,50.355,0,13.255,6.555,20.945,16.086,20.945a25.9,25.9,0,0,0,12.771-3.9,43.942,43.942,0,0,0,6.029-4.222,7.676,7.676,0,0,0,4.908,1.73c3.959,0,7.745-2.769,9.573-4.326.346-.291.388-.941.062-.941h-.069c-2.907,0-5.081-2.042-6.451-4.624,8.832-10.86,14.806-25.327,14.806-37.979C430.123,179.683,423.568,172,414.037,172Z" transform="translate(-365.128 -167.754)" fill="#d9a171"/>
          </g>
          <path id="Trazado_107562" data-name="Trazado 107562" d="M407.484,219.947a52.684,52.684,0,0,1,2.886-5.87,44.187,44.187,0,0,0,2.035-4.008,7.558,7.558,0,0,0,.658-2.983c0-1.384-.415-2.236-1.246-2.568s-1.924-.09-3.3.692a12.092,12.092,0,0,0-3.509,3.115,19.219,19.219,0,0,0-2.589,4.554l-5.087-1.045a30.083,30.083,0,0,1,4.776-8.306,25.611,25.611,0,0,1,7.129-6.084q4.845-2.769,7.759-1.73t2.921,5.939a16.313,16.313,0,0,1-.568,4.368,20.975,20.975,0,0,1-1.384,3.745c-.547,1.121-1.26,2.457-2.125,4.008a44.363,44.363,0,0,0-2.27,4.423,8.721,8.721,0,0,0-.692,3.461l-6.347,3.669a14.487,14.487,0,0,1,.955-5.378Zm-.692,17.81a3.389,3.389,0,0,1-1.156-2.956,8.763,8.763,0,0,1,1.135-4.215,7.807,7.807,0,0,1,2.9-3.108c1.184-.692,2.146-.761,2.907-.242a3.276,3.276,0,0,1,1.135,2.907,9.04,9.04,0,0,1-1.156,4.285,7.69,7.69,0,0,1-2.886,3.149,2.493,2.493,0,0,1-2.845.18Z" transform="translate(-372.799 -174.967)" fill="#455a64"/>
        </g>
      </g>
    </g>
    <g id="freepik--Letters--inject-126" transform="translate(56.443 25.018)">
      <g id="freepik--speech-bubble--inject-126-5" data-name="freepik--speech-bubble--inject-126">
        <g id="freepik--speech-bubble--inject-126-6" data-name="freepik--speech-bubble--inject-126">
          <path id="Trazado_107563" data-name="Trazado 107563" d="M186.62,185.3l-31.84,18.439,12.646,21.5a2.914,2.914,0,0,0,1.211,1.384c1.509.851,10.445,6.029,10.936,6.313a2.928,2.928,0,0,0,4.271-1.7l13.733-39.578Z" transform="translate(-99.303 -74.357)" fill="#d9a171"/>
          <path id="Trazado_107564" data-name="Trazado 107564" d="M186.62,185.3l-31.84,18.439,12.646,21.5a2.914,2.914,0,0,0,1.211,1.384c1.509.851,10.445,6.029,10.936,6.313a2.928,2.928,0,0,0,4.271-1.7l13.733-39.578Z" transform="translate(-99.303 -74.357)" opacity="0.2"/>
          <path id="Trazado_107565" data-name="Trazado 107565" d="M170.61,212.879l12.646,21.5a2.914,2.914,0,0,0,5.461-.36L202.45,194.44Z" transform="translate(-104.176 -77.171)" fill="#d9a171"/>
          <path id="Trazado_107566" data-name="Trazado 107566" d="M197.469,25.7,77.4,95a6.091,6.091,0,0,0-2.769,4.776v83.33a6.015,6.015,0,0,0,2.769,4.748l9.877,5.537a6.16,6.16,0,0,0,5.537,0l120.078-69.349a6.112,6.112,0,0,0,2.769-4.776V35.942a6.022,6.022,0,0,0-2.769-4.748l-9.87-5.537a6.174,6.174,0,0,0-5.551.042Z" transform="translate(-74.63 -25.018)" fill="#d9a171"/>
          <path id="Trazado_107567" data-name="Trazado 107567" d="M216,35.448c-.221-1.384-1.35-1.883-2.727-1.094L93.208,103.682a5.537,5.537,0,0,0-1.945,2.077L75.89,97a5.607,5.607,0,0,1,1.9-1.959L197.864,25.709a6.181,6.181,0,0,1,5.537,0l9.87,5.537a6.084,6.084,0,0,1,2.727,4.2Z" transform="translate(-75.018 -25.029)" fill="#fff" opacity="0.3"/>
          <path id="Trazado_107568" data-name="Trazado 107568" d="M96.92,196.232V112.895a6.077,6.077,0,0,1,2.769-4.769L219.752,38.833c1.516-.879,2.769-.166,2.769,1.592v83.3a6.112,6.112,0,0,1-2.769,4.776L99.675,197.824C98.152,198.724,96.92,197.99,96.92,196.232Z" transform="translate(-81.492 -29.154)" fill="#d9a171"/>
          <path id="Trazado_107569" data-name="Trazado 107569" d="M92.816,225.378a6.306,6.306,0,0,1-5.537,0l-9.87-5.537a5.994,5.994,0,0,1-2.769-4.734V131.769A5.7,5.7,0,0,1,75.519,129l15.359,8.742a5.434,5.434,0,0,0-.817,2.706v83.33C90.062,225.392,91.2,226.319,92.816,225.378Z" transform="translate(-74.633 -57.026)" opacity="0.2"/>
        </g>
        <g id="freepik--FAQ--inject-126" transform="translate(24.475 34.698)">
          <path id="Trazado_107570" data-name="Trazado 107570" d="M134.634,157.66l-1.2-.692a3.032,3.032,0,0,0-3.011,0l-7.316,4.222v-9.995l13.546-7.815a4.222,4.222,0,0,0,2.076-3.648v-5.607a4.222,4.222,0,0,0-2.077-3.648h0a4.208,4.208,0,0,0-4.215,0l-18.786,10.846A7.3,7.3,0,0,0,110,147.658V199.7a4.222,4.222,0,0,0,2.077,3.655h0a4.222,4.222,0,0,0,4.215,0l4.686-2.7A4.222,4.222,0,0,0,123.054,197V176.584l11.532-6.659a3.018,3.018,0,0,0,1.5-2.609v-7.032a3,3,0,0,0-1.454-2.623Z" transform="translate(-109.993 -92.006)" fill="#e0e0e0"/>
          <path id="Trazado_107571" data-name="Trazado 107571" d="M116.718,209.457l-.4.235a4.222,4.222,0,0,1-6.326-3.648V154a7.3,7.3,0,0,1,.879-3.461l4.215,2.43a7.233,7.233,0,0,0-.879,3.461v51.56a1.689,1.689,0,0,0,2.513,1.467Z" transform="translate(-109.99 -98.356)" opacity="0.1"/>
          <path id="Trazado_107572" data-name="Trazado 107572" d="M125,152.479v14.868l11.511-6.638a1.011,1.011,0,0,1,1.523.879v7.046a3,3,0,0,1-1.5,2.6L125,177.889V198.3a4.2,4.2,0,0,1-2.076,3.641l-4.264,2.464a1.682,1.682,0,0,1-2.526-1.46V151.365a7.316,7.316,0,0,1,3.654-6.333l18.606-10.743a1.523,1.523,0,0,1,2.284,1.322v5.42a4.188,4.188,0,0,1-2.077,3.627Z" transform="translate(-111.88 -93.29)" fill="#fafafa"/>
          <path id="Trazado_107573" data-name="Trazado 107573" d="M174.439,113.651a4.984,4.984,0,0,0-7.268-2.907l-4.658,2.693a4.97,4.97,0,0,0-2.374,3.246l-13.892,63.25a2.6,2.6,0,0,0,1.239,2.769l1.274.734a2.6,2.6,0,0,0,2.6,0l5.613-3.239a5.053,5.053,0,0,0,1.841-1.973,9.461,9.461,0,0,0,1.031-2.63l2.256-11.532,11.352-6.555,1.177,4.686a2.637,2.637,0,0,0,1.073,1.5c.471.277,3.745,2.153,4.215,2.436a1.834,1.834,0,0,0,1.862-.249l6.852-3.959Zm-9.227,34.491,2.429-12.508.145-.692,2.575,10.223Z" transform="translate(-121.135 -85.9)" fill="#e0e0e0"/>
          <path id="Trazado_107574" data-name="Trazado 107574" d="M191.983,186.376c-.616-.367-3.7-2.132-4.153-2.4a2.637,2.637,0,0,1-1.073-1.5l-1.177-4.686,3.142-1.813,2.25,8.929A2.769,2.769,0,0,0,191.983,186.376Z" transform="translate(-133.259 -106.187)" opacity="0.1"/>
          <path id="Trazado_107575" data-name="Trazado 107575" d="M184.18,154.885l-4.215-2.436-2.575-10.216h0v-.042c.221-1,.443-2.132.692-3.392.3-1.571.574-3.246.838-5.039q.45,2.16.893,3.98c.3,1.211.574,2.25.838,3.122Z" transform="translate(-130.738 -93.19)" opacity="0.1"/>
          <path id="Trazado_107576" data-name="Trazado 107576" d="M150.538,184.23a.983.983,0,0,0,1.225,1.163v.055l-.395.222a2.6,2.6,0,0,1-2.6,0l-1.287-.748a2.6,2.6,0,0,1-1.239-2.769l13.885-63.223a4.846,4.846,0,0,1,.692-1.64l4.215,2.436a4.623,4.623,0,0,0-.692,1.634Z" transform="translate(-121.135 -88.12)" opacity="0.1"/>
          <path id="Trazado_107577" data-name="Trazado 107577" d="M190.542,163.221l-6.859,3.959a1.823,1.823,0,0,1-1.855.249,2.651,2.651,0,0,1-1.073-1.5l-2.25-8.943L163.97,165.36l-2.25,11.532a9.835,9.835,0,0,1-1.038,2.637,4.977,4.977,0,0,1-1.841,1.966l-4.963,2.872a1,1,0,0,1-1.467-1.073L166.219,120.4a4.97,4.97,0,0,1,2.374-3.239l4.478-2.589a2.43,2.43,0,0,1,3.544,1.419Zm-14.058-14.328-3.53-14.051c-.263-.865-.54-1.91-.838-3.122s-.6-2.54-.893-3.98c-.256,1.793-.54,3.461-.831,5.039s-.581,2.935-.844,4.111l-3.5,18Z" transform="translate(-123.042 -87.185)" fill="#fafafa"/>
          <path id="Trazado_107578" data-name="Trazado 107578" d="M238.752,126.958a51.445,51.445,0,0,0,3.177-6.465,57.231,57.231,0,0,0,2.353-7.046,60.453,60.453,0,0,0,1.454-7.365,56.623,56.623,0,0,0,.512-7.565A37.806,37.806,0,0,0,244.836,87.5a16.764,16.764,0,0,0-4.015-7.185,9.759,9.759,0,0,0-2.007-1.481l-4.153-2.409a9.469,9.469,0,0,0-4.312-1.267,14.747,14.747,0,0,0-8.1,2.36,29.992,29.992,0,0,0-8.112,6.977,46.451,46.451,0,0,0-6.257,9.926,58.572,58.572,0,0,0-5.454,24.5,37.737,37.737,0,0,0,1.426,11.026,16.661,16.661,0,0,0,4.028,7.2,9.469,9.469,0,0,0,2.014,1.523c.692.388,3.426,1.98,4.1,2.374a9.476,9.476,0,0,0,4.368,1.267,15.022,15.022,0,0,0,8.112-2.388,26.415,26.415,0,0,0,3.592-2.492l1.717,1.973a3.709,3.709,0,0,0,.789.616c.485.284,3.932,2.263,4.195,2.423a2.575,2.575,0,0,0,1.544.374,6.749,6.749,0,0,0,2.817-1l7.275-4.195Zm-6.493-17.373a33.862,33.862,0,0,1-2.111,7.116,22.911,22.911,0,0,1-3.357,5.627,16.653,16.653,0,0,1-4.527,3.883,8.7,8.7,0,0,1-4.236,1.384,12.563,12.563,0,0,1-1.6-3.994,32.3,32.3,0,0,1-.734-7.448,44.557,44.557,0,0,1,.734-8.264,33.862,33.862,0,0,1,2.077-7.116,23.236,23.236,0,0,1,3.378-5.655,16.681,16.681,0,0,1,4.568-3.932,8.507,8.507,0,0,1,4.153-1.329,12.715,12.715,0,0,1,1.62,4.028,32.533,32.533,0,0,1,.768,7.462,45.378,45.378,0,0,1-.734,8.265Z" transform="translate(-138.443 -75.148)" fill="#e0e0e0"/>
          <path id="Trazado_107579" data-name="Trazado 107579" d="M213.827,149.927c-.879-.505-3.295-1.91-3.932-2.27a9.469,9.469,0,0,1-2.014-1.523,16.661,16.661,0,0,1-4.028-7.2,37.738,37.738,0,0,1-1.426-11.026,56.966,56.966,0,0,1,1.426-12.669,57.59,57.59,0,0,1,3.654-11.011l4.215,2.436a58.543,58.543,0,0,0-5.081,23.707,37.653,37.653,0,0,0,1.426,11.019A16.653,16.653,0,0,0,212.1,148.6,9.947,9.947,0,0,0,213.827,149.927Z" transform="translate(-138.443 -84.1)" opacity="0.1"/>
          <path id="Trazado_107580" data-name="Trazado 107580" d="M241.305,98.215a4.721,4.721,0,0,0-3.357-1.765h-.36a12.736,12.736,0,0,1,1.613,4.022,32.532,32.532,0,0,1,.734,7.434,45.377,45.377,0,0,1-.734,8.306,33.861,33.861,0,0,1-2.111,7.116,22.911,22.911,0,0,1-3.357,5.627,16.653,16.653,0,0,1-4.527,3.883,8.7,8.7,0,0,1-4.236,1.384,5.732,5.732,0,0,0,.505.692,4.582,4.582,0,0,0,3.378,1.737,8.368,8.368,0,0,0,4.568-1.384,16.654,16.654,0,0,0,4.527-3.883,23.174,23.174,0,0,0,3.357-5.627,33.8,33.8,0,0,0,2.111-7.122,45.323,45.323,0,0,0,.734-8.306,32.532,32.532,0,0,0-.734-7.413A11.227,11.227,0,0,0,241.305,98.215Z" transform="translate(-145.384 -81.705)" opacity="0.1"/>
          <path id="Trazado_107581" data-name="Trazado 107581" d="M243.567,163.68c-.395.36-.789.692-1.2,1.038l1.717,1.973a3.711,3.711,0,0,0,.789.616c.471.277,3.717,2.139,4.153,2.4a3.75,3.75,0,0,1-.734-.588Z" transform="translate(-150.741 -102.4)" opacity="0.1"/>
          <path id="Trazado_107582" data-name="Trazado 107582" d="M250.283,138.751l-7.275,4.2a6.832,6.832,0,0,1-2.81,1,2.893,2.893,0,0,1-2.319-.983l-4.734-5.44a27.382,27.382,0,0,1-4.79,3.53,15.022,15.022,0,0,1-8.112,2.388,9.372,9.372,0,0,1-6.271-2.727,16.723,16.723,0,0,1-4.028-7.205,37.888,37.888,0,0,1-1.426-10.992,58.571,58.571,0,0,1,5.454-24.5,46.451,46.451,0,0,1,6.271-9.946,30.1,30.1,0,0,1,8.112-6.977,14.67,14.67,0,0,1,8.1-2.36,9.414,9.414,0,0,1,6.23,2.769,16.682,16.682,0,0,1,4.015,7.192,37.488,37.488,0,0,1,1.426,10.978,56.612,56.612,0,0,1-.505,7.565,61.9,61.9,0,0,1-1.467,7.4,57.159,57.159,0,0,1-2.36,7.039,50.528,50.528,0,0,1-3.177,6.465Zm-32.712-21.457a32.367,32.367,0,0,0,.734,7.455,11.358,11.358,0,0,0,2.077,4.686,4.644,4.644,0,0,0,3.378,1.737,8.382,8.382,0,0,0,4.568-1.384,16.653,16.653,0,0,0,4.527-3.883,23.2,23.2,0,0,0,3.364-5.627,33.805,33.805,0,0,0,2.077-7.122,44.665,44.665,0,0,0,.734-8.306,32.146,32.146,0,0,0-.734-7.413,11.31,11.31,0,0,0-2.077-4.686,4.734,4.734,0,0,0-3.364-1.765,8.147,8.147,0,0,0-4.527,1.329,16.536,16.536,0,0,0-4.568,3.925,23.458,23.458,0,0,0-3.378,5.655,34.276,34.276,0,0,0-2.076,7.116,44.612,44.612,0,0,0-.734,8.258Z" transform="translate(-140.318 -76.246)" fill="#fafafa"/>
        </g>
      </g>
    </g>
  </g>
</svg>
