<svg id="Componente_10_1" data-name="Componente 10 – 1" xmlns="http://www.w3.org/2000/svg" width="60" height="60" viewBox="0 0 60 60">
  <g id="Grupo_59504" data-name="Grupo 59504" transform="translate(-185 -7474)">
    <circle id="Elipse_4191" data-name="Elipse 4191" cx="30" cy="30" r="30" transform="translate(185 7474)" fill="#6595bf"/>
  </g>
  <g id="makeup" transform="translate(-31.946 7)">
    <path id="Trazado_113519" data-name="Trazado 113519" d="M173.012,14.915h0a14.857,14.857,0,0,1,8.322,2.534,8.373,8.373,0,0,0-16.644,0A14.857,14.857,0,0,1,173.012,14.915Z" transform="translate(-110.664 -9.09)" fill="#d9a171"/>
    <g id="Grupo_59807" data-name="Grupo 59807" transform="translate(43.856 17.918)">
      <path id="Trazado_113520" data-name="Trazado 113520" d="M55.978,253.478h0A3.028,3.028,0,0,0,52.95,256.5l0,2.305a3.028,3.028,0,0,0,3.028,3.033H86.88a3.028,3.028,0,0,0,3.028-3.033l0-2.305a3.028,3.028,0,0,0-3.028-3.022h-30.9Z" transform="translate(-52.946 -248.326)" fill="#fdc9a6"/>
      <path id="Trazado_113521" data-name="Trazado 113521" d="M121.981,196.868v8.674a19.677,19.677,0,0,1-14.922,19.094l-.015,0h0a19.677,19.677,0,0,1-14.916-19.092v-8.679Z" transform="translate(-88.563 -196.868)" fill="#fdc9a6"/>
    </g>
    <path id="Trazado_113522" data-name="Trazado 113522" d="M108.293,76.093h0a15.354,15.354,0,0,0,12.675,6.689h1.015V78.926A14.926,14.926,0,0,0,107.056,64h0A14.926,14.926,0,0,0,92.13,78.926v2.548l.448,1.307.654-.148a44.144,44.144,0,0,0,19.693-10.159l.4-.354Z" transform="translate(-44.708 -58.175)" fill="#d9a171"/>
    <path id="Trazado_113523" data-name="Trazado 113523" d="M281.832,361.913l-3.354,3.354-5.129-2.125a.827.827,0,0,1-.5-.912l0-.019a7.527,7.527,0,0,1,6.053-6.052h0a.827.827,0,0,1,.921.518Z" transform="translate(-208.97 -323.732)" fill="#ffcceb"/>
    <path id="Trazado_113524" data-name="Trazado 113524" d="M345.659,427.025l-7.507-7.507-3.354,3.354,4.153,4.153Z" transform="translate(-265.29 -381.336)" fill="#aed3f2"/>
    <path id="Trazado_113525" data-name="Trazado 113525" d="M148.667,292.928a2.438,2.438,0,0,1-3.445,0,.91.91,0,0,0-1.287,1.287,4.261,4.261,0,0,0,6.019,0,.91.91,0,0,0-1.287-1.287Z" transform="translate(-91.555 -266.026)"/>
    <path id="Trazado_113526" data-name="Trazado 113526" d="M301.339,292.928a2.439,2.439,0,0,1-3.445,0,.91.91,0,0,0-1.287,1.287,4.261,4.261,0,0,0,6.019,0,.91.91,0,1,0-1.287-1.287Z" transform="translate(-230.332 -266.026)"/>
    <path id="Trazado_113527" data-name="Trazado 113527" d="M66.488,43.121a18.792,18.792,0,0,1-4.149,1.628A18.737,18.737,0,0,1,48.332,26.6V25.435l.393-.089a45.36,45.36,0,0,0,14.635-6.189,16.253,16.253,0,0,0,12.9,6.36h.1v1.075a18.814,18.814,0,0,1-2.227,8.869.91.91,0,1,0,1.6.861,20.522,20.522,0,0,0,1.622-3.981h.427A3.938,3.938,0,0,0,81.728,28.4l0-2.305a3.945,3.945,0,0,0-3.539-3.91V20.751a15.828,15.828,0,0,0-6.664-12.9,9.284,9.284,0,0,0-18.344,0,15.828,15.828,0,0,0-6.664,12.9v1.427A3.945,3.945,0,0,0,42.95,26.09l0,2.305a3.938,3.938,0,0,0,3.938,3.945h.441A20.553,20.553,0,0,0,62.118,46.572a.91.91,0,0,0,.44,0l.015,0a20.617,20.617,0,0,0,4.777-1.844.91.91,0,0,0-.862-1.6ZM79.9,26.094l0,2.305a2.117,2.117,0,0,1-2.1,2.121,20.578,20.578,0,0,0,.381-3.929V24.018A2.122,2.122,0,0,1,79.9,26.094ZM62.348,1.82a7.451,7.451,0,0,1,6.934,4.7,15.816,15.816,0,0,0-13.868,0A7.451,7.451,0,0,1,62.348,1.82Zm0,4.915A14.032,14.032,0,0,1,76.365,20.751V23.7h-.1a14.434,14.434,0,0,1-11.391-5.563q.945-.67,1.854-1.387a.91.91,0,0,0-1.129-1.428,43.5,43.5,0,0,1-17.262,8.251V20.751A14.032,14.032,0,0,1,62.348,6.735ZM46.884,30.521A2.118,2.118,0,0,1,44.766,28.4l0-2.305a2.122,2.122,0,0,1,1.742-2.08V26.6a20.715,20.715,0,0,0,.374,3.924Z"/>
    <path id="Trazado_113528" data-name="Trazado 113528" d="M315.725,145.055a.907.907,0,0,0,.606-.231l.013-.011a.91.91,0,1,0-1.213-1.357l-.013.011a.91.91,0,0,0,.607,1.589Z" transform="translate(-247.125 -130.188)"/>
    <path id="Trazado_113529" data-name="Trazado 113529" d="M273.526,352.317l-1.934-5.055a1.737,1.737,0,0,0-1.934-1.088,8.479,8.479,0,0,0-6.784,6.782l0,.021a1.746,1.746,0,0,0,1.044,1.917l4.962,2.055,4.025,4.025a.91.91,0,0,0,1.287-1.287l-3.51-3.51,2.067-2.067,4.522,4.522a.91.91,0,0,0,1.287-1.287Zm-3.609-4.34,1.767,4.62-2.506,2.506-4.5-1.866A6.652,6.652,0,0,1,269.917,347.977Z" transform="translate(-199.883 -314.642)"/>
    <path id="Trazado_113530" data-name="Trazado 113530" d="M445.042,492a.91.91,0,1,0,.643.267A.92.92,0,0,0,445.042,492Z" transform="translate(-364.673 -447.221)"/>
  </g>
</svg>
