<svg id="Componente_8_1" data-name="Componente 8 – 1" xmlns="http://www.w3.org/2000/svg" width="60" height="60" viewBox="0 0 60 60">
  <g id="Grupo_59498" data-name="Grupo 59498" transform="translate(-185 -7474)">
    <circle id="Elipse_4191" data-name="Elipse 4191" cx="30" cy="30" r="30" transform="translate(185 7474)" fill="#6595bf"/>
  </g>
  <g id="voice-command" transform="translate(9.945 6.97)">
    <path id="Trazado_113465" data-name="Trazado 113465" d="M42.25,364.09V369.4H8.023V364.09a4.283,4.283,0,0,1,3.13-4.121l8.207-2.282,1.5,6,4.278-3.565,4.278,3.565,1.5-6,8.207,2.282A4.283,4.283,0,0,1,42.25,364.09Zm0,0" transform="translate(-7.286 -325.805)" fill="#a66d58"/>
    <path id="Trazado_113466" data-name="Trazado 113466" d="M205.8,353.461l-1.5,6-4.278-3.565,4.278-2.852Zm0,0" transform="translate(-182.173 -321.579)" fill="#d9a171"/>
    <path id="Trazado_113467" data-name="Trazado 113467" d="M141,355.9l-4.278,3.565-1.5-6,1.5-.414Zm0,0" transform="translate(-123.148 -321.579)" fill="#d9a171"/>
    <path id="Trazado_113468" data-name="Trazado 113468" d="M102.749,19.836l-.62.62-.029.022a3.26,3.26,0,0,0-.328-.378,3.648,3.648,0,0,0-2.581-1.07H94.784a5.449,5.449,0,0,0-2.382.542,5.5,5.5,0,0,0-3.109,4.949v.927H88.58a2.139,2.139,0,1,0,0,4.278h.713a8.607,8.607,0,0,1-1.176,4.343,8.788,8.788,0,0,1-1.348,1.747l-.328.328-.2.029-.578-2.353a14.783,14.783,0,0,0-1.8-3.658l-2.489-3.7a10.76,10.76,0,0,1,9.405-15.987h.392a47.815,47.815,0,0,0,11.666-1.426l.613.82a7.628,7.628,0,0,1-.706,9.969Zm0,0" transform="translate(-72.869 -8.241)" fill="#5e6178"/>
    <path id="Trazado_113469" data-name="Trazado 113469" d="M158.584,291.716l-.043.128v3.565l-4.278,2.852-4.278-2.852V294.3a14.514,14.514,0,0,0-.2-2.424l.2-.029.328-.328a8.787,8.787,0,0,0,1.348-1.747l2.6.649Zm0,0" transform="translate(-136.413 -263.941)" fill="#f0d0b4"/>
    <path id="Trazado_113470" data-name="Trazado 113470" d="M170.349,130.032a1.1,1.1,0,0,1,.214.642,1.068,1.068,0,0,1-1.07,1.07h-.357l-1.062,2.125a3.5,3.5,0,0,0-.364,1.547,3.457,3.457,0,0,1-3.458,3.458h-.82l-2.809-.841-4.321-1.3-2.6-.649a8.607,8.607,0,0,0,1.176-4.343h-.713a2.139,2.139,0,0,1,0-4.278h.713v-.927a5.5,5.5,0,0,1,3.109-4.949,5.449,5.449,0,0,1,2.382-.542h4.407a3.648,3.648,0,0,1,2.581,1.07,3.259,3.259,0,0,1,.328.378,3.646,3.646,0,0,1,.742,2.2,8.289,8.289,0,0,0,1.661,4.977Zm0,0" transform="translate(-138.451 -110.258)" fill="#f0d0b4"/>
    <path id="Trazado_113471" data-name="Trazado 113471" d="M32.022,33.476l-9.18-2.55V28.719l1.934.58,1.022.03a4.179,4.179,0,0,0,4.174-4.174,2.763,2.763,0,0,1,.29-1.229l.864-1.729a1.783,1.783,0,0,0,1.341-2.85l-.266-.354a7.628,7.628,0,0,1-1.517-4.551,4.338,4.338,0,0,0-.54-2.1l.236-.236a8.288,8.288,0,0,0,2.444-5.9A8.4,8.4,0,0,0,31.156,1.2l-.9-1.2L29.8.115a47.425,47.425,0,0,1-11.492,1.4h-.392a11.47,11.47,0,0,0-10,17.1l2.489,3.7A14.363,14.363,0,0,1,12.119,25.8a14.377,14.377,0,0,1,.74,4.555v.571l-9.18,2.55a5.007,5.007,0,0,0-3.655,4.81V44.3H35.677V38.286a5.007,5.007,0,0,0-3.655-4.81Zm-9.77-1.234.516.143-1.056,4.225L19.04,34.384Zm8.809-12.4.266.354a.362.362,0,0,1,.071.214.357.357,0,0,1-.357.357h-.8l-1.257,2.515a4.185,4.185,0,0,0-.441,1.867A2.751,2.751,0,0,1,25.8,27.9h-.712l-7.031-2.109-.409,1.366,3.77,1.131v2.8l-3.565,2.377-3.565-2.377v-.731a15.9,15.9,0,0,0-.141-2.016l.263-.263a9.26,9.26,0,0,0,2.73-6.591v-.713H15.711a1.426,1.426,0,1,1,0-2.852h1.426V16.281A4.778,4.778,0,0,1,21.917,11.5h4.4a2.939,2.939,0,0,1,2.939,2.939,9.065,9.065,0,0,0,1.8,5.407Zm-17.613,12.4,3.212,2.142-2.673,2.227-1.056-4.225ZM11.589,21.52,9.132,17.871A10.047,10.047,0,0,1,17.915,2.945h.392A48.826,48.826,0,0,0,29.685,1.61l.33.441A6.964,6.964,0,0,1,31.4,6.2a6.874,6.874,0,0,1-2.026,4.892l-.12.12a4.33,4.33,0,0,0-2.932-1.138h-4.4a6.206,6.206,0,0,0-6.205,6.205v.212a2.852,2.852,0,0,0-.031,5.7,7.822,7.822,0,0,1-1.848,4.4q-.154-.629-.359-1.246a15.808,15.808,0,0,0-1.884-3.83ZM34.251,42.877H1.45V38.286A3.577,3.577,0,0,1,4.061,34.85l7.5-2.082,1.6,6.393,4.694-3.912,4.694,3.912,1.6-6.393,7.5,2.082a3.575,3.575,0,0,1,2.611,3.435Zm0,0"/>
    <path id="Trazado_113472" data-name="Trazado 113472" d="M452.911,169.855l-1.008,1.008a8.556,8.556,0,0,1,0,12.1l1.008,1.008a9.981,9.981,0,0,0,0-14.117Zm0,0" transform="translate(-316.426 -306.658) rotate(22)" fill="#f2e9e4"/>
    <path id="Trazado_113473" data-name="Trazado 113473" d="M430.29,192.48l-1.008,1.008a5.705,5.705,0,0,1,0,8.068l1.008,1.008a7.131,7.131,0,0,0,0-10.084Zm0,0" transform="translate(-289.602 -318.047) rotate(22)" fill="#f2e9e4"/>
    <path id="Trazado_113474" data-name="Trazado 113474" d="M407.665,215.1l-1.008,1.008a2.855,2.855,0,0,1,0,4.035l1.008,1.008a4.28,4.28,0,0,0,0-6.051Zm0,0" transform="translate(-262.774 -329.435) rotate(22)" fill="#f2e9e4"/>
  </g>
</svg>
