<svg xmlns="http://www.w3.org/2000/svg" width="265.727" height="259.044" viewBox="0 0 265.727 259.044">
  <g id="Grupo_59811" data-name="Grupo 59811" transform="translate(-1027.104 -2941.733)">
    <g id="Successful_purchase-amico" data-name="Successful purchase-amico" transform="translate(1007.704 2966.497)">
      <g id="Chat_bot-amico" data-name="Chat bot-amico" transform="translate(92.389 -24.764)">
        <g id="freepik--Device--inject-87" transform="translate(0 0)">
          <g id="freepik--Mobile--inject-87">
            <path id="Trazado_108558" data-name="Trazado 108558" d="M131.289,231.038V41.922c0-4.862-2.416-6.2-4.56-7.445a8.894,8.894,0,0,0-8.733-.2L39.907,79.337A12.239,12.239,0,0,0,34.38,88.9V278.017c0,3.521,2.214,5.6,4.358,6.833s5.889,2.6,8.941.843l78.089-45.121A10.378,10.378,0,0,0,131.289,231.038Z" transform="translate(-34.38 -33.216)" fill="#37474f"/>
            <path id="Trazado_108559" data-name="Trazado 108559" d="M126.326,267.214l-80.3,46.362V123.64l-10.045-5.8a11.28,11.28,0,0,0-1.6,5.438V312.4c0,3.521,2.214,5.6,4.358,6.833s5.889,2.6,8.941.843l78.089-45.121a10.544,10.544,0,0,0,4.785-5.343l-.315-.184Z" transform="translate(-34.38 -67.599)" fill="#263238"/>
            <path id="Trazado_108560" data-name="Trazado 108560" d="M131.817,44.722,53.5,89.944a8.579,8.579,0,0,0-3.883,6.709V284.225c0,3.782,2.689,5.343,5.937,3.438l76.26-44.011a9.737,9.737,0,0,0,4.393-7.605V47.257C136.211,44.467,134.234,43.327,131.817,44.722Z" transform="translate(-40.572 -37.649)" fill="#455a64"/>
            <path id="Trazado_108561" data-name="Trazado 108561" d="M134.994,61.92V237.262a9.25,9.25,0,0,1-4.156,7.219l-70.6,40.781c-2.3,1.336-4.156.261-4.156-2.4V106.228A9.327,9.327,0,0,1,59,99.934l.4-.356a6.847,6.847,0,0,1,.843-.594L80.1,87.514l1.294-.742c.718-.416,1.294-.083,1.294.742s.594,1.14,1.389.695l23.154-13.358a2.968,2.968,0,0,0,1.383-2.292,2.933,2.933,0,0,1,1.187-2.167l.137-.083L129.366,59.1l.416-.243C132.619,57.194,134.994,58.566,134.994,61.92Z" transform="translate(-43.197 -43.347)"/>
            <path id="Trazado_108562" data-name="Trazado 108562" d="M124.774,240.62a9.226,9.226,0,0,0,4.156-7.231V60.13l-19.058,11-.137.083a2.933,2.933,0,0,0-1.187,2.167,2.968,2.968,0,0,1-1.383,2.292L84.011,89.031c-.766.445-1.389.131-1.389-.695s-.594-1.187-1.294-.742l-1.294.742L60.228,99.83a6.846,6.846,0,0,0-.843.594l-.4.356a9.327,9.327,0,0,0-2.927,6.293V280.314Z" transform="translate(-43.189 -44.151)" fill="#263238"/>
            <path id="Trazado_108563" data-name="Trazado 108563" d="M108.352,92.623l10.6-6.127c.635-.368,1.146-.107,1.146.594a2.458,2.458,0,0,1-1.146,1.888L108.346,95.1c-.629.362-1.146.107-1.146-.594A2.458,2.458,0,0,1,108.352,92.623Z" transform="translate(-63.967 -54.796)" fill="#263238"/>
            <path id="Trazado_108564" data-name="Trazado 108564" d="M135.3,80.348c.712-.416,1.294-.077,1.294.742a2.856,2.856,0,0,1-1.294,2.238c-.712.41-1.288.077-1.288-.748A2.85,2.85,0,0,1,135.3,80.348Z" transform="translate(-74.86 -52.294)" fill="#263238"/>
            <path id="Trazado_108565" data-name="Trazado 108565" d="M42.748,162.515a4.661,4.661,0,0,0-2.042-3.693,1.354,1.354,0,0,0-1.4-.119c-.255.154-1.265.718-1.532.879a1.6,1.6,0,0,0-.629,1.449v15.436a4.661,4.661,0,0,0,2.042,3.693,1.366,1.366,0,0,0,1.348.143c.285-.148,1.312-.742,1.579-.9a1.591,1.591,0,0,0,.635-1.449Z" transform="translate(-35.499 -84.144)" fill="#455a64"/>
            <path id="Trazado_108566" data-name="Trazado 108566" d="M41.2,163.994V179.43c0,1.389-.914,1.989-2.042,1.336a4.661,4.661,0,0,1-2.042-3.693V161.637c0-1.389.914-1.983,2.042-1.336A4.666,4.666,0,0,1,41.2,163.994Z" transform="translate(-35.493 -84.745)" fill="#37474f"/>
            <path id="Trazado_108567" data-name="Trazado 108567" d="M42.748,207.948a4.666,4.666,0,0,0-2.042-3.693,1.366,1.366,0,0,0-1.4-.113c-.255.154-1.265.718-1.532.879a1.6,1.6,0,0,0-.629,1.449v15.436a4.666,4.666,0,0,0,2.042,3.693,1.383,1.383,0,0,0,1.348.142c.285-.148,1.312-.742,1.579-.9a1.591,1.591,0,0,0,.635-1.449Z" transform="translate(-35.499 -102.606)" fill="#455a64"/>
            <path id="Trazado_108568" data-name="Trazado 108568" d="M41.2,209.422v15.436c0,1.389-.914,1.989-2.042,1.336A4.666,4.666,0,0,1,37.12,222.5V207.065c0-1.389.914-1.989,2.042-1.336A4.666,4.666,0,0,1,41.2,209.422Z" transform="translate(-35.493 -103.201)" fill="#37474f"/>
          </g>
        </g>
        <g id="freepik--Screen--inject-87" transform="translate(11.889 14.118)">
          <g id="freepik--Window--inject-87">
            <path id="Trazado_108569" data-name="Trazado 108569" d="M158.234,74.2a3.754,3.754,0,0,0-3.776.368l-.422.249L134.32,86.194a.843.843,0,0,0-.137.083A2.968,2.968,0,0,0,133,88.48a3.016,3.016,0,0,1-1.407,2.321L108.1,104.361h-.053a.9.9,0,0,0-.386-.8l-1.354-.784a.926.926,0,0,0-.926.1l-1.318.76L83.9,115.268a7.894,7.894,0,0,0-.861.594l-.4.362a9.5,9.5,0,0,0-2.968,6.388v179.3a2.954,2.954,0,0,0,1.235,2.731l1.366.79a2.916,2.916,0,0,0,2.968-.3l71.671-41.381a9.392,9.392,0,0,0,4.292-7.32v-178a3.748,3.748,0,0,0-1.567-3.455Z" transform="translate(-79.67 -73.839)" fill="#d9a171"/>
            <path id="Trazado_108570" data-name="Trazado 108570" d="M85.693,334.866v.35l-.4.232a2.938,2.938,0,0,1-2.968.3l-1.365-.79a2.972,2.972,0,0,1-1.235-2.737V152.9a8.816,8.816,0,0,1,1.461-4.524l1.6.962a8.579,8.579,0,0,0-1.419,4.376v179.3a3.277,3.277,0,0,0,.594,2.042,1.781,1.781,0,0,0,1.443.707,3.563,3.563,0,0,0,1.745-.546Z" transform="translate(-79.69 -104.125)" opacity="0.3"/>
            <path id="Trazado_108571" data-name="Trazado 108571" d="M171.322,96.858a2.482,2.482,0,0,0-.493,1.371,3.01,3.01,0,0,1-.522,1.573l-1.627-.938a2.7,2.7,0,0,0,.493-1.419,2.85,2.85,0,0,1,.528-1.526Z" transform="translate(-115.835 -82.811)" opacity="0.3"/>
            <path id="Trazado_108572" data-name="Trazado 108572" d="M84.506,306.2a1.781,1.781,0,0,1-1.455-.677,3.277,3.277,0,0,1-.594-2.042v-179.3a9.2,9.2,0,0,1,2.891-6.151l.125-.113.267-.237a5.837,5.837,0,0,1,.813-.558L106.74,105.48l1.318-.754a.885.885,0,0,1,.439-.142c.38,0,.422.445.422.635a1.08,1.08,0,0,0,1.045,1.217,1.591,1.591,0,0,0,.813-.249l23.493-13.56a3.3,3.3,0,0,0,1.555-2.589,2.678,2.678,0,0,1,1.051-1.953.7.7,0,0,1,.113-.065l19.717-11.381.422-.249a4.565,4.565,0,0,1,2.232-.689c1.65,0,2.678,1.354,2.678,3.521V257.193a9.036,9.036,0,0,1-4.085,7.083l-71.7,41.363A3.562,3.562,0,0,1,84.506,306.2Z" transform="translate(-80.801 -74.595)" fill="#fafafa"/>
            <path id="Trazado_108573" data-name="Trazado 108573" d="M159.137,75.76h0c1.49,0,2.375,1.187,2.375,3.218v178a8.84,8.84,0,0,1-3.93,6.822L85.9,305.176a3.3,3.3,0,0,1-1.591.5c-1.086,0-1.734-.908-1.734-2.422v-179.3a8.858,8.858,0,0,1,2.773-5.937l.137-.131.232-.208a6.686,6.686,0,0,1,.79-.54L106.7,105.5l1.312-.754a.63.63,0,0,1,.291-.1c.119,0,.119.3.119.332a1.371,1.371,0,0,0,1.348,1.514,1.906,1.906,0,0,0,.962-.285l23.493-13.56a3.627,3.627,0,0,0,1.71-2.85,2.375,2.375,0,0,1,.92-1.71l.089-.053,19.723-11.381.416-.243a4.322,4.322,0,0,1,2.084-.647m0-.594a4.832,4.832,0,0,0-2.375.724l-.422.249L136.612,87.533a.8.8,0,0,0-.131.083,2.969,2.969,0,0,0-1.187,2.2,3.028,3.028,0,0,1-1.4,2.327l-23.5,13.56a1.3,1.3,0,0,1-.659.208c-.445,0-.742-.332-.742-.914s-.3-.938-.724-.938a1.187,1.187,0,0,0-.594.184l-1.312.754-20.15,11.631a6.753,6.753,0,0,0-.867.594l-.4.362a9.5,9.5,0,0,0-2.968,6.382v179.3c0,1.912.956,3.022,2.339,3.022a3.888,3.888,0,0,0,1.9-.594l71.671-41.381a9.392,9.392,0,0,0,4.251-7.332v-178c0-2.416-1.217-3.817-2.969-3.817Z" transform="translate(-80.609 -74.376)" fill="#d9a171"/>
          </g>
        </g>
      </g>
      <g id="freepik--Shadows--inject-1--inject-261" transform="translate(19.4 181.311)">
        <path id="freepik--Shadow--inject-1--inject-261" d="M328.42,371.1,359,388.844l26.532-15.317L354.721,355.65Z" transform="translate(-147.129 -335.874)" fill="#e0e0e0"/>
        <path id="freepik--shadow--inject-1--inject-261-2" data-name="freepik--shadow--inject-1--inject-261" d="M375.96,357.248l29.685,17.17L432.171,359.1l-29.916-17.3Z" transform="translate(-166.445 -330.247)" fill="#e0e0e0"/>
        <path id="freepik--shadow--inject-1--inject-261-3" data-name="freepik--shadow--inject-1--inject-261" d="M124.311,379.282l33.764-19.491-41-23.671L83.31,355.611Z" transform="translate(-47.54 -327.939)" fill="#e0e0e0"/>
        <path id="freepik--shadow--inject-1--inject-261-4" data-name="freepik--shadow--inject-1--inject-261" d="M44.766,361.286,23.06,348.754,68.953,322.34l21.634,12.491Z" transform="translate(-23.06 -322.34)" fill="#e0e0e0"/>
      </g>
      <g id="freepik--Gifts--inject-1--inject-261" transform="translate(28.347 138.879)">
        <g id="freepik--Box--inject-1--inject-261">
          <path id="Trazado_108574" data-name="Trazado 108574" d="M59.75,335.039,107,307.806V263.35L59.75,290.577Z" transform="translate(-46.914 -255.941)" fill="#d9a171"/>
          <path id="Trazado_108575" data-name="Trazado 108575" d="M59.75,335.039,107,307.806V263.35L59.75,290.577Z" transform="translate(-46.914 -255.941)" fill="#fff" opacity="0.75"/>
          <path id="Trazado_108576" data-name="Trazado 108576" d="M38.13,278.1l12.836,7.409,47.246-27.227-12.83-7.409Z" transform="translate(-38.13 -250.87)" fill="#d9a171"/>
          <path id="Trazado_108577" data-name="Trazado 108577" d="M38.13,278.1l12.836,7.409,47.246-27.227-12.83-7.409Z" transform="translate(-38.13 -250.87)" fill="#fff" opacity="0.9"/>
          <path id="Trazado_108578" data-name="Trazado 108578" d="M38.13,296.73l12.836,7.409V348.6L38.13,341.192Z" transform="translate(-38.13 -269.503)" fill="#d9a171"/>
          <path id="Trazado_108579" data-name="Trazado 108579" d="M38.13,296.73l12.836,7.409V348.6L38.13,341.192Z" transform="translate(-38.13 -269.503)" fill="#fff" opacity="0.6"/>
          <path id="Trazado_108580" data-name="Trazado 108580" d="M107,283.07l-34.529,19.9V291.263l-.344.2v11.708L59.75,310.3v3.7l12.379-7.136v29.044l.344-.2V306.675L107,286.775Z" transform="translate(-46.914 -263.953)" opacity="0.1"/>
          <path id="Trazado_108581" data-name="Trazado 108581" d="M59.75,283.012l12.723,7.475V335.18l3.206-1.846v-44.7L62.956,281.16Z" transform="translate(-46.914 -263.177)" fill="#d9a171"/>
          <path id="Trazado_108582" data-name="Trazado 108582" d="M84.386,318.7l-3.206,1.852v.594l3.206-1.852Z" transform="translate(-55.621 -278.43)" opacity="0.1"/>
          <path id="Trazado_108583" data-name="Trazado 108583" d="M38.13,316.46v3.7l12.836,7.409v-3.7Z" transform="translate(-38.13 -277.519)" opacity="0.1"/>
          <path id="Trazado_108584" data-name="Trazado 108584" d="M38.13,301.888,50.96,309.3,98.212,282.07v3.7L50.96,313l-12.83-7.409Z" transform="translate(-38.13 -263.547)" fill="#d9a171"/>
          <path id="Trazado_108585" data-name="Trazado 108585" d="M50.966,326.564v-3.7L38.13,315.45v3.7Z" transform="translate(-38.13 -277.109)" opacity="0.15"/>
          <path id="Trazado_108586" data-name="Trazado 108586" d="M75.679,288.635l-3.206,1.852L59.75,283.012l3.206-1.852Z" transform="translate(-46.914 -263.177)" fill="#fff" opacity="0.5"/>
          <path id="Trazado_108587" data-name="Trazado 108587" d="M58.99,284.541l12.83,7.409.344-.2L59.441,284.28Z" transform="translate(-46.605 -264.445)" opacity="0.1"/>
        </g>
        <g id="freepik--box--inject-1--inject-261-2" data-name="freepik--box--inject-1--inject-261" transform="translate(36.465 41.98)">
          <path id="Trazado_108588" data-name="Trazado 108588" d="M99.55,348.79l33.579,19.384V381.1L99.55,361.715Z" transform="translate(-99.55 -332.636)" fill="#d9a171"/>
          <path id="Trazado_108589" data-name="Trazado 108589" d="M99.55,348.79l33.579,19.384V381.1L99.55,361.715Z" transform="translate(-99.55 -332.636)" opacity="0.15"/>
          <path id="Trazado_108590" data-name="Trazado 108590" d="M156.11,370.384l27.981-16.154v12.925L156.11,383.309Z" transform="translate(-122.531 -334.846)" fill="#d9a171"/>
          <path id="Trazado_108591" data-name="Trazado 108591" d="M161.11,340.964,127.531,321.58,99.55,337.734l33.579,19.384Z" transform="translate(-99.55 -321.58)" fill="#d9a171"/>
          <path id="Trazado_108592" data-name="Trazado 108592" d="M161.11,340.964,127.531,321.58,99.55,337.734l33.579,19.384Z" transform="translate(-99.55 -321.58)" fill="#fff" opacity="0.5"/>
        </g>
        <g id="freepik--rounded-box--inject-1--inject-261" transform="translate(43.934 35.404)">
          <path id="Trazado_108593" data-name="Trazado 108593" d="M151.7,329.74H112.13v12.925h0c0,2.927,1.935,5.848,5.8,8.08,7.718,4.459,20.251,4.459,27.975,0,3.865-2.232,5.794-5.153,5.794-8.08h0Z" transform="translate(-112.13 -318.32)" fill="#6595bf"/>
          <path id="Trazado_108594" data-name="Trazado 108594" d="M145,358.89a32.375,32.375,0,0,0,7.546-.79V341.56H145Z" transform="translate(-125.485 -323.122)" fill="#5e6178"/>
          <path id="Trazado_108596" data-name="Trazado 108596" d="M117.929,313.85c-7.718,4.465-7.718,11.7,0,16.155s20.251,4.459,27.975,0,7.718-11.69,0-16.155S125.653,309.391,117.929,313.85Z" transform="translate(-112.134 -310.504)" fill="#aed3f2"/>
          <path id="Trazado_108597" data-name="Trazado 108597" d="M138.762,310.53a31.785,31.785,0,0,0-7.492,1.069l8.151,21.771a32.057,32.057,0,0,0,7.546-.79Z" transform="translate(-119.907 -310.514)" fill="#5e6178"/>
        </g>
      </g>
      <g id="freepik--Bags--inject-1--inject-261" transform="translate(203.707 140.071)">
        <g id="freepik--Bag--inject-1--inject-261" transform="translate(23.285)">
          <path id="Trazado_108598" data-name="Trazado 108598" d="M413.252,253.325a3.8,3.8,0,0,1,3.936.232c3.23,1.864,5.854,7.249,5.854,12v11.215a.511.511,0,0,1-1.021,0V265.561c0-4.429-2.375-9.422-5.343-11.12a2.811,2.811,0,0,0-2.915-.232c-1.187.7-1.918,2.482-1.918,4.892v11.161a.511.511,0,0,1-1.015,0V259.1C410.83,256.317,411.709,254.215,413.252,253.325Z" transform="translate(-388.204 -252.878)" fill="#37474f"/>
          <path id="Trazado_108599" data-name="Trazado 108599" d="M372.72,321.483l3.141-53.9,8.989-5.177,2.945,50.369Z" transform="translate(-372.72 -256.751)" fill="#d9a171"/>
          <path id="Trazado_108600" data-name="Trazado 108600" d="M372.72,321.483l3.141-53.9,8.989-5.177,2.945,50.369Z" transform="translate(-372.72 -256.751)" fill="#fff" opacity="0.6"/>
          <path id="Trazado_108601" data-name="Trazado 108601" d="M372.72,321.483l3.141-53.9,8.989-5.177,2.945,50.369Z" transform="translate(-372.72 -256.751)" opacity="0.05"/>
          <path id="Trazado_108602" data-name="Trazado 108602" d="M424.735,280.648l2.945,50.363-31.585-18.232L393.15,262.41Z" transform="translate(-381.021 -256.751)" fill="#d9a171"/>
          <path id="Trazado_108603" data-name="Trazado 108603" d="M424.735,280.648l2.945,50.363-31.585-18.232L393.15,262.41Z" transform="translate(-381.021 -256.751)" fill="#fff" opacity="0.3"/>
          <path id="Trazado_108604" data-name="Trazado 108604" d="M424.735,280.648l2.945,50.363-31.585-18.232L393.15,262.41Z" transform="translate(-381.021 -256.751)" opacity="0.05"/>
          <path id="Trazado_108605" data-name="Trazado 108605" d="M438.049,293.13l-8.994,5.171-3.135,53.9,15.074-8.71Z" transform="translate(-394.335 -269.233)" fill="#d9a171"/>
          <path id="Trazado_108606" data-name="Trazado 108606" d="M438.049,293.13l-8.994,5.171-3.135,53.9,15.074-8.71Z" transform="translate(-394.335 -269.233)" fill="#a66d58" opacity="0.55"/>
          <path id="Trazado_108607" data-name="Trazado 108607" d="M425.92,364.66l6.477-9.1.813-31.769.807,31.217,6.976.944Z" transform="translate(-394.335 -281.69)" opacity="0.05"/>
          <path id="Trazado_108608" data-name="Trazado 108608" d="M372.72,325.026,404.3,343.264l3.135-53.9L375.855,271.13Zm24.193-36.358c0-.724.5-1.021,1.128-.659a2.511,2.511,0,0,1,1.128,1.953c0,.718-.511,1.015-1.128.665A2.482,2.482,0,0,1,396.913,288.668Zm-11.2-6.531c0-.73.5-1.021,1.128-.665a2.5,2.5,0,0,1,1.128,1.953c0,.718-.5,1.015-1.128.665a2.476,2.476,0,0,1-1.128-1.93Z" transform="translate(-372.72 -260.294)" fill="#d9a171"/>
          <path id="Trazado_108609" data-name="Trazado 108609" d="M372.72,325.026,404.3,343.264l3.135-53.9L375.855,271.13Zm24.193-36.358c0-.724.5-1.021,1.128-.659a2.511,2.511,0,0,1,1.128,1.953c0,.718-.511,1.015-1.128.665A2.482,2.482,0,0,1,396.913,288.668Zm-11.2-6.531c0-.73.5-1.021,1.128-.665a2.5,2.5,0,0,1,1.128,1.953c0,.718-.5,1.015-1.128.665a2.476,2.476,0,0,1-1.128-1.93Z" transform="translate(-372.72 -260.294)" fill="#d9a171" opacity="0.7"/>
          <path id="Trazado_108610" data-name="Trazado 108610" d="M398.078,261.957a3.8,3.8,0,0,1,3.936.237c3.224,1.864,5.848,7.243,5.848,12v11.209a.511.511,0,1,1-1.015,0V274.2c0-4.435-2.375-9.422-5.343-11.126a2.848,2.848,0,0,0-2.921-.232c-1.187.7-1.912,2.488-1.912,4.892v11.161a.511.511,0,1,1-1.021,0V267.739C395.65,264.955,396.535,262.847,398.078,261.957Z" transform="translate(-382.037 -256.387)" fill="#455a64"/>
        </g>
        <g id="freepik--bag--inject-1--inject-261-2" data-name="freepik--bag--inject-1--inject-261" transform="translate(0 19.379)">
          <path id="Trazado_108611" data-name="Trazado 108611" d="M368.87,285.9a3.348,3.348,0,0,1,3.438.2c2.814,1.627,5.106,6.323,5.106,10.479v9.784a.445.445,0,1,1-.891,0V296.58c0-3.871-2.09-8.223-4.661-9.707a2.487,2.487,0,0,0-2.547-.208c-1.063.594-1.674,2.173-1.674,4.275v9.737a.445.445,0,1,1-.891,0V290.94C366.75,288.512,367.522,286.671,368.87,285.9Z" transform="translate(-347.01 -285.519)" fill="#37474f"/>
          <path id="Trazado_108612" data-name="Trazado 108612" d="M333.5,345.377l2.737-47.039,7.849-4.518,2.571,43.957Z" transform="translate(-333.5 -288.892)" fill="#aed3f2"/>
          <path id="Trazado_108613" data-name="Trazado 108613" d="M333.5,345.377l2.737-47.039,7.849-4.518,2.571,43.957Z" transform="translate(-333.5 -288.892)" opacity="0.2"/>
          <path id="Trazado_108614" data-name="Trazado 108614" d="M378.889,309.737l2.577,43.957L353.9,337.777,351.33,293.82Z" transform="translate(-340.744 -288.892)" fill="#aed3f2"/>
          <path id="Trazado_108615" data-name="Trazado 108615" d="M378.889,309.737l2.577,43.957L353.9,337.777,351.33,293.82Z" transform="translate(-341.326 -288.892)" opacity="0.3"/>
          <path id="Trazado_108616" data-name="Trazado 108616" d="M390.506,320.63l-7.843,4.512-2.743,47.039,13.162-7.593Z" transform="translate(-352.361 -299.785)" fill="#aed3f2"/>
          <path id="Trazado_108617" data-name="Trazado 108617" d="M390.506,320.63l-7.843,4.512-2.743,47.039,13.162-7.593Z" transform="translate(-352.36 -299.785)" opacity="0.15"/>
          <path id="Trazado_108618" data-name="Trazado 108618" d="M379.92,383.053l5.658-7.938.707-27.726.706,27.245,6.091.825Z" transform="translate(-352.361 -310.657)" opacity="0.15"/>
          <path id="Trazado_108619" data-name="Trazado 108619" d="M333.5,348.469l27.559,15.911,2.743-47.039L336.237,301.43Zm21.112-31.727c0-.635.439-.9.986-.594a2.185,2.185,0,0,1,.98,1.7c0,.629-.439.891-.98.594A2.155,2.155,0,0,1,354.612,316.741Zm-9.772-5.688c0-.629.439-.891.986-.594a2.167,2.167,0,0,1,.986,1.7c0,.629-.439.885-.986.594A2.149,2.149,0,0,1,344.84,311.054Z" transform="translate(-333.5 -291.984)" fill="#aed3f2"/>
          <path id="Trazado_108620" data-name="Trazado 108620" d="M355.624,293.433a3.36,3.36,0,0,1,3.438.208c2.82,1.621,5.112,6.323,5.112,10.473V313.9a.445.445,0,1,1-.891,0v-9.784c0-3.865-2.1-8.223-4.666-9.707a2.476,2.476,0,0,0-2.547-.2c-1.057.594-1.668,2.167-1.668,4.269v9.743a.445.445,0,1,1-.891,0v-9.743C353.51,296.045,354.282,294.21,355.624,293.433Z" transform="translate(-341.63 -288.582)" fill="#455a64"/>
        </g>
      </g>
      <g id="freepik--Character--inject-1--inject-261" transform="translate(108.909 11.535)">
        <g id="freepik--Woman--inject-1--inject-261">
          <path id="Trazado_108621" data-name="Trazado 108621" d="M180.765,220.12l-12.979-3.52-2.206,9,12.626,3.208,4.205-3.172Zm-1.038,5.519a1.273,1.273,0,1,1,.021-.005Z" transform="translate(-165.58 -140.75)" fill="#d9a171"/>
          <path id="Trazado_108622" data-name="Trazado 108622" d="M206.305,238.866c-3.634,0-5.789-2.04-7.673-3.842-1.521-1.454-2.954-2.824-4.994-3.058a.275.275,0,0,1-.239-.3.28.28,0,0,1,.306-.244c2.222.26,3.717,1.692,5.3,3.208,1.936,1.848,3.94,3.779,7.5,3.691,5.254-.109,8.26-7.357,8.307-7.429a.27.27,0,0,1,.353-.151.275.275,0,0,1,.151.358c-.125.312-3.172,7.647-8.779,7.787Z" transform="translate(-178.956 -147.54)" fill="#455a64"/>
          <path id="Trazado_108623" data-name="Trazado 108623" d="M178.379,222.265a2.461,2.461,0,0,1,.633.4,2.077,2.077,0,0,1,.41.483,1.558,1.558,0,0,1,.2.519,1.209,1.209,0,0,1,0,.446.2.2,0,0,1-.1.145.259.259,0,0,1-.177,0l-.561-.145a.338.338,0,0,1-.2-.1.52.52,0,0,1-.088-.171,1.038,1.038,0,0,0-.28-.441,1.448,1.448,0,0,0-.69-.332,1.624,1.624,0,0,0-.41-.057,1.038,1.038,0,0,0-.363.047.675.675,0,0,0-.275.151.519.519,0,0,0-.151.254.478.478,0,0,0,0,.322.7.7,0,0,0,.234.275,4.025,4.025,0,0,0,.467.286l.716.358a4.79,4.79,0,0,1,.753.452,1.92,1.92,0,0,1,.467.478,1.189,1.189,0,0,1,.192.519,1.812,1.812,0,0,1-.057.613,1.412,1.412,0,0,1-.2.6,1.631,1.631,0,0,1-.472.4,1.942,1.942,0,0,1-.654.218,2.716,2.716,0,0,1-.8,0l-.135.55a.228.228,0,0,1-.275.161l-.654-.161a.228.228,0,0,1-.161-.275l.135-.55a3.276,3.276,0,0,1-.633-.358,2.243,2.243,0,0,1-.472-.467,1.558,1.558,0,0,1-.27-.545,1.241,1.241,0,0,1,0-.6.187.187,0,0,1,.1-.14.249.249,0,0,1,.171,0l.566.14a.415.415,0,0,1,.2.1.353.353,0,0,1,.083.176,1.741,1.741,0,0,0,.088.244.69.69,0,0,0,.166.239,1.261,1.261,0,0,0,.311.218,2.1,2.1,0,0,0,.519.182,3.18,3.18,0,0,0,.478.083,1.6,1.6,0,0,0,.426,0,.861.861,0,0,0,.327-.145.519.519,0,0,0,.187-.28.426.426,0,0,0-.042-.322.971.971,0,0,0-.3-.28q-.208-.13-.519-.3c-.213-.1-.462-.228-.737-.379a4.542,4.542,0,0,1-.649-.41,1.77,1.77,0,0,1-.415-.452,1.194,1.194,0,0,1-.182-.519,1.828,1.828,0,0,1-.021-.691,1.428,1.428,0,0,1,.265-.55,1.6,1.6,0,0,1,.457-.395,1.749,1.749,0,0,1,.6-.228,2.6,2.6,0,0,1,.7-.042l.14-.55a.228.228,0,0,1,.27-.161l.654.161a.234.234,0,0,1,.14.1.223.223,0,0,1,.026.171Z" transform="translate(-169.854 -142.999)" fill="#455a64"/>
          <path id="Trazado_108624" data-name="Trazado 108624" d="M264.285,123.262l-26.4-.218.327-39.975A12.662,12.662,0,0,1,250.973,70.5h2.253a11.489,11.489,0,0,1,11.4,11.583Z" transform="translate(-200.345 -70.499)" fill="#263238"/>
          <path id="Trazado_108625" data-name="Trazado 108625" d="M279.856,199.917c-2.18-5.524-6.5-14.63-12.61-27.1l-.6-1.111c-2.622-5.327-5.306-9.179-5.711-12.751l.171-4.153c.317-1.713.877-5.944,1.038-8.307,4.46-4.049,2.767-7.445.883-10.487a25.131,25.131,0,0,0-2.419-2.975c-.779-6.074-4.444-6.406-5.628-6.37l-8.826.249c-4.2.623-9.075,1.173-10.1,1.4-1.957.436-2.445,2.523-2.518,5.285-.073,3.022.389,4.724,2.544,8.54l3.774,7.569.457,4.714s-2.424,3.478-3.889,5.825h0c-6.479,9.392-5.15,15.616-3.473,33.325.8,8.447,1.895,18.171,1.895,18.171s-3.416,4.854-2.6,14.588c.369,4.3,2.077,18.352,3.027,23.965.2,1.557.327,3.115.384,4.558,0,.389.062.742.062,1.121v.945s6.458,5.119,6.458-1.853v-.986l.286-4.153c.384-4.891,1.713-14.09,2.357-19.92,1.1-9.937,2.7-16.032,3.286-21.187.576-5.041,1.983-18.14,2.736-25.159l15.944,21.571h0a40.536,40.536,0,0,0-3.759,7c-1.646,3.9-2.746,8.057-4.844,16.707-.9,3.7-1.615,6.64-2.85,10.331-1.038,2.752,4.636,4.268,4.636,4.268,3.229-5.057,7.948-13.612,11.941-21.047,3.447-6.4,6.3-13.171,6.952-14.677C280.276,204.594,280.832,202.845,279.856,199.917Z" transform="translate(-197.314 -97.506)" fill="#b16668"/>
          <path id="Trazado_108626" data-name="Trazado 108626" d="M276.73,126.666c4.19-.213,5.109,0,10.279,7.144,5,6.91,9.677,12.647,9.677,12.647L308.02,133.28l5,3.805s-9.978,15.03-12.2,17.849c-1.589,2.02-3.317,3.572-7.855-.332-3.437-2.959-14.505-14.537-14.505-14.537Z" transform="translate(-219.025 -97.484)" fill="#b16668"/>
          <path id="Trazado_108627" data-name="Trazado 108627" d="M337,130.646c2.227-2.772,4.086-3.665,6.37-3.863s2.149-6.479,4.428-5.55,2.378,1.988,2.861,3.634,1.885,5.851-1.4,7.211-6.848,1.807-9.22,5.337S337,130.646,337,130.646Z" transform="translate(-248.005 -94.849)" fill="#b16668"/>
          <path id="Trazado_108628" data-name="Trazado 108628" d="M238.792,392.1l.7-.145c-.093-2.222-.343-4.242.14-5.321L238.46,384Z" transform="translate(-200.623 -221.242)" fill="#263238"/>
          <path id="Trazado_108629" data-name="Trazado 108629" d="M234.55,380.36c.254,1.511,1.215,3.016,1.464,6.007a25.34,25.34,0,0,1,.156,3.837l.742.145-.332-8.1Z" transform="translate(-198.743 -219.492)" fill="#263238"/>
          <path id="Trazado_108630" data-name="Trazado 108630" d="M252.28,389.987a2.02,2.02,0,0,1-.415,1.142c-.363.311-1.521,1.371-5.436,1.381s-5.342-.867-6.749-2-1.957-4.309-2.248-5.8a11.109,11.109,0,0,0-3.115-5.752,2.6,2.6,0,0,1-.208-1.506,4.927,4.927,0,0,1,4.833,3.115c1.62,3.494,2.97,7.569,6.188,8.364A49.641,49.641,0,0,0,252.28,389.987Z" transform="translate(-198.516 -218.086)" fill="#263238"/>
          <path id="Trazado_108631" data-name="Trazado 108631" d="M250.372,372.09c1.256.955,2.186,1.355,2.144,2.321s-1.038,1.454-1.827,1.744a13.262,13.262,0,0,1-6,.369c-1.936-.223-4.153-.992-5.072-2.772a7.431,7.431,0,0,1-.566-1.656,24.05,24.05,0,0,0-1.812-5.477,12.336,12.336,0,0,0-1.2-2.077,5.49,5.49,0,0,1-1.36-2.352,5.62,5.62,0,0,1,1.085-3.053v-.026a6.609,6.609,0,0,0,.815-4.3L235.5,347.02l9.189.981-.763,9.033c-.218,2.035.519,4.179,1.09,6.095a27.515,27.515,0,0,0,2.6,6.116,5.953,5.953,0,0,0,.986,1.36,17.131,17.131,0,0,0,1.776,1.485Z" transform="translate(-198.794 -203.461)" fill="#b16668"/>
          <path id="Trazado_108632" data-name="Trazado 108632" d="M234.372,371.14a24.7,24.7,0,0,0,1.36-2.17,6.36,6.36,0,0,1,1.007,1.557h0c1.106,1.895,1.485,4.948,2.6,7.938a5.8,5.8,0,0,0,3.785,3.9,6.526,6.526,0,0,0,3.24.161h0c2.009-.4,1.443-1.838,1.443-1.838a25.989,25.989,0,0,0,4.039,2.944,1.641,1.641,0,0,1,.3,2.284c-.519.519-2.383,1.827-7.268,1.422-4.34-.358-5.467-2.279-5.934-3.151a21.284,21.284,0,0,1-1.142-3.982,12.778,12.778,0,0,0-1.77-4.19q-.166-.239-.311-.436h0c-.317-.41-.69-.857-1.106-1.3-.322-.343-.566-.519-.68-.841A3.037,3.037,0,0,1,234.372,371.14Z" transform="translate(-198.415 -214.015)" fill="#37474f"/>
          <path id="Trazado_108633" data-name="Trazado 108633" d="M264.83,365.157l.716.13c.779-2.129,1.781-5.129,3.177-5.358l-1.038-2.559Z" transform="translate(-213.303 -208.438)" fill="#263238"/>
          <path id="Trazado_108634" data-name="Trazado 108634" d="M265.62,351.73c-.348,1.521.254,3.7-.68,6.609a26.647,26.647,0,0,1-1.339,3.676l.639.431,2.85-7.787Z" transform="translate(-212.712 -205.726)" fill="#263238"/>
          <path id="Trazado_108635" data-name="Trazado 108635" d="M281.108,367.506a1.293,1.293,0,0,1-.763,1.35,8.187,8.187,0,0,1-6.074-.441c-3.115-1.3-3.873-2.373-4.278-4.153-.441-1.962.286-4.5-.145-6.656a36.441,36.441,0,0,0-2.378-6.785c.093-.774.2-1.22.2-1.22a5.211,5.211,0,0,1,3.831,4.807c.166,3.914-.151,8.307,2.57,10.29A20.763,20.763,0,0,0,281.108,367.506Z" transform="translate(-214.573 -204.701)" fill="#263238"/>
          <path id="Trazado_108636" data-name="Trazado 108636" d="M280.648,343.75c.815,1.391,1.5,2.113,1.121,3.016-.291.7-1.682.618-3.027.462a7.269,7.269,0,0,1-3.634-1.381,6.988,6.988,0,0,1-2.777-3.883,16.692,16.692,0,0,1-.088-4.522,8.583,8.583,0,0,0-.166-2.217,15.575,15.575,0,0,0-.82-1.952q-.519-1.345-1.132-2.658a3.229,3.229,0,0,1-.4-2.326,5.736,5.736,0,0,1,2.212-2.456h0a7.3,7.3,0,0,0,2.6-3.837l4.205-15.637,8.826,7.445s-5.783,10.736-6.931,13.3a21.723,21.723,0,0,0-1.521,6.105,28.443,28.443,0,0,0,.078,6.775,6.268,6.268,0,0,0,.4,1.661,16.669,16.669,0,0,0,1.064,2.1Z" transform="translate(-215.623 -183.91)" fill="#b16668"/>
          <path id="Trazado_108637" data-name="Trazado 108637" d="M277.173,365.142a10.207,10.207,0,0,1-4.039-1.506,4.777,4.777,0,0,1-2.077-2.451,10.343,10.343,0,0,1-.135-3.369,19.788,19.788,0,0,0-.312-4.361,15.3,15.3,0,0,0-1.064-3.312c-.311-.685-.618-1.376-.929-2.077a7.743,7.743,0,0,1-.737-1.729,2.746,2.746,0,0,1,1.355-2.2c.934-.618,1.775-.742,2.461-1.262a3.7,3.7,0,0,1,.192,1.241,59.14,59.14,0,0,0,1.687,8.971,25.368,25.368,0,0,0,1.719,4.153c.914,1.75,2.9,2.331,3.26,1.4a17.944,17.944,0,0,0,2.653,4.314c.7.945.327,1.635-.639,2A7.175,7.175,0,0,1,277.173,365.142Z" transform="translate(-214.77 -201.47)" fill="#37474f"/>
          <path id="Trazado_108638" data-name="Trazado 108638" d="M262.013,80.75c1.464.82,3.338,4.408,3.343,12.024,0,6.453-2.045,8.1-3.084,8.582s-3.073.254-5.051,0l.093,3.873s5.586,5.815,1.075,6.5c-2.253.343-5.135-1.038-7.092-2.487a7.922,7.922,0,0,1-2.6-4.008l-.156-8.421s-1.132,1.153-3.115-.519c-1.656-1.376-2.258-3.754-1.038-5.067a2.824,2.824,0,0,1,4.517.784s1.152.628,2.258-1.557a14.225,14.225,0,0,0,6.1-1.646A8.711,8.711,0,0,0,262.013,80.75Z" transform="translate(-203.166 -75.428)" fill="#b16668"/>
          <path id="Trazado_108639" data-name="Trazado 108639" d="M267.72,99.663a.81.81,0,1,1-.872-.784.826.826,0,0,1,.872.784Z" transform="translate(-213.914 -84.144)" fill="#263238"/>
          <g id="Grupo_59607" data-name="Grupo 59607" transform="translate(54.892 21.193)" opacity="0.5">
            <path id="Trazado_108640" data-name="Trazado 108640" d="M271.353,111.32l2.108.618a1.075,1.075,0,0,1-1.339.784A1.153,1.153,0,0,1,271.353,111.32Z" transform="translate(-271.312 -111.32)" fill="#9a4a4d"/>
          </g>
          <path id="Trazado_108641" data-name="Trazado 108641" d="M281.677,93.735,280,92.634a.96.96,0,0,1,1.355-.311A1.038,1.038,0,0,1,281.677,93.735Z" transform="translate(-220.597 -80.916)" fill="#263238"/>
          <path id="Trazado_108642" data-name="Trazado 108642" d="M265.666,93.436l-1.848.763a.96.96,0,0,1,.519-1.3A1.038,1.038,0,0,1,265.666,93.436Z" transform="translate(-212.773 -81.236)" fill="#263238"/>
          <path id="Trazado_108643" data-name="Trazado 108643" d="M280.97,98.962a.825.825,0,0,1-.748.9.836.836,0,0,1-.872-.784.815.815,0,1,1,1.62-.114Z" transform="translate(-220.28 -83.786)" fill="#263238"/>
          <g id="Grupo_59608" data-name="Grupo 59608" transform="translate(56.786 14.802)" opacity="0.5">
            <path id="Trazado_108644" data-name="Trazado 108644" d="M274.96,99.01l.244,4.88,2.554-.857Z" transform="translate(-274.96 -99.01)" fill="#9a4a4d"/>
          </g>
          <g id="Grupo_59609" data-name="Grupo 59609" transform="translate(46.974 22.885)" opacity="0.5">
            <path id="Trazado_108645" data-name="Trazado 108645" d="M263.141,117.6c-2.077-.223-6.375-1.345-7.081-3.016a4.4,4.4,0,0,0,1.557,2.118c1.3,1.038,5.565,2.191,5.565,2.191Z" transform="translate(-256.06 -114.58)" fill="#9a4a4d"/>
          </g>
          <path id="Trazado_108646" data-name="Trazado 108646" d="M253.66,100.462l.078,3.4h0a2.31,2.31,0,0,0,2.253-2.362l-.073-3.115Z" transform="translate(-207.932 -83.905)" fill="#263238"/>
          <path id="Trazado_108647" data-name="Trazado 108647" d="M270.127,181.116c-2.315-4.756-4.735-9.662-6.095-12.429s-3.567-7.362-4.345-9.641c.057-1.038.171-2.279.156-4.081.41-2.518.784-5.3,1.038-8.462,4.807-3.317,2.544-8.307,1.438-9.958a67.326,67.326,0,0,0-9.345-9.864,12.054,12.054,0,0,0-2.855.073s3.266,2.824,6.5,9.475a13.392,13.392,0,0,1,.825,8.13,76.18,76.18,0,0,0-8.12-8.587c-2.923-2.6-8.789-7.829-9.994-8.109a14.277,14.277,0,0,0-2.871.379c2.653,2.43,5.368,10.212,4.994,13.789s-2.077,4.75-4.06,5.5l1,2.336.633,4.745a80.294,80.294,0,0,0-5.513,7.943c-3.982,6.448-5.233,12.392-4.636,48.132,2.2.234,4.537.457,6.993.6l2.643-29.535,4.745,29.66a54.154,54.154,0,0,0,20.4-4.34c9.838-4.319,12.73-8.982,13.633-11.131C275.183,191.717,272.224,185.43,270.127,181.116Z" transform="translate(-195.949 -97.489)" fill="#aed3f2"/>
          <path id="Trazado_108648" data-name="Trazado 108648" d="M257.558,161.81a6.879,6.879,0,0,0,6.142,4.252,7.268,7.268,0,0,0,6.547-3.2s-.685,4.937-6.656,4.434C257.267,166.758,257.558,161.81,257.558,161.81Z" transform="translate(-209.806 -114.405)" opacity="0.1"/>
          <path id="Trazado_108649" data-name="Trazado 108649" d="M227.028,170.805a14.386,14.386,0,0,1-3.946-2.362,10.724,10.724,0,0,0,2.57,0,1.557,1.557,0,0,0,1.4-1.557c-.047-.332-.862-.161-2.16-.566a16.47,16.47,0,0,0-4.584-1.21,3.181,3.181,0,0,1-1.781-1.038c-.514-.457-2.871-4.631-5-9.153l9.688-12.979c3.473-1.557,4.21-7.393,1.262-12.46-7.076.768-6.168,1.558-19.339,21.7-2.258,3.51-2.17,5.192,6.157,15.481A73.776,73.776,0,0,0,217,172.955c4.807,4.486,8.1,3.634,10.3,2.855C231.513,174.232,230.3,172.124,227.028,170.805Z" transform="translate(-183.994 -98.859)" fill="#b16668"/>
          <g id="freepik--bag--inject-1--inject-261-3" data-name="freepik--bag--inject-1--inject-261" transform="translate(81.026 37.775)">
            <path id="Trazado_108650" data-name="Trazado 108650" d="M372.131,179.233l-2.04-32.619-5.825-3.354-.566,31.814Z" transform="translate(-341.869 -143.26)" fill="#37474f"/>
            <path id="Trazado_108651" data-name="Trazado 108651" d="M323.561,155.087l-1.911,30.329,21.831-10.342.566-31.814Z" transform="translate(-321.65 -143.26)" fill="#263238"/>
            <path id="Trazado_108652" data-name="Trazado 108652" d="M323.561,166.04l5.83,3.354,2.035,32.619-9.776-5.643Z" transform="translate(-321.65 -154.213)" fill="#37474f"/>
            <path id="Trazado_108653" data-name="Trazado 108653" d="M331.426,212.947l-4.2-5.9-.53-18.269-.524,17.911-4.522.613Z" transform="translate(-321.65 -165.148)" fill="#263238"/>
            <path id="Trazado_108654" data-name="Trazado 108654" d="M357.036,149.72,336.56,161.547l2.035,32.619,20.486-11.827Zm-14.381,12.647c-.4.228-.732.036-.732-.431a1.615,1.615,0,0,1,.732-1.267c.4-.234.732-.042.732.431a1.615,1.615,0,0,1-.727,1.267Zm7.268-4.226c-.4.228-.732.036-.732-.431a1.62,1.62,0,0,1,.732-1.267c.4-.234.732-.042.732.431a1.6,1.6,0,0,1-.737,1.267Z" transform="translate(-328.819 -146.366)" fill="#455a64"/>
          </g>
          <path id="Trazado_108655" data-name="Trazado 108655" d="M348.094,152.4a.234.234,0,0,1-.234-.234v-17.7c0-2.077.208-4.19,1.77-4.19h.161a2.971,2.971,0,0,1-.389.493c-.742.187-1.075,1.35-1.075,3.7v17.7A.234.234,0,0,1,348.094,152.4Z" transform="translate(-253.227 -99.239)" fill="#e6e6e6"/>
          <path id="Trazado_108656" data-name="Trazado 108656" d="M337.587,148.454h-.052a.234.234,0,0,1-.171-.28c0-.093,2.17-9.122,2.809-12.366.587-2.985,1.158-4.948,3.634-4.948a.234.234,0,1,1,0,.467c-2.077,0-2.6,1.464-3.182,4.574-.644,3.25-2.793,12.289-2.814,12.382A.228.228,0,0,1,337.587,148.454Z" transform="translate(-248.177 -99.523)" fill="#e6e6e6"/>
          <path id="Trazado_108657" data-name="Trazado 108657" d="M360.319,154.172a.234.234,0,0,1-.228-.192l-1.9-11.063.441-.166,1.916,11.152a.228.228,0,0,1-.187.27Z" transform="translate(-258.194 -105.24)" fill="#e6e6e6"/>
        </g>
      </g>
      <g id="freepik--speech-bubble--inject-1--inject-261" transform="translate(92.389 40.756)">
        <g id="freepik--speach-bubble--inject-1--inject-261">
          <path id="Trazado_108658" data-name="Trazado 108658" d="M181.61,108.557v-7.285l6.145-.534a.451.451,0,0,1,.255.047l5.266,3.028a.451.451,0,0,1,.1.689l-6.531,7.065Z" transform="translate(-160.468 -91.747)" fill="#d9a171"/>
          <path id="Trazado_108659" data-name="Trazado 108659" d="M190.45,113.648l6.531-7.065a.451.451,0,0,0-.368-.754l-6.151.54Z" transform="translate(-164.06 -93.816)" fill="#6595bf"/>
          <path id="Trazado_108660" data-name="Trazado 108660" d="M181.61,101.273l5.248,3.016,6.151-.54a.5.5,0,0,1,.214.036c-.493-.291-4.987-2.873-5.213-3a.451.451,0,0,0-.255-.048Z" transform="translate(-160.468 -91.747)" fill="#d9a171"/>
          <path id="Trazado_108661" data-name="Trazado 108661" d="M181.61,101.273l5.248,3.016,6.151-.54a.5.5,0,0,1,.214.036c-.493-.291-4.987-2.873-5.213-3a.451.451,0,0,0-.255-.048Z" transform="translate(-160.468 -91.747)" fill="#aed3f2" opacity="0.5"/>
          <path id="Trazado_108662" data-name="Trazado 108662" d="M172.4,89.321a3.372,3.372,0,0,0-1.526-2.642l-1.241-.718a3.372,3.372,0,0,0-3.052,0L147.526,96.979A3.372,3.372,0,0,0,146,99.621v20.957a3.372,3.372,0,0,0,1.526,2.642l1.241.718a3.372,3.372,0,0,0,3.052,0L170.87,112.92a3.372,3.372,0,0,0,1.526-2.642Z" transform="translate(-146 -85.595)" fill="#6595bf"/>
          <path id="Trazado_108663" data-name="Trazado 108663" d="M146,129.15a3.372,3.372,0,0,0,1.526,2.642l1.241.718a3.408,3.408,0,0,0,2.79.125c-.718.273-1.265-.137-1.265-1V110.668a3.153,3.153,0,0,1,.445-1.5l-4.292-2.476a3.129,3.129,0,0,0-.445,1.5Z" transform="translate(-146 -94.166)" opacity="0.2"/>
          <path id="Trazado_108664" data-name="Trazado 108664" d="M172.651,88.91c-.178-.647-.766-.855-1.472-.451L152.127,99.514a3,3,0,0,0-1.075,1.134l-4.292-2.476a3.117,3.117,0,0,1,1.075-1.14L166.88,86.013a3.408,3.408,0,0,1,3.052,0l1.247.718a3.378,3.378,0,0,1,1.472,2.179Z" transform="translate(-146.309 -85.619)" fill="#fff" opacity="0.5"/>
          <path id="Trazado_108665" data-name="Trazado 108665" d="M161.8,114.758a8.865,8.865,0,0,1,.73-3.438h0a6.008,6.008,0,0,1,2.2-2.808c1.5-.885,2.749.914,2.968,3.028.178-2.333,1.407-5.587,2.9-6.465a1.639,1.639,0,0,1,2.209.22h0a3.948,3.948,0,0,1,.748,2.571c0,3.562-2.137,6.822-3.936,10.229l-1.894,3.562-1.924-1.324C163.985,119.044,161.812,118.338,161.8,114.758Z" transform="translate(-152.42 -93.376)" fill="#fafafa"/>
        </g>
      </g>
    </g>
  </g>
</svg>
