<svg xmlns="http://www.w3.org/2000/svg" xmlns:xlink="http://www.w3.org/1999/xlink" width="278.505" height="263.945" viewBox="0 0 278.505 263.945">
  <defs>
    <linearGradient id="linear-gradient" x1="0.5" x2="0.5" y2="1" gradientUnits="objectBoundingBox">
      <stop offset="0" stop-color="#a66d58"/>
      <stop offset="1" stop-color="#d9a171"/>
    </linearGradient>
  </defs>
  <g id="Black_Friday-amico" data-name="Black Friday-amico" transform="translate(-31.902 -36.43)">
    <g id="freepik--Shadows--inject-250" transform="translate(51.674 230.06)">
      <path id="freepik--Shadow--inject-250" d="M416.354,378.188,396.636,366.8a.252.252,0,0,1,0-.479l28.218-16.283a.918.918,0,0,1,.841,0l19.711,11.386a.252.252,0,0,1,0,.479l-28.218,16.289A.905.905,0,0,1,416.354,378.188Z" transform="translate(-186.845 -340.755)" fill="#e0e0e0"/>
      <ellipse id="freepik--shadow--inject-250-2" data-name="freepik--shadow--inject-250" cx="38.808" cy="22.402" rx="38.808" ry="22.402" transform="translate(117.431 25.51)" fill="url(#linear-gradient)"/>
      <path id="freepik--shadow--inject-250-3" data-name="freepik--shadow--inject-250" d="M366.508,373.074l-20.449-11.813c-.246-.136-.246-.362,0-.5l32.74-18.909a.97.97,0,0,1,.867,0l20.455,11.813a.265.265,0,0,1,0,.5l-32.74,18.9A.945.945,0,0,1,366.508,373.074Z" transform="translate(-168.983 -337.867)" fill="#e0e0e0"/>
      <path id="freepik--shadow--inject-250-4" data-name="freepik--shadow--inject-250" d="M73.667,366.483l65.118,32.041a6.792,6.792,0,0,0,5.706-.194l36.466-21.018a1.868,1.868,0,0,0,.123-3.435l-55.084-37.32a5.641,5.641,0,0,0-5.479-.194L73.563,363.469C72.017,364.329,72.062,365.668,73.667,366.483Z" transform="translate(-72.433 -335.746)" fill="#e0e0e0"/>
    </g>
    <g id="freepik--Clouds--inject-250" transform="translate(31.902 41.201)">
      <g id="freepik--clouds--inject-250-2" data-name="freepik--clouds--inject-250">
        <path id="Trazado_109335" data-name="Trazado 109335" d="M71.35,46.519l-5.02,2.9a5.821,5.821,0,0,0,.039-.647V47.321c0-2.588-1.818-3.636-4.056-2.342a7.724,7.724,0,0,0-2.419,2.329c-.369-3.235-2.924-4.47-6.029-2.678a13.44,13.44,0,0,0-6.087,10.519v2.18a5.686,5.686,0,0,0,.518,2.516l-4.173,2.413A4.981,4.981,0,0,0,41.87,66.14c0,1.436,1.009,2.018,2.251,1.294L71.35,51.746A4.962,4.962,0,0,0,73.6,47.865C73.6,46.409,72.6,45.827,71.35,46.519Z" transform="translate(-41.87 -43.806)" fill="#ebebeb"/>
        <path id="Trazado_109336" data-name="Trazado 109336" d="M112.386,62.113l-3.235,1.87a3.163,3.163,0,0,0,.032-.427v-.938c0-1.675-1.177-2.355-2.626-1.514A5.039,5.039,0,0,0,105,62.6c-.239-2.1-1.889-2.885-3.881-1.727A8.656,8.656,0,0,0,97.2,67.67v1.4a3.694,3.694,0,0,0,.33,1.63l-2.691,1.553a3.235,3.235,0,0,0-1.456,2.523c0,.925.647,1.294,1.456.841l17.576-10.15a3.235,3.235,0,0,0,1.423-2.516C113.835,62.022,113.188,61.647,112.386,62.113Z" transform="translate(-60.058 -49.644)" fill="#ebebeb"/>
      </g>
    </g>
    <g id="freepik--Bags--inject-250" transform="translate(237.218 190.174)">
      <g id="freepik--light-bag--inject-250">
        <path id="Trazado_109337" data-name="Trazado 109337" d="M383.729,274.465a3.364,3.364,0,0,0-3.435.207c-2.814,1.624-5.1,6.32-5.1,10.467v9.775a.446.446,0,0,0,.893,0v-9.775c0-3.881,2.09-8.216,4.658-9.7a2.465,2.465,0,0,1,2.542-.207c1.061.615,1.669,2.167,1.669,4.27v9.736a.446.446,0,1,0,.893,0V279.5C385.845,277.079,385.075,275.242,383.729,274.465Z" transform="translate(-364.878 -274.09)" fill="#263238"/>
        <path id="Trazado_109338" data-name="Trazado 109338" d="M414.982,333.22l-2.736-47L404.4,281.7l-2.575,43.931Z" transform="translate(-374.285 -276.777)" fill="#d9a171"/>
        <path id="Trazado_109339" data-name="Trazado 109339" d="M414.982,333.22l-2.736-47L404.4,281.7l-2.575,43.931Z" transform="translate(-374.285 -276.777)" fill="#fff" opacity="0.4"/>
        <path id="Trazado_109340" data-name="Trazado 109340" d="M361.825,297.607l-2.575,43.925,27.545-15.9L389.37,281.7Z" transform="translate(-359.25 -276.777)" fill="#d9a171"/>
        <path id="Trazado_109341" data-name="Trazado 109341" d="M361.825,297.607l-2.575,43.925,27.545-15.9L389.37,281.7Z" transform="translate(-359.25 -276.777)" fill="#fff" opacity="0.3"/>
        <path id="Trazado_109342" data-name="Trazado 109342" d="M361.825,297.607l-2.575,43.925,27.545-15.9L389.37,281.7Z" transform="translate(-359.25 -276.777)" opacity="0.05"/>
        <path id="Trazado_109343" data-name="Trazado 109343" d="M361.825,306.29l7.841,4.509,2.736,47-13.152-7.588Z" transform="translate(-359.25 -285.46)" fill="#d9a171"/>
        <path id="Trazado_109344" data-name="Trazado 109344" d="M361.825,306.29l7.841,4.509,2.736,47-13.152-7.588Z" transform="translate(-359.25 -285.46)" fill="#fff" opacity="0.55"/>
        <path id="Trazado_109345" data-name="Trazado 109345" d="M372.4,366.468l-5.654-7.931-.705-27.707-.705,27.228-6.087.822Z" transform="translate(-359.25 -294.125)" fill="#d9a171" opacity="0.2"/>
        <path id="Trazado_109346" data-name="Trazado 109346" d="M372.4,366.468l-5.654-7.931-.705-27.707-.705,27.228-6.087.822Z" transform="translate(-359.25 -294.125)" opacity="0.05"/>
        <path id="Trazado_109347" data-name="Trazado 109347" d="M402.889,288.68l-27.539,15.9,2.736,47,27.545-15.9Zm-19.355,17.027c-.543.311-.983.052-.983-.576a2.167,2.167,0,0,1,.983-1.7c.543-.317.99-.058.99.576a2.174,2.174,0,0,1-.99,1.7Zm9.762-5.68c-.543.311-.983.052-.983-.576a2.174,2.174,0,0,1,.99-1.7c.543-.317.983-.058.983.576a2.174,2.174,0,0,1-.977,1.675Z" transform="translate(-364.935 -279.242)" fill="#d9a171"/>
        <path id="Trazado_109348" data-name="Trazado 109348" d="M402.889,288.68l-27.539,15.9,2.736,47,27.545-15.9Zm-19.355,17.027c-.543.311-.983.052-.983-.576a2.167,2.167,0,0,1,.983-1.7c.543-.317.99-.058.99.576a2.174,2.174,0,0,1-.99,1.7Zm9.762-5.68c-.543.311-.983.052-.983-.576a2.174,2.174,0,0,1,.99-1.7c.543-.317.983-.058.983.576a2.174,2.174,0,0,1-.977,1.675Z" transform="translate(-364.935 -279.242)" fill="#fff" opacity="0.7"/>
        <path id="Trazado_109349" data-name="Trazado 109349" d="M395.873,281.375a3.351,3.351,0,0,0-3.429.207c-2.814,1.624-5.1,6.32-5.1,10.467v9.781a.446.446,0,0,0,.886,0v-9.781c0-3.881,2.09-8.216,4.658-9.7a2.478,2.478,0,0,1,2.549-.207c1.061.647,1.669,2.167,1.669,4.27v9.736a.446.446,0,0,0,.886,0v-9.729C397.988,283.989,397.218,282.151,395.873,281.375Z" transform="translate(-369.168 -276.53)" fill="#37474f"/>
      </g>
      <g id="freepik--dark-bag--inject-250" transform="translate(33.516 11.903)">
        <path id="Trazado_109350" data-name="Trazado 109350" d="M432.422,292.82a2.911,2.911,0,0,0-3,.181c-2.458,1.417-4.457,5.512-4.457,9.134v8.533a.388.388,0,0,0,.776,0v-8.507c0-3.377,1.824-7.168,4.069-8.468a2.161,2.161,0,0,1,2.219-.175c.925.53,1.456,1.889,1.456,3.72v8.52a.388.388,0,1,0,.776,0v-8.52C434.266,295.123,433.593,293.525,432.422,292.82Z" transform="translate(-415.971 -292.489)" fill="#263238"/>
        <path id="Trazado_109351" data-name="Trazado 109351" d="M459.7,344.14l-2.387-41.027-6.844-3.933-2.245,38.336Z" transform="translate(-424.181 -294.852)" fill="#d9a171"/>
        <path id="Trazado_109352" data-name="Trazado 109352" d="M459.7,344.14l-2.387-41.027-6.844-3.933-2.245,38.336Z" transform="translate(-424.181 -294.852)" opacity="0.2"/>
        <path id="Trazado_109353" data-name="Trazado 109353" d="M413.3,313.056l-2.245,38.336L435.1,337.516l2.245-38.336Z" transform="translate(-411.06 -294.852)" fill="#d9a171"/>
        <path id="Trazado_109354" data-name="Trazado 109354" d="M413.3,313.056l-2.245,38.336L435.1,337.516l2.245-38.336Z" transform="translate(-411.06 -294.852)" opacity="0.3"/>
        <path id="Trazado_109355" data-name="Trazado 109355" d="M413.3,320.63l6.844,3.94,2.387,41.02-11.476-6.624Z" transform="translate(-411.06 -302.426)" fill="#d9a171"/>
        <path id="Trazado_109356" data-name="Trazado 109356" d="M413.3,320.63l6.844,3.94,2.387,41.02-11.476-6.624Z" transform="translate(-411.06 -302.426)" opacity="0.15"/>
        <path id="Trazado_109357" data-name="Trazado 109357" d="M422.536,373.153l-4.929-6.922-.621-24.181-.615,23.761-5.311.718Z" transform="translate(-411.06 -309.989)" opacity="0.15"/>
        <path id="Trazado_109358" data-name="Trazado 109358" d="M449.149,305.26,425.11,319.143l2.387,41.02,24.065-13.876ZM432.265,320.1c-.472.272-.86.045-.86-.5a1.941,1.941,0,0,1,.86-1.488c.472-.272.86-.045.86.5a1.882,1.882,0,0,1-.86,1.488Zm8.52-4.955c-.472.272-.86.045-.86-.5a1.94,1.94,0,0,1,.86-1.488c.472-.272.86-.045.86.5a1.9,1.9,0,0,1-.86,1.488Z" transform="translate(-416.021 -296.999)" fill="#d9a171"/>
        <path id="Trazado_109359" data-name="Trazado 109359" d="M443.022,298.891a2.924,2.924,0,0,0-3,.181c-2.458,1.417-4.457,5.512-4.457,9.134v8.533a.388.388,0,0,0,.776,0v-8.533c0-3.37,1.824-7.168,4.069-8.462a2.148,2.148,0,0,1,2.219-.181c.925.537,1.456,1.889,1.456,3.726v8.494a.388.388,0,0,0,.776,0V303.29C444.866,301.168,444.193,299.57,443.022,298.891Z" transform="translate(-419.714 -294.634)" fill="#37474f"/>
      </g>
    </g>
    <g id="freepik--Label--inject-250" transform="translate(68.17 36.43)">
      <g id="freepik--label--inject-250-2" data-name="freepik--label--inject-250">
        <path id="Trazado_109360" data-name="Trazado 109360" d="M98.766,145.015h-.078a.834.834,0,0,1-.75-.912c.977-9.982,7.905-15.946,11.942-18.612,6.087-4.011,13.488-5.822,18-4.38a.835.835,0,1,1-.5,1.585c-4-1.294-11,.492-16.58,4.192-3.791,2.5-10.292,8.08-11.2,17.376a.841.841,0,0,1-.835.75Z" transform="translate(-97.934 -66.157)" fill="#263238"/>
        <g id="freepik--label--inject-250-3" data-name="freepik--label--inject-250" transform="translate(22.917)">
          <g id="freepik--label--inject-250-4" data-name="freepik--label--inject-250">
            <path id="Trazado_109361" data-name="Trazado 109361" d="M200.574,36.43,147,67.359,133.36,94.93,147,106.742l1.54.886L202.113,76.7V37.316Zm-55.44,53.415a7.22,7.22,0,0,1,3.273-5.673,2.989,2.989,0,0,1,1.41-.433,3,3,0,0,1,.323,1.43,7.258,7.258,0,0,1-3.273,5.68,3.06,3.06,0,0,1-1.423.433,2.95,2.95,0,0,1-.311-1.436Z" transform="translate(-133.36 -36.43)" fill="#d9a171"/>
            <path id="Trazado_109362" data-name="Trazado 109362" d="M149.383,68.735,135.74,96.3l13.643,11.813,53.57-30.929V37.8Zm-.136,23.47c-1.818,1.048-3.273.2-3.273-1.889a7.219,7.219,0,0,1,3.273-5.673c1.8-1.042,3.273-.194,3.273,1.889A7.245,7.245,0,0,1,149.247,92.2Z" transform="translate(-134.2 -36.914)" fill="#d9a171"/>
            <g id="Grupo_59625" data-name="Grupo 59625" transform="translate(12.084 47.307)" opacity="0.3">
              <path id="Trazado_109363" data-name="Trazado 109363" d="M158.276,111.869A7.245,7.245,0,0,1,155,117.542c-1.294.757-2.439.524-2.963-.453h0a3,3,0,0,0,1.423-.433,7.258,7.258,0,0,0,3.273-5.68,2.944,2.944,0,0,0-.323-1.417,1.7,1.7,0,0,1,1.236.459A2.536,2.536,0,0,1,158.276,111.869Z" transform="translate(-152.04 -109.558)"/>
            </g>
            <g id="Grupo_59626" data-name="Grupo 59626" transform="translate(13.643)" opacity="0.3">
              <path id="Trazado_109364" data-name="Trazado 109364" d="M209.56,37.316l-1.54-.886L154.45,67.359l1.533.893Z" transform="translate(-154.45 -36.43)" fill="#fff"/>
            </g>
            <g id="Grupo_59627" data-name="Grupo 59627" transform="translate(0 30.929)" opacity="0.15">
              <path id="Trazado_109365" data-name="Trazado 109365" d="M148.536,85.133,134.9,112.7l-1.54-.893L147,84.24Z" transform="translate(-133.36 -84.24)"/>
            </g>
            <g id="Grupo_59628" data-name="Grupo 59628" transform="translate(0 58.5)" opacity="0.3">
              <path id="Trazado_109366" data-name="Trazado 109366" d="M134.9,127.753l13.637,11.806L147,138.673,133.36,126.86Z" transform="translate(-133.36 -126.86)"/>
            </g>
          </g>
          <path id="Trazado_109367" data-name="Trazado 109367" d="M143.72,129.064a10.052,10.052,0,0,1-2.368-.3.841.841,0,0,1,.395-1.63,6.818,6.818,0,0,0,8.17-3.881,5.258,5.258,0,0,0-1.831-6.767.841.841,0,1,1,.906-1.417,6.936,6.936,0,0,1,2.465,8.843A8.371,8.371,0,0,1,143.72,129.064Z" transform="translate(-135.976 -64.147)" fill="#37474f"/>
        </g>
        <path id="Trazado_109368" data-name="Trazado 109368" d="M168.238,99.954a.188.188,0,0,1-.246,0,.414.414,0,0,1-.1-.317V86.854a1,1,0,0,1,.1-.44.686.686,0,0,1,.246-.3l4.134-2.374a2.853,2.853,0,0,1,1.449-.472,1.333,1.333,0,0,1,.944.408,2.258,2.258,0,0,1,.5,1.029,6.018,6.018,0,0,1,.155,1.384,5.822,5.822,0,0,1-.084,1.048,6.3,6.3,0,0,1-.2.847,4.528,4.528,0,0,1-.233.647c-.084.175-.149.311-.2.4a1.391,1.391,0,0,1,.7.835,4.981,4.981,0,0,1,.2,1.578,9.433,9.433,0,0,1-.155,1.669,7.584,7.584,0,0,1-.5,1.663,6.47,6.47,0,0,1-.919,1.5,4.994,4.994,0,0,1-1.391,1.164Zm4.8-12.414a.977.977,0,0,0-.2-.712c-.129-.123-.323-.116-.582,0l-1.992,1.151v2.251l1.992-1.145a1.384,1.384,0,0,0,.582-.647,2.1,2.1,0,0,0,.2-.9Zm-2.775,8.183,2.122-1.223A1.585,1.585,0,0,0,173,93.8a2.245,2.245,0,0,0,.233-.99.964.964,0,0,0-.233-.731c-.155-.142-.362-.136-.615,0L170.263,93.3Z" transform="translate(-122.634 -52.969)" fill="#263238"/>
        <path id="Trazado_109369" data-name="Trazado 109369" d="M188.313,86.2a.188.188,0,0,1,.239,0,.408.408,0,0,1,.1.317v2.1a.99.99,0,0,1-.1.433.647.647,0,0,1-.239.3l-5.945,3.429a.188.188,0,0,1-.246,0,.414.414,0,0,1-.1-.317V79.694a.97.97,0,0,1,.1-.433.647.647,0,0,1,.246-.3l1.682-.97a.188.188,0,0,1,.239,0,.414.414,0,0,1,.1.317V88.466Z" transform="translate(-127.623 -51.088)" fill="#263238"/>
        <path id="Trazado_109370" data-name="Trazado 109370" d="M198.324,68.63c.175-.1.3-.1.395,0a.8.8,0,0,1,.188.33L201.7,79.8a.814.814,0,0,1,.052.265.776.776,0,0,1-.084.356.556.556,0,0,1-.194.246l-1.624.932c-.168.1-.291.116-.362.045a.485.485,0,0,1-.136-.252L199,79.958,195.582,81.9l-.362,1.844a1.662,1.662,0,0,1-.136.408.886.886,0,0,1-.362.382l-1.617.932a.155.155,0,0,1-.2,0,.349.349,0,0,1-.084-.259,1.463,1.463,0,0,1,.052-.33l2.795-14.064a2.724,2.724,0,0,1,.188-.543.925.925,0,0,1,.395-.446Zm-2.077,9.846,2.077-1.223-1.035-4.147Z" transform="translate(-131.437 -47.774)" fill="#263238"/>
        <path id="Trazado_109371" data-name="Trazado 109371" d="M209.794,67.393v3.319a3.739,3.739,0,0,0,.116.8,1.2,1.2,0,0,0,.278.569.712.712,0,0,0,.492.22,1.372,1.372,0,0,0,.731-.233,2.7,2.7,0,0,0,.718-.576,3.319,3.319,0,0,0,.738-1.294,5.79,5.79,0,0,0,.149-.6,2.587,2.587,0,0,1,.142-.524.647.647,0,0,1,.291-.3l1.682-.97a.155.155,0,0,1,.2,0,.33.33,0,0,1,.084.259,7.983,7.983,0,0,1-.317,2.083,9.652,9.652,0,0,1-.841,2.025,9.523,9.523,0,0,1-1.294,1.766,6.469,6.469,0,0,1-1.572,1.294,3.286,3.286,0,0,1-1.65.524,1.857,1.857,0,0,1-1.242-.44,2.762,2.762,0,0,1-.789-1.255,6.734,6.734,0,0,1-.31-1.883V68.66a10.163,10.163,0,0,1,.3-2.245,10.627,10.627,0,0,1,.789-2.161,8.992,8.992,0,0,1,1.242-1.876A6.469,6.469,0,0,1,211.391,61a3.422,3.422,0,0,1,1.572-.524,2.09,2.09,0,0,1,1.294.336,2.258,2.258,0,0,1,.854,1.048,4.528,4.528,0,0,1,.317,1.714.8.8,0,0,1-.084.356.472.472,0,0,1-.2.239l-1.682.977q-.214.129-.291.039a.912.912,0,0,1-.142-.362,2.652,2.652,0,0,0-.149-.433.847.847,0,0,0-.272-.343.8.8,0,0,0-.466-.116,1.643,1.643,0,0,0-.718.259,2.588,2.588,0,0,0-.731.608,3.3,3.3,0,0,0-.492.789,3.881,3.881,0,0,0-.278.893,5.716,5.716,0,0,0-.129.912Z" transform="translate(-136.586 -44.919)" fill="#263238"/>
        <path id="Trazado_109372" data-name="Trazado 109372" d="M229.435,63.349a.472.472,0,0,1,0,.2.77.77,0,0,1-.084.349.485.485,0,0,1-.194.246l-2.044,1.177a.31.31,0,0,1-.3.052.692.692,0,0,1-.226-.2l-2.426-3.306v4.625a1.093,1.093,0,0,1-.1.44.686.686,0,0,1-.246.3l-1.682.97a.194.194,0,0,1-.246,0,.434.434,0,0,1-.1-.317V55.094a1.074,1.074,0,0,1,.136-.427.692.692,0,0,1,.246-.3l1.695-1a.188.188,0,0,1,.246,0,.453.453,0,0,1,.1.317V57.9l2.238-5.583c.045-.1.1-.226.168-.369a.8.8,0,0,1,.343-.362l2.005-1.158a.155.155,0,0,1,.2,0,.356.356,0,0,1,.084.259.686.686,0,0,1-.039.239l-3.176,7.763Z" transform="translate(-141.665 -41.36)" fill="#263238"/>
        <path id="Trazado_109373" data-name="Trazado 109373" d="M173.992,108.059a.175.175,0,0,1,.22,0,.369.369,0,0,1,.091.285v1.941a.88.88,0,0,1-.091.395.569.569,0,0,1-.22.272l-3.506,2.025v2.471l3.267-1.883a.175.175,0,0,1,.226,0,.4.4,0,0,1,.091.291V115.8a1,1,0,0,1-.091.4.647.647,0,0,1-.226.272l-3.267,1.889v3.881a.911.911,0,0,1-.1.4.6.6,0,0,1-.22.272l-1.54.886a.162.162,0,0,1-.22,0,.369.369,0,0,1-.091-.285V111.869a.906.906,0,0,1,.091-.4.647.647,0,0,1,.22-.272Z" transform="translate(-122.785 -61.708)" fill="#fafafa"/>
        <path id="Trazado_109374" data-name="Trazado 109374" d="M182.989,103.262a4.205,4.205,0,0,1,1.384-.55,1.475,1.475,0,0,1,1.035.162,1.637,1.637,0,0,1,.647.912,5.31,5.31,0,0,1,.239,1.688,7.912,7.912,0,0,1-.362,2.458,6.508,6.508,0,0,1-1.029,1.941l1.449,3.454a.427.427,0,0,1,.039.175.719.719,0,0,1-.078.323.511.511,0,0,1-.181.226l-1.6.919c-.155.091-.265.1-.33,0a.867.867,0,0,1-.162-.239l-1.294-3.105-1.074.647v3.881a.886.886,0,0,1-.1.395.569.569,0,0,1-.22.272l-1.533.9a.168.168,0,0,1-.22,0,.375.375,0,0,1-.1-.291V105.785a.906.906,0,0,1,.1-.395.647.647,0,0,1,.22-.272Zm-1.294,6.23,1.294-.763a2.484,2.484,0,0,0,.815-.763,2.154,2.154,0,0,0,.323-1.229c0-.5-.11-.8-.323-.86a1.041,1.041,0,0,0-.815.181l-1.294.763Z" transform="translate(-126.737 -59.823)" fill="#fafafa"/>
        <path id="Trazado_109375" data-name="Trazado 109375" d="M192.4,111.268a.175.175,0,0,1-.22,0,.375.375,0,0,1-.1-.291V99.333a.912.912,0,0,1,.1-.4.647.647,0,0,1,.22-.272l1.572-.912a.168.168,0,0,1,.22,0,.4.4,0,0,1,.1.291v11.644a.886.886,0,0,1-.1.395.569.569,0,0,1-.22.272Z" transform="translate(-131.175 -58.066)" fill="#fafafa"/>
        <path id="Trazado_109376" data-name="Trazado 109376" d="M201.391,92.734a3.235,3.235,0,0,1,1.481-.485,1.747,1.747,0,0,1,1.152.375,2.516,2.516,0,0,1,.763,1.152,6.307,6.307,0,0,1,.311,1.857v2.529a10.915,10.915,0,0,1-.3,2.212,9.4,9.4,0,0,1-.75,2.018,7.919,7.919,0,0,1-1.126,1.688,5.823,5.823,0,0,1-1.468,1.216l-3.163,1.831a.175.175,0,0,1-.22,0,.375.375,0,0,1-.1-.291V95.193a.912.912,0,0,1,.1-.4.6.6,0,0,1,.22-.272Zm1.54,4.076c-.052-1.359-.582-1.74-1.6-1.158l-1.2.692V103.2l1.255-.725a3.235,3.235,0,0,0,1.54-2.963V97.5c.006-.239.006-.466,0-.712Z" transform="translate(-133.255 -56.139)" fill="#fafafa"/>
        <path id="Trazado_109377" data-name="Trazado 109377" d="M214.724,84.743c.155-.091.272-.091.356,0a.6.6,0,0,1,.168.3l2.588,9.891a.88.88,0,0,1,.052.246.745.745,0,0,1-.078.323.485.485,0,0,1-.181.22l-1.481.854q-.233.136-.33.039a.414.414,0,0,1-.123-.226l-.33-1.294-3.118,1.8-.33,1.688a1.164,1.164,0,0,1-.123.369.8.8,0,0,1-.33.343l-1.475.854a.142.142,0,0,1-.188,0,.336.336,0,0,1-.071-.233,1.372,1.372,0,0,1,.045-.3l2.555-12.848a2.336,2.336,0,0,1,.168-.492.88.88,0,0,1,.356-.408Zm-1.9,8.979,1.9-1.074-.938-3.8Z" transform="translate(-137.408 -53.465)" fill="#fafafa"/>
        <path id="Trazado_109378" data-name="Trazado 109378" d="M226.316,89.45a.88.88,0,0,1-.091.395.543.543,0,0,1-.226.272L224.466,91a.168.168,0,0,1-.22,0,.388.388,0,0,1-.1-.291V86.856l-2.7-6.107a.459.459,0,0,1-.045-.207.731.731,0,0,1,.071-.323.53.53,0,0,1,.181-.22l1.611-.925c.155-.091.272-.1.349,0a.589.589,0,0,1,.142.188l1.475,3.59,1.488-5.3a1.942,1.942,0,0,1,.142-.356.867.867,0,0,1,.349-.382l1.6-.925a.136.136,0,0,1,.181,0,.3.3,0,0,1,.078.233.84.84,0,0,1-.045.259L226.316,85.6Z" transform="translate(-141.529 -50.351)" fill="#fafafa"/>
      </g>
    </g>
    <g id="freepik--Cart--inject-250" transform="translate(34.453 108.232)">
      <g id="freepik--shopping-cart--inject-250">
        <path id="Trazado_109379" data-name="Trazado 109379" d="M161.877,403.367a9,9,0,0,0-4.477-6.831,2.728,2.728,0,0,0-3-.045h0l-2.665,1.727,6.411,9.607,2.639-1.721h0A2.852,2.852,0,0,0,161.877,403.367Z" transform="translate(-83.215 -235.218)" fill="#455a64"/>
        <path id="Trazado_109380" data-name="Trazado 109380" d="M154.065,399.331a9,9,0,0,1,4.477,6.831c.149,2.588-1.617,3.759-3.94,2.588a9.011,9.011,0,0,1-4.477-6.831C149.976,399.318,151.742,398.16,154.065,399.331Z" transform="translate(-82.642 -236.209)" fill="#37474f"/>
        <path id="Trazado_109381" data-name="Trazado 109381" d="M154.428,405.062c-.058-1.016.537-1.52,1.294-1.126a3.325,3.325,0,0,1,1.533,2.588c.058,1.016-.537,1.52-1.294,1.119A3.3,3.3,0,0,1,154.428,405.062Z" transform="translate(-84.163 -237.949)" fill="#263238"/>
        <path id="Trazado_109382" data-name="Trazado 109382" d="M161.36,393.25s.446,4.14-1.682,5.913c-.4.33-.835.569-1.08.8-.537.5-.116,1.352.6,1.682,1.029.479,6.21-.828,8.267-5.382Z" transform="translate(-85.551 -234.223)" fill="#d9a171"/>
        <path id="Trazado_109383" data-name="Trazado 109383" d="M161.36,393.25s.446,4.14-1.682,5.913c-.4.33-.835.569-1.08.8-.537.5-.116,1.352.6,1.682,1.029.479,6.21-.828,8.267-5.382Z" transform="translate(-85.551 -234.223)" fill="#fff" opacity="0.3"/>
        <path id="Trazado_109384" data-name="Trazado 109384" d="M158.331,394.63s.265,4.58-1.863,6.353c-.4.33-.834.576-1.08.809-.537.5-.116,1.346.589,1.675,1.035.479,6.4-1.294,8.455-5.822Z" transform="translate(-84.417 -234.71)" fill="#d9a171"/>
        <path id="Trazado_109385" data-name="Trazado 109385" d="M158.331,394.63s.265,4.58-1.863,6.353c-.4.33-.834.576-1.08.809-.537.5-.116,1.346.589,1.675,1.035.479,6.4-1.294,8.455-5.822Z" transform="translate(-84.417 -234.71)" fill="#fff" opacity="0.7"/>
        <path id="Trazado_109386" data-name="Trazado 109386" d="M156.392,406.138a.88.88,0,0,1,.427.647c0,.252-.155.362-.382.252a.88.88,0,0,1-.427-.647C156,406.138,156.165,406.035,156.392,406.138Z" transform="translate(-84.723 -238.76)" fill="#263238"/>
        <path id="Trazado_109387" data-name="Trazado 109387" d="M108.587,377.153a9,9,0,0,0-4.477-6.831,2.793,2.793,0,0,0-3-.045h0L98.45,372l6.411,9.594,2.639-1.721h0A2.816,2.816,0,0,0,108.587,377.153Z" transform="translate(-64.399 -225.967)" fill="#455a64"/>
        <path id="Trazado_109388" data-name="Trazado 109388" d="M100.775,373.111a9.011,9.011,0,0,1,4.477,6.831c.149,2.588-1.617,3.759-3.94,2.588a9,9,0,0,1-4.477-6.831C96.686,373.1,98.452,371.94,100.775,373.111Z" transform="translate(-63.826 -226.951)" fill="#37474f"/>
        <path id="Trazado_109389" data-name="Trazado 109389" d="M101.138,378.844c-.058-1.016.537-1.52,1.294-1.119a3.3,3.3,0,0,1,1.533,2.555c.058,1.016-.537,1.52-1.294,1.126a3.325,3.325,0,0,1-1.533-2.562Z" transform="translate(-65.347 -228.692)" fill="#263238"/>
        <path id="Trazado_109390" data-name="Trazado 109390" d="M108.02,367s.446,4.14-1.682,5.913c-.4.336-.828.576-1.08.809-.537.5-.116,1.346.6,1.675,1.029.479,6.21-.828,8.267-5.382Z" transform="translate(-66.717 -224.954)" fill="#d9a171"/>
        <path id="Trazado_109391" data-name="Trazado 109391" d="M108.02,367s.446,4.14-1.682,5.913c-.4.336-.828.576-1.08.809-.537.5-.116,1.346.6,1.675,1.029.479,6.21-.828,8.267-5.382Z" transform="translate(-66.717 -224.954)" fill="#fff" opacity="0.3"/>
        <path id="Trazado_109392" data-name="Trazado 109392" d="M105.041,368.41s.265,4.58-1.863,6.353c-.4.336-.835.576-1.08.809-.537.5-.116,1.346.6,1.675,1.029.479,6.391-1.294,8.449-5.822Z" transform="translate(-65.601 -225.452)" fill="#d9a171"/>
        <path id="Trazado_109393" data-name="Trazado 109393" d="M105.041,368.41s.265,4.58-1.863,6.353c-.4.336-.835.576-1.08.809-.537.5-.116,1.346.6,1.675,1.029.479,6.391-1.294,8.449-5.822Z" transform="translate(-65.601 -225.452)" fill="#fff" opacity="0.7"/>
        <path id="Trazado_109394" data-name="Trazado 109394" d="M103.1,379.917a.88.88,0,0,1,.427.647c0,.246-.155.356-.382.246a.88.88,0,0,1-.427-.647A.243.243,0,0,1,103.1,379.917Z" transform="translate(-65.906 -229.5)" fill="#263238"/>
        <path id="Trazado_109395" data-name="Trazado 109395" d="M168.007,342.853a9.057,9.057,0,0,0-4.477-6.831,2.8,2.8,0,0,0-3-.045h0L157.87,337.7l6.411,9.607,2.633-1.721h0A2.854,2.854,0,0,0,168.007,342.853Z" transform="translate(-85.38 -213.856)" fill="#455a64"/>
        <path id="Trazado_109396" data-name="Trazado 109396" d="M160.191,338.808a9.057,9.057,0,0,1,4.477,6.831c.142,2.588-1.624,3.759-3.946,2.588a9.057,9.057,0,0,1-4.477-6.838C156.083,338.77,157.862,337.638,160.191,338.808Z" transform="translate(-84.802 -214.837)" fill="#37474f"/>
        <path id="Trazado_109397" data-name="Trazado 109397" d="M160.558,344.542c-.058-1.016.53-1.52,1.294-1.126A3.319,3.319,0,0,1,163.378,346c.058,1.016-.53,1.52-1.294,1.119A3.28,3.28,0,0,1,160.558,344.542Z" transform="translate(-86.327 -216.58)" fill="#263238"/>
        <path id="Trazado_109398" data-name="Trazado 109398" d="M167.948,331.8s-.071,4.742-2.193,6.514c-.4.33-.835.569-1.087.8-.537.5-.11,1.352.6,1.682,1.029.479,6.133-.647,8.19-5.24Z" transform="translate(-87.695 -212.525)" fill="#d9a171"/>
        <path id="Trazado_109399" data-name="Trazado 109399" d="M167.948,331.8s-.071,4.742-2.193,6.514c-.4.33-.835.569-1.087.8-.537.5-.11,1.352.6,1.682,1.029.479,6.133-.647,8.19-5.24Z" transform="translate(-87.695 -212.525)" fill="#fff" opacity="0.3"/>
        <path id="Trazado_109400" data-name="Trazado 109400" d="M164.985,332.86s-.239,5.389-2.361,7.161c-.4.33-.835.569-1.087.8-.537.5-.116,1.352.6,1.682,1.029.479,6.391-1.294,8.449-5.822Z" transform="translate(-86.589 -212.9)" fill="#d9a171"/>
        <path id="Trazado_109401" data-name="Trazado 109401" d="M164.985,332.86s-.239,5.389-2.361,7.161c-.4.33-.835.569-1.087.8-.537.5-.116,1.352.6,1.682,1.029.479,6.391-1.294,8.449-5.822Z" transform="translate(-86.589 -212.9)" fill="#fff" opacity="0.7"/>
        <path id="Trazado_109402" data-name="Trazado 109402" d="M162.511,345.617a.867.867,0,0,1,.427.647c0,.252-.155.362-.375.252a.886.886,0,0,1-.433-.647C162.117,345.617,162.285,345.507,162.511,345.617Z" transform="translate(-86.884 -217.389)" fill="#263238"/>
        <path id="Trazado_109403" data-name="Trazado 109403" d="M213.907,374.134a9.057,9.057,0,0,0-4.477-6.831,2.788,2.788,0,0,0-3-.039h0l-2.659,1.721,6.411,9.607,2.633-1.721h0A2.855,2.855,0,0,0,213.907,374.134Z" transform="translate(-101.587 -224.901)" fill="#455a64"/>
        <path id="Trazado_109404" data-name="Trazado 109404" d="M206.092,370.091a9.057,9.057,0,0,1,4.477,6.838c.149,2.588-1.617,3.752-3.946,2.588a9.057,9.057,0,0,1-4.477-6.831C202,370.078,203.769,368.92,206.092,370.091Z" transform="translate(-101.01 -225.884)" fill="#37474f"/>
        <path id="Trazado_109405" data-name="Trazado 109405" d="M206.458,375.824c-.058-1.016.53-1.52,1.294-1.119a3.28,3.28,0,0,1,1.527,2.588c.058,1.022-.531,1.52-1.294,1.126A3.319,3.319,0,0,1,206.458,375.824Z" transform="translate(-102.534 -227.626)" fill="#263238"/>
        <path id="Trazado_109406" data-name="Trazado 109406" d="M213.855,363.09s-.078,4.735-2.2,6.508c-.4.336-.835.576-1.08.809-.543.5-.116,1.346.589,1.675,1.029.479,6.133-.679,8.19-5.233Z" transform="translate(-103.903 -223.574)" fill="#d9a171"/>
        <path id="Trazado_109407" data-name="Trazado 109407" d="M213.855,363.09s-.078,4.735-2.2,6.508c-.4.336-.835.576-1.08.809-.543.5-.116,1.346.589,1.675,1.029.479,6.133-.679,8.19-5.233Z" transform="translate(-103.903 -223.574)" fill="#fff" opacity="0.3"/>
        <path id="Trazado_109408" data-name="Trazado 109408" d="M210.857,364.15s-.239,5.382-2.361,7.155c-.4.336-.834.576-1.08.809-.543.5-.116,1.346.589,1.676,1.029.479,6.391-1.294,8.449-5.822Z" transform="translate(-102.787 -223.948)" fill="#d9a171"/>
        <path id="Trazado_109409" data-name="Trazado 109409" d="M210.857,364.15s-.239,5.382-2.361,7.155c-.4.336-.834.576-1.08.809-.543.5-.116,1.346.589,1.676,1.029.479,6.391-1.294,8.449-5.822Z" transform="translate(-102.787 -223.948)" fill="#fff" opacity="0.7"/>
        <path id="Trazado_109410" data-name="Trazado 109410" d="M208.414,376.9a.886.886,0,0,1,.433.647c0,.246-.155.362-.382.246a.867.867,0,0,1-.427-.647C208.013,376.9,208.194,376.787,208.414,376.9Z" transform="translate(-103.093 -228.434)" fill="#263238"/>
        <path id="Trazado_109411" data-name="Trazado 109411" d="M184.043,357.441a.942.942,0,0,0-.045-.123h0c0-.039-.065-.071-.1-.11a1.1,1.1,0,0,0-.123-.123h0l-55.194-37.618-.11-.045a.786.786,0,0,0-.155-.065.709.709,0,0,0-.162,0,1.153,1.153,0,0,0-.149,0,.575.575,0,0,0-.168.058.376.376,0,0,0-.11.039L86.386,343.261a.834.834,0,0,0,.052,1.423l64.969,31.97.1.039h.058a1,1,0,0,0,.194,0h0a.816.816,0,0,0,.226.006h.071l.123-.052,31.5-18.223h0a.648.648,0,0,0,.188-.162l.039-.045h0a.109.109,0,0,1,.045-.1.827.827,0,0,0,.071-.175.956.956,0,0,0,0-.136.493.493,0,0,0,0-.168,1.4,1.4,0,0,0,.013-.194ZM151.7,375.011,88.508,343.9l39.545-22.836,53.693,36.609Z" transform="translate(-60.007 -208.13)" fill="#455a64"/>
        <path id="Trazado_109412" data-name="Trazado 109412" d="M83.449,344.337a.809.809,0,0,1-.789-.615l-5.913-23.89a.81.81,0,0,1,1.572-.388l5.913,23.9a.809.809,0,0,1-.589.977Z" transform="translate(-56.727 -207.945)" fill="#455a64"/>
        <path id="Trazado_109413" data-name="Trazado 109413" d="M147.782,307.453a.815.815,0,0,1-.789-.647l-5.253-24.537a.817.817,0,1,1,1.6-.311L148.6,306.5a.815.815,0,0,1-.8.977Z" transform="translate(-79.678 -194.692)" fill="#455a64"/>
        <path id="Trazado_109414" data-name="Trazado 109414" d="M77.98,306.828l70.946,34.894,31.537-18.2L120.023,282.55Z" transform="translate(-57.171 -195.136)" fill="#d9a171"/>
        <path id="Trazado_109415" data-name="Trazado 109415" d="M77.98,306.828l70.946,34.894,31.537-18.2L120.023,282.55Z" transform="translate(-57.171 -195.136)" fill="#fff" opacity="0.3"/>
        <path id="Trazado_109416" data-name="Trazado 109416" d="M177.6,332.872l-11.644-7.077,10.034-5.822a.809.809,0,0,0-.809-1.4l-10.8,6.23-11.217-6.825,10.732-6.2a.81.81,0,0,0-.809-1.4l-11.5,6.637-11.217-6.825,11.476-6.553a.809.809,0,0,0-.809-1.4l-12.2,7.045-11.217-6.831,12.136-7.006a.81.81,0,0,0-.809-1.4l-12.9,7.452-12.369-7.562a.812.812,0,1,0-.847,1.384l11.644,7.077-11.735,6.78-13.093-7.168a.811.811,0,1,0-.776,1.423l12.181,6.676L99,317.081a.809.809,0,0,0,.4,1.514.854.854,0,0,0,.408-.11l12.938-7.459,11.825,6.469-11.366,6.56a.809.809,0,0,0,.408,1.507.822.822,0,0,0,.4-.1l12.22-7.058,11.832,6.469L127.4,331.028a.809.809,0,0,0,.4,1.507.788.788,0,0,0,.408-.11l11.515-6.65,11.832,6.469L141.582,338a.809.809,0,0,0,.408,1.507.75.75,0,0,0,.4-.11l10.816-6.243,13.093,7.161a.776.776,0,0,0,.388.1A.822.822,0,0,0,167.4,340a.809.809,0,0,0-.323-1.1l-12.227-6.7,9.548-5.512,12.382,7.536a.776.776,0,0,0,.421.123.792.792,0,0,0,.4-1.481Zm-51.41-16.3-11.858-6.469,11.644-6.728,11.211,6.831Zm13.488,7.388L127.854,317.5l10.952-6.327L150.017,318Zm13.469,7.355-11.825-6.469,10.247-5.919,11.217,6.831Z" transform="translate(-64.401 -199.113)" fill="#d9a171"/>
        <path id="Trazado_109417" data-name="Trazado 109417" d="M177.6,332.872l-11.644-7.077,10.034-5.822a.809.809,0,0,0-.809-1.4l-10.8,6.23-11.217-6.825,10.732-6.2a.81.81,0,0,0-.809-1.4l-11.5,6.637-11.217-6.825,11.476-6.553a.809.809,0,0,0-.809-1.4l-12.2,7.045-11.217-6.831,12.136-7.006a.81.81,0,0,0-.809-1.4l-12.9,7.452-12.369-7.562a.812.812,0,1,0-.847,1.384l11.644,7.077-11.735,6.78-13.093-7.168a.811.811,0,1,0-.776,1.423l12.181,6.676L99,317.081a.809.809,0,0,0,.4,1.514.854.854,0,0,0,.408-.11l12.938-7.459,11.825,6.469-11.366,6.56a.809.809,0,0,0,.408,1.507.822.822,0,0,0,.4-.1l12.22-7.058,11.832,6.469L127.4,331.028a.809.809,0,0,0,.4,1.507.788.788,0,0,0,.408-.11l11.515-6.65,11.832,6.469L141.582,338a.809.809,0,0,0,.408,1.507.75.75,0,0,0,.4-.11l10.816-6.243,13.093,7.161a.776.776,0,0,0,.388.1A.822.822,0,0,0,167.4,340a.809.809,0,0,0-.323-1.1l-12.227-6.7,9.548-5.512,12.382,7.536a.776.776,0,0,0,.421.123.792.792,0,0,0,.4-1.481Zm-51.41-16.3-11.858-6.469,11.644-6.728,11.211,6.831Zm13.488,7.388L127.854,317.5l10.952-6.327L150.017,318Zm13.469,7.355-11.825-6.469,10.247-5.919,11.217,6.831Z" transform="translate(-64.401 -199.113)" fill="#fff" opacity="0.7"/>
        <path id="Trazado_109418" data-name="Trazado 109418" d="M114.542,258.531a.809.809,0,0,0-1.106-.3l-13.08,7.556-3.1-12.524,13.488-7.763a.81.81,0,1,0-.809-1.4l-13.087,7.53L93.75,239.1l13.488-7.763a.81.81,0,1,0-.809-1.4l-13.08,7.556-3.1-12.556,13.488-7.763a.81.81,0,1,0-.809-1.4L60.881,240.049a.809.809,0,0,0,.4,1.507.835.835,0,0,0,.408-.11l13.08-7.556,3.1,12.531-13.488,7.763a.809.809,0,0,0,.408,1.507.77.77,0,0,0,.4-.11l13.093-7.549,3.1,12.531-13.488,7.763a.808.808,0,0,0,.4,1.507.854.854,0,0,0,.408-.11l13.08-7.556,3.1,12.582-13.488,7.763a.815.815,0,0,0-.3,1.106.8.8,0,0,0,1.106.3l42.049-24.272a.809.809,0,0,0,.291-1.113Zm-38.3-25.5,12.55-7.245,3.079,12.524-12.55,7.252Zm3.5,14.161,12.556-7.245,3.1,12.524-12.582,7.252Zm6.6,26.691-3.1-12.531L95.8,254.107l3.1,12.524Z" transform="translate(-50.992 -171.518)" fill="#d9a171"/>
        <path id="Trazado_109419" data-name="Trazado 109419" d="M187.937,292a.123.123,0,0,0,0-.045l2.639-34.888a.524.524,0,0,0,0-.1.759.759,0,0,0,0-.168.646.646,0,0,0-.058-.142.531.531,0,0,0-.078-.129.5.5,0,0,0-.116-.116.845.845,0,0,0-.071-.078L116.9,207.947l-1.171-4.839a16.05,16.05,0,0,0-6.592-8.759l-1.346-.776a4.528,4.528,0,0,0-4.166,0L97.357,197.2a.809.809,0,1,0,.809,1.4l6.243-3.629a2.9,2.9,0,0,1,2.588,0l1.339.776a14.394,14.394,0,0,1,5.822,7.763l1.21,4.9a.809.809,0,0,0,.11.44l10.473,42.314a.828.828,0,0,0,.091.22v.032h0a.354.354,0,0,1,.052.065.94.94,0,0,0,.142.136h0l60.434,40.962h.058l.078.039a.874.874,0,0,0,.213.058h.11a.951.951,0,0,0,.265-.045h.058a.88.88,0,0,0,.22-.136h0a.6.6,0,0,0,.1-.116.265.265,0,0,0,0-.052.466.466,0,0,0,.065-.155A.511.511,0,0,0,187.937,292Zm-39.52-49.294,12.02,8,.737,10.6-11.289-7.575Zm-.343,9.833-11.2-7.511-2.2-11.424,11.948,7.938Zm14.044-.686,12.11,8.054V270.07l-11.373-7.627Zm-.142-2.038-.731-10.616,12.983,8.572V257.96Zm-1.675-1.158-12.168-8.086-1.468-11,12.9,8.513Zm-13.96-9.283-12.071-8.028-2.2-11.437,12.8,8.449Zm-13.96-9.283-11.974-7.957-2.931-11.845,12.705,8.41Zm.427,2.225,2.2,11.418-11.094-7.439-2.93-11.838Zm2.626,13.656,2.2,11.4-10.215-6.922-2.93-11.825Zm1.9,1.294,11.049,7.414,1.462,11-10.318-6.993Zm12.841,8.617,11.146,7.478.731,10.59-10.409-7.058Zm12.848,8.617,11.23,7.543v10.176l-10.5-7.116Zm12.873,8.6,11.314,7.595-.737,9.768L175.891,283.3Zm0-1.941V260.948l12.188,8.106-.731,9.775Zm0-12.155V248.819l13.068,8.617-.776,9.781Z" transform="translate(-63.856 -163.539)" fill="#d9a171"/>
        <path id="Trazado_109420" data-name="Trazado 109420" d="M187.937,292a.123.123,0,0,0,0-.045l2.639-34.888a.524.524,0,0,0,0-.1.759.759,0,0,0,0-.168.646.646,0,0,0-.058-.142.531.531,0,0,0-.078-.129.5.5,0,0,0-.116-.116.845.845,0,0,0-.071-.078L116.9,207.947l-1.171-4.839a16.05,16.05,0,0,0-6.592-8.759l-1.346-.776a4.528,4.528,0,0,0-4.166,0L97.357,197.2a.809.809,0,1,0,.809,1.4l6.243-3.629a2.9,2.9,0,0,1,2.588,0l1.339.776a14.394,14.394,0,0,1,5.822,7.763l1.21,4.9a.809.809,0,0,0,.11.44l10.473,42.314a.828.828,0,0,0,.091.22v.032h0a.354.354,0,0,1,.052.065.94.94,0,0,0,.142.136h0l60.434,40.962h.058l.078.039a.874.874,0,0,0,.213.058h.11a.951.951,0,0,0,.265-.045h.058a.88.88,0,0,0,.22-.136h0a.6.6,0,0,0,.1-.116.265.265,0,0,0,0-.052.466.466,0,0,0,.065-.155A.511.511,0,0,0,187.937,292Zm-39.52-49.294,12.02,8,.737,10.6-11.289-7.575Zm-.343,9.833-11.2-7.511-2.2-11.424,11.948,7.938Zm14.044-.686,12.11,8.054V270.07l-11.373-7.627Zm-.142-2.038-.731-10.616,12.983,8.572V257.96Zm-1.675-1.158-12.168-8.086-1.468-11,12.9,8.513Zm-13.96-9.283-12.071-8.028-2.2-11.437,12.8,8.449Zm-13.96-9.283-11.974-7.957-2.931-11.845,12.705,8.41Zm.427,2.225,2.2,11.418-11.094-7.439-2.93-11.838Zm2.626,13.656,2.2,11.4-10.215-6.922-2.93-11.825Zm1.9,1.294,11.049,7.414,1.462,11-10.318-6.993Zm12.841,8.617,11.146,7.478.731,10.59-10.409-7.058Zm12.848,8.617,11.23,7.543v10.176l-10.5-7.116Zm12.873,8.6,11.314,7.595-.737,9.768L175.891,283.3Zm0-1.941V260.948l12.188,8.106-.731,9.775Zm0-12.155V248.819l13.068,8.617-.776,9.781Z" transform="translate(-63.856 -163.539)" opacity="0.15"/>
        <path id="Trazado_109421" data-name="Trazado 109421" d="M58.263,216.163l-2.633-4.528,27.6-15.933h0a1.236,1.236,0,0,1,1.417.052,4.108,4.108,0,0,1,1.857,3.235,1.236,1.236,0,0,1-.647,1.255h0Z" transform="translate(-49.28 -164.4)" fill="#d9a171"/>
        <path id="Trazado_109422" data-name="Trazado 109422" d="M58.263,216.163l-2.633-4.528,27.6-15.933h0a1.236,1.236,0,0,1,1.417.052,4.108,4.108,0,0,1,1.857,3.235,1.236,1.236,0,0,1-.647,1.255h0Z" transform="translate(-49.28 -164.4)" opacity="0.25"/>
        <path id="Trazado_109423" data-name="Trazado 109423" d="M55.355,220.339c.692-.395,1.844.3,2.588,1.559s.757,2.588.065,3-1.844-.3-2.588-1.553S54.669,220.728,55.355,220.339Z" transform="translate(-49.004 -173.13)" fill="#d9a171"/>
        <g id="freepik----inject-250" transform="translate(21.507)">
          <path id="Trazado_109424" data-name="Trazado 109424" d="M106.26,149.376c-3.953-2.277-7.181-2.419-9.7-.964-1.837,1.054-8.8,5.091-10.512,6.074-4.69,2.691-6.974,10.868-6.974,21.128,0,15.8,5.253,32.19,16.684,38.814,4.127,2.381,7.446,2.588,9.995,1.113,1.837-1.054,8.824-5.1,10.538-6.087,4.528-2.626,6.663-10.512,6.663-20.617C122.943,173.04,117.684,155.974,106.26,149.376Z" transform="translate(-79.064 -147.437)" fill="#263238"/>
          <path id="Trazado_109425" data-name="Trazado 109425" d="M120.1,163.969c-2.73-6.333-6.683-11.593-11.948-14.633-3.953-2.277-7.181-2.419-9.7-.964-1.837,1.054-8.8,5.091-10.512,6.074a9.969,9.969,0,0,0-3.513,3.733l22.855,13.2Z" transform="translate(-80.953 -147.423)" fill="#37474f"/>
          <path id="Trazado_109426" data-name="Trazado 109426" d="M95.744,217.7c-11.431-6.6-16.684-22.991-16.684-38.814s5.421-26.672,16.684-20.171c11.431,6.6,16.684,23.638,16.684,39.461S107.259,224.342,95.744,217.7Z" transform="translate(-79.06 -150.732)" fill="#455a64"/>
          <path id="Trazado_109427" data-name="Trazado 109427" d="M101.8,183.28c-3.506-2.025-5.589.5-5.589,11.159,0,10.014,2.167,14.879,5.589,16.82s5.589-.11,5.589-10.351C107.389,190.487,105.467,185.4,101.8,183.28Z" transform="translate(-85.116 -159.858)" fill="#263238"/>
          <path id="Trazado_109428" data-name="Trazado 109428" d="M160.293,178.19l-10.758-6.21-10.512,6.068L114.33,270.4l10.842,6.262,10.512-6.068Z" transform="translate(-91.514 -156.094)" fill="#37474f"/>
          <path id="Trazado_109429" data-name="Trazado 109429" d="M149.787,187.577l-24.615,92.4-10.842-6.262,24.692-92.353Z" transform="translate(-91.514 -159.406)" fill="#455a64"/>
          <path id="Trazado_109430" data-name="Trazado 109430" d="M166.211,181.58,155.7,187.654l-24.615,92.4,10.512-6.068Z" transform="translate(-97.431 -159.484)" fill="#263238"/>
          <path id="Trazado_109431" data-name="Trazado 109431" d="M182.02,253.516c-3.946-2.277-7.174-2.419-9.7-.964-1.837,1.054-8.8,5.091-10.512,6.074-4.69,2.691-6.974,10.868-6.974,21.128,0,15.8,5.253,32.19,16.684,38.815,4.127,2.381,7.439,2.588,9.995,1.113l10.538-6.087c4.528-2.626,6.663-10.512,6.663-20.617C198.71,277.154,193.45,260.114,182.02,253.516Z" transform="translate(-105.814 -184.209)" fill="#263238"/>
          <path id="Trazado_109432" data-name="Trazado 109432" d="M195.86,268.149c-2.736-6.333-6.689-11.593-11.955-14.633-3.946-2.277-7.174-2.419-9.7-.964-1.837,1.054-8.8,5.091-10.512,6.074a9.982,9.982,0,0,0-3.519,3.733l22.862,13.2Z" transform="translate(-107.699 -184.209)" fill="#37474f"/>
          <path id="Trazado_109433" data-name="Trazado 109433" d="M171.514,321.838c-11.431-6.6-16.684-22.991-16.684-38.814s5.421-26.672,16.684-20.171c11.424,6.6,16.684,23.638,16.684,39.461S183.022,328.482,171.514,321.838Z" transform="translate(-105.814 -187.504)" fill="#455a64"/>
          <path id="Trazado_109434" data-name="Trazado 109434" d="M177.569,287.42c-3.506-2.025-5.589.5-5.589,11.159,0,10.021,2.167,14.879,5.589,16.82s5.589-.11,5.589-10.383C183.159,294.627,181.237,289.542,177.569,287.42Z" transform="translate(-111.869 -196.629)" fill="#263238"/>
        </g>
        <path id="Trazado_109435" data-name="Trazado 109435" d="M141.03,285.887a.872.872,0,0,0-.039-.317.76.76,0,0,0-.071-.123.517.517,0,0,0-.084-.142.744.744,0,0,0-.246-.2h0l-.395-.194h0L102.92,266.072,56.835,242.784l-1.2-4.807a16.043,16.043,0,0,0-6.586-8.753l-1.346-.776c-.233-.136-.285-.246-.291-.272s.058-.136.291-.265l5.874-3.4h0c.213-.123.207-.537,0-.925s-.576-.6-.789-.479l-5.88,3.4a1.818,1.818,0,0,0,0,3.338l1.346.783a14.407,14.407,0,0,1,5.822,7.763l1.294,5.1v.065h0l9.969,40.5L65.827,286h0v.032a.3.3,0,0,0,.045.1.649.649,0,0,0,.078.149.065.065,0,0,0,0,.032.488.488,0,0,0,.058.058.7.7,0,0,0,.155.116.18.18,0,0,0,.052.039l71,34.92a.705.705,0,0,0,.272.071h.162a1.086,1.086,0,0,0,.142,0h.129l.11-.078.052-.052a.646.646,0,0,0,.162-.213h0a.88.88,0,0,0,.078-.291h0l.873-11.644h0l.88-11.644h0l.873-11.644Zm-18.43-8.06v10.35l-14.361-7.194-.744-10.765ZM107.39,292.77l-13.4-6.67-1.481-11.2,14.167,7.116Zm-1.624-23.418.75,10.765-14.3-7.161-1.494-11.2Zm-13.54,15.882-13.3-6.631-2.245-11.644,14.1,7.064Zm-3.235-24.369,1.494,11.217-14.232-7.116L74.01,253.322Zm-31.7-16,14.879,7.517,2.245,11.644-14.135-7.116Zm3.519,14.154,14.012,7.019,2.245,11.644-13.255-6.573Zm6.469,26.245-2.989-12.1L77.464,279.7l2.245,11.644Zm14.232,6.98L79.269,280.6l13.242,6.566,1.494,11.224Zm14.232,6.993-1.494-11.217,13.287,6.6.744,10.777Zm12.6-16.418,14.232,7.116v10.351L109.092,293.6Zm1.637,23.424-.757-10.765,13.352,6.631v10.351Zm26.885,13.223-12.654-6.23v-10.35l13.41,6.663Zm.88-11.644L124.21,301.1v-10.35l14.284,7.161Zm.873-11.644-14.407-7.213V278.661l15.157,7.659Z" transform="translate(-45.813 -174.136)" fill="#d9a171"/>
        <path id="Trazado_109436" data-name="Trazado 109436" d="M141.03,285.887a.872.872,0,0,0-.039-.317.76.76,0,0,0-.071-.123.517.517,0,0,0-.084-.142.744.744,0,0,0-.246-.2h0l-.395-.194h0L102.92,266.072,56.835,242.784l-1.2-4.807a16.043,16.043,0,0,0-6.586-8.753l-1.346-.776c-.233-.136-.285-.246-.291-.272s.058-.136.291-.265l5.874-3.4h0c.213-.123.207-.537,0-.925s-.576-.6-.789-.479l-5.88,3.4a1.818,1.818,0,0,0,0,3.338l1.346.783a14.407,14.407,0,0,1,5.822,7.763l1.294,5.1v.065h0l9.969,40.5L65.827,286h0v.032a.3.3,0,0,0,.045.1.649.649,0,0,0,.078.149.065.065,0,0,0,0,.032.488.488,0,0,0,.058.058.7.7,0,0,0,.155.116.18.18,0,0,0,.052.039l71,34.92a.705.705,0,0,0,.272.071h.162a1.086,1.086,0,0,0,.142,0h.129l.11-.078.052-.052a.646.646,0,0,0,.162-.213h0a.88.88,0,0,0,.078-.291h0l.873-11.644h0l.88-11.644h0l.873-11.644Zm-18.43-8.06v10.35l-14.361-7.194-.744-10.765ZM107.39,292.77l-13.4-6.67-1.481-11.2,14.167,7.116Zm-1.624-23.418.75,10.765-14.3-7.161-1.494-11.2Zm-13.54,15.882-13.3-6.631-2.245-11.644,14.1,7.064Zm-3.235-24.369,1.494,11.217-14.232-7.116L74.01,253.322Zm-31.7-16,14.879,7.517,2.245,11.644-14.135-7.116Zm3.519,14.154,14.012,7.019,2.245,11.644-13.255-6.573Zm6.469,26.245-2.989-12.1L77.464,279.7l2.245,11.644Zm14.232,6.98L79.269,280.6l13.242,6.566,1.494,11.224Zm14.232,6.993-1.494-11.217,13.287,6.6.744,10.777Zm12.6-16.418,14.232,7.116v10.351L109.092,293.6Zm1.637,23.424-.757-10.765,13.352,6.631v10.351Zm26.885,13.223-12.654-6.23v-10.35l13.41,6.663Zm.88-11.644L124.21,301.1v-10.35l14.284,7.161Zm.873-11.644-14.407-7.213V278.661l15.157,7.659Z" transform="translate(-45.813 -174.136)" fill="#fff" opacity="0.5"/>
        <path id="Trazado_109437" data-name="Trazado 109437" d="M222.179,291.487a.69.69,0,0,0,0-.162,1.006,1.006,0,0,0-.052-.149V291.1a.22.22,0,0,0-.052-.058.446.446,0,0,0-.1-.116.581.581,0,0,0-.123-.1l-.129-.065a.645.645,0,0,0-.162-.045.289.289,0,0,0-.071,0h-.078a.584.584,0,0,0-.149,0,.645.645,0,0,0-.188.065h-.052l-31.576,18.23-.045.045a.912.912,0,0,0-.226.226.953.953,0,0,0-.065.142.465.465,0,0,0-.045.162.187.187,0,0,0,0,.065l-2.626,34.894v.078a.647.647,0,0,0,0,.162,1.092,1.092,0,0,0,.052.155v.071l.065.091.039.052a.947.947,0,0,0,.22.168h.039a.784.784,0,0,0,.239.071h.1a.745.745,0,0,0,.265-.052h.142l31.55-18.217a.817.817,0,0,1,.065-.058.646.646,0,0,0,.123-.11.8.8,0,0,0,.091-.116.806.806,0,0,0,.1-.285.292.292,0,0,0,0-.071l2.659-34.94S222.179,291.545,222.179,291.487Zm-21.044,12.641,8.817-5.091-.731,9.7-8.837,5.065ZM190.623,310.2l8.817-5.065-.731,9.7-8.817,5.091Zm6.333,27.849-8.811,5.091.725-9.7,8.817-5.091Zm.88-11.644-8.817,5.091.731-9.7,8.811-5.091Zm9.665,5.576-8.817,5.091.731-9.7,8.817-5.091Zm.88-11.644-8.817,5.091.725-9.7,8.817-5.091Zm9.632,5.563-8.85,5.111.731-9.7,8.817-5.091Zm.873-11.644-8.843,5.111.725-9.7,8.817-5.091Zm.88-11.644-8.85,5.111.731-9.7,8.791-5.046Z" transform="translate(-95.465 -198.018)" fill="#d9a171"/>
        <path id="Trazado_109438" data-name="Trazado 109438" d="M222.179,291.487a.69.69,0,0,0,0-.162,1.006,1.006,0,0,0-.052-.149V291.1a.22.22,0,0,0-.052-.058.446.446,0,0,0-.1-.116.581.581,0,0,0-.123-.1l-.129-.065a.645.645,0,0,0-.162-.045.289.289,0,0,0-.071,0h-.078a.584.584,0,0,0-.149,0,.645.645,0,0,0-.188.065h-.052l-31.576,18.23-.045.045a.912.912,0,0,0-.226.226.953.953,0,0,0-.065.142.465.465,0,0,0-.045.162.187.187,0,0,0,0,.065l-2.626,34.894v.078a.647.647,0,0,0,0,.162,1.092,1.092,0,0,0,.052.155v.071l.065.091.039.052a.947.947,0,0,0,.22.168h.039a.784.784,0,0,0,.239.071h.1a.745.745,0,0,0,.265-.052h.142l31.55-18.217a.817.817,0,0,1,.065-.058.646.646,0,0,0,.123-.11.8.8,0,0,0,.091-.116.806.806,0,0,0,.1-.285.292.292,0,0,0,0-.071l2.659-34.94S222.179,291.545,222.179,291.487Zm-21.044,12.641,8.817-5.091-.731,9.7-8.837,5.065ZM190.623,310.2l8.817-5.065-.731,9.7-8.817,5.091Zm6.333,27.849-8.811,5.091.725-9.7,8.817-5.091Zm.88-11.644-8.817,5.091.731-9.7,8.811-5.091Zm9.665,5.576-8.817,5.091.731-9.7,8.817-5.091Zm.88-11.644-8.817,5.091.725-9.7,8.817-5.091Zm9.632,5.563-8.85,5.111.731-9.7,8.817-5.091Zm.873-11.644-8.843,5.111.725-9.7,8.817-5.091Zm.88-11.644-8.85,5.111.731-9.7,8.791-5.046Z" transform="translate(-95.465 -198.018)" fill="#fff" opacity="0.7"/>
      </g>
    </g>
    <g id="freepik--speech-bubble--inject-250" transform="translate(192.84 37.072)">
      <g id="freepik--speech-bubble--inject-250-2" data-name="freepik--speech-bubble--inject-250" transform="translate(0 0)">
        <g id="freepik--speech-bubble--inject-250-3" data-name="freepik--speech-bubble--inject-250">
          <path id="Trazado_109439" data-name="Trazado 109439" d="M312.319,87.838l-2.109-3.966,1.695-4.9V76l-5.175,3v3l2.232,3.881a.342.342,0,0,0,.155.136h0Z" transform="translate(-296.328 -51.044)" fill="#d9a171"/>
          <path id="Trazado_109440" data-name="Trazado 109440" d="M312.319,87.838l-2.109-3.966,1.695-4.9V76l-5.175,3v3l2.232,3.881a.342.342,0,0,0,.155.136h0Z" transform="translate(-296.328 -51.044)" opacity="0.3"/>
          <path id="Trazado_109441" data-name="Trazado 109441" d="M316.339,41.238a3.442,3.442,0,0,0-1.527-2.7l-1.294-.744a3.429,3.429,0,0,0-3.112,0L292.2,48.283a3.435,3.435,0,0,0-1.553,2.7V71.241a3.461,3.461,0,0,0,1.553,2.7l1.262.731a3.441,3.441,0,0,0,3.118,0l7.7-4.425,2.232,3.881a.33.33,0,0,0,.6-.058l2.355-6.793,5.337-3.079a3.441,3.441,0,0,0,1.559-2.7Z" transform="translate(-290.65 -37.423)" fill="#d9a171"/>
          <path id="Trazado_109442" data-name="Trazado 109442" d="M305.32,64.2a9.057,9.057,0,0,1,.744-3.48h0a6.087,6.087,0,0,1,2.219-2.84c1.52-.9,2.788.919,2.989,3.066.181-2.368,1.423-5.66,2.943-6.553a1.656,1.656,0,0,1,2.232.22h0a4,4,0,0,1,.763,2.588c0,3.623-2.161,6.909-3.985,10.351l-1.941,3.629-1.941-1.359C307.532,68.536,305.339,67.818,305.32,64.2Z" transform="translate(-295.83 -43.295)" fill="#fafafa"/>
          <path id="Trazado_109443" data-name="Trazado 109443" d="M290.65,77.8a3.461,3.461,0,0,0,1.553,2.7l1.262.731a3.487,3.487,0,0,0,2.846.123c-.731.278-1.294-.136-1.294-1.022V60.069a3.234,3.234,0,0,1,.453-1.54L291.1,56a3.234,3.234,0,0,0-.453,1.54Z" transform="translate(-290.65 -43.982)" opacity="0.3"/>
          <path id="Trazado_109444" data-name="Trazado 109444" d="M316.538,40.793c-.181-.647-.789-.867-1.507-.453l-18.2,10.473a3.073,3.073,0,0,0-1.093,1.164l-4.38-2.536a3.235,3.235,0,0,1,1.093-1.164L310.644,37.8a3.48,3.48,0,0,1,3.125,0l1.294.731A3.448,3.448,0,0,1,316.538,40.793Z" transform="translate(-290.901 -37.425)" fill="#fff" opacity="0.3"/>
        </g>
      </g>
    </g>
    <g id="freepik--Character--inject-250" transform="translate(172.893 61.837)">
      <g id="freepik--character--inject-250-2" data-name="freepik--character--inject-250">
        <g id="freepik--Arm--inject-250" transform="translate(0 58.102)">
          <path id="Trazado_109445" data-name="Trazado 109445" d="M279.381,244.735a4.256,4.256,0,0,0-2.141-.647,1.733,1.733,0,0,0-.647.039.582.582,0,0,0-.4.459,2.309,2.309,0,0,0-3.092.039l.99,1.708a7.356,7.356,0,0,0,3.163,1.481,3.552,3.552,0,0,0,1.669,0,1.792,1.792,0,0,0,1.223-1.074A1.85,1.85,0,0,0,279.381,244.735Z" transform="translate(-264.506 -193.235)" fill="#f28f8f"/>
          <path id="Trazado_109446" data-name="Trazado 109446" d="M285.585,165.52c-4.25,1.417-7.116,1.352-11.916,6.961-4.528,5.246-8.636,10.305-11.9,14.445-2.322,2.95-2.685,4.457-.5,8.2,1.811,3.118,10.706,14.95,11.521,15.765.42.42,0,2.374-.084,3.584s.421,2.335.291,3.28c-.239,1.863-.815,1.941-2.09.776-1.546-1.391-3-2.633-3.454-.886-.1.369,2.82,3.564,3.416,4.25,1.035,1.184,3.435,1.016,5.867,0s4.464-2.717,4.781-5.175.744-5.382-1-8.054c-2.051-3.157-8.539-16.936-8.539-16.936l11.929-11.418Z" transform="translate(-259.816 -165.52)" fill="#ffa8a7"/>
          <path id="Trazado_109447" data-name="Trazado 109447" d="M284,165.52c-3.066.8-3.2.647-8.682,6.721a148.144,148.144,0,0,0-10.124,12.776,10.874,10.874,0,0,1,6.171,2.07c3.293,2.232,3.429,3.778,3.429,3.778l12.447-10.719Z" transform="translate(-261.713 -165.52)" fill="#6595bf"/>
        </g>
        <g id="freepik--Bottom--inject-250" transform="translate(2.617 93.255)">
          <path id="Trazado_109448" data-name="Trazado 109448" d="M284.277,364.487c-.175-2.588-1.734-28.587-1.734-28.587l12.757,9.361c-2.031,14.879-2.833,18.87-2.911,21.348h0a2.128,2.128,0,0,1,.065.647c-.039,2.943-3.467,4.5-6.152,6.437a50.013,50.013,0,0,1-7.245,4.528c-1.941.932-5.868.977-6.346-.246,3.267-2.374,7.038-4.968,9.645-7.7C283.6,368.957,284.49,367.585,284.277,364.487Z" transform="translate(-266.986 -260.833)" fill="#ffa8a7"/>
          <path id="Trazado_109449" data-name="Trazado 109449" d="M264.035,402.221a2.46,2.46,0,0,0,.459,2.549,11.33,11.33,0,0,0,8.112,1.889,14.463,14.463,0,0,0,7.873-2.956c1.65-1.294,3.914-3.138,5.745-3.506a11.275,11.275,0,0,0,4.1-1.585c.55-.5.5-2.782.5-2.782Z" transform="translate(-263.861 -281.994)" fill="#263238"/>
          <path id="Trazado_109450" data-name="Trazado 109450" d="M289.307,382.26a.647.647,0,0,1,.6.537c.123.647.233,2.452.492,3.48a18.01,18.01,0,0,1,.343,5.531c-.239,1.164-3.008,1.941-4.787,2.588a22.645,22.645,0,0,0-5.764,3.467,16.478,16.478,0,0,1-8.552,3c-3.112-.052-6.611-1.074-7.4-2.491-.977-1.753-.181-2.749,4.457-4.787.873-.388,3.966-2.128,5.02-2.762,2.846-1.708,5.673-4.095,7.012-7.155a1.688,1.688,0,0,1,.647-.932,1.468,1.468,0,0,1,.9-.071,7.626,7.626,0,0,1,2.212.679c.647.291,1.494.647,1.468,1.41a2.381,2.381,0,0,1-.181.783c-.052.155-.1.369.039.466s.311,0,.433-.116a11.2,11.2,0,0,0,1.262-1.443,4.3,4.3,0,0,1,.737-.718,8.208,8.208,0,0,0,.8-.492C289.352,382.959,289.287,382.622,289.307,382.26Z" transform="translate(-263.865 -277.202)" fill="#37474f"/>
          <path id="Trazado_109451" data-name="Trazado 109451" d="M280.209,403.789a29.741,29.741,0,0,1,2.542-1.8h0s-5.466,3.163-7.646,1.675a1.83,1.83,0,0,1-.647-2.458c.071-.369-3.435-1.941-4.806-2.141h0c-.382.207-.705.369-.906.459-4.638,2.038-5.434,3.034-4.457,4.787.789,1.417,3.319,2.542,7.342,2.588A16.911,16.911,0,0,0,280.209,403.789Z" transform="translate(-263.882 -283.134)" fill="#455a64"/>
          <path id="Trazado_109452" data-name="Trazado 109452" d="M279.77,394.2c-2.879,1.093-1.663,1.624-.86,1.747s5.667-2.588,8.636-4.826c3.1-2.335,5.065-4.91,6.217-5.77a16.82,16.82,0,0,0,1.294-1.08c-.071-.615-.123-1.177-.181-1.475a.647.647,0,0,0-.6-.537c0,.362.045.7-.239.97a8.2,8.2,0,0,1-.8.492,4.3,4.3,0,0,0-.737.718,11.2,11.2,0,0,1-1.261,1.443A37.424,37.424,0,0,1,279.77,394.2Z" transform="translate(-268.838 -277.202)" fill="#263238"/>
          <path id="Trazado_109453" data-name="Trazado 109453" d="M276.861,401.406a.285.285,0,0,0,.226-.453,6.916,6.916,0,0,0-5.24-2.077.278.278,0,1,0,.058.55,6.4,6.4,0,0,1,4.742,1.876.284.284,0,0,0,.214.1Z" transform="translate(-266.582 -283.067)" fill="#f0f0f0"/>
          <path id="Trazado_109454" data-name="Trazado 109454" d="M280.772,399.126a.285.285,0,0,0,.226-.453,6.935,6.935,0,0,0-5.24-2.077.276.276,0,1,0,.052.55,6.469,6.469,0,0,1,4.742,1.87A.3.3,0,0,0,280.772,399.126Z" transform="translate(-267.97 -282.262)" fill="#f0f0f0"/>
          <path id="Trazado_109455" data-name="Trazado 109455" d="M284.665,396.966a.285.285,0,0,0,.226-.453,6.916,6.916,0,0,0-5.24-2.077.272.272,0,0,0-.252.3.278.278,0,0,0,.311.246,6.4,6.4,0,0,1,4.742,1.876A.3.3,0,0,0,284.665,396.966Z" transform="translate(-269.347 -281.499)" fill="#f0f0f0"/>
          <path id="Trazado_109456" data-name="Trazado 109456" d="M288.285,394.487a.317.317,0,0,0,.181-.058.278.278,0,0,0,.045-.395,6.98,6.98,0,0,0-5.24-2.077.279.279,0,1,0,.052.556,6.4,6.4,0,0,1,4.742,1.87A.3.3,0,0,0,288.285,394.487Z" transform="translate(-270.625 -280.624)" fill="#f0f0f0"/>
          <path id="Trazado_109457" data-name="Trazado 109457" d="M291.546,391.98a.22.22,0,0,0,.175-.058.265.265,0,0,0,.052-.388,7.1,7.1,0,0,0-5.725-2.109.278.278,0,1,0,.058.55,6.474,6.474,0,0,1,5.221,1.9A.266.266,0,0,0,291.546,391.98Z" transform="translate(-271.596 -279.723)" fill="#f0f0f0"/>
          <path id="Trazado_109458" data-name="Trazado 109458" d="M330.69,349.223l12.246-1.423c.647,8.326.278,17.673.867,25.482.11,1.475,1.223,11.392.97,14.465-.382,4.619-5.964,4.528-6.54,1.863s-1.132-14.335-1.294-15.526c-.466-5-2.956-11.217-5.175-20.054C331.7,353.57,330.794,349.637,330.69,349.223Z" transform="translate(-287.458 -265.035)" fill="#ffa8a7"/>
          <path id="Trazado_109459" data-name="Trazado 109459" d="M339.44,414.153a12.169,12.169,0,0,0,1.565,6.023,4.093,4.093,0,0,0,4.671,1.6c1.857-.459,4.244-1.688,4.774-3.991a14.309,14.309,0,0,0,0-6.372Z" transform="translate(-290.548 -287.495)" fill="#263238"/>
          <path id="Trazado_109460" data-name="Trazado 109460" d="M346.789,385.71c.763.058,1,3.649,1.436,7.245.479,3.881,1.663,5.447,2.09,8.61.485,3.61.291,5.227-1,7.407s-5.893,4.328-8.158,1.2c-1.85-2.549-1.941-5.376-1.76-8.979a90.913,90.913,0,0,0,.162-9.18c-.149-2.7-.343-5.324.323-5.628.052.4.1.906.155,1.294s.116,1.766.55,1.779a5.4,5.4,0,0,0,0-1.022,1.21,1.21,0,0,1,.207-.873,1.468,1.468,0,0,1,.854-.369c.75-.142,1.507-.272,2.277-.343a11.292,11.292,0,0,1,1.145-.045,2.886,2.886,0,0,1,.97.136.692.692,0,0,1,.42.362,1.294,1.294,0,0,1,.039.414,2.9,2.9,0,0,0,.1.744c0,.1.1.233.213.207s.123-.129.123-.213c0-.44-.052-.757-.078-1.261,0-.233-.045-.556-.052-.789S346.8,385.936,346.789,385.71Z" transform="translate(-290.509 -278.42)" fill="#37474f"/>
          <path id="Trazado_109461" data-name="Trazado 109461" d="M350.1,408.63c.071.524.53,3.972-.433,4.593s-1.617-2.038-1.617-2.038a9.516,9.516,0,0,0-6,.789c.181.556-.369,2.4-1.346,2.012s-1.352-4.341-1.359-4.392c-.149,3.454,0,6.2,1.773,8.669,2.264,3.131,6.857.99,8.158-1.2s1.488-3.8,1-7.407A5.25,5.25,0,0,0,350.1,408.63Z" transform="translate(-290.499 -286.513)" fill="#455a64"/>
          <path id="Trazado_109462" data-name="Trazado 109462" d="M351.882,403.325c0,1.294,1.339.86,1.391-.983s-.983-6.217-.977-9.387c-.44-3.6-.647-7.187-1.436-7.245v.129l.1,1.831a7.6,7.6,0,0,1,.045.783c0,2.659.408,7.808.647,10.241a42.094,42.094,0,0,1,.226,4.632Z" transform="translate(-294.58 -278.42)" fill="#263238"/>
          <path id="Trazado_109463" data-name="Trazado 109463" d="M342.543,404.214a41.08,41.08,0,0,1-.731-4.58c-.265-2.413-.938-7.472-1.462-10.1a6.351,6.351,0,0,1-.265-1.488c-.052-.362-.1-.822-.149-1.21v-.078c-.479.226-.511,1.669-.433,3.48.1,1.042.272,2.335.511,3.881.647,3.112.537,7.621.97,9.419S342.8,405.494,342.543,404.214Z" transform="translate(-290.558 -278.791)" fill="#263238"/>
          <path id="Trazado_109464" data-name="Trazado 109464" d="M343.3,413.24a.214.214,0,0,0,.1,0,9.29,9.29,0,0,1,5.906-.6.278.278,0,0,0,.343-.194.285.285,0,0,0-.2-.343,9.659,9.659,0,0,0-6.314.647.265.265,0,0,0-.116.369.278.278,0,0,0,.278.116Z" transform="translate(-291.8 -287.649)" fill="#f0f0f0"/>
          <path id="Trazado_109465" data-name="Trazado 109465" d="M342.308,408.8a.214.214,0,0,0,.091,0,11.483,11.483,0,0,1,6.611-.647.291.291,0,0,0,.343-.207.278.278,0,0,0-.213-.33,11.839,11.839,0,0,0-6.987.705.265.265,0,0,0-.129.369.278.278,0,0,0,.285.11Z" transform="translate(-291.448 -286.073)" fill="#f0f0f0"/>
          <path id="Trazado_109466" data-name="Trazado 109466" d="M348.694,403.845a.265.265,0,0,0,.239-.188.272.272,0,0,0-.175-.349,9.937,9.937,0,0,0-6.974.647.272.272,0,0,0-.123.375.285.285,0,0,0,.382.116,9.65,9.65,0,0,1,6.527-.608A.279.279,0,0,0,348.694,403.845Z" transform="translate(-291.321 -284.497)" fill="#f0f0f0"/>
          <path id="Trazado_109467" data-name="Trazado 109467" d="M348.32,399.892a.284.284,0,0,0,.239-.181.278.278,0,0,0-.168-.356,9.012,9.012,0,0,0-7.116.647.278.278,0,0,0-.1.382.291.291,0,0,0,.395.091,8.552,8.552,0,0,1,6.624-.569.265.265,0,0,0,.123-.013Z" transform="translate(-291.148 -283.08)" fill="#f0f0f0"/>
          <path id="Trazado_109468" data-name="Trazado 109468" d="M347.93,395.466a.285.285,0,0,0,.239-.175.272.272,0,0,0-.168-.356,9.445,9.445,0,0,0-7.168.692.278.278,0,0,0-.1.382.291.291,0,0,0,.388.1s3.4-1.863,6.682-.647a.3.3,0,0,0,.129,0Z" transform="translate(-290.99 -281.519)" fill="#ebebeb"/>
          <path id="Trazado_109469" data-name="Trazado 109469" d="M318.634,220.209c2.452,5.466,5.1,9.3,5.421,19.6.686,21.9.453,37.721.453,37.721.149,1.941,1.158,4.761,2.51,14.711,1.132,8.339.9,21.173.9,21.173s-5.725,2.937-11,.835c-2.115-7.116-5.893-25.727-8.2-35.263-2.1-8.656-4.173-21.348-4.173-21.348l-3.332,21.445a134.634,134.634,0,0,1,.349,13.656c-.336,5.887-3.144,22.4-3.144,22.4s-5.867,2.51-10.422-.783c0,0-2.271-29.628-2.322-36.725-.11-13.908-.867-43.22,1.6-57.775Z" transform="translate(-271.494 -219.86)" fill="#497296"/>
          <path id="Trazado_109470" data-name="Trazado 109470" d="M344.988,361.27c-2.161,1.294-9.011,2.187-11.948,1.119l.835,3.364s1.333.919,5.382.692,5.622-1.863,5.622-1.863Z" transform="translate(-288.288 -269.791)" fill="#455a64"/>
          <path id="Trazado_109471" data-name="Trazado 109471" d="M300.137,362.518c-2.316,1.035-8.682,1.042-11.457-.388l.382,3.442s.945,1.294,5,1.365,5.531-1.145,5.531-1.145Z" transform="translate(-272.625 -270.094)" fill="#455a64"/>
          <path id="Trazado_109472" data-name="Trazado 109472" d="M306.506,267.485l-2.458-15.474s-9.471-1.093-12.938-4.321c0,0,4.347,5.977,10.777,6.948l2.736,12.828-1.41,21.283Z" transform="translate(-273.483 -229.687)" fill="#263238"/>
        </g>
        <g id="freepik--Top--inject-250" transform="translate(14.668)">
          <path id="Trazado_109473" data-name="Trazado 109473" d="M316.863,195.563l2.368-14.517s-4.405-6.327-3.409-16.315c-2.782-1.145-6.094-1.4-5.977-3.351l-11,1.779c-2.458,2.588-7.549,4.729-10.079,9.057-3.092,5.246-3.157,10.215-.039,13.844.162,3.616-.53,15.383-.53,15.383,11.069,7.485,30.256,1.384,30.256,1.384C317.5,200.091,316.65,198.1,316.863,195.563Z" transform="translate(-283.877 -105.956)" fill="#ffa8a7"/>
          <g id="freepik--Head--inject-250" transform="translate(2.971 22.398)">
            <path id="Trazado_109474" data-name="Trazado 109474" d="M309.923,140.307c.1-1.766,3.015-3.526,5.505-6.223,3.467-3.746,5.363-10.409.155-15.293-1.171-7.763-10.26-9.639-17.667-7.821-4.444,1.087-8.546,4.076-10.1,8.41-1.119,3.125-1.106,7.025,1.048,9.943a6.787,6.787,0,0,1,.039-3.306,5.647,5.647,0,0,0,.647,1.462,1.941,1.941,0,0,0,1.294.841c.543.045.867-.259,1.346-.414s.479-.084.88.207.964.7,1.449,1.048l3.4,2.465,7.168,5.175C305.4,137.027,309.923,140.4,309.923,140.307Z" transform="translate(-287.082 -110.329)" fill="#263238"/>
            <path id="Trazado_109475" data-name="Trazado 109475" d="M336.666,133.408c-.731.427-1.481.188-2.322.5-1.022.388-1.494,1.591-2.432,2.154a4.03,4.03,0,0,1-2.775.246,2.8,2.8,0,0,1-1.449-.569,2.716,2.716,0,0,1-.543-.75,11.907,11.907,0,0,1-1.113-3.312,11.3,11.3,0,0,1-.556-3.577c.058-.647.194-1.294.22-1.908a2.911,2.911,0,0,0-.453-1.831A6.553,6.553,0,0,0,323.359,123a3.429,3.429,0,0,1-1.333-1.481,4.14,4.14,0,0,1,0-2.588,8.028,8.028,0,0,1,2.452-4.16,5.615,5.615,0,0,1,4.528-1.352,4.528,4.528,0,0,1,2.665,1.566,3.319,3.319,0,0,1,.731,1.371,6.161,6.161,0,0,0,.3,1.591,2.866,2.866,0,0,0,1.656,1.294,13.351,13.351,0,0,1,2.005.763,5.556,5.556,0,0,1,1.727,1.785,5.432,5.432,0,0,1,.847,1.74,2.374,2.374,0,0,1-.272,1.876c-.356.53-.97.841-1.359,1.352a2.064,2.064,0,0,0-.4,1.494c.116.932.847,1.688,1,2.588a2.652,2.652,0,0,1-.919,2.329A2.35,2.35,0,0,1,336.666,133.408Z" transform="translate(-299.347 -111.399)" fill="#263238"/>
            <path id="Trazado_109476" data-name="Trazado 109476" d="M313.541,139.575a4,4,0,0,0,2.018-.744,4.432,4.432,0,0,0,1.236-5.3,2.267,2.267,0,0,0-3.429-.757c-.5.511-.763,2.219-1.766,1.889-.686-.226-.6-1.2-.647-1.76a12.738,12.738,0,0,0-4.03-7.763,11.974,11.974,0,0,0-3.3-2.277,6.805,6.805,0,0,0-3.325-.7,4.942,4.942,0,0,0-1.986.783,2.8,2.8,0,0,0-1.423-.886c-1.688-.453-3.157,1.113-3.758,2.529-1.067,2.516-1.061,5.525-1.061,8.2,0,5.117.957,8.41,3.06,10.629.97,1.016,3.235,1.818,5.68,1.675l.052,3.157s-3.409,3.519-1.876,7.394a24.888,24.888,0,0,0,6.89-1.643c4.929-2.174,5.926-4.334,5.926-4.334l.226-11.075v.058a1.507,1.507,0,0,0,1.514.925Z" transform="translate(-288.843 -114.441)" fill="#ffa8a7"/>
            <path id="Trazado_109477" data-name="Trazado 109477" d="M308.457,118.468a8.5,8.5,0,0,1,6.243,3.6c1.772,2.29,2.782,5.369,1.837,8.177a2.69,2.69,0,0,1-.763,1.294,1.229,1.229,0,0,1-1.669-.142,6.967,6.967,0,0,1-1.456-2.413,7.692,7.692,0,0,0,.8,3.383,4.962,4.962,0,0,1-2.989-1.87c-1.333-1.773-1.339-4.211-2.348-6.184-1.346-2.588-3.06-4.276-6.4-2.588C301.71,121.709,301.71,118,308.457,118.468Z" transform="translate(-292.247 -113.188)" fill="#263238"/>
            <path id="Trazado_109478" data-name="Trazado 109478" d="M307.425,135.671a1.113,1.113,0,0,0,.919,1.242,1.042,1.042,0,0,0,1.223-.88,1.113,1.113,0,0,0-.919-1.242,1.048,1.048,0,0,0-1.223.88Z" transform="translate(-294.261 -118.96)" fill="#263238"/>
            <path id="Trazado_109479" data-name="Trazado 109479" d="M294.329,130.923l2.439-.841a1.242,1.242,0,0,0-1.591-.828A1.359,1.359,0,0,0,294.329,130.923Z" transform="translate(-289.621 -116.988)" fill="#263238"/>
            <path id="Trazado_109480" data-name="Trazado 109480" d="M308,130.365l2.251,1.255a1.236,1.236,0,0,0-.453-1.74A1.346,1.346,0,0,0,308,130.365Z" transform="translate(-294.468 -117.173)" fill="#263238"/>
            <path id="Trazado_109481" data-name="Trazado 109481" d="M306.5,145.93l-3.972,1.656a2.161,2.161,0,0,0,3.008,1.067,2.025,2.025,0,0,0,.964-2.723Z" transform="translate(-292.536 -122.899)" fill="#b16668"/>
            <path id="Trazado_109482" data-name="Trazado 109482" d="M305.37,149.283a2.264,2.264,0,0,1,2.1-2.193h.207a1.9,1.9,0,0,1-1.132,1.941A2.464,2.464,0,0,1,305.37,149.283Z" transform="translate(-293.539 -123.309)" fill="#f28f8f"/>
            <path id="Trazado_109483" data-name="Trazado 109483" d="M295.185,135.4a1.08,1.08,0,0,0,.886,1.2,1.016,1.016,0,0,0,1.184-.854,1.08,1.08,0,0,0-.886-1.2,1.009,1.009,0,0,0-1.184.854Z" transform="translate(-289.94 -118.875)" fill="#263238"/>
            <path id="Trazado_109484" data-name="Trazado 109484" d="M301.07,134.54l-.576,6.573-3.234-.8Z" transform="translate(-290.676 -118.877)" fill="#f28f8f"/>
            <path id="Trazado_109485" data-name="Trazado 109485" d="M305.57,155.268c2.588-.265,7.8-1.223,9.529-4.528,0,0-.731,2.749-2.432,3.92s-7.077,2.1-7.077,2.1Z" transform="translate(-293.61 -124.598)" fill="#f28f8f"/>
          </g>
          <path id="Trazado_109486" data-name="Trazado 109486" d="M291.824,164.5c-1.941.479-.731,3.539-4.464,8.966l11.56-9.827.272-1.016S294.5,163.83,291.824,164.5Z" transform="translate(-284.209 -106.394)" fill="#6595bf"/>
          <path id="Trazado_109487" data-name="Trazado 109487" d="M289.036,170.6c4.917-4.082,8.138-6.314,8.138-6.314-.647,2.588-.032,4.121,1.255,4.528s5.822-.53,8.442-2.963l14.193,10.2c-.847,2.5-2.542,6.857-3,9.522s-1.436,7.873-1.132,10.558,4.2,10.48,5.072,15.358c0,0-7.731,7.155-23,6.372-12.181-.647-14.264-5.745-14.264-5.745s.511-8.41.705-11.793.8-9.788.8-9.788-4.632-4.283-3.6-9.827A17.141,17.141,0,0,1,289.036,170.6Z" transform="translate(-282.49 -106.984)" fill="#aed3f2"/>
          <path id="Trazado_109488" data-name="Trazado 109488" d="M315.794,159.87c-.213,1.675-1.941,3.927-3.442,4.962-3.235,2.2-5.686,2.588-7.116,1.747s-.647-3.616-.453-4.929l-.77.194c-.647,1.371-1.656,5.318.563,6.307,3.073,1.365,8.617-1.042,10.758-3.759s2.232-4.192,2.232-4.192a4.525,4.525,0,0,1-.932,0,4.977,4.977,0,0,1-.841-.33Z" transform="translate(-289.807 -105.423)" fill="#263238"/>
          <path id="Trazado_109489" data-name="Trazado 109489" d="M365.344,102.983c0,2.4-4.684,17.842-4.684,17.842s9.167,5.745,9.231,5.505,3.235-20.416,4.024-23.58Z" transform="translate(-310.091 -85.255)" fill="#ffa8a7"/>
          <path id="Trazado_109490" data-name="Trazado 109490" d="M325.6,147.579c3.06-4.438,5.234-5.622,7.828-6.7s12.291-7.672,12.291-7.672l4.528-15.455,8.863,4.528s-1.721,14.963-2.9,17.02-7.873,8.572-12.97,13.947c-3.526,3.72-6.818,7.472-8.487,10.706-.446.873-1.494,2.782-2.762,2.465-1.941-.5-4.011-5.738-4.949-8.766A28.624,28.624,0,0,1,325.6,147.579Z" transform="translate(-297.704 -90.551)" fill="#6595bf"/>
          <path id="Trazado_109491" data-name="Trazado 109491" d="M325.647,159.11c-2.821,1.527-4.315.492-4.315.492s.194,3.823-2.432,5.486c0,0,5.563,12.395,9.891,15.487S325.647,159.11,325.647,159.11Z" transform="translate(-295.346 -105.155)" fill="#6595bf"/>
          <path id="Trazado_109492" data-name="Trazado 109492" d="M367.9,93.434c-.045-4.373,1.022-6.67,3.04-8.636a6.81,6.81,0,0,0,.647-1.19c.188-2.5-3.235-6.78-.789-7.536,2.892-.9,3.81,0,5.538,1.2s6.353,4.088,4.3,7.938-3.144,4.457-4.341,8.546C374.828,98.764,367.9,93.434,367.9,93.434Z" transform="translate(-312.647 -75.705)" fill="#ffa8a7"/>
          <path id="Trazado_109493" data-name="Trazado 109493" d="M373.053,108.9h.032a.239.239,0,0,0,.155-.3s-.867-2.588-2.846-9.154c-1.779-5.887-.873-6.9.168-8.08a.239.239,0,0,0-.356-.317c-1.326,1.488-2,2.808-.272,8.533,1.986,6.56,2.84,9.147,2.846,9.173A.252.252,0,0,0,373.053,108.9Z" transform="translate(-313 -81.099)" fill="#263238"/>
          <path id="Trazado_109494" data-name="Trazado 109494" d="M391.455,153.008l17.777-23.276-17.6-37.572-16.5,21.665Z" transform="translate(-315.204 -81.515)" fill="#d9a171"/>
          <path id="Trazado_109495" data-name="Trazado 109495" d="M391.455,153.008l17.777-23.276-17.6-37.572-16.5,21.665Z" transform="translate(-315.204 -81.515)" fill="#fff" opacity="0.15"/>
          <path id="Trazado_109496" data-name="Trazado 109496" d="M391.455,153.008l17.777-23.276-17.6-37.572-16.5,21.665Z" transform="translate(-315.204 -81.515)" fill="#fff" opacity="0.2"/>
          <path id="Trazado_109497" data-name="Trazado 109497" d="M371.5,124.093l-2.219-2.853L364.84,123.1l8.371,38.452,14.607,1.721Z" transform="translate(-311.567 -91.783)" fill="#d9a171"/>
          <path id="Trazado_109498" data-name="Trazado 109498" d="M371.5,124.093l-2.219-2.853L364.84,123.1l8.371,38.452,14.607,1.721Z" transform="translate(-311.567 -91.783)" fill="#fff" opacity="0.55"/>
          <path id="Trazado_109499" data-name="Trazado 109499" d="M376.551,165.994l6.327-2.154L374.3,133.81l10.5,30.1,6.359,3.8Z" transform="translate(-314.907 -96.222)" fill="#d9a171" opacity="0.2"/>
          <path id="Trazado_109500" data-name="Trazado 109500" d="M376.551,165.994l6.327-2.154L374.3,133.81l10.5,30.1,6.359,3.8Z" transform="translate(-314.907 -96.222)" opacity="0.05"/>
          <path id="Trazado_109501" data-name="Trazado 109501" d="M388,91.743l-4.535,1.3L381.99,90.98l-17.15,21.439,4.444-1.863,2.219,2.853Z" transform="translate(-311.567 -81.099)" fill="#d9a171"/>
          <path id="Trazado_109502" data-name="Trazado 109502" d="M388,91.743l-4.535,1.3L381.99,90.98l-17.15,21.439,4.444-1.863,2.219,2.853Z" transform="translate(-311.567 -81.099)" fill="#fff" opacity="0.1"/>
          <path id="Trazado_109503" data-name="Trazado 109503" d="M388,91.743l-4.535,1.3L381.99,90.98l-17.15,21.439,4.444-1.863,2.219,2.853Z" transform="translate(-311.567 -81.099)" opacity="0.05"/>
          <path id="Trazado_109504" data-name="Trazado 109504" d="M393.63,93.46l1.268,3.008,3.267-4.308Z" transform="translate(-321.732 -81.515)" opacity="0.15"/>
          <path id="Trazado_109505" data-name="Trazado 109505" d="M379.2,111.891a.11.11,0,0,0,.065,0,.233.233,0,0,0,.116-.317c-.032-.071-3.293-6.877-5.175-11-1.844-3.972-4.127-8.895-2.419-10.473a.239.239,0,0,0-.323-.349c-1.941,1.818.3,6.7,2.3,11,1.941,4.134,5.175,10.939,5.208,11a.233.233,0,0,0,.233.142Z" transform="translate(-313.642 -80.649)" fill="#263238"/>
          <path id="Trazado_109506" data-name="Trazado 109506" d="M381.6,112.044a.136.136,0,0,0,.071,0,.239.239,0,0,0,.1-.323c-.039-.065-3.6-6.553-6.184-11.644-.252-.5-.524-1.022-.8-1.553-1.889-3.629-4.024-7.763-2.549-9.115a.238.238,0,1,0-.336-.336c-1.747,1.617.382,5.719,2.445,9.7.272.53.543,1.048.8,1.553,2.588,5.085,6.159,11.586,6.191,11.644a.239.239,0,0,0,.265.071Z" transform="translate(-313.834 -80.401)" fill="#263238"/>
          <path id="Trazado_109507" data-name="Trazado 109507" d="M416.872,147.56l17.4-25.954L403.63,92.45l-13.1,17.893Z" transform="translate(-320.638 -81.618)" fill="#37474f"/>
          <path id="Trazado_109508" data-name="Trazado 109508" d="M379.49,112.743,394.97,92.98l1.9.673,2.866-1.2-13.1,17.893-2.128.3Z" transform="translate(-316.74 -81.618)"/>
          <path id="Trazado_109509" data-name="Trazado 109509" d="M386.632,120.11l-2.128.3-5.014,2.1,18.838,40.962,14.646-6.146Z" transform="translate(-316.74 -91.384)" fill="#455a64"/>
          <path id="Trazado_109510" data-name="Trazado 109510" d="M418.5,163.894l-9.367-1.559-14-23.625,12.453,24.673-3.733,6.657Z" transform="translate(-322.262 -97.952)" fill="#37474f"/>
          <path id="Trazado_109511" data-name="Trazado 109511" d="M389.65,106.756a.194.194,0,0,0,.142-.078.239.239,0,0,0,0-.336c-.116-.1-11.528-9.749-13.805-11.91-1.941-1.837-4.043-4.334-3.17-5.822a.246.246,0,0,0-.084-.33.233.233,0,0,0-.33.084c-.828,1.41.265,3.564,3.235,6.4,2.29,2.174,13.708,11.832,13.824,11.929A.246.246,0,0,0,389.65,106.756Z" transform="translate(-314.143 -80.132)" fill="#263238"/>
          <path id="Trazado_109512" data-name="Trazado 109512" d="M390.419,104.956a.252.252,0,0,0,.149-.084.246.246,0,0,0-.045-.336c-.123-.1-12.291-9.568-14.555-11.728s-3.577-3.558-2.788-4.9a.239.239,0,0,0-.084-.33.246.246,0,0,0-.33.091c-1.041,1.773.776,3.493,2.872,5.492,2.29,2.174,14.09,11.366,14.594,11.754a.22.22,0,0,0,.188.045Z" transform="translate(-314.258 -79.885)" fill="#263238"/>
          <path id="Trazado_109513" data-name="Trazado 109513" d="M394.05,114.871l28.179,36.57,12.679-9.361-37.514-31.09Z" transform="translate(-321.881 -88.164)" fill="#d9a171"/>
          <path id="Trazado_109514" data-name="Trazado 109514" d="M394.05,114.871l28.179,36.57,12.679-9.361-37.514-31.09Z" transform="translate(-321.881 -88.164)" opacity="0.15"/>
          <path id="Trazado_109515" data-name="Trazado 109515" d="M429.408,159.093l2.814-7.051L414.38,132.66l19.336,18.256,8.371-1.184Z" transform="translate(-329.059 -95.816)" opacity="0.15"/>
          <path id="Trazado_109516" data-name="Trazado 109516" d="M436.734,132.639l6.378-26.924L410.884,84.25l-11.664,17.3Z" transform="translate(-323.706 -78.722)" fill="#d9a171"/>
          <path id="Trazado_109517" data-name="Trazado 109517" d="M406.847,107.949a.55.55,0,0,0,.809-.453,1.352,1.352,0,0,0-.647-1.042.55.55,0,0,0-.809.453A1.371,1.371,0,0,0,406.847,107.949Z" transform="translate(-326.171 -86.54)"/>
          <path id="Trazado_109518" data-name="Trazado 109518" d="M415.447,96.339a.55.55,0,0,0,.809-.453,1.294,1.294,0,0,0-.647-1.042.55.55,0,0,0-.809.453,1.365,1.365,0,0,0,.647,1.042Z" transform="translate(-329.207 -82.44)"/>
          <path id="Trazado_109519" data-name="Trazado 109519" d="M394.982,100.762a.239.239,0,0,0,.181-.142.246.246,0,0,0-.116-.317c-.136-.039-13.359-6.01-16.373-7.3-2.432-1.022-5.1-2.7-5.551-4.147a1.113,1.113,0,0,1,.116-.983.246.246,0,0,0-.078-.33.239.239,0,0,0-.33.071,1.578,1.578,0,0,0-.162,1.384c.53,1.695,3.467,3.454,5.822,4.444,3.021,1.294,16.237,7.239,16.373,7.3A.252.252,0,0,0,394.982,100.762Z" transform="translate(-314.3 -79.87)" fill="#263238"/>
          <path id="Trazado_109520" data-name="Trazado 109520" d="M400.919,98.794a.226.226,0,0,1-.162.1.291.291,0,0,1-.175,0L387.56,90.21v-.039a3.72,3.72,0,0,0,.188-.4l13.08,8.694a.233.233,0,0,1,.091.33Z" transform="translate(-319.589 -80.671)" fill="#263238"/>
          <path id="Trazado_109521" data-name="Trazado 109521" d="M401.634,97.295a.207.207,0,0,1-.168.11.291.291,0,0,1-.162,0L387.9,89.5a3.494,3.494,0,0,0,.155-.459l13.495,7.925a.233.233,0,0,1,.084.33Z" transform="translate(-319.709 -80.414)" fill="#263238"/>
          <path id="Trazado_109522" data-name="Trazado 109522" d="M391.15,102.385a.252.252,0,0,1-.091.032.239.239,0,0,1-.239-.1l-5.46-8.365.278-.459,5.583,8.565a.239.239,0,0,1-.071.33Z" transform="translate(-318.812 -81.985)" fill="#263238"/>
          <path id="Trazado_109523" data-name="Trazado 109523" d="M392.351,100.942a.207.207,0,0,1-.11.039.22.22,0,0,1-.226-.091l-5.964-8.06c.091-.149.175-.3.265-.44l6.081,8.216a.239.239,0,0,1-.045.336Z" transform="translate(-319.056 -81.597)" fill="#263238"/>
          <path id="Trazado_109524" data-name="Trazado 109524" d="M406.223,93a.246.246,0,0,1-.194.168.213.213,0,0,1-.11,0L388.31,87.988a4.384,4.384,0,0,0,.032-.5l17.712,5.246A.239.239,0,0,1,406.223,93Z" transform="translate(-319.854 -79.866)" fill="#263238"/>
        </g>
      </g>
    </g>
  </g>
</svg>
