<svg xmlns="http://www.w3.org/2000/svg" width="240.839" height="271.402" viewBox="0 0 240.839 271.402">
  <g id="Grupo_59810" data-name="Grupo 59810" transform="translate(-1059.551 -2613.065)">
    <g id="Customer_Survey-amico" data-name="Customer Survey-amico" transform="translate(1001.986 2581.532)">
      <g id="freepik--Form--inject-71" transform="translate(57.565 70.642)">
        <g id="freepik--Questionary--inject-71">
          <path id="Trazado_109181" data-name="Trazado 109181" d="M83.143,318.243,80.9,316.92A2.859,2.859,0,0,1,79.62,314.7V148.366A2.859,2.859,0,0,1,80.9,146.15L184.1,86.559a2.859,2.859,0,0,1,2.566,0l2.244,1.3a2.859,2.859,0,0,1,1.286,2.216v166.36a2.859,2.859,0,0,1-1.286,2.223l-103.2,59.584a2.859,2.859,0,0,1-2.566,0Z" transform="translate(-79.62 -86.255)" fill="#37474f"/>
          <path id="Trazado_109182" data-name="Trazado 109182" d="M190.332,89.868c-.093-.658-.629-.9-1.272-.529l-103.2,59.584a2.587,2.587,0,0,0-.908.951L80.14,147.1a2.645,2.645,0,0,1,.908-.951l103.2-59.592a2.859,2.859,0,0,1,2.566,0l2.244,1.3A2.859,2.859,0,0,1,190.332,89.868Z" transform="translate(-79.768 -86.255)" fill="#455a64"/>
          <path id="Trazado_109183" data-name="Trazado 109183" d="M85.481,342.639a.15.15,0,0,1-.071,0l-.136.05h-.05a.966.966,0,0,0-.236.064h0a2.9,2.9,0,0,1-1.522-.114,2.046,2.046,0,0,1-.286-.129l-2.28-1.3a2.859,2.859,0,0,1-1.279-2.223V172.655a2.659,2.659,0,0,1,.372-1.265l4.81,2.773a2.609,2.609,0,0,0-.379,1.265V341.8a1.086,1.086,0,0,0,.193.672.715.715,0,0,0,.715.222Z" transform="translate(-79.62 -110.544)" fill="#263238"/>
          <path id="Trazado_109184" data-name="Trazado 109184" d="M135.129,148.719a1.008,1.008,0,0,0-.229-.472l-.086-.071a.507.507,0,0,0-.479-.071.55.55,0,0,0-.179.079,2.015,2.015,0,0,0-.715.879,3.109,3.109,0,0,0-.3,1.286,1.279,1.279,0,0,0,.286.922.565.565,0,0,0,.715.057,1.515,1.515,0,0,0,.4-.35,3.052,3.052,0,0,0,.272-.422,3.209,3.209,0,0,0,.35-1.386A2.145,2.145,0,0,0,135.129,148.719Zm16.781-37.5a2.387,2.387,0,0,0-1.229-.329,4.846,4.846,0,0,0-2.316.715,10.47,10.47,0,0,0-4.288,5.124c-.136.3-.264.615-.379.922s-.236.622-.336.943-.214.643-.307.965c-.036.107-.064.222-.1.322l-.186.65a.465.465,0,0,1,0,.093c-.107.393-.207.8-.322,1.2-.057.222-.107.429-.164.643l-.164.636c-.229.85-.457,1.665-.715,2.444l-.164.472c-.079.222-.157.443-.243.658s-.136.329-.2.479c-.107.264-.222.515-.343.758s-.15.307-.229.457c-1.808,3.473-4.017,4.831-5.3,6.618-1.122,1.558-1.429,2.8-2.945,5.267-.479.786-1.079,1.694-1.865,2.78-2.18,3-2.959,4.488-3.223,5.389a.3.3,0,0,0,0,.071.291.291,0,0,1-.05.2.264.264,0,0,0,0,.064q0,.086,0,.172a3.574,3.574,0,0,0-.036.529v6.675l2.4,1.387v-6.682a3.223,3.223,0,0,1,.15-1.029c.264-.9,1.036-2.38,3.223-5.382.786-1.093,1.387-2,1.865-2.787,1.5-2.459,1.822-3.709,2.945-5.253h0c1.279-1.794,3.488-3.145,5.3-6.625a16.377,16.377,0,0,0,.693-1.644c1.158-2.859,1.68-6.711,3.1-9.949a10.406,10.406,0,0,1,4.288-5.11c1.465-.843,2.537-.915,3.359-.529Zm10.528,8.533h0a2.573,2.573,0,0,0-.636-.257c-.908-.214-2.258.314-3.616.157,1.908,2.466,4.56.879,6.018,1.229a2.252,2.252,0,0,1,.643.264h0Zm5.089,9.17a1.332,1.332,0,0,0-.2.15l-.1.1-.093.107a3.009,3.009,0,0,0-.629,1.808,1.329,1.329,0,0,0,.279.915.9.9,0,0,0,.086.071.493.493,0,0,0,.472.072.608.608,0,0,0,.186-.079c.071-.043.136-.1.207-.15a2.052,2.052,0,0,0,.279-.322,3.073,3.073,0,0,0,.536-1.687c0-.865-.457-1.315-1.022-.986Zm1.572-6.039a7.862,7.862,0,0,0-2.48-.879c-.372-.086-.715-.179-.993-.272a6.968,6.968,0,0,0,3.388,1.651,9.735,9.735,0,0,1,2.216.715Z" transform="translate(-93.083 -93.283)" fill="#d9a171"/>
          <path id="Trazado_109185" data-name="Trazado 109185" d="M172.352,124.774l-.193-.114a9.733,9.733,0,0,0-2.216-.715,6.94,6.94,0,0,1-3.388-1.651,4.832,4.832,0,0,0-.779-.586,2.28,2.28,0,0,0-.643-.257c-1.429-.35-4.11,1.236-6.011-1.229l-.064-.079c-1.329-1.794-1.815-5.8-3.809-6.968l-.2-.114c-.822-.386-1.894-.314-3.359.529-5.282,3.052-5.46,10.3-7.361,15.066s-4.6,6.261-6.068,8.312-1.565,3.574-4.817,8.048-3.373,5.575-3.373,6.432v6.675l43.254-25.014v-6.675A1.687,1.687,0,0,0,172.352,124.774Zm-37.264,27.109c-.565.329-1.015-.107-1.015-.979a2.7,2.7,0,0,1,1.015-2.144c.565-.329,1.015.114,1.015.986a2.68,2.68,0,0,1-1.015,2.137Zm16.6-20.112a2.144,2.144,0,0,1-3.331-1.022,6.153,6.153,0,0,1-.522-2.687c0-3.28,1.722-6.933,3.852-8.162a3.052,3.052,0,0,1,.929-.364c1.687-.336,2.923,1.279,2.923,4.074,0,3.28-1.722,6.933-3.852,8.162Zm16.767.843c-.565.329-1.022-.107-1.022-.972a2.7,2.7,0,0,1,1.022-2.144c.565-.322,1.022.114,1.022.986a2.673,2.673,0,0,1-1.022,2.13Z" transform="translate(-94.013 -93.838)" fill="#d9a171"/>
          <path id="Trazado_109186" data-name="Trazado 109186" d="M172.352,124.774l-.193-.114a9.733,9.733,0,0,0-2.216-.715,6.94,6.94,0,0,1-3.388-1.651,4.832,4.832,0,0,0-.779-.586,2.28,2.28,0,0,0-.643-.257c-1.429-.35-4.11,1.236-6.011-1.229l-.064-.079c-1.329-1.794-1.815-5.8-3.809-6.968l-.2-.114c-.822-.386-1.894-.314-3.359.529-5.282,3.052-5.46,10.3-7.361,15.066s-4.6,6.261-6.068,8.312-1.565,3.574-4.817,8.048-3.373,5.575-3.373,6.432v6.675l43.254-25.014v-6.675A1.687,1.687,0,0,0,172.352,124.774Zm-37.264,27.109c-.565.329-1.015-.107-1.015-.979a2.7,2.7,0,0,1,1.015-2.144c.565-.329,1.015.114,1.015.986a2.68,2.68,0,0,1-1.015,2.137Zm16.6-20.112a2.144,2.144,0,0,1-3.331-1.022,6.153,6.153,0,0,1-.522-2.687c0-3.28,1.722-6.933,3.852-8.162a3.052,3.052,0,0,1,.929-.364c1.687-.336,2.923,1.279,2.923,4.074,0,3.28-1.722,6.933-3.852,8.162Zm16.767.843c-.565.329-1.022-.107-1.022-.972a2.7,2.7,0,0,1,1.022-2.144c.565-.322,1.022.114,1.022.986a2.673,2.673,0,0,1-1.022,2.13Z" transform="translate(-94.013 -93.838)" opacity="0.1"/>
          <path id="Trazado_109187" data-name="Trazado 109187" d="M129.261,164.837a3.223,3.223,0,0,0-.15,1.029v6.682l-2.4-1.387v-6.675a3.574,3.574,0,0,1,.036-.529,1.711,1.711,0,0,1,0-.172.264.264,0,0,1,0-.064.31.31,0,0,1,.05-.2v-.071h0Z" transform="translate(-93.055 -108.279)" opacity="0.25"/>
          <path id="Trazado_109188" data-name="Trazado 109188" d="M139.389,146.045c-1.122,1.544-1.429,2.794-2.945,5.253l-2.394-1.4c1.5-2.466,1.822-3.709,2.945-5.267h0Z" transform="translate(-95.149 -102.909)" opacity="0.25"/>
          <path id="Trazado_109189" data-name="Trazado 109189" d="M151.855,120.449c-1.429,3.238-1.944,7.054-3.1,9.949a16.382,16.382,0,0,1-.772,1.694l-2.4-1.379c.079-.15.157-.307.229-.457s.236-.493.343-.758c.064-.15.136-.314.2-.479s.164-.436.243-.658l.164-.472c.257-.779.486-1.594.715-2.444l.164-.636c.057-.214.107-.422.164-.643.114-.4.214-.808.322-1.2a.468.468,0,0,0,0-.093l.186-.65c.036-.1.064-.214.1-.322.093-.322.2-.643.307-.965s.214-.629.336-.943.243-.622.379-.922Z" transform="translate(-98.438 -95.617)" opacity="0.25"/>
          <path id="Trazado_109190" data-name="Trazado 109190" d="M135.958,157.518a3.109,3.109,0,0,0-.3,1.286,1.279,1.279,0,0,0,.286.922,1.322,1.322,0,0,1-.279-.922A3.223,3.223,0,0,1,135.958,157.518Zm1.744.107a2.143,2.143,0,0,0-.05-.45,2.143,2.143,0,0,1,.043.45,3.2,3.2,0,0,1-.343,1.387A3.209,3.209,0,0,0,137.7,157.626Zm31.69-17.1a.493.493,0,0,0,.472.071.543.543,0,0,1-.472-.071Z" transform="translate(-95.606 -101.739)" fill="#d9a171"/>
          <path id="Trazado_109191" data-name="Trazado 109191" d="M162.85,126.266c0,3.28-1.73,6.933-3.859,8.162a2.18,2.18,0,0,1-3.33-1.015,3.044,3.044,0,0,0,.936-.372c2.144-1.236,3.852-4.881,3.852-8.162a6.054,6.054,0,0,0-.529-2.687C161.621,121.857,162.85,123.472,162.85,126.266Z" transform="translate(-101.314 -96.495)" fill="#d9a171"/>
          <path id="Trazado_109192" data-name="Trazado 109192" d="M162.85,126.266c0,3.28-1.73,6.933-3.859,8.162a2.18,2.18,0,0,1-3.33-1.015,3.044,3.044,0,0,0,.936-.372c2.144-1.236,3.852-4.881,3.852-8.162a6.054,6.054,0,0,0-.529-2.687C161.621,121.857,162.85,123.472,162.85,126.266Z" transform="translate(-101.314 -96.495)" opacity="0.3"/>
          <path id="Trazado_109193" data-name="Trazado 109193" d="M137.333,165.4a2.229,2.229,0,0,1-.264.422,1.515,1.515,0,0,1-.4.35.565.565,0,0,1-.715-.057,1.279,1.279,0,0,1-.286-.922,3.109,3.109,0,0,1,.3-1.286,2.016,2.016,0,0,1,.715-.879.55.55,0,0,1,.179-.079.529.529,0,0,1,.565.143,1.008,1.008,0,0,1,.229.472,2.144,2.144,0,0,1,.05.45A3.03,3.03,0,0,1,137.333,165.4Z" transform="translate(-95.609 -108.127)" fill="#37474f"/>
          <path id="Trazado_109194" data-name="Trazado 109194" d="M184.393,137.063a3.073,3.073,0,0,1-.536,1.687,2.05,2.05,0,0,1-.279.322c-.071.05-.136.107-.207.15a.608.608,0,0,1-.186.079.529.529,0,0,1-.557-.143,1.33,1.33,0,0,1-.279-.915,3.009,3.009,0,0,1,.629-1.808l.093-.107.1-.1a1.331,1.331,0,0,1,.2-.15C183.935,135.748,184.393,136.2,184.393,137.063Z" transform="translate(-108.928 -100.438)" fill="#37474f"/>
          <path id="Trazado_109195" data-name="Trazado 109195" d="M97.2,174.939l89.809-51.851a1.708,1.708,0,0,1,1.537,0l.865.5a1.722,1.722,0,0,1,.772,1.336V261.932a1.7,1.7,0,0,1-.772,1.329L99.6,315.112a1.665,1.665,0,0,1-1.537,0l-.865-.5a1.694,1.694,0,0,1-.772-1.329V176.275a1.7,1.7,0,0,1,.772-1.336Z" transform="translate(-84.416 -96.711)" fill="#f5f5f5"/>
          <path id="Trazado_109196" data-name="Trazado 109196" d="M190.247,124.689a.437.437,0,0,0-.715-.214L99.695,176.326a1.572,1.572,0,0,0-.543.579l-2.4-1.387a1.429,1.429,0,0,1,.543-.572L187.1,123.1a1.651,1.651,0,0,1,1.529,0l.872.493A1.715,1.715,0,0,1,190.247,124.689Z" transform="translate(-84.507 -96.712)" fill="#fafafa"/>
          <path id="Trazado_109197" data-name="Trazado 109197" d="M99.425,336.229a1.284,1.284,0,0,1-.286.071h-.15a2.025,2.025,0,0,1-.465,0,1.193,1.193,0,0,1-.286-.071l-.172-.086-.865-.5a1.679,1.679,0,0,1-.772-1.329V197.278a1.508,1.508,0,0,1,.229-.758l2.4,1.387a1.615,1.615,0,0,0-.222.758V335.672C98.839,336.094,99.082,336.3,99.425,336.229Z" transform="translate(-84.416 -117.713)" fill="#e0e0e0"/>
          <path id="Trazado_109198" data-name="Trazado 109198" d="M149.1,151.68l-.121.2a5,5,0,0,0-.615,1.515v.086a.129.129,0,0,0,0,.036l-1.465,8.248-.457,2.637a1.461,1.461,0,0,1-.079.329,3.16,3.16,0,0,1-.1.314.653.653,0,0,1-.079.214l2.4,1.387a4.059,4.059,0,0,0,.25-.858l.472-2.637,1.429-8.248a4.445,4.445,0,0,1,.75-1.837Z" transform="translate(-98.61 -104.921)" fill="#d9a171"/>
          <path id="Trazado_109199" data-name="Trazado 109199" d="M125.913,188.5c-.243.386-.472.772-.715,1.158-.1.186-.2.372-.293.557s-.229.479-.329.715-.229.529-.329.8-.2.543-.293.815-.207.636-.293.958c-.057.207-.114.415-.172.636q-.2.758-.364,1.544a3.646,3.646,0,0,1-.107.543c-.029.179-.093.443-.129.658v.036c0,.172,0,.286.086.336a.086.086,0,0,0,.071,0h0l2.065-1.615.336-.264.164-.122.179-.143.143-.107.122-.1a18.2,18.2,0,0,1,2.966-6.054l-2.4-1.387C126.385,187.8,126.142,188.153,125.913,188.5Z" transform="translate(-91.965 -115.129)" fill="#d9a171"/>
          <path id="Trazado_109200" data-name="Trazado 109200" d="M161.734,126.29c-.114.186-.214.372-.314.557a2.294,2.294,0,0,0-.172.322c-.086.15-.157.307-.236.465s-.129.25-.186.379c-.121.243-.229.486-.329.715s-.229.529-.329.793c-.1.236-.179.472-.257.715-.129.357-.236.715-.336,1.079-.057.193-.1.379-.15.565a.248.248,0,0,1,0,.043,2.153,2.153,0,0,1-.064.293c-.057.222-.1.45-.136.672a4.165,4.165,0,0,1-.121.529c-.05.179-.093.372-.15.557s-.114.35-.172.529v.05c-.071.193-.15.393-.236.593s-.157.393-.257.6a1.556,1.556,0,0,0-.064.164c-.071.15-.15.3-.222.457l-.379.715c-.086.172-.172.329-.264.493l2.409,1.387a16.288,16.288,0,0,0,1.872-4.7,20.662,20.662,0,0,1,2.53-6.632Z" transform="translate(-101.799 -97.677)" fill="#d9a171"/>
          <path id="Trazado_109201" data-name="Trazado 109201" d="M183.313,133.719a.915.915,0,0,0-.393-.129,2.937,2.937,0,0,0,2.144,1.358,1.558,1.558,0,0,1,.6.129Z" transform="translate(-109.092 -99.759)" fill="#d9a171"/>
          <path id="Trazado_109202" data-name="Trazado 109202" d="M183.313,133.719a.915.915,0,0,0-.393-.129,2.937,2.937,0,0,0,2.144,1.358,1.558,1.558,0,0,1,.6.129Z" transform="translate(-109.092 -99.759)" fill="#fff" opacity="0.4"/>
          <path id="Trazado_109203" data-name="Trazado 109203" d="M192.847,148.275a2.587,2.587,0,0,0-2.409.071c-2.794,1.229-4,1.787-5.446,2.387-.279,1.858.815,2.03,1.358,1.808,2.03-.8,3.066-1.294,6.5-2.8a2.594,2.594,0,0,1,2.387-.079Z" transform="translate(-109.67 -103.874)" fill="#d9a171"/>
          <path id="Trazado_109204" data-name="Trazado 109204" d="M192.847,148.275a2.587,2.587,0,0,0-2.409.071c-2.794,1.229-4,1.787-5.446,2.387-.279,1.858.815,2.03,1.358,1.808,2.03-.8,3.066-1.294,6.5-2.8a2.594,2.594,0,0,1,2.387-.079Z" transform="translate(-109.67 -103.874)" fill="#fff" opacity="0.4"/>
          <path id="Trazado_109205" data-name="Trazado 109205" d="M143.415,172.066a9.827,9.827,0,0,1-2.144,3.016l-7.519,5.653a20.013,20.013,0,0,0-3.23,3.323l-2.4-1.387a19.762,19.762,0,0,1,3.23-3.331l7.533-5.646a10.005,10.005,0,0,0,2.108-3.016Z" transform="translate(-93.457 -110.341)" fill="#d9a171"/>
          <path id="Trazado_109206" data-name="Trazado 109206" d="M143.415,172.066a9.827,9.827,0,0,1-2.144,3.016l-7.519,5.653a20.013,20.013,0,0,0-3.23,3.323l-2.4-1.387a19.762,19.762,0,0,1,3.23-3.331l7.533-5.646a10.005,10.005,0,0,0,2.108-3.016Z" transform="translate(-93.457 -110.341)" fill="#fff" opacity="0.4"/>
          <path id="Trazado_109207" data-name="Trazado 109207" d="M157.707,143.547a25.6,25.6,0,0,1-3.8,5.289,9.032,9.032,0,0,0-1.244,1.515l-2.4-1.387a8.2,8.2,0,0,1,1.244-1.515,25.608,25.608,0,0,0,3.8-5.289Z" transform="translate(-99.774 -102.204)" fill="#d9a171"/>
          <path id="Trazado_109208" data-name="Trazado 109208" d="M157.707,143.547a25.6,25.6,0,0,1-3.8,5.289,9.032,9.032,0,0,0-1.244,1.515l-2.4-1.387a8.2,8.2,0,0,1,1.244-1.515,25.608,25.608,0,0,0,3.8-5.289Z" transform="translate(-99.774 -102.204)" fill="#fff" opacity="0.4"/>
          <path id="Trazado_109209" data-name="Trazado 109209" d="M175.041,118.588a3.682,3.682,0,0,0-3.452.343A16.1,16.1,0,0,0,165.871,125l-2.4-1.429a15.778,15.778,0,0,1,5.718-6.068,4.838,4.838,0,0,1,2.2-.622,2.637,2.637,0,0,1,1.322.336Z" transform="translate(-103.542 -94.992)" fill="#d9a171"/>
          <path id="Trazado_109210" data-name="Trazado 109210" d="M175.041,118.588a3.682,3.682,0,0,0-3.452.343A16.1,16.1,0,0,0,165.871,125l-2.4-1.429a15.778,15.778,0,0,1,5.718-6.068,4.838,4.838,0,0,1,2.2-.622,2.637,2.637,0,0,1,1.322.336Z" transform="translate(-103.542 -94.992)" fill="#fff" opacity="0.4"/>
          <path id="Trazado_109211" data-name="Trazado 109211" d="M129.07,188.852a18.2,18.2,0,0,0-2.966,6.054l-.121.1-.143.107-.179.143-.164.122-.336.264-2.037,1.63h0a.086.086,0,0,1-.071,0c-.079-.05-.114-.164-.086-.336V196.9a3.143,3.143,0,0,1,.129-.658c.05-.222.071-.364.107-.543q.164-.779.365-1.544c.057-.222.114-.429.172-.636.086-.322.186-.636.293-.958s.186-.543.293-.815.207-.536.329-.8.214-.493.329-.715.193-.372.293-.557a10.154,10.154,0,0,1,.715-1.158c.279-.386.472-.715.715-1.036Z" transform="translate(-91.984 -115.134)" opacity="0.15"/>
          <path id="Trazado_109212" data-name="Trazado 109212" d="M151.5,153.066a4.445,4.445,0,0,0-.75,1.837l-1.429,8.248-.472,2.637a4.059,4.059,0,0,1-.25.858l-2.4-1.387c0-.071.057-.143.079-.214a3.168,3.168,0,0,0,.1-.314,1.7,1.7,0,0,1,.079-.329l.457-2.637,1.465-8.248a.129.129,0,0,1,0-.036V153.4a5,5,0,0,1,.615-1.515l.122-.2Z" transform="translate(-98.615 -104.921)" opacity="0.15"/>
          <path id="Trazado_109213" data-name="Trazado 109213" d="M164.121,127.706a20.662,20.662,0,0,0-2.53,6.632,16.287,16.287,0,0,1-1.872,4.7l-2.409-1.387c.093-.164.179-.322.264-.493l.379-.715c.071-.157.15-.307.222-.457a1.559,1.559,0,0,1,.064-.164c.093-.2.179-.407.257-.6s.164-.4.236-.593v-.05c.057-.179.122-.35.172-.529s.107-.372.15-.557.086-.357.122-.529.079-.45.136-.672a1.437,1.437,0,0,1,.064-.293.248.248,0,0,0,0-.043c.05-.186.093-.372.15-.565.1-.365.207-.715.336-1.079.079-.243.157-.479.257-.715.1-.264.214-.529.329-.793s.207-.486.329-.715c.057-.129.122-.25.186-.379s.15-.314.236-.465a2.3,2.3,0,0,1,.172-.322c.1-.186.2-.372.314-.557Z" transform="translate(-101.785 -97.7)" opacity="0.15"/>
          <path id="Trazado_109214" data-name="Trazado 109214" d="M123.16,200.53h0l2.03-1.63C124.382,199.55,123.282,200.4,123.16,200.53Z" transform="translate(-92.042 -118.392)" fill="#d9a171"/>
          <path id="Trazado_109215" data-name="Trazado 109215" d="M177.6,141.377h0a2.623,2.623,0,0,0-2.394.071c-3.423,1.515-4.46,2.008-6.489,2.816-.543.214-1.637.043-1.358-1.815a.875.875,0,0,1,0-.122l.465-2.637,1.3-7.19s.293-1.136-.457-1.558h-.057a1.258,1.258,0,0,0-.593-.129,2.945,2.945,0,0,1-2.144-1.372,5.4,5.4,0,0,1-.808-4.11c.55-3.088-.05-5.246-1.429-6.046l-.107-.071a3.682,3.682,0,0,0-3.452.343c-3.652,1.915-7.34,7.6-8.24,12.7-.565,3.216-3.8,8.169-5.675,10.006a5.968,5.968,0,0,0-1.994,3.352l-1.429,8.248-.472,2.637a8.663,8.663,0,0,1-2.366,3.881l-7.576,5.589a18.146,18.146,0,0,0-6.2,9.377s-2.859,2.187-3,2.366h0l.965-.55,51.973-29.882s.6-.322.715-.407,2.223-2.058,2.223-2.058C178.969,143.114,178.476,141.9,177.6,141.377ZM162.6,126.218c-.557,3.138-2.816,6.632-5.06,7.812-1.551.808-2.687.307-3.066-1.122a5.982,5.982,0,0,1,0-2.43c.55-3.138,2.823-6.632,5.067-7.8a3.788,3.788,0,0,1,.65-.279c1.837-.557,2.873,1.008,2.394,3.824Z" transform="translate(-92.033 -95.575)" fill="#d9a171"/>
          <path id="Trazado_109216" data-name="Trazado 109216" d="M123.166,188.055l52.945-30.432.715-.407c.129-.079,2.223-2.065,2.223-2.065l-52.888,30.532S122.959,188.169,123.166,188.055Z" transform="translate(-92.041 -105.911)" fill="#d9a171"/>
          <path id="Trazado_109217" data-name="Trazado 109217" d="M123.166,188.055l52.945-30.432.715-.407c.129-.079,2.223-2.065,2.223-2.065l-52.888,30.532S122.959,188.169,123.166,188.055Z" transform="translate(-92.041 -105.911)" opacity="0.3"/>
          <path id="Trazado_109218" data-name="Trazado 109218" d="M172.668,123.735a3.786,3.786,0,0,0-.65.279c-2.244,1.172-4.517,4.667-5.067,7.8a5.983,5.983,0,0,0,0,2.43c.379,1.429,1.515,1.93,3.066,1.122,2.244-1.179,4.5-4.674,5.06-7.812C175.527,124.743,174.49,123.178,172.668,123.735Zm-5.575,10.456a5.853,5.853,0,0,1,0-2.344c.55-3.1,2.787-6.554,5-7.7a4.239,4.239,0,0,1,.572-.25,6.011,6.011,0,0,1,0,2.287c-.55,3.138-2.816,6.632-5.067,7.812a3.78,3.78,0,0,1-.507.222Z" transform="translate(-104.5 -96.916)" fill="#d9a171"/>
          <path id="Trazado_109219" data-name="Trazado 109219" d="M172.668,123.735a3.786,3.786,0,0,0-.65.279c-2.244,1.172-4.517,4.667-5.067,7.8a5.983,5.983,0,0,0,0,2.43c.379,1.429,1.515,1.93,3.066,1.122,2.244-1.179,4.5-4.674,5.06-7.812C175.527,124.743,174.49,123.178,172.668,123.735Zm-5.575,10.456a5.853,5.853,0,0,1,0-2.344c.55-3.1,2.787-6.554,5-7.7a4.239,4.239,0,0,1,.572-.25,6.011,6.011,0,0,1,0,2.287c-.55,3.138-2.816,6.632-5.067,7.812a3.78,3.78,0,0,1-.507.222Z" transform="translate(-104.5 -96.916)" opacity="0.4"/>
          <path id="Trazado_109220" data-name="Trazado 109220" d="M116.4,254.947a.636.636,0,0,1-.322-.086.758.758,0,0,1-.343-.715v-3.052a1.694,1.694,0,0,1,.786-1.365l2.666-1.537a.715.715,0,0,1,1.108.636v3.08a1.679,1.679,0,0,1-.786,1.365l-2.666,1.544a.893.893,0,0,1-.443.129Zm3.23-6.246a.557.557,0,0,0-.122.05l-2.666,1.537a1.058,1.058,0,0,0-.465.808v3.08a.236.236,0,0,0,0,.129.371.371,0,0,0,.121-.043l2.666-1.544a1.058,1.058,0,0,0,.465-.808v-3.08a.408.408,0,0,0,0-.093Z" transform="translate(-89.923 -132.422)" fill="#455a64"/>
          <path id="Trazado_109221" data-name="Trazado 109221" d="M125.039,245.163l10.506-6.068c.35-.2.629-.043.629.357v.822a1.379,1.379,0,0,1-.629,1.079l-10.506,6.068c-.343.2-.629.043-.629-.357v-.822A1.379,1.379,0,0,1,125.039,245.163Z" transform="translate(-92.399 -129.836)" fill="#e0e0e0"/>
          <path id="Trazado_109222" data-name="Trazado 109222" d="M152.83,233.9a.622.622,0,0,1-.322-.086.758.758,0,0,1-.35-.715v-3.08a1.7,1.7,0,0,1,.793-1.365l2.666-1.537a.7.7,0,0,1,1.108.636v3.08a1.68,1.68,0,0,1-.786,1.365l-2.666,1.544A.893.893,0,0,1,152.83,233.9Zm3.223-6.246a.977.977,0,0,0-.114.05l-2.666,1.537a1.065,1.065,0,0,0-.472.808v3.08a.2.2,0,0,0,0,.129.442.442,0,0,0,.122-.043l2.666-1.544a1.043,1.043,0,0,0,.465-.808v-3.08a.222.222,0,0,0,0-.129Z" transform="translate(-100.314 -126.405)" fill="#455a64"/>
          <path id="Trazado_109223" data-name="Trazado 109223" d="M161.469,224.133l10.506-6.068c.35-.2.629-.043.629.357v.822a1.379,1.379,0,0,1-.629,1.079l-10.506,6.068c-.35.2-.629.043-.629-.357v-.822A1.429,1.429,0,0,1,161.469,224.133Z" transform="translate(-102.792 -123.836)" fill="#e0e0e0"/>
          <path id="Trazado_109224" data-name="Trazado 109224" d="M189.253,212.873a.636.636,0,0,1-.322-.086.772.772,0,0,1-.343-.715v-3.08a1.7,1.7,0,0,1,.786-1.365h0l2.666-1.537a.715.715,0,0,1,1.115.643v3.073a1.687,1.687,0,0,1-.793,1.365l-2.666,1.544A.879.879,0,0,1,189.253,212.873Zm.443-4.66a1.079,1.079,0,0,0-.465.808v3.08a.2.2,0,0,0,0,.129.25.25,0,0,0,.114-.043l2.666-1.544a1.065,1.065,0,0,0,.472-.808v-3.073a.236.236,0,0,0,0-.136.261.261,0,0,0-.122.05Z" transform="translate(-110.708 -120.409)" fill="#455a64"/>
          <path id="Trazado_109225" data-name="Trazado 109225" d="M197.9,203.1l10.506-6.068c.343-.2.629-.043.629.357v.822a1.429,1.429,0,0,1-.629,1.079L197.9,205.362c-.35.2-.629.043-.629-.357v-.822a1.379,1.379,0,0,1,.629-1.079Z" transform="translate(-113.186 -117.836)" fill="#e0e0e0"/>
          <path id="Trazado_109226" data-name="Trazado 109226" d="M125.33,211.658v1.2c0,.658.457.922,1.022.593L187.816,178a2.273,2.273,0,0,0,1.022-1.78v-1.208c0-.65-.457-.915-1.022-.593l-61.464,35.463A2.273,2.273,0,0,0,125.33,211.658Z" transform="translate(-92.661 -111.368)" fill="#e0e0e0"/>
          <path id="Trazado_109227" data-name="Trazado 109227" d="M118.78,198.538v1.2c0,.658.457.922,1.029.593l61.428-35.456a2.259,2.259,0,0,0,1.029-1.78v-1.208c0-.65-.457-.915-1.029-.593L119.809,196.78A2.258,2.258,0,0,0,118.78,198.538Z" transform="translate(-90.792 -107.625)" fill="#455a64"/>
          <path id="Trazado_109228" data-name="Trazado 109228" d="M125.33,221.831v1.208c0,.65.457.915,1.022.593l61.464-35.456a2.273,2.273,0,0,0,1.022-1.78v-1.208c0-.65-.457-.915-1.022-.593l-61.464,35.463A2.273,2.273,0,0,0,125.33,221.831Z" transform="translate(-92.661 -114.272)" fill="#e0e0e0"/>
          <path id="Trazado_109229" data-name="Trazado 109229" d="M115.151,235.146c1.608-1.594,2.008-2.273,2.008-2.859s-.236-.9-.958-.486a2.473,2.473,0,0,0-1.194,1.715l-1.758.393a6.575,6.575,0,0,1,3.009-4.5c1.758-1.015,2.78-.257,2.78,1.429a6.525,6.525,0,0,1-2,4.324v1.394l-1.887,1.086Z" transform="translate(-89.215 -126.966)" fill="#455a64"/>
          <path id="Trazado_109230" data-name="Trazado 109230" d="M115.88,243.357a1.973,1.973,0,0,1,.958-1.708c.629-.365.951-.043.951.607a1.98,1.98,0,0,1-.951,1.722C116.2,244.343,115.88,244,115.88,243.357Z" transform="translate(-89.965 -130.545)" fill="#455a64"/>
          <path id="Trazado_109231" data-name="Trazado 109231" d="M117.218,251.625l.786.593-.715,1.358a.479.479,0,0,0,0,.572c.136.1.329,0,.443-.214l.715-1.351.786.593c.114.086.286,0,.386-.186a.415.415,0,0,0,0-.493l-.786-.593.715-1.358a.479.479,0,0,0,0-.572c-.136-.1-.329,0-.443.214l-.715,1.358-.786-.593c-.114-.086-.286,0-.386.179a.415.415,0,0,0,0,.493Z" transform="translate(-90.323 -132.953)" fill="#d9a171"/>
          <path id="Trazado_109232" data-name="Trazado 109232" d="M116.4,292.908a.629.629,0,0,1-.322-.079.758.758,0,0,1-.343-.715v-3.08a1.679,1.679,0,0,1,.786-1.365l2.666-1.537a.715.715,0,0,1,1.108.636v3.08a1.679,1.679,0,0,1-.786,1.365l-2.666,1.537A.893.893,0,0,1,116.4,292.908Zm3.23-6.239a.314.314,0,0,0-.122.05l-2.666,1.537a1.058,1.058,0,0,0-.465.808v3.08a.236.236,0,0,0,0,.129.372.372,0,0,0,.121-.043l2.666-1.544a1.058,1.058,0,0,0,.465-.808V286.8a.408.408,0,0,0,0-.129Z" transform="translate(-89.923 -143.246)" fill="#455a64"/>
          <path id="Trazado_109233" data-name="Trazado 109233" d="M125.039,283.136l10.506-6.061c.35-.2.629-.043.629.357v.815a1.379,1.379,0,0,1-.629,1.086L125.039,285.4c-.343.2-.629.036-.629-.365v-.815A1.386,1.386,0,0,1,125.039,283.136Z" transform="translate(-92.399 -140.671)" fill="#e0e0e0"/>
          <path id="Trazado_109234" data-name="Trazado 109234" d="M152.83,271.872a.614.614,0,0,1-.322-.079.758.758,0,0,1-.35-.715V268a1.687,1.687,0,0,1,.793-1.365l2.666-1.537a.7.7,0,0,1,1.108.636v3.08a1.68,1.68,0,0,1-.786,1.365l-2.666,1.537a.894.894,0,0,1-.443.157Zm3.223-6.239a.37.37,0,0,0-.114.05l-2.666,1.537a1.065,1.065,0,0,0-.472.808v3.08a.2.2,0,0,0,0,.129.443.443,0,0,0,.121-.043l2.666-1.544a1.058,1.058,0,0,0,.465-.808v-3.08A.221.221,0,0,0,156.054,265.633Z" transform="translate(-100.314 -137.24)" fill="#455a64"/>
          <path id="Trazado_109235" data-name="Trazado 109235" d="M161.469,262.106l10.506-6.061c.35-.2.629-.043.629.357v.815a1.379,1.379,0,0,1-.629,1.086l-10.506,6.068a.39.39,0,0,1-.629-.364v-.815A1.429,1.429,0,0,1,161.469,262.106Z" transform="translate(-102.792 -134.671)" fill="#e0e0e0"/>
          <path id="Trazado_109236" data-name="Trazado 109236" d="M189.253,250.846a.629.629,0,0,1-.322-.079.772.772,0,0,1-.343-.715v-3.08a1.7,1.7,0,0,1,.786-1.365h0l2.666-1.537a.715.715,0,0,1,1.115.636v3.08a1.687,1.687,0,0,1-.793,1.365l-2.666,1.537A.879.879,0,0,1,189.253,250.846Zm.443-4.653a1.079,1.079,0,0,0-.465.808v3.08a.2.2,0,0,0,0,.129.457.457,0,0,0,.114-.043l2.666-1.544a1.065,1.065,0,0,0,.472-.808v-3.08a.222.222,0,0,0,0-.129.444.444,0,0,0-.122.05Z" transform="translate(-110.708 -131.244)" fill="#455a64"/>
          <path id="Trazado_109237" data-name="Trazado 109237" d="M197.9,241.076l10.506-6.061c.343-.2.629-.043.629.357v.815a1.429,1.429,0,0,1-.629,1.086L197.9,243.342c-.35.2-.629.036-.629-.364v-.815A1.379,1.379,0,0,1,197.9,241.076Z" transform="translate(-113.186 -128.671)" fill="#e0e0e0"/>
          <path id="Trazado_109238" data-name="Trazado 109238" d="M125.33,249.631v1.208c0,.65.457.915,1.022.593l61.464-35.456a2.273,2.273,0,0,0,1.022-1.78v-1.208c0-.65-.457-.915-1.022-.593l-61.464,35.463A2.273,2.273,0,0,0,125.33,249.631Z" transform="translate(-92.661 -122.204)" fill="#e0e0e0"/>
          <path id="Trazado_109239" data-name="Trazado 109239" d="M125.33,259.809v1.208c0,.65.457.915,1.022.593l61.464-35.463a2.244,2.244,0,0,0,1.022-1.772v-1.208c0-.658-.457-.922-1.022-.593l-61.464,35.463A2.273,2.273,0,0,0,125.33,259.809Z" transform="translate(-92.661 -125.106)" fill="#e0e0e0"/>
          <path id="Trazado_109240" data-name="Trazado 109240" d="M115.151,273.127c1.608-1.594,2.008-2.273,2.008-2.859s-.236-.9-.958-.486a2.473,2.473,0,0,0-1.194,1.715l-1.758.393a6.575,6.575,0,0,1,3.009-4.5c1.758-1.015,2.78-.257,2.78,1.465a6.525,6.525,0,0,1-2,4.324v1.394l-1.887,1.086Z" transform="translate(-89.215 -137.802)" fill="#455a64"/>
          <path id="Trazado_109241" data-name="Trazado 109241" d="M115.88,281.337a1.973,1.973,0,0,1,.958-1.708c.629-.365.951-.043.951.607a1.987,1.987,0,0,1-.951,1.722C116.2,282.323,115.88,281.995,115.88,281.337Z" transform="translate(-89.965 -141.381)" fill="#455a64"/>
          <path id="Trazado_109242" data-name="Trazado 109242" d="M153.639,268.537l.786.593-.715,1.358a.479.479,0,0,0,0,.572c.129.1.329,0,.443-.214l.715-1.351.786.593c.114.086.286,0,.379-.186a.415.415,0,0,0,0-.493l-.786-.593.715-1.358a.472.472,0,0,0-.036-.572c-.129-.093-.329,0-.443.214l-.715,1.358-.786-.593c-.107-.086-.279,0-.379.179A.407.407,0,0,0,153.639,268.537Z" transform="translate(-100.709 -137.779)" fill="#d9a171"/>
          <path id="Trazado_109243" data-name="Trazado 109243" d="M116.4,330.9a.636.636,0,0,1-.322-.086.715.715,0,0,1-.343-.679v-3.08a1.679,1.679,0,0,1,.786-1.365l2.666-1.537a.715.715,0,0,1,1.108.636v3.08a1.679,1.679,0,0,1-.786,1.365l-2.666,1.537A.894.894,0,0,1,116.4,330.9Zm3.23-6.239a.314.314,0,0,0-.121.05l-2.666,1.537a1.058,1.058,0,0,0-.465.808v3.08a.257.257,0,0,0,0,.129.315.315,0,0,0,.121-.05l2.666-1.537a1.058,1.058,0,0,0,.465-.808v-3.08a.407.407,0,0,0,0-.129Z" transform="translate(-89.924 -154.093)" fill="#455a64"/>
          <path id="Trazado_109244" data-name="Trazado 109244" d="M125.039,321.114l10.506-6.068c.35-.2.629-.036.629.365v.815a1.38,1.38,0,0,1-.629,1.086l-10.506,6.068c-.343.2-.629.036-.629-.365V322.2A1.386,1.386,0,0,1,125.039,321.114Z" transform="translate(-92.399 -151.505)" fill="#e0e0e0"/>
          <path id="Trazado_109245" data-name="Trazado 109245" d="M152.831,309.865a.622.622,0,0,1-.322-.086.715.715,0,0,1-.35-.679v-3.08a1.687,1.687,0,0,1,.793-1.365l2.666-1.537a.758.758,0,0,1,.765-.05.772.772,0,0,1,.343.715v3.08a1.68,1.68,0,0,1-.786,1.365l-2.666,1.537A.893.893,0,0,1,152.831,309.865Zm3.223-6.239a.373.373,0,0,0-.114.05l-2.666,1.537a1.065,1.065,0,0,0-.472.808v3.08a.222.222,0,0,0,0,.129.365.365,0,0,0,.121-.05l2.694-1.537a1.058,1.058,0,0,0,.465-.808v-3.08a.2.2,0,0,0-.029-.129Z" transform="translate(-100.315 -148.089)" fill="#455a64"/>
          <path id="Trazado_109246" data-name="Trazado 109246" d="M161.469,300.085l10.506-6.068c.35-.193.629-.036.629.365v.815a1.379,1.379,0,0,1-.629,1.086l-10.506,6.068c-.35.2-.629.036-.629-.365v-.815A1.429,1.429,0,0,1,161.469,300.085Z" transform="translate(-102.792 -145.506)" fill="#e0e0e0"/>
          <path id="Trazado_109247" data-name="Trazado 109247" d="M189.253,288.834a.636.636,0,0,1-.322-.086.715.715,0,0,1-.343-.679v-3.08a1.679,1.679,0,0,1,.786-1.365h0l2.666-1.537a.715.715,0,0,1,1.129.615v3.08a1.687,1.687,0,0,1-.793,1.365l-2.666,1.537A.879.879,0,0,1,189.253,288.834Zm.443-4.653a1.079,1.079,0,0,0-.465.808v3.08a.221.221,0,0,0,0,.129.372.372,0,0,0,.114-.05l2.666-1.537a1.065,1.065,0,0,0,.472-.808v-3.1a.221.221,0,0,0,0-.129.551.551,0,0,0-.122.043Z" transform="translate(-110.708 -142.088)" fill="#455a64"/>
          <path id="Trazado_109248" data-name="Trazado 109248" d="M197.9,279.057,208.4,272.99a.392.392,0,0,1,.629.365v.815a1.43,1.43,0,0,1-.629,1.086L197.9,281.323c-.35.2-.629.036-.629-.365v-.836A1.379,1.379,0,0,1,197.9,279.057Z" transform="translate(-113.186 -139.509)" fill="#e0e0e0"/>
          <path id="Trazado_109249" data-name="Trazado 109249" d="M125.33,287.61v1.208c0,.65.457.915,1.022.593l61.464-35.463a2.244,2.244,0,0,0,1.022-1.772v-1.208c0-.65-.457-.922-1.022-.593l-61.464,35.463A2.273,2.273,0,0,0,125.33,287.61Z" transform="translate(-92.661 -133.038)" fill="#e0e0e0"/>
          <path id="Trazado_109250" data-name="Trazado 109250" d="M125.33,297.789V299c0,.65.457.915,1.022.586l61.464-35.456a2.258,2.258,0,0,0,1.022-1.772v-1.208c0-.658-.457-.922-1.022-.593l-61.464,35.463A2.258,2.258,0,0,0,125.33,297.789Z" transform="translate(-92.661 -135.942)" fill="#e0e0e0"/>
          <path id="Trazado_109251" data-name="Trazado 109251" d="M115.151,311.106c1.608-1.594,2.008-2.273,2.008-2.859s-.236-.908-.958-.486a2.473,2.473,0,0,0-1.194,1.715l-1.758.386a6.575,6.575,0,0,1,3.009-4.5c1.758-1.015,2.78-.257,2.78,1.429a6.525,6.525,0,0,1-2,4.324v1.394l-1.887,1.086Z" transform="translate(-89.215 -148.637)" fill="#455a64"/>
          <path id="Trazado_109252" data-name="Trazado 109252" d="M115.88,319.316a1.98,1.98,0,0,1,.958-1.715c.629-.357.951-.036.951.615a1.994,1.994,0,0,1-.951,1.722C116.2,320.3,115.88,319.988,115.88,319.316Z" transform="translate(-89.965 -152.216)" fill="#455a64"/>
          <path id="Trazado_109253" data-name="Trazado 109253" d="M190.068,285.485l.779.593-.715,1.358a.472.472,0,0,0,0,.572c.129.1.329,0,.443-.214l.715-1.358.786.593c.114.086.279,0,.379-.179a.407.407,0,0,0,0-.493l-.786-.593.715-1.358a.493.493,0,0,0-.036-.572c-.129-.1-.329,0-.443.214l-.715,1.358-.786-.6c-.114-.086-.286,0-.379.186A.407.407,0,0,0,190.068,285.485Z" transform="translate(-111.1 -142.613)" fill="#d9a171"/>
          <path id="Trazado_109254" data-name="Trazado 109254" d="M116.4,368.875a.636.636,0,0,1-.322-.086.715.715,0,0,1-.343-.679v-3.08a1.68,1.68,0,0,1,.786-1.365l2.666-1.544a.779.779,0,0,1,.765-.043.758.758,0,0,1,.343.715v3.08a1.7,1.7,0,0,1-.786,1.365l-2.666,1.537A.893.893,0,0,1,116.4,368.875Zm3.23-6.239a.371.371,0,0,0-.121.043l-2.666,1.544a1.058,1.058,0,0,0-.465.808v3.08a.257.257,0,0,0,0,.129.556.556,0,0,0,.121-.05l2.666-1.537a1.058,1.058,0,0,0,.465-.808v-3.08a.358.358,0,0,0,0-.129Z" transform="translate(-89.924 -164.924)" fill="#455a64"/>
          <path id="Trazado_109255" data-name="Trazado 109255" d="M125.039,359.094l10.506-6.068c.35-.2.629-.036.629.365v.815a1.379,1.379,0,0,1-.629,1.086l-10.506,6.068a.39.39,0,0,1-.629-.364v-.815A1.386,1.386,0,0,1,125.039,359.094Z" transform="translate(-92.399 -162.34)" fill="#e0e0e0"/>
          <path id="Trazado_109256" data-name="Trazado 109256" d="M152.829,347.832a.623.623,0,0,1-.322-.086.715.715,0,0,1-.35-.715v-3.08a1.687,1.687,0,0,1,.793-1.365l2.666-1.544a.715.715,0,0,1,1.108.643v3.08a1.68,1.68,0,0,1-.786,1.365l-2.666,1.537A.893.893,0,0,1,152.829,347.832Zm3.223-6.239a.457.457,0,0,0-.114.043l-2.666,1.544a1.065,1.065,0,0,0-.472.808v3.08a.221.221,0,0,0,0,.129.783.783,0,0,0,.121-.05l2.666-1.537a1.058,1.058,0,0,0,.465-.808v-3.109a.2.2,0,0,0,0-.1Z" transform="translate(-100.313 -158.912)" fill="#455a64"/>
          <path id="Trazado_109257" data-name="Trazado 109257" d="M161.469,338.066,171.975,332a.39.39,0,0,1,.629.365v.815a1.379,1.379,0,0,1-.629,1.086l-10.506,6.068c-.35.2-.629.036-.629-.365v-.843a1.429,1.429,0,0,1,.629-1.058Z" transform="translate(-102.792 -156.343)" fill="#e0e0e0"/>
          <path id="Trazado_109258" data-name="Trazado 109258" d="M189.253,326.815a.636.636,0,0,1-.322-.086.715.715,0,0,1-.343-.679v-3.08a1.679,1.679,0,0,1,.786-1.365h0l2.666-1.544a.793.793,0,0,1,.772-.043.772.772,0,0,1,.343.715v3.08a1.7,1.7,0,0,1-.793,1.365l-2.666,1.537a.879.879,0,0,1-.443.1Zm.443-4.653a1.079,1.079,0,0,0-.465.808v3.08a.221.221,0,0,0,0,.129.972.972,0,0,0,.114-.05l2.666-1.537a1.065,1.065,0,0,0,.472-.808V320.7a.2.2,0,0,0,0-.129.55.55,0,0,0-.121.043Z" transform="translate(-110.708 -152.925)" fill="#455a64"/>
          <path id="Trazado_109259" data-name="Trazado 109259" d="M197.9,317.034l10.506-6.068c.343-.2.629-.036.629.365v.815a1.43,1.43,0,0,1-.629,1.086L197.9,319.3a.39.39,0,0,1-.629-.364v-.822A1.379,1.379,0,0,1,197.9,317.034Z" transform="translate(-113.186 -150.341)" fill="#e0e0e0"/>
          <path id="Trazado_109260" data-name="Trazado 109260" d="M125.33,325.589V326.8c0,.65.457.915,1.022.586l61.464-35.456a2.258,2.258,0,0,0,1.022-1.772v-1.208c0-.658-.457-.922-1.022-.593l-61.464,35.463A2.258,2.258,0,0,0,125.33,325.589Z" transform="translate(-92.661 -143.873)" fill="#e0e0e0"/>
          <path id="Trazado_109261" data-name="Trazado 109261" d="M125.33,335.769v1.208c0,.65.457.915,1.022.586l61.464-35.456a2.273,2.273,0,0,0,1.022-1.772v-1.208c0-.658-.457-.922-1.022-.593L126.352,334A2.259,2.259,0,0,0,125.33,335.769Z" transform="translate(-92.661 -146.778)" fill="#e0e0e0"/>
          <path id="Trazado_109262" data-name="Trazado 109262" d="M115.151,349.087c1.608-1.594,2.008-2.273,2.008-2.859s-.236-.908-.958-.486a2.473,2.473,0,0,0-1.194,1.708l-1.758.393a6.575,6.575,0,0,1,3.009-4.5c1.758-1.015,2.78-.257,2.78,1.465a6.525,6.525,0,0,1-2,4.324v1.394l-1.887,1.086Z" transform="translate(-89.215 -159.473)" fill="#455a64"/>
          <path id="Trazado_109263" data-name="Trazado 109263" d="M115.88,357.256a1.98,1.98,0,0,1,.958-1.715c.629-.357.951-.043.951.615a1.973,1.973,0,0,1-.951,1.715C116.2,358.271,115.88,357.97,115.88,357.256Z" transform="translate(-89.965 -163.04)" fill="#455a64"/>
          <path id="Trazado_109264" data-name="Trazado 109264" d="M190.068,323.625l.779.593-.715,1.358a.472.472,0,0,0,0,.572c.129.1.329,0,.443-.214l.715-1.358.786.6c.114.086.279,0,.379-.186a.407.407,0,0,0,0-.493l-.786-.593.715-1.358a.493.493,0,0,0-.036-.572c-.129-.1-.329,0-.443.214l-.715,1.358-.786-.6c-.114-.079-.286,0-.379.186a.407.407,0,0,0,.043.493Z" transform="translate(-111.1 -153.495)" fill="#d9a171"/>
        </g>
      </g>
      <g id="freepik--sad-face--inject-71" transform="translate(176.227 121.104)">
        <g id="freepik--sad-face--inject-71-2" data-name="freepik--sad-face--inject-71">
          <path id="Trazado_109265" data-name="Trazado 109265" d="M275.584,160.862l-5.253-3.03h0l-.05-.036h0c-2.616-1.479-6.2-1.258-10.163,1.036a28.953,28.953,0,0,0-9.656,9.841,30.04,30.04,0,0,0-4.8,15.2c0,4.61,1.608,7.862,4.217,9.355h0l5.339,3.052c2.63,1.68,6.354,1.529,10.477-.85,7.99-4.617,14.466-15.831,14.466-25.05C280.151,165.6,278.393,162.292,275.584,160.862Z" transform="translate(-245.653 -156.86)" fill="#d9a171"/>
          <path id="Trazado_109266" data-name="Trazado 109266" d="M255.1,201l-5.232-2.995h0c-2.609-1.515-4.217-4.753-4.217-9.355a30.041,30.041,0,0,1,4.8-15.2l5.582,3.223a29.992,29.992,0,0,0-4.8,15.187C251.217,196.235,252.69,199.386,255.1,201Z" transform="translate(-245.65 -161.593)" opacity="0.1"/>
          <path id="Trazado_109267" data-name="Trazado 109267" d="M277.386,160.812c-2.573-1.251-6.011-.936-9.791,1.244a28.66,28.66,0,0,0-9.663,9.863L252.35,168.7a28.826,28.826,0,0,1,9.656-9.841c3.967-2.294,7.547-2.509,10.163-1.036h0l.05.036h0Z" transform="translate(-247.562 -156.867)" fill="#fff" opacity="0.4"/>
          <path id="Trazado_109268" data-name="Trazado 109268" d="M268.114,180.876a3.616,3.616,0,0,1-1.372,2.9c-.758.436-1.372-.15-1.372-1.315a3.617,3.617,0,0,1,1.372-2.9C267.5,179.118,268.114,179.711,268.114,180.876Z" transform="translate(-251.276 -163.295)" fill="#455a64"/>
          <path id="Trazado_109269" data-name="Trazado 109269" d="M279.044,174.568a3.616,3.616,0,0,1-1.372,2.9c-.758.436-1.372-.15-1.372-1.315a3.617,3.617,0,0,1,1.372-2.9C278.43,172.817,279.044,173.4,279.044,174.568Z" transform="translate(-254.394 -161.495)" fill="#455a64"/>
          <path id="Trazado_109270" data-name="Trazado 109270" d="M262.365,199.822a.65.65,0,0,1-.164,0,.779.779,0,0,1-.607-.929c1.244-5.911,4.41-11.085,8.062-13.193a5.718,5.718,0,0,1,5.1-.615c1.722.715,3.052,2.437,3.738,4.881a.793.793,0,0,1-1.522.422,5.489,5.489,0,0,0-2.809-3.845,4.231,4.231,0,0,0-3.709.529c-3.23,1.865-6.168,6.747-7.3,12.15A.793.793,0,0,1,262.365,199.822Z" transform="translate(-250.193 -164.815)" fill="#455a64"/>
        </g>
      </g>
      <g id="freepik--happy-face--inject-71" transform="translate(176.227 75.395)">
        <g id="freepik--happy-face--inject-71-2" data-name="freepik--happy-face--inject-71">
          <path id="Trazado_109271" data-name="Trazado 109271" d="M275.584,96.9l-5.253-3.03h-.05c-2.616-1.479-6.2-1.258-10.163,1.036a28.953,28.953,0,0,0-9.656,9.841,30.04,30.04,0,0,0-4.8,15.2c0,4.61,1.608,7.862,4.217,9.355h0l5.339,3.052c2.63,1.68,6.354,1.529,10.477-.85,7.99-4.617,14.466-15.831,14.466-25.014C280.151,101.635,278.393,98.326,275.584,96.9Z" transform="translate(-245.653 -92.911)" fill="#d9a171"/>
          <path id="Trazado_109272" data-name="Trazado 109272" d="M255.1,137l-5.232-2.995h0c-2.609-1.515-4.217-4.753-4.217-9.355a30.041,30.041,0,0,1,4.8-15.2l5.582,3.223a29.992,29.992,0,0,0-4.8,15.187C251.217,132.249,252.69,135.4,255.1,137Z" transform="translate(-245.65 -97.625)" opacity="0.1"/>
          <path id="Trazado_109273" data-name="Trazado 109273" d="M277.386,96.832c-2.573-1.251-6.011-.936-9.791,1.244a28.66,28.66,0,0,0-9.663,9.863l-5.582-3.223a28.826,28.826,0,0,1,9.656-9.841c3.967-2.294,7.547-2.509,10.163-1.036h.05Z" transform="translate(-247.562 -92.904)" fill="#fff" opacity="0.4"/>
          <path id="Trazado_109274" data-name="Trazado 109274" d="M266.682,132.178a5.2,5.2,0,0,1-1.98-.386c-1.865-.765-3.295-2.63-4.031-5.267a.851.851,0,0,1,1.637-.457c.593,2.144,1.672,3.574,3.037,4.152a4.553,4.553,0,0,0,4.017-.565c3.481-2.008,6.654-7.283,7.862-13.115a.851.851,0,1,1,1.665.35c-1.344,6.375-4.76,11.964-8.7,14.244A7.147,7.147,0,0,1,266.682,132.178Z" transform="translate(-249.929 -99.455)" fill="#455a64"/>
          <path id="Trazado_109275" data-name="Trazado 109275" d="M267.689,118.26a3.924,3.924,0,0,1-1.479,3.138c-.822.472-1.479-.164-1.479-1.429a3.888,3.888,0,0,1,1.479-3.13C267.024,116.366,267.689,117,267.689,118.26Z" transform="translate(-251.093 -99.688)" fill="#455a64"/>
          <path id="Trazado_109276" data-name="Trazado 109276" d="M279.489,111.448a3.91,3.91,0,0,1-1.479,3.13c-.815.472-1.479-.164-1.479-1.429a3.909,3.909,0,0,1,1.479-3.13C278.824,109.547,279.489,110.19,279.489,111.448Z" transform="translate(-254.46 -97.743)" fill="#455a64"/>
        </g>
      </g>
      <g id="freepik--Chart--inject-71" transform="translate(173.332 158.595)">
        <g id="freepik--chart--inject-71-2" data-name="freepik--chart--inject-71">
          <path id="Trazado_109277" data-name="Trazado 109277" d="M285.175,258.8,247.3,280.675a2.709,2.709,0,0,1-2.459,0l-2.008-1.165a2.716,2.716,0,0,1-1.229-2.144v-43.74a2.716,2.716,0,0,1,1.229-2.144l37.879-21.87a2.7,2.7,0,0,1,2.451,0l2.008,1.172a2.7,2.7,0,0,1,1.229,2.144v43.747a2.716,2.716,0,0,1-1.222,2.13Z" transform="translate(-241.6 -209.317)" fill="#6595bf"/>
          <path id="Trazado_109278" data-name="Trazado 109278" d="M247.092,289.984a2.745,2.745,0,0,1-2.251-.093l-2.008-1.172a2.694,2.694,0,0,1-1.222-2.144v-43.74a2.452,2.452,0,0,1,.357-1.215l4.46,2.594a2.5,2.5,0,0,0-.357,1.208v43.74C246.07,289.884,246.506,290.212,247.092,289.984Z" transform="translate(-241.603 -218.533)" fill="#6595bf"/>
          <path id="Trazado_109279" data-name="Trazado 109279" d="M286.958,259.9l-37.879,21.87c-.679.393-1.229.079-1.229-.715V237.347a2.716,2.716,0,0,1,1.229-2.144l37.879-21.87c.679-.393,1.229-.071,1.229.715v43.747A2.716,2.716,0,0,1,286.958,259.9Z" transform="translate(-243.383 -210.415)" fill="#aed3f2"/>
          <path id="Trazado_109280" data-name="Trazado 109280" d="M270.512,259.507l-10.292,14.58c4.545,4.6,13.293,1.143,19.54-7.712,3.752-5.31,5.768-11.042,5.768-16.4l-12.457,7.161A9.712,9.712,0,0,0,270.512,259.507Z" transform="translate(-246.912 -220.918)" fill="#d9a171" fill-rule="evenodd"/>
          <path id="Trazado_109281" data-name="Trazado 109281" d="M270.512,259.507l-10.292,14.58c4.545,4.6,13.293,1.143,19.54-7.712,3.752-5.31,5.768-11.042,5.768-16.4l-12.457,7.161A9.712,9.712,0,0,0,270.512,259.507Z" transform="translate(-246.912 -220.918)" fill-rule="evenodd" opacity="0.3"/>
          <path id="Trazado_109282" data-name="Trazado 109282" d="M259.442,273.458l10.292-14.58h0a10.2,10.2,0,0,1,2.759-2.523l12.457-7.19a.643.643,0,0,1,.965.557c0,5.517-2.037,11.321-5.882,16.767-4.138,5.861-9.455,9.591-14.223,10.006a7.669,7.669,0,0,1-6.3-2.194.643.643,0,0,1-.1-.772A.129.129,0,0,1,259.442,273.458ZM284.6,250.852l-11.435,6.618a8.913,8.913,0,0,0-2.358,2.144l-9.97,14.115a6.511,6.511,0,0,0,4.889,1.429c4.331-.357,9.42-3.974,13.272-9.441.658-.922,1.251-1.858,1.794-2.795A27.223,27.223,0,0,0,284.6,250.852Z" transform="translate(-246.656 -220.662)" fill="#fff"/>
          <path id="Trazado_109283" data-name="Trazado 109283" d="M269.906,254.465l-3.766-11.185c-7.347,7-11.371,18.432-8.984,25.536a8.24,8.24,0,0,0,1.987,3.359l10.292-14.58A3.924,3.924,0,0,0,269.906,254.465Z" transform="translate(-245.842 -219.007)" fill="#d9a171" fill-rule="evenodd"/>
          <path id="Trazado_109284" data-name="Trazado 109284" d="M265.463,242.557a.636.636,0,0,1,.593-.164.665.665,0,0,1,.457.422L270.272,254a4.61,4.61,0,0,1-.543,3.709l-10.263,14.58a.665.665,0,0,1-.472.264.629.629,0,0,1-.515-.186,8.9,8.9,0,0,1-2.144-3.573c-1.737-5.167-.193-12.557,3.509-18.968a32.162,32.162,0,0,1,5.618-7.268Zm3.216,14.408a3.281,3.281,0,0,0,.372-2.559h0L265.62,244.2c-6.7,6.875-10.32,17.51-8.09,24.157a7.94,7.94,0,0,0,1.322,2.523Z" transform="translate(-245.601 -218.749)" fill="#fff"/>
          <path id="Trazado_109285" data-name="Trazado 109285" d="M275.356,252.6l10.292-14.58c-3.631-3.674-9.763-2.437-15.638,3.166l3.759,11.185C274.077,253.3,274.791,253.4,275.356,252.6Z" transform="translate(-249.705 -216.908)" fill="#d9a171" fill-rule="evenodd"/>
          <path id="Trazado_109286" data-name="Trazado 109286" d="M275.356,252.6l10.292-14.58c-3.631-3.674-9.763-2.437-15.638,3.166l3.759,11.185C274.077,253.3,274.791,253.4,275.356,252.6Z" transform="translate(-249.705 -216.908)" fill-rule="evenodd" opacity="0.1"/>
          <path id="Trazado_109287" data-name="Trazado 109287" d="M269.309,240.46c6.146-5.861,12.643-7.1,16.538-3.152a.643.643,0,0,1,.071.822l-10.3,14.58a1.429,1.429,0,0,1-2.723-.4l-3.759-11.185a.636.636,0,0,1,.057-.522A.443.443,0,0,1,269.309,240.46Zm15.23-2.594c-3.338-2.859-8.755-1.637-14.051,3.259l3.631,10.792a1.221,1.221,0,0,0,.172.336.715.715,0,0,0,.279-.272Z" transform="translate(-249.447 -216.651)" fill="#fff"/>
          <path id="Trazado_109288" data-name="Trazado 109288" d="M277.872,253.972l12.457-7.147c0-3.573-.858-6.111-2.673-7.955l-10.292,14.58C276.8,254.236,277.015,254.486,277.872,253.972Z" transform="translate(-251.714 -217.749)" fill="#d9a171" fill-rule="evenodd"/>
          <path id="Trazado_109289" data-name="Trazado 109289" d="M277.872,253.972l12.457-7.147c0-3.573-.858-6.111-2.673-7.955l-10.292,14.58C276.8,254.236,277.015,254.486,277.872,253.972Z" transform="translate(-251.714 -217.749)" fill-rule="evenodd" opacity="0.2"/>
          <path id="Trazado_109290" data-name="Trazado 109290" d="M276.576,252.8l10.3-14.58a.636.636,0,0,1,.472-.264.622.622,0,0,1,.507.186c1.951,1.973,2.859,4.646,2.859,8.4a.643.643,0,0,1-.322.557l-12.45,7.19c-.272.157-1.086.629-1.587.079a1.058,1.058,0,0,1,0-1.279Zm10.9-13.172L278.319,252.6l11.121-6.432A10.552,10.552,0,0,0,287.475,239.631Z" transform="translate(-251.454 -217.488)" fill="#fff"/>
        </g>
      </g>
      <g id="freepik--speech-bubbles--inject-71" transform="translate(224.833 31.533)">
        <g id="freepik--speach-bubbles--inject-71">
          <path id="Trazado_109291" data-name="Trazado 109291" d="M385.2,186.314a4.681,4.681,0,0,0-4.224.079L315.843,224a4.81,4.81,0,0,0-2.144,3.774v18.582a4.088,4.088,0,0,0,6.261,3.616L385.1,212.365a4.81,4.81,0,0,0,2.144-3.774V190.009A4.674,4.674,0,0,0,385.2,186.314Z" transform="translate(-313.67 -75.559)" fill="#6595bf"/>
          <path id="Trazado_109292" data-name="Trazado 109292" d="M387.464,189.581c-.179-1.1-1.072-1.487-2.144-.858L358.161,204.4l-37.979,21.927a4.446,4.446,0,0,0-1.544,1.622l-4.088-2.358a4.509,4.509,0,0,1,1.537-1.63l65.138-37.6a4.067,4.067,0,0,1,6.239,3.223Z" transform="translate(-313.914 -75.524)" fill="#6595bf"/>
          <path id="Trazado_109293" data-name="Trazado 109293" d="M319.37,231.173v18.582c0,1.387.979,1.951,2.18,1.258l65.138-37.607a4.81,4.81,0,0,0,2.144-3.774V191.05c0-1.387-.972-1.951-2.144-1.258l-27.159,15.68L321.543,227.4A4.817,4.817,0,0,0,319.37,231.173Z" transform="translate(-315.289 -76.6)" fill="#577b9a"/>
          <g id="freepik--stars--inject-71" transform="translate(10.117 124.118)">
            <path id="Trazado_109294" data-name="Trazado 109294" d="M332.858,243.938l1.065,2.258a.25.25,0,0,0,.343.136l2.38-.908c.379-.15.529.386.257.9l-1.722,3.23a1.108,1.108,0,0,0-.136.615l.407,2.93c.064.465-.329,1.072-.665,1.029l-2.144-.264a.536.536,0,0,0-.429.25l-2.144,2.723c-.336.429-.715.272-.665-.264l.407-3.395a.507.507,0,0,0-.136-.465l-1.722-1.244c-.272-.2-.122-.908.257-1.194l2.38-1.837a1.058,1.058,0,0,0,.343-.536L332,244.417C332.236,243.867,332.686,243.588,332.858,243.938Z" transform="translate(-327.816 -216.206)" fill="#d9a171"/>
            <path id="Trazado_109295" data-name="Trazado 109295" d="M349.716,234.3l1.065,2.258a.243.243,0,0,0,.343.136l2.38-.908c.379-.15.529.386.257.9l-1.7,3.23a1.122,1.122,0,0,0-.136.622l.407,2.923c.064.465-.329,1.072-.665,1.029l-2.144-.257a.507.507,0,0,0-.429.243L346.95,247.2c-.336.429-.715.279-.665-.264l.407-3.395a.507.507,0,0,0-.136-.465l-1.722-1.244c-.272-.2-.122-.9.257-1.194l2.38-1.837a1.057,1.057,0,0,0,.343-.536l1.065-3.488C349.059,234.218,349.545,233.939,349.716,234.3Z" transform="translate(-332.632 -213.454)" fill="#d9a171"/>
            <path id="Trazado_109296" data-name="Trazado 109296" d="M366.558,224.655l1.065,2.258a.25.25,0,0,0,.343.136l2.38-.915c.379-.143.529.386.257.9l-1.722,3.23a1.136,1.136,0,0,0-.136.622l.407,2.923c.064.465-.329,1.079-.665,1.036l-2.144-.264a.536.536,0,0,0-.429.25l-2.144,2.716c-.336.436-.715.279-.665-.257l.407-3.395a.522.522,0,0,0-.136-.472l-1.722-1.244c-.272-.193-.122-.9.257-1.194l2.38-1.837a1.058,1.058,0,0,0,.343-.536l1.065-3.488C365.9,224.576,366.386,224.29,366.558,224.655Z" transform="translate(-337.431 -210.702)" fill="#d9a171"/>
            <path id="Trazado_109297" data-name="Trazado 109297" d="M383.408,215.008l1.065,2.258a.25.25,0,0,0,.343.136l2.38-.915c.379-.143.529.386.257.9l-1.722,3.23a1.136,1.136,0,0,0-.136.622l.407,2.923c.064.465-.329,1.079-.665,1.036l-2.144-.264a.536.536,0,0,0-.429.25L380.62,227.9c-.336.436-.715.279-.665-.257l.407-3.395a.507.507,0,0,0-.136-.465l-1.722-1.244c-.272-.2-.121-.908.257-1.2l2.38-1.83a1.122,1.122,0,0,0,.343-.536l1.065-3.488C382.75,214.958,383.236,214.651,383.408,215.008Z" transform="translate(-342.238 -207.953)" fill="#d9a171"/>
            <path id="Trazado_109298" data-name="Trazado 109298" d="M400.269,205.357l1.065,2.258a.25.25,0,0,0,.343.136l2.38-.908c.379-.15.529.386.257.9l-1.722,3.23a1.108,1.108,0,0,0-.136.615l.407,2.93c.064.465-.329,1.072-.665,1.029l-2.144-.264a.536.536,0,0,0-.429.25l-2.144,2.723c-.336.429-.715.272-.665-.264l.407-3.395a.507.507,0,0,0-.136-.465l-1.694-1.215c-.272-.2-.122-.908.257-1.194l2.38-1.837a1.058,1.058,0,0,0,.343-.536l1.065-3.488C399.611,205.278,400.076,205,400.269,205.357Z" transform="translate(-347.057 -205.198)" fill="#d9a171"/>
          </g>
          <path id="Trazado_109299" data-name="Trazado 109299" d="M330.6,225.544l-3.574-2.058a.386.386,0,0,1-.172-.15l-.658-1.143,2.144-1.222-.064.186Z" transform="translate(-317.238 -85.579)" fill="#d9a171"/>
          <path id="Trazado_109300" data-name="Trazado 109300" d="M330.6,225.544l-3.574-2.058a.386.386,0,0,1-.172-.15l-.658-1.143,2.144-1.222-.064.186Z" transform="translate(-317.238 -85.579)" opacity="0.2"/>
          <path id="Trazado_109301" data-name="Trazado 109301" d="M328.73,219.892l2.473,4.288a.364.364,0,0,0,.665-.064l2.609-7.526Z" transform="translate(-317.959 -84.33)" fill="#d9a171"/>
          <path id="Trazado_109302" data-name="Trazado 109302" d="M386.814,136.248a3.788,3.788,0,0,0-1.722-2.98h0a3.845,3.845,0,0,0-3.445,0l-66.224,38.215a3.817,3.817,0,0,0-1.722,2.987v21.8a3.817,3.817,0,0,0,1.722,2.987h0a3.8,3.8,0,0,0,3.445,0l66.388-38.322a2.671,2.671,0,0,0,1.565-2.859Z" transform="translate(-313.671 -60.442)" fill="#d9a171"/>
          <path id="Trazado_109303" data-name="Trazado 109303" d="M313.66,212.189a3.817,3.817,0,0,0,1.722,2.987h0a3.838,3.838,0,0,0,3.152.15c-.808.307-1.429-.157-1.429-1.143V192.378a3.467,3.467,0,0,1,.507-1.694l-3.452-1.994a3.574,3.574,0,0,0-.5,1.7Z" transform="translate(-313.66 -76.37)" opacity="0.2"/>
          <path id="Trazado_109304" data-name="Trazado 109304" d="M386.926,135.76c-.2-.715-.872-.965-1.665-.507L319.03,173.467a3.409,3.409,0,0,0-1.215,1.286l-3.445-1.994a3.573,3.573,0,0,1,1.215-1.286l66.224-38.208a3.8,3.8,0,0,1,3.445,0h0A3.788,3.788,0,0,1,386.926,135.76Z" transform="translate(-313.863 -60.44)" fill="#fff" opacity="0.4"/>
          <path id="Trazado_109305" data-name="Trazado 109305" d="M324.583,180.586l59.47-34.406c.579-.329,1.051-.179,1.051.343a2.08,2.08,0,0,1-1.051,1.544l-59.47,34.384c-.572.336-1.043.186-1.043-.336A2.094,2.094,0,0,1,324.583,180.586Z" transform="translate(-316.479 -64.192)" fill="#fff"/>
          <path id="Trazado_109306" data-name="Trazado 109306" d="M324.583,196.174l51.008-29.446c.579-.336,1.043-.186,1.043.336a2.094,2.094,0,0,1-1.043,1.551l-51.008,29.438c-.572.336-1.043.179-1.043-.343A2.144,2.144,0,0,1,324.583,196.174Z" transform="translate(-316.479 -70.053)" fill="#fff"/>
          <path id="Trazado_109307" data-name="Trazado 109307" d="M324.583,201.106l58.255-33.677c.572-.336,1.043-.179,1.043.343a2.144,2.144,0,0,1-1.043,1.544l-58.255,33.669c-.572.336-1.043.186-1.043-.336a2.094,2.094,0,0,1,1.043-1.544Z" transform="translate(-316.479 -70.254)" fill="#fff"/>
          <path id="Trazado_109308" data-name="Trazado 109308" d="M324.583,187.486l58.255-33.677c.572-.336,1.043-.179,1.043.343a2.1,2.1,0,0,1-1.043,1.544L324.583,189.4c-.572.329-1.043.179-1.043-.343a2.094,2.094,0,0,1,1.043-1.572Z" transform="translate(-316.479 -66.368)" fill="#fff"/>
          <path id="Trazado_109309" data-name="Trazado 109309" d="M385.2,85a4.681,4.681,0,0,0-4.224.079l-65.138,37.6a4.831,4.831,0,0,0-2.144,3.774v18.582a4.088,4.088,0,0,0,6.261,3.616L385.1,111.048a4.81,4.81,0,0,0,2.144-3.774V88.692A4.674,4.674,0,0,0,385.2,85Z" transform="translate(-313.67 -46.656)" fill="#6595bf"/>
          <path id="Trazado_109310" data-name="Trazado 109310" d="M387.464,88.271c-.179-1.1-1.072-1.487-2.144-.865l-27.159,15.673-37.979,21.927a4.524,4.524,0,0,0-1.544,1.63l-4.088-2.359a4.452,4.452,0,0,1,1.537-1.63l65.138-37.6a4.067,4.067,0,0,1,6.239,3.223Z" transform="translate(-313.914 -46.62)" fill="#6595bf"/>
          <path id="Trazado_109311" data-name="Trazado 109311" d="M319.37,129.863v18.582c0,1.387.979,1.951,2.18,1.258L386.687,112.1a4.81,4.81,0,0,0,2.144-3.774V89.74c0-1.387-.972-1.951-2.144-1.258l-27.159,15.673-37.986,21.934a4.817,4.817,0,0,0-2.173,3.774Z" transform="translate(-315.289 -47.696)" fill="#577b9a"/>
          <g id="freepik--stars--inject-71-2" data-name="freepik--stars--inject-71" transform="translate(10.117 51.712)">
            <path id="Trazado_109312" data-name="Trazado 109312" d="M332.858,142.636l1.065,2.258a.25.25,0,0,0,.343.136l2.38-.915c.379-.143.529.393.257.9l-1.722,3.23a1.136,1.136,0,0,0-.136.622l.407,2.923c.064.465-.329,1.079-.665,1.036l-2.144-.264a.536.536,0,0,0-.429.25l-2.144,2.716c-.336.436-.715.279-.665-.257l.407-3.395a.507.507,0,0,0-.136-.465l-1.722-1.244c-.272-.2-.122-.908.257-1.2l2.38-1.83a1.093,1.093,0,0,0,.343-.536L332,143.115C332.236,142.558,332.686,142.279,332.858,142.636Z" transform="translate(-327.816 -114.897)" fill="#d9a171"/>
            <path id="Trazado_109313" data-name="Trazado 109313" d="M349.716,132.986l1.065,2.258a.25.25,0,0,0,.343.136l2.38-.908c.379-.15.529.386.257.9l-1.7,3.23a1.108,1.108,0,0,0-.136.615l.407,2.93c.064.465-.329,1.072-.665,1.029l-2.144-.264a.536.536,0,0,0-.429.25l-2.144,2.723c-.336.429-.715.279-.665-.264l.407-3.395a.507.507,0,0,0-.136-.465l-1.722-1.244c-.272-.2-.122-.908.257-1.194l2.38-1.837a1.058,1.058,0,0,0,.343-.536l1.065-3.488C349.059,132.908,349.545,132.629,349.716,132.986Z" transform="translate(-332.632 -112.144)" fill="#d9a171"/>
            <path id="Trazado_109314" data-name="Trazado 109314" d="M366.558,123.337l1.065,2.266a.25.25,0,0,0,.343.136l2.38-.915c.379-.143.529.386.257.9l-1.722,3.23a1.121,1.121,0,0,0-.136.622l.407,2.923c.064.465-.329,1.072-.665,1.036l-2.144-.264a.507.507,0,0,0-.429.243l-2.144,2.723c-.336.429-.715.279-.665-.264l.407-3.395a.515.515,0,0,0-.136-.465l-1.722-1.244c-.272-.193-.122-.9.257-1.194l2.38-1.837a1.058,1.058,0,0,0,.343-.536l1.065-3.488C365.9,123.265,366.386,122.979,366.558,123.337Z" transform="translate(-337.431 -109.392)" fill="#d9a171"/>
            <path id="Trazado_109315" data-name="Trazado 109315" d="M383.416,113.695l1.065,2.258a.25.25,0,0,0,.343.136l2.38-.915c.379-.143.529.386.257.9l-1.722,3.23a1.136,1.136,0,0,0-.136.622l.407,2.923c.064.465-.329,1.079-.665,1.036l-2.144-.264a.536.536,0,0,0-.429.25l-2.144,2.716c-.336.436-.715.279-.665-.257l.407-3.395a.522.522,0,0,0-.114-.493l-1.722-1.244c-.272-.193-.122-.9.257-1.194l2.38-1.83a1.115,1.115,0,0,0,.343-.543l1.065-3.488C382.759,113.616,383.245,113.33,383.416,113.695Z" transform="translate(-342.247 -106.639)" fill="#d9a171"/>
            <path id="Trazado_109316" data-name="Trazado 109316" d="M400.258,104.047l1.065,2.258a.25.25,0,0,0,.343.136l2.38-.915c.379-.143.529.393.257.9l-1.722,3.259a1.136,1.136,0,0,0-.136.622l.407,2.923c.064.465-.329,1.079-.665,1.036L400.043,114a.536.536,0,0,0-.429.25l-2.144,2.716c-.336.436-.715.279-.665-.257l.407-3.395a.507.507,0,0,0-.136-.465l-1.722-1.244c-.272-.2-.122-.908.257-1.2l2.38-1.83a1.058,1.058,0,0,0,.343-.536l1.065-3.488C399.6,103.968,400.065,103.689,400.258,104.047Z" transform="translate(-347.045 -103.888)" fill="#455a64"/>
          </g>
          <path id="Trazado_109317" data-name="Trazado 109317" d="M330.6,124.234l-3.574-2.058a.386.386,0,0,1-.171-.15l-.658-1.144,2.144-1.222-.064.186Z" transform="translate(-317.238 -56.676)" fill="#d9a171"/>
          <path id="Trazado_109318" data-name="Trazado 109318" d="M330.6,124.234l-3.574-2.058a.386.386,0,0,1-.171-.15l-.658-1.144,2.144-1.222-.064.186Z" transform="translate(-317.238 -56.676)" opacity="0.2"/>
          <path id="Trazado_109319" data-name="Trazado 109319" d="M328.73,118.582l2.473,4.288a.364.364,0,0,0,.665-.064l2.609-7.526Z" transform="translate(-317.959 -55.426)" fill="#d9a171"/>
          <path id="Trazado_109320" data-name="Trazado 109320" d="M386.8,34.933a3.816,3.816,0,0,0-1.722-2.987h0a3.8,3.8,0,0,0-3.445,0L315.382,70.16a3.817,3.817,0,0,0-1.722,2.987v21.8a3.817,3.817,0,0,0,1.722,2.987h0a3.8,3.8,0,0,0,3.445,0L385.216,59.6a2.663,2.663,0,0,0,1.565-2.859Z" transform="translate(-313.66 -31.533)" fill="#d9a171"/>
          <path id="Trazado_109321" data-name="Trazado 109321" d="M313.66,110.879a3.817,3.817,0,0,0,1.722,2.987h0a3.809,3.809,0,0,0,3.152.143c-.808.307-1.429-.15-1.429-1.136V91.068a3.517,3.517,0,0,1,.507-1.7L314.16,87.38a3.574,3.574,0,0,0-.5,1.7Z" transform="translate(-313.66 -47.466)" opacity="0.2"/>
          <path id="Trazado_109322" data-name="Trazado 109322" d="M386.926,34.449c-.2-.715-.872-.965-1.665-.507L319.03,72.156a3.409,3.409,0,0,0-1.215,1.286l-3.445-1.994a3.573,3.573,0,0,1,1.215-1.286l66.224-38.215a3.845,3.845,0,0,1,3.445,0h0a3.788,3.788,0,0,1,1.672,2.5Z" transform="translate(-313.863 -31.535)" fill="#fff" opacity="0.4"/>
          <path id="Trazado_109323" data-name="Trazado 109323" d="M324.583,79.269l59.47-34.4c.579-.329,1.051-.179,1.051.343a2.08,2.08,0,0,1-1.051,1.544l-59.47,34.4c-.572.336-1.043.186-1.043-.336a2.144,2.144,0,0,1,1.043-1.551Z" transform="translate(-316.479 -35.288)" fill="#fff"/>
          <path id="Trazado_109324" data-name="Trazado 109324" d="M324.583,94.854l51.008-29.446c.579-.336,1.043-.186,1.043.336a2.073,2.073,0,0,1-1.043,1.544L324.583,96.741c-.572.329-1.043.179-1.043-.343A2.1,2.1,0,0,1,324.583,94.854Z" transform="translate(-316.479 -41.146)" fill="#fff"/>
          <path id="Trazado_109325" data-name="Trazado 109325" d="M324.583,99.789l58.255-33.669c.572-.336,1.043-.179,1.043.336a2.144,2.144,0,0,1-1.043,1.551l-58.255,33.669c-.572.336-1.043.186-1.043-.336a2.144,2.144,0,0,1,1.043-1.551Z" transform="translate(-316.479 -41.35)" fill="#fff"/>
          <path id="Trazado_109326" data-name="Trazado 109326" d="M324.583,86.216l58.255-33.677c.572-.336,1.043-.179,1.043.343a2.144,2.144,0,0,1-1.043,1.544L324.583,88.1c-.572.336-1.043.186-1.043-.336A2.094,2.094,0,0,1,324.583,86.216Z" transform="translate(-316.479 -37.475)" fill="#fff"/>
        </g>
      </g>
    </g>
  </g>
</svg>
