<svg xmlns="http://www.w3.org/2000/svg" width="60" height="60" viewBox="0 0 60 60">
  <g id="Grupo_59798" data-name="Grupo 59798" transform="translate(-390 -6231)">
    <g id="Grupo_59492" data-name="Grupo 59492" transform="translate(205 -1050)">
      <circle id="Elipse_4190" data-name="Elipse 4190" cx="30" cy="30" r="30" transform="translate(185 7281)" fill="#6595bf"/>
    </g>
    <g id="vestuario" transform="translate(388.742 6222.302)">
      <path id="Trazado_113433" data-name="Trazado 113433" d="M380.75,66.436,387.3,85.988l-6.635,2.832-5.6-14.967-.062.009-.525-3.711a8.205,8.205,0,0,1-.029-2.068L376.68,48.52Z" transform="translate(-331.458 -33.494)" fill="#a66d58"/>
      <path id="Trazado_113434" data-name="Trazado 113434" d="M269.16,45.749l-.525-3.711a8.2,8.2,0,0,1-.029-2.068l2.227-19.563-8.453-3.2-5.86,27.134v15.2l4.149,5.561a2.13,2.13,0,0,0,2.248.787l8.768-2.3Z" transform="translate(-225.611 -5.381)" fill="#d9a171"/>
      <path id="Trazado_113435" data-name="Trazado 113435" d="M210.865,17.221l-.755,3.5-.083-.018a23.73,23.73,0,0,1-10.125,0l-.751-3.48a23.742,23.742,0,0,0,11.664-.013Z" transform="translate(-174.098 -5.38)" fill="#a66d58"/>
      <path id="Trazado_113436" data-name="Trazado 113436" d="M216.718,51.408l-5.1,23.626L206.51,51.394a23.73,23.73,0,0,0,10.125,0Z" transform="translate(-180.706 -36.071)" fill="#bac0d3"/>
      <path id="Trazado_113437" data-name="Trazado 113437" d="M116.333,17.293l-.012,0-8.432,3.188,2.225,19.544a8.164,8.164,0,0,1-.034,2.105l-.555,3.795L106.93,63.665l8.878,2.3a2.129,2.129,0,0,0,2.243-.789l4.151-5.564v-15.2Z" transform="translate(-91.292 -5.452)" fill="#e2b085"/>
      <path id="Trazado_113438" data-name="Trazado 113438" d="M24.21,68.064a8.163,8.163,0,0,1-.034,2.105l-.555,3.795-.023,0-5.7,14.86L11.26,85.988l6.56-19.282L21.985,48.52Z" transform="translate(-5.389 -33.494)" fill="#a66d58"/>
      <path id="Trazado_113439" data-name="Trazado 113439" d="M262.38,17.21l3.249,4.47-2.344,2.527,2.238,2.717-9,17.42,5.1-23.626.755-3.5Z" transform="translate(-225.611 -5.38)" fill="#a66d58"/>
      <path id="Trazado_113440" data-name="Trazado 113440" d="M171.294,20.8,176.4,44.443l-9-17.42,2.238-2.717-2.344-2.527,3.241-4.459.011,0Z" transform="translate(-145.49 -5.479)" fill="#a66d58"/>
      <path id="Trazado_113441" data-name="Trazado 113441" d="M23,57.453,21.985,48.52,17.82,66.706,11.26,85.988l2.69,1.148,6.933-20.431Z" transform="translate(-5.389 -33.494)" fill="#d9a171"/>
      <path id="Trazado_113442" data-name="Trazado 113442" d="M113.176,58.329l-2.36-20.65-2.927,1.107,2.225,19.544a8.163,8.163,0,0,1-.034,2.105l-.555,3.795L106.93,81.972l2.878.747,2.778-18.49.555-3.795a8.163,8.163,0,0,0,.034-2.105Z" transform="translate(-91.292 -23.76)" fill="#e9c4a4"/>
      <g id="Grupo_59797" data-name="Grupo 59797" transform="translate(5.258 11.218)">
        <path id="Trazado_113443" data-name="Trazado 113443" d="M150.348,322.331a.612.612,0,0,0,.442.745l3.729.953a.613.613,0,0,0,.3-1.187l-3.729-.953A.613.613,0,0,0,150.348,322.331Z" transform="translate(-135.518 -290.156)" fill="#284268"/>
        <path id="Trazado_113444" data-name="Trazado 113444" d="M318.369,321.888l-3.729.953a.613.613,0,1,0,.3,1.187l3.729-.952a.613.613,0,0,0-.3-1.187Z" transform="translate(-282.641 -290.155)" fill="#284268"/>
        <path id="Trazado_113445" data-name="Trazado 113445" d="M49.883,32.777,45.819,14.892h0a.613.613,0,0,0-.381-.437l-8.453-3.2a.611.611,0,0,0-.417-.005l0-.016a23.2,23.2,0,0,1-11.264.036.613.613,0,0,0-.48-.011L16.38,14.453a.613.613,0,0,0-.38.436v0h0L11.841,33.044,5.291,52.3a.613.613,0,0,0,.339.761l6.636,2.832a.613.613,0,0,0,.812-.344l3.766-9.814L15.031,58.124a.613.613,0,0,0,.452.681l8.878,2.3a2.767,2.767,0,0,0,.695.089,2.729,2.729,0,0,0,2.193-1.1l3.66-4.906,3.658,4.9a2.731,2.731,0,0,0,2.192,1.1,2.765,2.765,0,0,0,.7-.091l8.768-2.3a.613.613,0,0,0,.451-.678L44.9,45.565l3.73,9.976a.613.613,0,0,0,.814.349l6.635-2.832a.613.613,0,0,0,.34-.758ZM37.079,13.3l2.148,2.955-2,2.157a.613.613,0,0,0-.024.806l1.981,2.4-6.7,12.968Zm-6.222-.124a24.425,24.425,0,0,0,5.113-.541l-.464,2.148a22.938,22.938,0,0,1-9.187.022l-.464-2.149a24.4,24.4,0,0,0,5,.52ZM29.338,34.589l-6.7-12.968,1.981-2.4a.613.613,0,0,0-.024-.806l-2-2.157L24.74,13.3ZM30.3,53.96l-4.03,5.4a1.511,1.511,0,0,1-1.6.561l-8.346-2.166,3.07-20.994a8.783,8.783,0,0,0,.036-2.263l-.8-6.985a.613.613,0,0,0-1.217.139l.8,6.985a7.553,7.553,0,0,1-.031,1.947l-.535,3.664-.009,0L12.161,54.513,6.634,52.154l6.377-18.745a.627.627,0,0,0,.017-.061l3.365-14.692.689,6.057a.613.613,0,0,0,1.217-.139L17.259,15.43l6.089-2.3L21.3,15.94a.613.613,0,0,0,.046.777l1.98,2.134-1.9,2.3a.613.613,0,0,0-.071.671L30.3,39.112ZM26.6,16.1a24.222,24.222,0,0,0,4.259.381,24.21,24.21,0,0,0,4.366-.4L30.909,36.062ZM45.391,57.758,37.15,59.919a1.511,1.511,0,0,1-1.6-.561l-4.027-5.4V39.112l8.935-17.288a.613.613,0,0,0-.071-.671l-1.9-2.3,1.98-2.134a.613.613,0,0,0,.046-.777l-2.044-2.813,6.09,2.3-2.173,19.09a8.825,8.825,0,0,0,.031,2.223Zm4.164-3.247L44.184,40.145l-.046.017-.508-3.59a7.6,7.6,0,0,1-.026-1.913l1.819-15.983,3.272,14.4a.593.593,0,0,0,.017.059l6.369,19.016Z" transform="translate(-5.258 -11.218)" fill="#284268"/>
        <path id="Trazado_113446" data-name="Trazado 113446" d="M73.842,222.014a.613.613,0,0,0-.734.461c-.129.565-.289,1.132-.476,1.686l-1.6,4.763a.613.613,0,1,0,1.161.39l1.6-4.764c.2-.592.37-1.2.509-1.8A.613.613,0,0,0,73.842,222.014Z" transform="translate(-64.287 -200.48)" fill="#284268"/>
        <path id="Trazado_113447" data-name="Trazado 113447" d="M96.548,196.374a.613.613,0,0,0-.734.46l-.18.783a.613.613,0,0,0,1.194.274l.18-.783A.613.613,0,0,0,96.548,196.374Z" transform="translate(-86.394 -177.458)" fill="#284268"/>
      </g>
    </g>
  </g>
</svg>
