<svg id="Componente_9_1" data-name="Componente 9 – 1" xmlns="http://www.w3.org/2000/svg" width="60" height="60" viewBox="0 0 60 60">
  <g id="Grupo_59803" data-name="Grupo 59803" transform="translate(-390 -6833)">
    <g id="Grupo_59506" data-name="Grupo 59506" transform="translate(205 -448)">
      <circle id="Elipse_4190" data-name="Elipse 4190" cx="30" cy="30" r="30" transform="translate(185 7281)" fill="#6595bf"/>
    </g>
    <g id="perfume-bottle" transform="translate(398 6841)">
      <path id="Trazado_113475" data-name="Trazado 113475" d="M34,18.7A4.277,4.277,0,0,0,36.7,16a4.277,4.277,0,0,0,2.7,2.7,4.277,4.277,0,0,0-2.7,2.7A4.277,4.277,0,0,0,34,18.7Z" transform="translate(-10.685 -4.857)" fill="#ffe27e"/>
      <path id="Trazado_113476" data-name="Trazado 113476" d="M54,4.7A4.277,4.277,0,0,0,56.7,2a4.277,4.277,0,0,0,2.7,2.7,4.277,4.277,0,0,0-2.7,2.7A4.277,4.277,0,0,0,54,4.7Z" transform="translate(-17.161 -0.324)" fill="#ffe27e"/>
      <path id="Trazado_113477" data-name="Trazado 113477" d="M10,14h9.467v5.41H10Z" transform="translate(-2.914 -4.209)" fill="#a66d58"/>
      <path id="Trazado_113478" data-name="Trazado 113478" d="M10,14h6.762v5.41H10Z" transform="translate(-2.914 -4.209)" fill="#e6c0a1"/>
      <path id="Trazado_113479" data-name="Trazado 113479" d="M12,2h6.762v8.115H12Z" transform="translate(-3.562 -0.324)" fill="#d9a171"/>
      <path id="Trazado_113480" data-name="Trazado 113480" d="M12,2h4.057v8.115H12Z" transform="translate(-3.562 -0.324)" fill="#d9a171"/>
      <path id="Trazado_113481" data-name="Trazado 113481" d="M19.352,8.7H20.7V6H19.352a1.352,1.352,0,1,0,0,2.7Z" transform="translate(-5.504 -1.619)" fill="#a66d58"/>
      <path id="Trazado_113482" data-name="Trazado 113482" d="M22.286,48.4H4.7A2.7,2.7,0,0,1,2,45.7V30.143a10.143,10.143,0,1,1,20.286,0Z" transform="translate(-0.324 -6.152)" fill="#d9a171"/>
      <path id="Trazado_113483" data-name="Trazado 113483" d="M20.877,36V50.877H7.352A1.352,1.352,0,0,1,6,49.524V36" transform="translate(-1.619 -11.333)" fill="#a66d58"/>
      <path id="Trazado_113484" data-name="Trazado 113484" d="M6,46.352l.874-.874a1.633,1.633,0,0,1,2.309,0l.4.4a1.633,1.633,0,0,0,2.309,0l.4-.4a1.633,1.633,0,0,1,2.309,0l.4.4a1.633,1.633,0,0,0,2.309,0l.4-.4a1.633,1.633,0,0,1,2.309,0l.874.874v7.438H7.352A1.352,1.352,0,0,1,6,52.438Z" transform="translate(-1.619 -14.247)" fill="#604949"/>
      <path id="Trazado_113485" data-name="Trazado 113485" d="M39,32h8.115v4.057H39Z" transform="translate(-12.304 -10.037)" fill="#94a7bf"/>
      <path id="Trazado_113486" data-name="Trazado 113486" d="M39,32h5.41v4.057H39Z" transform="translate(-12.304 -10.037)" fill="#c5dfff"/>
      <path id="Trazado_113487" data-name="Trazado 113487" d="M49.639,54.229H29.352A1.352,1.352,0,0,1,28,52.877V39.352A1.352,1.352,0,0,1,29.352,38H49.639a1.352,1.352,0,0,1,1.352,1.352V52.877A1.352,1.352,0,0,1,49.639,54.229Z" transform="translate(-8.742 -11.98)" fill="#a9b7c9"/>
      <path id="Trazado_113488" data-name="Trazado 113488" d="M48.286,52.877V39.352A1.352,1.352,0,0,0,46.934,38H29.352A1.352,1.352,0,0,0,28,39.352V52.877a1.352,1.352,0,0,0,1.352,1.352H46.934A1.352,1.352,0,0,0,48.286,52.877Z" transform="translate(-8.742 -11.98)" fill="#a2afc0"/>
      <path id="Trazado_113489" data-name="Trazado 113489" d="M32,44H49.582v9.467H32Z" transform="translate(-10.037 -13.923)" fill="#94a7bf"/>
      <path id="Trazado_113490" data-name="Trazado 113490" d="M32,44H46.877v9.467H32Z" transform="translate(-10.037 -13.923)" fill="#aed3f2"/>
      <g id="Grupo_59802" data-name="Grupo 59802" transform="translate(28.725 32.782)">
        <path id="Trazado_113491" data-name="Trazado 113491" d="M44,48h1.352v1.352H44Z" transform="translate(-42.648 -48)" fill="#0071bc"/>
        <path id="Trazado_113492" data-name="Trazado 113492" d="M44,52h1.352v1.352H44Z" transform="translate(-42.648 -49.295)" fill="#0071bc"/>
        <path id="Trazado_113493" data-name="Trazado 113493" d="M42,50h1.352v1.352H42Z" transform="translate(-42 -48.648)" fill="#0071bc"/>
        <path id="Trazado_113494" data-name="Trazado 113494" d="M46,50h1.352v1.352H46Z" transform="translate(-43.295 -48.648)" fill="#0071bc"/>
      </g>
      <path id="Trazado_113495" data-name="Trazado 113495" d="M21.286,48.753H4.381A3.385,3.385,0,0,1,1,45.372V29.819a10.819,10.819,0,1,1,21.639,0v2.029H21.286V29.819a9.467,9.467,0,0,0-18.934,0V45.372A2.031,2.031,0,0,0,4.381,47.4H21.286Z" transform="translate(0 -5.828)"/>
      <path id="Trazado_113496" data-name="Trazado 113496" d="M19.819,19.086H18.467V14.352H10.352v4.734H9v-5.41A.676.676,0,0,1,9.676,13h9.467a.676.676,0,0,1,.676.676Z" transform="translate(-2.59 -3.885)"/>
      <path id="Trazado_113497" data-name="Trazado 113497" d="M19.115,9.791H17.762V2.352h-5.41V9.791H11V1.676A.676.676,0,0,1,11.676,1h6.762a.676.676,0,0,1,.676.676Z" transform="translate(-3.238)"/>
      <path id="Trazado_113498" data-name="Trazado 113498" d="M20.553,51.229H7.029A2.031,2.031,0,0,1,5,49.2V35.676A.676.676,0,0,1,5.676,35H18.524v1.352H6.352V49.2a.677.677,0,0,0,.676.676H20.553Z" transform="translate(-1.295 -11.009)"/>
      <path id="Trazado_113499" data-name="Trazado 113499" d="M15.914,46.716a2.293,2.293,0,0,1-1.633-.676l-.4-.4a.978.978,0,0,0-1.352,0l-.4.4a2.366,2.366,0,0,1-3.265,0l-.4-.4a.978.978,0,0,0-1.352,0l-.874.874-.956-.956.874-.874a2.366,2.366,0,0,1,3.265,0l.4.4a.978.978,0,0,0,1.352,0l.4-.4a2.366,2.366,0,0,1,3.265,0l.4.4a.978.978,0,0,0,1.352,0l.4-.4a2.366,2.366,0,0,1,3.265,0l.874.874-.956.956-.874-.874a.978.978,0,0,0-1.352,0l-.4.4A2.291,2.291,0,0,1,15.914,46.716Z" transform="translate(-1.39 -13.934)"/>
      <path id="Trazado_113500" data-name="Trazado 113500" d="M20.381,9.057H19.029a2.029,2.029,0,0,1,0-4.057h1.352a.676.676,0,0,1,.676.676v2.7A.676.676,0,0,1,20.381,9.057Zm-1.352-2.7a.676.676,0,0,0,0,1.352H19.7V6.352Z" transform="translate(-5.181 -1.295)"/>
      <path id="Trazado_113501" data-name="Trazado 113501" d="M0,0H2.869V1.352H0Z" transform="translate(18.102 3.228) rotate(-45)"/>
      <path id="Trazado_113502" data-name="Trazado 113502" d="M0,0H1.352V2.869H0Z" transform="translate(18.101 8.242) rotate(-45)"/>
      <path id="Trazado_113503" data-name="Trazado 113503" d="M28,7h2.7V8.352H28Z" transform="translate(-8.742 -1.943)"/>
      <path id="Trazado_113504" data-name="Trazado 113504" d="M49.315,54.582H29.029A2.031,2.031,0,0,1,27,52.553V39.029A2.031,2.031,0,0,1,29.029,37H49.315a2.031,2.031,0,0,1,2.029,2.029V52.553A2.031,2.031,0,0,1,49.315,54.582ZM29.029,38.352a.677.677,0,0,0-.676.676V52.553a.677.677,0,0,0,.676.676H49.315a.677.677,0,0,0,.676-.676V39.029a.677.677,0,0,0-.676-.676Z" transform="translate(-8.418 -11.656)"/>
      <path id="Trazado_113505" data-name="Trazado 113505" d="M47.467,35.734H46.115V32.352H39.352v3.381H38V31.676A.676.676,0,0,1,38.676,31h8.115a.676.676,0,0,1,.676.676Z" transform="translate(-11.98 -9.714)"/>
      <path id="Trazado_113506" data-name="Trazado 113506" d="M49.258,53.819H31.676A.676.676,0,0,1,31,53.143V43.676A.676.676,0,0,1,31.676,43H49.258a.676.676,0,0,1,.676.676v9.467A.676.676,0,0,1,49.258,53.819ZM32.352,52.467H48.582V44.352H32.352Z" transform="translate(-9.714 -13.599)"/>
      <path id="Trazado_113507" data-name="Trazado 113507" d="M44,48h1.352v1.352H44Z" transform="translate(-13.923 -15.218)"/>
      <path id="Trazado_113508" data-name="Trazado 113508" d="M44,52h1.352v1.352H44Z" transform="translate(-13.923 -16.513)"/>
      <path id="Trazado_113509" data-name="Trazado 113509" d="M42,50h1.352v1.352H42Z" transform="translate(-13.275 -15.865)"/>
      <path id="Trazado_113510" data-name="Trazado 113510" d="M46,50h1.352v1.352H46Z" transform="translate(-14.57 -15.865)"/>
      <path id="Trazado_113511" data-name="Trazado 113511" d="M56.381,7.762a.676.676,0,0,1-.642-.463,3.616,3.616,0,0,0-2.277-2.277.676.676,0,0,1,0-1.283,3.616,3.616,0,0,0,2.277-2.277.676.676,0,0,1,1.283,0A3.616,3.616,0,0,0,59.3,3.739a.676.676,0,0,1,0,1.283A3.616,3.616,0,0,0,57.023,7.3.676.676,0,0,1,56.381,7.762Zm-1.22-3.381a5,5,0,0,1,1.22,1.22,5,5,0,0,1,1.22-1.22,5,5,0,0,1-1.22-1.22A5,5,0,0,1,55.161,4.381Z" transform="translate(-16.837)"/>
      <path id="Trazado_113512" data-name="Trazado 113512" d="M36.381,21.762a.676.676,0,0,1-.642-.463,3.616,3.616,0,0,0-2.277-2.277.676.676,0,0,1,0-1.283,3.616,3.616,0,0,0,2.277-2.277.676.676,0,0,1,1.283,0A3.616,3.616,0,0,0,39.3,17.739a.676.676,0,0,1,0,1.283A3.616,3.616,0,0,0,37.023,21.3.676.676,0,0,1,36.381,21.762Zm-1.22-3.381a5,5,0,0,1,1.22,1.22,5,5,0,0,1,1.22-1.22,5,5,0,0,1-1.22-1.22A5,5,0,0,1,35.161,18.381Z" transform="translate(-10.361 -4.533)"/>
    </g>
  </g>
</svg>
