<svg id="Componente_11_1" data-name="Componente 11 – 1" xmlns="http://www.w3.org/2000/svg" width="60" height="60" viewBox="0 0 60 60">
  <g id="Grupo_59502" data-name="Grupo 59502" transform="translate(-185 -7281)">
    <circle id="Elipse_4190" data-name="Elipse 4190" cx="30" cy="30" r="30" transform="translate(185 7281)" fill="#6595bf"/>
  </g>
  <g id="XMLID_1365_" transform="translate(-17.084 5.999)">
    <g id="XMLID_1282_" transform="translate(27.885 13.648)">
      <path id="XMLID_1152_" d="M50.914,283.418a8.148,8.148,0,0,1-12.139-10.832l6.377-8.02,6.377,8.02A8.148,8.148,0,0,1,50.914,283.418Z" transform="translate(-37.005 -254.548)" fill="#e6d4f1"/>
      <circle id="XMLID_1075_" cx="2.147" cy="2.147" r="2.147" transform="translate(6.001)" fill="#a66d58"/>
      <circle id="XMLID_1031_" cx="2.862" cy="2.862" r="2.862" transform="translate(5.285 4.294)" fill="#a66d58"/>
      <g id="XMLID_1227_" transform="translate(3.935 16.342)">
        <path id="XMLID_1228_" d="M85.21,335.262l-3.3,4.146a4.212,4.212,0,1,0,6.593,0Z" transform="translate(-80.997 -335.262)" fill="#d9a171"/>
      </g>
    </g>
    <g id="XMLID_1284_" transform="translate(50.769 8.818)">
      <path id="XMLID_1298_" d="M306.741,229.418A8.148,8.148,0,0,1,294.6,218.586l6.377-8.02,6.377,8.02A8.148,8.148,0,0,1,306.741,229.418Z" transform="translate(-292.832 -200.548)" fill="#e6d4f1"/>
      <circle id="XMLID_1297_" cx="2.147" cy="2.147" r="2.147" transform="translate(6.001)" fill="#a66d58"/>
      <circle id="XMLID_1296_" cx="2.862" cy="2.862" r="2.862" transform="translate(5.285 4.294)" fill="#a66d58"/>
      <g id="XMLID_1289_" transform="translate(3.935 16.342)">
        <path id="XMLID_1290_" d="M341.037,281.262l-3.3,4.146a4.212,4.212,0,1,0,6.593,0Z" transform="translate(-336.824 -281.262)" fill="#d9a171"/>
      </g>
    </g>
    <g id="XMLID_76_" transform="translate(26.989 0.001)">
      <path id="XMLID_99_" d="M37.61,73.381a3.754,3.754,0,0,0,.694-6.4,3.039,3.039,0,0,0-1.377-4.926v-.6a.55.55,0,0,1,.368-.512,3.588,3.588,0,1,0-4.85-3.359.895.895,0,0,0,1.789,0,1.8,1.8,0,0,1,1.929-1.795,1.8,1.8,0,0,1,.5,3.48,2.354,2.354,0,0,0-1.527,2.187v.6a3.039,3.039,0,0,0-1.377,4.926,3.754,3.754,0,0,0,.694,6.4l-5.5,6.917a9.044,9.044,0,0,0,9.63,14.3.894.894,0,1,0-.5-1.717,7.254,7.254,0,0,1-7.726-11.474l5.677-7.139,5.677,7.139a7.267,7.267,0,0,1,1.282,6.562.895.895,0,1,0,1.717.5,9.058,9.058,0,0,0-1.6-8.18ZM34.78,64.964a1.252,1.252,0,1,1,1.252,1.252A1.254,1.254,0,0,1,34.78,64.964ZM36.033,68a1.968,1.968,0,1,1-1.968,1.968A1.97,1.97,0,0,1,36.033,68Z" transform="translate(-26.989 -49.17)"/>
      <path id="XMLID_1174_" d="M80.1,329.745,76.8,325.6a.895.895,0,0,0-1.4,0l-3.3,4.146a5.106,5.106,0,1,0,7.994,0Zm-1.651,5.524a3.317,3.317,0,0,1-4.942-4.41l2.6-3.265,2.6,3.265A3.316,3.316,0,0,1,78.449,335.269Z" transform="translate(-67.06 -296.166)"/>
      <path id="XMLID_1675_" d="M298.936,26.3l-5.5-6.917a3.754,3.754,0,0,0,.694-6.4,3.039,3.039,0,0,0-1.377-4.926v-.6a.55.55,0,0,1,.368-.512A3.589,3.589,0,0,0,292.111.01a3.558,3.558,0,0,0-2.7.956,3.6,3.6,0,0,0-1.14,2.623.895.895,0,1,0,1.789,0,1.8,1.8,0,0,1,1.929-1.795,1.8,1.8,0,0,1,.5,3.48,2.354,2.354,0,0,0-1.527,2.187v.6a3.039,3.039,0,0,0-1.377,4.926,3.754,3.754,0,0,0,.694,6.4l-5.5,6.917a9.042,9.042,0,1,0,14.155,0Zm-8.33-15.335a1.252,1.252,0,1,1,1.252,1.252A1.254,1.254,0,0,1,290.606,10.964Zm1.252,3.041a1.968,1.968,0,1,1-1.968,1.968A1.97,1.97,0,0,1,291.859,14.006Zm5.129,23.05a7.253,7.253,0,0,1-10.806-9.643l5.677-7.139,5.677,7.139A7.25,7.25,0,0,1,296.988,37.056Z" transform="translate(-259.931 -0.001)"/>
      <path id="XMLID_1684_" d="M332.63,271.6a.895.895,0,0,0-1.4,0l-3.3,4.146a5.106,5.106,0,1,0,7.994,0Zm1.646,9.67a3.317,3.317,0,0,1-4.942-4.41l2.6-3.265,2.6,3.265A3.316,3.316,0,0,1,334.275,281.269Z" transform="translate(-300.002 -246.997)"/>
      <path id="XMLID_1686_" d="M183.389,465.321a.893.893,0,1,0,.633.262A.9.9,0,0,0,183.389,465.321Z" transform="translate(-168.584 -423.698)"/>
    </g>
  </g>
</svg>
